<?xml version="1.0" encoding="UTF-8" standalone="no"?>
<!DOCTYPE svg PUBLIC "-//W3C//DTD SVG 1.1//EN"
 "http://www.w3.org/Graphics/SVG/1.1/DTD/svg11.dtd">
<!-- Generated by graphviz version 2.40.1 (20161225.0304)
 -->
<!-- Title: public.role Pages: 1 -->
<svg width="808pt" height="1649pt"
 viewBox="0.00 0.00 808.00 1649.00" xmlns="http://www.w3.org/2000/svg" xmlns:xlink="http://www.w3.org/1999/xlink">
<g id="graph0" class="graph" transform="scale(1 1) rotate(0) translate(4 1645)">
<title>public.role</title>
<polygon fill="#ffffff" stroke="transparent" points="-4,4 -4,-1645 804,-1645 804,4 -4,4"/>
<!-- public.role -->
<g id="node1" class="node">
<title>public.role</title>
<polygon fill="#efefef" stroke="transparent" points="266.5,-1282.5 266.5,-1317.5 532.5,-1317.5 532.5,-1282.5 266.5,-1282.5"/>
<polygon fill="none" stroke="#000000" points="266.5,-1282.5 266.5,-1317.5 532.5,-1317.5 532.5,-1282.5 266.5,-1282.5"/>
<text text-anchor="start" x="294.712" y="-1295.3" font-family="Arial Bold" font-size="18.00" fill="#000000">public.role</text>
<text text-anchor="start" x="376.72" y="-1295.3" font-family="Arial" font-size="14.00" fill="#000000">    </text>
<text text-anchor="start" x="410.9248" y="-1295.3" font-family="Arial" font-size="14.00" fill="#666666">[BASE TABLE]</text>
<polygon fill="none" stroke="#000000" points="266.5,-1252.5 266.5,-1282.5 532.5,-1282.5 532.5,-1252.5 266.5,-1252.5"/>
<text text-anchor="start" x="273.5" y="-1263.9" font-family="Arial" font-size="14.00" fill="#000000">id </text>
<text text-anchor="start" x="288.2798" y="-1263.9" font-family="Arial" font-size="14.00" fill="#666666">[uuid]</text>
<polygon fill="none" stroke="#000000" points="266.5,-1222.5 266.5,-1252.5 532.5,-1252.5 532.5,-1222.5 266.5,-1222.5"/>
<text text-anchor="start" x="273.5" y="-1233.9" font-family="Arial" font-size="14.00" fill="#000000">channel_id </text>
<text text-anchor="start" x="345.082" y="-1233.9" font-family="Arial" font-size="14.00" fill="#666666">[uuid]</text>
<polygon fill="none" stroke="#000000" points="266.5,-1192.5 266.5,-1222.5 532.5,-1222.5 532.5,-1192.5 266.5,-1192.5"/>
<text text-anchor="start" x="273.5" y="-1203.9" font-family="Arial" font-size="14.00" fill="#000000">title </text>
<text text-anchor="start" x="299.1676" y="-1203.9" font-family="Arial" font-size="14.00" fill="#666666">[varchar(20)]</text>
<polygon fill="none" stroke="#000000" points="266.5,-1162.5 266.5,-1192.5 532.5,-1192.5 532.5,-1162.5 266.5,-1162.5"/>
<text text-anchor="start" x="273.5" y="-1173.9" font-family="Arial" font-size="14.00" fill="#000000">isOwner </text>
<text text-anchor="start" x="328.7202" y="-1173.9" font-family="Arial" font-size="14.00" fill="#666666">[boolean]</text>
<polygon fill="none" stroke="#000000" points="266.5,-1132.5 266.5,-1162.5 532.5,-1162.5 532.5,-1132.5 266.5,-1132.5"/>
<text text-anchor="start" x="273.5" y="-1143.9" font-family="Arial" font-size="14.00" fill="#000000">ranking </text>
<text text-anchor="start" x="323.2882" y="-1143.9" font-family="Arial" font-size="14.00" fill="#666666">[smallint]</text>
<polygon fill="none" stroke="#000000" points="266.5,-1102.5 266.5,-1132.5 532.5,-1132.5 532.5,-1102.5 266.5,-1102.5"/>
<text text-anchor="start" x="273.5" y="-1113.9" font-family="Arial" font-size="14.00" fill="#000000">can_create_roles </text>
<text text-anchor="start" x="384.7524" y="-1113.9" font-family="Arial" font-size="14.00" fill="#666666">[boolean]</text>
<polygon fill="none" stroke="#000000" points="266.5,-1072.5 266.5,-1102.5 532.5,-1102.5 532.5,-1072.5 266.5,-1072.5"/>
<text text-anchor="start" x="273.5" y="-1083.9" font-family="Arial" font-size="14.00" fill="#000000">can_view_roles </text>
<text text-anchor="start" x="373.8492" y="-1083.9" font-family="Arial" font-size="14.00" fill="#666666">[boolean]</text>
<polygon fill="none" stroke="#000000" points="266.5,-1042.5 266.5,-1072.5 532.5,-1072.5 532.5,-1042.5 266.5,-1042.5"/>
<text text-anchor="start" x="273.5" y="-1053.9" font-family="Arial" font-size="14.00" fill="#000000">can_edit_roles </text>
<text text-anchor="start" x="368.4158" y="-1053.9" font-family="Arial" font-size="14.00" fill="#666666">[boolean]</text>
<polygon fill="none" stroke="#000000" points="266.5,-1012.5 266.5,-1042.5 532.5,-1042.5 532.5,-1012.5 266.5,-1012.5"/>
<text text-anchor="start" x="273.5" y="-1023.9" font-family="Arial" font-size="14.00" fill="#000000">can_delete_roles </text>
<text text-anchor="start" x="383.981" y="-1023.9" font-family="Arial" font-size="14.00" fill="#666666">[boolean]</text>
<polygon fill="none" stroke="#000000" points="266.5,-982.5 266.5,-1012.5 532.5,-1012.5 532.5,-982.5 266.5,-982.5"/>
<text text-anchor="start" x="273.5" y="-993.9" font-family="Arial" font-size="14.00" fill="#000000">can_assign_roles </text>
<text text-anchor="start" x="386.3078" y="-993.9" font-family="Arial" font-size="14.00" fill="#666666">[boolean]</text>
<polygon fill="none" stroke="#000000" points="266.5,-952.5 266.5,-982.5 532.5,-982.5 532.5,-952.5 266.5,-952.5"/>
<text text-anchor="start" x="273.4447" y="-963.9" font-family="Arial" font-size="14.00" fill="#000000">can_set_message_of_the_day </text>
<text text-anchor="start" x="467.9719" y="-963.9" font-family="Arial" font-size="14.00" fill="#666666">[boolean]</text>
<polygon fill="none" stroke="#000000" points="266.5,-922.5 266.5,-952.5 532.5,-952.5 532.5,-922.5 266.5,-922.5"/>
<text text-anchor="start" x="273.5" y="-933.9" font-family="Arial" font-size="14.00" fill="#000000">can_edit_name </text>
<text text-anchor="start" x="373.0918" y="-933.9" font-family="Arial" font-size="14.00" fill="#666666">[boolean]</text>
<polygon fill="none" stroke="#000000" points="266.5,-892.5 266.5,-922.5 532.5,-922.5 532.5,-892.5 266.5,-892.5"/>
<text text-anchor="start" x="273.5" y="-903.9" font-family="Arial" font-size="14.00" fill="#000000">can_set_image </text>
<text text-anchor="start" x="372.3092" y="-903.9" font-family="Arial" font-size="14.00" fill="#666666">[boolean]</text>
<polygon fill="none" stroke="#000000" points="266.5,-862.5 266.5,-892.5 532.5,-892.5 532.5,-862.5 266.5,-862.5"/>
<text text-anchor="start" x="273.5" y="-873.9" font-family="Arial" font-size="14.00" fill="#000000">can_view_user_table </text>
<text text-anchor="start" x="408.8702" y="-873.9" font-family="Arial" font-size="14.00" fill="#666666">[boolean]</text>
<polygon fill="none" stroke="#000000" points="266.5,-832.5 266.5,-862.5 532.5,-862.5 532.5,-832.5 266.5,-832.5"/>
<text text-anchor="start" x="273.5" y="-843.9" font-family="Arial" font-size="14.00" fill="#000000">can_edit_tags </text>
<text text-anchor="start" x="364.5392" y="-843.9" font-family="Arial" font-size="14.00" fill="#666666">[boolean]</text>
<polygon fill="none" stroke="#000000" points="266.5,-802.5 266.5,-832.5 532.5,-832.5 532.5,-802.5 266.5,-802.5"/>
<text text-anchor="start" x="273.5" y="-813.9" font-family="Arial" font-size="14.00" fill="#000000">can_timeout_users </text>
<text text-anchor="start" x="395.643" y="-813.9" font-family="Arial" font-size="14.00" fill="#666666">[boolean]</text>
<polygon fill="none" stroke="#000000" points="266.5,-772.5 266.5,-802.5 532.5,-802.5 532.5,-772.5 266.5,-772.5"/>
<text text-anchor="start" x="273.5" y="-783.9" font-family="Arial" font-size="14.00" fill="#000000">can_ban_users </text>
<text text-anchor="start" x="373.0946" y="-783.9" font-family="Arial" font-size="14.00" fill="#666666">[boolean]</text>
<polygon fill="none" stroke="#000000" points="266.5,-742.5 266.5,-772.5 532.5,-772.5 532.5,-742.5 266.5,-742.5"/>
<text text-anchor="start" x="273.5" y="-753.9" font-family="Arial" font-size="14.00" fill="#000000">can_view_banned_users </text>
<text text-anchor="start" x="432.2208" y="-753.9" font-family="Arial" font-size="14.00" fill="#666666">[boolean]</text>
<polygon fill="none" stroke="#000000" points="266.5,-712.5 266.5,-742.5 532.5,-742.5 532.5,-712.5 266.5,-712.5"/>
<text text-anchor="start" x="273.5" y="-723.9" font-family="Arial" font-size="14.00" fill="#000000">can_unban_users </text>
<text text-anchor="start" x="388.6598" y="-723.9" font-family="Arial" font-size="14.00" fill="#666666">[boolean]</text>
<polygon fill="none" stroke="#000000" points="266.5,-682.5 266.5,-712.5 532.5,-712.5 532.5,-682.5 266.5,-682.5"/>
<text text-anchor="start" x="273.5" y="-693.9" font-family="Arial" font-size="14.00" fill="#000000">can_delete_posts </text>
<text text-anchor="start" x="387.1044" y="-693.9" font-family="Arial" font-size="14.00" fill="#666666">[boolean]</text>
<polygon fill="none" stroke="#000000" points="266.5,-652.5 266.5,-682.5 532.5,-682.5 532.5,-652.5 266.5,-652.5"/>
<text text-anchor="start" x="273.5" y="-663.9" font-family="Arial" font-size="14.00" fill="#000000">can_delete_comments </text>
<text text-anchor="start" x="418.2082" y="-663.9" font-family="Arial" font-size="14.00" fill="#666666">[boolean]</text>
<polygon fill="none" stroke="#000000" points="266.5,-622.5 266.5,-652.5 532.5,-652.5 532.5,-622.5 266.5,-622.5"/>
<text text-anchor="start" x="273.5" y="-633.9" font-family="Arial" font-size="14.00" fill="#000000">can_edit_post_tags </text>
<text text-anchor="start" x="398.7776" y="-633.9" font-family="Arial" font-size="14.00" fill="#666666">[boolean]</text>
<polygon fill="none" stroke="#000000" points="266.5,-592.5 266.5,-622.5 532.5,-622.5 532.5,-592.5 266.5,-592.5"/>
<text text-anchor="start" x="273.5" y="-603.9" font-family="Arial" font-size="14.00" fill="#000000">can_view_post_reports </text>
<text text-anchor="start" x="421.3148" y="-603.9" font-family="Arial" font-size="14.00" fill="#666666">[boolean]</text>
<polygon fill="none" stroke="#000000" points="266.5,-562.5 266.5,-592.5 532.5,-592.5 532.5,-562.5 266.5,-562.5"/>
<text text-anchor="start" x="273.5" y="-573.9" font-family="Arial" font-size="14.00" fill="#000000">can_update_post_reports </text>
<text text-anchor="start" x="436.1226" y="-573.9" font-family="Arial" font-size="14.00" fill="#666666">[boolean]</text>
<polygon fill="none" stroke="#000000" points="266.5,-532.5 266.5,-562.5 532.5,-562.5 532.5,-532.5 266.5,-532.5"/>
<text text-anchor="start" x="273.5" y="-543.9" font-family="Arial" font-size="14.00" fill="#000000">can_resolve_post_reports </text>
<text text-anchor="start" x="438.434" y="-543.9" font-family="Arial" font-size="14.00" fill="#666666">[boolean]</text>
<polygon fill="none" stroke="#000000" points="266.5,-502.5 266.5,-532.5 532.5,-532.5 532.5,-502.5 266.5,-502.5"/>
<text text-anchor="start" x="273.5" y="-513.9" font-family="Arial" font-size="14.00" fill="#000000">can_register_events </text>
<text text-anchor="start" x="403.4256" y="-513.9" font-family="Arial" font-size="14.00" fill="#666666">[boolean]</text>
<polygon fill="none" stroke="#000000" points="266.5,-472.5 266.5,-502.5 532.5,-502.5 532.5,-472.5 266.5,-472.5"/>
<text text-anchor="start" x="273.5" y="-483.9" font-family="Arial" font-size="14.00" fill="#000000">can_view_events </text>
<text text-anchor="start" x="384.7552" y="-483.9" font-family="Arial" font-size="14.00" fill="#666666">[boolean]</text>
<polygon fill="none" stroke="#000000" points="266.5,-442.5 266.5,-472.5 532.5,-472.5 532.5,-442.5 266.5,-442.5"/>
<text text-anchor="start" x="273.5" y="-453.9" font-family="Arial" font-size="14.00" fill="#000000">can_edit_events </text>
<text text-anchor="start" x="379.3218" y="-453.9" font-family="Arial" font-size="14.00" fill="#666666">[boolean]</text>
<polygon fill="none" stroke="#000000" points="266.5,-412.5 266.5,-442.5 532.5,-442.5 532.5,-412.5 266.5,-412.5"/>
<text text-anchor="start" x="273.5" y="-423.9" font-family="Arial" font-size="14.00" fill="#000000">can_unregister_events </text>
<text text-anchor="start" x="418.9908" y="-423.9" font-family="Arial" font-size="14.00" fill="#666666">[boolean]</text>
<polygon fill="none" stroke="#000000" stroke-width="3" points="265,-411.5 265,-1319.5 534,-1319.5 534,-411.5 265,-411.5"/>
</g>
<!-- public.channel -->
<g id="node4" class="node">
<title>public.channel</title>
<polygon fill="#efefef" stroke="transparent" points="245.5,-252.5 245.5,-287.5 552.5,-287.5 552.5,-252.5 245.5,-252.5"/>
<polygon fill="none" stroke="#000000" points="245.5,-252.5 245.5,-287.5 552.5,-287.5 552.5,-252.5 245.5,-252.5"/>
<text text-anchor="start" x="277.6988" y="-265.3" font-family="Arial Bold" font-size="18.00" fill="#000000">public.channel</text>
<text text-anchor="start" x="392.7332" y="-265.3" font-family="Arial" font-size="14.00" fill="#000000">    </text>
<text text-anchor="start" x="426.938" y="-265.3" font-family="Arial" font-size="14.00" fill="#666666">[BASE TABLE]</text>
<polygon fill="none" stroke="#000000" points="245.5,-222.5 245.5,-252.5 552.5,-252.5 552.5,-222.5 245.5,-222.5"/>
<text text-anchor="start" x="252.5" y="-233.9" font-family="Arial" font-size="14.00" fill="#000000">id    </text>
<text text-anchor="start" x="297.594" y="-233.9" font-family="Arial" font-size="14.00" fill="#666666">[uuid]</text>
<polygon fill="none" stroke="#000000" points="245.5,-192.5 245.5,-222.5 552.5,-222.5 552.5,-192.5 245.5,-192.5"/>
<text text-anchor="start" x="252.5" y="-203.9" font-family="Arial" font-size="14.00" fill="#000000">name    </text>
<text text-anchor="start" x="321.7132" y="-203.9" font-family="Arial" font-size="14.00" fill="#666666">[text]</text>
<polygon fill="none" stroke="#000000" points="245.5,-162.5 245.5,-192.5 552.5,-192.5 552.5,-162.5 245.5,-162.5"/>
<text text-anchor="start" x="252.5" y="-173.9" font-family="Arial" font-size="14.00" fill="#000000">description    </text>
<text text-anchor="start" x="354.3822" y="-173.9" font-family="Arial" font-size="14.00" fill="#666666">[text]</text>
<polygon fill="none" stroke="#000000" points="245.5,-132.5 245.5,-162.5 552.5,-162.5 552.5,-132.5 245.5,-132.5"/>
<text text-anchor="start" x="252.5" y="-143.9" font-family="Arial" font-size="14.00" fill="#000000">guidelines    </text>
<text text-anchor="start" x="349.7202" y="-143.9" font-family="Arial" font-size="14.00" fill="#666666">[text]</text>
<polygon fill="none" stroke="#000000" points="245.5,-102.5 245.5,-132.5 552.5,-132.5 552.5,-102.5 245.5,-102.5"/>
<text text-anchor="start" x="252.5" y="-113.9" font-family="Arial" font-size="14.00" fill="#000000">created_by    </text>
<text text-anchor="start" x="355.9516" y="-113.9" font-family="Arial" font-size="14.00" fill="#666666">[uuid]</text>
<polygon fill="none" stroke="#000000" points="245.5,-72.5 245.5,-102.5 552.5,-102.5 552.5,-72.5 245.5,-72.5"/>
<text text-anchor="start" x="252.5" y="-83.9" font-family="Arial" font-size="14.00" fill="#000000">created_on    </text>
<text text-anchor="start" x="356.7342" y="-83.9" font-family="Arial" font-size="14.00" fill="#666666">[timestamp without time zone]</text>
<polygon fill="none" stroke="#000000" points="245.5,-42.5 245.5,-72.5 552.5,-72.5 552.5,-42.5 245.5,-42.5"/>
<text text-anchor="start" x="252.3605" y="-53.9" font-family="Arial" font-size="14.00" fill="#000000">updated_on    </text>
<text text-anchor="start" x="360.4993" y="-53.9" font-family="Arial" font-size="14.00" fill="#666666">[timestamp without time zone]</text>
</g>
<!-- public.role&#45;&gt;public.channel -->
<g id="edge3" class="edge">
<title>public.role:channel_id&#45;&gt;public.channel:id</title>
<path fill="none" stroke="#000000" d="M256.4186,-1237.3661C-118.077,-1227.321 12.8301,-654.6021 266.5,-367 351.2449,-270.9191 467.7551,-427.0809 552.5,-331 579.9882,-299.8349 594.0556,-237.5 552.5,-237.5"/>
<polygon fill="#000000" stroke="#000000" points="256.5009,-1237.3671 266.4402,-1241.9996 261.5004,-1237.4335 266.5,-1237.5 266.5,-1237.5 266.5,-1237.5 261.5004,-1237.4335 266.5598,-1233.0004 256.5009,-1237.3671 256.5009,-1237.3671"/>
<text text-anchor="start" x="10.7675" y="-1247.5" font-family="Arial" font-size="10.00" fill="#000000">FOREIGN KEY (channel_id) REFERENCES channel(id)</text>
</g>
<!-- public.invite -->
<g id="node2" class="node">
<title>public.invite</title>
<polygon fill="#efefef" stroke="transparent" points="43.5,-1562.5 43.5,-1597.5 346.5,-1597.5 346.5,-1562.5 43.5,-1562.5"/>
<polygon fill="none" stroke="#000000" points="43.5,-1562.5 43.5,-1597.5 346.5,-1597.5 346.5,-1562.5 43.5,-1562.5"/>
<text text-anchor="start" x="84.2099" y="-1575.3" font-family="Arial Bold" font-size="18.00" fill="#000000">public.invite</text>
<text text-anchor="start" x="178.2221" y="-1575.3" font-family="Arial" font-size="14.00" fill="#000000">    </text>
<text text-anchor="start" x="212.4269" y="-1575.3" font-family="Arial" font-size="14.00" fill="#666666">[BASE TABLE]</text>
<polygon fill="none" stroke="#000000" points="43.5,-1532.5 43.5,-1562.5 346.5,-1562.5 346.5,-1532.5 43.5,-1532.5"/>
<text text-anchor="start" x="50.5" y="-1543.9" font-family="Arial" font-size="14.00" fill="#000000">channel_id    </text>
<text text-anchor="start" x="152.3962" y="-1543.9" font-family="Arial" font-size="14.00" fill="#666666">[uuid]</text>
<polygon fill="none" stroke="#000000" points="43.5,-1502.5 43.5,-1532.5 346.5,-1532.5 346.5,-1502.5 43.5,-1502.5"/>
<text text-anchor="start" x="50.5" y="-1513.9" font-family="Arial" font-size="14.00" fill="#000000">user_id    </text>
<text text-anchor="start" x="130.6024" y="-1513.9" font-family="Arial" font-size="14.00" fill="#666666">[uuid]</text>
<polygon fill="none" stroke="#000000" points="43.5,-1472.5 43.5,-1502.5 346.5,-1502.5 346.5,-1472.5 43.5,-1472.5"/>
<text text-anchor="start" x="50.3128" y="-1483.9" font-family="Arial" font-size="14.00" fill="#000000">created_on    </text>
<text text-anchor="start" x="154.547" y="-1483.9" font-family="Arial" font-size="14.00" fill="#666666">[timestamp without time zone]</text>
<polygon fill="none" stroke="#000000" points="43.5,-1442.5 43.5,-1472.5 346.5,-1472.5 346.5,-1442.5 43.5,-1442.5"/>
<text text-anchor="start" x="50.5" y="-1453.9" font-family="Arial" font-size="14.00" fill="#000000">role_id    </text>
<text text-anchor="start" x="126.709" y="-1453.9" font-family="Arial" font-size="14.00" fill="#666666">[uuid]</text>
</g>
<!-- public.invite&#45;&gt;public.role -->
<g id="edge1" class="edge">
<title>public.invite:role_id&#45;&gt;public.role:id</title>
<path fill="none" stroke="#000000" d="M356.2261,-1454.8133C368.1641,-1446.0669 358.0994,-1417.9395 346.5,-1400 325.3297,-1367.2583 287.6703,-1396.7417 266.5,-1364 243.2126,-1327.984 223.6111,-1267.5 266.5,-1267.5"/>
<polygon fill="#000000" stroke="#000000" points="356.139,-1454.8373 345.3018,-1453.1624 351.3195,-1456.1687 346.5,-1457.5 346.5,-1457.5 346.5,-1457.5 351.3195,-1456.1687 347.6982,-1461.8376 356.139,-1454.8373 356.139,-1454.8373"/>
<text text-anchor="start" x="353.1155" y="-1467.5" font-family="Arial" font-size="10.00" fill="#000000">FOREIGN KEY (role_id) REFERENCES role(id)</text>
</g>
<!-- public.user_role -->
<g id="node3" class="node">
<title>public.user_role</title>
<polygon fill="#efefef" stroke="transparent" points="450.5,-1547.5 450.5,-1582.5 757.5,-1582.5 757.5,-1547.5 450.5,-1547.5"/>
<polygon fill="none" stroke="#000000" points="450.5,-1547.5 450.5,-1582.5 757.5,-1582.5 757.5,-1547.5 450.5,-1547.5"/>
<text text-anchor="start" x="476.7066" y="-1560.3" font-family="Arial Bold" font-size="18.00" fill="#000000">public.user_role</text>
<text text-anchor="start" x="603.7254" y="-1560.3" font-family="Arial" font-size="14.00" fill="#000000">    </text>
<text text-anchor="start" x="637.9302" y="-1560.3" font-family="Arial" font-size="14.00" fill="#666666">[BASE TABLE]</text>
<polygon fill="none" stroke="#000000" points="450.5,-1517.5 450.5,-1547.5 757.5,-1547.5 757.5,-1517.5 450.5,-1517.5"/>
<text text-anchor="start" x="457.5" y="-1528.9" font-family="Arial" font-size="14.00" fill="#000000">user_id    </text>
<text text-anchor="start" x="537.6024" y="-1528.9" font-family="Arial" font-size="14.00" fill="#666666">[uuid]</text>
<polygon fill="none" stroke="#000000" points="450.5,-1487.5 450.5,-1517.5 757.5,-1517.5 757.5,-1487.5 450.5,-1487.5"/>
<text text-anchor="start" x="457.5" y="-1498.9" font-family="Arial" font-size="14.00" fill="#000000">role_id    </text>
<text text-anchor="start" x="533.709" y="-1498.9" font-family="Arial" font-size="14.00" fill="#666666">[uuid]</text>
<polygon fill="none" stroke="#000000" points="450.5,-1457.5 450.5,-1487.5 757.5,-1487.5 757.5,-1457.5 450.5,-1457.5"/>
<text text-anchor="start" x="457.3605" y="-1468.9" font-family="Arial" font-size="14.00" fill="#000000">updated_on    </text>
<text text-anchor="start" x="565.4993" y="-1468.9" font-family="Arial" font-size="14.00" fill="#666666">[timestamp without time zone]</text>
</g>
<!-- public.user_role&#45;&gt;public.role -->
<g id="edge2" class="edge">
<title>public.user_role:role_id&#45;&gt;public.role:id</title>
<path fill="none" stroke="#000000" d="M440.4105,-1500.9207C415.6621,-1491.8327 433.529,-1445.5407 450.5,-1415 471.3466,-1377.4847 511.6534,-1401.5153 532.5,-1364 553.3323,-1326.5104 575.3889,-1267.5 532.5,-1267.5"/>
<polygon fill="#000000" stroke="#000000" points="440.6203,-1500.9535 449.8041,-1506.9459 445.5601,-1501.7267 450.5,-1502.5 450.5,-1502.5 450.5,-1502.5 445.5601,-1501.7267 451.1959,-1498.0541 440.6203,-1500.9535 440.6203,-1500.9535"/>
<text text-anchor="start" x="457.1155" y="-1512.5" font-family="Arial" font-size="10.00" fill="#000000">FOREIGN KEY (role_id) REFERENCES role(id)</text>
</g>
</g>
</svg>
