<?xml version="1.0" encoding="UTF-8" standalone="no"?>
<!DOCTYPE svg PUBLIC "-//W3C//DTD SVG 1.1//EN"
 "http://www.w3.org/Graphics/SVG/1.1/DTD/svg11.dtd">
<!-- Generated by graphviz version 12.1.2 (20240928.0832)
 -->
<!-- Title: public.public_channel Pages: 1 -->
<svg width="617pt" height="725pt"
 viewBox="0.00 0.00 616.78 725.20" xmlns="http://www.w3.org/2000/svg" xmlns:xlink="http://www.w3.org/1999/xlink">
<g id="graph0" class="graph" transform="scale(1 1) rotate(0) translate(4 721.2)">
<title>public.public_channel</title>
<polygon fill="white" stroke="none" points="-4,4 -4,-721.2 612.78,-721.2 612.78,4 -4,4"/>
<!-- public.public_channel -->
<g id="node1" class="node">
<title>public.public_channel</title>
<polygon fill="#efefef" stroke="none" points="46.2,-635.4 46.2,-671 344.25,-671 344.25,-635.4 46.2,-635.4"/>
<polygon fill="none" stroke="black" points="46.2,-635.4 46.2,-671 344.25,-671 344.25,-635.4 46.2,-635.4"/>
<text text-anchor="start" x="53.25" y="-648.8" font-family="Arial Bold" font-size="18.00">public.public_channel</text>
<text text-anchor="start" x="212.7" y="-648.8" font-family="Arial" font-size="14.00">    </text>
<text text-anchor="start" x="243.82" y="-648.8" font-family="Arial" font-size="14.00" fill="#666666">[BASE TABLE]</text>
<polygon fill="none" stroke="black" points="46.2,-604.6 46.2,-635.4 344.25,-635.4 344.25,-604.6 46.2,-604.6"/>
<text text-anchor="start" x="53.2" y="-616.8" font-family="Arial" font-size="14.00">channel_id </text>
<text text-anchor="start" x="124.81" y="-616.8" font-family="Arial" font-size="14.00" fill="#666666">[uuid]</text>
<polygon fill="none" stroke="black" points="46.2,-573.8 46.2,-604.6 344.25,-604.6 344.25,-573.8 46.2,-573.8"/>
<text text-anchor="start" x="53.2" y="-586" font-family="Arial" font-size="14.00">name </text>
<text text-anchor="start" x="92.11" y="-586" font-family="Arial" font-size="14.00" fill="#666666">[varchar(25)]</text>
<polygon fill="none" stroke="black" points="46.2,-543 46.2,-573.8 344.25,-573.8 344.25,-543 46.2,-543"/>
<text text-anchor="start" x="53.2" y="-555.2" font-family="Arial" font-size="14.00">date_published </text>
<text text-anchor="start" x="152.06" y="-555.2" font-family="Arial" font-size="14.00" fill="#666666">[timestamp without time zone]</text>
<polygon fill="none" stroke="black" stroke-width="3" points="44.7,-541.5 44.7,-672.5 345.75,-672.5 345.75,-541.5 44.7,-541.5"/>
</g>
<!-- public.channel -->
<g id="node2" class="node">
<title>public.channel</title>
<polygon fill="#efefef" stroke="none" points="56.7,-382 56.7,-417.6 333.74,-417.6 333.74,-382 56.7,-382"/>
<polygon fill="none" stroke="black" points="56.7,-382 56.7,-417.6 333.74,-417.6 333.74,-382 56.7,-382"/>
<text text-anchor="start" x="80.25" y="-395.4" font-family="Arial Bold" font-size="18.00">public.channel</text>
<text text-anchor="start" x="185.71" y="-395.4" font-family="Arial" font-size="14.00">    </text>
<text text-anchor="start" x="216.83" y="-395.4" font-family="Arial" font-size="14.00" fill="#666666">[BASE TABLE]</text>
<polygon fill="none" stroke="black" points="56.7,-351.2 56.7,-382 333.74,-382 333.74,-351.2 56.7,-351.2"/>
<text text-anchor="start" x="63.7" y="-363.4" font-family="Arial" font-size="14.00">id </text>
<text text-anchor="start" x="78.49" y="-363.4" font-family="Arial" font-size="14.00" fill="#666666">[uuid]</text>
<polygon fill="none" stroke="black" points="56.7,-320.4 56.7,-351.2 333.74,-351.2 333.74,-320.4 56.7,-320.4"/>
<text text-anchor="start" x="63.7" y="-332.6" font-family="Arial" font-size="14.00">name </text>
<text text-anchor="start" x="102.61" y="-332.6" font-family="Arial" font-size="14.00" fill="#666666">[text]</text>
<polygon fill="none" stroke="black" points="56.7,-289.6 56.7,-320.4 333.74,-320.4 333.74,-289.6 56.7,-289.6"/>
<text text-anchor="start" x="63.7" y="-301.8" font-family="Arial" font-size="14.00">description </text>
<text text-anchor="start" x="135.3" y="-301.8" font-family="Arial" font-size="14.00" fill="#666666">[text]</text>
<polygon fill="none" stroke="black" points="56.7,-258.8 56.7,-289.6 333.74,-289.6 333.74,-258.8 56.7,-258.8"/>
<text text-anchor="start" x="63.7" y="-271" font-family="Arial" font-size="14.00">guidelines </text>
<text text-anchor="start" x="130.64" y="-271" font-family="Arial" font-size="14.00" fill="#666666">[text]</text>
<polygon fill="none" stroke="black" points="56.7,-228 56.7,-258.8 333.74,-258.8 333.74,-228 56.7,-228"/>
<text text-anchor="start" x="63.7" y="-240.2" font-family="Arial" font-size="14.00">created_by </text>
<text text-anchor="start" x="136.86" y="-240.2" font-family="Arial" font-size="14.00" fill="#666666">[uuid]</text>
<polygon fill="none" stroke="black" points="56.7,-197.2 56.7,-228 333.74,-228 333.74,-197.2 56.7,-197.2"/>
<text text-anchor="start" x="63.7" y="-209.4" font-family="Arial" font-size="14.00">banner_image </text>
<text text-anchor="start" x="157.1" y="-209.4" font-family="Arial" font-size="14.00" fill="#666666">[text]</text>
<polygon fill="none" stroke="black" points="56.7,-166.4 56.7,-197.2 333.74,-197.2 333.74,-166.4 56.7,-166.4"/>
<text text-anchor="start" x="63.7" y="-178.6" font-family="Arial" font-size="14.00">icon </text>
<text text-anchor="start" x="93.28" y="-178.6" font-family="Arial" font-size="14.00" fill="#666666">[text]</text>
<polygon fill="none" stroke="black" points="56.7,-135.6 56.7,-166.4 333.74,-166.4 333.74,-135.6 56.7,-135.6"/>
<text text-anchor="start" x="63.7" y="-147.8" font-family="Arial" font-size="14.00">created_on </text>
<text text-anchor="start" x="137.65" y="-147.8" font-family="Arial" font-size="14.00" fill="#666666">[timestamp without time zone]</text>
<polygon fill="none" stroke="black" points="56.7,-104.8 56.7,-135.6 333.74,-135.6 333.74,-104.8 56.7,-104.8"/>
<text text-anchor="start" x="63.7" y="-117" font-family="Arial" font-size="14.00">updated_on </text>
<text text-anchor="start" x="141.56" y="-117" font-family="Arial" font-size="14.00" fill="#666666">[timestamp without time zone]</text>
<polygon fill="none" stroke="black" points="56.7,-74 56.7,-104.8 333.74,-104.8 333.74,-74 56.7,-74"/>
<text text-anchor="start" x="63.7" y="-86.2" font-family="Arial" font-size="14.00">subscribers </text>
<text text-anchor="start" x="139.17" y="-86.2" font-family="Arial" font-size="14.00" fill="#666666">[integer]</text>
<polygon fill="none" stroke="black" points="56.7,-43.2 56.7,-74 333.74,-74 333.74,-43.2 56.7,-43.2"/>
<text text-anchor="start" x="63.7" y="-55.4" font-family="Arial" font-size="14.00">posts </text>
<text text-anchor="start" x="101.05" y="-55.4" font-family="Arial" font-size="14.00" fill="#666666">[integer]</text>
</g>
<!-- public.public_channel&#45;&gt;public.channel -->
<g id="edge1" class="edge">
<title>public.public_channel:channel_id&#45;&gt;public.channel:id</title>
<path fill="none" stroke="black" d="M355.04,-617.15C400.11,-589.31 387.58,-366.6 334.74,-366.6"/>
<polygon fill="black" stroke="black" points="355.17,-617.11 344.31,-615.59 350.05,-618.6 345.89,-619.81 345.89,-619.81 345.89,-619.81 350.05,-618.6 346.82,-624.23 355.17,-617.11"/>
<text text-anchor="start" x="352.25" y="-630" font-family="Arial" font-size="10.00">FOREIGN KEY (channel_id) REFERENCES channel(id)</text>
</g>
</g>
</svg>
