<?xml version="1.0" encoding="UTF-8" standalone="no"?>
<!DOCTYPE svg PUBLIC "-//W3C//DTD SVG 1.1//EN"
 "http://www.w3.org/Graphics/SVG/1.1/DTD/svg11.dtd">
<!-- Generated by graphviz version 12.1.2 (20240928.0832)
 -->
<!-- Title: public.post_tag Pages: 1 -->
<svg width="774pt" height="756pt"
 viewBox="0.00 0.00 774.07 756.00" xmlns="http://www.w3.org/2000/svg" xmlns:xlink="http://www.w3.org/1999/xlink">
<g id="graph0" class="graph" transform="scale(1 1) rotate(0) translate(4 752)">
<title>public.post_tag</title>
<polygon fill="white" stroke="none" points="-4,4 -4,-752 770.07,-752 770.07,4 -4,4"/>
<!-- public.post_tag -->
<g id="node1" class="node">
<title>public.post_tag</title>
<polygon fill="#efefef" stroke="none" points="249.23,-666.2 249.23,-701.8 498.21,-701.8 498.21,-666.2 249.23,-666.2"/>
<polygon fill="none" stroke="black" points="249.23,-666.2 249.23,-701.8 498.21,-701.8 498.21,-666.2 249.23,-666.2"/>
<text text-anchor="start" x="256.23" y="-679.6" font-family="Arial Bold" font-size="18.00">public.post_tag</text>
<text text-anchor="start" x="366.72" y="-679.6" font-family="Arial" font-size="14.00">    </text>
<text text-anchor="start" x="397.84" y="-679.6" font-family="Arial" font-size="14.00" fill="#666666">[BASE TABLE]</text>
<polygon fill="none" stroke="black" points="249.23,-635.4 249.23,-666.2 498.21,-666.2 498.21,-635.4 249.23,-635.4"/>
<text text-anchor="start" x="256.23" y="-647.6" font-family="Arial" font-size="14.00">id </text>
<text text-anchor="start" x="271.02" y="-647.6" font-family="Arial" font-size="14.00" fill="#666666">[uuid]</text>
<polygon fill="none" stroke="black" points="249.23,-604.6 249.23,-635.4 498.21,-635.4 498.21,-604.6 249.23,-604.6"/>
<text text-anchor="start" x="256.23" y="-616.8" font-family="Arial" font-size="14.00">post_id </text>
<text text-anchor="start" x="305.27" y="-616.8" font-family="Arial" font-size="14.00" fill="#666666">[uuid]</text>
<polygon fill="none" stroke="black" points="249.23,-573.8 249.23,-604.6 498.21,-604.6 498.21,-573.8 249.23,-573.8"/>
<text text-anchor="start" x="256.23" y="-586" font-family="Arial" font-size="14.00">tag_id </text>
<text text-anchor="start" x="298.27" y="-586" font-family="Arial" font-size="14.00" fill="#666666">[uuid]</text>
<polygon fill="none" stroke="black" stroke-width="3" points="247.73,-572.3 247.73,-703.3 499.71,-703.3 499.71,-572.3 247.73,-572.3"/>
</g>
<!-- public.post -->
<g id="node2" class="node">
<title>public.post</title>
<polygon fill="#efefef" stroke="none" points="43.2,-412.8 43.2,-448.4 320.24,-448.4 320.24,-412.8 43.2,-412.8"/>
<polygon fill="none" stroke="black" points="43.2,-412.8 43.2,-448.4 320.24,-448.4 320.24,-412.8 43.2,-412.8"/>
<text text-anchor="start" x="79.73" y="-426.2" font-family="Arial Bold" font-size="18.00">public.post</text>
<text text-anchor="start" x="159.22" y="-426.2" font-family="Arial" font-size="14.00">    </text>
<text text-anchor="start" x="190.34" y="-426.2" font-family="Arial" font-size="14.00" fill="#666666">[BASE TABLE]</text>
<polygon fill="none" stroke="black" points="43.2,-382 43.2,-412.8 320.24,-412.8 320.24,-382 43.2,-382"/>
<text text-anchor="start" x="50.2" y="-394.2" font-family="Arial" font-size="14.00">id </text>
<text text-anchor="start" x="64.99" y="-394.2" font-family="Arial" font-size="14.00" fill="#666666">[uuid]</text>
<polygon fill="none" stroke="black" points="43.2,-351.2 43.2,-382 320.24,-382 320.24,-351.2 43.2,-351.2"/>
<text text-anchor="start" x="50.2" y="-363.4" font-family="Arial" font-size="14.00">name </text>
<text text-anchor="start" x="89.11" y="-363.4" font-family="Arial" font-size="14.00" fill="#666666">[text]</text>
<polygon fill="none" stroke="black" points="43.2,-320.4 43.2,-351.2 320.24,-351.2 320.24,-320.4 43.2,-320.4"/>
<text text-anchor="start" x="50.2" y="-332.6" font-family="Arial" font-size="14.00">description </text>
<text text-anchor="start" x="121.79" y="-332.6" font-family="Arial" font-size="14.00" fill="#666666">[text]</text>
<polygon fill="none" stroke="black" points="43.2,-289.6 43.2,-320.4 320.24,-320.4 320.24,-289.6 43.2,-289.6"/>
<text text-anchor="start" x="50.2" y="-301.8" font-family="Arial" font-size="14.00">alt_text </text>
<text text-anchor="start" x="99.23" y="-301.8" font-family="Arial" font-size="14.00" fill="#666666">[text]</text>
<polygon fill="none" stroke="black" points="43.2,-258.8 43.2,-289.6 320.24,-289.6 320.24,-258.8 43.2,-258.8"/>
<text text-anchor="start" x="50.2" y="-271" font-family="Arial" font-size="14.00">created_by </text>
<text text-anchor="start" x="123.36" y="-271" font-family="Arial" font-size="14.00" fill="#666666">[uuid]</text>
<polygon fill="none" stroke="black" points="43.2,-228 43.2,-258.8 320.24,-258.8 320.24,-228 43.2,-228"/>
<text text-anchor="start" x="50.2" y="-240.2" font-family="Arial" font-size="14.00">channel_id </text>
<text text-anchor="start" x="121.81" y="-240.2" font-family="Arial" font-size="14.00" fill="#666666">[uuid]</text>
<polygon fill="none" stroke="black" points="43.2,-197.2 43.2,-228 320.24,-228 320.24,-197.2 43.2,-197.2"/>
<text text-anchor="start" x="50.2" y="-209.4" font-family="Arial" font-size="14.00">video_id </text>
<text text-anchor="start" x="106.24" y="-209.4" font-family="Arial" font-size="14.00" fill="#666666">[text]</text>
<polygon fill="none" stroke="black" points="43.2,-166.4 43.2,-197.2 320.24,-197.2 320.24,-166.4 43.2,-166.4"/>
<text text-anchor="start" x="50.2" y="-178.6" font-family="Arial" font-size="14.00">created_on </text>
<text text-anchor="start" x="124.14" y="-178.6" font-family="Arial" font-size="14.00" fill="#666666">[timestamp without time zone]</text>
<polygon fill="none" stroke="black" points="43.2,-135.6 43.2,-166.4 320.24,-166.4 320.24,-135.6 43.2,-135.6"/>
<text text-anchor="start" x="50.2" y="-147.8" font-family="Arial" font-size="14.00">updated_on </text>
<text text-anchor="start" x="128.05" y="-147.8" font-family="Arial" font-size="14.00" fill="#666666">[timestamp without time zone]</text>
<polygon fill="none" stroke="black" points="43.2,-104.8 43.2,-135.6 320.24,-135.6 320.24,-104.8 43.2,-104.8"/>
<text text-anchor="start" x="50.2" y="-117" font-family="Arial" font-size="14.00">upvotes </text>
<text text-anchor="start" x="103.12" y="-117" font-family="Arial" font-size="14.00" fill="#666666">[integer]</text>
<polygon fill="none" stroke="black" points="43.2,-74 43.2,-104.8 320.24,-104.8 320.24,-74 43.2,-74"/>
<text text-anchor="start" x="50.2" y="-86.2" font-family="Arial" font-size="14.00">downvotes </text>
<text text-anchor="start" x="121.02" y="-86.2" font-family="Arial" font-size="14.00" fill="#666666">[integer]</text>
<polygon fill="none" stroke="black" points="43.2,-43.2 43.2,-74 320.24,-74 320.24,-43.2 43.2,-43.2"/>
<text text-anchor="start" x="50.2" y="-55.4" font-family="Arial" font-size="14.00">comments </text>
<text text-anchor="start" x="118.66" y="-55.4" font-family="Arial" font-size="14.00" fill="#666666">[integer]</text>
</g>
<!-- public.post_tag&#45;&gt;public.post -->
<g id="edge1" class="edge">
<title>public.post_tag:post_id&#45;&gt;public.post:id</title>
<path fill="none" stroke="black" d="M238.25,-618.55C211,-609.41 229.58,-559.21 249.23,-527.6 267.91,-497.55 301.56,-521.65 320.24,-491.6 342.34,-456.04 363.11,-397.4 321.24,-397.4"/>
<polygon fill="black" stroke="black" points="238,-618.51 247.25,-624.41 243.28,-619.28 247.57,-619.9 247.57,-619.9 247.57,-619.9 243.28,-619.28 248.55,-615.5 238,-618.51"/>
<text text-anchor="start" x="23.96" y="-630" font-family="Arial" font-size="10.00">FOREIGN KEY (post_id) REFERENCES post(id)</text>
</g>
<!-- public.channel_tags -->
<g id="node3" class="node">
<title>public.channel_tags</title>
<polygon fill="#efefef" stroke="none" points="424.75,-289.6 424.75,-325.2 706.69,-325.2 706.69,-289.6 424.75,-289.6"/>
<polygon fill="none" stroke="black" points="424.75,-289.6 424.75,-325.2 706.69,-325.2 706.69,-289.6 424.75,-289.6"/>
<text text-anchor="start" x="431.75" y="-303" font-family="Arial Bold" font-size="18.00">public.channel_tags</text>
<text text-anchor="start" x="575.2" y="-303" font-family="Arial" font-size="14.00">    </text>
<text text-anchor="start" x="606.32" y="-303" font-family="Arial" font-size="14.00" fill="#666666">[BASE TABLE]</text>
<polygon fill="none" stroke="black" points="424.75,-258.8 424.75,-289.6 706.69,-289.6 706.69,-258.8 424.75,-258.8"/>
<text text-anchor="start" x="431.75" y="-271" font-family="Arial" font-size="14.00">id </text>
<text text-anchor="start" x="446.53" y="-271" font-family="Arial" font-size="14.00" fill="#666666">[uuid]</text>
<polygon fill="none" stroke="black" points="424.75,-228 424.75,-258.8 706.69,-258.8 706.69,-228 424.75,-228"/>
<text text-anchor="start" x="431.75" y="-240.2" font-family="Arial" font-size="14.00">channel_id </text>
<text text-anchor="start" x="503.36" y="-240.2" font-family="Arial" font-size="14.00" fill="#666666">[uuid]</text>
<polygon fill="none" stroke="black" points="424.75,-197.2 424.75,-228 706.69,-228 706.69,-197.2 424.75,-197.2"/>
<text text-anchor="start" x="431.75" y="-209.4" font-family="Arial" font-size="14.00">name </text>
<text text-anchor="start" x="470.66" y="-209.4" font-family="Arial" font-size="14.00" fill="#666666">[varchar(16)]</text>
<polygon fill="none" stroke="black" points="424.75,-166.4 424.75,-197.2 706.69,-197.2 706.69,-166.4 424.75,-166.4"/>
<text text-anchor="start" x="431.75" y="-178.6" font-family="Arial" font-size="14.00">color </text>
<text text-anchor="start" x="465.98" y="-178.6" font-family="Arial" font-size="14.00" fill="#666666">[varchar(16)]</text>
</g>
<!-- public.post_tag&#45;&gt;public.channel_tags -->
<g id="edge2" class="edge">
<title>public.post_tag:tag_id&#45;&gt;public.channel_tags:id</title>
<path fill="none" stroke="black" d="M509.56,-588.55C624.36,-572.81 283.58,-274.2 423.75,-274.2"/>
<polygon fill="black" stroke="black" points="509.52,-588.56 499.26,-584.69 504.2,-588.89 499.88,-589.16 499.88,-589.16 499.88,-589.16 504.2,-588.89 499.82,-593.67 509.52,-588.56"/>
<text text-anchor="start" x="506.21" y="-599.2" font-family="Arial" font-size="10.00">FOREIGN KEY (tag_id) REFERENCES channel_tags(id)</text>
</g>
</g>
</svg>
