<?xml version="1.0" encoding="UTF-8" standalone="no"?>
<!DOCTYPE svg PUBLIC "-//W3C//DTD SVG 1.1//EN"
 "http://www.w3.org/Graphics/SVG/1.1/DTD/svg11.dtd">
<!-- Generated by graphviz version 12.1.2 (20240928.0832)
 -->
<!-- Title: public.playlist_post Pages: 1 -->
<svg width="776pt" height="787pt"
 viewBox="0.00 0.00 775.87 786.80" xmlns="http://www.w3.org/2000/svg" xmlns:xlink="http://www.w3.org/1999/xlink">
<g id="graph0" class="graph" transform="scale(1 1) rotate(0) translate(4 782.8)">
<title>public.playlist_post</title>
<polygon fill="white" stroke="none" points="-4,4 -4,-782.8 771.87,-782.8 771.87,4 -4,4"/>
<!-- public.playlist_post -->
<g id="node1" class="node">
<title>public.playlist_post</title>
<polygon fill="#efefef" stroke="none" points="255.61,-697 255.61,-732.6 535.59,-732.6 535.59,-697 255.61,-697"/>
<polygon fill="none" stroke="black" points="255.61,-697 255.61,-732.6 535.59,-732.6 535.59,-697 255.61,-697"/>
<text text-anchor="start" x="262.61" y="-710.4" font-family="Arial Bold" font-size="18.00">public.playlist_post</text>
<text text-anchor="start" x="404.1" y="-710.4" font-family="Arial" font-size="14.00">    </text>
<text text-anchor="start" x="435.22" y="-710.4" font-family="Arial" font-size="14.00" fill="#666666">[BASE TABLE]</text>
<polygon fill="none" stroke="black" points="255.61,-666.2 255.61,-697 535.59,-697 535.59,-666.2 255.61,-666.2"/>
<text text-anchor="start" x="262.61" y="-678.4" font-family="Arial" font-size="14.00">id </text>
<text text-anchor="start" x="277.39" y="-678.4" font-family="Arial" font-size="14.00" fill="#666666">[uuid]</text>
<polygon fill="none" stroke="black" points="255.61,-635.4 255.61,-666.2 535.59,-666.2 535.59,-635.4 255.61,-635.4"/>
<text text-anchor="start" x="262.61" y="-647.6" font-family="Arial" font-size="14.00">playlist_id </text>
<text text-anchor="start" x="327.97" y="-647.6" font-family="Arial" font-size="14.00" fill="#666666">[uuid]</text>
<polygon fill="none" stroke="black" points="255.61,-604.6 255.61,-635.4 535.59,-635.4 535.59,-604.6 255.61,-604.6"/>
<text text-anchor="start" x="262.61" y="-616.8" font-family="Arial" font-size="14.00">post_id </text>
<text text-anchor="start" x="311.64" y="-616.8" font-family="Arial" font-size="14.00" fill="#666666">[uuid]</text>
<polygon fill="none" stroke="black" points="255.61,-573.8 255.61,-604.6 535.59,-604.6 535.59,-573.8 255.61,-573.8"/>
<text text-anchor="start" x="262.61" y="-586" font-family="Arial" font-size="14.00">sort_index </text>
<text text-anchor="start" x="331.09" y="-586" font-family="Arial" font-size="14.00" fill="#666666">[smallint]</text>
<polygon fill="none" stroke="black" stroke-width="3" points="254.11,-572.3 254.11,-734.1 537.09,-734.1 537.09,-572.3 254.11,-572.3"/>
</g>
<!-- public.playlist -->
<g id="node2" class="node">
<title>public.playlist</title>
<polygon fill="#efefef" stroke="none" points="94.11,-305 94.11,-340.6 335.09,-340.6 335.09,-305 94.11,-305"/>
<polygon fill="none" stroke="black" points="94.11,-305 94.11,-340.6 335.09,-340.6 335.09,-305 94.11,-305"/>
<text text-anchor="start" x="101.11" y="-318.4" font-family="Arial Bold" font-size="18.00">public.playlist</text>
<text text-anchor="start" x="203.6" y="-318.4" font-family="Arial" font-size="14.00">    </text>
<text text-anchor="start" x="234.71" y="-318.4" font-family="Arial" font-size="14.00" fill="#666666">[BASE TABLE]</text>
<polygon fill="none" stroke="black" points="94.11,-274.2 94.11,-305 335.09,-305 335.09,-274.2 94.11,-274.2"/>
<text text-anchor="start" x="101.11" y="-286.4" font-family="Arial" font-size="14.00">id </text>
<text text-anchor="start" x="115.89" y="-286.4" font-family="Arial" font-size="14.00" fill="#666666">[uuid]</text>
<polygon fill="none" stroke="black" points="94.11,-243.4 94.11,-274.2 335.09,-274.2 335.09,-243.4 94.11,-243.4"/>
<text text-anchor="start" x="101.11" y="-255.6" font-family="Arial" font-size="14.00">user_id </text>
<text text-anchor="start" x="150.92" y="-255.6" font-family="Arial" font-size="14.00" fill="#666666">[uuid]</text>
<polygon fill="none" stroke="black" points="94.11,-212.6 94.11,-243.4 335.09,-243.4 335.09,-212.6 94.11,-212.6"/>
<text text-anchor="start" x="101.11" y="-224.8" font-family="Arial" font-size="14.00">name </text>
<text text-anchor="start" x="140.02" y="-224.8" font-family="Arial" font-size="14.00" fill="#666666">[varchar(32)]</text>
<polygon fill="none" stroke="black" points="94.11,-181.8 94.11,-212.6 335.09,-212.6 335.09,-181.8 94.11,-181.8"/>
<text text-anchor="start" x="101.11" y="-194" font-family="Arial" font-size="14.00">description </text>
<text text-anchor="start" x="172.7" y="-194" font-family="Arial" font-size="14.00" fill="#666666">[text]</text>
<polygon fill="none" stroke="black" points="94.11,-151 94.11,-181.8 335.09,-181.8 335.09,-151 94.11,-151"/>
<text text-anchor="start" x="101.11" y="-163.2" font-family="Arial" font-size="14.00">public </text>
<text text-anchor="start" x="141.58" y="-163.2" font-family="Arial" font-size="14.00" fill="#666666">[boolean]</text>
</g>
<!-- public.playlist_post&#45;&gt;public.playlist -->
<g id="edge1" class="edge">
<title>public.playlist_post:playlist_id&#45;&gt;public.playlist:id</title>
<path fill="none" stroke="black" d="M244.44,-649.79C205.6,-641.01 242.69,-576.84 255.61,-527.6 274.13,-456.97 316.47,-454.41 335.09,-383.8 345.76,-343.31 377.96,-289.6 336.09,-289.6"/>
<polygon fill="black" stroke="black" points="244.32,-649.78 253.83,-655.24 249.63,-650.3 253.94,-650.73 253.94,-650.73 253.94,-650.73 249.63,-650.3 254.72,-646.29 244.32,-649.78"/>
<text text-anchor="start" x="7" y="-660.8" font-family="Arial" font-size="10.00">FOREIGN KEY (playlist_id) REFERENCES playlist(id)</text>
</g>
<!-- public.post -->
<g id="node3" class="node">
<title>public.post</title>
<polygon fill="#efefef" stroke="none" points="439.08,-412.8 439.08,-448.4 716.12,-448.4 716.12,-412.8 439.08,-412.8"/>
<polygon fill="none" stroke="black" points="439.08,-412.8 439.08,-448.4 716.12,-448.4 716.12,-412.8 439.08,-412.8"/>
<text text-anchor="start" x="475.6" y="-426.2" font-family="Arial Bold" font-size="18.00">public.post</text>
<text text-anchor="start" x="555.1" y="-426.2" font-family="Arial" font-size="14.00">    </text>
<text text-anchor="start" x="586.22" y="-426.2" font-family="Arial" font-size="14.00" fill="#666666">[BASE TABLE]</text>
<polygon fill="none" stroke="black" points="439.08,-382 439.08,-412.8 716.12,-412.8 716.12,-382 439.08,-382"/>
<text text-anchor="start" x="446.08" y="-394.2" font-family="Arial" font-size="14.00">id </text>
<text text-anchor="start" x="460.86" y="-394.2" font-family="Arial" font-size="14.00" fill="#666666">[uuid]</text>
<polygon fill="none" stroke="black" points="439.08,-351.2 439.08,-382 716.12,-382 716.12,-351.2 439.08,-351.2"/>
<text text-anchor="start" x="446.08" y="-363.4" font-family="Arial" font-size="14.00">name </text>
<text text-anchor="start" x="484.99" y="-363.4" font-family="Arial" font-size="14.00" fill="#666666">[text]</text>
<polygon fill="none" stroke="black" points="439.08,-320.4 439.08,-351.2 716.12,-351.2 716.12,-320.4 439.08,-320.4"/>
<text text-anchor="start" x="446.08" y="-332.6" font-family="Arial" font-size="14.00">description </text>
<text text-anchor="start" x="517.67" y="-332.6" font-family="Arial" font-size="14.00" fill="#666666">[text]</text>
<polygon fill="none" stroke="black" points="439.08,-289.6 439.08,-320.4 716.12,-320.4 716.12,-289.6 439.08,-289.6"/>
<text text-anchor="start" x="446.08" y="-301.8" font-family="Arial" font-size="14.00">alt_text </text>
<text text-anchor="start" x="495.1" y="-301.8" font-family="Arial" font-size="14.00" fill="#666666">[text]</text>
<polygon fill="none" stroke="black" points="439.08,-258.8 439.08,-289.6 716.12,-289.6 716.12,-258.8 439.08,-258.8"/>
<text text-anchor="start" x="446.08" y="-271" font-family="Arial" font-size="14.00">created_by </text>
<text text-anchor="start" x="519.24" y="-271" font-family="Arial" font-size="14.00" fill="#666666">[uuid]</text>
<polygon fill="none" stroke="black" points="439.08,-228 439.08,-258.8 716.12,-258.8 716.12,-228 439.08,-228"/>
<text text-anchor="start" x="446.08" y="-240.2" font-family="Arial" font-size="14.00">channel_id </text>
<text text-anchor="start" x="517.69" y="-240.2" font-family="Arial" font-size="14.00" fill="#666666">[uuid]</text>
<polygon fill="none" stroke="black" points="439.08,-197.2 439.08,-228 716.12,-228 716.12,-197.2 439.08,-197.2"/>
<text text-anchor="start" x="446.08" y="-209.4" font-family="Arial" font-size="14.00">video_id </text>
<text text-anchor="start" x="502.12" y="-209.4" font-family="Arial" font-size="14.00" fill="#666666">[text]</text>
<polygon fill="none" stroke="black" points="439.08,-166.4 439.08,-197.2 716.12,-197.2 716.12,-166.4 439.08,-166.4"/>
<text text-anchor="start" x="446.08" y="-178.6" font-family="Arial" font-size="14.00">created_on </text>
<text text-anchor="start" x="520.02" y="-178.6" font-family="Arial" font-size="14.00" fill="#666666">[timestamp without time zone]</text>
<polygon fill="none" stroke="black" points="439.08,-135.6 439.08,-166.4 716.12,-166.4 716.12,-135.6 439.08,-135.6"/>
<text text-anchor="start" x="446.08" y="-147.8" font-family="Arial" font-size="14.00">updated_on </text>
<text text-anchor="start" x="523.93" y="-147.8" font-family="Arial" font-size="14.00" fill="#666666">[timestamp without time zone]</text>
<polygon fill="none" stroke="black" points="439.08,-104.8 439.08,-135.6 716.12,-135.6 716.12,-104.8 439.08,-104.8"/>
<text text-anchor="start" x="446.08" y="-117" font-family="Arial" font-size="14.00">upvotes </text>
<text text-anchor="start" x="499" y="-117" font-family="Arial" font-size="14.00" fill="#666666">[integer]</text>
<polygon fill="none" stroke="black" points="439.08,-74 439.08,-104.8 716.12,-104.8 716.12,-74 439.08,-74"/>
<text text-anchor="start" x="446.08" y="-86.2" font-family="Arial" font-size="14.00">downvotes </text>
<text text-anchor="start" x="516.9" y="-86.2" font-family="Arial" font-size="14.00" fill="#666666">[integer]</text>
<polygon fill="none" stroke="black" points="439.08,-43.2 439.08,-74 716.12,-74 716.12,-43.2 439.08,-43.2"/>
<text text-anchor="start" x="446.08" y="-55.4" font-family="Arial" font-size="14.00">comments </text>
<text text-anchor="start" x="514.54" y="-55.4" font-family="Arial" font-size="14.00" fill="#666666">[integer]</text>
</g>
<!-- public.playlist_post&#45;&gt;public.post -->
<g id="edge2" class="edge">
<title>public.playlist_post:post_id&#45;&gt;public.post:id</title>
<path fill="none" stroke="black" d="M546.62,-618.52C574.15,-609.2 556.98,-558.06 535.59,-527.6 509.28,-490.14 465.39,-529.07 439.08,-491.6 415.02,-457.33 396.21,-397.4 438.08,-397.4"/>
<polygon fill="black" stroke="black" points="546.81,-618.49 536.26,-615.5 541.54,-619.27 537.25,-619.9 537.25,-619.9 537.25,-619.9 541.54,-619.27 537.58,-624.4 546.81,-618.49"/>
<text text-anchor="start" x="543.59" y="-630" font-family="Arial" font-size="10.00">FOREIGN KEY (post_id) REFERENCES post(id)</text>
</g>
</g>
</svg>
