<?xml version="1.0" encoding="UTF-8" standalone="no"?>
<!DOCTYPE svg PUBLIC "-//W3C//DTD SVG 1.1//EN"
 "http://www.w3.org/Graphics/SVG/1.1/DTD/svg11.dtd">
<!-- Generated by graphviz version 12.1.2 (20240928.0832)
 -->
<!-- Title: public.channel_post_report Pages: 1 -->
<svg width="621pt" height="848pt"
 viewBox="0.00 0.00 621.41 848.40" xmlns="http://www.w3.org/2000/svg" xmlns:xlink="http://www.w3.org/1999/xlink">
<g id="graph0" class="graph" transform="scale(1 1) rotate(0) translate(4 844.4)">
<title>public.channel_post_report</title>
<polygon fill="white" stroke="none" points="-4,4 -4,-844.4 617.41,-844.4 617.41,4 -4,4"/>
<!-- public.channel_post_report -->
<g id="node1" class="node">
<title>public.channel_post_report</title>
<polygon fill="#efefef" stroke="none" points="46.2,-758.6 46.2,-794.2 381.13,-794.2 381.13,-758.6 46.2,-758.6"/>
<polygon fill="none" stroke="black" points="46.2,-758.6 46.2,-794.2 381.13,-794.2 381.13,-758.6 46.2,-758.6"/>
<text text-anchor="start" x="53.2" y="-772" font-family="Arial Bold" font-size="18.00">public.channel_post_report</text>
<text text-anchor="start" x="249.64" y="-772" font-family="Arial" font-size="14.00">    </text>
<text text-anchor="start" x="280.76" y="-772" font-family="Arial" font-size="14.00" fill="#666666">[BASE TABLE]</text>
<polygon fill="none" stroke="black" points="46.2,-727.8 46.2,-758.6 381.13,-758.6 381.13,-727.8 46.2,-727.8"/>
<text text-anchor="start" x="53.2" y="-740" font-family="Arial" font-size="14.00">id </text>
<text text-anchor="start" x="67.99" y="-740" font-family="Arial" font-size="14.00" fill="#666666">[uuid]</text>
<polygon fill="none" stroke="black" points="46.2,-697 46.2,-727.8 381.13,-727.8 381.13,-697 46.2,-697"/>
<text text-anchor="start" x="53.2" y="-709.2" font-family="Arial" font-size="14.00">post_id </text>
<text text-anchor="start" x="102.23" y="-709.2" font-family="Arial" font-size="14.00" fill="#666666">[uuid]</text>
<polygon fill="none" stroke="black" points="46.2,-666.2 46.2,-697 381.13,-697 381.13,-666.2 46.2,-666.2"/>
<text text-anchor="start" x="53.2" y="-678.4" font-family="Arial" font-size="14.00">description </text>
<text text-anchor="start" x="124.79" y="-678.4" font-family="Arial" font-size="14.00" fill="#666666">[text]</text>
<polygon fill="none" stroke="black" points="46.2,-635.4 46.2,-666.2 381.13,-666.2 381.13,-635.4 46.2,-635.4"/>
<text text-anchor="start" x="53.2" y="-647.6" font-family="Arial" font-size="14.00">resolution </text>
<text text-anchor="start" x="117.79" y="-647.6" font-family="Arial" font-size="14.00" fill="#666666">[text]</text>
<polygon fill="none" stroke="black" points="46.2,-604.6 46.2,-635.4 381.13,-635.4 381.13,-604.6 46.2,-604.6"/>
<text text-anchor="start" x="53.2" y="-616.8" font-family="Arial" font-size="14.00">status </text>
<text text-anchor="start" x="94.44" y="-616.8" font-family="Arial" font-size="14.00" fill="#666666">[report_status]</text>
<polygon fill="none" stroke="black" stroke-width="3" points="44.7,-603.1 44.7,-795.7 382.63,-795.7 382.63,-603.1 44.7,-603.1"/>
</g>
<!-- public.post -->
<g id="node2" class="node">
<title>public.post</title>
<polygon fill="#efefef" stroke="none" points="75.15,-443.6 75.15,-479.2 352.19,-479.2 352.19,-443.6 75.15,-443.6"/>
<polygon fill="none" stroke="black" points="75.15,-443.6 75.15,-479.2 352.19,-479.2 352.19,-443.6 75.15,-443.6"/>
<text text-anchor="start" x="111.67" y="-457" font-family="Arial Bold" font-size="18.00">public.post</text>
<text text-anchor="start" x="191.17" y="-457" font-family="Arial" font-size="14.00">    </text>
<text text-anchor="start" x="222.29" y="-457" font-family="Arial" font-size="14.00" fill="#666666">[BASE TABLE]</text>
<polygon fill="none" stroke="black" points="75.15,-412.8 75.15,-443.6 352.19,-443.6 352.19,-412.8 75.15,-412.8"/>
<text text-anchor="start" x="82.15" y="-425" font-family="Arial" font-size="14.00">id </text>
<text text-anchor="start" x="96.93" y="-425" font-family="Arial" font-size="14.00" fill="#666666">[uuid]</text>
<polygon fill="none" stroke="black" points="75.15,-382 75.15,-412.8 352.19,-412.8 352.19,-382 75.15,-382"/>
<text text-anchor="start" x="82.15" y="-394.2" font-family="Arial" font-size="14.00">name </text>
<text text-anchor="start" x="121.06" y="-394.2" font-family="Arial" font-size="14.00" fill="#666666">[text]</text>
<polygon fill="none" stroke="black" points="75.15,-351.2 75.15,-382 352.19,-382 352.19,-351.2 75.15,-351.2"/>
<text text-anchor="start" x="82.15" y="-363.4" font-family="Arial" font-size="14.00">description </text>
<text text-anchor="start" x="153.74" y="-363.4" font-family="Arial" font-size="14.00" fill="#666666">[text]</text>
<polygon fill="none" stroke="black" points="75.15,-320.4 75.15,-351.2 352.19,-351.2 352.19,-320.4 75.15,-320.4"/>
<text text-anchor="start" x="82.15" y="-332.6" font-family="Arial" font-size="14.00">alt_text </text>
<text text-anchor="start" x="131.17" y="-332.6" font-family="Arial" font-size="14.00" fill="#666666">[text]</text>
<polygon fill="none" stroke="black" points="75.15,-289.6 75.15,-320.4 352.19,-320.4 352.19,-289.6 75.15,-289.6"/>
<text text-anchor="start" x="82.15" y="-301.8" font-family="Arial" font-size="14.00">created_by </text>
<text text-anchor="start" x="155.3" y="-301.8" font-family="Arial" font-size="14.00" fill="#666666">[uuid]</text>
<polygon fill="none" stroke="black" points="75.15,-258.8 75.15,-289.6 352.19,-289.6 352.19,-258.8 75.15,-258.8"/>
<text text-anchor="start" x="82.15" y="-271" font-family="Arial" font-size="14.00">channel_id </text>
<text text-anchor="start" x="153.76" y="-271" font-family="Arial" font-size="14.00" fill="#666666">[uuid]</text>
<polygon fill="none" stroke="black" points="75.15,-228 75.15,-258.8 352.19,-258.8 352.19,-228 75.15,-228"/>
<text text-anchor="start" x="82.15" y="-240.2" font-family="Arial" font-size="14.00">video_id </text>
<text text-anchor="start" x="138.19" y="-240.2" font-family="Arial" font-size="14.00" fill="#666666">[text]</text>
<polygon fill="none" stroke="black" points="75.15,-197.2 75.15,-228 352.19,-228 352.19,-197.2 75.15,-197.2"/>
<text text-anchor="start" x="82.15" y="-209.4" font-family="Arial" font-size="14.00">created_on </text>
<text text-anchor="start" x="156.09" y="-209.4" font-family="Arial" font-size="14.00" fill="#666666">[timestamp without time zone]</text>
<polygon fill="none" stroke="black" points="75.15,-166.4 75.15,-197.2 352.19,-197.2 352.19,-166.4 75.15,-166.4"/>
<text text-anchor="start" x="82.15" y="-178.6" font-family="Arial" font-size="14.00">updated_on </text>
<text text-anchor="start" x="160" y="-178.6" font-family="Arial" font-size="14.00" fill="#666666">[timestamp without time zone]</text>
<polygon fill="none" stroke="black" points="75.15,-135.6 75.15,-166.4 352.19,-166.4 352.19,-135.6 75.15,-135.6"/>
<text text-anchor="start" x="82.15" y="-147.8" font-family="Arial" font-size="14.00">status </text>
<text text-anchor="start" x="123.39" y="-147.8" font-family="Arial" font-size="14.00" fill="#666666">[post_status]</text>
<polygon fill="none" stroke="black" points="75.15,-104.8 75.15,-135.6 352.19,-135.6 352.19,-104.8 75.15,-104.8"/>
<text text-anchor="start" x="82.15" y="-117" font-family="Arial" font-size="14.00">upvotes </text>
<text text-anchor="start" x="135.07" y="-117" font-family="Arial" font-size="14.00" fill="#666666">[integer]</text>
<polygon fill="none" stroke="black" points="75.15,-74 75.15,-104.8 352.19,-104.8 352.19,-74 75.15,-74"/>
<text text-anchor="start" x="82.15" y="-86.2" font-family="Arial" font-size="14.00">downvotes </text>
<text text-anchor="start" x="152.97" y="-86.2" font-family="Arial" font-size="14.00" fill="#666666">[integer]</text>
<polygon fill="none" stroke="black" points="75.15,-43.2 75.15,-74 352.19,-74 352.19,-43.2 75.15,-43.2"/>
<text text-anchor="start" x="82.15" y="-55.4" font-family="Arial" font-size="14.00">comments </text>
<text text-anchor="start" x="150.61" y="-55.4" font-family="Arial" font-size="14.00" fill="#666666">[integer]</text>
</g>
<!-- public.channel_post_report&#45;&gt;public.post -->
<g id="edge1" class="edge">
<title>public.channel_post_report:post_id&#45;&gt;public.post:id</title>
<path fill="none" stroke="black" d="M392.04,-709.77C442.23,-681.12 413.07,-428.2 353.19,-428.2"/>
<polygon fill="black" stroke="black" points="392.12,-709.75 381.3,-707.96 386.97,-711.12 382.78,-712.23 382.78,-712.23 382.78,-712.23 386.97,-711.12 383.61,-716.66 392.12,-709.75"/>
<text text-anchor="start" x="389.13" y="-722.4" font-family="Arial" font-size="10.00">FOREIGN KEY (post_id) REFERENCES post(id)</text>
</g>
</g>
</svg>
