<?xml version="1.0" encoding="UTF-8" standalone="no"?>
<!DOCTYPE svg PUBLIC "-//W3C//DTD SVG 1.1//EN"
 "http://www.w3.org/Graphics/SVG/1.1/DTD/svg11.dtd">
<!-- Generated by graphviz version 2.40.1 (20161225.0304)
 -->
<!-- Title: public.user_block Pages: 1 -->
<svg width="583pt" height="592pt"
 viewBox="0.00 0.00 582.50 592.00" xmlns="http://www.w3.org/2000/svg" xmlns:xlink="http://www.w3.org/1999/xlink">
<g id="graph0" class="graph" transform="scale(1 1) rotate(0) translate(4 588)">
<title>public.user_block</title>
<polygon fill="#ffffff" stroke="transparent" points="-4,4 -4,-588 578.5,-588 578.5,4 -4,4"/>
<!-- public.user_block -->
<g id="node1" class="node">
<title>public.user_block</title>
<polygon fill="#efefef" stroke="transparent" points="239,-502.5 239,-537.5 519,-537.5 519,-502.5 239,-502.5"/>
<polygon fill="none" stroke="#000000" points="239,-502.5 239,-537.5 519,-537.5 519,-502.5 239,-502.5"/>
<text text-anchor="start" x="245.7027" y="-515.3" font-family="Arial Bold" font-size="18.00" fill="#000000">public.user_block</text>
<text text-anchor="start" x="384.7293" y="-515.3" font-family="Arial" font-size="14.00" fill="#000000">    </text>
<text text-anchor="start" x="418.9341" y="-515.3" font-family="Arial" font-size="14.00" fill="#666666">[BASE TABLE]</text>
<polygon fill="none" stroke="#000000" points="239,-472.5 239,-502.5 519,-502.5 519,-472.5 239,-472.5"/>
<text text-anchor="start" x="246" y="-483.9" font-family="Arial" font-size="14.00" fill="#000000">user_id </text>
<text text-anchor="start" x="295.7882" y="-483.9" font-family="Arial" font-size="14.00" fill="#666666">[uuid]</text>
<polygon fill="none" stroke="#000000" points="239,-442.5 239,-472.5 519,-472.5 519,-442.5 239,-442.5"/>
<text text-anchor="start" x="246" y="-453.9" font-family="Arial" font-size="14.00" fill="#000000">blocked_user_id </text>
<text text-anchor="start" x="351.8078" y="-453.9" font-family="Arial" font-size="14.00" fill="#666666">[uuid]</text>
<polygon fill="none" stroke="#000000" stroke-width="3" points="237.5,-441.5 237.5,-539.5 520.5,-539.5 520.5,-441.5 237.5,-441.5"/>
</g>
<!-- public.user -->
<g id="node2" class="node">
<title>public.user</title>
<polygon fill="#efefef" stroke="transparent" points="225,-282.5 225,-317.5 532,-317.5 532,-282.5 225,-282.5"/>
<polygon fill="none" stroke="#000000" points="225,-282.5 225,-317.5 532,-317.5 532,-282.5 225,-282.5"/>
<text text-anchor="start" x="271.2091" y="-295.3" font-family="Arial Bold" font-size="18.00" fill="#000000">public.user</text>
<text text-anchor="start" x="358.2229" y="-295.3" font-family="Arial" font-size="14.00" fill="#000000">    </text>
<text text-anchor="start" x="392.4277" y="-295.3" font-family="Arial" font-size="14.00" fill="#666666">[BASE TABLE]</text>
<polygon fill="none" stroke="#000000" points="225,-252.5 225,-282.5 532,-282.5 532,-252.5 225,-252.5"/>
<text text-anchor="start" x="232" y="-263.9" font-family="Arial" font-size="14.00" fill="#000000">id    </text>
<text text-anchor="start" x="277.094" y="-263.9" font-family="Arial" font-size="14.00" fill="#666666">[uuid]</text>
<polygon fill="none" stroke="#000000" points="225,-222.5 225,-252.5 532,-252.5 532,-222.5 225,-222.5"/>
<text text-anchor="start" x="232" y="-233.9" font-family="Arial" font-size="14.00" fill="#000000">username    </text>
<text text-anchor="start" x="328.439" y="-233.9" font-family="Arial" font-size="14.00" fill="#666666">[varchar(25)]</text>
<polygon fill="none" stroke="#000000" points="225,-192.5 225,-222.5 532,-222.5 532,-192.5 225,-192.5"/>
<text text-anchor="start" x="232" y="-203.9" font-family="Arial" font-size="14.00" fill="#000000">profile_image    </text>
<text text-anchor="start" x="350.2146" y="-203.9" font-family="Arial" font-size="14.00" fill="#666666">[text]</text>
<polygon fill="none" stroke="#000000" points="225,-162.5 225,-192.5 532,-192.5 532,-162.5 225,-162.5"/>
<text text-anchor="start" x="232" y="-173.9" font-family="Arial" font-size="14.00" fill="#000000">role    </text>
<text text-anchor="start" x="289.5372" y="-173.9" font-family="Arial" font-size="14.00" fill="#666666">[site_role]</text>
<polygon fill="none" stroke="#000000" points="225,-132.5 225,-162.5 532,-162.5 532,-132.5 225,-132.5"/>
<text text-anchor="start" x="232" y="-143.9" font-family="Arial" font-size="14.00" fill="#000000">created_on    </text>
<text text-anchor="start" x="336.2342" y="-143.9" font-family="Arial" font-size="14.00" fill="#666666">[timestamp without time zone]</text>
<polygon fill="none" stroke="#000000" points="225,-102.5 225,-132.5 532,-132.5 532,-102.5 225,-102.5"/>
<text text-anchor="start" x="231.8605" y="-113.9" font-family="Arial" font-size="14.00" fill="#000000">updated_on    </text>
<text text-anchor="start" x="339.9993" y="-113.9" font-family="Arial" font-size="14.00" fill="#666666">[timestamp without time zone]</text>
<polygon fill="none" stroke="#000000" points="225,-72.5 225,-102.5 532,-102.5 532,-72.5 225,-72.5"/>
<text text-anchor="start" x="232" y="-83.9" font-family="Arial" font-size="14.00" fill="#000000">discord_id    </text>
<text text-anchor="start" x="329.9916" y="-83.9" font-family="Arial" font-size="14.00" fill="#666666">[bigint]</text>
<polygon fill="none" stroke="#000000" points="225,-42.5 225,-72.5 532,-72.5 532,-42.5 225,-42.5"/>
<text text-anchor="start" x="232" y="-53.9" font-family="Arial" font-size="14.00" fill="#000000">github_id    </text>
<text text-anchor="start" x="323.0042" y="-53.9" font-family="Arial" font-size="14.00" fill="#666666">[integer]</text>
</g>
<!-- public.user_block&#45;&gt;public.user -->
<g id="edge1" class="edge">
<title>public.user_block:user_id&#45;&gt;public.user:id</title>
<path fill="none" stroke="#000000" d="M229.0723,-485.9828C201.4374,-476.4457 214.8477,-424.3015 239,-397 325.9327,-298.7324 445.0673,-459.2676 532,-361 559.5343,-329.8756 573.5556,-267.5 532,-267.5"/>
<polygon fill="#000000" stroke="#000000" points="229.1148,-485.9892 238.3201,-491.9484 234.0574,-486.7446 239,-487.5 239,-487.5 239,-487.5 234.0574,-486.7446 239.6799,-483.0516 229.1148,-485.9892 229.1148,-485.9892"/>
<text text-anchor="start" x="7.2855" y="-497.5" font-family="Arial" font-size="10.00" fill="#000000">FOREIGN KEY (user_id) REFERENCES &quot;user&quot;(id)</text>
</g>
<!-- public.user_block&#45;&gt;public.user -->
<g id="edge2" class="edge">
<title>public.user_block:blocked_user_id&#45;&gt;public.user:id</title>
<path fill="none" stroke="#000000" d="M379.7889,-432.1747C389.893,-371.1657 494.2798,-423.8307 532,-361 553.3892,-325.3718 573.5556,-267.5 532,-267.5"/>
<polygon fill="#000000" stroke="#000000" points="379.7619,-432.5291 374.5131,-442.1571 379.381,-437.5145 379,-442.5 379,-442.5 379,-442.5 379.381,-437.5145 383.4869,-442.8429 379.7619,-432.5291 379.7619,-432.5291"/>
<text text-anchor="start" x="107.2785" y="-452.5" font-family="Arial" font-size="10.00" fill="#000000">FOREIGN KEY (blocked_user_id) REFERENCES &quot;user&quot;(id)</text>
</g>
</g>
</svg>
