<?xml version="1.0" encoding="UTF-8" standalone="no"?>
<!DOCTYPE svg PUBLIC "-//W3C//DTD SVG 1.1//EN"
 "http://www.w3.org/Graphics/SVG/1.1/DTD/svg11.dtd">
<!-- Generated by graphviz version 12.1.2 (20240928.0832)
 -->
<!-- Title: public.channel_user_reports Pages: 1 -->
<svg width="788pt" height="848pt"
 viewBox="0.00 0.00 787.88 848.40" xmlns="http://www.w3.org/2000/svg" xmlns:xlink="http://www.w3.org/1999/xlink">
<g id="graph0" class="graph" transform="scale(1 1) rotate(0) translate(4 844.4)">
<title>public.channel_user_reports</title>
<polygon fill="white" stroke="none" points="-4,4 -4,-844.4 783.88,-844.4 783.88,4 -4,4"/>
<!-- public.channel_user_reports -->
<g id="node1" class="node">
<title>public.channel_user_reports</title>
<polygon fill="#efefef" stroke="none" points="46.2,-758.6 46.2,-794.2 388.12,-794.2 388.12,-758.6 46.2,-758.6"/>
<polygon fill="none" stroke="black" points="46.2,-758.6 46.2,-794.2 388.12,-794.2 388.12,-758.6 46.2,-758.6"/>
<text text-anchor="start" x="53.2" y="-772" font-family="Arial Bold" font-size="18.00">public.channel_user_reports</text>
<text text-anchor="start" x="256.63" y="-772" font-family="Arial" font-size="14.00">    </text>
<text text-anchor="start" x="287.75" y="-772" font-family="Arial" font-size="14.00" fill="#666666">[BASE TABLE]</text>
<polygon fill="none" stroke="black" points="46.2,-727.8 46.2,-758.6 388.12,-758.6 388.12,-727.8 46.2,-727.8"/>
<text text-anchor="start" x="53.2" y="-740" font-family="Arial" font-size="14.00">id </text>
<text text-anchor="start" x="67.99" y="-740" font-family="Arial" font-size="14.00" fill="#666666">[uuid]</text>
<polygon fill="none" stroke="black" points="46.2,-697 46.2,-727.8 388.12,-727.8 388.12,-697 46.2,-697"/>
<text text-anchor="start" x="53.2" y="-709.2" font-family="Arial" font-size="14.00">user_id </text>
<text text-anchor="start" x="103.01" y="-709.2" font-family="Arial" font-size="14.00" fill="#666666">[uuid]</text>
<polygon fill="none" stroke="black" points="46.2,-666.2 46.2,-697 388.12,-697 388.12,-666.2 46.2,-666.2"/>
<text text-anchor="start" x="53.2" y="-678.4" font-family="Arial" font-size="14.00">channel_id </text>
<text text-anchor="start" x="124.81" y="-678.4" font-family="Arial" font-size="14.00" fill="#666666">[uuid]</text>
<polygon fill="none" stroke="black" points="46.2,-635.4 46.2,-666.2 388.12,-666.2 388.12,-635.4 46.2,-635.4"/>
<text text-anchor="start" x="53.2" y="-647.6" font-family="Arial" font-size="14.00">reporter_id </text>
<text text-anchor="start" x="124.79" y="-647.6" font-family="Arial" font-size="14.00" fill="#666666">[uuid]</text>
<polygon fill="none" stroke="black" points="46.2,-604.6 46.2,-635.4 388.12,-635.4 388.12,-604.6 46.2,-604.6"/>
<text text-anchor="start" x="53.2" y="-616.8" font-family="Arial" font-size="14.00">description </text>
<text text-anchor="start" x="124.79" y="-616.8" font-family="Arial" font-size="14.00" fill="#666666">[text]</text>
<polygon fill="none" stroke="black" points="46.2,-573.8 46.2,-604.6 388.12,-604.6 388.12,-573.8 46.2,-573.8"/>
<text text-anchor="start" x="53.2" y="-586" font-family="Arial" font-size="14.00">resolution </text>
<text text-anchor="start" x="117.79" y="-586" font-family="Arial" font-size="14.00" fill="#666666">[text]</text>
<polygon fill="none" stroke="black" points="46.2,-543 46.2,-573.8 388.12,-573.8 388.12,-543 46.2,-543"/>
<text text-anchor="start" x="53.2" y="-555.2" font-family="Arial" font-size="14.00">status </text>
<text text-anchor="start" x="94.44" y="-555.2" font-family="Arial" font-size="14.00" fill="#666666">[report_status]</text>
<polygon fill="none" stroke="black" stroke-width="3" points="44.7,-541.5 44.7,-795.7 389.62,-795.7 389.62,-541.5 44.7,-541.5"/>
</g>
<!-- public.user -->
<g id="node2" class="node">
<title>public.user</title>
<polygon fill="#efefef" stroke="none" points="78.64,-366.6 78.64,-402.2 355.68,-402.2 355.68,-366.6 78.64,-366.6"/>
<polygon fill="none" stroke="black" points="78.64,-366.6 78.64,-402.2 355.68,-402.2 355.68,-366.6 78.64,-366.6"/>
<text text-anchor="start" x="115.18" y="-380" font-family="Arial Bold" font-size="18.00">public.user</text>
<text text-anchor="start" x="194.66" y="-380" font-family="Arial" font-size="14.00">    </text>
<text text-anchor="start" x="225.77" y="-380" font-family="Arial" font-size="14.00" fill="#666666">[BASE TABLE]</text>
<polygon fill="none" stroke="black" points="78.64,-335.8 78.64,-366.6 355.68,-366.6 355.68,-335.8 78.64,-335.8"/>
<text text-anchor="start" x="85.64" y="-348" font-family="Arial" font-size="14.00">id </text>
<text text-anchor="start" x="100.43" y="-348" font-family="Arial" font-size="14.00" fill="#666666">[uuid]</text>
<polygon fill="none" stroke="black" points="78.64,-305 78.64,-335.8 355.68,-335.8 355.68,-305 78.64,-305"/>
<text text-anchor="start" x="85.64" y="-317.2" font-family="Arial" font-size="14.00">username </text>
<text text-anchor="start" x="151.78" y="-317.2" font-family="Arial" font-size="14.00" fill="#666666">[varchar(25)]</text>
<polygon fill="none" stroke="black" points="78.64,-274.2 78.64,-305 355.68,-305 355.68,-274.2 78.64,-274.2"/>
<text text-anchor="start" x="85.64" y="-286.4" font-family="Arial" font-size="14.00">profile_image </text>
<text text-anchor="start" x="173.58" y="-286.4" font-family="Arial" font-size="14.00" fill="#666666">[text]</text>
<polygon fill="none" stroke="black" points="78.64,-243.4 78.64,-274.2 355.68,-274.2 355.68,-243.4 78.64,-243.4"/>
<text text-anchor="start" x="85.64" y="-255.6" font-family="Arial" font-size="14.00">role </text>
<text text-anchor="start" x="112.87" y="-255.6" font-family="Arial" font-size="14.00" fill="#666666">[site_role]</text>
<polygon fill="none" stroke="black" points="78.64,-212.6 78.64,-243.4 355.68,-243.4 355.68,-212.6 78.64,-212.6"/>
<text text-anchor="start" x="85.64" y="-224.8" font-family="Arial" font-size="14.00">created_on </text>
<text text-anchor="start" x="159.58" y="-224.8" font-family="Arial" font-size="14.00" fill="#666666">[timestamp without time zone]</text>
<polygon fill="none" stroke="black" points="78.64,-181.8 78.64,-212.6 355.68,-212.6 355.68,-181.8 78.64,-181.8"/>
<text text-anchor="start" x="85.64" y="-194" font-family="Arial" font-size="14.00">updated_on </text>
<text text-anchor="start" x="163.49" y="-194" font-family="Arial" font-size="14.00" fill="#666666">[timestamp without time zone]</text>
<polygon fill="none" stroke="black" points="78.64,-151 78.64,-181.8 355.68,-181.8 355.68,-151 78.64,-151"/>
<text text-anchor="start" x="85.64" y="-163.2" font-family="Arial" font-size="14.00">discord_id </text>
<text text-anchor="start" x="153.34" y="-163.2" font-family="Arial" font-size="14.00" fill="#666666">[bigint]</text>
<polygon fill="none" stroke="black" points="78.64,-120.2 78.64,-151 355.68,-151 355.68,-120.2 78.64,-120.2"/>
<text text-anchor="start" x="85.64" y="-132.4" font-family="Arial" font-size="14.00">github_id </text>
<text text-anchor="start" x="146.36" y="-132.4" font-family="Arial" font-size="14.00" fill="#666666">[integer]</text>
<polygon fill="none" stroke="black" points="78.64,-89.4 78.64,-120.2 355.68,-120.2 355.68,-89.4 78.64,-89.4"/>
<text text-anchor="start" x="85.64" y="-101.6" font-family="Arial" font-size="14.00">followers </text>
<text text-anchor="start" x="144.77" y="-101.6" font-family="Arial" font-size="14.00" fill="#666666">[integer]</text>
<polygon fill="none" stroke="black" points="78.64,-58.6 78.64,-89.4 355.68,-89.4 355.68,-58.6 78.64,-58.6"/>
<text text-anchor="start" x="85.64" y="-70.8" font-family="Arial" font-size="14.00">following </text>
<text text-anchor="start" x="144.01" y="-70.8" font-family="Arial" font-size="14.00" fill="#666666">[integer]</text>
</g>
<!-- public.channel_user_reports&#45;&gt;public.user -->
<g id="edge1" class="edge">
<title>public.channel_user_reports:user_id&#45;&gt;public.user:id</title>
<path fill="none" stroke="black" d="M397.26,-706.13C424.3,-658.17 393.83,-351.2 356.68,-351.2"/>
<polygon fill="black" stroke="black" points="397.31,-706.1 386.64,-708.63 393.08,-709.35 389.65,-711.99 389.65,-711.99 389.65,-711.99 393.08,-709.35 392.13,-715.76 397.31,-706.1"/>
<text text-anchor="start" x="396.12" y="-722.4" font-family="Arial" font-size="10.00">FOREIGN KEY (user_id) REFERENCES &quot;user&quot;(id)</text>
</g>
<!-- public.channel_user_reports&#45;&gt;public.user -->
<g id="edge3" class="edge">
<title>public.channel_user_reports:reporter_id&#45;&gt;public.user:id</title>
<path fill="none" stroke="black" d="M396.73,-643.69C416.64,-598.32 387.09,-351.2 356.68,-351.2"/>
<polygon fill="black" stroke="black" points="396.67,-643.74 386.29,-647.28 392.77,-647.39 389.61,-650.34 389.61,-650.34 389.61,-650.34 392.77,-647.39 392.44,-653.86 396.67,-643.74"/>
<text text-anchor="start" x="396.12" y="-660.8" font-family="Arial" font-size="10.00">FOREIGN KEY (reporter_id) REFERENCES &quot;user&quot;(id)</text>
</g>
<!-- public.channel -->
<g id="node3" class="node">
<title>public.channel</title>
<polygon fill="#efefef" stroke="none" points="459.64,-382 459.64,-417.6 736.68,-417.6 736.68,-382 459.64,-382"/>
<polygon fill="none" stroke="black" points="459.64,-382 459.64,-417.6 736.68,-417.6 736.68,-382 459.64,-382"/>
<text text-anchor="start" x="483.19" y="-395.4" font-family="Arial Bold" font-size="18.00">public.channel</text>
<text text-anchor="start" x="588.65" y="-395.4" font-family="Arial" font-size="14.00">    </text>
<text text-anchor="start" x="619.76" y="-395.4" font-family="Arial" font-size="14.00" fill="#666666">[BASE TABLE]</text>
<polygon fill="none" stroke="black" points="459.64,-351.2 459.64,-382 736.68,-382 736.68,-351.2 459.64,-351.2"/>
<text text-anchor="start" x="466.64" y="-363.4" font-family="Arial" font-size="14.00">id </text>
<text text-anchor="start" x="481.43" y="-363.4" font-family="Arial" font-size="14.00" fill="#666666">[uuid]</text>
<polygon fill="none" stroke="black" points="459.64,-320.4 459.64,-351.2 736.68,-351.2 736.68,-320.4 459.64,-320.4"/>
<text text-anchor="start" x="466.64" y="-332.6" font-family="Arial" font-size="14.00">name </text>
<text text-anchor="start" x="505.55" y="-332.6" font-family="Arial" font-size="14.00" fill="#666666">[text]</text>
<polygon fill="none" stroke="black" points="459.64,-289.6 459.64,-320.4 736.68,-320.4 736.68,-289.6 459.64,-289.6"/>
<text text-anchor="start" x="466.64" y="-301.8" font-family="Arial" font-size="14.00">description </text>
<text text-anchor="start" x="538.23" y="-301.8" font-family="Arial" font-size="14.00" fill="#666666">[text]</text>
<polygon fill="none" stroke="black" points="459.64,-258.8 459.64,-289.6 736.68,-289.6 736.68,-258.8 459.64,-258.8"/>
<text text-anchor="start" x="466.64" y="-271" font-family="Arial" font-size="14.00">guidelines </text>
<text text-anchor="start" x="533.58" y="-271" font-family="Arial" font-size="14.00" fill="#666666">[text]</text>
<polygon fill="none" stroke="black" points="459.64,-228 459.64,-258.8 736.68,-258.8 736.68,-228 459.64,-228"/>
<text text-anchor="start" x="466.64" y="-240.2" font-family="Arial" font-size="14.00">created_by </text>
<text text-anchor="start" x="539.8" y="-240.2" font-family="Arial" font-size="14.00" fill="#666666">[uuid]</text>
<polygon fill="none" stroke="black" points="459.64,-197.2 459.64,-228 736.68,-228 736.68,-197.2 459.64,-197.2"/>
<text text-anchor="start" x="466.64" y="-209.4" font-family="Arial" font-size="14.00">banner_image </text>
<text text-anchor="start" x="560.04" y="-209.4" font-family="Arial" font-size="14.00" fill="#666666">[text]</text>
<polygon fill="none" stroke="black" points="459.64,-166.4 459.64,-197.2 736.68,-197.2 736.68,-166.4 459.64,-166.4"/>
<text text-anchor="start" x="466.64" y="-178.6" font-family="Arial" font-size="14.00">icon </text>
<text text-anchor="start" x="496.21" y="-178.6" font-family="Arial" font-size="14.00" fill="#666666">[text]</text>
<polygon fill="none" stroke="black" points="459.64,-135.6 459.64,-166.4 736.68,-166.4 736.68,-135.6 459.64,-135.6"/>
<text text-anchor="start" x="466.64" y="-147.8" font-family="Arial" font-size="14.00">created_on </text>
<text text-anchor="start" x="540.58" y="-147.8" font-family="Arial" font-size="14.00" fill="#666666">[timestamp without time zone]</text>
<polygon fill="none" stroke="black" points="459.64,-104.8 459.64,-135.6 736.68,-135.6 736.68,-104.8 459.64,-104.8"/>
<text text-anchor="start" x="466.64" y="-117" font-family="Arial" font-size="14.00">updated_on </text>
<text text-anchor="start" x="544.49" y="-117" font-family="Arial" font-size="14.00" fill="#666666">[timestamp without time zone]</text>
<polygon fill="none" stroke="black" points="459.64,-74 459.64,-104.8 736.68,-104.8 736.68,-74 459.64,-74"/>
<text text-anchor="start" x="466.64" y="-86.2" font-family="Arial" font-size="14.00">subscribers </text>
<text text-anchor="start" x="542.11" y="-86.2" font-family="Arial" font-size="14.00" fill="#666666">[integer]</text>
<polygon fill="none" stroke="black" points="459.64,-43.2 459.64,-74 736.68,-74 736.68,-43.2 459.64,-43.2"/>
<text text-anchor="start" x="466.64" y="-55.4" font-family="Arial" font-size="14.00">posts </text>
<text text-anchor="start" x="503.99" y="-55.4" font-family="Arial" font-size="14.00" fill="#666666">[integer]</text>
</g>
<!-- public.channel_user_reports&#45;&gt;public.channel -->
<g id="edge2" class="edge">
<title>public.channel_user_reports:channel_id&#45;&gt;public.channel:id</title>
<path fill="none" stroke="black" d="M398.95,-679.25C453.68,-650.42 390.6,-366.6 458.64,-366.6"/>
<polygon fill="black" stroke="black" points="399.17,-679.19 388.4,-677.15 393.98,-680.44 389.77,-681.44 389.77,-681.44 389.77,-681.44 393.98,-680.44 390.49,-685.9 399.17,-679.19"/>
<text text-anchor="start" x="396.12" y="-691.6" font-family="Arial" font-size="10.00">FOREIGN KEY (channel_id) REFERENCES channel(id)</text>
</g>
</g>
</svg>
