<?xml version="1.0" encoding="UTF-8" standalone="no"?>
<!DOCTYPE svg PUBLIC "-//W3C//DTD SVG 1.1//EN"
 "http://www.w3.org/Graphics/SVG/1.1/DTD/svg11.dtd">
<!-- Generated by graphviz version 12.1.2 (20240928.0832)
 -->
<!-- Title: public.role Pages: 1 -->
<svg width="774pt" height="1838pt"
 viewBox="0.00 0.00 774.39 1838.00" xmlns="http://www.w3.org/2000/svg" xmlns:xlink="http://www.w3.org/1999/xlink">
<g id="graph0" class="graph" transform="scale(1 1) rotate(0) translate(4 1834)">
<title>public.role</title>
<polygon fill="white" stroke="none" points="-4,4 -4,-1834 770.39,-1834 770.39,4 -4,4"/>
<!-- public.role -->
<g id="node1" class="node">
<title>public.role</title>
<polygon fill="#efefef" stroke="none" points="235.67,-1467 235.67,-1502.6 501.86,-1502.6 501.86,-1467 235.67,-1467"/>
<polygon fill="none" stroke="black" points="235.67,-1467 235.67,-1502.6 501.86,-1502.6 501.86,-1467 235.67,-1467"/>
<text text-anchor="start" x="267.78" y="-1480.4" font-family="Arial Bold" font-size="18.00">public.role</text>
<text text-anchor="start" x="345.26" y="-1480.4" font-family="Arial" font-size="14.00">    </text>
<text text-anchor="start" x="376.38" y="-1480.4" font-family="Arial" font-size="14.00" fill="#666666">[BASE TABLE]</text>
<polygon fill="none" stroke="black" points="235.67,-1436.2 235.67,-1467 501.86,-1467 501.86,-1436.2 235.67,-1436.2"/>
<text text-anchor="start" x="242.67" y="-1448.4" font-family="Arial" font-size="14.00">id </text>
<text text-anchor="start" x="257.46" y="-1448.4" font-family="Arial" font-size="14.00" fill="#666666">[uuid]</text>
<polygon fill="none" stroke="black" points="235.67,-1405.4 235.67,-1436.2 501.86,-1436.2 501.86,-1405.4 235.67,-1405.4"/>
<text text-anchor="start" x="242.67" y="-1417.6" font-family="Arial" font-size="14.00">channel_id </text>
<text text-anchor="start" x="314.28" y="-1417.6" font-family="Arial" font-size="14.00" fill="#666666">[uuid]</text>
<polygon fill="none" stroke="black" points="235.67,-1374.6 235.67,-1405.4 501.86,-1405.4 501.86,-1374.6 235.67,-1374.6"/>
<text text-anchor="start" x="242.67" y="-1386.8" font-family="Arial" font-size="14.00">title </text>
<text text-anchor="start" x="268.35" y="-1386.8" font-family="Arial" font-size="14.00" fill="#666666">[varchar(20)]</text>
<polygon fill="none" stroke="black" points="235.67,-1343.8 235.67,-1374.6 501.86,-1374.6 501.86,-1343.8 235.67,-1343.8"/>
<text text-anchor="start" x="242.67" y="-1356" font-family="Arial" font-size="14.00">isOwner </text>
<text text-anchor="start" x="297.9" y="-1356" font-family="Arial" font-size="14.00" fill="#666666">[boolean]</text>
<polygon fill="none" stroke="black" points="235.67,-1313 235.67,-1343.8 501.86,-1343.8 501.86,-1313 235.67,-1313"/>
<text text-anchor="start" x="242.67" y="-1325.2" font-family="Arial" font-size="14.00">ranking </text>
<text text-anchor="start" x="292.48" y="-1325.2" font-family="Arial" font-size="14.00" fill="#666666">[smallint]</text>
<polygon fill="none" stroke="black" points="235.67,-1282.2 235.67,-1313 501.86,-1313 501.86,-1282.2 235.67,-1282.2"/>
<text text-anchor="start" x="242.67" y="-1294.4" font-family="Arial" font-size="14.00">can_create_roles </text>
<text text-anchor="start" x="353.96" y="-1294.4" font-family="Arial" font-size="14.00" fill="#666666">[boolean]</text>
<polygon fill="none" stroke="black" points="235.67,-1251.4 235.67,-1282.2 501.86,-1282.2 501.86,-1251.4 235.67,-1251.4"/>
<text text-anchor="start" x="242.67" y="-1263.6" font-family="Arial" font-size="14.00">can_view_roles </text>
<text text-anchor="start" x="343.05" y="-1263.6" font-family="Arial" font-size="14.00" fill="#666666">[boolean]</text>
<polygon fill="none" stroke="black" points="235.67,-1220.6 235.67,-1251.4 501.86,-1251.4 501.86,-1220.6 235.67,-1220.6"/>
<text text-anchor="start" x="242.67" y="-1232.8" font-family="Arial" font-size="14.00">can_edit_roles </text>
<text text-anchor="start" x="337.62" y="-1232.8" font-family="Arial" font-size="14.00" fill="#666666">[boolean]</text>
<polygon fill="none" stroke="black" points="235.67,-1189.8 235.67,-1220.6 501.86,-1220.6 501.86,-1189.8 235.67,-1189.8"/>
<text text-anchor="start" x="242.67" y="-1202" font-family="Arial" font-size="14.00">can_delete_roles </text>
<text text-anchor="start" x="353.19" y="-1202" font-family="Arial" font-size="14.00" fill="#666666">[boolean]</text>
<polygon fill="none" stroke="black" points="235.67,-1159 235.67,-1189.8 501.86,-1189.8 501.86,-1159 235.67,-1159"/>
<text text-anchor="start" x="242.67" y="-1171.2" font-family="Arial" font-size="14.00">can_assign_roles </text>
<text text-anchor="start" x="355.52" y="-1171.2" font-family="Arial" font-size="14.00" fill="#666666">[boolean]</text>
<polygon fill="none" stroke="black" points="235.67,-1128.2 235.67,-1159 501.86,-1159 501.86,-1128.2 235.67,-1128.2"/>
<text text-anchor="start" x="242.67" y="-1140.4" font-family="Arial" font-size="14.00">can_set_message_of_the_day </text>
<text text-anchor="start" x="437.25" y="-1140.4" font-family="Arial" font-size="14.00" fill="#666666">[boolean]</text>
<polygon fill="none" stroke="black" points="235.67,-1097.4 235.67,-1128.2 501.86,-1128.2 501.86,-1097.4 235.67,-1097.4"/>
<text text-anchor="start" x="242.67" y="-1109.6" font-family="Arial" font-size="14.00">can_edit_name </text>
<text text-anchor="start" x="342.3" y="-1109.6" font-family="Arial" font-size="14.00" fill="#666666">[boolean]</text>
<polygon fill="none" stroke="black" points="235.67,-1066.6 235.67,-1097.4 501.86,-1097.4 501.86,-1066.6 235.67,-1066.6"/>
<text text-anchor="start" x="242.67" y="-1078.8" font-family="Arial" font-size="14.00">can_set_image </text>
<text text-anchor="start" x="341.51" y="-1078.8" font-family="Arial" font-size="14.00" fill="#666666">[boolean]</text>
<polygon fill="none" stroke="black" points="235.67,-1035.8 235.67,-1066.6 501.86,-1066.6 501.86,-1035.8 235.67,-1035.8"/>
<text text-anchor="start" x="242.67" y="-1048" font-family="Arial" font-size="14.00">can_view_user_table </text>
<text text-anchor="start" x="378.09" y="-1048" font-family="Arial" font-size="14.00" fill="#666666">[boolean]</text>
<polygon fill="none" stroke="black" points="235.67,-1005 235.67,-1035.8 501.86,-1035.8 501.86,-1005 235.67,-1005"/>
<text text-anchor="start" x="242.67" y="-1017.2" font-family="Arial" font-size="14.00">can_edit_tags </text>
<text text-anchor="start" x="333.74" y="-1017.2" font-family="Arial" font-size="14.00" fill="#666666">[boolean]</text>
<polygon fill="none" stroke="black" points="235.67,-974.2 235.67,-1005 501.86,-1005 501.86,-974.2 235.67,-974.2"/>
<text text-anchor="start" x="242.67" y="-986.4" font-family="Arial" font-size="14.00">can_set_guidelines </text>
<text text-anchor="start" x="366.43" y="-986.4" font-family="Arial" font-size="14.00" fill="#666666">[boolean]</text>
<polygon fill="none" stroke="black" points="235.67,-943.4 235.67,-974.2 501.86,-974.2 501.86,-943.4 235.67,-943.4"/>
<text text-anchor="start" x="242.67" y="-955.6" font-family="Arial" font-size="14.00">can_timeout_users </text>
<text text-anchor="start" x="364.85" y="-955.6" font-family="Arial" font-size="14.00" fill="#666666">[boolean]</text>
<polygon fill="none" stroke="black" points="235.67,-912.6 235.67,-943.4 501.86,-943.4 501.86,-912.6 235.67,-912.6"/>
<text text-anchor="start" x="242.67" y="-924.8" font-family="Arial" font-size="14.00">can_ban_users </text>
<text text-anchor="start" x="342.3" y="-924.8" font-family="Arial" font-size="14.00" fill="#666666">[boolean]</text>
<polygon fill="none" stroke="black" points="235.67,-881.8 235.67,-912.6 501.86,-912.6 501.86,-881.8 235.67,-881.8"/>
<text text-anchor="start" x="242.67" y="-894" font-family="Arial" font-size="14.00">can_view_banned_users </text>
<text text-anchor="start" x="401.45" y="-894" font-family="Arial" font-size="14.00" fill="#666666">[boolean]</text>
<polygon fill="none" stroke="black" points="235.67,-851 235.67,-881.8 501.86,-881.8 501.86,-851 235.67,-851"/>
<text text-anchor="start" x="242.67" y="-863.2" font-family="Arial" font-size="14.00">can_unban_users </text>
<text text-anchor="start" x="357.87" y="-863.2" font-family="Arial" font-size="14.00" fill="#666666">[boolean]</text>
<polygon fill="none" stroke="black" points="235.67,-820.2 235.67,-851 501.86,-851 501.86,-820.2 235.67,-820.2"/>
<text text-anchor="start" x="242.67" y="-832.4" font-family="Arial" font-size="14.00">can_delete_posts </text>
<text text-anchor="start" x="356.31" y="-832.4" font-family="Arial" font-size="14.00" fill="#666666">[boolean]</text>
<polygon fill="none" stroke="black" points="235.67,-789.4 235.67,-820.2 501.86,-820.2 501.86,-789.4 235.67,-789.4"/>
<text text-anchor="start" x="242.67" y="-801.6" font-family="Arial" font-size="14.00">can_delete_comments </text>
<text text-anchor="start" x="387.42" y="-801.6" font-family="Arial" font-size="14.00" fill="#666666">[boolean]</text>
<polygon fill="none" stroke="black" points="235.67,-758.6 235.67,-789.4 501.86,-789.4 501.86,-758.6 235.67,-758.6"/>
<text text-anchor="start" x="242.67" y="-770.8" font-family="Arial" font-size="14.00">can_edit_post_tags </text>
<text text-anchor="start" x="367.99" y="-770.8" font-family="Arial" font-size="14.00" fill="#666666">[boolean]</text>
<polygon fill="none" stroke="black" points="235.67,-727.8 235.67,-758.6 501.86,-758.6 501.86,-727.8 235.67,-727.8"/>
<text text-anchor="start" x="242.67" y="-740" font-family="Arial" font-size="14.00">can_view_post_reports </text>
<text text-anchor="start" x="390.53" y="-740" font-family="Arial" font-size="14.00" fill="#666666">[boolean]</text>
<polygon fill="none" stroke="black" points="235.67,-697 235.67,-727.8 501.86,-727.8 501.86,-697 235.67,-697"/>
<text text-anchor="start" x="242.67" y="-709.2" font-family="Arial" font-size="14.00">can_update_post_reports </text>
<text text-anchor="start" x="405.34" y="-709.2" font-family="Arial" font-size="14.00" fill="#666666">[boolean]</text>
<polygon fill="none" stroke="black" points="235.67,-666.2 235.67,-697 501.86,-697 501.86,-666.2 235.67,-666.2"/>
<text text-anchor="start" x="242.67" y="-678.4" font-family="Arial" font-size="14.00">can_resolve_post_reports </text>
<text text-anchor="start" x="407.65" y="-678.4" font-family="Arial" font-size="14.00" fill="#666666">[boolean]</text>
<polygon fill="none" stroke="black" points="235.67,-635.4 235.67,-666.2 501.86,-666.2 501.86,-635.4 235.67,-635.4"/>
<text text-anchor="start" x="242.67" y="-647.6" font-family="Arial" font-size="14.00">can_register_events </text>
<text text-anchor="start" x="372.63" y="-647.6" font-family="Arial" font-size="14.00" fill="#666666">[boolean]</text>
<polygon fill="none" stroke="black" points="235.67,-604.6 235.67,-635.4 501.86,-635.4 501.86,-604.6 235.67,-604.6"/>
<text text-anchor="start" x="242.67" y="-616.8" font-family="Arial" font-size="14.00">can_view_events </text>
<text text-anchor="start" x="353.96" y="-616.8" font-family="Arial" font-size="14.00" fill="#666666">[boolean]</text>
<polygon fill="none" stroke="black" points="235.67,-573.8 235.67,-604.6 501.86,-604.6 501.86,-573.8 235.67,-573.8"/>
<text text-anchor="start" x="242.67" y="-586" font-family="Arial" font-size="14.00">can_edit_events </text>
<text text-anchor="start" x="348.52" y="-586" font-family="Arial" font-size="14.00" fill="#666666">[boolean]</text>
<polygon fill="none" stroke="black" points="235.67,-543 235.67,-573.8 501.86,-573.8 501.86,-543 235.67,-543"/>
<text text-anchor="start" x="242.67" y="-555.2" font-family="Arial" font-size="14.00">can_unregister_events </text>
<text text-anchor="start" x="388.21" y="-555.2" font-family="Arial" font-size="14.00" fill="#666666">[boolean]</text>
<polygon fill="none" stroke="black" stroke-width="3" points="234.17,-541.5 234.17,-1504.1 503.36,-1504.1 503.36,-541.5 234.17,-541.5"/>
</g>
<!-- public.channel -->
<g id="node4" class="node">
<title>public.channel</title>
<polygon fill="#efefef" stroke="none" points="230.24,-382 230.24,-417.6 507.28,-417.6 507.28,-382 230.24,-382"/>
<polygon fill="none" stroke="black" points="230.24,-382 230.24,-417.6 507.28,-417.6 507.28,-382 230.24,-382"/>
<text text-anchor="start" x="253.79" y="-395.4" font-family="Arial Bold" font-size="18.00">public.channel</text>
<text text-anchor="start" x="359.25" y="-395.4" font-family="Arial" font-size="14.00">    </text>
<text text-anchor="start" x="390.37" y="-395.4" font-family="Arial" font-size="14.00" fill="#666666">[BASE TABLE]</text>
<polygon fill="none" stroke="black" points="230.24,-351.2 230.24,-382 507.28,-382 507.28,-351.2 230.24,-351.2"/>
<text text-anchor="start" x="237.24" y="-363.4" font-family="Arial" font-size="14.00">id </text>
<text text-anchor="start" x="252.03" y="-363.4" font-family="Arial" font-size="14.00" fill="#666666">[uuid]</text>
<polygon fill="none" stroke="black" points="230.24,-320.4 230.24,-351.2 507.28,-351.2 507.28,-320.4 230.24,-320.4"/>
<text text-anchor="start" x="237.24" y="-332.6" font-family="Arial" font-size="14.00">name </text>
<text text-anchor="start" x="276.16" y="-332.6" font-family="Arial" font-size="14.00" fill="#666666">[text]</text>
<polygon fill="none" stroke="black" points="230.24,-289.6 230.24,-320.4 507.28,-320.4 507.28,-289.6 230.24,-289.6"/>
<text text-anchor="start" x="237.24" y="-301.8" font-family="Arial" font-size="14.00">description </text>
<text text-anchor="start" x="308.84" y="-301.8" font-family="Arial" font-size="14.00" fill="#666666">[text]</text>
<polygon fill="none" stroke="black" points="230.24,-258.8 230.24,-289.6 507.28,-289.6 507.28,-258.8 230.24,-258.8"/>
<text text-anchor="start" x="237.24" y="-271" font-family="Arial" font-size="14.00">guidelines </text>
<text text-anchor="start" x="304.18" y="-271" font-family="Arial" font-size="14.00" fill="#666666">[text]</text>
<polygon fill="none" stroke="black" points="230.24,-228 230.24,-258.8 507.28,-258.8 507.28,-228 230.24,-228"/>
<text text-anchor="start" x="237.24" y="-240.2" font-family="Arial" font-size="14.00">created_by </text>
<text text-anchor="start" x="310.4" y="-240.2" font-family="Arial" font-size="14.00" fill="#666666">[uuid]</text>
<polygon fill="none" stroke="black" points="230.24,-197.2 230.24,-228 507.28,-228 507.28,-197.2 230.24,-197.2"/>
<text text-anchor="start" x="237.24" y="-209.4" font-family="Arial" font-size="14.00">banner_image </text>
<text text-anchor="start" x="330.64" y="-209.4" font-family="Arial" font-size="14.00" fill="#666666">[text]</text>
<polygon fill="none" stroke="black" points="230.24,-166.4 230.24,-197.2 507.28,-197.2 507.28,-166.4 230.24,-166.4"/>
<text text-anchor="start" x="237.24" y="-178.6" font-family="Arial" font-size="14.00">icon </text>
<text text-anchor="start" x="266.82" y="-178.6" font-family="Arial" font-size="14.00" fill="#666666">[text]</text>
<polygon fill="none" stroke="black" points="230.24,-135.6 230.24,-166.4 507.28,-166.4 507.28,-135.6 230.24,-135.6"/>
<text text-anchor="start" x="237.24" y="-147.8" font-family="Arial" font-size="14.00">created_on </text>
<text text-anchor="start" x="311.19" y="-147.8" font-family="Arial" font-size="14.00" fill="#666666">[timestamp without time zone]</text>
<polygon fill="none" stroke="black" points="230.24,-104.8 230.24,-135.6 507.28,-135.6 507.28,-104.8 230.24,-104.8"/>
<text text-anchor="start" x="237.24" y="-117" font-family="Arial" font-size="14.00">updated_on </text>
<text text-anchor="start" x="315.1" y="-117" font-family="Arial" font-size="14.00" fill="#666666">[timestamp without time zone]</text>
<polygon fill="none" stroke="black" points="230.24,-74 230.24,-104.8 507.28,-104.8 507.28,-74 230.24,-74"/>
<text text-anchor="start" x="237.24" y="-86.2" font-family="Arial" font-size="14.00">subscribers </text>
<text text-anchor="start" x="312.71" y="-86.2" font-family="Arial" font-size="14.00" fill="#666666">[integer]</text>
<polygon fill="none" stroke="black" points="230.24,-43.2 230.24,-74 507.28,-74 507.28,-43.2 230.24,-43.2"/>
<text text-anchor="start" x="237.24" y="-55.4" font-family="Arial" font-size="14.00">posts </text>
<text text-anchor="start" x="274.6" y="-55.4" font-family="Arial" font-size="14.00" fill="#666666">[integer]</text>
</g>
<!-- public.role&#45;&gt;public.channel -->
<g id="edge3" class="edge">
<title>public.role:channel_id&#45;&gt;public.channel:id</title>
<path fill="none" stroke="black" d="M513.01,-1420.13C737.24,-1390.14 739.12,-366.6 508.28,-366.6"/>
<polygon fill="black" stroke="black" points="513.17,-1420.12 502.9,-1416.29 507.85,-1420.47 503.53,-1420.76 503.53,-1420.76 503.53,-1420.76 507.85,-1420.47 503.49,-1425.27 513.17,-1420.12"/>
<text text-anchor="start" x="509.86" y="-1430.8" font-family="Arial" font-size="10.00">FOREIGN KEY (channel_id) REFERENCES channel(id)</text>
</g>
<!-- public.invite -->
<g id="node2" class="node">
<title>public.invite</title>
<polygon fill="#efefef" stroke="none" points="43.2,-1751.2 43.2,-1786.8 316.33,-1786.8 316.33,-1751.2 43.2,-1751.2"/>
<polygon fill="none" stroke="black" points="43.2,-1751.2 43.2,-1786.8 316.33,-1786.8 316.33,-1751.2 43.2,-1751.2"/>
<text text-anchor="start" x="72.28" y="-1764.6" font-family="Arial Bold" font-size="18.00">public.invite</text>
<text text-anchor="start" x="162.76" y="-1764.6" font-family="Arial" font-size="14.00">    </text>
<text text-anchor="start" x="193.88" y="-1764.6" font-family="Arial" font-size="14.00" fill="#666666">[BASE TABLE]</text>
<polygon fill="none" stroke="black" points="43.2,-1720.4 43.2,-1751.2 316.33,-1751.2 316.33,-1720.4 43.2,-1720.4"/>
<text text-anchor="start" x="50.2" y="-1732.6" font-family="Arial" font-size="14.00">channel_id </text>
<text text-anchor="start" x="121.81" y="-1732.6" font-family="Arial" font-size="14.00" fill="#666666">[uuid]</text>
<polygon fill="none" stroke="black" points="43.2,-1689.6 43.2,-1720.4 316.33,-1720.4 316.33,-1689.6 43.2,-1689.6"/>
<text text-anchor="start" x="50.2" y="-1701.8" font-family="Arial" font-size="14.00">user_id </text>
<text text-anchor="start" x="100.01" y="-1701.8" font-family="Arial" font-size="14.00" fill="#666666">[uuid]</text>
<polygon fill="none" stroke="black" points="43.2,-1658.8 43.2,-1689.6 316.33,-1689.6 316.33,-1658.8 43.2,-1658.8"/>
<text text-anchor="start" x="50.2" y="-1671" font-family="Arial" font-size="14.00">created_on </text>
<text text-anchor="start" x="124.14" y="-1671" font-family="Arial" font-size="14.00" fill="#666666">[timestamp without time zone]</text>
<polygon fill="none" stroke="black" points="43.2,-1628 43.2,-1658.8 316.33,-1658.8 316.33,-1628 43.2,-1628"/>
<text text-anchor="start" x="50.2" y="-1640.2" font-family="Arial" font-size="14.00">role_id </text>
<text text-anchor="start" x="96.12" y="-1640.2" font-family="Arial" font-size="14.00" fill="#666666">[uuid]</text>
</g>
<!-- public.invite&#45;&gt;public.role -->
<g id="edge1" class="edge">
<title>public.invite:role_id&#45;&gt;public.role:id</title>
<path fill="none" stroke="black" d="M327.19,-1640.65C339.17,-1631.71 328.34,-1602.97 316.33,-1584.8 294.68,-1552.05 257.2,-1581.62 235.67,-1548.8 211.97,-1512.68 191.47,-1451.6 234.67,-1451.6"/>
<polygon fill="black" stroke="black" points="327.28,-1640.62 316.44,-1638.98 322.15,-1642.06 317.97,-1643.22 317.97,-1643.22 317.97,-1643.22 322.15,-1642.06 318.86,-1647.64 327.28,-1640.62"/>
<text text-anchor="start" x="324.33" y="-1653.4" font-family="Arial" font-size="10.00">FOREIGN KEY (role_id) REFERENCES role(id)</text>
</g>
<!-- public.user_role -->
<g id="node3" class="node">
<title>public.user_role</title>
<polygon fill="#efefef" stroke="none" points="420.24,-1735.8 420.24,-1771.4 697.28,-1771.4 697.28,-1735.8 420.24,-1735.8"/>
<polygon fill="none" stroke="black" points="420.24,-1735.8 420.24,-1771.4 697.28,-1771.4 697.28,-1735.8 420.24,-1735.8"/>
<text text-anchor="start" x="438.29" y="-1749.2" font-family="Arial Bold" font-size="18.00">public.user_role</text>
<text text-anchor="start" x="554.75" y="-1749.2" font-family="Arial" font-size="14.00">    </text>
<text text-anchor="start" x="585.87" y="-1749.2" font-family="Arial" font-size="14.00" fill="#666666">[BASE TABLE]</text>
<polygon fill="none" stroke="black" points="420.24,-1705 420.24,-1735.8 697.28,-1735.8 697.28,-1705 420.24,-1705"/>
<text text-anchor="start" x="427.24" y="-1717.2" font-family="Arial" font-size="14.00">user_id </text>
<text text-anchor="start" x="477.05" y="-1717.2" font-family="Arial" font-size="14.00" fill="#666666">[uuid]</text>
<polygon fill="none" stroke="black" points="420.24,-1674.2 420.24,-1705 697.28,-1705 697.28,-1674.2 420.24,-1674.2"/>
<text text-anchor="start" x="427.24" y="-1686.4" font-family="Arial" font-size="14.00">role_id </text>
<text text-anchor="start" x="473.16" y="-1686.4" font-family="Arial" font-size="14.00" fill="#666666">[uuid]</text>
<polygon fill="none" stroke="black" points="420.24,-1643.4 420.24,-1674.2 697.28,-1674.2 697.28,-1643.4 420.24,-1643.4"/>
<text text-anchor="start" x="427.24" y="-1655.6" font-family="Arial" font-size="14.00">updated_on </text>
<text text-anchor="start" x="505.1" y="-1655.6" font-family="Arial" font-size="14.00" fill="#666666">[timestamp without time zone]</text>
</g>
<!-- public.user_role&#45;&gt;public.role -->
<g id="edge2" class="edge">
<title>public.user_role:role_id&#45;&gt;public.role:id</title>
<path fill="none" stroke="black" d="M408.96,-1687.99C383.82,-1678.69 402.82,-1631.36 420.24,-1600.2 441.17,-1562.79 480.95,-1586.22 501.86,-1548.8 522.93,-1511.09 546.06,-1451.6 502.86,-1451.6"/>
<polygon fill="black" stroke="black" points="409.04,-1688 418.22,-1693.99 414.31,-1688.82 418.58,-1689.5 418.58,-1689.5 418.58,-1689.5 414.31,-1688.82 419.61,-1685.1 409.04,-1688"/>
<text text-anchor="start" x="426.24" y="-1699.6" font-family="Arial" font-size="10.00">FOREIGN KEY (role_id) REFERENCES role(id)</text>
</g>
</g>
</svg>
