<?xml version="1.0" encoding="UTF-8" standalone="no"?>
<!DOCTYPE svg PUBLIC "-//W3C//DTD SVG 1.1//EN"
 "http://www.w3.org/Graphics/SVG/1.1/DTD/svg11.dtd">
<!-- Generated by graphviz version 12.1.2 (20240928.0832)
 -->
<!-- Title: public.channel_tags Pages: 1 -->
<svg width="680pt" height="1006pt"
 viewBox="0.00 0.00 680.37 1006.40" xmlns="http://www.w3.org/2000/svg" xmlns:xlink="http://www.w3.org/1999/xlink">
<g id="graph0" class="graph" transform="scale(1 1) rotate(0) translate(4 1002.4)">
<title>public.channel_tags</title>
<polygon fill="white" stroke="none" points="-4,4 -4,-1002.4 676.37,-1002.4 676.37,4 -4,4"/>
<!-- public.channel_tags -->
<g id="node1" class="node">
<title>public.channel_tags</title>
<polygon fill="#efefef" stroke="none" points="125.89,-666.2 125.89,-701.8 407.84,-701.8 407.84,-666.2 125.89,-666.2"/>
<polygon fill="none" stroke="black" points="125.89,-666.2 125.89,-701.8 407.84,-701.8 407.84,-666.2 125.89,-666.2"/>
<text text-anchor="start" x="132.89" y="-679.6" font-family="Arial Bold" font-size="18.00">public.channel_tags</text>
<text text-anchor="start" x="276.35" y="-679.6" font-family="Arial" font-size="14.00">    </text>
<text text-anchor="start" x="307.47" y="-679.6" font-family="Arial" font-size="14.00" fill="#666666">[BASE TABLE]</text>
<polygon fill="none" stroke="black" points="125.89,-635.4 125.89,-666.2 407.84,-666.2 407.84,-635.4 125.89,-635.4"/>
<text text-anchor="start" x="132.89" y="-647.6" font-family="Arial" font-size="14.00">id </text>
<text text-anchor="start" x="147.68" y="-647.6" font-family="Arial" font-size="14.00" fill="#666666">[uuid]</text>
<polygon fill="none" stroke="black" points="125.89,-604.6 125.89,-635.4 407.84,-635.4 407.84,-604.6 125.89,-604.6"/>
<text text-anchor="start" x="132.89" y="-616.8" font-family="Arial" font-size="14.00">channel_id </text>
<text text-anchor="start" x="204.51" y="-616.8" font-family="Arial" font-size="14.00" fill="#666666">[uuid]</text>
<polygon fill="none" stroke="black" points="125.89,-573.8 125.89,-604.6 407.84,-604.6 407.84,-573.8 125.89,-573.8"/>
<text text-anchor="start" x="132.89" y="-586" font-family="Arial" font-size="14.00">name </text>
<text text-anchor="start" x="171.8" y="-586" font-family="Arial" font-size="14.00" fill="#666666">[varchar(16)]</text>
<polygon fill="none" stroke="black" points="125.89,-543 125.89,-573.8 407.84,-573.8 407.84,-543 125.89,-543"/>
<text text-anchor="start" x="132.89" y="-555.2" font-family="Arial" font-size="14.00">color </text>
<text text-anchor="start" x="167.13" y="-555.2" font-family="Arial" font-size="14.00" fill="#666666">[varchar(16)]</text>
<polygon fill="none" stroke="black" stroke-width="3" points="124.39,-541.5 124.39,-703.3 409.34,-703.3 409.34,-541.5 124.39,-541.5"/>
</g>
<!-- public.channel -->
<g id="node3" class="node">
<title>public.channel</title>
<polygon fill="#efefef" stroke="none" points="128.35,-382 128.35,-417.6 405.39,-417.6 405.39,-382 128.35,-382"/>
<polygon fill="none" stroke="black" points="128.35,-382 128.35,-417.6 405.39,-417.6 405.39,-382 128.35,-382"/>
<text text-anchor="start" x="151.89" y="-395.4" font-family="Arial Bold" font-size="18.00">public.channel</text>
<text text-anchor="start" x="257.35" y="-395.4" font-family="Arial" font-size="14.00">    </text>
<text text-anchor="start" x="288.47" y="-395.4" font-family="Arial" font-size="14.00" fill="#666666">[BASE TABLE]</text>
<polygon fill="none" stroke="black" points="128.35,-351.2 128.35,-382 405.39,-382 405.39,-351.2 128.35,-351.2"/>
<text text-anchor="start" x="135.35" y="-363.4" font-family="Arial" font-size="14.00">id </text>
<text text-anchor="start" x="150.13" y="-363.4" font-family="Arial" font-size="14.00" fill="#666666">[uuid]</text>
<polygon fill="none" stroke="black" points="128.35,-320.4 128.35,-351.2 405.39,-351.2 405.39,-320.4 128.35,-320.4"/>
<text text-anchor="start" x="135.35" y="-332.6" font-family="Arial" font-size="14.00">name </text>
<text text-anchor="start" x="174.26" y="-332.6" font-family="Arial" font-size="14.00" fill="#666666">[text]</text>
<polygon fill="none" stroke="black" points="128.35,-289.6 128.35,-320.4 405.39,-320.4 405.39,-289.6 128.35,-289.6"/>
<text text-anchor="start" x="135.35" y="-301.8" font-family="Arial" font-size="14.00">description </text>
<text text-anchor="start" x="206.94" y="-301.8" font-family="Arial" font-size="14.00" fill="#666666">[text]</text>
<polygon fill="none" stroke="black" points="128.35,-258.8 128.35,-289.6 405.39,-289.6 405.39,-258.8 128.35,-258.8"/>
<text text-anchor="start" x="135.35" y="-271" font-family="Arial" font-size="14.00">guidelines </text>
<text text-anchor="start" x="202.28" y="-271" font-family="Arial" font-size="14.00" fill="#666666">[text]</text>
<polygon fill="none" stroke="black" points="128.35,-228 128.35,-258.8 405.39,-258.8 405.39,-228 128.35,-228"/>
<text text-anchor="start" x="135.35" y="-240.2" font-family="Arial" font-size="14.00">created_by </text>
<text text-anchor="start" x="208.5" y="-240.2" font-family="Arial" font-size="14.00" fill="#666666">[uuid]</text>
<polygon fill="none" stroke="black" points="128.35,-197.2 128.35,-228 405.39,-228 405.39,-197.2 128.35,-197.2"/>
<text text-anchor="start" x="135.35" y="-209.4" font-family="Arial" font-size="14.00">banner_image </text>
<text text-anchor="start" x="228.75" y="-209.4" font-family="Arial" font-size="14.00" fill="#666666">[text]</text>
<polygon fill="none" stroke="black" points="128.35,-166.4 128.35,-197.2 405.39,-197.2 405.39,-166.4 128.35,-166.4"/>
<text text-anchor="start" x="135.35" y="-178.6" font-family="Arial" font-size="14.00">icon </text>
<text text-anchor="start" x="164.92" y="-178.6" font-family="Arial" font-size="14.00" fill="#666666">[text]</text>
<polygon fill="none" stroke="black" points="128.35,-135.6 128.35,-166.4 405.39,-166.4 405.39,-135.6 128.35,-135.6"/>
<text text-anchor="start" x="135.35" y="-147.8" font-family="Arial" font-size="14.00">created_on </text>
<text text-anchor="start" x="209.29" y="-147.8" font-family="Arial" font-size="14.00" fill="#666666">[timestamp without time zone]</text>
<polygon fill="none" stroke="black" points="128.35,-104.8 128.35,-135.6 405.39,-135.6 405.39,-104.8 128.35,-104.8"/>
<text text-anchor="start" x="135.35" y="-117" font-family="Arial" font-size="14.00">updated_on </text>
<text text-anchor="start" x="213.2" y="-117" font-family="Arial" font-size="14.00" fill="#666666">[timestamp without time zone]</text>
<polygon fill="none" stroke="black" points="128.35,-74 128.35,-104.8 405.39,-104.8 405.39,-74 128.35,-74"/>
<text text-anchor="start" x="135.35" y="-86.2" font-family="Arial" font-size="14.00">subscribers </text>
<text text-anchor="start" x="210.81" y="-86.2" font-family="Arial" font-size="14.00" fill="#666666">[integer]</text>
<polygon fill="none" stroke="black" points="128.35,-43.2 128.35,-74 405.39,-74 405.39,-43.2 128.35,-43.2"/>
<text text-anchor="start" x="135.35" y="-55.4" font-family="Arial" font-size="14.00">posts </text>
<text text-anchor="start" x="172.7" y="-55.4" font-family="Arial" font-size="14.00" fill="#666666">[integer]</text>
</g>
<!-- public.channel_tags&#45;&gt;public.channel -->
<g id="edge2" class="edge">
<title>public.channel_tags:channel_id&#45;&gt;public.channel:id</title>
<path fill="none" stroke="black" d="M418.71,-617.15C464.64,-589.31 459.18,-366.6 406.39,-366.6"/>
<polygon fill="black" stroke="black" points="418.77,-617.14 407.91,-615.58 413.64,-618.61 409.48,-619.81 409.48,-619.81 409.48,-619.81 413.64,-618.61 410.41,-624.23 418.77,-617.14"/>
<text text-anchor="start" x="415.84" y="-630" font-family="Arial" font-size="10.00">FOREIGN KEY (channel_id) REFERENCES channel(id)</text>
</g>
<!-- public.post_tag -->
<g id="node2" class="node">
<title>public.post_tag</title>
<polygon fill="#efefef" stroke="none" points="142.38,-919.6 142.38,-955.2 391.35,-955.2 391.35,-919.6 142.38,-919.6"/>
<polygon fill="none" stroke="black" points="142.38,-919.6 142.38,-955.2 391.35,-955.2 391.35,-919.6 142.38,-919.6"/>
<text text-anchor="start" x="149.38" y="-933" font-family="Arial Bold" font-size="18.00">public.post_tag</text>
<text text-anchor="start" x="259.87" y="-933" font-family="Arial" font-size="14.00">    </text>
<text text-anchor="start" x="290.98" y="-933" font-family="Arial" font-size="14.00" fill="#666666">[BASE TABLE]</text>
<polygon fill="none" stroke="black" points="142.38,-888.8 142.38,-919.6 391.35,-919.6 391.35,-888.8 142.38,-888.8"/>
<text text-anchor="start" x="149.38" y="-901" font-family="Arial" font-size="14.00">id </text>
<text text-anchor="start" x="164.16" y="-901" font-family="Arial" font-size="14.00" fill="#666666">[uuid]</text>
<polygon fill="none" stroke="black" points="142.38,-858 142.38,-888.8 391.35,-888.8 391.35,-858 142.38,-858"/>
<text text-anchor="start" x="149.38" y="-870.2" font-family="Arial" font-size="14.00">post_id </text>
<text text-anchor="start" x="198.41" y="-870.2" font-family="Arial" font-size="14.00" fill="#666666">[uuid]</text>
<polygon fill="none" stroke="black" points="142.38,-827.2 142.38,-858 391.35,-858 391.35,-827.2 142.38,-827.2"/>
<text text-anchor="start" x="149.38" y="-839.4" font-family="Arial" font-size="14.00">tag_id </text>
<text text-anchor="start" x="191.41" y="-839.4" font-family="Arial" font-size="14.00" fill="#666666">[uuid]</text>
</g>
<!-- public.post_tag&#45;&gt;public.channel_tags -->
<g id="edge1" class="edge">
<title>public.post_tag:tag_id&#45;&gt;public.channel_tags:id</title>
<path fill="none" stroke="black" d="M267.71,-815.89C277.68,-760.03 373.1,-806.31 407.84,-748 429.95,-710.89 452.04,-650.8 408.84,-650.8"/>
<polygon fill="black" stroke="black" points="267.71,-815.9 262.41,-825.5 267.27,-821.22 266.92,-825.53 266.92,-825.53 266.92,-825.53 267.27,-821.22 271.38,-826.23 267.71,-815.9"/>
<text text-anchor="start" x="7" y="-836.2" font-family="Arial" font-size="10.00">FOREIGN KEY (tag_id) REFERENCES channel_tags(id)</text>
</g>
</g>
</svg>
