<?xml version="1.0" encoding="UTF-8" standalone="no"?>
<!DOCTYPE svg PUBLIC "-//W3C//DTD SVG 1.1//EN"
 "http://www.w3.org/Graphics/SVG/1.1/DTD/svg11.dtd">
<!-- Generated by graphviz version 2.40.1 (20161225.0304)
 -->
<!-- Title: public.session Pages: 1 -->
<svg width="570pt" height="682pt"
 viewBox="0.00 0.00 569.50 682.00" xmlns="http://www.w3.org/2000/svg" xmlns:xlink="http://www.w3.org/1999/xlink">
<g id="graph0" class="graph" transform="scale(1 1) rotate(0) translate(4 678)">
<title>public.session</title>
<polygon fill="#ffffff" stroke="transparent" points="-4,4 -4,-678 565.5,-678 565.5,4 -4,4"/>
<!-- public.session -->
<g id="node1" class="node">
<title>public.session</title>
<polygon fill="#efefef" stroke="transparent" points="239,-592.5 239,-627.5 493,-627.5 493,-592.5 239,-592.5"/>
<polygon fill="none" stroke="#000000" points="239,-592.5 239,-627.5 493,-627.5 493,-592.5 239,-592.5"/>
<text text-anchor="start" x="245.705" y="-605.3" font-family="Arial Bold" font-size="18.00" fill="#000000">public.session</text>
<text text-anchor="start" x="358.727" y="-605.3" font-family="Arial" font-size="14.00" fill="#000000">    </text>
<text text-anchor="start" x="392.9318" y="-605.3" font-family="Arial" font-size="14.00" fill="#666666">[BASE TABLE]</text>
<polygon fill="none" stroke="#000000" points="239,-562.5 239,-592.5 493,-592.5 493,-562.5 239,-562.5"/>
<text text-anchor="start" x="246" y="-573.9" font-family="Arial" font-size="14.00" fill="#000000">id </text>
<text text-anchor="start" x="260.7798" y="-573.9" font-family="Arial" font-size="14.00" fill="#666666">[text]</text>
<polygon fill="none" stroke="#000000" points="239,-532.5 239,-562.5 493,-562.5 493,-532.5 239,-532.5"/>
<text text-anchor="start" x="246" y="-543.9" font-family="Arial" font-size="14.00" fill="#000000">user_id </text>
<text text-anchor="start" x="295.7882" y="-543.9" font-family="Arial" font-size="14.00" fill="#666666">[uuid]</text>
<polygon fill="none" stroke="#000000" points="239,-502.5 239,-532.5 493,-532.5 493,-502.5 239,-502.5"/>
<text text-anchor="start" x="246" y="-513.9" font-family="Arial" font-size="14.00" fill="#000000">expires_at </text>
<text text-anchor="start" x="314.4614" y="-513.9" font-family="Arial" font-size="14.00" fill="#666666">[timestamp with time zone]</text>
<polygon fill="none" stroke="#000000" stroke-width="3" points="237.5,-501.5 237.5,-629.5 494.5,-629.5 494.5,-501.5 237.5,-501.5"/>
</g>
<!-- public.user -->
<g id="node2" class="node">
<title>public.user</title>
<polygon fill="#efefef" stroke="transparent" points="212,-342.5 212,-377.5 519,-377.5 519,-342.5 212,-342.5"/>
<polygon fill="none" stroke="#000000" points="212,-342.5 212,-377.5 519,-377.5 519,-342.5 212,-342.5"/>
<text text-anchor="start" x="258.2091" y="-355.3" font-family="Arial Bold" font-size="18.00" fill="#000000">public.user</text>
<text text-anchor="start" x="345.2229" y="-355.3" font-family="Arial" font-size="14.00" fill="#000000">    </text>
<text text-anchor="start" x="379.4277" y="-355.3" font-family="Arial" font-size="14.00" fill="#666666">[BASE TABLE]</text>
<polygon fill="none" stroke="#000000" points="212,-312.5 212,-342.5 519,-342.5 519,-312.5 212,-312.5"/>
<text text-anchor="start" x="219" y="-323.9" font-family="Arial" font-size="14.00" fill="#000000">id    </text>
<text text-anchor="start" x="264.094" y="-323.9" font-family="Arial" font-size="14.00" fill="#666666">[uuid]</text>
<polygon fill="none" stroke="#000000" points="212,-282.5 212,-312.5 519,-312.5 519,-282.5 212,-282.5"/>
<text text-anchor="start" x="219" y="-293.9" font-family="Arial" font-size="14.00" fill="#000000">username    </text>
<text text-anchor="start" x="315.439" y="-293.9" font-family="Arial" font-size="14.00" fill="#666666">[varchar(25)]</text>
<polygon fill="none" stroke="#000000" points="212,-252.5 212,-282.5 519,-282.5 519,-252.5 212,-252.5"/>
<text text-anchor="start" x="219" y="-263.9" font-family="Arial" font-size="14.00" fill="#000000">profile_image    </text>
<text text-anchor="start" x="337.2146" y="-263.9" font-family="Arial" font-size="14.00" fill="#666666">[text]</text>
<polygon fill="none" stroke="#000000" points="212,-222.5 212,-252.5 519,-252.5 519,-222.5 212,-222.5"/>
<text text-anchor="start" x="219" y="-233.9" font-family="Arial" font-size="14.00" fill="#000000">role    </text>
<text text-anchor="start" x="276.5372" y="-233.9" font-family="Arial" font-size="14.00" fill="#666666">[site_role]</text>
<polygon fill="none" stroke="#000000" points="212,-192.5 212,-222.5 519,-222.5 519,-192.5 212,-192.5"/>
<text text-anchor="start" x="219" y="-203.9" font-family="Arial" font-size="14.00" fill="#000000">created_on    </text>
<text text-anchor="start" x="323.2342" y="-203.9" font-family="Arial" font-size="14.00" fill="#666666">[timestamp without time zone]</text>
<polygon fill="none" stroke="#000000" points="212,-162.5 212,-192.5 519,-192.5 519,-162.5 212,-162.5"/>
<text text-anchor="start" x="218.8605" y="-173.9" font-family="Arial" font-size="14.00" fill="#000000">updated_on    </text>
<text text-anchor="start" x="326.9993" y="-173.9" font-family="Arial" font-size="14.00" fill="#666666">[timestamp without time zone]</text>
<polygon fill="none" stroke="#000000" points="212,-132.5 212,-162.5 519,-162.5 519,-132.5 212,-132.5"/>
<text text-anchor="start" x="219" y="-143.9" font-family="Arial" font-size="14.00" fill="#000000">discord_id    </text>
<text text-anchor="start" x="316.9916" y="-143.9" font-family="Arial" font-size="14.00" fill="#666666">[bigint]</text>
<polygon fill="none" stroke="#000000" points="212,-102.5 212,-132.5 519,-132.5 519,-102.5 212,-102.5"/>
<text text-anchor="start" x="219" y="-113.9" font-family="Arial" font-size="14.00" fill="#000000">github_id    </text>
<text text-anchor="start" x="310.0042" y="-113.9" font-family="Arial" font-size="14.00" fill="#666666">[integer]</text>
<polygon fill="none" stroke="#000000" points="212,-72.5 212,-102.5 519,-102.5 519,-72.5 212,-72.5"/>
<text text-anchor="start" x="219" y="-83.9" font-family="Arial" font-size="14.00" fill="#000000">followers    </text>
<text text-anchor="start" x="308.4236" y="-83.9" font-family="Arial" font-size="14.00" fill="#666666">[integer]</text>
<polygon fill="none" stroke="#000000" points="212,-42.5 212,-72.5 519,-72.5 519,-42.5 212,-42.5"/>
<text text-anchor="start" x="219" y="-53.9" font-family="Arial" font-size="14.00" fill="#000000">following    </text>
<text text-anchor="start" x="307.6522" y="-53.9" font-family="Arial" font-size="14.00" fill="#666666">[integer]</text>
</g>
<!-- public.session&#45;&gt;public.user -->
<g id="edge1" class="edge">
<title>public.session:user_id&#45;&gt;public.user:id</title>
<path fill="none" stroke="#000000" d="M229.0744,-545.9846C201.4518,-536.4584 214.9244,-484.3692 239,-457 321.8701,-362.793 436.1299,-515.207 519,-421 546.4468,-389.7984 560.5556,-327.5 519,-327.5"/>
<polygon fill="#000000" stroke="#000000" points="229.1146,-545.9906 238.3208,-551.9485 234.0573,-546.7453 239,-547.5 239,-547.5 239,-547.5 234.0573,-546.7453 239.6792,-543.0515 229.1146,-545.9906 229.1146,-545.9906"/>
<text text-anchor="start" x="7.2855" y="-557.5" font-family="Arial" font-size="10.00" fill="#000000">FOREIGN KEY (user_id) REFERENCES &quot;user&quot;(id)</text>
</g>
</g>
</svg>
