<?xml version="1.0" encoding="UTF-8" standalone="no"?>
<!DOCTYPE svg PUBLIC "-//W3C//DTD SVG 1.1//EN"
 "http://www.w3.org/Graphics/SVG/1.1/DTD/svg11.dtd">
<!-- Generated by graphviz version 12.1.2 (20240928.0832)
 -->
<!-- Title: public.post_vote Pages: 1 -->
<svg width="752pt" height="756pt"
 viewBox="0.00 0.00 752.44 756.00" xmlns="http://www.w3.org/2000/svg" xmlns:xlink="http://www.w3.org/1999/xlink">
<g id="graph0" class="graph" transform="scale(1 1) rotate(0) translate(4 752)">
<title>public.post_vote</title>
<polygon fill="white" stroke="none" points="-4,4 -4,-752 748.44,-752 748.44,4 -4,4"/>
<!-- public.post_vote -->
<g id="node1" class="node">
<title>public.post_vote</title>
<polygon fill="#efefef" stroke="none" points="242.73,-666.2 242.73,-701.8 500.71,-701.8 500.71,-666.2 242.73,-666.2"/>
<polygon fill="none" stroke="black" points="242.73,-666.2 242.73,-701.8 500.71,-701.8 500.71,-666.2 242.73,-666.2"/>
<text text-anchor="start" x="249.73" y="-679.6" font-family="Arial Bold" font-size="18.00">public.post_vote</text>
<text text-anchor="start" x="369.22" y="-679.6" font-family="Arial" font-size="14.00">    </text>
<text text-anchor="start" x="400.34" y="-679.6" font-family="Arial" font-size="14.00" fill="#666666">[BASE TABLE]</text>
<polygon fill="none" stroke="black" points="242.73,-635.4 242.73,-666.2 500.71,-666.2 500.71,-635.4 242.73,-635.4"/>
<text text-anchor="start" x="249.73" y="-647.6" font-family="Arial" font-size="14.00">post_id </text>
<text text-anchor="start" x="298.77" y="-647.6" font-family="Arial" font-size="14.00" fill="#666666">[uuid]</text>
<polygon fill="none" stroke="black" points="242.73,-604.6 242.73,-635.4 500.71,-635.4 500.71,-604.6 242.73,-604.6"/>
<text text-anchor="start" x="249.73" y="-616.8" font-family="Arial" font-size="14.00">user_id </text>
<text text-anchor="start" x="299.54" y="-616.8" font-family="Arial" font-size="14.00" fill="#666666">[uuid]</text>
<polygon fill="none" stroke="black" points="242.73,-573.8 242.73,-604.6 500.71,-604.6 500.71,-573.8 242.73,-573.8"/>
<text text-anchor="start" x="249.73" y="-586" font-family="Arial" font-size="14.00">vote </text>
<text text-anchor="start" x="280.08" y="-586" font-family="Arial" font-size="14.00" fill="#666666">[vote]</text>
<polygon fill="none" stroke="black" stroke-width="3" points="241.23,-572.3 241.23,-703.3 502.21,-703.3 502.21,-572.3 241.23,-572.3"/>
</g>
<!-- public.post -->
<g id="node2" class="node">
<title>public.post</title>
<polygon fill="#efefef" stroke="none" points="43.2,-412.8 43.2,-448.4 320.24,-448.4 320.24,-412.8 43.2,-412.8"/>
<polygon fill="none" stroke="black" points="43.2,-412.8 43.2,-448.4 320.24,-448.4 320.24,-412.8 43.2,-412.8"/>
<text text-anchor="start" x="79.73" y="-426.2" font-family="Arial Bold" font-size="18.00">public.post</text>
<text text-anchor="start" x="159.22" y="-426.2" font-family="Arial" font-size="14.00">    </text>
<text text-anchor="start" x="190.34" y="-426.2" font-family="Arial" font-size="14.00" fill="#666666">[BASE TABLE]</text>
<polygon fill="none" stroke="black" points="43.2,-382 43.2,-412.8 320.24,-412.8 320.24,-382 43.2,-382"/>
<text text-anchor="start" x="50.2" y="-394.2" font-family="Arial" font-size="14.00">id </text>
<text text-anchor="start" x="64.99" y="-394.2" font-family="Arial" font-size="14.00" fill="#666666">[uuid]</text>
<polygon fill="none" stroke="black" points="43.2,-351.2 43.2,-382 320.24,-382 320.24,-351.2 43.2,-351.2"/>
<text text-anchor="start" x="50.2" y="-363.4" font-family="Arial" font-size="14.00">name </text>
<text text-anchor="start" x="89.11" y="-363.4" font-family="Arial" font-size="14.00" fill="#666666">[text]</text>
<polygon fill="none" stroke="black" points="43.2,-320.4 43.2,-351.2 320.24,-351.2 320.24,-320.4 43.2,-320.4"/>
<text text-anchor="start" x="50.2" y="-332.6" font-family="Arial" font-size="14.00">description </text>
<text text-anchor="start" x="121.79" y="-332.6" font-family="Arial" font-size="14.00" fill="#666666">[text]</text>
<polygon fill="none" stroke="black" points="43.2,-289.6 43.2,-320.4 320.24,-320.4 320.24,-289.6 43.2,-289.6"/>
<text text-anchor="start" x="50.2" y="-301.8" font-family="Arial" font-size="14.00">alt_text </text>
<text text-anchor="start" x="99.23" y="-301.8" font-family="Arial" font-size="14.00" fill="#666666">[text]</text>
<polygon fill="none" stroke="black" points="43.2,-258.8 43.2,-289.6 320.24,-289.6 320.24,-258.8 43.2,-258.8"/>
<text text-anchor="start" x="50.2" y="-271" font-family="Arial" font-size="14.00">created_by </text>
<text text-anchor="start" x="123.36" y="-271" font-family="Arial" font-size="14.00" fill="#666666">[uuid]</text>
<polygon fill="none" stroke="black" points="43.2,-228 43.2,-258.8 320.24,-258.8 320.24,-228 43.2,-228"/>
<text text-anchor="start" x="50.2" y="-240.2" font-family="Arial" font-size="14.00">channel_id </text>
<text text-anchor="start" x="121.81" y="-240.2" font-family="Arial" font-size="14.00" fill="#666666">[uuid]</text>
<polygon fill="none" stroke="black" points="43.2,-197.2 43.2,-228 320.24,-228 320.24,-197.2 43.2,-197.2"/>
<text text-anchor="start" x="50.2" y="-209.4" font-family="Arial" font-size="14.00">video_id </text>
<text text-anchor="start" x="106.24" y="-209.4" font-family="Arial" font-size="14.00" fill="#666666">[text]</text>
<polygon fill="none" stroke="black" points="43.2,-166.4 43.2,-197.2 320.24,-197.2 320.24,-166.4 43.2,-166.4"/>
<text text-anchor="start" x="50.2" y="-178.6" font-family="Arial" font-size="14.00">created_on </text>
<text text-anchor="start" x="124.14" y="-178.6" font-family="Arial" font-size="14.00" fill="#666666">[timestamp without time zone]</text>
<polygon fill="none" stroke="black" points="43.2,-135.6 43.2,-166.4 320.24,-166.4 320.24,-135.6 43.2,-135.6"/>
<text text-anchor="start" x="50.2" y="-147.8" font-family="Arial" font-size="14.00">updated_on </text>
<text text-anchor="start" x="128.05" y="-147.8" font-family="Arial" font-size="14.00" fill="#666666">[timestamp without time zone]</text>
<polygon fill="none" stroke="black" points="43.2,-104.8 43.2,-135.6 320.24,-135.6 320.24,-104.8 43.2,-104.8"/>
<text text-anchor="start" x="50.2" y="-117" font-family="Arial" font-size="14.00">upvotes </text>
<text text-anchor="start" x="103.12" y="-117" font-family="Arial" font-size="14.00" fill="#666666">[integer]</text>
<polygon fill="none" stroke="black" points="43.2,-74 43.2,-104.8 320.24,-104.8 320.24,-74 43.2,-74"/>
<text text-anchor="start" x="50.2" y="-86.2" font-family="Arial" font-size="14.00">downvotes </text>
<text text-anchor="start" x="121.02" y="-86.2" font-family="Arial" font-size="14.00" fill="#666666">[integer]</text>
<polygon fill="none" stroke="black" points="43.2,-43.2 43.2,-74 320.24,-74 320.24,-43.2 43.2,-43.2"/>
<text text-anchor="start" x="50.2" y="-55.4" font-family="Arial" font-size="14.00">comments </text>
<text text-anchor="start" x="118.66" y="-55.4" font-family="Arial" font-size="14.00" fill="#666666">[integer]</text>
</g>
<!-- public.post_vote&#45;&gt;public.post -->
<g id="edge1" class="edge">
<title>public.post_vote:post_id&#45;&gt;public.post:id</title>
<path fill="none" stroke="black" d="M231.35,-649.69C190.66,-640.1 215.17,-570.4 242.73,-527.6 263.29,-495.66 299.64,-523.51 320.24,-491.6 342.95,-456.43 363.11,-397.4 321.24,-397.4"/>
<polygon fill="black" stroke="black" points="231.46,-649.7 240.92,-655.24 236.76,-650.27 241.07,-650.73 241.07,-650.73 241.07,-650.73 236.76,-650.27 241.88,-646.29 231.46,-649.7"/>
<text text-anchor="start" x="17.46" y="-660.8" font-family="Arial" font-size="10.00">FOREIGN KEY (post_id) REFERENCES post(id)</text>
</g>
<!-- public.user -->
<g id="node3" class="node">
<title>public.user</title>
<polygon fill="#efefef" stroke="none" points="424.2,-382 424.2,-417.6 701.24,-417.6 701.24,-382 424.2,-382"/>
<polygon fill="none" stroke="black" points="424.2,-382 424.2,-417.6 701.24,-417.6 701.24,-382 424.2,-382"/>
<text text-anchor="start" x="460.74" y="-395.4" font-family="Arial Bold" font-size="18.00">public.user</text>
<text text-anchor="start" x="540.22" y="-395.4" font-family="Arial" font-size="14.00">    </text>
<text text-anchor="start" x="571.33" y="-395.4" font-family="Arial" font-size="14.00" fill="#666666">[BASE TABLE]</text>
<polygon fill="none" stroke="black" points="424.2,-351.2 424.2,-382 701.24,-382 701.24,-351.2 424.2,-351.2"/>
<text text-anchor="start" x="431.2" y="-363.4" font-family="Arial" font-size="14.00">id </text>
<text text-anchor="start" x="445.99" y="-363.4" font-family="Arial" font-size="14.00" fill="#666666">[uuid]</text>
<polygon fill="none" stroke="black" points="424.2,-320.4 424.2,-351.2 701.24,-351.2 701.24,-320.4 424.2,-320.4"/>
<text text-anchor="start" x="431.2" y="-332.6" font-family="Arial" font-size="14.00">username </text>
<text text-anchor="start" x="497.34" y="-332.6" font-family="Arial" font-size="14.00" fill="#666666">[varchar(25)]</text>
<polygon fill="none" stroke="black" points="424.2,-289.6 424.2,-320.4 701.24,-320.4 701.24,-289.6 424.2,-289.6"/>
<text text-anchor="start" x="431.2" y="-301.8" font-family="Arial" font-size="14.00">profile_image </text>
<text text-anchor="start" x="519.14" y="-301.8" font-family="Arial" font-size="14.00" fill="#666666">[text]</text>
<polygon fill="none" stroke="black" points="424.2,-258.8 424.2,-289.6 701.24,-289.6 701.24,-258.8 424.2,-258.8"/>
<text text-anchor="start" x="431.2" y="-271" font-family="Arial" font-size="14.00">role </text>
<text text-anchor="start" x="458.43" y="-271" font-family="Arial" font-size="14.00" fill="#666666">[site_role]</text>
<polygon fill="none" stroke="black" points="424.2,-228 424.2,-258.8 701.24,-258.8 701.24,-228 424.2,-228"/>
<text text-anchor="start" x="431.2" y="-240.2" font-family="Arial" font-size="14.00">created_on </text>
<text text-anchor="start" x="505.14" y="-240.2" font-family="Arial" font-size="14.00" fill="#666666">[timestamp without time zone]</text>
<polygon fill="none" stroke="black" points="424.2,-197.2 424.2,-228 701.24,-228 701.24,-197.2 424.2,-197.2"/>
<text text-anchor="start" x="431.2" y="-209.4" font-family="Arial" font-size="14.00">updated_on </text>
<text text-anchor="start" x="509.05" y="-209.4" font-family="Arial" font-size="14.00" fill="#666666">[timestamp without time zone]</text>
<polygon fill="none" stroke="black" points="424.2,-166.4 424.2,-197.2 701.24,-197.2 701.24,-166.4 424.2,-166.4"/>
<text text-anchor="start" x="431.2" y="-178.6" font-family="Arial" font-size="14.00">discord_id </text>
<text text-anchor="start" x="498.9" y="-178.6" font-family="Arial" font-size="14.00" fill="#666666">[bigint]</text>
<polygon fill="none" stroke="black" points="424.2,-135.6 424.2,-166.4 701.24,-166.4 701.24,-135.6 424.2,-135.6"/>
<text text-anchor="start" x="431.2" y="-147.8" font-family="Arial" font-size="14.00">github_id </text>
<text text-anchor="start" x="491.92" y="-147.8" font-family="Arial" font-size="14.00" fill="#666666">[integer]</text>
<polygon fill="none" stroke="black" points="424.2,-104.8 424.2,-135.6 701.24,-135.6 701.24,-104.8 424.2,-104.8"/>
<text text-anchor="start" x="431.2" y="-117" font-family="Arial" font-size="14.00">followers </text>
<text text-anchor="start" x="490.33" y="-117" font-family="Arial" font-size="14.00" fill="#666666">[integer]</text>
<polygon fill="none" stroke="black" points="424.2,-74 424.2,-104.8 701.24,-104.8 701.24,-74 424.2,-74"/>
<text text-anchor="start" x="431.2" y="-86.2" font-family="Arial" font-size="14.00">following </text>
<text text-anchor="start" x="489.57" y="-86.2" font-family="Arial" font-size="14.00" fill="#666666">[integer]</text>
</g>
<!-- public.post_vote&#45;&gt;public.user -->
<g id="edge2" class="edge">
<title>public.post_vote:user_id&#45;&gt;public.user:id</title>
<path fill="none" stroke="black" d="M511.92,-618.49C537.99,-609.41 516.22,-561.25 500.71,-527.6 481.81,-486.61 443.09,-501.8 424.2,-460.8 406.68,-422.77 381.33,-366.6 423.2,-366.6"/>
<polygon fill="black" stroke="black" points="511.93,-618.49 501.38,-615.5 506.65,-619.27 502.37,-619.9 502.37,-619.9 502.37,-619.9 506.65,-619.27 502.7,-624.4 511.93,-618.49"/>
<text text-anchor="start" x="508.71" y="-630" font-family="Arial" font-size="10.00">FOREIGN KEY (user_id) REFERENCES &quot;user&quot;(id)</text>
</g>
</g>
</svg>
