<?xml version="1.0" encoding="UTF-8" standalone="no"?>
<!DOCTYPE svg PUBLIC "-//W3C//DTD SVG 1.1//EN"
 "http://www.w3.org/Graphics/SVG/1.1/DTD/svg11.dtd">
<!-- Generated by graphviz version 12.1.2 (20240928.0832)
 -->
<!-- Title: public.comment_vote Pages: 1 -->
<svg width="931pt" height="694pt"
 viewBox="0.00 0.00 930.73 694.40" xmlns="http://www.w3.org/2000/svg" xmlns:xlink="http://www.w3.org/1999/xlink">
<g id="graph0" class="graph" transform="scale(1 1) rotate(0) translate(4 690.4)">
<title>public.comment_vote</title>
<polygon fill="white" stroke="none" points="-4,4 -4,-690.4 926.73,-690.4 926.73,4 -4,4"/>
<!-- public.comment_vote -->
<g id="node1" class="node">
<title>public.comment_vote</title>
<polygon fill="#efefef" stroke="none" points="387.3,-604.6 387.3,-640.2 682.25,-640.2 682.25,-604.6 387.3,-604.6"/>
<polygon fill="none" stroke="black" points="387.3,-604.6 387.3,-640.2 682.25,-640.2 682.25,-604.6 387.3,-604.6"/>
<text text-anchor="start" x="394.3" y="-618" font-family="Arial Bold" font-size="18.00">public.comment_vote</text>
<text text-anchor="start" x="550.76" y="-618" font-family="Arial" font-size="14.00">    </text>
<text text-anchor="start" x="581.88" y="-618" font-family="Arial" font-size="14.00" fill="#666666">[BASE TABLE]</text>
<polygon fill="none" stroke="black" points="387.3,-573.8 387.3,-604.6 682.25,-604.6 682.25,-573.8 387.3,-573.8"/>
<text text-anchor="start" x="394.3" y="-586" font-family="Arial" font-size="14.00">comment_id </text>
<text text-anchor="start" x="474.44" y="-586" font-family="Arial" font-size="14.00" fill="#666666">[uuid]</text>
<polygon fill="none" stroke="black" points="387.3,-543 387.3,-573.8 682.25,-573.8 682.25,-543 387.3,-543"/>
<text text-anchor="start" x="394.3" y="-555.2" font-family="Arial" font-size="14.00">user_id </text>
<text text-anchor="start" x="444.11" y="-555.2" font-family="Arial" font-size="14.00" fill="#666666">[uuid]</text>
<polygon fill="none" stroke="black" points="387.3,-512.2 387.3,-543 682.25,-543 682.25,-512.2 387.3,-512.2"/>
<text text-anchor="start" x="394.3" y="-524.4" font-family="Arial" font-size="14.00">vote </text>
<text text-anchor="start" x="424.65" y="-524.4" font-family="Arial" font-size="14.00" fill="#666666">[vote]</text>
<polygon fill="none" stroke="black" stroke-width="3" points="385.8,-510.7 385.8,-641.7 683.75,-641.7 683.75,-510.7 385.8,-510.7"/>
</g>
<!-- public.comment -->
<g id="node2" class="node">
<title>public.comment</title>
<polygon fill="#efefef" stroke="none" points="206.26,-335.8 206.26,-371.4 483.3,-371.4 483.3,-335.8 206.26,-335.8"/>
<polygon fill="none" stroke="black" points="206.26,-335.8 206.26,-371.4 483.3,-371.4 483.3,-335.8 206.26,-335.8"/>
<text text-anchor="start" x="224.29" y="-349.2" font-family="Arial Bold" font-size="18.00">public.comment</text>
<text text-anchor="start" x="340.77" y="-349.2" font-family="Arial" font-size="14.00">    </text>
<text text-anchor="start" x="371.88" y="-349.2" font-family="Arial" font-size="14.00" fill="#666666">[BASE TABLE]</text>
<polygon fill="none" stroke="black" points="206.26,-305 206.26,-335.8 483.3,-335.8 483.3,-305 206.26,-305"/>
<text text-anchor="start" x="213.26" y="-317.2" font-family="Arial" font-size="14.00">id </text>
<text text-anchor="start" x="228.04" y="-317.2" font-family="Arial" font-size="14.00" fill="#666666">[uuid]</text>
<polygon fill="none" stroke="black" points="206.26,-274.2 206.26,-305 483.3,-305 483.3,-274.2 206.26,-274.2"/>
<text text-anchor="start" x="213.26" y="-286.4" font-family="Arial" font-size="14.00">content </text>
<text text-anchor="start" x="263.07" y="-286.4" font-family="Arial" font-size="14.00" fill="#666666">[text]</text>
<polygon fill="none" stroke="black" points="206.26,-243.4 206.26,-274.2 483.3,-274.2 483.3,-243.4 206.26,-243.4"/>
<text text-anchor="start" x="213.26" y="-255.6" font-family="Arial" font-size="14.00">creator_id </text>
<text text-anchor="start" x="279.4" y="-255.6" font-family="Arial" font-size="14.00" fill="#666666">[uuid]</text>
<polygon fill="none" stroke="black" points="206.26,-212.6 206.26,-243.4 483.3,-243.4 483.3,-212.6 206.26,-212.6"/>
<text text-anchor="start" x="213.26" y="-224.8" font-family="Arial" font-size="14.00">post_id </text>
<text text-anchor="start" x="262.29" y="-224.8" font-family="Arial" font-size="14.00" fill="#666666">[uuid]</text>
<polygon fill="none" stroke="black" points="206.26,-181.8 206.26,-212.6 483.3,-212.6 483.3,-181.8 206.26,-181.8"/>
<text text-anchor="start" x="213.26" y="-194" font-family="Arial" font-size="14.00">reply_to </text>
<text text-anchor="start" x="266.95" y="-194" font-family="Arial" font-size="14.00" fill="#666666">[uuid]</text>
<polygon fill="none" stroke="black" points="206.26,-151 206.26,-181.8 483.3,-181.8 483.3,-151 206.26,-151"/>
<text text-anchor="start" x="213.26" y="-163.2" font-family="Arial" font-size="14.00">created_on </text>
<text text-anchor="start" x="287.2" y="-163.2" font-family="Arial" font-size="14.00" fill="#666666">[timestamp without time zone]</text>
<polygon fill="none" stroke="black" points="206.26,-120.2 206.26,-151 483.3,-151 483.3,-120.2 206.26,-120.2"/>
<text text-anchor="start" x="213.26" y="-132.4" font-family="Arial" font-size="14.00">updated_on </text>
<text text-anchor="start" x="291.11" y="-132.4" font-family="Arial" font-size="14.00" fill="#666666">[timestamp without time zone]</text>
<polygon fill="none" stroke="black" points="206.26,-89.4 206.26,-120.2 483.3,-120.2 483.3,-89.4 206.26,-89.4"/>
<text text-anchor="start" x="213.26" y="-101.6" font-family="Arial" font-size="14.00">upvotes </text>
<text text-anchor="start" x="266.18" y="-101.6" font-family="Arial" font-size="14.00" fill="#666666">[integer]</text>
<polygon fill="none" stroke="black" points="206.26,-58.6 206.26,-89.4 483.3,-89.4 483.3,-58.6 206.26,-58.6"/>
<text text-anchor="start" x="213.26" y="-70.8" font-family="Arial" font-size="14.00">downvotes </text>
<text text-anchor="start" x="284.08" y="-70.8" font-family="Arial" font-size="14.00" fill="#666666">[integer]</text>
</g>
<!-- public.comment_vote&#45;&gt;public.comment -->
<g id="edge1" class="edge">
<title>public.comment_vote:comment_id&#45;&gt;public.comment:id</title>
<path fill="none" stroke="black" d="M375.94,-588.1C335.4,-578.61 360.97,-509.57 387.3,-466 412.33,-424.58 458.21,-455.99 483.3,-414.6 505,-378.79 526.16,-320.4 484.3,-320.4"/>
<polygon fill="black" stroke="black" points="376.02,-588.11 385.49,-593.64 381.33,-588.67 385.63,-589.13 385.63,-589.13 385.63,-589.13 381.33,-588.67 386.44,-584.69 376.02,-588.11"/>
<text text-anchor="start" x="7" y="-599.2" font-family="Arial" font-size="10.00">FOREIGN KEY (comment_id) REFERENCES comment(id) ON DELETE CASCADE</text>
</g>
<!-- public.user -->
<g id="node3" class="node">
<title>public.user</title>
<polygon fill="#efefef" stroke="none" points="587.26,-351.2 587.26,-386.8 864.3,-386.8 864.3,-351.2 587.26,-351.2"/>
<polygon fill="none" stroke="black" points="587.26,-351.2 587.26,-386.8 864.3,-386.8 864.3,-351.2 587.26,-351.2"/>
<text text-anchor="start" x="623.79" y="-364.6" font-family="Arial Bold" font-size="18.00">public.user</text>
<text text-anchor="start" x="703.27" y="-364.6" font-family="Arial" font-size="14.00">    </text>
<text text-anchor="start" x="734.39" y="-364.6" font-family="Arial" font-size="14.00" fill="#666666">[BASE TABLE]</text>
<polygon fill="none" stroke="black" points="587.26,-320.4 587.26,-351.2 864.3,-351.2 864.3,-320.4 587.26,-320.4"/>
<text text-anchor="start" x="594.26" y="-332.6" font-family="Arial" font-size="14.00">id </text>
<text text-anchor="start" x="609.04" y="-332.6" font-family="Arial" font-size="14.00" fill="#666666">[uuid]</text>
<polygon fill="none" stroke="black" points="587.26,-289.6 587.26,-320.4 864.3,-320.4 864.3,-289.6 587.26,-289.6"/>
<text text-anchor="start" x="594.26" y="-301.8" font-family="Arial" font-size="14.00">username </text>
<text text-anchor="start" x="660.4" y="-301.8" font-family="Arial" font-size="14.00" fill="#666666">[varchar(25)]</text>
<polygon fill="none" stroke="black" points="587.26,-258.8 587.26,-289.6 864.3,-289.6 864.3,-258.8 587.26,-258.8"/>
<text text-anchor="start" x="594.26" y="-271" font-family="Arial" font-size="14.00">profile_image </text>
<text text-anchor="start" x="682.19" y="-271" font-family="Arial" font-size="14.00" fill="#666666">[text]</text>
<polygon fill="none" stroke="black" points="587.26,-228 587.26,-258.8 864.3,-258.8 864.3,-228 587.26,-228"/>
<text text-anchor="start" x="594.26" y="-240.2" font-family="Arial" font-size="14.00">role </text>
<text text-anchor="start" x="621.49" y="-240.2" font-family="Arial" font-size="14.00" fill="#666666">[site_role]</text>
<polygon fill="none" stroke="black" points="587.26,-197.2 587.26,-228 864.3,-228 864.3,-197.2 587.26,-197.2"/>
<text text-anchor="start" x="594.26" y="-209.4" font-family="Arial" font-size="14.00">created_on </text>
<text text-anchor="start" x="668.2" y="-209.4" font-family="Arial" font-size="14.00" fill="#666666">[timestamp without time zone]</text>
<polygon fill="none" stroke="black" points="587.26,-166.4 587.26,-197.2 864.3,-197.2 864.3,-166.4 587.26,-166.4"/>
<text text-anchor="start" x="594.26" y="-178.6" font-family="Arial" font-size="14.00">updated_on </text>
<text text-anchor="start" x="672.11" y="-178.6" font-family="Arial" font-size="14.00" fill="#666666">[timestamp without time zone]</text>
<polygon fill="none" stroke="black" points="587.26,-135.6 587.26,-166.4 864.3,-166.4 864.3,-135.6 587.26,-135.6"/>
<text text-anchor="start" x="594.26" y="-147.8" font-family="Arial" font-size="14.00">discord_id </text>
<text text-anchor="start" x="661.96" y="-147.8" font-family="Arial" font-size="14.00" fill="#666666">[bigint]</text>
<polygon fill="none" stroke="black" points="587.26,-104.8 587.26,-135.6 864.3,-135.6 864.3,-104.8 587.26,-104.8"/>
<text text-anchor="start" x="594.26" y="-117" font-family="Arial" font-size="14.00">github_id </text>
<text text-anchor="start" x="654.97" y="-117" font-family="Arial" font-size="14.00" fill="#666666">[integer]</text>
<polygon fill="none" stroke="black" points="587.26,-74 587.26,-104.8 864.3,-104.8 864.3,-74 587.26,-74"/>
<text text-anchor="start" x="594.26" y="-86.2" font-family="Arial" font-size="14.00">followers </text>
<text text-anchor="start" x="653.39" y="-86.2" font-family="Arial" font-size="14.00" fill="#666666">[integer]</text>
<polygon fill="none" stroke="black" points="587.26,-43.2 587.26,-74 864.3,-74 864.3,-43.2 587.26,-43.2"/>
<text text-anchor="start" x="594.26" y="-55.4" font-family="Arial" font-size="14.00">following </text>
<text text-anchor="start" x="652.62" y="-55.4" font-family="Arial" font-size="14.00" fill="#666666">[integer]</text>
</g>
<!-- public.comment_vote&#45;&gt;public.user -->
<g id="edge2" class="edge">
<title>public.comment_vote:user_id&#45;&gt;public.user:id</title>
<path fill="none" stroke="black" d="M693.28,-556.92C720.8,-547.61 703.56,-496.51 682.25,-466 656.4,-428.98 613.11,-467.02 587.26,-430 563.28,-395.67 544.39,-335.8 586.26,-335.8"/>
<polygon fill="black" stroke="black" points="693.48,-556.89 682.93,-553.9 688.2,-557.67 683.91,-558.3 683.91,-558.3 683.91,-558.3 688.2,-557.67 684.24,-562.8 693.48,-556.89"/>
<text text-anchor="start" x="690.25" y="-568.4" font-family="Arial" font-size="10.00">FOREIGN KEY (user_id) REFERENCES &quot;user&quot;(id)</text>
</g>
</g>
</svg>
