<?xml version="1.0" encoding="UTF-8" standalone="no"?>
<!DOCTYPE svg PUBLIC "-//W3C//DTD SVG 1.1//EN"
 "http://www.w3.org/Graphics/SVG/1.1/DTD/svg11.dtd">
<!-- Generated by graphviz version 2.40.1 (20161225.0304)
 -->
<!-- Title: public.follow Pages: 1 -->
<svg width="621pt" height="652pt"
 viewBox="0.00 0.00 621.00 652.00" xmlns="http://www.w3.org/2000/svg" xmlns:xlink="http://www.w3.org/1999/xlink">
<g id="graph0" class="graph" transform="scale(1 1) rotate(0) translate(4 648)">
<title>public.follow</title>
<polygon fill="#ffffff" stroke="transparent" points="-4,4 -4,-648 617,-648 617,4 -4,4"/>
<!-- public.follow -->
<g id="node1" class="node">
<title>public.follow</title>
<polygon fill="#efefef" stroke="transparent" points="254,-562.5 254,-597.5 493,-597.5 493,-562.5 254,-562.5"/>
<polygon fill="none" stroke="#000000" points="254,-562.5 254,-597.5 493,-597.5 493,-562.5 254,-562.5"/>
<text text-anchor="start" x="260.7128" y="-575.3" font-family="Arial Bold" font-size="18.00" fill="#000000">public.follow</text>
<text text-anchor="start" x="358.7192" y="-575.3" font-family="Arial" font-size="14.00" fill="#000000">    </text>
<text text-anchor="start" x="392.924" y="-575.3" font-family="Arial" font-size="14.00" fill="#666666">[BASE TABLE]</text>
<polygon fill="none" stroke="#000000" points="254,-532.5 254,-562.5 493,-562.5 493,-532.5 254,-532.5"/>
<text text-anchor="start" x="261" y="-543.9" font-family="Arial" font-size="14.00" fill="#000000">follower_id </text>
<text text-anchor="start" x="331.7812" y="-543.9" font-family="Arial" font-size="14.00" fill="#666666">[uuid]</text>
<polygon fill="none" stroke="#000000" points="254,-502.5 254,-532.5 493,-532.5 493,-502.5 254,-502.5"/>
<text text-anchor="start" x="261" y="-513.9" font-family="Arial" font-size="14.00" fill="#000000">user_id </text>
<text text-anchor="start" x="310.7882" y="-513.9" font-family="Arial" font-size="14.00" fill="#666666">[uuid]</text>
<polygon fill="none" stroke="#000000" stroke-width="3" points="252,-501.5 252,-599.5 494,-599.5 494,-501.5 252,-501.5"/>
</g>
<!-- public.user -->
<g id="node2" class="node">
<title>public.user</title>
<polygon fill="#efefef" stroke="transparent" points="220,-342.5 220,-377.5 527,-377.5 527,-342.5 220,-342.5"/>
<polygon fill="none" stroke="#000000" points="220,-342.5 220,-377.5 527,-377.5 527,-342.5 220,-342.5"/>
<text text-anchor="start" x="266.2091" y="-355.3" font-family="Arial Bold" font-size="18.00" fill="#000000">public.user</text>
<text text-anchor="start" x="353.2229" y="-355.3" font-family="Arial" font-size="14.00" fill="#000000">    </text>
<text text-anchor="start" x="387.4277" y="-355.3" font-family="Arial" font-size="14.00" fill="#666666">[BASE TABLE]</text>
<polygon fill="none" stroke="#000000" points="220,-312.5 220,-342.5 527,-342.5 527,-312.5 220,-312.5"/>
<text text-anchor="start" x="227" y="-323.9" font-family="Arial" font-size="14.00" fill="#000000">id    </text>
<text text-anchor="start" x="272.094" y="-323.9" font-family="Arial" font-size="14.00" fill="#666666">[uuid]</text>
<polygon fill="none" stroke="#000000" points="220,-282.5 220,-312.5 527,-312.5 527,-282.5 220,-282.5"/>
<text text-anchor="start" x="227" y="-293.9" font-family="Arial" font-size="14.00" fill="#000000">username    </text>
<text text-anchor="start" x="323.439" y="-293.9" font-family="Arial" font-size="14.00" fill="#666666">[varchar(25)]</text>
<polygon fill="none" stroke="#000000" points="220,-252.5 220,-282.5 527,-282.5 527,-252.5 220,-252.5"/>
<text text-anchor="start" x="227" y="-263.9" font-family="Arial" font-size="14.00" fill="#000000">profile_image    </text>
<text text-anchor="start" x="345.2146" y="-263.9" font-family="Arial" font-size="14.00" fill="#666666">[text]</text>
<polygon fill="none" stroke="#000000" points="220,-222.5 220,-252.5 527,-252.5 527,-222.5 220,-222.5"/>
<text text-anchor="start" x="227" y="-233.9" font-family="Arial" font-size="14.00" fill="#000000">role    </text>
<text text-anchor="start" x="284.5372" y="-233.9" font-family="Arial" font-size="14.00" fill="#666666">[site_role]</text>
<polygon fill="none" stroke="#000000" points="220,-192.5 220,-222.5 527,-222.5 527,-192.5 220,-192.5"/>
<text text-anchor="start" x="227" y="-203.9" font-family="Arial" font-size="14.00" fill="#000000">created_on    </text>
<text text-anchor="start" x="331.2342" y="-203.9" font-family="Arial" font-size="14.00" fill="#666666">[timestamp without time zone]</text>
<polygon fill="none" stroke="#000000" points="220,-162.5 220,-192.5 527,-192.5 527,-162.5 220,-162.5"/>
<text text-anchor="start" x="226.8605" y="-173.9" font-family="Arial" font-size="14.00" fill="#000000">updated_on    </text>
<text text-anchor="start" x="334.9993" y="-173.9" font-family="Arial" font-size="14.00" fill="#666666">[timestamp without time zone]</text>
<polygon fill="none" stroke="#000000" points="220,-132.5 220,-162.5 527,-162.5 527,-132.5 220,-132.5"/>
<text text-anchor="start" x="227" y="-143.9" font-family="Arial" font-size="14.00" fill="#000000">discord_id    </text>
<text text-anchor="start" x="324.9916" y="-143.9" font-family="Arial" font-size="14.00" fill="#666666">[bigint]</text>
<polygon fill="none" stroke="#000000" points="220,-102.5 220,-132.5 527,-132.5 527,-102.5 220,-102.5"/>
<text text-anchor="start" x="227" y="-113.9" font-family="Arial" font-size="14.00" fill="#000000">github_id    </text>
<text text-anchor="start" x="318.0042" y="-113.9" font-family="Arial" font-size="14.00" fill="#666666">[integer]</text>
<polygon fill="none" stroke="#000000" points="220,-72.5 220,-102.5 527,-102.5 527,-72.5 220,-72.5"/>
<text text-anchor="start" x="227" y="-83.9" font-family="Arial" font-size="14.00" fill="#000000">followers    </text>
<text text-anchor="start" x="316.4236" y="-83.9" font-family="Arial" font-size="14.00" fill="#666666">[integer]</text>
<polygon fill="none" stroke="#000000" points="220,-42.5 220,-72.5 527,-72.5 527,-42.5 220,-42.5"/>
<text text-anchor="start" x="227" y="-53.9" font-family="Arial" font-size="14.00" fill="#000000">following    </text>
<text text-anchor="start" x="315.6522" y="-53.9" font-family="Arial" font-size="14.00" fill="#666666">[integer]</text>
</g>
<!-- public.follow&#45;&gt;public.user -->
<g id="edge1" class="edge">
<title>public.follow:follower_id&#45;&gt;public.user:id</title>
<path fill="none" stroke="#000000" d="M244.3694,-544.7184C200.3832,-519.2514 173.8158,-327.5 220,-327.5"/>
<polygon fill="#000000" stroke="#000000" points="244.3927,-544.7251 252.7513,-551.8233 249.1964,-546.1125 254,-547.5 254,-547.5 254,-547.5 249.1964,-546.1125 255.2487,-543.1767 244.3927,-544.7251 244.3927,-544.7251"/>
<text text-anchor="start" x="6.788" y="-557.5" font-family="Arial" font-size="10.00" fill="#000000">FOREIGN KEY (follower_id) REFERENCES &quot;user&quot;(id)</text>
</g>
<!-- public.follow&#45;&gt;public.user -->
<g id="edge2" class="edge">
<title>public.follow:user_id&#45;&gt;public.user:id</title>
<path fill="none" stroke="#000000" d="M373.2676,-492.5036C363.4705,-430.6176 258.0755,-484.2292 220,-421 198.5627,-385.4007 178.4444,-327.5 220,-327.5"/>
<polygon fill="#000000" stroke="#000000" points="373.2692,-492.5267 369.512,-502.8289 373.6346,-497.5134 374,-502.5 374,-502.5 374,-502.5 373.6346,-497.5134 378.488,-502.1711 373.2692,-492.5267 373.2692,-492.5267"/>
<text text-anchor="start" x="381.2855" y="-512.5" font-family="Arial" font-size="10.00" fill="#000000">FOREIGN KEY (user_id) REFERENCES &quot;user&quot;(id)</text>
</g>
</g>
</svg>
