<?xml version="1.0" encoding="UTF-8" standalone="no"?>
<!DOCTYPE svg PUBLIC "-//W3C//DTD SVG 1.1//EN"
 "http://www.w3.org/Graphics/SVG/1.1/DTD/svg11.dtd">
<!-- Generated by graphviz version 2.40.1 (20161225.0304)
 -->
<!-- Title: public.playlist_post Pages: 1 -->
<svg width="796pt" height="772pt"
 viewBox="0.00 0.00 795.50 772.00" xmlns="http://www.w3.org/2000/svg" xmlns:xlink="http://www.w3.org/1999/xlink">
<g id="graph0" class="graph" transform="scale(1 1) rotate(0) translate(4 768)">
<title>public.playlist_post</title>
<polygon fill="#ffffff" stroke="transparent" points="-4,4 -4,-768 791.5,-768 791.5,4 -4,4"/>
<!-- public.playlist_post -->
<g id="node1" class="node">
<title>public.playlist_post</title>
<polygon fill="#efefef" stroke="transparent" points="254,-682.5 254,-717.5 546,-717.5 546,-682.5 254,-682.5"/>
<polygon fill="none" stroke="#000000" points="254,-682.5 254,-717.5 546,-717.5 546,-682.5 254,-682.5"/>
<text text-anchor="start" x="260.7024" y="-695.3" font-family="Arial Bold" font-size="18.00" fill="#000000">public.playlist_post</text>
<text text-anchor="start" x="411.7296" y="-695.3" font-family="Arial" font-size="14.00" fill="#000000">    </text>
<text text-anchor="start" x="445.9344" y="-695.3" font-family="Arial" font-size="14.00" fill="#666666">[BASE TABLE]</text>
<polygon fill="none" stroke="#000000" points="254,-652.5 254,-682.5 546,-682.5 546,-652.5 254,-652.5"/>
<text text-anchor="start" x="261" y="-663.9" font-family="Arial" font-size="14.00" fill="#000000">id </text>
<text text-anchor="start" x="275.7798" y="-663.9" font-family="Arial" font-size="14.00" fill="#666666">[uuid]</text>
<polygon fill="none" stroke="#000000" points="254,-622.5 254,-652.5 546,-652.5 546,-622.5 254,-622.5"/>
<text text-anchor="start" x="261" y="-633.9" font-family="Arial" font-size="14.00" fill="#000000">playlist_id </text>
<text text-anchor="start" x="326.338" y="-633.9" font-family="Arial" font-size="14.00" fill="#666666">[uuid]</text>
<polygon fill="none" stroke="#000000" points="254,-592.5 254,-622.5 546,-622.5 546,-592.5 254,-592.5"/>
<text text-anchor="start" x="261" y="-603.9" font-family="Arial" font-size="14.00" fill="#000000">post_id </text>
<text text-anchor="start" x="310.0182" y="-603.9" font-family="Arial" font-size="14.00" fill="#666666">[uuid]</text>
<polygon fill="none" stroke="#000000" points="254,-562.5 254,-592.5 546,-592.5 546,-562.5 254,-562.5"/>
<text text-anchor="start" x="261" y="-573.9" font-family="Arial" font-size="14.00" fill="#000000">sort_index </text>
<text text-anchor="start" x="329.4614" y="-573.9" font-family="Arial" font-size="14.00" fill="#666666">[smallint]</text>
<polygon fill="none" stroke="#000000" stroke-width="3" points="252.5,-561.5 252.5,-719.5 547.5,-719.5 547.5,-561.5 252.5,-561.5"/>
</g>
<!-- public.playlist -->
<g id="node2" class="node">
<title>public.playlist</title>
<polygon fill="#efefef" stroke="transparent" points="85,-297.5 85,-332.5 333,-332.5 333,-297.5 85,-297.5"/>
<polygon fill="none" stroke="#000000" points="85,-297.5 85,-332.5 333,-332.5 333,-297.5 85,-297.5"/>
<text text-anchor="start" x="91.7128" y="-310.3" font-family="Arial Bold" font-size="18.00" fill="#000000">public.playlist</text>
<text text-anchor="start" x="198.7192" y="-310.3" font-family="Arial" font-size="14.00" fill="#000000">    </text>
<text text-anchor="start" x="232.924" y="-310.3" font-family="Arial" font-size="14.00" fill="#666666">[BASE TABLE]</text>
<polygon fill="none" stroke="#000000" points="85,-267.5 85,-297.5 333,-297.5 333,-267.5 85,-267.5"/>
<text text-anchor="start" x="92" y="-278.9" font-family="Arial" font-size="14.00" fill="#000000">id    </text>
<text text-anchor="start" x="137.094" y="-278.9" font-family="Arial" font-size="14.00" fill="#666666">[uuid]</text>
<polygon fill="none" stroke="#000000" points="85,-237.5 85,-267.5 333,-267.5 333,-237.5 85,-237.5"/>
<text text-anchor="start" x="92" y="-248.9" font-family="Arial" font-size="14.00" fill="#000000">user_id    </text>
<text text-anchor="start" x="172.1024" y="-248.9" font-family="Arial" font-size="14.00" fill="#666666">[uuid]</text>
<polygon fill="none" stroke="#000000" points="85,-207.5 85,-237.5 333,-237.5 333,-207.5 85,-207.5"/>
<text text-anchor="start" x="92" y="-218.9" font-family="Arial" font-size="14.00" fill="#000000">name    </text>
<text text-anchor="start" x="161.2132" y="-218.9" font-family="Arial" font-size="14.00" fill="#666666">[varchar(32)]</text>
<polygon fill="none" stroke="#000000" points="85,-177.5 85,-207.5 333,-207.5 333,-177.5 85,-177.5"/>
<text text-anchor="start" x="92" y="-188.9" font-family="Arial" font-size="14.00" fill="#000000">description    </text>
<text text-anchor="start" x="193.8822" y="-188.9" font-family="Arial" font-size="14.00" fill="#666666">[text]</text>
<polygon fill="none" stroke="#000000" points="85,-147.5 85,-177.5 333,-177.5 333,-147.5 85,-147.5"/>
<text text-anchor="start" x="92" y="-158.9" font-family="Arial" font-size="14.00" fill="#000000">public    </text>
<text text-anchor="start" x="162.7658" y="-158.9" font-family="Arial" font-size="14.00" fill="#666666">[boolean]</text>
</g>
<!-- public.playlist_post&#45;&gt;public.playlist -->
<g id="edge1" class="edge">
<title>public.playlist_post:playlist_id&#45;&gt;public.playlist:id</title>
<path fill="none" stroke="#000000" d="M243.5729,-636.4C206.2401,-627.398 241.4766,-564.973 254,-517 272.1439,-447.4968 314.8561,-445.5032 333,-376 343.4964,-335.7919 374.5556,-282.5 333,-282.5"/>
<polygon fill="#000000" stroke="#000000" points="244.0552,-636.4508 253.5279,-641.9752 249.0276,-636.9754 254,-637.5 254,-637.5 254,-637.5 249.0276,-636.9754 254.4721,-633.0248 244.0552,-636.4508 244.0552,-636.4508"/>
<text text-anchor="start" x="6.7275" y="-647.5" font-family="Arial" font-size="10.00" fill="#000000">FOREIGN KEY (playlist_id) REFERENCES playlist(id)</text>
</g>
<!-- public.post -->
<g id="node3" class="node">
<title>public.post</title>
<polygon fill="#efefef" stroke="transparent" points="438,-402.5 438,-437.5 745,-437.5 745,-402.5 438,-402.5"/>
<polygon fill="none" stroke="#000000" points="438,-402.5 438,-437.5 745,-437.5 745,-402.5 438,-402.5"/>
<text text-anchor="start" x="484.7041" y="-415.3" font-family="Arial Bold" font-size="18.00" fill="#000000">public.post</text>
<text text-anchor="start" x="570.7279" y="-415.3" font-family="Arial" font-size="14.00" fill="#000000">    </text>
<text text-anchor="start" x="604.9327" y="-415.3" font-family="Arial" font-size="14.00" fill="#666666">[BASE TABLE]</text>
<polygon fill="none" stroke="#000000" points="438,-372.5 438,-402.5 745,-402.5 745,-372.5 438,-372.5"/>
<text text-anchor="start" x="445" y="-383.9" font-family="Arial" font-size="14.00" fill="#000000">id    </text>
<text text-anchor="start" x="490.094" y="-383.9" font-family="Arial" font-size="14.00" fill="#666666">[uuid]</text>
<polygon fill="none" stroke="#000000" points="438,-342.5 438,-372.5 745,-372.5 745,-342.5 438,-342.5"/>
<text text-anchor="start" x="445" y="-353.9" font-family="Arial" font-size="14.00" fill="#000000">name    </text>
<text text-anchor="start" x="514.2132" y="-353.9" font-family="Arial" font-size="14.00" fill="#666666">[text]</text>
<polygon fill="none" stroke="#000000" points="438,-312.5 438,-342.5 745,-342.5 745,-312.5 438,-312.5"/>
<text text-anchor="start" x="445" y="-323.9" font-family="Arial" font-size="14.00" fill="#000000">description    </text>
<text text-anchor="start" x="546.8822" y="-323.9" font-family="Arial" font-size="14.00" fill="#666666">[text]</text>
<polygon fill="none" stroke="#000000" points="438,-282.5 438,-312.5 745,-312.5 745,-282.5 438,-282.5"/>
<text text-anchor="start" x="445" y="-293.9" font-family="Arial" font-size="14.00" fill="#000000">alt_text    </text>
<text text-anchor="start" x="524.331" y="-293.9" font-family="Arial" font-size="14.00" fill="#666666">[text]</text>
<polygon fill="none" stroke="#000000" points="438,-252.5 438,-282.5 745,-282.5 745,-252.5 438,-252.5"/>
<text text-anchor="start" x="445" y="-263.9" font-family="Arial" font-size="14.00" fill="#000000">created_by    </text>
<text text-anchor="start" x="548.4516" y="-263.9" font-family="Arial" font-size="14.00" fill="#666666">[uuid]</text>
<polygon fill="none" stroke="#000000" points="438,-222.5 438,-252.5 745,-252.5 745,-222.5 438,-222.5"/>
<text text-anchor="start" x="445" y="-233.9" font-family="Arial" font-size="14.00" fill="#000000">channel_id    </text>
<text text-anchor="start" x="546.8962" y="-233.9" font-family="Arial" font-size="14.00" fill="#666666">[uuid]</text>
<polygon fill="none" stroke="#000000" points="438,-192.5 438,-222.5 745,-222.5 745,-192.5 438,-192.5"/>
<text text-anchor="start" x="445" y="-203.9" font-family="Arial" font-size="14.00" fill="#000000">video_id    </text>
<text text-anchor="start" x="531.331" y="-203.9" font-family="Arial" font-size="14.00" fill="#666666">[text]</text>
<polygon fill="none" stroke="#000000" points="438,-162.5 438,-192.5 745,-192.5 745,-162.5 438,-162.5"/>
<text text-anchor="start" x="445" y="-173.9" font-family="Arial" font-size="14.00" fill="#000000">created_on    </text>
<text text-anchor="start" x="549.2342" y="-173.9" font-family="Arial" font-size="14.00" fill="#666666">[timestamp without time zone]</text>
<polygon fill="none" stroke="#000000" points="438,-132.5 438,-162.5 745,-162.5 745,-132.5 438,-132.5"/>
<text text-anchor="start" x="444.8605" y="-143.9" font-family="Arial" font-size="14.00" fill="#000000">updated_on    </text>
<text text-anchor="start" x="552.9993" y="-143.9" font-family="Arial" font-size="14.00" fill="#666666">[timestamp without time zone]</text>
<polygon fill="none" stroke="#000000" points="438,-102.5 438,-132.5 745,-132.5 745,-102.5 438,-102.5"/>
<text text-anchor="start" x="445" y="-113.9" font-family="Arial" font-size="14.00" fill="#000000">upvotes    </text>
<text text-anchor="start" x="528.2258" y="-113.9" font-family="Arial" font-size="14.00" fill="#666666">[integer]</text>
<polygon fill="none" stroke="#000000" points="438,-72.5 438,-102.5 745,-102.5 745,-72.5 438,-72.5"/>
<text text-anchor="start" x="445" y="-83.9" font-family="Arial" font-size="14.00" fill="#000000">downvotes    </text>
<text text-anchor="start" x="546.115" y="-83.9" font-family="Arial" font-size="14.00" fill="#666666">[integer]</text>
<polygon fill="none" stroke="#000000" points="438,-42.5 438,-72.5 745,-72.5 745,-42.5 438,-42.5"/>
<text text-anchor="start" x="445" y="-53.9" font-family="Arial" font-size="14.00" fill="#000000">comments    </text>
<text text-anchor="start" x="543.7644" y="-53.9" font-family="Arial" font-size="14.00" fill="#666666">[integer]</text>
</g>
<!-- public.playlist_post&#45;&gt;public.post -->
<g id="edge2" class="edge">
<title>public.playlist_post:post_id&#45;&gt;public.post:id</title>
<path fill="none" stroke="#000000" d="M556.2019,-605.9217C582.8948,-596.438 567.2216,-546.4434 546,-517 516.4157,-475.954 467.5843,-522.046 438,-481 413.702,-447.2884 396.4444,-387.5 438,-387.5"/>
<polygon fill="#000000" stroke="#000000" points="555.8824,-605.9711 545.312,-603.0529 550.9412,-606.7355 546,-607.5 546,-607.5 546,-607.5 550.9412,-606.7355 546.688,-611.9471 555.8824,-605.9711 555.8824,-605.9711"/>
<text text-anchor="start" x="553.3845" y="-617.5" font-family="Arial" font-size="10.00" fill="#000000">FOREIGN KEY (post_id) REFERENCES post(id)</text>
</g>
</g>
</svg>
