<?xml version="1.0" encoding="UTF-8" standalone="no"?>
<!DOCTYPE svg PUBLIC "-//W3C//DTD SVG 1.1//EN"
 "http://www.w3.org/Graphics/SVG/1.1/DTD/svg11.dtd">
<!-- Generated by graphviz version 2.40.1 (20161225.0304)
 -->
<!-- Title: public.post_report Pages: 1 -->
<svg width="577pt" height="772pt"
 viewBox="0.00 0.00 576.50 772.00" xmlns="http://www.w3.org/2000/svg" xmlns:xlink="http://www.w3.org/1999/xlink">
<g id="graph0" class="graph" transform="scale(1 1) rotate(0) translate(4 768)">
<title>public.post_report</title>
<polygon fill="#ffffff" stroke="transparent" points="-4,4 -4,-768 572.5,-768 572.5,4 -4,4"/>
<!-- public.post_report -->
<g id="node1" class="node">
<title>public.post_report</title>
<polygon fill="#efefef" stroke="transparent" points="231,-682.5 231,-717.5 515,-717.5 515,-682.5 231,-682.5"/>
<polygon fill="none" stroke="#000000" points="231,-682.5 231,-717.5 515,-717.5 515,-682.5 231,-682.5"/>
<text text-anchor="start" x="237.6984" y="-695.3" font-family="Arial Bold" font-size="18.00" fill="#000000">public.post_report</text>
<text text-anchor="start" x="380.7336" y="-695.3" font-family="Arial" font-size="14.00" fill="#000000">    </text>
<text text-anchor="start" x="414.9384" y="-695.3" font-family="Arial" font-size="14.00" fill="#666666">[BASE TABLE]</text>
<polygon fill="none" stroke="#000000" points="231,-652.5 231,-682.5 515,-682.5 515,-652.5 231,-652.5"/>
<text text-anchor="start" x="238" y="-663.9" font-family="Arial" font-size="14.00" fill="#000000">id </text>
<text text-anchor="start" x="252.7798" y="-663.9" font-family="Arial" font-size="14.00" fill="#666666">[uuid]</text>
<polygon fill="none" stroke="#000000" points="231,-622.5 231,-652.5 515,-652.5 515,-622.5 231,-622.5"/>
<text text-anchor="start" x="238" y="-633.9" font-family="Arial" font-size="14.00" fill="#000000">post_id </text>
<text text-anchor="start" x="287.0182" y="-633.9" font-family="Arial" font-size="14.00" fill="#666666">[uuid]</text>
<polygon fill="none" stroke="#000000" points="231,-592.5 231,-622.5 515,-622.5 515,-592.5 231,-592.5"/>
<text text-anchor="start" x="238" y="-603.9" font-family="Arial" font-size="14.00" fill="#000000">description </text>
<text text-anchor="start" x="309.568" y="-603.9" font-family="Arial" font-size="14.00" fill="#666666">[text]</text>
<polygon fill="none" stroke="#000000" points="231,-562.5 231,-592.5 515,-592.5 515,-562.5 231,-562.5"/>
<text text-anchor="start" x="238" y="-573.9" font-family="Arial" font-size="14.00" fill="#000000">resolution </text>
<text text-anchor="start" x="302.568" y="-573.9" font-family="Arial" font-size="14.00" fill="#666666">[text]</text>
<polygon fill="none" stroke="#000000" points="231,-532.5 231,-562.5 515,-562.5 515,-532.5 231,-532.5"/>
<text text-anchor="start" x="238" y="-543.9" font-family="Arial" font-size="14.00" fill="#000000">status </text>
<text text-anchor="start" x="279.237" y="-543.9" font-family="Arial" font-size="14.00" fill="#666666">[report_status]</text>
<polygon fill="none" stroke="#000000" stroke-width="3" points="229.5,-531.5 229.5,-719.5 516.5,-719.5 516.5,-531.5 229.5,-531.5"/>
</g>
<!-- public.post -->
<g id="node2" class="node">
<title>public.post</title>
<polygon fill="#efefef" stroke="transparent" points="219,-372.5 219,-407.5 526,-407.5 526,-372.5 219,-372.5"/>
<polygon fill="none" stroke="#000000" points="219,-372.5 219,-407.5 526,-407.5 526,-372.5 219,-372.5"/>
<text text-anchor="start" x="265.7041" y="-385.3" font-family="Arial Bold" font-size="18.00" fill="#000000">public.post</text>
<text text-anchor="start" x="351.7279" y="-385.3" font-family="Arial" font-size="14.00" fill="#000000">    </text>
<text text-anchor="start" x="385.9327" y="-385.3" font-family="Arial" font-size="14.00" fill="#666666">[BASE TABLE]</text>
<polygon fill="none" stroke="#000000" points="219,-342.5 219,-372.5 526,-372.5 526,-342.5 219,-342.5"/>
<text text-anchor="start" x="226" y="-353.9" font-family="Arial" font-size="14.00" fill="#000000">id    </text>
<text text-anchor="start" x="271.094" y="-353.9" font-family="Arial" font-size="14.00" fill="#666666">[uuid]</text>
<polygon fill="none" stroke="#000000" points="219,-312.5 219,-342.5 526,-342.5 526,-312.5 219,-312.5"/>
<text text-anchor="start" x="226" y="-323.9" font-family="Arial" font-size="14.00" fill="#000000">name    </text>
<text text-anchor="start" x="295.2132" y="-323.9" font-family="Arial" font-size="14.00" fill="#666666">[text]</text>
<polygon fill="none" stroke="#000000" points="219,-282.5 219,-312.5 526,-312.5 526,-282.5 219,-282.5"/>
<text text-anchor="start" x="226" y="-293.9" font-family="Arial" font-size="14.00" fill="#000000">description    </text>
<text text-anchor="start" x="327.8822" y="-293.9" font-family="Arial" font-size="14.00" fill="#666666">[text]</text>
<polygon fill="none" stroke="#000000" points="219,-252.5 219,-282.5 526,-282.5 526,-252.5 219,-252.5"/>
<text text-anchor="start" x="226" y="-263.9" font-family="Arial" font-size="14.00" fill="#000000">alt_text    </text>
<text text-anchor="start" x="305.331" y="-263.9" font-family="Arial" font-size="14.00" fill="#666666">[text]</text>
<polygon fill="none" stroke="#000000" points="219,-222.5 219,-252.5 526,-252.5 526,-222.5 219,-222.5"/>
<text text-anchor="start" x="226" y="-233.9" font-family="Arial" font-size="14.00" fill="#000000">created_by    </text>
<text text-anchor="start" x="329.4516" y="-233.9" font-family="Arial" font-size="14.00" fill="#666666">[uuid]</text>
<polygon fill="none" stroke="#000000" points="219,-192.5 219,-222.5 526,-222.5 526,-192.5 219,-192.5"/>
<text text-anchor="start" x="226" y="-203.9" font-family="Arial" font-size="14.00" fill="#000000">channel_id    </text>
<text text-anchor="start" x="327.8962" y="-203.9" font-family="Arial" font-size="14.00" fill="#666666">[uuid]</text>
<polygon fill="none" stroke="#000000" points="219,-162.5 219,-192.5 526,-192.5 526,-162.5 219,-162.5"/>
<text text-anchor="start" x="226" y="-173.9" font-family="Arial" font-size="14.00" fill="#000000">video_id    </text>
<text text-anchor="start" x="312.331" y="-173.9" font-family="Arial" font-size="14.00" fill="#666666">[text]</text>
<polygon fill="none" stroke="#000000" points="219,-132.5 219,-162.5 526,-162.5 526,-132.5 219,-132.5"/>
<text text-anchor="start" x="226" y="-143.9" font-family="Arial" font-size="14.00" fill="#000000">created_on    </text>
<text text-anchor="start" x="330.2342" y="-143.9" font-family="Arial" font-size="14.00" fill="#666666">[timestamp without time zone]</text>
<polygon fill="none" stroke="#000000" points="219,-102.5 219,-132.5 526,-132.5 526,-102.5 219,-102.5"/>
<text text-anchor="start" x="225.8605" y="-113.9" font-family="Arial" font-size="14.00" fill="#000000">updated_on    </text>
<text text-anchor="start" x="333.9993" y="-113.9" font-family="Arial" font-size="14.00" fill="#666666">[timestamp without time zone]</text>
<polygon fill="none" stroke="#000000" points="219,-72.5 219,-102.5 526,-102.5 526,-72.5 219,-72.5"/>
<text text-anchor="start" x="226" y="-83.9" font-family="Arial" font-size="14.00" fill="#000000">upvotes    </text>
<text text-anchor="start" x="309.2258" y="-83.9" font-family="Arial" font-size="14.00" fill="#666666">[integer]</text>
<polygon fill="none" stroke="#000000" points="219,-42.5 219,-72.5 526,-72.5 526,-42.5 219,-42.5"/>
<text text-anchor="start" x="226" y="-53.9" font-family="Arial" font-size="14.00" fill="#000000">downvotes    </text>
<text text-anchor="start" x="327.115" y="-53.9" font-family="Arial" font-size="14.00" fill="#666666">[integer]</text>
</g>
<!-- public.post_report&#45;&gt;public.post -->
<g id="edge1" class="edge">
<title>public.post_report:post_id&#45;&gt;public.post:id</title>
<path fill="none" stroke="#000000" d="M220.8174,-636.6237C166.6425,-626.6672 189.0844,-534.3416 231,-487 318.5579,-388.1075 438.4421,-549.8925 526,-451 553.5471,-419.8869 567.5556,-357.5 526,-357.5"/>
<polygon fill="#000000" stroke="#000000" points="221.0368,-636.6425 230.6141,-641.9834 226.0184,-637.0712 231,-637.5 231,-637.5 231,-637.5 226.0184,-637.0712 231.3859,-633.0166 221.0368,-636.6425 221.0368,-636.6425"/>
<text text-anchor="start" x="7.3845" y="-647.5" font-family="Arial" font-size="10.00" fill="#000000">FOREIGN KEY (post_id) REFERENCES post(id)</text>
</g>
</g>
</svg>
