<?xml version="1.0" encoding="UTF-8" standalone="no"?>
<!DOCTYPE svg PUBLIC "-//W3C//DTD SVG 1.1//EN"
 "http://www.w3.org/Graphics/SVG/1.1/DTD/svg11.dtd">
<!-- Generated by graphviz version 2.40.1 (20161225.0304)
 -->
<!-- Title: public.post_tag Pages: 1 -->
<svg width="806pt" height="712pt"
 viewBox="0.00 0.00 805.50 712.00" xmlns="http://www.w3.org/2000/svg" xmlns:xlink="http://www.w3.org/1999/xlink">
<g id="graph0" class="graph" transform="scale(1 1) rotate(0) translate(4 708)">
<title>public.post_tag</title>
<polygon fill="#ffffff" stroke="transparent" points="-4,4 -4,-708 801.5,-708 801.5,4 -4,4"/>
<!-- public.post_tag -->
<g id="node1" class="node">
<title>public.post_tag</title>
<polygon fill="#efefef" stroke="transparent" points="269.5,-622.5 269.5,-657.5 531.5,-657.5 531.5,-622.5 269.5,-622.5"/>
<polygon fill="none" stroke="#000000" points="269.5,-622.5 269.5,-657.5 531.5,-657.5 531.5,-622.5 269.5,-622.5"/>
<text text-anchor="start" x="276.1937" y="-635.3" font-family="Arial Bold" font-size="18.00" fill="#000000">public.post_tag</text>
<text text-anchor="start" x="397.2383" y="-635.3" font-family="Arial" font-size="14.00" fill="#000000">    </text>
<text text-anchor="start" x="431.4431" y="-635.3" font-family="Arial" font-size="14.00" fill="#666666">[BASE TABLE]</text>
<polygon fill="none" stroke="#000000" points="269.5,-592.5 269.5,-622.5 531.5,-622.5 531.5,-592.5 269.5,-592.5"/>
<text text-anchor="start" x="276.5" y="-603.9" font-family="Arial" font-size="14.00" fill="#000000">id </text>
<text text-anchor="start" x="291.2798" y="-603.9" font-family="Arial" font-size="14.00" fill="#666666">[uuid]</text>
<polygon fill="none" stroke="#000000" points="269.5,-562.5 269.5,-592.5 531.5,-592.5 531.5,-562.5 269.5,-562.5"/>
<text text-anchor="start" x="276.5" y="-573.9" font-family="Arial" font-size="14.00" fill="#000000">post_id </text>
<text text-anchor="start" x="325.5182" y="-573.9" font-family="Arial" font-size="14.00" fill="#666666">[uuid]</text>
<polygon fill="none" stroke="#000000" points="269.5,-532.5 269.5,-562.5 531.5,-562.5 531.5,-532.5 269.5,-532.5"/>
<text text-anchor="start" x="276.5" y="-543.9" font-family="Arial" font-size="14.00" fill="#000000">tag_id </text>
<text text-anchor="start" x="318.5182" y="-543.9" font-family="Arial" font-size="14.00" fill="#666666">[uuid]</text>
<polygon fill="none" stroke="#000000" stroke-width="3" points="268,-531.5 268,-659.5 533,-659.5 533,-531.5 268,-531.5"/>
</g>
<!-- public.post -->
<g id="node2" class="node">
<title>public.post</title>
<polygon fill="#efefef" stroke="transparent" points="43.5,-372.5 43.5,-407.5 350.5,-407.5 350.5,-372.5 43.5,-372.5"/>
<polygon fill="none" stroke="#000000" points="43.5,-372.5 43.5,-407.5 350.5,-407.5 350.5,-372.5 43.5,-372.5"/>
<text text-anchor="start" x="90.2041" y="-385.3" font-family="Arial Bold" font-size="18.00" fill="#000000">public.post</text>
<text text-anchor="start" x="176.2279" y="-385.3" font-family="Arial" font-size="14.00" fill="#000000">    </text>
<text text-anchor="start" x="210.4327" y="-385.3" font-family="Arial" font-size="14.00" fill="#666666">[BASE TABLE]</text>
<polygon fill="none" stroke="#000000" points="43.5,-342.5 43.5,-372.5 350.5,-372.5 350.5,-342.5 43.5,-342.5"/>
<text text-anchor="start" x="50.5" y="-353.9" font-family="Arial" font-size="14.00" fill="#000000">id    </text>
<text text-anchor="start" x="95.594" y="-353.9" font-family="Arial" font-size="14.00" fill="#666666">[uuid]</text>
<polygon fill="none" stroke="#000000" points="43.5,-312.5 43.5,-342.5 350.5,-342.5 350.5,-312.5 43.5,-312.5"/>
<text text-anchor="start" x="50.5" y="-323.9" font-family="Arial" font-size="14.00" fill="#000000">name    </text>
<text text-anchor="start" x="119.7132" y="-323.9" font-family="Arial" font-size="14.00" fill="#666666">[text]</text>
<polygon fill="none" stroke="#000000" points="43.5,-282.5 43.5,-312.5 350.5,-312.5 350.5,-282.5 43.5,-282.5"/>
<text text-anchor="start" x="50.5" y="-293.9" font-family="Arial" font-size="14.00" fill="#000000">description    </text>
<text text-anchor="start" x="152.3822" y="-293.9" font-family="Arial" font-size="14.00" fill="#666666">[text]</text>
<polygon fill="none" stroke="#000000" points="43.5,-252.5 43.5,-282.5 350.5,-282.5 350.5,-252.5 43.5,-252.5"/>
<text text-anchor="start" x="50.5" y="-263.9" font-family="Arial" font-size="14.00" fill="#000000">alt_text    </text>
<text text-anchor="start" x="129.831" y="-263.9" font-family="Arial" font-size="14.00" fill="#666666">[text]</text>
<polygon fill="none" stroke="#000000" points="43.5,-222.5 43.5,-252.5 350.5,-252.5 350.5,-222.5 43.5,-222.5"/>
<text text-anchor="start" x="50.5" y="-233.9" font-family="Arial" font-size="14.00" fill="#000000">created_by    </text>
<text text-anchor="start" x="153.9516" y="-233.9" font-family="Arial" font-size="14.00" fill="#666666">[uuid]</text>
<polygon fill="none" stroke="#000000" points="43.5,-192.5 43.5,-222.5 350.5,-222.5 350.5,-192.5 43.5,-192.5"/>
<text text-anchor="start" x="50.5" y="-203.9" font-family="Arial" font-size="14.00" fill="#000000">channel_id    </text>
<text text-anchor="start" x="152.3962" y="-203.9" font-family="Arial" font-size="14.00" fill="#666666">[uuid]</text>
<polygon fill="none" stroke="#000000" points="43.5,-162.5 43.5,-192.5 350.5,-192.5 350.5,-162.5 43.5,-162.5"/>
<text text-anchor="start" x="50.5" y="-173.9" font-family="Arial" font-size="14.00" fill="#000000">video_id    </text>
<text text-anchor="start" x="136.831" y="-173.9" font-family="Arial" font-size="14.00" fill="#666666">[text]</text>
<polygon fill="none" stroke="#000000" points="43.5,-132.5 43.5,-162.5 350.5,-162.5 350.5,-132.5 43.5,-132.5"/>
<text text-anchor="start" x="50.5" y="-143.9" font-family="Arial" font-size="14.00" fill="#000000">created_on    </text>
<text text-anchor="start" x="154.7342" y="-143.9" font-family="Arial" font-size="14.00" fill="#666666">[timestamp without time zone]</text>
<polygon fill="none" stroke="#000000" points="43.5,-102.5 43.5,-132.5 350.5,-132.5 350.5,-102.5 43.5,-102.5"/>
<text text-anchor="start" x="50.3605" y="-113.9" font-family="Arial" font-size="14.00" fill="#000000">updated_on    </text>
<text text-anchor="start" x="158.4993" y="-113.9" font-family="Arial" font-size="14.00" fill="#666666">[timestamp without time zone]</text>
<polygon fill="none" stroke="#000000" points="43.5,-72.5 43.5,-102.5 350.5,-102.5 350.5,-72.5 43.5,-72.5"/>
<text text-anchor="start" x="50.5" y="-83.9" font-family="Arial" font-size="14.00" fill="#000000">upvotes    </text>
<text text-anchor="start" x="133.7258" y="-83.9" font-family="Arial" font-size="14.00" fill="#666666">[integer]</text>
<polygon fill="none" stroke="#000000" points="43.5,-42.5 43.5,-72.5 350.5,-72.5 350.5,-42.5 43.5,-42.5"/>
<text text-anchor="start" x="50.5" y="-53.9" font-family="Arial" font-size="14.00" fill="#000000">downvotes    </text>
<text text-anchor="start" x="151.615" y="-53.9" font-family="Arial" font-size="14.00" fill="#666666">[integer]</text>
</g>
<!-- public.post_tag&#45;&gt;public.post -->
<g id="edge1" class="edge">
<title>public.post_tag:post_id&#45;&gt;public.post:id</title>
<path fill="none" stroke="#000000" d="M259.3395,-575.95C232.8873,-566.6311 249.7228,-517.4325 269.5,-487 290.9671,-453.9672 329.0329,-484.0328 350.5,-451 373.1442,-416.156 392.0556,-357.5 350.5,-357.5"/>
<polygon fill="#000000" stroke="#000000" points="259.6144,-575.9919 268.8213,-581.9485 264.5572,-576.7459 269.5,-577.5 269.5,-577.5 269.5,-577.5 264.5572,-576.7459 270.1787,-573.0515 259.6144,-575.9919 259.6144,-575.9919"/>
<text text-anchor="start" x="45.8845" y="-587.5" font-family="Arial" font-size="10.00" fill="#000000">FOREIGN KEY (post_id) REFERENCES post(id)</text>
</g>
<!-- public.channel_tags -->
<g id="node3" class="node">
<title>public.channel_tags</title>
<polygon fill="#efefef" stroke="transparent" points="454.5,-267.5 454.5,-302.5 754.5,-302.5 754.5,-267.5 454.5,-267.5"/>
<polygon fill="none" stroke="#000000" points="454.5,-267.5 454.5,-302.5 754.5,-302.5 754.5,-267.5 454.5,-267.5"/>
<text text-anchor="start" x="461.1884" y="-280.3" font-family="Arial Bold" font-size="18.00" fill="#000000">public.channel_tags</text>
<text text-anchor="start" x="620.2436" y="-280.3" font-family="Arial" font-size="14.00" fill="#000000">    </text>
<text text-anchor="start" x="654.4484" y="-280.3" font-family="Arial" font-size="14.00" fill="#666666">[BASE TABLE]</text>
<polygon fill="none" stroke="#000000" points="454.5,-237.5 454.5,-267.5 754.5,-267.5 754.5,-237.5 454.5,-237.5"/>
<text text-anchor="start" x="461.5" y="-248.9" font-family="Arial" font-size="14.00" fill="#000000">id    </text>
<text text-anchor="start" x="506.594" y="-248.9" font-family="Arial" font-size="14.00" fill="#666666">[uuid]</text>
<polygon fill="none" stroke="#000000" points="454.5,-207.5 454.5,-237.5 754.5,-237.5 754.5,-207.5 454.5,-207.5"/>
<text text-anchor="start" x="461.5" y="-218.9" font-family="Arial" font-size="14.00" fill="#000000">channel_id    </text>
<text text-anchor="start" x="563.3962" y="-218.9" font-family="Arial" font-size="14.00" fill="#666666">[uuid]</text>
<polygon fill="none" stroke="#000000" points="454.5,-177.5 454.5,-207.5 754.5,-207.5 754.5,-177.5 454.5,-177.5"/>
<text text-anchor="start" x="461.5" y="-188.9" font-family="Arial" font-size="14.00" fill="#000000">name    </text>
<text text-anchor="start" x="530.7132" y="-188.9" font-family="Arial" font-size="14.00" fill="#666666">[varchar(16)]</text>
<polygon fill="none" stroke="#000000" points="454.5,-147.5 454.5,-177.5 754.5,-177.5 754.5,-147.5 454.5,-147.5"/>
<text text-anchor="start" x="461.5" y="-158.9" font-family="Arial" font-size="14.00" fill="#000000">color    </text>
<text text-anchor="start" x="526.0372" y="-158.9" font-family="Arial" font-size="14.00" fill="#666666">[varchar(16)]</text>
</g>
<!-- public.post_tag&#45;&gt;public.channel_tags -->
<g id="edge2" class="edge">
<title>public.post_tag:tag_id&#45;&gt;public.channel_tags:id</title>
<path fill="none" stroke="#000000" d="M541.197,-544.9076C552.1139,-536.4232 537.0593,-508.7791 531.5,-487 504.3688,-380.7111 344.803,-252.5 454.5,-252.5"/>
<polygon fill="#000000" stroke="#000000" points="541.1607,-544.9173 530.3378,-543.1527 536.3304,-546.2086 531.5,-547.5 531.5,-547.5 531.5,-547.5 536.3304,-546.2086 532.6622,-551.8473 541.1607,-544.9173 541.1607,-544.9173"/>
<text text-anchor="start" x="538.098" y="-557.5" font-family="Arial" font-size="10.00" fill="#000000">FOREIGN KEY (tag_id) REFERENCES channel_tags(id)</text>
</g>
</g>
</svg>
