<?xml version="1.0" encoding="UTF-8" standalone="no"?>
<!DOCTYPE svg PUBLIC "-//W3C//DTD SVG 1.1//EN"
 "http://www.w3.org/Graphics/SVG/1.1/DTD/svg11.dtd">
<!-- Generated by graphviz version 2.40.1 (20161225.0304)
 -->
<!-- Title: public.subscription Pages: 1 -->
<svg width="818pt" height="712pt"
 viewBox="0.00 0.00 817.50 712.00" xmlns="http://www.w3.org/2000/svg" xmlns:xlink="http://www.w3.org/1999/xlink">
<g id="graph0" class="graph" transform="scale(1 1) rotate(0) translate(4 708)">
<title>public.subscription</title>
<polygon fill="#ffffff" stroke="transparent" points="-4,4 -4,-708 813.5,-708 813.5,4 -4,4"/>
<!-- public.subscription -->
<g id="node1" class="node">
<title>public.subscription</title>
<polygon fill="#efefef" stroke="transparent" points="263,-622.5 263,-657.5 552,-657.5 552,-622.5 263,-622.5"/>
<polygon fill="none" stroke="#000000" points="263,-622.5 263,-657.5 552,-657.5 552,-622.5 263,-622.5"/>
<text text-anchor="start" x="269.7045" y="-635.3" font-family="Arial Bold" font-size="18.00" fill="#000000">public.subscription</text>
<text text-anchor="start" x="417.7275" y="-635.3" font-family="Arial" font-size="14.00" fill="#000000">    </text>
<text text-anchor="start" x="451.9323" y="-635.3" font-family="Arial" font-size="14.00" fill="#666666">[BASE TABLE]</text>
<polygon fill="none" stroke="#000000" points="263,-592.5 263,-622.5 552,-622.5 552,-592.5 263,-592.5"/>
<text text-anchor="start" x="270" y="-603.9" font-family="Arial" font-size="14.00" fill="#000000">id </text>
<text text-anchor="start" x="284.7798" y="-603.9" font-family="Arial" font-size="14.00" fill="#666666">[uuid]</text>
<polygon fill="none" stroke="#000000" points="263,-562.5 263,-592.5 552,-592.5 552,-562.5 263,-562.5"/>
<text text-anchor="start" x="270" y="-573.9" font-family="Arial" font-size="14.00" fill="#000000">channel_id </text>
<text text-anchor="start" x="341.582" y="-573.9" font-family="Arial" font-size="14.00" fill="#666666">[uuid]</text>
<polygon fill="none" stroke="#000000" points="263,-532.5 263,-562.5 552,-562.5 552,-532.5 263,-532.5"/>
<text text-anchor="start" x="270" y="-543.9" font-family="Arial" font-size="14.00" fill="#000000">user_id </text>
<text text-anchor="start" x="319.7882" y="-543.9" font-family="Arial" font-size="14.00" fill="#666666">[uuid]</text>
<polygon fill="none" stroke="#000000" stroke-width="3" points="261,-531.5 261,-659.5 553,-659.5 553,-531.5 261,-531.5"/>
</g>
<!-- public.channel -->
<g id="node2" class="node">
<title>public.channel</title>
<polygon fill="#efefef" stroke="transparent" points="49,-372.5 49,-407.5 356,-407.5 356,-372.5 49,-372.5"/>
<polygon fill="none" stroke="#000000" points="49,-372.5 49,-407.5 356,-407.5 356,-372.5 49,-372.5"/>
<text text-anchor="start" x="81.1988" y="-385.3" font-family="Arial Bold" font-size="18.00" fill="#000000">public.channel</text>
<text text-anchor="start" x="196.2332" y="-385.3" font-family="Arial" font-size="14.00" fill="#000000">    </text>
<text text-anchor="start" x="230.438" y="-385.3" font-family="Arial" font-size="14.00" fill="#666666">[BASE TABLE]</text>
<polygon fill="none" stroke="#000000" points="49,-342.5 49,-372.5 356,-372.5 356,-342.5 49,-342.5"/>
<text text-anchor="start" x="56" y="-353.9" font-family="Arial" font-size="14.00" fill="#000000">id    </text>
<text text-anchor="start" x="101.094" y="-353.9" font-family="Arial" font-size="14.00" fill="#666666">[uuid]</text>
<polygon fill="none" stroke="#000000" points="49,-312.5 49,-342.5 356,-342.5 356,-312.5 49,-312.5"/>
<text text-anchor="start" x="56" y="-323.9" font-family="Arial" font-size="14.00" fill="#000000">name    </text>
<text text-anchor="start" x="125.2132" y="-323.9" font-family="Arial" font-size="14.00" fill="#666666">[text]</text>
<polygon fill="none" stroke="#000000" points="49,-282.5 49,-312.5 356,-312.5 356,-282.5 49,-282.5"/>
<text text-anchor="start" x="56" y="-293.9" font-family="Arial" font-size="14.00" fill="#000000">description    </text>
<text text-anchor="start" x="157.8822" y="-293.9" font-family="Arial" font-size="14.00" fill="#666666">[text]</text>
<polygon fill="none" stroke="#000000" points="49,-252.5 49,-282.5 356,-282.5 356,-252.5 49,-252.5"/>
<text text-anchor="start" x="56" y="-263.9" font-family="Arial" font-size="14.00" fill="#000000">guidelines    </text>
<text text-anchor="start" x="153.2202" y="-263.9" font-family="Arial" font-size="14.00" fill="#666666">[text]</text>
<polygon fill="none" stroke="#000000" points="49,-222.5 49,-252.5 356,-252.5 356,-222.5 49,-222.5"/>
<text text-anchor="start" x="56" y="-233.9" font-family="Arial" font-size="14.00" fill="#000000">created_by    </text>
<text text-anchor="start" x="159.4516" y="-233.9" font-family="Arial" font-size="14.00" fill="#666666">[uuid]</text>
<polygon fill="none" stroke="#000000" points="49,-192.5 49,-222.5 356,-222.5 356,-192.5 49,-192.5"/>
<text text-anchor="start" x="56" y="-203.9" font-family="Arial" font-size="14.00" fill="#000000">banner_image    </text>
<text text-anchor="start" x="179.676" y="-203.9" font-family="Arial" font-size="14.00" fill="#666666">[text]</text>
<polygon fill="none" stroke="#000000" points="49,-162.5 49,-192.5 356,-192.5 356,-162.5 49,-162.5"/>
<text text-anchor="start" x="56" y="-173.9" font-family="Arial" font-size="14.00" fill="#000000">icon    </text>
<text text-anchor="start" x="115.8766" y="-173.9" font-family="Arial" font-size="14.00" fill="#666666">[text]</text>
<polygon fill="none" stroke="#000000" points="49,-132.5 49,-162.5 356,-162.5 356,-132.5 49,-132.5"/>
<text text-anchor="start" x="56" y="-143.9" font-family="Arial" font-size="14.00" fill="#000000">created_on    </text>
<text text-anchor="start" x="160.2342" y="-143.9" font-family="Arial" font-size="14.00" fill="#666666">[timestamp without time zone]</text>
<polygon fill="none" stroke="#000000" points="49,-102.5 49,-132.5 356,-132.5 356,-102.5 49,-102.5"/>
<text text-anchor="start" x="55.8605" y="-113.9" font-family="Arial" font-size="14.00" fill="#000000">updated_on    </text>
<text text-anchor="start" x="163.9993" y="-113.9" font-family="Arial" font-size="14.00" fill="#666666">[timestamp without time zone]</text>
<polygon fill="none" stroke="#000000" points="49,-72.5 49,-102.5 356,-102.5 356,-72.5 49,-72.5"/>
<text text-anchor="start" x="56" y="-83.9" font-family="Arial" font-size="14.00" fill="#000000">subscribers    </text>
<text text-anchor="start" x="161.763" y="-83.9" font-family="Arial" font-size="14.00" fill="#666666">[integer]</text>
<polygon fill="none" stroke="#000000" points="49,-42.5 49,-72.5 356,-72.5 356,-42.5 49,-42.5"/>
<text text-anchor="start" x="56" y="-53.9" font-family="Arial" font-size="14.00" fill="#000000">posts    </text>
<text text-anchor="start" x="123.6606" y="-53.9" font-family="Arial" font-size="14.00" fill="#666666">[integer]</text>
</g>
<!-- public.subscription&#45;&gt;public.channel -->
<g id="edge1" class="edge">
<title>public.subscription:channel_id&#45;&gt;public.channel:id</title>
<path fill="none" stroke="#000000" d="M252.8184,-575.9359C226.2432,-566.5349 242.4848,-516.94 263,-487 288.0529,-450.4377 330.9471,-487.5623 356,-451 379.4891,-416.7199 397.5556,-357.5 356,-357.5"/>
<polygon fill="#000000" stroke="#000000" points="253.1159,-575.9816 262.3167,-581.9478 258.058,-576.7408 263,-577.5 263,-577.5 263,-577.5 258.058,-576.7408 263.6833,-573.0522 253.1159,-575.9816 253.1159,-575.9816"/>
<text text-anchor="start" x="7.2675" y="-587.5" font-family="Arial" font-size="10.00" fill="#000000">FOREIGN KEY (channel_id) REFERENCES channel(id)</text>
</g>
<!-- public.user -->
<g id="node3" class="node">
<title>public.user</title>
<polygon fill="#efefef" stroke="transparent" points="460,-357.5 460,-392.5 767,-392.5 767,-357.5 460,-357.5"/>
<polygon fill="none" stroke="#000000" points="460,-357.5 460,-392.5 767,-392.5 767,-357.5 460,-357.5"/>
<text text-anchor="start" x="506.2091" y="-370.3" font-family="Arial Bold" font-size="18.00" fill="#000000">public.user</text>
<text text-anchor="start" x="593.2229" y="-370.3" font-family="Arial" font-size="14.00" fill="#000000">    </text>
<text text-anchor="start" x="627.4277" y="-370.3" font-family="Arial" font-size="14.00" fill="#666666">[BASE TABLE]</text>
<polygon fill="none" stroke="#000000" points="460,-327.5 460,-357.5 767,-357.5 767,-327.5 460,-327.5"/>
<text text-anchor="start" x="467" y="-338.9" font-family="Arial" font-size="14.00" fill="#000000">id    </text>
<text text-anchor="start" x="512.094" y="-338.9" font-family="Arial" font-size="14.00" fill="#666666">[uuid]</text>
<polygon fill="none" stroke="#000000" points="460,-297.5 460,-327.5 767,-327.5 767,-297.5 460,-297.5"/>
<text text-anchor="start" x="467" y="-308.9" font-family="Arial" font-size="14.00" fill="#000000">username    </text>
<text text-anchor="start" x="563.439" y="-308.9" font-family="Arial" font-size="14.00" fill="#666666">[varchar(25)]</text>
<polygon fill="none" stroke="#000000" points="460,-267.5 460,-297.5 767,-297.5 767,-267.5 460,-267.5"/>
<text text-anchor="start" x="467" y="-278.9" font-family="Arial" font-size="14.00" fill="#000000">profile_image    </text>
<text text-anchor="start" x="585.2146" y="-278.9" font-family="Arial" font-size="14.00" fill="#666666">[text]</text>
<polygon fill="none" stroke="#000000" points="460,-237.5 460,-267.5 767,-267.5 767,-237.5 460,-237.5"/>
<text text-anchor="start" x="467" y="-248.9" font-family="Arial" font-size="14.00" fill="#000000">role    </text>
<text text-anchor="start" x="524.5372" y="-248.9" font-family="Arial" font-size="14.00" fill="#666666">[site_role]</text>
<polygon fill="none" stroke="#000000" points="460,-207.5 460,-237.5 767,-237.5 767,-207.5 460,-207.5"/>
<text text-anchor="start" x="467" y="-218.9" font-family="Arial" font-size="14.00" fill="#000000">created_on    </text>
<text text-anchor="start" x="571.2342" y="-218.9" font-family="Arial" font-size="14.00" fill="#666666">[timestamp without time zone]</text>
<polygon fill="none" stroke="#000000" points="460,-177.5 460,-207.5 767,-207.5 767,-177.5 460,-177.5"/>
<text text-anchor="start" x="466.8605" y="-188.9" font-family="Arial" font-size="14.00" fill="#000000">updated_on    </text>
<text text-anchor="start" x="574.9993" y="-188.9" font-family="Arial" font-size="14.00" fill="#666666">[timestamp without time zone]</text>
<polygon fill="none" stroke="#000000" points="460,-147.5 460,-177.5 767,-177.5 767,-147.5 460,-147.5"/>
<text text-anchor="start" x="467" y="-158.9" font-family="Arial" font-size="14.00" fill="#000000">discord_id    </text>
<text text-anchor="start" x="564.9916" y="-158.9" font-family="Arial" font-size="14.00" fill="#666666">[bigint]</text>
<polygon fill="none" stroke="#000000" points="460,-117.5 460,-147.5 767,-147.5 767,-117.5 460,-117.5"/>
<text text-anchor="start" x="467" y="-128.9" font-family="Arial" font-size="14.00" fill="#000000">github_id    </text>
<text text-anchor="start" x="558.0042" y="-128.9" font-family="Arial" font-size="14.00" fill="#666666">[integer]</text>
<polygon fill="none" stroke="#000000" points="460,-87.5 460,-117.5 767,-117.5 767,-87.5 460,-87.5"/>
<text text-anchor="start" x="467" y="-98.9" font-family="Arial" font-size="14.00" fill="#000000">followers    </text>
<text text-anchor="start" x="556.4236" y="-98.9" font-family="Arial" font-size="14.00" fill="#666666">[integer]</text>
<polygon fill="none" stroke="#000000" points="460,-57.5 460,-87.5 767,-87.5 767,-57.5 460,-57.5"/>
<text text-anchor="start" x="467" y="-68.9" font-family="Arial" font-size="14.00" fill="#000000">following    </text>
<text text-anchor="start" x="555.6522" y="-68.9" font-family="Arial" font-size="14.00" fill="#666666">[integer]</text>
</g>
<!-- public.subscription&#45;&gt;public.user -->
<g id="edge2" class="edge">
<title>public.subscription:user_id&#45;&gt;public.user:id</title>
<path fill="none" stroke="#000000" d="M561.8164,-544.9622C574.7409,-536.1797 563.5145,-506.5484 552,-487 528.2725,-446.7174 483.7275,-476.2826 460,-436 438.9095,-400.1942 418.4444,-342.5 460,-342.5"/>
<polygon fill="#000000" stroke="#000000" points="561.6817,-544.997 550.8736,-543.1432 556.8408,-546.2485 552,-547.5 552,-547.5 552,-547.5 556.8408,-546.2485 553.1264,-551.8568 561.6817,-544.997 561.6817,-544.997"/>
<text text-anchor="start" x="559.2855" y="-557.5" font-family="Arial" font-size="10.00" fill="#000000">FOREIGN KEY (user_id) REFERENCES &quot;user&quot;(id)</text>
</g>
</g>
</svg>
