<?xml version="1.0" encoding="UTF-8" standalone="no"?>
<!DOCTYPE svg PUBLIC "-//W3C//DTD SVG 1.1//EN"
 "http://www.w3.org/Graphics/SVG/1.1/DTD/svg11.dtd">
<!-- Generated by graphviz version 12.1.2 (20240928.0832)
 -->
<!-- Title: public.invite Pages: 1 -->
<svg width="1123pt" height="1341pt"
 viewBox="0.00 0.00 1123.02 1341.20" xmlns="http://www.w3.org/2000/svg" xmlns:xlink="http://www.w3.org/1999/xlink">
<g id="graph0" class="graph" transform="scale(1 1) rotate(0) translate(4 1337.2)">
<title>public.invite</title>
<polygon fill="white" stroke="none" points="-4,4 -4,-1337.2 1119.02,-1337.2 1119.02,4 -4,4"/>
<!-- public.invite -->
<g id="node1" class="node">
<title>public.invite</title>
<polygon fill="#efefef" stroke="none" points="426.16,-1251.4 426.16,-1287 699.28,-1287 699.28,-1251.4 426.16,-1251.4"/>
<polygon fill="none" stroke="black" points="426.16,-1251.4 426.16,-1287 699.28,-1287 699.28,-1251.4 426.16,-1251.4"/>
<text text-anchor="start" x="455.23" y="-1264.8" font-family="Arial Bold" font-size="18.00">public.invite</text>
<text text-anchor="start" x="545.72" y="-1264.8" font-family="Arial" font-size="14.00">    </text>
<text text-anchor="start" x="576.83" y="-1264.8" font-family="Arial" font-size="14.00" fill="#666666">[BASE TABLE]</text>
<polygon fill="none" stroke="black" points="426.16,-1220.6 426.16,-1251.4 699.28,-1251.4 699.28,-1220.6 426.16,-1220.6"/>
<text text-anchor="start" x="433.16" y="-1232.8" font-family="Arial" font-size="14.00">channel_id </text>
<text text-anchor="start" x="504.77" y="-1232.8" font-family="Arial" font-size="14.00" fill="#666666">[uuid]</text>
<polygon fill="none" stroke="black" points="426.16,-1189.8 426.16,-1220.6 699.28,-1220.6 699.28,-1189.8 426.16,-1189.8"/>
<text text-anchor="start" x="433.16" y="-1202" font-family="Arial" font-size="14.00">user_id </text>
<text text-anchor="start" x="482.96" y="-1202" font-family="Arial" font-size="14.00" fill="#666666">[uuid]</text>
<polygon fill="none" stroke="black" points="426.16,-1159 426.16,-1189.8 699.28,-1189.8 699.28,-1159 426.16,-1159"/>
<text text-anchor="start" x="433.16" y="-1171.2" font-family="Arial" font-size="14.00">created_on </text>
<text text-anchor="start" x="507.1" y="-1171.2" font-family="Arial" font-size="14.00" fill="#666666">[timestamp without time zone]</text>
<polygon fill="none" stroke="black" points="426.16,-1128.2 426.16,-1159 699.28,-1159 699.28,-1128.2 426.16,-1128.2"/>
<text text-anchor="start" x="433.16" y="-1140.4" font-family="Arial" font-size="14.00">role_id </text>
<text text-anchor="start" x="479.07" y="-1140.4" font-family="Arial" font-size="14.00" fill="#666666">[uuid]</text>
<polygon fill="none" stroke="black" stroke-width="3" points="424.66,-1126.7 424.66,-1288.5 700.78,-1288.5 700.78,-1126.7 424.66,-1126.7"/>
</g>
<!-- public.channel -->
<g id="node2" class="node">
<title>public.channel</title>
<polygon fill="#efefef" stroke="none" points="43.2,-674.6 43.2,-710.2 320.24,-710.2 320.24,-674.6 43.2,-674.6"/>
<polygon fill="none" stroke="black" points="43.2,-674.6 43.2,-710.2 320.24,-710.2 320.24,-674.6 43.2,-674.6"/>
<text text-anchor="start" x="66.75" y="-688" font-family="Arial Bold" font-size="18.00">public.channel</text>
<text text-anchor="start" x="172.21" y="-688" font-family="Arial" font-size="14.00">    </text>
<text text-anchor="start" x="203.32" y="-688" font-family="Arial" font-size="14.00" fill="#666666">[BASE TABLE]</text>
<polygon fill="none" stroke="black" points="43.2,-643.8 43.2,-674.6 320.24,-674.6 320.24,-643.8 43.2,-643.8"/>
<text text-anchor="start" x="50.2" y="-656" font-family="Arial" font-size="14.00">id </text>
<text text-anchor="start" x="64.99" y="-656" font-family="Arial" font-size="14.00" fill="#666666">[uuid]</text>
<polygon fill="none" stroke="black" points="43.2,-613 43.2,-643.8 320.24,-643.8 320.24,-613 43.2,-613"/>
<text text-anchor="start" x="50.2" y="-625.2" font-family="Arial" font-size="14.00">name </text>
<text text-anchor="start" x="89.11" y="-625.2" font-family="Arial" font-size="14.00" fill="#666666">[text]</text>
<polygon fill="none" stroke="black" points="43.2,-582.2 43.2,-613 320.24,-613 320.24,-582.2 43.2,-582.2"/>
<text text-anchor="start" x="50.2" y="-594.4" font-family="Arial" font-size="14.00">description </text>
<text text-anchor="start" x="121.79" y="-594.4" font-family="Arial" font-size="14.00" fill="#666666">[text]</text>
<polygon fill="none" stroke="black" points="43.2,-551.4 43.2,-582.2 320.24,-582.2 320.24,-551.4 43.2,-551.4"/>
<text text-anchor="start" x="50.2" y="-563.6" font-family="Arial" font-size="14.00">guidelines </text>
<text text-anchor="start" x="117.14" y="-563.6" font-family="Arial" font-size="14.00" fill="#666666">[text]</text>
<polygon fill="none" stroke="black" points="43.2,-520.6 43.2,-551.4 320.24,-551.4 320.24,-520.6 43.2,-520.6"/>
<text text-anchor="start" x="50.2" y="-532.8" font-family="Arial" font-size="14.00">created_by </text>
<text text-anchor="start" x="123.36" y="-532.8" font-family="Arial" font-size="14.00" fill="#666666">[uuid]</text>
<polygon fill="none" stroke="black" points="43.2,-489.8 43.2,-520.6 320.24,-520.6 320.24,-489.8 43.2,-489.8"/>
<text text-anchor="start" x="50.2" y="-502" font-family="Arial" font-size="14.00">banner_image </text>
<text text-anchor="start" x="143.6" y="-502" font-family="Arial" font-size="14.00" fill="#666666">[text]</text>
<polygon fill="none" stroke="black" points="43.2,-459 43.2,-489.8 320.24,-489.8 320.24,-459 43.2,-459"/>
<text text-anchor="start" x="50.2" y="-471.2" font-family="Arial" font-size="14.00">icon </text>
<text text-anchor="start" x="79.77" y="-471.2" font-family="Arial" font-size="14.00" fill="#666666">[text]</text>
<polygon fill="none" stroke="black" points="43.2,-428.2 43.2,-459 320.24,-459 320.24,-428.2 43.2,-428.2"/>
<text text-anchor="start" x="50.2" y="-440.4" font-family="Arial" font-size="14.00">created_on </text>
<text text-anchor="start" x="124.14" y="-440.4" font-family="Arial" font-size="14.00" fill="#666666">[timestamp without time zone]</text>
<polygon fill="none" stroke="black" points="43.2,-397.4 43.2,-428.2 320.24,-428.2 320.24,-397.4 43.2,-397.4"/>
<text text-anchor="start" x="50.2" y="-409.6" font-family="Arial" font-size="14.00">updated_on </text>
<text text-anchor="start" x="128.05" y="-409.6" font-family="Arial" font-size="14.00" fill="#666666">[timestamp without time zone]</text>
<polygon fill="none" stroke="black" points="43.2,-366.6 43.2,-397.4 320.24,-397.4 320.24,-366.6 43.2,-366.6"/>
<text text-anchor="start" x="50.2" y="-378.8" font-family="Arial" font-size="14.00">subscribers </text>
<text text-anchor="start" x="125.67" y="-378.8" font-family="Arial" font-size="14.00" fill="#666666">[integer]</text>
<polygon fill="none" stroke="black" points="43.2,-335.8 43.2,-366.6 320.24,-366.6 320.24,-335.8 43.2,-335.8"/>
<text text-anchor="start" x="50.2" y="-348" font-family="Arial" font-size="14.00">posts </text>
<text text-anchor="start" x="87.55" y="-348" font-family="Arial" font-size="14.00" fill="#666666">[integer]</text>
</g>
<!-- public.invite&#45;&gt;public.channel -->
<g id="edge1" class="edge">
<title>public.invite:channel_id&#45;&gt;public.channel:id</title>
<path fill="none" stroke="black" d="M415.05,-1235.48C341.57,-1227.49 388.59,-1128.41 371.72,-1046 363.03,-1003.54 364.58,-659.2 321.24,-659.2"/>
<polygon fill="black" stroke="black" points="414.83,-1235.47 424.59,-1240.48 420.16,-1235.74 424.49,-1235.97 424.49,-1235.97 424.49,-1235.97 420.16,-1235.74 425.05,-1231.49 414.83,-1235.47"/>
<text text-anchor="start" x="168.62" y="-1246" font-family="Arial" font-size="10.00">FOREIGN KEY (channel_id) REFERENCES channel(id)</text>
</g>
<!-- public.user -->
<g id="node3" class="node">
<title>public.user</title>
<polygon fill="#efefef" stroke="none" points="424.2,-659.2 424.2,-694.8 701.24,-694.8 701.24,-659.2 424.2,-659.2"/>
<polygon fill="none" stroke="black" points="424.2,-659.2 424.2,-694.8 701.24,-694.8 701.24,-659.2 424.2,-659.2"/>
<text text-anchor="start" x="460.74" y="-672.6" font-family="Arial Bold" font-size="18.00">public.user</text>
<text text-anchor="start" x="540.22" y="-672.6" font-family="Arial" font-size="14.00">    </text>
<text text-anchor="start" x="571.33" y="-672.6" font-family="Arial" font-size="14.00" fill="#666666">[BASE TABLE]</text>
<polygon fill="none" stroke="black" points="424.2,-628.4 424.2,-659.2 701.24,-659.2 701.24,-628.4 424.2,-628.4"/>
<text text-anchor="start" x="431.2" y="-640.6" font-family="Arial" font-size="14.00">id </text>
<text text-anchor="start" x="445.99" y="-640.6" font-family="Arial" font-size="14.00" fill="#666666">[uuid]</text>
<polygon fill="none" stroke="black" points="424.2,-597.6 424.2,-628.4 701.24,-628.4 701.24,-597.6 424.2,-597.6"/>
<text text-anchor="start" x="431.2" y="-609.8" font-family="Arial" font-size="14.00">username </text>
<text text-anchor="start" x="497.34" y="-609.8" font-family="Arial" font-size="14.00" fill="#666666">[varchar(25)]</text>
<polygon fill="none" stroke="black" points="424.2,-566.8 424.2,-597.6 701.24,-597.6 701.24,-566.8 424.2,-566.8"/>
<text text-anchor="start" x="431.2" y="-579" font-family="Arial" font-size="14.00">profile_image </text>
<text text-anchor="start" x="519.14" y="-579" font-family="Arial" font-size="14.00" fill="#666666">[text]</text>
<polygon fill="none" stroke="black" points="424.2,-536 424.2,-566.8 701.24,-566.8 701.24,-536 424.2,-536"/>
<text text-anchor="start" x="431.2" y="-548.2" font-family="Arial" font-size="14.00">role </text>
<text text-anchor="start" x="458.43" y="-548.2" font-family="Arial" font-size="14.00" fill="#666666">[site_role]</text>
<polygon fill="none" stroke="black" points="424.2,-505.2 424.2,-536 701.24,-536 701.24,-505.2 424.2,-505.2"/>
<text text-anchor="start" x="431.2" y="-517.4" font-family="Arial" font-size="14.00">created_on </text>
<text text-anchor="start" x="505.14" y="-517.4" font-family="Arial" font-size="14.00" fill="#666666">[timestamp without time zone]</text>
<polygon fill="none" stroke="black" points="424.2,-474.4 424.2,-505.2 701.24,-505.2 701.24,-474.4 424.2,-474.4"/>
<text text-anchor="start" x="431.2" y="-486.6" font-family="Arial" font-size="14.00">updated_on </text>
<text text-anchor="start" x="509.05" y="-486.6" font-family="Arial" font-size="14.00" fill="#666666">[timestamp without time zone]</text>
<polygon fill="none" stroke="black" points="424.2,-443.6 424.2,-474.4 701.24,-474.4 701.24,-443.6 424.2,-443.6"/>
<text text-anchor="start" x="431.2" y="-455.8" font-family="Arial" font-size="14.00">discord_id </text>
<text text-anchor="start" x="498.9" y="-455.8" font-family="Arial" font-size="14.00" fill="#666666">[bigint]</text>
<polygon fill="none" stroke="black" points="424.2,-412.8 424.2,-443.6 701.24,-443.6 701.24,-412.8 424.2,-412.8"/>
<text text-anchor="start" x="431.2" y="-425" font-family="Arial" font-size="14.00">github_id </text>
<text text-anchor="start" x="491.92" y="-425" font-family="Arial" font-size="14.00" fill="#666666">[integer]</text>
<polygon fill="none" stroke="black" points="424.2,-382 424.2,-412.8 701.24,-412.8 701.24,-382 424.2,-382"/>
<text text-anchor="start" x="431.2" y="-394.2" font-family="Arial" font-size="14.00">followers </text>
<text text-anchor="start" x="490.33" y="-394.2" font-family="Arial" font-size="14.00" fill="#666666">[integer]</text>
<polygon fill="none" stroke="black" points="424.2,-351.2 424.2,-382 701.24,-382 701.24,-351.2 424.2,-351.2"/>
<text text-anchor="start" x="431.2" y="-363.4" font-family="Arial" font-size="14.00">following </text>
<text text-anchor="start" x="489.57" y="-363.4" font-family="Arial" font-size="14.00" fill="#666666">[integer]</text>
</g>
<!-- public.invite&#45;&gt;public.user -->
<g id="edge2" class="edge">
<title>public.invite:user_id&#45;&gt;public.user:id</title>
<path fill="none" stroke="black" d="M709.65,-1200.68C762.69,-1147.55 761.33,-643.8 702.24,-643.8"/>
<polygon fill="black" stroke="black" points="709.59,-1200.71 698.63,-1201 704.79,-1203.03 700.89,-1204.91 700.89,-1204.91 700.89,-1204.91 704.79,-1203.03 702.54,-1209.11 709.59,-1200.71"/>
<text text-anchor="start" x="707.28" y="-1215.2" font-family="Arial" font-size="10.00">FOREIGN KEY (user_id) REFERENCES &quot;user&quot;(id)</text>
</g>
<!-- public.role -->
<g id="node4" class="node">
<title>public.role</title>
<polygon fill="#efefef" stroke="none" points="805.62,-967.2 805.62,-1002.8 1071.82,-1002.8 1071.82,-967.2 805.62,-967.2"/>
<polygon fill="none" stroke="black" points="805.62,-967.2 805.62,-1002.8 1071.82,-1002.8 1071.82,-967.2 805.62,-967.2"/>
<text text-anchor="start" x="837.74" y="-980.6" font-family="Arial Bold" font-size="18.00">public.role</text>
<text text-anchor="start" x="915.21" y="-980.6" font-family="Arial" font-size="14.00">    </text>
<text text-anchor="start" x="946.33" y="-980.6" font-family="Arial" font-size="14.00" fill="#666666">[BASE TABLE]</text>
<polygon fill="none" stroke="black" points="805.62,-936.4 805.62,-967.2 1071.82,-967.2 1071.82,-936.4 805.62,-936.4"/>
<text text-anchor="start" x="812.62" y="-948.6" font-family="Arial" font-size="14.00">id </text>
<text text-anchor="start" x="827.41" y="-948.6" font-family="Arial" font-size="14.00" fill="#666666">[uuid]</text>
<polygon fill="none" stroke="black" points="805.62,-905.6 805.62,-936.4 1071.82,-936.4 1071.82,-905.6 805.62,-905.6"/>
<text text-anchor="start" x="812.62" y="-917.8" font-family="Arial" font-size="14.00">channel_id </text>
<text text-anchor="start" x="884.24" y="-917.8" font-family="Arial" font-size="14.00" fill="#666666">[uuid]</text>
<polygon fill="none" stroke="black" points="805.62,-874.8 805.62,-905.6 1071.82,-905.6 1071.82,-874.8 805.62,-874.8"/>
<text text-anchor="start" x="812.62" y="-887" font-family="Arial" font-size="14.00">title </text>
<text text-anchor="start" x="838.3" y="-887" font-family="Arial" font-size="14.00" fill="#666666">[varchar(20)]</text>
<polygon fill="none" stroke="black" points="805.62,-844 805.62,-874.8 1071.82,-874.8 1071.82,-844 805.62,-844"/>
<text text-anchor="start" x="812.62" y="-856.2" font-family="Arial" font-size="14.00">isOwner </text>
<text text-anchor="start" x="867.86" y="-856.2" font-family="Arial" font-size="14.00" fill="#666666">[boolean]</text>
<polygon fill="none" stroke="black" points="805.62,-813.2 805.62,-844 1071.82,-844 1071.82,-813.2 805.62,-813.2"/>
<text text-anchor="start" x="812.62" y="-825.4" font-family="Arial" font-size="14.00">ranking </text>
<text text-anchor="start" x="862.43" y="-825.4" font-family="Arial" font-size="14.00" fill="#666666">[smallint]</text>
<polygon fill="none" stroke="black" points="805.62,-782.4 805.62,-813.2 1071.82,-813.2 1071.82,-782.4 805.62,-782.4"/>
<text text-anchor="start" x="812.62" y="-794.6" font-family="Arial" font-size="14.00">can_create_roles </text>
<text text-anchor="start" x="923.91" y="-794.6" font-family="Arial" font-size="14.00" fill="#666666">[boolean]</text>
<polygon fill="none" stroke="black" points="805.62,-751.6 805.62,-782.4 1071.82,-782.4 1071.82,-751.6 805.62,-751.6"/>
<text text-anchor="start" x="812.62" y="-763.8" font-family="Arial" font-size="14.00">can_view_roles </text>
<text text-anchor="start" x="913.01" y="-763.8" font-family="Arial" font-size="14.00" fill="#666666">[boolean]</text>
<polygon fill="none" stroke="black" points="805.62,-720.8 805.62,-751.6 1071.82,-751.6 1071.82,-720.8 805.62,-720.8"/>
<text text-anchor="start" x="812.62" y="-733" font-family="Arial" font-size="14.00">can_edit_roles </text>
<text text-anchor="start" x="907.58" y="-733" font-family="Arial" font-size="14.00" fill="#666666">[boolean]</text>
<polygon fill="none" stroke="black" points="805.62,-690 805.62,-720.8 1071.82,-720.8 1071.82,-690 805.62,-690"/>
<text text-anchor="start" x="812.62" y="-702.2" font-family="Arial" font-size="14.00">can_delete_roles </text>
<text text-anchor="start" x="923.15" y="-702.2" font-family="Arial" font-size="14.00" fill="#666666">[boolean]</text>
<polygon fill="none" stroke="black" points="805.62,-659.2 805.62,-690 1071.82,-690 1071.82,-659.2 805.62,-659.2"/>
<text text-anchor="start" x="812.62" y="-671.4" font-family="Arial" font-size="14.00">can_assign_roles </text>
<text text-anchor="start" x="925.47" y="-671.4" font-family="Arial" font-size="14.00" fill="#666666">[boolean]</text>
<polygon fill="none" stroke="black" points="805.62,-628.4 805.62,-659.2 1071.82,-659.2 1071.82,-628.4 805.62,-628.4"/>
<text text-anchor="start" x="812.62" y="-640.6" font-family="Arial" font-size="14.00">can_set_message_of_the_day </text>
<text text-anchor="start" x="1007.21" y="-640.6" font-family="Arial" font-size="14.00" fill="#666666">[boolean]</text>
<polygon fill="none" stroke="black" points="805.62,-597.6 805.62,-628.4 1071.82,-628.4 1071.82,-597.6 805.62,-597.6"/>
<text text-anchor="start" x="812.62" y="-609.8" font-family="Arial" font-size="14.00">can_edit_name </text>
<text text-anchor="start" x="912.25" y="-609.8" font-family="Arial" font-size="14.00" fill="#666666">[boolean]</text>
<polygon fill="none" stroke="black" points="805.62,-566.8 805.62,-597.6 1071.82,-597.6 1071.82,-566.8 805.62,-566.8"/>
<text text-anchor="start" x="812.62" y="-579" font-family="Arial" font-size="14.00">can_set_image </text>
<text text-anchor="start" x="911.47" y="-579" font-family="Arial" font-size="14.00" fill="#666666">[boolean]</text>
<polygon fill="none" stroke="black" points="805.62,-536 805.62,-566.8 1071.82,-566.8 1071.82,-536 805.62,-536"/>
<text text-anchor="start" x="812.62" y="-548.2" font-family="Arial" font-size="14.00">can_view_user_table </text>
<text text-anchor="start" x="948.04" y="-548.2" font-family="Arial" font-size="14.00" fill="#666666">[boolean]</text>
<polygon fill="none" stroke="black" points="805.62,-505.2 805.62,-536 1071.82,-536 1071.82,-505.2 805.62,-505.2"/>
<text text-anchor="start" x="812.62" y="-517.4" font-family="Arial" font-size="14.00">can_edit_tags </text>
<text text-anchor="start" x="903.69" y="-517.4" font-family="Arial" font-size="14.00" fill="#666666">[boolean]</text>
<polygon fill="none" stroke="black" points="805.62,-474.4 805.62,-505.2 1071.82,-505.2 1071.82,-474.4 805.62,-474.4"/>
<text text-anchor="start" x="812.62" y="-486.6" font-family="Arial" font-size="14.00">can_set_guidelines </text>
<text text-anchor="start" x="936.38" y="-486.6" font-family="Arial" font-size="14.00" fill="#666666">[boolean]</text>
<polygon fill="none" stroke="black" points="805.62,-443.6 805.62,-474.4 1071.82,-474.4 1071.82,-443.6 805.62,-443.6"/>
<text text-anchor="start" x="812.62" y="-455.8" font-family="Arial" font-size="14.00">can_timeout_users </text>
<text text-anchor="start" x="934.8" y="-455.8" font-family="Arial" font-size="14.00" fill="#666666">[boolean]</text>
<polygon fill="none" stroke="black" points="805.62,-412.8 805.62,-443.6 1071.82,-443.6 1071.82,-412.8 805.62,-412.8"/>
<text text-anchor="start" x="812.62" y="-425" font-family="Arial" font-size="14.00">can_ban_users </text>
<text text-anchor="start" x="912.25" y="-425" font-family="Arial" font-size="14.00" fill="#666666">[boolean]</text>
<polygon fill="none" stroke="black" points="805.62,-382 805.62,-412.8 1071.82,-412.8 1071.82,-382 805.62,-382"/>
<text text-anchor="start" x="812.62" y="-394.2" font-family="Arial" font-size="14.00">can_view_banned_users </text>
<text text-anchor="start" x="971.4" y="-394.2" font-family="Arial" font-size="14.00" fill="#666666">[boolean]</text>
<polygon fill="none" stroke="black" points="805.62,-351.2 805.62,-382 1071.82,-382 1071.82,-351.2 805.62,-351.2"/>
<text text-anchor="start" x="812.62" y="-363.4" font-family="Arial" font-size="14.00">can_unban_users </text>
<text text-anchor="start" x="927.82" y="-363.4" font-family="Arial" font-size="14.00" fill="#666666">[boolean]</text>
<polygon fill="none" stroke="black" points="805.62,-320.4 805.62,-351.2 1071.82,-351.2 1071.82,-320.4 805.62,-320.4"/>
<text text-anchor="start" x="812.62" y="-332.6" font-family="Arial" font-size="14.00">can_delete_posts </text>
<text text-anchor="start" x="926.26" y="-332.6" font-family="Arial" font-size="14.00" fill="#666666">[boolean]</text>
<polygon fill="none" stroke="black" points="805.62,-289.6 805.62,-320.4 1071.82,-320.4 1071.82,-289.6 805.62,-289.6"/>
<text text-anchor="start" x="812.62" y="-301.8" font-family="Arial" font-size="14.00">can_delete_comments </text>
<text text-anchor="start" x="957.38" y="-301.8" font-family="Arial" font-size="14.00" fill="#666666">[boolean]</text>
<polygon fill="none" stroke="black" points="805.62,-258.8 805.62,-289.6 1071.82,-289.6 1071.82,-258.8 805.62,-258.8"/>
<text text-anchor="start" x="812.62" y="-271" font-family="Arial" font-size="14.00">can_edit_post_tags </text>
<text text-anchor="start" x="937.94" y="-271" font-family="Arial" font-size="14.00" fill="#666666">[boolean]</text>
<polygon fill="none" stroke="black" points="805.62,-228 805.62,-258.8 1071.82,-258.8 1071.82,-228 805.62,-228"/>
<text text-anchor="start" x="812.62" y="-240.2" font-family="Arial" font-size="14.00">can_view_post_reports </text>
<text text-anchor="start" x="960.49" y="-240.2" font-family="Arial" font-size="14.00" fill="#666666">[boolean]</text>
<polygon fill="none" stroke="black" points="805.62,-197.2 805.62,-228 1071.82,-228 1071.82,-197.2 805.62,-197.2"/>
<text text-anchor="start" x="812.62" y="-209.4" font-family="Arial" font-size="14.00">can_update_post_reports </text>
<text text-anchor="start" x="975.3" y="-209.4" font-family="Arial" font-size="14.00" fill="#666666">[boolean]</text>
<polygon fill="none" stroke="black" points="805.62,-166.4 805.62,-197.2 1071.82,-197.2 1071.82,-166.4 805.62,-166.4"/>
<text text-anchor="start" x="812.62" y="-178.6" font-family="Arial" font-size="14.00">can_resolve_post_reports </text>
<text text-anchor="start" x="977.61" y="-178.6" font-family="Arial" font-size="14.00" fill="#666666">[boolean]</text>
<polygon fill="none" stroke="black" points="805.62,-135.6 805.62,-166.4 1071.82,-166.4 1071.82,-135.6 805.62,-135.6"/>
<text text-anchor="start" x="812.62" y="-147.8" font-family="Arial" font-size="14.00">can_register_events </text>
<text text-anchor="start" x="942.59" y="-147.8" font-family="Arial" font-size="14.00" fill="#666666">[boolean]</text>
<polygon fill="none" stroke="black" points="805.62,-104.8 805.62,-135.6 1071.82,-135.6 1071.82,-104.8 805.62,-104.8"/>
<text text-anchor="start" x="812.62" y="-117" font-family="Arial" font-size="14.00">can_view_events </text>
<text text-anchor="start" x="923.91" y="-117" font-family="Arial" font-size="14.00" fill="#666666">[boolean]</text>
<polygon fill="none" stroke="black" points="805.62,-74 805.62,-104.8 1071.82,-104.8 1071.82,-74 805.62,-74"/>
<text text-anchor="start" x="812.62" y="-86.2" font-family="Arial" font-size="14.00">can_edit_events </text>
<text text-anchor="start" x="918.48" y="-86.2" font-family="Arial" font-size="14.00" fill="#666666">[boolean]</text>
<polygon fill="none" stroke="black" points="805.62,-43.2 805.62,-74 1071.82,-74 1071.82,-43.2 805.62,-43.2"/>
<text text-anchor="start" x="812.62" y="-55.4" font-family="Arial" font-size="14.00">can_unregister_events </text>
<text text-anchor="start" x="958.16" y="-55.4" font-family="Arial" font-size="14.00" fill="#666666">[boolean]</text>
</g>
<!-- public.invite&#45;&gt;public.role -->
<g id="edge3" class="edge">
<title>public.invite:role_id&#45;&gt;public.role:id</title>
<path fill="none" stroke="black" d="M710.66,-1142.64C746.93,-1135.2 731.94,-1086.05 753.72,-1046 776.46,-1004.2 757.04,-951.8 804.62,-951.8"/>
<polygon fill="black" stroke="black" points="710.58,-1142.65 700.2,-1139.09 705.26,-1143.14 700.95,-1143.54 700.95,-1143.54 700.95,-1143.54 705.26,-1143.14 701.03,-1148.05 710.58,-1142.65"/>
<text text-anchor="start" x="707.28" y="-1153.6" font-family="Arial" font-size="10.00">FOREIGN KEY (role_id) REFERENCES role(id)</text>
</g>
</g>
</svg>
