<?xml version="1.0" encoding="UTF-8" standalone="no"?>
<!DOCTYPE svg PUBLIC "-//W3C//DTD SVG 1.1//EN"
 "http://www.w3.org/Graphics/SVG/1.1/DTD/svg11.dtd">
<!-- Generated by graphviz version 12.1.2 (20240928.0832)
 -->
<!-- Title: public.user_block Pages: 1 -->
<svg width="661pt" height="664pt"
 viewBox="0.00 0.00 661.47 663.60" xmlns="http://www.w3.org/2000/svg" xmlns:xlink="http://www.w3.org/1999/xlink">
<g id="graph0" class="graph" transform="scale(1 1) rotate(0) translate(4 659.6)">
<title>public.user_block</title>
<polygon fill="white" stroke="none" points="-4,4 -4,-659.6 657.47,-659.6 657.47,4 -4,4"/>
<!-- public.user_block -->
<g id="node1" class="node">
<title>public.user_block</title>
<polygon fill="#efefef" stroke="none" points="146.03,-573.8 146.03,-609.4 412.99,-609.4 412.99,-573.8 146.03,-573.8"/>
<polygon fill="none" stroke="black" points="146.03,-573.8 146.03,-609.4 412.99,-609.4 412.99,-573.8 146.03,-573.8"/>
<text text-anchor="start" x="153.03" y="-587.2" font-family="Arial Bold" font-size="18.00">public.user_block</text>
<text text-anchor="start" x="281.5" y="-587.2" font-family="Arial" font-size="14.00">    </text>
<text text-anchor="start" x="312.62" y="-587.2" font-family="Arial" font-size="14.00" fill="#666666">[BASE TABLE]</text>
<polygon fill="none" stroke="black" points="146.03,-543 146.03,-573.8 412.99,-573.8 412.99,-543 146.03,-543"/>
<text text-anchor="start" x="153.03" y="-555.2" font-family="Arial" font-size="14.00">user_id </text>
<text text-anchor="start" x="202.83" y="-555.2" font-family="Arial" font-size="14.00" fill="#666666">[uuid]</text>
<polygon fill="none" stroke="black" points="146.03,-512.2 146.03,-543 412.99,-543 412.99,-512.2 146.03,-512.2"/>
<text text-anchor="start" x="153.03" y="-524.4" font-family="Arial" font-size="14.00">blocked_user_id </text>
<text text-anchor="start" x="258.88" y="-524.4" font-family="Arial" font-size="14.00" fill="#666666">[uuid]</text>
<polygon fill="none" stroke="black" stroke-width="3" points="144.53,-510.7 144.53,-610.9 414.49,-610.9 414.49,-510.7 144.53,-510.7"/>
</g>
<!-- public.user -->
<g id="node2" class="node">
<title>public.user</title>
<polygon fill="#efefef" stroke="none" points="140.99,-351.2 140.99,-386.8 418.03,-386.8 418.03,-351.2 140.99,-351.2"/>
<polygon fill="none" stroke="black" points="140.99,-351.2 140.99,-386.8 418.03,-386.8 418.03,-351.2 140.99,-351.2"/>
<text text-anchor="start" x="177.52" y="-364.6" font-family="Arial Bold" font-size="18.00">public.user</text>
<text text-anchor="start" x="257" y="-364.6" font-family="Arial" font-size="14.00">    </text>
<text text-anchor="start" x="288.12" y="-364.6" font-family="Arial" font-size="14.00" fill="#666666">[BASE TABLE]</text>
<polygon fill="none" stroke="black" points="140.99,-320.4 140.99,-351.2 418.03,-351.2 418.03,-320.4 140.99,-320.4"/>
<text text-anchor="start" x="147.99" y="-332.6" font-family="Arial" font-size="14.00">id </text>
<text text-anchor="start" x="162.77" y="-332.6" font-family="Arial" font-size="14.00" fill="#666666">[uuid]</text>
<polygon fill="none" stroke="black" points="140.99,-289.6 140.99,-320.4 418.03,-320.4 418.03,-289.6 140.99,-289.6"/>
<text text-anchor="start" x="147.99" y="-301.8" font-family="Arial" font-size="14.00">username </text>
<text text-anchor="start" x="214.13" y="-301.8" font-family="Arial" font-size="14.00" fill="#666666">[varchar(25)]</text>
<polygon fill="none" stroke="black" points="140.99,-258.8 140.99,-289.6 418.03,-289.6 418.03,-258.8 140.99,-258.8"/>
<text text-anchor="start" x="147.99" y="-271" font-family="Arial" font-size="14.00">profile_image </text>
<text text-anchor="start" x="235.93" y="-271" font-family="Arial" font-size="14.00" fill="#666666">[text]</text>
<polygon fill="none" stroke="black" points="140.99,-228 140.99,-258.8 418.03,-258.8 418.03,-228 140.99,-228"/>
<text text-anchor="start" x="147.99" y="-240.2" font-family="Arial" font-size="14.00">role </text>
<text text-anchor="start" x="175.22" y="-240.2" font-family="Arial" font-size="14.00" fill="#666666">[site_role]</text>
<polygon fill="none" stroke="black" points="140.99,-197.2 140.99,-228 418.03,-228 418.03,-197.2 140.99,-197.2"/>
<text text-anchor="start" x="147.99" y="-209.4" font-family="Arial" font-size="14.00">created_on </text>
<text text-anchor="start" x="221.93" y="-209.4" font-family="Arial" font-size="14.00" fill="#666666">[timestamp without time zone]</text>
<polygon fill="none" stroke="black" points="140.99,-166.4 140.99,-197.2 418.03,-197.2 418.03,-166.4 140.99,-166.4"/>
<text text-anchor="start" x="147.99" y="-178.6" font-family="Arial" font-size="14.00">updated_on </text>
<text text-anchor="start" x="225.84" y="-178.6" font-family="Arial" font-size="14.00" fill="#666666">[timestamp without time zone]</text>
<polygon fill="none" stroke="black" points="140.99,-135.6 140.99,-166.4 418.03,-166.4 418.03,-135.6 140.99,-135.6"/>
<text text-anchor="start" x="147.99" y="-147.8" font-family="Arial" font-size="14.00">discord_id </text>
<text text-anchor="start" x="215.69" y="-147.8" font-family="Arial" font-size="14.00" fill="#666666">[bigint]</text>
<polygon fill="none" stroke="black" points="140.99,-104.8 140.99,-135.6 418.03,-135.6 418.03,-104.8 140.99,-104.8"/>
<text text-anchor="start" x="147.99" y="-117" font-family="Arial" font-size="14.00">github_id </text>
<text text-anchor="start" x="208.7" y="-117" font-family="Arial" font-size="14.00" fill="#666666">[integer]</text>
<polygon fill="none" stroke="black" points="140.99,-74 140.99,-104.8 418.03,-104.8 418.03,-74 140.99,-74"/>
<text text-anchor="start" x="147.99" y="-86.2" font-family="Arial" font-size="14.00">followers </text>
<text text-anchor="start" x="207.12" y="-86.2" font-family="Arial" font-size="14.00" fill="#666666">[integer]</text>
<polygon fill="none" stroke="black" points="140.99,-43.2 140.99,-74 418.03,-74 418.03,-43.2 140.99,-43.2"/>
<text text-anchor="start" x="147.99" y="-55.4" font-family="Arial" font-size="14.00">following </text>
<text text-anchor="start" x="206.35" y="-55.4" font-family="Arial" font-size="14.00" fill="#666666">[integer]</text>
</g>
<!-- public.user_block&#45;&gt;public.user -->
<g id="edge1" class="edge">
<title>public.user_block:user_id&#45;&gt;public.user:id</title>
<path fill="none" stroke="black" d="M424.35,-557.55C513.17,-542.6 514.41,-335.8 419.03,-335.8"/>
<polygon fill="black" stroke="black" points="424.29,-557.55 413.95,-553.89 418.97,-557.99 414.65,-558.35 414.65,-558.35 414.65,-558.35 418.97,-557.99 414.69,-562.86 424.29,-557.55"/>
<text text-anchor="start" x="420.99" y="-568.4" font-family="Arial" font-size="10.00">FOREIGN KEY (user_id) REFERENCES &quot;user&quot;(id)</text>
</g>
<!-- public.user_block&#45;&gt;public.user -->
<g id="edge2" class="edge">
<title>public.user_block:blocked_user_id&#45;&gt;public.user:id</title>
<path fill="none" stroke="black" d="M280.34,-500.9C290.15,-444.99 384.11,-488.47 418.03,-430 439.03,-393.78 460.9,-335.8 419.03,-335.8"/>
<polygon fill="black" stroke="black" points="280.34,-500.9 275.05,-510.5 279.91,-506.22 279.56,-510.53 279.56,-510.53 279.56,-510.53 279.91,-506.22 284.02,-511.23 280.34,-500.9"/>
<text text-anchor="start" x="7" y="-521.2" font-family="Arial" font-size="10.00">FOREIGN KEY (blocked_user_id) REFERENCES &quot;user&quot;(id)</text>
</g>
</g>
</svg>
