<?xml version="1.0" encoding="UTF-8" standalone="no"?>
<!DOCTYPE svg PUBLIC "-//W3C//DTD SVG 1.1//EN"
 "http://www.w3.org/Graphics/SVG/1.1/DTD/svg11.dtd">
<!-- Generated by graphviz version 2.40.1 (20161225.0304)
 -->
<!-- Title: public.subscription Pages: 1 -->
<svg width="818pt" height="592pt"
 viewBox="0.00 0.00 817.50 592.00" xmlns="http://www.w3.org/2000/svg" xmlns:xlink="http://www.w3.org/1999/xlink">
<g id="graph0" class="graph" transform="scale(1 1) rotate(0) translate(4 588)">
<title>public.subscription</title>
<polygon fill="#ffffff" stroke="transparent" points="-4,4 -4,-588 813.5,-588 813.5,4 -4,4"/>
<!-- public.subscription -->
<g id="node1" class="node">
<title>public.subscription</title>
<polygon fill="#efefef" stroke="transparent" points="263,-502.5 263,-537.5 552,-537.5 552,-502.5 263,-502.5"/>
<polygon fill="none" stroke="#000000" points="263,-502.5 263,-537.5 552,-537.5 552,-502.5 263,-502.5"/>
<text text-anchor="start" x="269.7045" y="-515.3" font-family="Arial Bold" font-size="18.00" fill="#000000">public.subscription</text>
<text text-anchor="start" x="417.7275" y="-515.3" font-family="Arial" font-size="14.00" fill="#000000">    </text>
<text text-anchor="start" x="451.9323" y="-515.3" font-family="Arial" font-size="14.00" fill="#666666">[BASE TABLE]</text>
<polygon fill="none" stroke="#000000" points="263,-472.5 263,-502.5 552,-502.5 552,-472.5 263,-472.5"/>
<text text-anchor="start" x="270" y="-483.9" font-family="Arial" font-size="14.00" fill="#000000">id </text>
<text text-anchor="start" x="284.7798" y="-483.9" font-family="Arial" font-size="14.00" fill="#666666">[uuid]</text>
<polygon fill="none" stroke="#000000" points="263,-442.5 263,-472.5 552,-472.5 552,-442.5 263,-442.5"/>
<text text-anchor="start" x="270" y="-453.9" font-family="Arial" font-size="14.00" fill="#000000">channel_id </text>
<text text-anchor="start" x="341.582" y="-453.9" font-family="Arial" font-size="14.00" fill="#666666">[uuid]</text>
<polygon fill="none" stroke="#000000" points="263,-412.5 263,-442.5 552,-442.5 552,-412.5 263,-412.5"/>
<text text-anchor="start" x="270" y="-423.9" font-family="Arial" font-size="14.00" fill="#000000">user_id </text>
<text text-anchor="start" x="319.7882" y="-423.9" font-family="Arial" font-size="14.00" fill="#666666">[uuid]</text>
<polygon fill="none" stroke="#000000" stroke-width="3" points="261,-411.5 261,-539.5 553,-539.5 553,-411.5 261,-411.5"/>
</g>
<!-- public.channel -->
<g id="node2" class="node">
<title>public.channel</title>
<polygon fill="#efefef" stroke="transparent" points="49,-252.5 49,-287.5 356,-287.5 356,-252.5 49,-252.5"/>
<polygon fill="none" stroke="#000000" points="49,-252.5 49,-287.5 356,-287.5 356,-252.5 49,-252.5"/>
<text text-anchor="start" x="81.1988" y="-265.3" font-family="Arial Bold" font-size="18.00" fill="#000000">public.channel</text>
<text text-anchor="start" x="196.2332" y="-265.3" font-family="Arial" font-size="14.00" fill="#000000">    </text>
<text text-anchor="start" x="230.438" y="-265.3" font-family="Arial" font-size="14.00" fill="#666666">[BASE TABLE]</text>
<polygon fill="none" stroke="#000000" points="49,-222.5 49,-252.5 356,-252.5 356,-222.5 49,-222.5"/>
<text text-anchor="start" x="56" y="-233.9" font-family="Arial" font-size="14.00" fill="#000000">id    </text>
<text text-anchor="start" x="101.094" y="-233.9" font-family="Arial" font-size="14.00" fill="#666666">[uuid]</text>
<polygon fill="none" stroke="#000000" points="49,-192.5 49,-222.5 356,-222.5 356,-192.5 49,-192.5"/>
<text text-anchor="start" x="56" y="-203.9" font-family="Arial" font-size="14.00" fill="#000000">name    </text>
<text text-anchor="start" x="125.2132" y="-203.9" font-family="Arial" font-size="14.00" fill="#666666">[text]</text>
<polygon fill="none" stroke="#000000" points="49,-162.5 49,-192.5 356,-192.5 356,-162.5 49,-162.5"/>
<text text-anchor="start" x="56" y="-173.9" font-family="Arial" font-size="14.00" fill="#000000">description    </text>
<text text-anchor="start" x="157.8822" y="-173.9" font-family="Arial" font-size="14.00" fill="#666666">[text]</text>
<polygon fill="none" stroke="#000000" points="49,-132.5 49,-162.5 356,-162.5 356,-132.5 49,-132.5"/>
<text text-anchor="start" x="56" y="-143.9" font-family="Arial" font-size="14.00" fill="#000000">guidelines    </text>
<text text-anchor="start" x="153.2202" y="-143.9" font-family="Arial" font-size="14.00" fill="#666666">[text]</text>
<polygon fill="none" stroke="#000000" points="49,-102.5 49,-132.5 356,-132.5 356,-102.5 49,-102.5"/>
<text text-anchor="start" x="56" y="-113.9" font-family="Arial" font-size="14.00" fill="#000000">created_by    </text>
<text text-anchor="start" x="159.4516" y="-113.9" font-family="Arial" font-size="14.00" fill="#666666">[uuid]</text>
<polygon fill="none" stroke="#000000" points="49,-72.5 49,-102.5 356,-102.5 356,-72.5 49,-72.5"/>
<text text-anchor="start" x="56" y="-83.9" font-family="Arial" font-size="14.00" fill="#000000">created_on    </text>
<text text-anchor="start" x="160.2342" y="-83.9" font-family="Arial" font-size="14.00" fill="#666666">[timestamp without time zone]</text>
<polygon fill="none" stroke="#000000" points="49,-42.5 49,-72.5 356,-72.5 356,-42.5 49,-42.5"/>
<text text-anchor="start" x="55.8605" y="-53.9" font-family="Arial" font-size="14.00" fill="#000000">updated_on    </text>
<text text-anchor="start" x="163.9993" y="-53.9" font-family="Arial" font-size="14.00" fill="#666666">[timestamp without time zone]</text>
</g>
<!-- public.subscription&#45;&gt;public.channel -->
<g id="edge1" class="edge">
<title>public.subscription:channel_id&#45;&gt;public.channel:id</title>
<path fill="none" stroke="#000000" d="M252.8184,-455.9359C226.2432,-446.5349 242.4848,-396.94 263,-367 288.0529,-330.4377 330.9471,-367.5623 356,-331 379.4891,-296.7199 397.5556,-237.5 356,-237.5"/>
<polygon fill="#000000" stroke="#000000" points="253.1159,-455.9816 262.3167,-461.9478 258.058,-456.7408 263,-457.5 263,-457.5 263,-457.5 258.058,-456.7408 263.6833,-453.0522 253.1159,-455.9816 253.1159,-455.9816"/>
<text text-anchor="start" x="7.2675" y="-467.5" font-family="Arial" font-size="10.00" fill="#000000">FOREIGN KEY (channel_id) REFERENCES channel(id)</text>
</g>
<!-- public.user -->
<g id="node3" class="node">
<title>public.user</title>
<polygon fill="#efefef" stroke="transparent" points="460,-237.5 460,-272.5 767,-272.5 767,-237.5 460,-237.5"/>
<polygon fill="none" stroke="#000000" points="460,-237.5 460,-272.5 767,-272.5 767,-237.5 460,-237.5"/>
<text text-anchor="start" x="506.2091" y="-250.3" font-family="Arial Bold" font-size="18.00" fill="#000000">public.user</text>
<text text-anchor="start" x="593.2229" y="-250.3" font-family="Arial" font-size="14.00" fill="#000000">    </text>
<text text-anchor="start" x="627.4277" y="-250.3" font-family="Arial" font-size="14.00" fill="#666666">[BASE TABLE]</text>
<polygon fill="none" stroke="#000000" points="460,-207.5 460,-237.5 767,-237.5 767,-207.5 460,-207.5"/>
<text text-anchor="start" x="467" y="-218.9" font-family="Arial" font-size="14.00" fill="#000000">id    </text>
<text text-anchor="start" x="512.094" y="-218.9" font-family="Arial" font-size="14.00" fill="#666666">[uuid]</text>
<polygon fill="none" stroke="#000000" points="460,-177.5 460,-207.5 767,-207.5 767,-177.5 460,-177.5"/>
<text text-anchor="start" x="467" y="-188.9" font-family="Arial" font-size="14.00" fill="#000000">username    </text>
<text text-anchor="start" x="563.439" y="-188.9" font-family="Arial" font-size="14.00" fill="#666666">[varchar(25)]</text>
<polygon fill="none" stroke="#000000" points="460,-147.5 460,-177.5 767,-177.5 767,-147.5 460,-147.5"/>
<text text-anchor="start" x="467" y="-158.9" font-family="Arial" font-size="14.00" fill="#000000">profile_image    </text>
<text text-anchor="start" x="585.2146" y="-158.9" font-family="Arial" font-size="14.00" fill="#666666">[text]</text>
<polygon fill="none" stroke="#000000" points="460,-117.5 460,-147.5 767,-147.5 767,-117.5 460,-117.5"/>
<text text-anchor="start" x="467" y="-128.9" font-family="Arial" font-size="14.00" fill="#000000">role    </text>
<text text-anchor="start" x="524.5372" y="-128.9" font-family="Arial" font-size="14.00" fill="#666666">[site_role]</text>
<polygon fill="none" stroke="#000000" points="460,-87.5 460,-117.5 767,-117.5 767,-87.5 460,-87.5"/>
<text text-anchor="start" x="467" y="-98.9" font-family="Arial" font-size="14.00" fill="#000000">created_on    </text>
<text text-anchor="start" x="571.2342" y="-98.9" font-family="Arial" font-size="14.00" fill="#666666">[timestamp without time zone]</text>
<polygon fill="none" stroke="#000000" points="460,-57.5 460,-87.5 767,-87.5 767,-57.5 460,-57.5"/>
<text text-anchor="start" x="466.8605" y="-68.9" font-family="Arial" font-size="14.00" fill="#000000">updated_on    </text>
<text text-anchor="start" x="574.9993" y="-68.9" font-family="Arial" font-size="14.00" fill="#666666">[timestamp without time zone]</text>
</g>
<!-- public.subscription&#45;&gt;public.user -->
<g id="edge2" class="edge">
<title>public.subscription:user_id&#45;&gt;public.user:id</title>
<path fill="none" stroke="#000000" d="M561.8164,-424.9622C574.7409,-416.1797 563.5145,-386.5484 552,-367 528.2725,-326.7174 483.7275,-356.2826 460,-316 438.9095,-280.1942 418.4444,-222.5 460,-222.5"/>
<polygon fill="#000000" stroke="#000000" points="561.6817,-424.997 550.8736,-423.1432 556.8408,-426.2485 552,-427.5 552,-427.5 552,-427.5 556.8408,-426.2485 553.1264,-431.8568 561.6817,-424.997 561.6817,-424.997"/>
<text text-anchor="start" x="559.2855" y="-437.5" font-family="Arial" font-size="10.00" fill="#000000">FOREIGN KEY (user_id) REFERENCES &quot;user&quot;(id)</text>
</g>
</g>
</svg>
