<?xml version="1.0" encoding="UTF-8" standalone="no"?>
<!DOCTYPE svg PUBLIC "-//W3C//DTD SVG 1.1//EN"
 "http://www.w3.org/Graphics/SVG/1.1/DTD/svg11.dtd">
<!-- Generated by graphviz version 2.40.1 (20161225.0304)
 -->
<!-- Title: public.channel Pages: 1 -->
<svg width="3773pt" height="1709pt"
 viewBox="0.00 0.00 3772.50 1709.00" xmlns="http://www.w3.org/2000/svg" xmlns:xlink="http://www.w3.org/1999/xlink">
<g id="graph0" class="graph" transform="scale(1 1) rotate(0) translate(4 1705)">
<title>public.channel</title>
<polygon fill="#ffffff" stroke="transparent" points="-4,4 -4,-1705 3768.5,-1705 3768.5,4 -4,4"/>
<!-- public.channel -->
<g id="node1" class="node">
<title>public.channel</title>
<polygon fill="#efefef" stroke="transparent" points="1758.5,-592.5 1758.5,-627.5 2034.5,-627.5 2034.5,-592.5 1758.5,-592.5"/>
<polygon fill="none" stroke="#000000" points="1758.5,-592.5 1758.5,-627.5 2034.5,-627.5 2034.5,-592.5 1758.5,-592.5"/>
<text text-anchor="start" x="1775.1988" y="-605.3" font-family="Arial Bold" font-size="18.00" fill="#000000">public.channel</text>
<text text-anchor="start" x="1890.2332" y="-605.3" font-family="Arial" font-size="14.00" fill="#000000">    </text>
<text text-anchor="start" x="1924.438" y="-605.3" font-family="Arial" font-size="14.00" fill="#666666">[BASE TABLE]</text>
<polygon fill="none" stroke="#000000" points="1758.5,-562.5 1758.5,-592.5 2034.5,-592.5 2034.5,-562.5 1758.5,-562.5"/>
<text text-anchor="start" x="1765.5" y="-573.9" font-family="Arial" font-size="14.00" fill="#000000">id </text>
<text text-anchor="start" x="1780.2798" y="-573.9" font-family="Arial" font-size="14.00" fill="#666666">[uuid]</text>
<polygon fill="none" stroke="#000000" points="1758.5,-532.5 1758.5,-562.5 2034.5,-562.5 2034.5,-532.5 1758.5,-532.5"/>
<text text-anchor="start" x="1765.5" y="-543.9" font-family="Arial" font-size="14.00" fill="#000000">name </text>
<text text-anchor="start" x="1804.399" y="-543.9" font-family="Arial" font-size="14.00" fill="#666666">[text]</text>
<polygon fill="none" stroke="#000000" points="1758.5,-502.5 1758.5,-532.5 2034.5,-532.5 2034.5,-502.5 1758.5,-502.5"/>
<text text-anchor="start" x="1765.5" y="-513.9" font-family="Arial" font-size="14.00" fill="#000000">description </text>
<text text-anchor="start" x="1837.068" y="-513.9" font-family="Arial" font-size="14.00" fill="#666666">[text]</text>
<polygon fill="none" stroke="#000000" points="1758.5,-472.5 1758.5,-502.5 2034.5,-502.5 2034.5,-472.5 1758.5,-472.5"/>
<text text-anchor="start" x="1765.5" y="-483.9" font-family="Arial" font-size="14.00" fill="#000000">guidelines </text>
<text text-anchor="start" x="1832.406" y="-483.9" font-family="Arial" font-size="14.00" fill="#666666">[text]</text>
<polygon fill="none" stroke="#000000" points="1758.5,-442.5 1758.5,-472.5 2034.5,-472.5 2034.5,-442.5 1758.5,-442.5"/>
<text text-anchor="start" x="1765.5" y="-453.9" font-family="Arial" font-size="14.00" fill="#000000">created_by </text>
<text text-anchor="start" x="1838.6374" y="-453.9" font-family="Arial" font-size="14.00" fill="#666666">[uuid]</text>
<polygon fill="none" stroke="#000000" points="1758.5,-412.5 1758.5,-442.5 2034.5,-442.5 2034.5,-412.5 1758.5,-412.5"/>
<text text-anchor="start" x="1765.5" y="-423.9" font-family="Arial" font-size="14.00" fill="#000000">created_on </text>
<text text-anchor="start" x="1839.42" y="-423.9" font-family="Arial" font-size="14.00" fill="#666666">[timestamp without time zone]</text>
<polygon fill="none" stroke="#000000" points="1758.5,-382.5 1758.5,-412.5 2034.5,-412.5 2034.5,-382.5 1758.5,-382.5"/>
<text text-anchor="start" x="1765.0176" y="-393.9" font-family="Arial" font-size="14.00" fill="#000000">updated_on </text>
<text text-anchor="start" x="1842.8422" y="-393.9" font-family="Arial" font-size="14.00" fill="#666666">[timestamp without time zone]</text>
<polygon fill="none" stroke="#000000" stroke-width="3" points="1757,-381.5 1757,-629.5 2036,-629.5 2036,-381.5 1757,-381.5"/>
</g>
<!-- public.user -->
<g id="node11" class="node">
<title>public.user</title>
<polygon fill="#efefef" stroke="transparent" points="1742.5,-222.5 1742.5,-257.5 2049.5,-257.5 2049.5,-222.5 1742.5,-222.5"/>
<polygon fill="none" stroke="#000000" points="1742.5,-222.5 1742.5,-257.5 2049.5,-257.5 2049.5,-222.5 1742.5,-222.5"/>
<text text-anchor="start" x="1788.7091" y="-235.3" font-family="Arial Bold" font-size="18.00" fill="#000000">public.user</text>
<text text-anchor="start" x="1875.7229" y="-235.3" font-family="Arial" font-size="14.00" fill="#000000">    </text>
<text text-anchor="start" x="1909.9277" y="-235.3" font-family="Arial" font-size="14.00" fill="#666666">[BASE TABLE]</text>
<polygon fill="none" stroke="#000000" points="1742.5,-192.5 1742.5,-222.5 2049.5,-222.5 2049.5,-192.5 1742.5,-192.5"/>
<text text-anchor="start" x="1749.5" y="-203.9" font-family="Arial" font-size="14.00" fill="#000000">id    </text>
<text text-anchor="start" x="1794.594" y="-203.9" font-family="Arial" font-size="14.00" fill="#666666">[uuid]</text>
<polygon fill="none" stroke="#000000" points="1742.5,-162.5 1742.5,-192.5 2049.5,-192.5 2049.5,-162.5 1742.5,-162.5"/>
<text text-anchor="start" x="1749.5" y="-173.9" font-family="Arial" font-size="14.00" fill="#000000">username    </text>
<text text-anchor="start" x="1845.939" y="-173.9" font-family="Arial" font-size="14.00" fill="#666666">[varchar(25)]</text>
<polygon fill="none" stroke="#000000" points="1742.5,-132.5 1742.5,-162.5 2049.5,-162.5 2049.5,-132.5 1742.5,-132.5"/>
<text text-anchor="start" x="1749.5" y="-143.9" font-family="Arial" font-size="14.00" fill="#000000">profile_image    </text>
<text text-anchor="start" x="1867.7146" y="-143.9" font-family="Arial" font-size="14.00" fill="#666666">[text]</text>
<polygon fill="none" stroke="#000000" points="1742.5,-102.5 1742.5,-132.5 2049.5,-132.5 2049.5,-102.5 1742.5,-102.5"/>
<text text-anchor="start" x="1749.5" y="-113.9" font-family="Arial" font-size="14.00" fill="#000000">role    </text>
<text text-anchor="start" x="1807.0372" y="-113.9" font-family="Arial" font-size="14.00" fill="#666666">[site_role]</text>
<polygon fill="none" stroke="#000000" points="1742.5,-72.5 1742.5,-102.5 2049.5,-102.5 2049.5,-72.5 1742.5,-72.5"/>
<text text-anchor="start" x="1749.5" y="-83.9" font-family="Arial" font-size="14.00" fill="#000000">created_on    </text>
<text text-anchor="start" x="1853.7342" y="-83.9" font-family="Arial" font-size="14.00" fill="#666666">[timestamp without time zone]</text>
<polygon fill="none" stroke="#000000" points="1742.5,-42.5 1742.5,-72.5 2049.5,-72.5 2049.5,-42.5 1742.5,-42.5"/>
<text text-anchor="start" x="1749.3605" y="-53.9" font-family="Arial" font-size="14.00" fill="#000000">updated_on    </text>
<text text-anchor="start" x="1857.4993" y="-53.9" font-family="Arial" font-size="14.00" fill="#666666">[timestamp without time zone]</text>
</g>
<!-- public.channel&#45;&gt;public.user -->
<g id="edge10" class="edge">
<title>public.channel:created_by&#45;&gt;public.user:id</title>
<path fill="none" stroke="#000000" d="M1748.504,-456.4118C1707.4985,-446.6996 1725.4559,-374.3839 1758.5,-337 1844.8076,-239.3572 1963.1924,-398.6428 2049.5,-301 2077.0213,-269.8642 2091.0556,-207.5 2049.5,-207.5"/>
<polygon fill="#000000" stroke="#000000" points="1748.5587,-456.4177 1758.0129,-461.9736 1753.5294,-456.9588 1758.5,-457.5 1758.5,-457.5 1758.5,-457.5 1753.5294,-456.9588 1758.9871,-453.0264 1748.5587,-456.4177 1748.5587,-456.4177"/>
<text text-anchor="start" x="1509.4465" y="-467.5" font-family="Arial" font-size="10.00" fill="#000000">FOREIGN KEY (created_by) REFERENCES &quot;user&quot;(id)</text>
</g>
<!-- public.channel_user_ban -->
<g id="node2" class="node">
<title>public.channel_user_ban</title>
<polygon fill="#efefef" stroke="transparent" points="43.5,-1262.5 43.5,-1297.5 384.5,-1297.5 384.5,-1262.5 43.5,-1262.5"/>
<polygon fill="none" stroke="#000000" points="43.5,-1262.5 43.5,-1297.5 384.5,-1297.5 384.5,-1262.5 43.5,-1262.5"/>
<text text-anchor="start" x="50.181" y="-1275.3" font-family="Arial Bold" font-size="18.00" fill="#000000">public.channel_user_ban</text>
<text text-anchor="start" x="250.251" y="-1275.3" font-family="Arial" font-size="14.00" fill="#000000">    </text>
<text text-anchor="start" x="284.4558" y="-1275.3" font-family="Arial" font-size="14.00" fill="#666666">[BASE TABLE]</text>
<polygon fill="none" stroke="#000000" points="43.5,-1232.5 43.5,-1262.5 384.5,-1262.5 384.5,-1232.5 43.5,-1232.5"/>
<text text-anchor="start" x="50.5" y="-1243.9" font-family="Arial" font-size="14.00" fill="#000000">id    </text>
<text text-anchor="start" x="95.594" y="-1243.9" font-family="Arial" font-size="14.00" fill="#666666">[uuid]</text>
<polygon fill="none" stroke="#000000" points="43.5,-1202.5 43.5,-1232.5 384.5,-1232.5 384.5,-1202.5 43.5,-1202.5"/>
<text text-anchor="start" x="50.5" y="-1213.9" font-family="Arial" font-size="14.00" fill="#000000">channel_id    </text>
<text text-anchor="start" x="152.3962" y="-1213.9" font-family="Arial" font-size="14.00" fill="#666666">[uuid]</text>
<polygon fill="none" stroke="#000000" points="43.5,-1172.5 43.5,-1202.5 384.5,-1202.5 384.5,-1172.5 43.5,-1172.5"/>
<text text-anchor="start" x="50.5" y="-1183.9" font-family="Arial" font-size="14.00" fill="#000000">user_id    </text>
<text text-anchor="start" x="130.6024" y="-1183.9" font-family="Arial" font-size="14.00" fill="#666666">[uuid]</text>
<polygon fill="none" stroke="#000000" points="43.5,-1142.5 43.5,-1172.5 384.5,-1172.5 384.5,-1142.5 43.5,-1142.5"/>
<text text-anchor="start" x="50.5" y="-1153.9" font-family="Arial" font-size="14.00" fill="#000000">created_on    </text>
<text text-anchor="start" x="154.7342" y="-1153.9" font-family="Arial" font-size="14.00" fill="#666666">[timestamp without time zone]</text>
<polygon fill="none" stroke="#000000" points="43.5,-1112.5 43.5,-1142.5 384.5,-1142.5 384.5,-1112.5 43.5,-1112.5"/>
<text text-anchor="start" x="50.5" y="-1123.9" font-family="Arial" font-size="14.00" fill="#000000">pardoned    </text>
<text text-anchor="start" x="143.8436" y="-1123.9" font-family="Arial" font-size="14.00" fill="#666666">[boolean]</text>
</g>
<!-- public.channel_user_ban&#45;&gt;public.channel -->
<g id="edge1" class="edge">
<title>public.channel_user_ban:channel_id&#45;&gt;public.channel:id</title>
<path fill="none" stroke="#000000" d="M394.6771,-1216.1944C488.892,-1190.3155 357.9222,-787.5516 435.5,-710 539.9823,-605.553 1610.7646,-577.5 1758.5,-577.5"/>
<polygon fill="#000000" stroke="#000000" points="394.4187,-1216.2275 383.9274,-1213.0366 389.4594,-1216.8637 384.5,-1217.5 384.5,-1217.5 384.5,-1217.5 389.4594,-1216.8637 385.0726,-1221.9634 394.4187,-1216.2275 394.4187,-1216.2275"/>
<text text-anchor="start" x="260.2675" y="-1201.5" font-family="Arial" font-size="10.00" fill="#000000">FOREIGN KEY (channel_id) REFERENCES channel(id)</text>
</g>
<!-- public.invite -->
<g id="node3" class="node">
<title>public.invite</title>
<polygon fill="#efefef" stroke="transparent" points="488.5,-1247.5 488.5,-1282.5 791.5,-1282.5 791.5,-1247.5 488.5,-1247.5"/>
<polygon fill="none" stroke="#000000" points="488.5,-1247.5 488.5,-1282.5 791.5,-1282.5 791.5,-1247.5 488.5,-1247.5"/>
<text text-anchor="start" x="529.2099" y="-1260.3" font-family="Arial Bold" font-size="18.00" fill="#000000">public.invite</text>
<text text-anchor="start" x="623.2221" y="-1260.3" font-family="Arial" font-size="14.00" fill="#000000">    </text>
<text text-anchor="start" x="657.4269" y="-1260.3" font-family="Arial" font-size="14.00" fill="#666666">[BASE TABLE]</text>
<polygon fill="none" stroke="#000000" points="488.5,-1217.5 488.5,-1247.5 791.5,-1247.5 791.5,-1217.5 488.5,-1217.5"/>
<text text-anchor="start" x="495.5" y="-1228.9" font-family="Arial" font-size="14.00" fill="#000000">channel_id    </text>
<text text-anchor="start" x="597.3962" y="-1228.9" font-family="Arial" font-size="14.00" fill="#666666">[uuid]</text>
<polygon fill="none" stroke="#000000" points="488.5,-1187.5 488.5,-1217.5 791.5,-1217.5 791.5,-1187.5 488.5,-1187.5"/>
<text text-anchor="start" x="495.5" y="-1198.9" font-family="Arial" font-size="14.00" fill="#000000">user_id    </text>
<text text-anchor="start" x="575.6024" y="-1198.9" font-family="Arial" font-size="14.00" fill="#666666">[uuid]</text>
<polygon fill="none" stroke="#000000" points="488.5,-1157.5 488.5,-1187.5 791.5,-1187.5 791.5,-1157.5 488.5,-1157.5"/>
<text text-anchor="start" x="495.3128" y="-1168.9" font-family="Arial" font-size="14.00" fill="#000000">created_on    </text>
<text text-anchor="start" x="599.547" y="-1168.9" font-family="Arial" font-size="14.00" fill="#666666">[timestamp without time zone]</text>
<polygon fill="none" stroke="#000000" points="488.5,-1127.5 488.5,-1157.5 791.5,-1157.5 791.5,-1127.5 488.5,-1127.5"/>
<text text-anchor="start" x="495.5" y="-1138.9" font-family="Arial" font-size="14.00" fill="#000000">role_id    </text>
<text text-anchor="start" x="571.709" y="-1138.9" font-family="Arial" font-size="14.00" fill="#666666">[uuid]</text>
</g>
<!-- public.invite&#45;&gt;public.channel -->
<g id="edge2" class="edge">
<title>public.invite:channel_id&#45;&gt;public.channel:id</title>
<path fill="none" stroke="#000000" d="M801.6819,-1231.2406C899.2455,-1205.4631 764.4583,-791.7458 842.5,-710 913.512,-635.6175 1655.6629,-577.5 1758.5,-577.5"/>
<polygon fill="#000000" stroke="#000000" points="801.4244,-1231.2724 790.9476,-1228.034 796.4622,-1231.8862 791.5,-1232.5 791.5,-1232.5 791.5,-1232.5 796.4622,-1231.8862 792.0524,-1236.966 801.4244,-1231.2724 801.4244,-1231.2724"/>
<text text-anchor="start" x="667.2675" y="-1216.5" font-family="Arial" font-size="10.00" fill="#000000">FOREIGN KEY (channel_id) REFERENCES channel(id)</text>
</g>
<!-- public.post -->
<g id="node4" class="node">
<title>public.post</title>
<polygon fill="#efefef" stroke="transparent" points="895.5,-1322.5 895.5,-1357.5 1202.5,-1357.5 1202.5,-1322.5 895.5,-1322.5"/>
<polygon fill="none" stroke="#000000" points="895.5,-1322.5 895.5,-1357.5 1202.5,-1357.5 1202.5,-1322.5 895.5,-1322.5"/>
<text text-anchor="start" x="942.2041" y="-1335.3" font-family="Arial Bold" font-size="18.00" fill="#000000">public.post</text>
<text text-anchor="start" x="1028.2279" y="-1335.3" font-family="Arial" font-size="14.00" fill="#000000">    </text>
<text text-anchor="start" x="1062.4327" y="-1335.3" font-family="Arial" font-size="14.00" fill="#666666">[BASE TABLE]</text>
<polygon fill="none" stroke="#000000" points="895.5,-1292.5 895.5,-1322.5 1202.5,-1322.5 1202.5,-1292.5 895.5,-1292.5"/>
<text text-anchor="start" x="902.5" y="-1303.9" font-family="Arial" font-size="14.00" fill="#000000">id    </text>
<text text-anchor="start" x="947.594" y="-1303.9" font-family="Arial" font-size="14.00" fill="#666666">[uuid]</text>
<polygon fill="none" stroke="#000000" points="895.5,-1262.5 895.5,-1292.5 1202.5,-1292.5 1202.5,-1262.5 895.5,-1262.5"/>
<text text-anchor="start" x="902.5" y="-1273.9" font-family="Arial" font-size="14.00" fill="#000000">name    </text>
<text text-anchor="start" x="971.7132" y="-1273.9" font-family="Arial" font-size="14.00" fill="#666666">[text]</text>
<polygon fill="none" stroke="#000000" points="895.5,-1232.5 895.5,-1262.5 1202.5,-1262.5 1202.5,-1232.5 895.5,-1232.5"/>
<text text-anchor="start" x="902.5" y="-1243.9" font-family="Arial" font-size="14.00" fill="#000000">description    </text>
<text text-anchor="start" x="1004.3822" y="-1243.9" font-family="Arial" font-size="14.00" fill="#666666">[text]</text>
<polygon fill="none" stroke="#000000" points="895.5,-1202.5 895.5,-1232.5 1202.5,-1232.5 1202.5,-1202.5 895.5,-1202.5"/>
<text text-anchor="start" x="902.5" y="-1213.9" font-family="Arial" font-size="14.00" fill="#000000">alt_text    </text>
<text text-anchor="start" x="981.831" y="-1213.9" font-family="Arial" font-size="14.00" fill="#666666">[text]</text>
<polygon fill="none" stroke="#000000" points="895.5,-1172.5 895.5,-1202.5 1202.5,-1202.5 1202.5,-1172.5 895.5,-1172.5"/>
<text text-anchor="start" x="902.5" y="-1183.9" font-family="Arial" font-size="14.00" fill="#000000">created_by    </text>
<text text-anchor="start" x="1005.9516" y="-1183.9" font-family="Arial" font-size="14.00" fill="#666666">[uuid]</text>
<polygon fill="none" stroke="#000000" points="895.5,-1142.5 895.5,-1172.5 1202.5,-1172.5 1202.5,-1142.5 895.5,-1142.5"/>
<text text-anchor="start" x="902.5" y="-1153.9" font-family="Arial" font-size="14.00" fill="#000000">channel_id    </text>
<text text-anchor="start" x="1004.3962" y="-1153.9" font-family="Arial" font-size="14.00" fill="#666666">[uuid]</text>
<polygon fill="none" stroke="#000000" points="895.5,-1112.5 895.5,-1142.5 1202.5,-1142.5 1202.5,-1112.5 895.5,-1112.5"/>
<text text-anchor="start" x="902.5" y="-1123.9" font-family="Arial" font-size="14.00" fill="#000000">video_id    </text>
<text text-anchor="start" x="988.831" y="-1123.9" font-family="Arial" font-size="14.00" fill="#666666">[text]</text>
<polygon fill="none" stroke="#000000" points="895.5,-1082.5 895.5,-1112.5 1202.5,-1112.5 1202.5,-1082.5 895.5,-1082.5"/>
<text text-anchor="start" x="902.5" y="-1093.9" font-family="Arial" font-size="14.00" fill="#000000">created_on    </text>
<text text-anchor="start" x="1006.7342" y="-1093.9" font-family="Arial" font-size="14.00" fill="#666666">[timestamp without time zone]</text>
<polygon fill="none" stroke="#000000" points="895.5,-1052.5 895.5,-1082.5 1202.5,-1082.5 1202.5,-1052.5 895.5,-1052.5"/>
<text text-anchor="start" x="902.3605" y="-1063.9" font-family="Arial" font-size="14.00" fill="#000000">updated_on    </text>
<text text-anchor="start" x="1010.4993" y="-1063.9" font-family="Arial" font-size="14.00" fill="#666666">[timestamp without time zone]</text>
</g>
<!-- public.post&#45;&gt;public.channel -->
<g id="edge3" class="edge">
<title>public.post:channel_id&#45;&gt;public.channel:id</title>
<path fill="none" stroke="#000000" d="M1212.7821,-1155.9978C1294.4199,-1130.3071 1191.3214,-782.8088 1254.5,-710 1330.398,-622.533 1642.6942,-577.5 1758.5,-577.5"/>
<polygon fill="#000000" stroke="#000000" points="1212.395,-1156.0543 1201.8494,-1153.0473 1207.4475,-1156.7771 1202.5,-1157.5 1202.5,-1157.5 1202.5,-1157.5 1207.4475,-1156.7771 1203.1506,-1161.9527 1212.395,-1156.0543 1212.395,-1156.0543"/>
<text text-anchor="start" x="1078.2675" y="-1141.5" font-family="Arial" font-size="10.00" fill="#000000">FOREIGN KEY (channel_id) REFERENCES channel(id)</text>
</g>
<!-- public.public_channel -->
<g id="node5" class="node">
<title>public.public_channel</title>
<polygon fill="#efefef" stroke="transparent" points="1306.5,-1232.5 1306.5,-1267.5 1634.5,-1267.5 1634.5,-1232.5 1306.5,-1232.5"/>
<polygon fill="none" stroke="#000000" points="1306.5,-1232.5 1306.5,-1267.5 1634.5,-1267.5 1634.5,-1232.5 1306.5,-1232.5"/>
<text text-anchor="start" x="1320.6922" y="-1245.3" font-family="Arial Bold" font-size="18.00" fill="#000000">public.public_channel</text>
<text text-anchor="start" x="1492.7398" y="-1245.3" font-family="Arial" font-size="14.00" fill="#000000">    </text>
<text text-anchor="start" x="1526.9446" y="-1245.3" font-family="Arial" font-size="14.00" fill="#666666">[BASE TABLE]</text>
<polygon fill="none" stroke="#000000" points="1306.5,-1202.5 1306.5,-1232.5 1634.5,-1232.5 1634.5,-1202.5 1306.5,-1202.5"/>
<text text-anchor="start" x="1313.5" y="-1213.9" font-family="Arial" font-size="14.00" fill="#000000">post_id    </text>
<text text-anchor="start" x="1392.8324" y="-1213.9" font-family="Arial" font-size="14.00" fill="#666666">[uuid]</text>
<polygon fill="none" stroke="#000000" points="1306.5,-1172.5 1306.5,-1202.5 1634.5,-1202.5 1634.5,-1172.5 1306.5,-1172.5"/>
<text text-anchor="start" x="1313.5" y="-1183.9" font-family="Arial" font-size="14.00" fill="#000000">name    </text>
<text text-anchor="start" x="1382.7132" y="-1183.9" font-family="Arial" font-size="14.00" fill="#666666">[varchar(25)]</text>
<polygon fill="none" stroke="#000000" points="1306.5,-1142.5 1306.5,-1172.5 1634.5,-1172.5 1634.5,-1142.5 1306.5,-1142.5"/>
<text text-anchor="start" x="1313.3626" y="-1153.9" font-family="Arial" font-size="14.00" fill="#000000">date_published    </text>
<text text-anchor="start" x="1442.4972" y="-1153.9" font-family="Arial" font-size="14.00" fill="#666666">[timestamp without time zone]</text>
</g>
<!-- public.public_channel&#45;&gt;public.channel -->
<g id="edge4" class="edge">
<title>public.public_channel:post_id&#45;&gt;public.channel:id</title>
<path fill="none" stroke="#000000" d="M1643.6828,-1213.0022C1688.8037,-1165.744 1670.7336,-760.9805 1686.5,-710 1706.302,-645.9704 1691.4784,-577.5 1758.5,-577.5"/>
<polygon fill="#000000" stroke="#000000" points="1643.4806,-1213.1012 1632.5205,-1213.4587 1638.9903,-1215.3006 1634.5,-1217.5 1634.5,-1217.5 1634.5,-1217.5 1638.9903,-1215.3006 1636.4795,-1221.5413 1643.4806,-1213.1012 1643.4806,-1213.1012"/>
<text text-anchor="start" x="1641.826" y="-1227.5" font-family="Arial" font-size="10.00" fill="#000000">FOREIGN KEY (post_id) REFERENCES channel(id)</text>
</g>
<!-- public.channel_report -->
<g id="node6" class="node">
<title>public.channel_report</title>
<polygon fill="#efefef" stroke="transparent" points="1739.5,-1262.5 1739.5,-1297.5 2052.5,-1297.5 2052.5,-1262.5 1739.5,-1262.5"/>
<polygon fill="none" stroke="#000000" points="1739.5,-1262.5 1739.5,-1297.5 2052.5,-1297.5 2052.5,-1262.5 1739.5,-1262.5"/>
<text text-anchor="start" x="1746.1931" y="-1275.3" font-family="Arial Bold" font-size="18.00" fill="#000000">public.channel_report</text>
<text text-anchor="start" x="1918.2389" y="-1275.3" font-family="Arial" font-size="14.00" fill="#000000">    </text>
<text text-anchor="start" x="1952.4437" y="-1275.3" font-family="Arial" font-size="14.00" fill="#666666">[BASE TABLE]</text>
<polygon fill="none" stroke="#000000" points="1739.5,-1232.5 1739.5,-1262.5 2052.5,-1262.5 2052.5,-1232.5 1739.5,-1232.5"/>
<text text-anchor="start" x="1746.5" y="-1243.9" font-family="Arial" font-size="14.00" fill="#000000">id    </text>
<text text-anchor="start" x="1791.594" y="-1243.9" font-family="Arial" font-size="14.00" fill="#666666">[uuid]</text>
<polygon fill="none" stroke="#000000" points="1739.5,-1202.5 1739.5,-1232.5 2052.5,-1232.5 2052.5,-1202.5 1739.5,-1202.5"/>
<text text-anchor="start" x="1746.5" y="-1213.9" font-family="Arial" font-size="14.00" fill="#000000">channel_id    </text>
<text text-anchor="start" x="1848.3962" y="-1213.9" font-family="Arial" font-size="14.00" fill="#666666">[uuid]</text>
<polygon fill="none" stroke="#000000" points="1739.5,-1172.5 1739.5,-1202.5 2052.5,-1202.5 2052.5,-1172.5 1739.5,-1172.5"/>
<text text-anchor="start" x="1746.5" y="-1183.9" font-family="Arial" font-size="14.00" fill="#000000">description    </text>
<text text-anchor="start" x="1848.3822" y="-1183.9" font-family="Arial" font-size="14.00" fill="#666666">[text]</text>
<polygon fill="none" stroke="#000000" points="1739.5,-1142.5 1739.5,-1172.5 2052.5,-1172.5 2052.5,-1142.5 1739.5,-1142.5"/>
<text text-anchor="start" x="1746.5" y="-1153.9" font-family="Arial" font-size="14.00" fill="#000000">resolution    </text>
<text text-anchor="start" x="1841.3822" y="-1153.9" font-family="Arial" font-size="14.00" fill="#666666">[text]</text>
<polygon fill="none" stroke="#000000" points="1739.5,-1112.5 1739.5,-1142.5 2052.5,-1142.5 2052.5,-1112.5 1739.5,-1112.5"/>
<text text-anchor="start" x="1746.5" y="-1123.9" font-family="Arial" font-size="14.00" fill="#000000">status    </text>
<text text-anchor="start" x="1818.0512" y="-1123.9" font-family="Arial" font-size="14.00" fill="#666666">[report_status]</text>
</g>
<!-- public.channel_report&#45;&gt;public.channel -->
<g id="edge5" class="edge">
<title>public.channel_report:channel_id&#45;&gt;public.channel:id</title>
<path fill="none" stroke="#000000" d="M2062.6,-1216.6991C2113.0388,-1207.9157 2071.9135,-1128.7163 2052.5,-1070 1972.4747,-827.9627 1503.5762,-577.5 1758.5,-577.5"/>
<polygon fill="#000000" stroke="#000000" points="2062.4687,-1216.7094 2052.1442,-1213.0141 2057.4844,-1217.1047 2052.5,-1217.5 2052.5,-1217.5 2052.5,-1217.5 2057.4844,-1217.1047 2052.8558,-1221.9859 2062.4687,-1216.7094 2062.4687,-1216.7094"/>
<text text-anchor="start" x="1928.2675" y="-1201.5" font-family="Arial" font-size="10.00" fill="#000000">FOREIGN KEY (channel_id) REFERENCES channel(id)</text>
</g>
<!-- public.channel_user_reports -->
<g id="node7" class="node">
<title>public.channel_user_reports</title>
<polygon fill="#efefef" stroke="transparent" points="2156.5,-1277.5 2156.5,-1312.5 2523.5,-1312.5 2523.5,-1277.5 2156.5,-1277.5"/>
<polygon fill="none" stroke="#000000" points="2156.5,-1277.5 2156.5,-1312.5 2523.5,-1312.5 2523.5,-1277.5 2156.5,-1277.5"/>
<text text-anchor="start" x="2163.1877" y="-1290.3" font-family="Arial Bold" font-size="18.00" fill="#000000">public.channel_user_reports</text>
<text text-anchor="start" x="2389.2443" y="-1290.3" font-family="Arial" font-size="14.00" fill="#000000">    </text>
<text text-anchor="start" x="2423.4491" y="-1290.3" font-family="Arial" font-size="14.00" fill="#666666">[BASE TABLE]</text>
<polygon fill="none" stroke="#000000" points="2156.5,-1247.5 2156.5,-1277.5 2523.5,-1277.5 2523.5,-1247.5 2156.5,-1247.5"/>
<text text-anchor="start" x="2163.5" y="-1258.9" font-family="Arial" font-size="14.00" fill="#000000">id    </text>
<text text-anchor="start" x="2208.594" y="-1258.9" font-family="Arial" font-size="14.00" fill="#666666">[uuid]</text>
<polygon fill="none" stroke="#000000" points="2156.5,-1217.5 2156.5,-1247.5 2523.5,-1247.5 2523.5,-1217.5 2156.5,-1217.5"/>
<text text-anchor="start" x="2163.5" y="-1228.9" font-family="Arial" font-size="14.00" fill="#000000">user_id    </text>
<text text-anchor="start" x="2243.6024" y="-1228.9" font-family="Arial" font-size="14.00" fill="#666666">[uuid]</text>
<polygon fill="none" stroke="#000000" points="2156.5,-1187.5 2156.5,-1217.5 2523.5,-1217.5 2523.5,-1187.5 2156.5,-1187.5"/>
<text text-anchor="start" x="2163.5" y="-1198.9" font-family="Arial" font-size="14.00" fill="#000000">channel_id    </text>
<text text-anchor="start" x="2265.3962" y="-1198.9" font-family="Arial" font-size="14.00" fill="#666666">[uuid]</text>
<polygon fill="none" stroke="#000000" points="2156.5,-1157.5 2156.5,-1187.5 2523.5,-1187.5 2523.5,-1157.5 2156.5,-1157.5"/>
<text text-anchor="start" x="2163.5" y="-1168.9" font-family="Arial" font-size="14.00" fill="#000000">description    </text>
<text text-anchor="start" x="2265.3822" y="-1168.9" font-family="Arial" font-size="14.00" fill="#666666">[text]</text>
<polygon fill="none" stroke="#000000" points="2156.5,-1127.5 2156.5,-1157.5 2523.5,-1157.5 2523.5,-1127.5 2156.5,-1127.5"/>
<text text-anchor="start" x="2163.5" y="-1138.9" font-family="Arial" font-size="14.00" fill="#000000">resolution    </text>
<text text-anchor="start" x="2258.3822" y="-1138.9" font-family="Arial" font-size="14.00" fill="#666666">[text]</text>
<polygon fill="none" stroke="#000000" points="2156.5,-1097.5 2156.5,-1127.5 2523.5,-1127.5 2523.5,-1097.5 2156.5,-1097.5"/>
<text text-anchor="start" x="2163.5" y="-1108.9" font-family="Arial" font-size="14.00" fill="#000000">status    </text>
<text text-anchor="start" x="2235.0512" y="-1108.9" font-family="Arial" font-size="14.00" fill="#666666">[report_status]</text>
</g>
<!-- public.channel_user_reports&#45;&gt;public.channel -->
<g id="edge6" class="edge">
<title>public.channel_user_reports:channel_id&#45;&gt;public.channel:id</title>
<path fill="none" stroke="#000000" d="M2147.2955,-1197.8461C2103.6527,-1150.6552 2119.56,-759.4524 2104.5,-710 2085.0971,-646.2871 2101.1018,-577.5 2034.5,-577.5"/>
<polygon fill="#000000" stroke="#000000" points="2147.5758,-1197.9878 2154.4695,-1206.5159 2152.0379,-1200.2439 2156.5,-1202.5 2156.5,-1202.5 2156.5,-1202.5 2152.0379,-1200.2439 2158.5305,-1198.4841 2147.5758,-1197.9878 2147.5758,-1197.9878"/>
<text text-anchor="start" x="1966.5175" y="-1186.5" font-family="Arial" font-size="10.00" fill="#000000">FOREIGN KEY (channel_id) REFERENCES channel(id)</text>
</g>
<!-- public.role -->
<g id="node8" class="node">
<title>public.role</title>
<polygon fill="#efefef" stroke="transparent" points="2627.5,-1622.5 2627.5,-1657.5 2923.5,-1657.5 2923.5,-1622.5 2627.5,-1622.5"/>
<polygon fill="none" stroke="#000000" points="2627.5,-1622.5 2627.5,-1657.5 2923.5,-1657.5 2923.5,-1622.5 2627.5,-1622.5"/>
<text text-anchor="start" x="2670.712" y="-1635.3" font-family="Arial Bold" font-size="18.00" fill="#000000">public.role</text>
<text text-anchor="start" x="2752.72" y="-1635.3" font-family="Arial" font-size="14.00" fill="#000000">    </text>
<text text-anchor="start" x="2786.9248" y="-1635.3" font-family="Arial" font-size="14.00" fill="#666666">[BASE TABLE]</text>
<polygon fill="none" stroke="#000000" points="2627.5,-1592.5 2627.5,-1622.5 2923.5,-1622.5 2923.5,-1592.5 2627.5,-1592.5"/>
<text text-anchor="start" x="2634.5" y="-1603.9" font-family="Arial" font-size="14.00" fill="#000000">id    </text>
<text text-anchor="start" x="2679.594" y="-1603.9" font-family="Arial" font-size="14.00" fill="#666666">[uuid]</text>
<polygon fill="none" stroke="#000000" points="2627.5,-1562.5 2627.5,-1592.5 2923.5,-1592.5 2923.5,-1562.5 2627.5,-1562.5"/>
<text text-anchor="start" x="2634.5" y="-1573.9" font-family="Arial" font-size="14.00" fill="#000000">channel_id    </text>
<text text-anchor="start" x="2736.3962" y="-1573.9" font-family="Arial" font-size="14.00" fill="#666666">[uuid]</text>
<polygon fill="none" stroke="#000000" points="2627.5,-1532.5 2627.5,-1562.5 2923.5,-1562.5 2923.5,-1532.5 2627.5,-1532.5"/>
<text text-anchor="start" x="2634.5" y="-1543.9" font-family="Arial" font-size="14.00" fill="#000000">title    </text>
<text text-anchor="start" x="2690.4818" y="-1543.9" font-family="Arial" font-size="14.00" fill="#666666">[varchar(20)]</text>
<polygon fill="none" stroke="#000000" points="2627.5,-1502.5 2627.5,-1532.5 2923.5,-1532.5 2923.5,-1502.5 2627.5,-1502.5"/>
<text text-anchor="start" x="2634.5" y="-1513.9" font-family="Arial" font-size="14.00" fill="#000000">isOwner    </text>
<text text-anchor="start" x="2720.0344" y="-1513.9" font-family="Arial" font-size="14.00" fill="#666666">[boolean]</text>
<polygon fill="none" stroke="#000000" points="2627.5,-1472.5 2627.5,-1502.5 2923.5,-1502.5 2923.5,-1472.5 2627.5,-1472.5"/>
<text text-anchor="start" x="2634.5" y="-1483.9" font-family="Arial" font-size="14.00" fill="#000000">ranking    </text>
<text text-anchor="start" x="2714.6024" y="-1483.9" font-family="Arial" font-size="14.00" fill="#666666">[smallint]</text>
<polygon fill="none" stroke="#000000" points="2627.5,-1442.5 2627.5,-1472.5 2923.5,-1472.5 2923.5,-1442.5 2627.5,-1442.5"/>
<text text-anchor="start" x="2634.5" y="-1453.9" font-family="Arial" font-size="14.00" fill="#000000">can_create_roles    </text>
<text text-anchor="start" x="2776.0666" y="-1453.9" font-family="Arial" font-size="14.00" fill="#666666">[boolean]</text>
<polygon fill="none" stroke="#000000" points="2627.5,-1412.5 2627.5,-1442.5 2923.5,-1442.5 2923.5,-1412.5 2627.5,-1412.5"/>
<text text-anchor="start" x="2634.5" y="-1423.9" font-family="Arial" font-size="14.00" fill="#000000">can_view_roles    </text>
<text text-anchor="start" x="2765.1634" y="-1423.9" font-family="Arial" font-size="14.00" fill="#666666">[boolean]</text>
<polygon fill="none" stroke="#000000" points="2627.5,-1382.5 2627.5,-1412.5 2923.5,-1412.5 2923.5,-1382.5 2627.5,-1382.5"/>
<text text-anchor="start" x="2634.5" y="-1393.9" font-family="Arial" font-size="14.00" fill="#000000">can_edit_roles    </text>
<text text-anchor="start" x="2759.73" y="-1393.9" font-family="Arial" font-size="14.00" fill="#666666">[boolean]</text>
<polygon fill="none" stroke="#000000" points="2627.5,-1352.5 2627.5,-1382.5 2923.5,-1382.5 2923.5,-1352.5 2627.5,-1352.5"/>
<text text-anchor="start" x="2634.5" y="-1363.9" font-family="Arial" font-size="14.00" fill="#000000">can_delete_roles    </text>
<text text-anchor="start" x="2775.2952" y="-1363.9" font-family="Arial" font-size="14.00" fill="#666666">[boolean]</text>
<polygon fill="none" stroke="#000000" points="2627.5,-1322.5 2627.5,-1352.5 2923.5,-1352.5 2923.5,-1322.5 2627.5,-1322.5"/>
<text text-anchor="start" x="2634.5" y="-1333.9" font-family="Arial" font-size="14.00" fill="#000000">can_assign_roles    </text>
<text text-anchor="start" x="2777.622" y="-1333.9" font-family="Arial" font-size="14.00" fill="#666666">[boolean]</text>
<polygon fill="none" stroke="#000000" points="2627.5,-1292.5 2627.5,-1322.5 2923.5,-1322.5 2923.5,-1292.5 2627.5,-1292.5"/>
<text text-anchor="start" x="2634.2876" y="-1303.9" font-family="Arial" font-size="14.00" fill="#000000">can_set_message_of_the_day    </text>
<text text-anchor="start" x="2859.129" y="-1303.9" font-family="Arial" font-size="14.00" fill="#666666">[boolean]</text>
<polygon fill="none" stroke="#000000" points="2627.5,-1262.5 2627.5,-1292.5 2923.5,-1292.5 2923.5,-1262.5 2627.5,-1262.5"/>
<text text-anchor="start" x="2634.5" y="-1273.9" font-family="Arial" font-size="14.00" fill="#000000">can_edit_name    </text>
<text text-anchor="start" x="2764.406" y="-1273.9" font-family="Arial" font-size="14.00" fill="#666666">[boolean]</text>
<polygon fill="none" stroke="#000000" points="2627.5,-1232.5 2627.5,-1262.5 2923.5,-1262.5 2923.5,-1232.5 2627.5,-1232.5"/>
<text text-anchor="start" x="2634.5" y="-1243.9" font-family="Arial" font-size="14.00" fill="#000000">can_set_image    </text>
<text text-anchor="start" x="2763.6234" y="-1243.9" font-family="Arial" font-size="14.00" fill="#666666">[boolean]</text>
<polygon fill="none" stroke="#000000" points="2627.5,-1202.5 2627.5,-1232.5 2923.5,-1232.5 2923.5,-1202.5 2627.5,-1202.5"/>
<text text-anchor="start" x="2634.5" y="-1213.9" font-family="Arial" font-size="14.00" fill="#000000">can_view_user_table    </text>
<text text-anchor="start" x="2800.1844" y="-1213.9" font-family="Arial" font-size="14.00" fill="#666666">[boolean]</text>
<polygon fill="none" stroke="#000000" points="2627.5,-1172.5 2627.5,-1202.5 2923.5,-1202.5 2923.5,-1172.5 2627.5,-1172.5"/>
<text text-anchor="start" x="2634.5" y="-1183.9" font-family="Arial" font-size="14.00" fill="#000000">can_edit_tags    </text>
<text text-anchor="start" x="2755.8534" y="-1183.9" font-family="Arial" font-size="14.00" fill="#666666">[boolean]</text>
<polygon fill="none" stroke="#000000" points="2627.5,-1142.5 2627.5,-1172.5 2923.5,-1172.5 2923.5,-1142.5 2627.5,-1142.5"/>
<text text-anchor="start" x="2634.5" y="-1153.9" font-family="Arial" font-size="14.00" fill="#000000">can_timeout_users    </text>
<text text-anchor="start" x="2786.9572" y="-1153.9" font-family="Arial" font-size="14.00" fill="#666666">[boolean]</text>
<polygon fill="none" stroke="#000000" points="2627.5,-1112.5 2627.5,-1142.5 2923.5,-1142.5 2923.5,-1112.5 2627.5,-1112.5"/>
<text text-anchor="start" x="2634.5" y="-1123.9" font-family="Arial" font-size="14.00" fill="#000000">can_ban_users    </text>
<text text-anchor="start" x="2764.4088" y="-1123.9" font-family="Arial" font-size="14.00" fill="#666666">[boolean]</text>
<polygon fill="none" stroke="#000000" points="2627.5,-1082.5 2627.5,-1112.5 2923.5,-1112.5 2923.5,-1082.5 2627.5,-1082.5"/>
<text text-anchor="start" x="2634.5" y="-1093.9" font-family="Arial" font-size="14.00" fill="#000000">can_view_banned_users    </text>
<text text-anchor="start" x="2823.535" y="-1093.9" font-family="Arial" font-size="14.00" fill="#666666">[boolean]</text>
<polygon fill="none" stroke="#000000" points="2627.5,-1052.5 2627.5,-1082.5 2923.5,-1082.5 2923.5,-1052.5 2627.5,-1052.5"/>
<text text-anchor="start" x="2634.5" y="-1063.9" font-family="Arial" font-size="14.00" fill="#000000">can_unban_users    </text>
<text text-anchor="start" x="2779.974" y="-1063.9" font-family="Arial" font-size="14.00" fill="#666666">[boolean]</text>
<polygon fill="none" stroke="#000000" points="2627.5,-1022.5 2627.5,-1052.5 2923.5,-1052.5 2923.5,-1022.5 2627.5,-1022.5"/>
<text text-anchor="start" x="2634.5" y="-1033.9" font-family="Arial" font-size="14.00" fill="#000000">can_delete_posts    </text>
<text text-anchor="start" x="2778.4186" y="-1033.9" font-family="Arial" font-size="14.00" fill="#666666">[boolean]</text>
<polygon fill="none" stroke="#000000" points="2627.5,-992.5 2627.5,-1022.5 2923.5,-1022.5 2923.5,-992.5 2627.5,-992.5"/>
<text text-anchor="start" x="2634.5" y="-1003.9" font-family="Arial" font-size="14.00" fill="#000000">can_delete_comments    </text>
<text text-anchor="start" x="2809.5224" y="-1003.9" font-family="Arial" font-size="14.00" fill="#666666">[boolean]</text>
<polygon fill="none" stroke="#000000" points="2627.5,-962.5 2627.5,-992.5 2923.5,-992.5 2923.5,-962.5 2627.5,-962.5"/>
<text text-anchor="start" x="2634.5" y="-973.9" font-family="Arial" font-size="14.00" fill="#000000">can_edit_post_tags    </text>
<text text-anchor="start" x="2790.0918" y="-973.9" font-family="Arial" font-size="14.00" fill="#666666">[boolean]</text>
<polygon fill="none" stroke="#000000" points="2627.5,-932.5 2627.5,-962.5 2923.5,-962.5 2923.5,-932.5 2627.5,-932.5"/>
<text text-anchor="start" x="2634.5" y="-943.9" font-family="Arial" font-size="14.00" fill="#000000">can_view_post_reports    </text>
<text text-anchor="start" x="2812.629" y="-943.9" font-family="Arial" font-size="14.00" fill="#666666">[boolean]</text>
<polygon fill="none" stroke="#000000" points="2627.5,-902.5 2627.5,-932.5 2923.5,-932.5 2923.5,-902.5 2627.5,-902.5"/>
<text text-anchor="start" x="2634.5" y="-913.9" font-family="Arial" font-size="14.00" fill="#000000">can_update_post_reports    </text>
<text text-anchor="start" x="2827.4368" y="-913.9" font-family="Arial" font-size="14.00" fill="#666666">[boolean]</text>
<polygon fill="none" stroke="#000000" points="2627.5,-872.5 2627.5,-902.5 2923.5,-902.5 2923.5,-872.5 2627.5,-872.5"/>
<text text-anchor="start" x="2634.5" y="-883.9" font-family="Arial" font-size="14.00" fill="#000000">can_resolve_post_reports    </text>
<text text-anchor="start" x="2829.7482" y="-883.9" font-family="Arial" font-size="14.00" fill="#666666">[boolean]</text>
<polygon fill="none" stroke="#000000" points="2627.5,-842.5 2627.5,-872.5 2923.5,-872.5 2923.5,-842.5 2627.5,-842.5"/>
<text text-anchor="start" x="2634.5" y="-853.9" font-family="Arial" font-size="14.00" fill="#000000">can_register_events    </text>
<text text-anchor="start" x="2794.7398" y="-853.9" font-family="Arial" font-size="14.00" fill="#666666">[boolean]</text>
<polygon fill="none" stroke="#000000" points="2627.5,-812.5 2627.5,-842.5 2923.5,-842.5 2923.5,-812.5 2627.5,-812.5"/>
<text text-anchor="start" x="2634.5" y="-823.9" font-family="Arial" font-size="14.00" fill="#000000">can_view_events    </text>
<text text-anchor="start" x="2776.0694" y="-823.9" font-family="Arial" font-size="14.00" fill="#666666">[boolean]</text>
<polygon fill="none" stroke="#000000" points="2627.5,-782.5 2627.5,-812.5 2923.5,-812.5 2923.5,-782.5 2627.5,-782.5"/>
<text text-anchor="start" x="2634.5" y="-793.9" font-family="Arial" font-size="14.00" fill="#000000">can_edit_events    </text>
<text text-anchor="start" x="2770.636" y="-793.9" font-family="Arial" font-size="14.00" fill="#666666">[boolean]</text>
<polygon fill="none" stroke="#000000" points="2627.5,-752.5 2627.5,-782.5 2923.5,-782.5 2923.5,-752.5 2627.5,-752.5"/>
<text text-anchor="start" x="2634.5" y="-763.9" font-family="Arial" font-size="14.00" fill="#000000">can_unregister_events    </text>
<text text-anchor="start" x="2810.305" y="-763.9" font-family="Arial" font-size="14.00" fill="#666666">[boolean]</text>
</g>
<!-- public.role&#45;&gt;public.channel -->
<g id="edge7" class="edge">
<title>public.role:channel_id&#45;&gt;public.channel:id</title>
<path fill="none" stroke="#000000" d="M2617.5695,-1574.2997C2538.6045,-1519.609 2635.0592,-781.3983 2575.5,-710 2496.2133,-614.9528 2158.2754,-577.5 2034.5,-577.5"/>
<polygon fill="#000000" stroke="#000000" points="2617.982,-1574.4326 2626.1197,-1581.7831 2622.741,-1575.9663 2627.5,-1577.5 2627.5,-1577.5 2627.5,-1577.5 2622.741,-1575.9663 2628.8803,-1573.2169 2617.982,-1574.4326 2617.982,-1574.4326"/>
<text text-anchor="start" x="2371.7675" y="-1587.5" font-family="Arial" font-size="10.00" fill="#000000">FOREIGN KEY (channel_id) REFERENCES channel(id)</text>
</g>
<!-- public.subscription -->
<g id="node9" class="node">
<title>public.subscription</title>
<polygon fill="#efefef" stroke="transparent" points="3028.5,-1232.5 3028.5,-1267.5 3317.5,-1267.5 3317.5,-1232.5 3028.5,-1232.5"/>
<polygon fill="none" stroke="#000000" points="3028.5,-1232.5 3028.5,-1267.5 3317.5,-1267.5 3317.5,-1232.5 3028.5,-1232.5"/>
<text text-anchor="start" x="3035.2045" y="-1245.3" font-family="Arial Bold" font-size="18.00" fill="#000000">public.subscription</text>
<text text-anchor="start" x="3183.2275" y="-1245.3" font-family="Arial" font-size="14.00" fill="#000000">    </text>
<text text-anchor="start" x="3217.4323" y="-1245.3" font-family="Arial" font-size="14.00" fill="#666666">[BASE TABLE]</text>
<polygon fill="none" stroke="#000000" points="3028.5,-1202.5 3028.5,-1232.5 3317.5,-1232.5 3317.5,-1202.5 3028.5,-1202.5"/>
<text text-anchor="start" x="3035.5" y="-1213.9" font-family="Arial" font-size="14.00" fill="#000000">id    </text>
<text text-anchor="start" x="3080.594" y="-1213.9" font-family="Arial" font-size="14.00" fill="#666666">[uuid]</text>
<polygon fill="none" stroke="#000000" points="3028.5,-1172.5 3028.5,-1202.5 3317.5,-1202.5 3317.5,-1172.5 3028.5,-1172.5"/>
<text text-anchor="start" x="3035.5" y="-1183.9" font-family="Arial" font-size="14.00" fill="#000000">channel_id    </text>
<text text-anchor="start" x="3137.3962" y="-1183.9" font-family="Arial" font-size="14.00" fill="#666666">[uuid]</text>
<polygon fill="none" stroke="#000000" points="3028.5,-1142.5 3028.5,-1172.5 3317.5,-1172.5 3317.5,-1142.5 3028.5,-1142.5"/>
<text text-anchor="start" x="3035.5" y="-1153.9" font-family="Arial" font-size="14.00" fill="#000000">user_id    </text>
<text text-anchor="start" x="3115.6024" y="-1153.9" font-family="Arial" font-size="14.00" fill="#666666">[uuid]</text>
</g>
<!-- public.subscription&#45;&gt;public.channel -->
<g id="edge8" class="edge">
<title>public.subscription:channel_id&#45;&gt;public.channel:id</title>
<path fill="none" stroke="#000000" d="M3018.3585,-1186.1239C2930.2602,-1160.4731 3047.3347,-783.9743 2975.5,-710 2901.9422,-634.2513 2140.087,-577.5 2034.5,-577.5"/>
<polygon fill="#000000" stroke="#000000" points="3018.5908,-1186.1553 3027.8949,-1191.9591 3023.5454,-1186.8277 3028.5,-1187.5 3028.5,-1187.5 3028.5,-1187.5 3023.5454,-1186.8277 3029.1051,-1183.0409 3018.5908,-1186.1553 3018.5908,-1186.1553"/>
<text text-anchor="start" x="2772.7675" y="-1197.5" font-family="Arial" font-size="10.00" fill="#000000">FOREIGN KEY (channel_id) REFERENCES channel(id)</text>
</g>
<!-- public.channel_tags -->
<g id="node10" class="node">
<title>public.channel_tags</title>
<polygon fill="#efefef" stroke="transparent" points="3421.5,-1247.5 3421.5,-1282.5 3721.5,-1282.5 3721.5,-1247.5 3421.5,-1247.5"/>
<polygon fill="none" stroke="#000000" points="3421.5,-1247.5 3421.5,-1282.5 3721.5,-1282.5 3721.5,-1247.5 3421.5,-1247.5"/>
<text text-anchor="start" x="3428.1884" y="-1260.3" font-family="Arial Bold" font-size="18.00" fill="#000000">public.channel_tags</text>
<text text-anchor="start" x="3587.2436" y="-1260.3" font-family="Arial" font-size="14.00" fill="#000000">    </text>
<text text-anchor="start" x="3621.4484" y="-1260.3" font-family="Arial" font-size="14.00" fill="#666666">[BASE TABLE]</text>
<polygon fill="none" stroke="#000000" points="3421.5,-1217.5 3421.5,-1247.5 3721.5,-1247.5 3721.5,-1217.5 3421.5,-1217.5"/>
<text text-anchor="start" x="3428.5" y="-1228.9" font-family="Arial" font-size="14.00" fill="#000000">id    </text>
<text text-anchor="start" x="3473.594" y="-1228.9" font-family="Arial" font-size="14.00" fill="#666666">[uuid]</text>
<polygon fill="none" stroke="#000000" points="3421.5,-1187.5 3421.5,-1217.5 3721.5,-1217.5 3721.5,-1187.5 3421.5,-1187.5"/>
<text text-anchor="start" x="3428.5" y="-1198.9" font-family="Arial" font-size="14.00" fill="#000000">channel_id    </text>
<text text-anchor="start" x="3530.3962" y="-1198.9" font-family="Arial" font-size="14.00" fill="#666666">[uuid]</text>
<polygon fill="none" stroke="#000000" points="3421.5,-1157.5 3421.5,-1187.5 3721.5,-1187.5 3721.5,-1157.5 3421.5,-1157.5"/>
<text text-anchor="start" x="3428.5" y="-1168.9" font-family="Arial" font-size="14.00" fill="#000000">name    </text>
<text text-anchor="start" x="3497.7132" y="-1168.9" font-family="Arial" font-size="14.00" fill="#666666">[varchar(16)]</text>
<polygon fill="none" stroke="#000000" points="3421.5,-1127.5 3421.5,-1157.5 3721.5,-1157.5 3721.5,-1127.5 3421.5,-1127.5"/>
<text text-anchor="start" x="3428.5" y="-1138.9" font-family="Arial" font-size="14.00" fill="#000000">color    </text>
<text text-anchor="start" x="3493.0372" y="-1138.9" font-family="Arial" font-size="14.00" fill="#666666">[varchar(16)]</text>
</g>
<!-- public.channel_tags&#45;&gt;public.channel -->
<g id="edge9" class="edge">
<title>public.channel_tags:channel_id&#45;&gt;public.channel:id</title>
<path fill="none" stroke="#000000" d="M3411.335,-1201.1552C3320.25,-1175.3183 3444.9706,-784.9991 3369.5,-710 3263.7674,-604.928 2183.5621,-577.5 2034.5,-577.5"/>
<polygon fill="#000000" stroke="#000000" points="3411.5864,-1201.1884 3420.9098,-1206.9611 3416.5432,-1201.8442 3421.5,-1202.5 3421.5,-1202.5 3421.5,-1202.5 3416.5432,-1201.8442 3422.0902,-1198.0389 3411.5864,-1201.1884 3411.5864,-1201.1884"/>
<text text-anchor="start" x="3165.7675" y="-1212.5" font-family="Arial" font-size="10.00" fill="#000000">FOREIGN KEY (channel_id) REFERENCES channel(id)</text>
</g>
</g>
</svg>
