<?xml version="1.0" encoding="UTF-8" standalone="no"?>
<!DOCTYPE svg PUBLIC "-//W3C//DTD SVG 1.1//EN"
 "http://www.w3.org/Graphics/SVG/1.1/DTD/svg11.dtd">
<!-- Generated by graphviz version 2.40.1 (20161225.0304)
 -->
<!-- Title: public.channel_user_ban Pages: 1 -->
<svg width="851pt" height="652pt"
 viewBox="0.00 0.00 851.00 652.00" xmlns="http://www.w3.org/2000/svg" xmlns:xlink="http://www.w3.org/1999/xlink">
<g id="graph0" class="graph" transform="scale(1 1) rotate(0) translate(4 648)">
<title>public.channel_user_ban</title>
<polygon fill="#ffffff" stroke="transparent" points="-4,4 -4,-648 847,-648 847,4 -4,4"/>
<!-- public.channel_user_ban -->
<g id="node1" class="node">
<title>public.channel_user_ban</title>
<polygon fill="#efefef" stroke="transparent" points="263,-562.5 263,-597.5 604,-597.5 604,-562.5 263,-562.5"/>
<polygon fill="none" stroke="#000000" points="263,-562.5 263,-597.5 604,-597.5 604,-562.5 263,-562.5"/>
<text text-anchor="start" x="269.681" y="-575.3" font-family="Arial Bold" font-size="18.00" fill="#000000">public.channel_user_ban</text>
<text text-anchor="start" x="469.751" y="-575.3" font-family="Arial" font-size="14.00" fill="#000000">    </text>
<text text-anchor="start" x="503.9558" y="-575.3" font-family="Arial" font-size="14.00" fill="#666666">[BASE TABLE]</text>
<polygon fill="none" stroke="#000000" points="263,-532.5 263,-562.5 604,-562.5 604,-532.5 263,-532.5"/>
<text text-anchor="start" x="270" y="-543.9" font-family="Arial" font-size="14.00" fill="#000000">id </text>
<text text-anchor="start" x="284.7798" y="-543.9" font-family="Arial" font-size="14.00" fill="#666666">[uuid]</text>
<polygon fill="none" stroke="#000000" points="263,-502.5 263,-532.5 604,-532.5 604,-502.5 263,-502.5"/>
<text text-anchor="start" x="270" y="-513.9" font-family="Arial" font-size="14.00" fill="#000000">channel_id </text>
<text text-anchor="start" x="341.582" y="-513.9" font-family="Arial" font-size="14.00" fill="#666666">[uuid]</text>
<polygon fill="none" stroke="#000000" points="263,-472.5 263,-502.5 604,-502.5 604,-472.5 263,-472.5"/>
<text text-anchor="start" x="270" y="-483.9" font-family="Arial" font-size="14.00" fill="#000000">user_id </text>
<text text-anchor="start" x="319.7882" y="-483.9" font-family="Arial" font-size="14.00" fill="#666666">[uuid]</text>
<polygon fill="none" stroke="#000000" points="263,-442.5 263,-472.5 604,-472.5 604,-442.5 263,-442.5"/>
<text text-anchor="start" x="270" y="-453.9" font-family="Arial" font-size="14.00" fill="#000000">created_on </text>
<text text-anchor="start" x="343.92" y="-453.9" font-family="Arial" font-size="14.00" fill="#666666">[timestamp without time zone]</text>
<polygon fill="none" stroke="#000000" points="263,-412.5 263,-442.5 604,-442.5 604,-412.5 263,-412.5"/>
<text text-anchor="start" x="270" y="-423.9" font-family="Arial" font-size="14.00" fill="#000000">pardoned </text>
<text text-anchor="start" x="333.0294" y="-423.9" font-family="Arial" font-size="14.00" fill="#666666">[boolean]</text>
<polygon fill="none" stroke="#000000" stroke-width="3" points="261,-411.5 261,-599.5 605,-599.5 605,-411.5 261,-411.5"/>
</g>
<!-- public.channel -->
<g id="node2" class="node">
<title>public.channel</title>
<polygon fill="#efefef" stroke="transparent" points="75,-252.5 75,-287.5 382,-287.5 382,-252.5 75,-252.5"/>
<polygon fill="none" stroke="#000000" points="75,-252.5 75,-287.5 382,-287.5 382,-252.5 75,-252.5"/>
<text text-anchor="start" x="107.1988" y="-265.3" font-family="Arial Bold" font-size="18.00" fill="#000000">public.channel</text>
<text text-anchor="start" x="222.2332" y="-265.3" font-family="Arial" font-size="14.00" fill="#000000">    </text>
<text text-anchor="start" x="256.438" y="-265.3" font-family="Arial" font-size="14.00" fill="#666666">[BASE TABLE]</text>
<polygon fill="none" stroke="#000000" points="75,-222.5 75,-252.5 382,-252.5 382,-222.5 75,-222.5"/>
<text text-anchor="start" x="82" y="-233.9" font-family="Arial" font-size="14.00" fill="#000000">id    </text>
<text text-anchor="start" x="127.094" y="-233.9" font-family="Arial" font-size="14.00" fill="#666666">[uuid]</text>
<polygon fill="none" stroke="#000000" points="75,-192.5 75,-222.5 382,-222.5 382,-192.5 75,-192.5"/>
<text text-anchor="start" x="82" y="-203.9" font-family="Arial" font-size="14.00" fill="#000000">name    </text>
<text text-anchor="start" x="151.2132" y="-203.9" font-family="Arial" font-size="14.00" fill="#666666">[text]</text>
<polygon fill="none" stroke="#000000" points="75,-162.5 75,-192.5 382,-192.5 382,-162.5 75,-162.5"/>
<text text-anchor="start" x="82" y="-173.9" font-family="Arial" font-size="14.00" fill="#000000">description    </text>
<text text-anchor="start" x="183.8822" y="-173.9" font-family="Arial" font-size="14.00" fill="#666666">[text]</text>
<polygon fill="none" stroke="#000000" points="75,-132.5 75,-162.5 382,-162.5 382,-132.5 75,-132.5"/>
<text text-anchor="start" x="82" y="-143.9" font-family="Arial" font-size="14.00" fill="#000000">guidelines    </text>
<text text-anchor="start" x="179.2202" y="-143.9" font-family="Arial" font-size="14.00" fill="#666666">[text]</text>
<polygon fill="none" stroke="#000000" points="75,-102.5 75,-132.5 382,-132.5 382,-102.5 75,-102.5"/>
<text text-anchor="start" x="82" y="-113.9" font-family="Arial" font-size="14.00" fill="#000000">created_by    </text>
<text text-anchor="start" x="185.4516" y="-113.9" font-family="Arial" font-size="14.00" fill="#666666">[uuid]</text>
<polygon fill="none" stroke="#000000" points="75,-72.5 75,-102.5 382,-102.5 382,-72.5 75,-72.5"/>
<text text-anchor="start" x="82" y="-83.9" font-family="Arial" font-size="14.00" fill="#000000">created_on    </text>
<text text-anchor="start" x="186.2342" y="-83.9" font-family="Arial" font-size="14.00" fill="#666666">[timestamp without time zone]</text>
<polygon fill="none" stroke="#000000" points="75,-42.5 75,-72.5 382,-72.5 382,-42.5 75,-42.5"/>
<text text-anchor="start" x="81.8605" y="-53.9" font-family="Arial" font-size="14.00" fill="#000000">updated_on    </text>
<text text-anchor="start" x="189.9993" y="-53.9" font-family="Arial" font-size="14.00" fill="#666666">[timestamp without time zone]</text>
</g>
<!-- public.channel_user_ban&#45;&gt;public.channel -->
<g id="edge1" class="edge">
<title>public.channel_user_ban:channel_id&#45;&gt;public.channel:id</title>
<path fill="none" stroke="#000000" d="M252.8554,-516.6545C199.1052,-507.0425 225.3142,-417.7733 263,-367 295.9328,-322.6303 349.0672,-375.3697 382,-331 406.7672,-297.6316 423.5556,-237.5 382,-237.5"/>
<polygon fill="#000000" stroke="#000000" points="253.0346,-516.6693 262.6262,-521.9845 258.0173,-517.0847 263,-517.5 263,-517.5 263,-517.5 258.0173,-517.0847 263.3738,-513.0155 253.0346,-516.6693 253.0346,-516.6693"/>
<text text-anchor="start" x="7.2675" y="-527.5" font-family="Arial" font-size="10.00" fill="#000000">FOREIGN KEY (channel_id) REFERENCES channel(id)</text>
</g>
<!-- public.user -->
<g id="node3" class="node">
<title>public.user</title>
<polygon fill="#efefef" stroke="transparent" points="486,-237.5 486,-272.5 793,-272.5 793,-237.5 486,-237.5"/>
<polygon fill="none" stroke="#000000" points="486,-237.5 486,-272.5 793,-272.5 793,-237.5 486,-237.5"/>
<text text-anchor="start" x="532.2091" y="-250.3" font-family="Arial Bold" font-size="18.00" fill="#000000">public.user</text>
<text text-anchor="start" x="619.2229" y="-250.3" font-family="Arial" font-size="14.00" fill="#000000">    </text>
<text text-anchor="start" x="653.4277" y="-250.3" font-family="Arial" font-size="14.00" fill="#666666">[BASE TABLE]</text>
<polygon fill="none" stroke="#000000" points="486,-207.5 486,-237.5 793,-237.5 793,-207.5 486,-207.5"/>
<text text-anchor="start" x="493" y="-218.9" font-family="Arial" font-size="14.00" fill="#000000">id    </text>
<text text-anchor="start" x="538.094" y="-218.9" font-family="Arial" font-size="14.00" fill="#666666">[uuid]</text>
<polygon fill="none" stroke="#000000" points="486,-177.5 486,-207.5 793,-207.5 793,-177.5 486,-177.5"/>
<text text-anchor="start" x="493" y="-188.9" font-family="Arial" font-size="14.00" fill="#000000">username    </text>
<text text-anchor="start" x="589.439" y="-188.9" font-family="Arial" font-size="14.00" fill="#666666">[varchar(25)]</text>
<polygon fill="none" stroke="#000000" points="486,-147.5 486,-177.5 793,-177.5 793,-147.5 486,-147.5"/>
<text text-anchor="start" x="493" y="-158.9" font-family="Arial" font-size="14.00" fill="#000000">profile_image    </text>
<text text-anchor="start" x="611.2146" y="-158.9" font-family="Arial" font-size="14.00" fill="#666666">[text]</text>
<polygon fill="none" stroke="#000000" points="486,-117.5 486,-147.5 793,-147.5 793,-117.5 486,-117.5"/>
<text text-anchor="start" x="493" y="-128.9" font-family="Arial" font-size="14.00" fill="#000000">role    </text>
<text text-anchor="start" x="550.5372" y="-128.9" font-family="Arial" font-size="14.00" fill="#666666">[site_role]</text>
<polygon fill="none" stroke="#000000" points="486,-87.5 486,-117.5 793,-117.5 793,-87.5 486,-87.5"/>
<text text-anchor="start" x="493" y="-98.9" font-family="Arial" font-size="14.00" fill="#000000">created_on    </text>
<text text-anchor="start" x="597.2342" y="-98.9" font-family="Arial" font-size="14.00" fill="#666666">[timestamp without time zone]</text>
<polygon fill="none" stroke="#000000" points="486,-57.5 486,-87.5 793,-87.5 793,-57.5 486,-57.5"/>
<text text-anchor="start" x="492.8605" y="-68.9" font-family="Arial" font-size="14.00" fill="#000000">updated_on    </text>
<text text-anchor="start" x="600.9993" y="-68.9" font-family="Arial" font-size="14.00" fill="#666666">[timestamp without time zone]</text>
</g>
<!-- public.channel_user_ban&#45;&gt;public.user -->
<g id="edge2" class="edge">
<title>public.channel_user_ban:user_id&#45;&gt;public.user:id</title>
<path fill="none" stroke="#000000" d="M614.1697,-486.4137C654.1345,-477.0016 631.3452,-408.6086 604,-367 572.6218,-319.2548 517.3782,-363.7452 486,-316 463.1772,-281.2727 444.4444,-222.5 486,-222.5"/>
<polygon fill="#000000" stroke="#000000" points="613.9434,-486.4378 603.522,-483.0255 608.9717,-486.9689 604,-487.5 604,-487.5 604,-487.5 608.9717,-486.9689 604.478,-491.9745 613.9434,-486.4378 613.9434,-486.4378"/>
<text text-anchor="start" x="611.2855" y="-497.5" font-family="Arial" font-size="10.00" fill="#000000">FOREIGN KEY (user_id) REFERENCES &quot;user&quot;(id)</text>
</g>
</g>
</svg>
