<?xml version="1.0" encoding="UTF-8" standalone="no"?>
<!DOCTYPE svg PUBLIC "-//W3C//DTD SVG 1.1//EN"
 "http://www.w3.org/Graphics/SVG/1.1/DTD/svg11.dtd">
<!-- Generated by graphviz version 12.1.2 (20240928.0832)
 -->
<!-- Title: public.playlist Pages: 1 -->
<svg width="587pt" height="1037pt"
 viewBox="0.00 0.00 586.79 1037.20" xmlns="http://www.w3.org/2000/svg" xmlns:xlink="http://www.w3.org/1999/xlink">
<g id="graph0" class="graph" transform="scale(1 1) rotate(0) translate(4 1033.2)">
<title>public.playlist</title>
<polygon fill="white" stroke="none" points="-4,4 -4,-1033.2 582.79,-1033.2 582.79,4 -4,4"/>
<!-- public.playlist -->
<g id="node1" class="node">
<title>public.playlist</title>
<polygon fill="#efefef" stroke="none" points="62.7,-666.2 62.7,-701.8 303.68,-701.8 303.68,-666.2 62.7,-666.2"/>
<polygon fill="none" stroke="black" points="62.7,-666.2 62.7,-701.8 303.68,-701.8 303.68,-666.2 62.7,-666.2"/>
<text text-anchor="start" x="69.7" y="-679.6" font-family="Arial Bold" font-size="18.00">public.playlist</text>
<text text-anchor="start" x="172.19" y="-679.6" font-family="Arial" font-size="14.00">    </text>
<text text-anchor="start" x="203.31" y="-679.6" font-family="Arial" font-size="14.00" fill="#666666">[BASE TABLE]</text>
<polygon fill="none" stroke="black" points="62.7,-635.4 62.7,-666.2 303.68,-666.2 303.68,-635.4 62.7,-635.4"/>
<text text-anchor="start" x="69.7" y="-647.6" font-family="Arial" font-size="14.00">id </text>
<text text-anchor="start" x="84.49" y="-647.6" font-family="Arial" font-size="14.00" fill="#666666">[uuid]</text>
<polygon fill="none" stroke="black" points="62.7,-604.6 62.7,-635.4 303.68,-635.4 303.68,-604.6 62.7,-604.6"/>
<text text-anchor="start" x="69.7" y="-616.8" font-family="Arial" font-size="14.00">user_id </text>
<text text-anchor="start" x="119.51" y="-616.8" font-family="Arial" font-size="14.00" fill="#666666">[uuid]</text>
<polygon fill="none" stroke="black" points="62.7,-573.8 62.7,-604.6 303.68,-604.6 303.68,-573.8 62.7,-573.8"/>
<text text-anchor="start" x="69.7" y="-586" font-family="Arial" font-size="14.00">name </text>
<text text-anchor="start" x="108.61" y="-586" font-family="Arial" font-size="14.00" fill="#666666">[varchar(32)]</text>
<polygon fill="none" stroke="black" points="62.7,-543 62.7,-573.8 303.68,-573.8 303.68,-543 62.7,-543"/>
<text text-anchor="start" x="69.7" y="-555.2" font-family="Arial" font-size="14.00">description </text>
<text text-anchor="start" x="141.3" y="-555.2" font-family="Arial" font-size="14.00" fill="#666666">[text]</text>
<polygon fill="none" stroke="black" points="62.7,-512.2 62.7,-543 303.68,-543 303.68,-512.2 62.7,-512.2"/>
<text text-anchor="start" x="69.7" y="-524.4" font-family="Arial" font-size="14.00">public </text>
<text text-anchor="start" x="110.17" y="-524.4" font-family="Arial" font-size="14.00" fill="#666666">[boolean]</text>
<polygon fill="none" stroke="black" stroke-width="3" points="61.2,-510.7 61.2,-703.3 305.18,-703.3 305.18,-510.7 61.2,-510.7"/>
</g>
<!-- public.user -->
<g id="node3" class="node">
<title>public.user</title>
<polygon fill="#efefef" stroke="none" points="44.67,-351.2 44.67,-386.8 321.71,-386.8 321.71,-351.2 44.67,-351.2"/>
<polygon fill="none" stroke="black" points="44.67,-351.2 44.67,-386.8 321.71,-386.8 321.71,-351.2 44.67,-351.2"/>
<text text-anchor="start" x="81.21" y="-364.6" font-family="Arial Bold" font-size="18.00">public.user</text>
<text text-anchor="start" x="160.69" y="-364.6" font-family="Arial" font-size="14.00">    </text>
<text text-anchor="start" x="191.8" y="-364.6" font-family="Arial" font-size="14.00" fill="#666666">[BASE TABLE]</text>
<polygon fill="none" stroke="black" points="44.67,-320.4 44.67,-351.2 321.71,-351.2 321.71,-320.4 44.67,-320.4"/>
<text text-anchor="start" x="51.67" y="-332.6" font-family="Arial" font-size="14.00">id </text>
<text text-anchor="start" x="66.46" y="-332.6" font-family="Arial" font-size="14.00" fill="#666666">[uuid]</text>
<polygon fill="none" stroke="black" points="44.67,-289.6 44.67,-320.4 321.71,-320.4 321.71,-289.6 44.67,-289.6"/>
<text text-anchor="start" x="51.67" y="-301.8" font-family="Arial" font-size="14.00">username </text>
<text text-anchor="start" x="117.82" y="-301.8" font-family="Arial" font-size="14.00" fill="#666666">[varchar(25)]</text>
<polygon fill="none" stroke="black" points="44.67,-258.8 44.67,-289.6 321.71,-289.6 321.71,-258.8 44.67,-258.8"/>
<text text-anchor="start" x="51.67" y="-271" font-family="Arial" font-size="14.00">profile_image </text>
<text text-anchor="start" x="139.61" y="-271" font-family="Arial" font-size="14.00" fill="#666666">[text]</text>
<polygon fill="none" stroke="black" points="44.67,-228 44.67,-258.8 321.71,-258.8 321.71,-228 44.67,-228"/>
<text text-anchor="start" x="51.67" y="-240.2" font-family="Arial" font-size="14.00">role </text>
<text text-anchor="start" x="78.91" y="-240.2" font-family="Arial" font-size="14.00" fill="#666666">[site_role]</text>
<polygon fill="none" stroke="black" points="44.67,-197.2 44.67,-228 321.71,-228 321.71,-197.2 44.67,-197.2"/>
<text text-anchor="start" x="51.67" y="-209.4" font-family="Arial" font-size="14.00">created_on </text>
<text text-anchor="start" x="125.62" y="-209.4" font-family="Arial" font-size="14.00" fill="#666666">[timestamp without time zone]</text>
<polygon fill="none" stroke="black" points="44.67,-166.4 44.67,-197.2 321.71,-197.2 321.71,-166.4 44.67,-166.4"/>
<text text-anchor="start" x="51.67" y="-178.6" font-family="Arial" font-size="14.00">updated_on </text>
<text text-anchor="start" x="129.53" y="-178.6" font-family="Arial" font-size="14.00" fill="#666666">[timestamp without time zone]</text>
<polygon fill="none" stroke="black" points="44.67,-135.6 44.67,-166.4 321.71,-166.4 321.71,-135.6 44.67,-135.6"/>
<text text-anchor="start" x="51.67" y="-147.8" font-family="Arial" font-size="14.00">discord_id </text>
<text text-anchor="start" x="119.38" y="-147.8" font-family="Arial" font-size="14.00" fill="#666666">[bigint]</text>
<polygon fill="none" stroke="black" points="44.67,-104.8 44.67,-135.6 321.71,-135.6 321.71,-104.8 44.67,-104.8"/>
<text text-anchor="start" x="51.67" y="-117" font-family="Arial" font-size="14.00">github_id </text>
<text text-anchor="start" x="112.39" y="-117" font-family="Arial" font-size="14.00" fill="#666666">[integer]</text>
<polygon fill="none" stroke="black" points="44.67,-74 44.67,-104.8 321.71,-104.8 321.71,-74 44.67,-74"/>
<text text-anchor="start" x="51.67" y="-86.2" font-family="Arial" font-size="14.00">followers </text>
<text text-anchor="start" x="110.8" y="-86.2" font-family="Arial" font-size="14.00" fill="#666666">[integer]</text>
<polygon fill="none" stroke="black" points="44.67,-43.2 44.67,-74 321.71,-74 321.71,-43.2 44.67,-43.2"/>
<text text-anchor="start" x="51.67" y="-55.4" font-family="Arial" font-size="14.00">following </text>
<text text-anchor="start" x="110.04" y="-55.4" font-family="Arial" font-size="14.00" fill="#666666">[integer]</text>
</g>
<!-- public.playlist&#45;&gt;public.user -->
<g id="edge2" class="edge">
<title>public.playlist:user_id&#45;&gt;public.user:id</title>
<path fill="none" stroke="black" d="M314.82,-619.37C432.12,-604.67 445.82,-335.8 322.71,-335.8"/>
<polygon fill="black" stroke="black" points="315,-619.36 304.74,-615.49 309.67,-619.69 305.35,-619.96 305.35,-619.96 305.35,-619.96 309.67,-619.69 305.29,-624.47 315,-619.36"/>
<text text-anchor="start" x="311.68" y="-630" font-family="Arial" font-size="10.00">FOREIGN KEY (user_id) REFERENCES &quot;user&quot;(id)</text>
</g>
<!-- public.playlist_post -->
<g id="node2" class="node">
<title>public.playlist_post</title>
<polygon fill="#efefef" stroke="none" points="43.2,-950.4 43.2,-986 323.18,-986 323.18,-950.4 43.2,-950.4"/>
<polygon fill="none" stroke="black" points="43.2,-950.4 43.2,-986 323.18,-986 323.18,-950.4 43.2,-950.4"/>
<text text-anchor="start" x="50.2" y="-963.8" font-family="Arial Bold" font-size="18.00">public.playlist_post</text>
<text text-anchor="start" x="191.7" y="-963.8" font-family="Arial" font-size="14.00">    </text>
<text text-anchor="start" x="222.81" y="-963.8" font-family="Arial" font-size="14.00" fill="#666666">[BASE TABLE]</text>
<polygon fill="none" stroke="black" points="43.2,-919.6 43.2,-950.4 323.18,-950.4 323.18,-919.6 43.2,-919.6"/>
<text text-anchor="start" x="50.2" y="-931.8" font-family="Arial" font-size="14.00">id </text>
<text text-anchor="start" x="64.99" y="-931.8" font-family="Arial" font-size="14.00" fill="#666666">[uuid]</text>
<polygon fill="none" stroke="black" points="43.2,-888.8 43.2,-919.6 323.18,-919.6 323.18,-888.8 43.2,-888.8"/>
<text text-anchor="start" x="50.2" y="-901" font-family="Arial" font-size="14.00">playlist_id </text>
<text text-anchor="start" x="115.57" y="-901" font-family="Arial" font-size="14.00" fill="#666666">[uuid]</text>
<polygon fill="none" stroke="black" points="43.2,-858 43.2,-888.8 323.18,-888.8 323.18,-858 43.2,-858"/>
<text text-anchor="start" x="50.2" y="-870.2" font-family="Arial" font-size="14.00">post_id </text>
<text text-anchor="start" x="99.23" y="-870.2" font-family="Arial" font-size="14.00" fill="#666666">[uuid]</text>
<polygon fill="none" stroke="black" points="43.2,-827.2 43.2,-858 323.18,-858 323.18,-827.2 43.2,-827.2"/>
<text text-anchor="start" x="50.2" y="-839.4" font-family="Arial" font-size="14.00">sort_index </text>
<text text-anchor="start" x="118.68" y="-839.4" font-family="Arial" font-size="14.00" fill="#666666">[smallint]</text>
</g>
<!-- public.playlist_post&#45;&gt;public.playlist -->
<g id="edge1" class="edge">
<title>public.playlist_post:playlist_id&#45;&gt;public.playlist:id</title>
<path fill="none" stroke="black" d="M334.39,-903.47C435.83,-888.61 414.11,-650.8 304.68,-650.8"/>
<polygon fill="black" stroke="black" points="334.49,-903.47 324.2,-899.69 329.17,-903.84 324.85,-904.15 324.85,-904.15 324.85,-904.15 329.17,-903.84 324.84,-908.66 334.49,-903.47"/>
<text text-anchor="start" x="331.18" y="-914.2" font-family="Arial" font-size="10.00">FOREIGN KEY (playlist_id) REFERENCES playlist(id)</text>
</g>
</g>
</svg>
