<?xml version="1.0" encoding="UTF-8" standalone="no"?>
<!DOCTYPE svg PUBLIC "-//W3C//DTD SVG 1.1//EN"
 "http://www.w3.org/Graphics/SVG/1.1/DTD/svg11.dtd">
<!-- Generated by graphviz version 2.40.1 (20161225.0304)
 -->
<!-- Title: public.channel_post_report Pages: 1 -->
<svg width="642pt" height="802pt"
 viewBox="0.00 0.00 641.50 802.00" xmlns="http://www.w3.org/2000/svg" xmlns:xlink="http://www.w3.org/1999/xlink">
<g id="graph0" class="graph" transform="scale(1 1) rotate(0) translate(4 798)">
<title>public.channel_post_report</title>
<polygon fill="#ffffff" stroke="transparent" points="-4,4 -4,-798 637.5,-798 637.5,4 -4,4"/>
<!-- public.channel_post_report -->
<g id="node1" class="node">
<title>public.channel_post_report</title>
<polygon fill="#efefef" stroke="transparent" points="231,-712.5 231,-747.5 588,-747.5 588,-712.5 231,-712.5"/>
<polygon fill="none" stroke="#000000" points="231,-712.5 231,-747.5 588,-747.5 588,-712.5 231,-712.5"/>
<text text-anchor="start" x="237.6827" y="-725.3" font-family="Arial Bold" font-size="18.00" fill="#000000">public.channel_post_report</text>
<text text-anchor="start" x="453.7493" y="-725.3" font-family="Arial" font-size="14.00" fill="#000000">    </text>
<text text-anchor="start" x="487.9541" y="-725.3" font-family="Arial" font-size="14.00" fill="#666666">[BASE TABLE]</text>
<polygon fill="none" stroke="#000000" points="231,-682.5 231,-712.5 588,-712.5 588,-682.5 231,-682.5"/>
<text text-anchor="start" x="238" y="-693.9" font-family="Arial" font-size="14.00" fill="#000000">id </text>
<text text-anchor="start" x="252.7798" y="-693.9" font-family="Arial" font-size="14.00" fill="#666666">[uuid]</text>
<polygon fill="none" stroke="#000000" points="231,-652.5 231,-682.5 588,-682.5 588,-652.5 231,-652.5"/>
<text text-anchor="start" x="238" y="-663.9" font-family="Arial" font-size="14.00" fill="#000000">post_id </text>
<text text-anchor="start" x="287.0182" y="-663.9" font-family="Arial" font-size="14.00" fill="#666666">[uuid]</text>
<polygon fill="none" stroke="#000000" points="231,-622.5 231,-652.5 588,-652.5 588,-622.5 231,-622.5"/>
<text text-anchor="start" x="238" y="-633.9" font-family="Arial" font-size="14.00" fill="#000000">description </text>
<text text-anchor="start" x="309.568" y="-633.9" font-family="Arial" font-size="14.00" fill="#666666">[text]</text>
<polygon fill="none" stroke="#000000" points="231,-592.5 231,-622.5 588,-622.5 588,-592.5 231,-592.5"/>
<text text-anchor="start" x="238" y="-603.9" font-family="Arial" font-size="14.00" fill="#000000">resolution </text>
<text text-anchor="start" x="302.568" y="-603.9" font-family="Arial" font-size="14.00" fill="#666666">[text]</text>
<polygon fill="none" stroke="#000000" points="231,-562.5 231,-592.5 588,-592.5 588,-562.5 231,-562.5"/>
<text text-anchor="start" x="238" y="-573.9" font-family="Arial" font-size="14.00" fill="#000000">status </text>
<text text-anchor="start" x="279.237" y="-573.9" font-family="Arial" font-size="14.00" fill="#666666">[report_status]</text>
<polygon fill="none" stroke="#000000" stroke-width="3" points="229,-561.5 229,-749.5 589,-749.5 589,-561.5 229,-561.5"/>
</g>
<!-- public.post -->
<g id="node2" class="node">
<title>public.post</title>
<polygon fill="#efefef" stroke="transparent" points="256,-402.5 256,-437.5 563,-437.5 563,-402.5 256,-402.5"/>
<polygon fill="none" stroke="#000000" points="256,-402.5 256,-437.5 563,-437.5 563,-402.5 256,-402.5"/>
<text text-anchor="start" x="302.7041" y="-415.3" font-family="Arial Bold" font-size="18.00" fill="#000000">public.post</text>
<text text-anchor="start" x="388.7279" y="-415.3" font-family="Arial" font-size="14.00" fill="#000000">    </text>
<text text-anchor="start" x="422.9327" y="-415.3" font-family="Arial" font-size="14.00" fill="#666666">[BASE TABLE]</text>
<polygon fill="none" stroke="#000000" points="256,-372.5 256,-402.5 563,-402.5 563,-372.5 256,-372.5"/>
<text text-anchor="start" x="263" y="-383.9" font-family="Arial" font-size="14.00" fill="#000000">id    </text>
<text text-anchor="start" x="308.094" y="-383.9" font-family="Arial" font-size="14.00" fill="#666666">[uuid]</text>
<polygon fill="none" stroke="#000000" points="256,-342.5 256,-372.5 563,-372.5 563,-342.5 256,-342.5"/>
<text text-anchor="start" x="263" y="-353.9" font-family="Arial" font-size="14.00" fill="#000000">name    </text>
<text text-anchor="start" x="332.2132" y="-353.9" font-family="Arial" font-size="14.00" fill="#666666">[text]</text>
<polygon fill="none" stroke="#000000" points="256,-312.5 256,-342.5 563,-342.5 563,-312.5 256,-312.5"/>
<text text-anchor="start" x="263" y="-323.9" font-family="Arial" font-size="14.00" fill="#000000">description    </text>
<text text-anchor="start" x="364.8822" y="-323.9" font-family="Arial" font-size="14.00" fill="#666666">[text]</text>
<polygon fill="none" stroke="#000000" points="256,-282.5 256,-312.5 563,-312.5 563,-282.5 256,-282.5"/>
<text text-anchor="start" x="263" y="-293.9" font-family="Arial" font-size="14.00" fill="#000000">alt_text    </text>
<text text-anchor="start" x="342.331" y="-293.9" font-family="Arial" font-size="14.00" fill="#666666">[text]</text>
<polygon fill="none" stroke="#000000" points="256,-252.5 256,-282.5 563,-282.5 563,-252.5 256,-252.5"/>
<text text-anchor="start" x="263" y="-263.9" font-family="Arial" font-size="14.00" fill="#000000">created_by    </text>
<text text-anchor="start" x="366.4516" y="-263.9" font-family="Arial" font-size="14.00" fill="#666666">[uuid]</text>
<polygon fill="none" stroke="#000000" points="256,-222.5 256,-252.5 563,-252.5 563,-222.5 256,-222.5"/>
<text text-anchor="start" x="263" y="-233.9" font-family="Arial" font-size="14.00" fill="#000000">channel_id    </text>
<text text-anchor="start" x="364.8962" y="-233.9" font-family="Arial" font-size="14.00" fill="#666666">[uuid]</text>
<polygon fill="none" stroke="#000000" points="256,-192.5 256,-222.5 563,-222.5 563,-192.5 256,-192.5"/>
<text text-anchor="start" x="263" y="-203.9" font-family="Arial" font-size="14.00" fill="#000000">video_id    </text>
<text text-anchor="start" x="349.331" y="-203.9" font-family="Arial" font-size="14.00" fill="#666666">[text]</text>
<polygon fill="none" stroke="#000000" points="256,-162.5 256,-192.5 563,-192.5 563,-162.5 256,-162.5"/>
<text text-anchor="start" x="263" y="-173.9" font-family="Arial" font-size="14.00" fill="#000000">created_on    </text>
<text text-anchor="start" x="367.2342" y="-173.9" font-family="Arial" font-size="14.00" fill="#666666">[timestamp without time zone]</text>
<polygon fill="none" stroke="#000000" points="256,-132.5 256,-162.5 563,-162.5 563,-132.5 256,-132.5"/>
<text text-anchor="start" x="262.8605" y="-143.9" font-family="Arial" font-size="14.00" fill="#000000">updated_on    </text>
<text text-anchor="start" x="370.9993" y="-143.9" font-family="Arial" font-size="14.00" fill="#666666">[timestamp without time zone]</text>
<polygon fill="none" stroke="#000000" points="256,-102.5 256,-132.5 563,-132.5 563,-102.5 256,-102.5"/>
<text text-anchor="start" x="263" y="-113.9" font-family="Arial" font-size="14.00" fill="#000000">upvotes    </text>
<text text-anchor="start" x="346.2258" y="-113.9" font-family="Arial" font-size="14.00" fill="#666666">[integer]</text>
<polygon fill="none" stroke="#000000" points="256,-72.5 256,-102.5 563,-102.5 563,-72.5 256,-72.5"/>
<text text-anchor="start" x="263" y="-83.9" font-family="Arial" font-size="14.00" fill="#000000">downvotes    </text>
<text text-anchor="start" x="364.115" y="-83.9" font-family="Arial" font-size="14.00" fill="#666666">[integer]</text>
<polygon fill="none" stroke="#000000" points="256,-42.5 256,-72.5 563,-72.5 563,-42.5 256,-42.5"/>
<text text-anchor="start" x="263" y="-53.9" font-family="Arial" font-size="14.00" fill="#000000">comments    </text>
<text text-anchor="start" x="361.7644" y="-53.9" font-family="Arial" font-size="14.00" fill="#666666">[integer]</text>
</g>
<!-- public.channel_post_report&#45;&gt;public.post -->
<g id="edge1" class="edge">
<title>public.channel_post_report:post_id&#45;&gt;public.post:id</title>
<path fill="none" stroke="#000000" d="M221.2178,-664.9069C171.4825,-636.6795 197.0686,-387.5 256,-387.5"/>
<polygon fill="#000000" stroke="#000000" points="221.3338,-664.9376 229.8469,-671.8498 226.1669,-666.2188 231,-667.5 231,-667.5 231,-667.5 226.1669,-666.2188 232.1531,-663.1502 221.3338,-664.9376 221.3338,-664.9376"/>
<text text-anchor="start" x="7.3845" y="-677.5" font-family="Arial" font-size="10.00" fill="#000000">FOREIGN KEY (post_id) REFERENCES post(id)</text>
</g>
</g>
</svg>
