<?xml version="1.0" encoding="UTF-8" standalone="no"?>
<!DOCTYPE svg PUBLIC "-//W3C//DTD SVG 1.1//EN"
 "http://www.w3.org/Graphics/SVG/1.1/DTD/svg11.dtd">
<!-- Generated by graphviz version 2.40.1 (20161225.0304)
 -->
<!-- Title: public.comment_vote Pages: 1 -->
<svg width="841pt" height="682pt"
 viewBox="0.00 0.00 840.50 682.00" xmlns="http://www.w3.org/2000/svg" xmlns:xlink="http://www.w3.org/1999/xlink">
<g id="graph0" class="graph" transform="scale(1 1) rotate(0) translate(4 678)">
<title>public.comment_vote</title>
<polygon fill="#ffffff" stroke="transparent" points="-4,4 -4,-678 836.5,-678 836.5,4 -4,4"/>
<!-- public.comment_vote -->
<g id="node1" class="node">
<title>public.comment_vote</title>
<polygon fill="#efefef" stroke="transparent" points="275,-592.5 275,-627.5 586,-627.5 586,-592.5 275,-592.5"/>
<polygon fill="none" stroke="#000000" points="275,-592.5 275,-627.5 586,-627.5 586,-592.5 275,-592.5"/>
<text text-anchor="start" x="281.6984" y="-605.3" font-family="Arial Bold" font-size="18.00" fill="#000000">public.comment_vote</text>
<text text-anchor="start" x="451.7336" y="-605.3" font-family="Arial" font-size="14.00" fill="#000000">    </text>
<text text-anchor="start" x="485.9384" y="-605.3" font-family="Arial" font-size="14.00" fill="#666666">[BASE TABLE]</text>
<polygon fill="none" stroke="#000000" points="275,-562.5 275,-592.5 586,-592.5 586,-562.5 275,-562.5"/>
<text text-anchor="start" x="282" y="-573.9" font-family="Arial" font-size="14.00" fill="#000000">comment_id </text>
<text text-anchor="start" x="362.122" y="-573.9" font-family="Arial" font-size="14.00" fill="#666666">[uuid]</text>
<polygon fill="none" stroke="#000000" points="275,-532.5 275,-562.5 586,-562.5 586,-532.5 275,-532.5"/>
<text text-anchor="start" x="282" y="-543.9" font-family="Arial" font-size="14.00" fill="#000000">user_id </text>
<text text-anchor="start" x="331.7882" y="-543.9" font-family="Arial" font-size="14.00" fill="#666666">[uuid]</text>
<polygon fill="none" stroke="#000000" points="275,-502.5 275,-532.5 586,-532.5 586,-502.5 275,-502.5"/>
<text text-anchor="start" x="282" y="-513.9" font-family="Arial" font-size="14.00" fill="#000000">vote </text>
<text text-anchor="start" x="312.3464" y="-513.9" font-family="Arial" font-size="14.00" fill="#666666">[vote]</text>
<polygon fill="none" stroke="#000000" stroke-width="3" points="273,-501.5 273,-629.5 587,-629.5 587,-501.5 273,-501.5"/>
</g>
<!-- public.comment -->
<g id="node2" class="node">
<title>public.comment</title>
<polygon fill="#efefef" stroke="transparent" points="72,-327.5 72,-362.5 379,-362.5 379,-327.5 72,-327.5"/>
<polygon fill="none" stroke="#000000" points="72,-327.5 72,-362.5 379,-362.5 379,-327.5 72,-327.5"/>
<text text-anchor="start" x="98.7088" y="-340.3" font-family="Arial Bold" font-size="18.00" fill="#000000">public.comment</text>
<text text-anchor="start" x="224.7232" y="-340.3" font-family="Arial" font-size="14.00" fill="#000000">    </text>
<text text-anchor="start" x="258.928" y="-340.3" font-family="Arial" font-size="14.00" fill="#666666">[BASE TABLE]</text>
<polygon fill="none" stroke="#000000" points="72,-297.5 72,-327.5 379,-327.5 379,-297.5 72,-297.5"/>
<text text-anchor="start" x="79" y="-308.9" font-family="Arial" font-size="14.00" fill="#000000">id    </text>
<text text-anchor="start" x="124.094" y="-308.9" font-family="Arial" font-size="14.00" fill="#666666">[uuid]</text>
<polygon fill="none" stroke="#000000" points="72,-267.5 72,-297.5 379,-297.5 379,-267.5 72,-267.5"/>
<text text-anchor="start" x="79" y="-278.9" font-family="Arial" font-size="14.00" fill="#000000">content    </text>
<text text-anchor="start" x="159.1164" y="-278.9" font-family="Arial" font-size="14.00" fill="#666666">[text]</text>
<polygon fill="none" stroke="#000000" points="72,-237.5 72,-267.5 379,-267.5 379,-237.5 72,-237.5"/>
<text text-anchor="start" x="79" y="-248.9" font-family="Arial" font-size="14.00" fill="#000000">creator_id    </text>
<text text-anchor="start" x="175.4362" y="-248.9" font-family="Arial" font-size="14.00" fill="#666666">[uuid]</text>
<polygon fill="none" stroke="#000000" points="72,-207.5 72,-237.5 379,-237.5 379,-207.5 72,-207.5"/>
<text text-anchor="start" x="79" y="-218.9" font-family="Arial" font-size="14.00" fill="#000000">post_id    </text>
<text text-anchor="start" x="158.3324" y="-218.9" font-family="Arial" font-size="14.00" fill="#666666">[uuid]</text>
<polygon fill="none" stroke="#000000" points="72,-177.5 72,-207.5 379,-207.5 379,-177.5 72,-177.5"/>
<text text-anchor="start" x="79" y="-188.9" font-family="Arial" font-size="14.00" fill="#000000">reply_to    </text>
<text text-anchor="start" x="162.993" y="-188.9" font-family="Arial" font-size="14.00" fill="#666666">[uuid]</text>
<polygon fill="none" stroke="#000000" points="72,-147.5 72,-177.5 379,-177.5 379,-147.5 72,-147.5"/>
<text text-anchor="start" x="79" y="-158.9" font-family="Arial" font-size="14.00" fill="#000000">created_on    </text>
<text text-anchor="start" x="183.2342" y="-158.9" font-family="Arial" font-size="14.00" fill="#666666">[timestamp without time zone]</text>
<polygon fill="none" stroke="#000000" points="72,-117.5 72,-147.5 379,-147.5 379,-117.5 72,-117.5"/>
<text text-anchor="start" x="78.8605" y="-128.9" font-family="Arial" font-size="14.00" fill="#000000">updated_on    </text>
<text text-anchor="start" x="186.9993" y="-128.9" font-family="Arial" font-size="14.00" fill="#666666">[timestamp without time zone]</text>
<polygon fill="none" stroke="#000000" points="72,-87.5 72,-117.5 379,-117.5 379,-87.5 72,-87.5"/>
<text text-anchor="start" x="79" y="-98.9" font-family="Arial" font-size="14.00" fill="#000000">upvotes    </text>
<text text-anchor="start" x="162.2258" y="-98.9" font-family="Arial" font-size="14.00" fill="#666666">[integer]</text>
<polygon fill="none" stroke="#000000" points="72,-57.5 72,-87.5 379,-87.5 379,-57.5 72,-57.5"/>
<text text-anchor="start" x="79" y="-68.9" font-family="Arial" font-size="14.00" fill="#000000">downvotes    </text>
<text text-anchor="start" x="180.115" y="-68.9" font-family="Arial" font-size="14.00" fill="#666666">[integer]</text>
</g>
<!-- public.comment_vote&#45;&gt;public.comment -->
<g id="edge1" class="edge">
<title>public.comment_vote:comment_id&#45;&gt;public.comment:id</title>
<path fill="none" stroke="#000000" d="M264.8452,-576.4232C225.0069,-567.0922 248.6606,-499.2525 275,-457 302.2339,-413.3126 351.7661,-449.6874 379,-406 400.9834,-370.7353 420.5556,-312.5 379,-312.5"/>
<polygon fill="#000000" stroke="#000000" points="265.0557,-576.4455 274.5255,-581.9749 270.0279,-576.9727 275,-577.5 275,-577.5 275,-577.5 270.0279,-576.9727 275.4745,-573.0251 265.0557,-576.4455 265.0557,-576.4455"/>
<text text-anchor="start" x="7.1675" y="-587.5" font-family="Arial" font-size="10.00" fill="#000000">FOREIGN KEY (comment_id) REFERENCES comment(id)</text>
</g>
<!-- public.user -->
<g id="node3" class="node">
<title>public.user</title>
<polygon fill="#efefef" stroke="transparent" points="483,-342.5 483,-377.5 790,-377.5 790,-342.5 483,-342.5"/>
<polygon fill="none" stroke="#000000" points="483,-342.5 483,-377.5 790,-377.5 790,-342.5 483,-342.5"/>
<text text-anchor="start" x="529.2091" y="-355.3" font-family="Arial Bold" font-size="18.00" fill="#000000">public.user</text>
<text text-anchor="start" x="616.2229" y="-355.3" font-family="Arial" font-size="14.00" fill="#000000">    </text>
<text text-anchor="start" x="650.4277" y="-355.3" font-family="Arial" font-size="14.00" fill="#666666">[BASE TABLE]</text>
<polygon fill="none" stroke="#000000" points="483,-312.5 483,-342.5 790,-342.5 790,-312.5 483,-312.5"/>
<text text-anchor="start" x="490" y="-323.9" font-family="Arial" font-size="14.00" fill="#000000">id    </text>
<text text-anchor="start" x="535.094" y="-323.9" font-family="Arial" font-size="14.00" fill="#666666">[uuid]</text>
<polygon fill="none" stroke="#000000" points="483,-282.5 483,-312.5 790,-312.5 790,-282.5 483,-282.5"/>
<text text-anchor="start" x="490" y="-293.9" font-family="Arial" font-size="14.00" fill="#000000">username    </text>
<text text-anchor="start" x="586.439" y="-293.9" font-family="Arial" font-size="14.00" fill="#666666">[varchar(25)]</text>
<polygon fill="none" stroke="#000000" points="483,-252.5 483,-282.5 790,-282.5 790,-252.5 483,-252.5"/>
<text text-anchor="start" x="490" y="-263.9" font-family="Arial" font-size="14.00" fill="#000000">profile_image    </text>
<text text-anchor="start" x="608.2146" y="-263.9" font-family="Arial" font-size="14.00" fill="#666666">[text]</text>
<polygon fill="none" stroke="#000000" points="483,-222.5 483,-252.5 790,-252.5 790,-222.5 483,-222.5"/>
<text text-anchor="start" x="490" y="-233.9" font-family="Arial" font-size="14.00" fill="#000000">role    </text>
<text text-anchor="start" x="547.5372" y="-233.9" font-family="Arial" font-size="14.00" fill="#666666">[site_role]</text>
<polygon fill="none" stroke="#000000" points="483,-192.5 483,-222.5 790,-222.5 790,-192.5 483,-192.5"/>
<text text-anchor="start" x="490" y="-203.9" font-family="Arial" font-size="14.00" fill="#000000">created_on    </text>
<text text-anchor="start" x="594.2342" y="-203.9" font-family="Arial" font-size="14.00" fill="#666666">[timestamp without time zone]</text>
<polygon fill="none" stroke="#000000" points="483,-162.5 483,-192.5 790,-192.5 790,-162.5 483,-162.5"/>
<text text-anchor="start" x="489.8605" y="-173.9" font-family="Arial" font-size="14.00" fill="#000000">updated_on    </text>
<text text-anchor="start" x="597.9993" y="-173.9" font-family="Arial" font-size="14.00" fill="#666666">[timestamp without time zone]</text>
<polygon fill="none" stroke="#000000" points="483,-132.5 483,-162.5 790,-162.5 790,-132.5 483,-132.5"/>
<text text-anchor="start" x="490" y="-143.9" font-family="Arial" font-size="14.00" fill="#000000">discord_id    </text>
<text text-anchor="start" x="587.9916" y="-143.9" font-family="Arial" font-size="14.00" fill="#666666">[bigint]</text>
<polygon fill="none" stroke="#000000" points="483,-102.5 483,-132.5 790,-132.5 790,-102.5 483,-102.5"/>
<text text-anchor="start" x="490" y="-113.9" font-family="Arial" font-size="14.00" fill="#000000">github_id    </text>
<text text-anchor="start" x="581.0042" y="-113.9" font-family="Arial" font-size="14.00" fill="#666666">[integer]</text>
<polygon fill="none" stroke="#000000" points="483,-72.5 483,-102.5 790,-102.5 790,-72.5 483,-72.5"/>
<text text-anchor="start" x="490" y="-83.9" font-family="Arial" font-size="14.00" fill="#000000">followers    </text>
<text text-anchor="start" x="579.4236" y="-83.9" font-family="Arial" font-size="14.00" fill="#666666">[integer]</text>
<polygon fill="none" stroke="#000000" points="483,-42.5 483,-72.5 790,-72.5 790,-42.5 483,-42.5"/>
<text text-anchor="start" x="490" y="-53.9" font-family="Arial" font-size="14.00" fill="#000000">following    </text>
<text text-anchor="start" x="578.6522" y="-53.9" font-family="Arial" font-size="14.00" fill="#666666">[integer]</text>
</g>
<!-- public.comment_vote&#45;&gt;public.user -->
<g id="edge2" class="edge">
<title>public.comment_vote:user_id&#45;&gt;public.user:id</title>
<path fill="none" stroke="#000000" d="M596.1957,-545.9261C622.853,-536.4678 607.0077,-486.5964 586,-457 557.9312,-417.4557 511.0688,-460.5443 483,-421 458.9469,-387.1132 441.4444,-327.5 483,-327.5"/>
<polygon fill="#000000" stroke="#000000" points="595.8829,-545.9743 585.3134,-543.0527 590.9415,-546.7372 586,-547.5 586,-547.5 586,-547.5 590.9415,-546.7372 586.6866,-551.9473 595.8829,-545.9743 595.8829,-545.9743"/>
<text text-anchor="start" x="593.2855" y="-557.5" font-family="Arial" font-size="10.00" fill="#000000">FOREIGN KEY (user_id) REFERENCES &quot;user&quot;(id)</text>
</g>
</g>
</svg>
