<?xml version="1.0" encoding="UTF-8" standalone="no"?>
<!DOCTYPE svg PUBLIC "-//W3C//DTD SVG 1.1//EN"
 "http://www.w3.org/Graphics/SVG/1.1/DTD/svg11.dtd">
<!-- Generated by graphviz version 2.40.1 (20161225.0304)
 -->
<!-- Title: public.channel Pages: 1 -->
<svg width="3773pt" height="1829pt"
 viewBox="0.00 0.00 3772.50 1829.00" xmlns="http://www.w3.org/2000/svg" xmlns:xlink="http://www.w3.org/1999/xlink">
<g id="graph0" class="graph" transform="scale(1 1) rotate(0) translate(4 1825)">
<title>public.channel</title>
<polygon fill="#ffffff" stroke="transparent" points="-4,4 -4,-1825 3768.5,-1825 3768.5,4 -4,4"/>
<!-- public.channel -->
<g id="node1" class="node">
<title>public.channel</title>
<polygon fill="#efefef" stroke="transparent" points="1758.5,-712.5 1758.5,-747.5 2034.5,-747.5 2034.5,-712.5 1758.5,-712.5"/>
<polygon fill="none" stroke="#000000" points="1758.5,-712.5 1758.5,-747.5 2034.5,-747.5 2034.5,-712.5 1758.5,-712.5"/>
<text text-anchor="start" x="1775.1988" y="-725.3" font-family="Arial Bold" font-size="18.00" fill="#000000">public.channel</text>
<text text-anchor="start" x="1890.2332" y="-725.3" font-family="Arial" font-size="14.00" fill="#000000">    </text>
<text text-anchor="start" x="1924.438" y="-725.3" font-family="Arial" font-size="14.00" fill="#666666">[BASE TABLE]</text>
<polygon fill="none" stroke="#000000" points="1758.5,-682.5 1758.5,-712.5 2034.5,-712.5 2034.5,-682.5 1758.5,-682.5"/>
<text text-anchor="start" x="1765.5" y="-693.9" font-family="Arial" font-size="14.00" fill="#000000">id </text>
<text text-anchor="start" x="1780.2798" y="-693.9" font-family="Arial" font-size="14.00" fill="#666666">[uuid]</text>
<polygon fill="none" stroke="#000000" points="1758.5,-652.5 1758.5,-682.5 2034.5,-682.5 2034.5,-652.5 1758.5,-652.5"/>
<text text-anchor="start" x="1765.5" y="-663.9" font-family="Arial" font-size="14.00" fill="#000000">name </text>
<text text-anchor="start" x="1804.399" y="-663.9" font-family="Arial" font-size="14.00" fill="#666666">[text]</text>
<polygon fill="none" stroke="#000000" points="1758.5,-622.5 1758.5,-652.5 2034.5,-652.5 2034.5,-622.5 1758.5,-622.5"/>
<text text-anchor="start" x="1765.5" y="-633.9" font-family="Arial" font-size="14.00" fill="#000000">description </text>
<text text-anchor="start" x="1837.068" y="-633.9" font-family="Arial" font-size="14.00" fill="#666666">[text]</text>
<polygon fill="none" stroke="#000000" points="1758.5,-592.5 1758.5,-622.5 2034.5,-622.5 2034.5,-592.5 1758.5,-592.5"/>
<text text-anchor="start" x="1765.5" y="-603.9" font-family="Arial" font-size="14.00" fill="#000000">guidelines </text>
<text text-anchor="start" x="1832.406" y="-603.9" font-family="Arial" font-size="14.00" fill="#666666">[text]</text>
<polygon fill="none" stroke="#000000" points="1758.5,-562.5 1758.5,-592.5 2034.5,-592.5 2034.5,-562.5 1758.5,-562.5"/>
<text text-anchor="start" x="1765.5" y="-573.9" font-family="Arial" font-size="14.00" fill="#000000">created_by </text>
<text text-anchor="start" x="1838.6374" y="-573.9" font-family="Arial" font-size="14.00" fill="#666666">[uuid]</text>
<polygon fill="none" stroke="#000000" points="1758.5,-532.5 1758.5,-562.5 2034.5,-562.5 2034.5,-532.5 1758.5,-532.5"/>
<text text-anchor="start" x="1765.5" y="-543.9" font-family="Arial" font-size="14.00" fill="#000000">banner_image </text>
<text text-anchor="start" x="1858.8618" y="-543.9" font-family="Arial" font-size="14.00" fill="#666666">[text]</text>
<polygon fill="none" stroke="#000000" points="1758.5,-502.5 1758.5,-532.5 2034.5,-532.5 2034.5,-502.5 1758.5,-502.5"/>
<text text-anchor="start" x="1765.5" y="-513.9" font-family="Arial" font-size="14.00" fill="#000000">icon </text>
<text text-anchor="start" x="1795.0624" y="-513.9" font-family="Arial" font-size="14.00" fill="#666666">[text]</text>
<polygon fill="none" stroke="#000000" points="1758.5,-472.5 1758.5,-502.5 2034.5,-502.5 2034.5,-472.5 1758.5,-472.5"/>
<text text-anchor="start" x="1765.5" y="-483.9" font-family="Arial" font-size="14.00" fill="#000000">created_on </text>
<text text-anchor="start" x="1839.42" y="-483.9" font-family="Arial" font-size="14.00" fill="#666666">[timestamp without time zone]</text>
<polygon fill="none" stroke="#000000" points="1758.5,-442.5 1758.5,-472.5 2034.5,-472.5 2034.5,-442.5 1758.5,-442.5"/>
<text text-anchor="start" x="1765.0176" y="-453.9" font-family="Arial" font-size="14.00" fill="#000000">updated_on </text>
<text text-anchor="start" x="1842.8422" y="-453.9" font-family="Arial" font-size="14.00" fill="#666666">[timestamp without time zone]</text>
<polygon fill="none" stroke="#000000" stroke-width="3" points="1757,-441.5 1757,-749.5 2036,-749.5 2036,-441.5 1757,-441.5"/>
</g>
<!-- public.user -->
<g id="node11" class="node">
<title>public.user</title>
<polygon fill="#efefef" stroke="transparent" points="1742.5,-282.5 1742.5,-317.5 2049.5,-317.5 2049.5,-282.5 1742.5,-282.5"/>
<polygon fill="none" stroke="#000000" points="1742.5,-282.5 1742.5,-317.5 2049.5,-317.5 2049.5,-282.5 1742.5,-282.5"/>
<text text-anchor="start" x="1788.7091" y="-295.3" font-family="Arial Bold" font-size="18.00" fill="#000000">public.user</text>
<text text-anchor="start" x="1875.7229" y="-295.3" font-family="Arial" font-size="14.00" fill="#000000">    </text>
<text text-anchor="start" x="1909.9277" y="-295.3" font-family="Arial" font-size="14.00" fill="#666666">[BASE TABLE]</text>
<polygon fill="none" stroke="#000000" points="1742.5,-252.5 1742.5,-282.5 2049.5,-282.5 2049.5,-252.5 1742.5,-252.5"/>
<text text-anchor="start" x="1749.5" y="-263.9" font-family="Arial" font-size="14.00" fill="#000000">id    </text>
<text text-anchor="start" x="1794.594" y="-263.9" font-family="Arial" font-size="14.00" fill="#666666">[uuid]</text>
<polygon fill="none" stroke="#000000" points="1742.5,-222.5 1742.5,-252.5 2049.5,-252.5 2049.5,-222.5 1742.5,-222.5"/>
<text text-anchor="start" x="1749.5" y="-233.9" font-family="Arial" font-size="14.00" fill="#000000">username    </text>
<text text-anchor="start" x="1845.939" y="-233.9" font-family="Arial" font-size="14.00" fill="#666666">[varchar(25)]</text>
<polygon fill="none" stroke="#000000" points="1742.5,-192.5 1742.5,-222.5 2049.5,-222.5 2049.5,-192.5 1742.5,-192.5"/>
<text text-anchor="start" x="1749.5" y="-203.9" font-family="Arial" font-size="14.00" fill="#000000">profile_image    </text>
<text text-anchor="start" x="1867.7146" y="-203.9" font-family="Arial" font-size="14.00" fill="#666666">[text]</text>
<polygon fill="none" stroke="#000000" points="1742.5,-162.5 1742.5,-192.5 2049.5,-192.5 2049.5,-162.5 1742.5,-162.5"/>
<text text-anchor="start" x="1749.5" y="-173.9" font-family="Arial" font-size="14.00" fill="#000000">role    </text>
<text text-anchor="start" x="1807.0372" y="-173.9" font-family="Arial" font-size="14.00" fill="#666666">[site_role]</text>
<polygon fill="none" stroke="#000000" points="1742.5,-132.5 1742.5,-162.5 2049.5,-162.5 2049.5,-132.5 1742.5,-132.5"/>
<text text-anchor="start" x="1749.5" y="-143.9" font-family="Arial" font-size="14.00" fill="#000000">created_on    </text>
<text text-anchor="start" x="1853.7342" y="-143.9" font-family="Arial" font-size="14.00" fill="#666666">[timestamp without time zone]</text>
<polygon fill="none" stroke="#000000" points="1742.5,-102.5 1742.5,-132.5 2049.5,-132.5 2049.5,-102.5 1742.5,-102.5"/>
<text text-anchor="start" x="1749.3605" y="-113.9" font-family="Arial" font-size="14.00" fill="#000000">updated_on    </text>
<text text-anchor="start" x="1857.4993" y="-113.9" font-family="Arial" font-size="14.00" fill="#666666">[timestamp without time zone]</text>
<polygon fill="none" stroke="#000000" points="1742.5,-72.5 1742.5,-102.5 2049.5,-102.5 2049.5,-72.5 1742.5,-72.5"/>
<text text-anchor="start" x="1749.5" y="-83.9" font-family="Arial" font-size="14.00" fill="#000000">discord_id    </text>
<text text-anchor="start" x="1847.4916" y="-83.9" font-family="Arial" font-size="14.00" fill="#666666">[bigint]</text>
<polygon fill="none" stroke="#000000" points="1742.5,-42.5 1742.5,-72.5 2049.5,-72.5 2049.5,-42.5 1742.5,-42.5"/>
<text text-anchor="start" x="1749.5" y="-53.9" font-family="Arial" font-size="14.00" fill="#000000">github_id    </text>
<text text-anchor="start" x="1840.5042" y="-53.9" font-family="Arial" font-size="14.00" fill="#666666">[integer]</text>
</g>
<!-- public.channel&#45;&gt;public.user -->
<g id="edge10" class="edge">
<title>public.channel:created_by&#45;&gt;public.user:id</title>
<path fill="none" stroke="#000000" d="M1748.3311,-576.7875C1680.7644,-566.8051 1707.7573,-454.407 1758.5,-397 1844.8076,-299.3572 1963.1924,-458.6428 2049.5,-361 2077.0213,-329.8642 2091.0556,-267.5 2049.5,-267.5"/>
<polygon fill="#000000" stroke="#000000" points="1748.5245,-576.801 1758.1854,-581.989 1753.5122,-577.1505 1758.5,-577.5 1758.5,-577.5 1758.5,-577.5 1753.5122,-577.1505 1758.8146,-573.011 1748.5245,-576.801 1748.5245,-576.801"/>
<text text-anchor="start" x="1509.4465" y="-587.5" font-family="Arial" font-size="10.00" fill="#000000">FOREIGN KEY (created_by) REFERENCES &quot;user&quot;(id)</text>
</g>
<!-- public.channel_user_ban -->
<g id="node2" class="node">
<title>public.channel_user_ban</title>
<polygon fill="#efefef" stroke="transparent" points="43.5,-1382.5 43.5,-1417.5 384.5,-1417.5 384.5,-1382.5 43.5,-1382.5"/>
<polygon fill="none" stroke="#000000" points="43.5,-1382.5 43.5,-1417.5 384.5,-1417.5 384.5,-1382.5 43.5,-1382.5"/>
<text text-anchor="start" x="50.181" y="-1395.3" font-family="Arial Bold" font-size="18.00" fill="#000000">public.channel_user_ban</text>
<text text-anchor="start" x="250.251" y="-1395.3" font-family="Arial" font-size="14.00" fill="#000000">    </text>
<text text-anchor="start" x="284.4558" y="-1395.3" font-family="Arial" font-size="14.00" fill="#666666">[BASE TABLE]</text>
<polygon fill="none" stroke="#000000" points="43.5,-1352.5 43.5,-1382.5 384.5,-1382.5 384.5,-1352.5 43.5,-1352.5"/>
<text text-anchor="start" x="50.5" y="-1363.9" font-family="Arial" font-size="14.00" fill="#000000">id    </text>
<text text-anchor="start" x="95.594" y="-1363.9" font-family="Arial" font-size="14.00" fill="#666666">[uuid]</text>
<polygon fill="none" stroke="#000000" points="43.5,-1322.5 43.5,-1352.5 384.5,-1352.5 384.5,-1322.5 43.5,-1322.5"/>
<text text-anchor="start" x="50.5" y="-1333.9" font-family="Arial" font-size="14.00" fill="#000000">channel_id    </text>
<text text-anchor="start" x="152.3962" y="-1333.9" font-family="Arial" font-size="14.00" fill="#666666">[uuid]</text>
<polygon fill="none" stroke="#000000" points="43.5,-1292.5 43.5,-1322.5 384.5,-1322.5 384.5,-1292.5 43.5,-1292.5"/>
<text text-anchor="start" x="50.5" y="-1303.9" font-family="Arial" font-size="14.00" fill="#000000">user_id    </text>
<text text-anchor="start" x="130.6024" y="-1303.9" font-family="Arial" font-size="14.00" fill="#666666">[uuid]</text>
<polygon fill="none" stroke="#000000" points="43.5,-1262.5 43.5,-1292.5 384.5,-1292.5 384.5,-1262.5 43.5,-1262.5"/>
<text text-anchor="start" x="50.5" y="-1273.9" font-family="Arial" font-size="14.00" fill="#000000">created_on    </text>
<text text-anchor="start" x="154.7342" y="-1273.9" font-family="Arial" font-size="14.00" fill="#666666">[timestamp without time zone]</text>
<polygon fill="none" stroke="#000000" points="43.5,-1232.5 43.5,-1262.5 384.5,-1262.5 384.5,-1232.5 43.5,-1232.5"/>
<text text-anchor="start" x="50.5" y="-1243.9" font-family="Arial" font-size="14.00" fill="#000000">pardoned    </text>
<text text-anchor="start" x="143.8436" y="-1243.9" font-family="Arial" font-size="14.00" fill="#666666">[boolean]</text>
</g>
<!-- public.channel_user_ban&#45;&gt;public.channel -->
<g id="edge1" class="edge">
<title>public.channel_user_ban:channel_id&#45;&gt;public.channel:id</title>
<path fill="none" stroke="#000000" d="M394.6771,-1336.1944C488.892,-1310.3155 357.9222,-907.5516 435.5,-830 539.9823,-725.553 1610.7646,-697.5 1758.5,-697.5"/>
<polygon fill="#000000" stroke="#000000" points="394.4187,-1336.2275 383.9274,-1333.0366 389.4594,-1336.8637 384.5,-1337.5 384.5,-1337.5 384.5,-1337.5 389.4594,-1336.8637 385.0726,-1341.9634 394.4187,-1336.2275 394.4187,-1336.2275"/>
<text text-anchor="start" x="260.2675" y="-1321.5" font-family="Arial" font-size="10.00" fill="#000000">FOREIGN KEY (channel_id) REFERENCES channel(id)</text>
</g>
<!-- public.invite -->
<g id="node3" class="node">
<title>public.invite</title>
<polygon fill="#efefef" stroke="transparent" points="488.5,-1367.5 488.5,-1402.5 791.5,-1402.5 791.5,-1367.5 488.5,-1367.5"/>
<polygon fill="none" stroke="#000000" points="488.5,-1367.5 488.5,-1402.5 791.5,-1402.5 791.5,-1367.5 488.5,-1367.5"/>
<text text-anchor="start" x="529.2099" y="-1380.3" font-family="Arial Bold" font-size="18.00" fill="#000000">public.invite</text>
<text text-anchor="start" x="623.2221" y="-1380.3" font-family="Arial" font-size="14.00" fill="#000000">    </text>
<text text-anchor="start" x="657.4269" y="-1380.3" font-family="Arial" font-size="14.00" fill="#666666">[BASE TABLE]</text>
<polygon fill="none" stroke="#000000" points="488.5,-1337.5 488.5,-1367.5 791.5,-1367.5 791.5,-1337.5 488.5,-1337.5"/>
<text text-anchor="start" x="495.5" y="-1348.9" font-family="Arial" font-size="14.00" fill="#000000">channel_id    </text>
<text text-anchor="start" x="597.3962" y="-1348.9" font-family="Arial" font-size="14.00" fill="#666666">[uuid]</text>
<polygon fill="none" stroke="#000000" points="488.5,-1307.5 488.5,-1337.5 791.5,-1337.5 791.5,-1307.5 488.5,-1307.5"/>
<text text-anchor="start" x="495.5" y="-1318.9" font-family="Arial" font-size="14.00" fill="#000000">user_id    </text>
<text text-anchor="start" x="575.6024" y="-1318.9" font-family="Arial" font-size="14.00" fill="#666666">[uuid]</text>
<polygon fill="none" stroke="#000000" points="488.5,-1277.5 488.5,-1307.5 791.5,-1307.5 791.5,-1277.5 488.5,-1277.5"/>
<text text-anchor="start" x="495.3128" y="-1288.9" font-family="Arial" font-size="14.00" fill="#000000">created_on    </text>
<text text-anchor="start" x="599.547" y="-1288.9" font-family="Arial" font-size="14.00" fill="#666666">[timestamp without time zone]</text>
<polygon fill="none" stroke="#000000" points="488.5,-1247.5 488.5,-1277.5 791.5,-1277.5 791.5,-1247.5 488.5,-1247.5"/>
<text text-anchor="start" x="495.5" y="-1258.9" font-family="Arial" font-size="14.00" fill="#000000">role_id    </text>
<text text-anchor="start" x="571.709" y="-1258.9" font-family="Arial" font-size="14.00" fill="#666666">[uuid]</text>
</g>
<!-- public.invite&#45;&gt;public.channel -->
<g id="edge2" class="edge">
<title>public.invite:channel_id&#45;&gt;public.channel:id</title>
<path fill="none" stroke="#000000" d="M801.6819,-1351.2406C899.2455,-1325.4631 764.4583,-911.7458 842.5,-830 913.512,-755.6175 1655.6629,-697.5 1758.5,-697.5"/>
<polygon fill="#000000" stroke="#000000" points="801.4244,-1351.2724 790.9476,-1348.034 796.4622,-1351.8862 791.5,-1352.5 791.5,-1352.5 791.5,-1352.5 796.4622,-1351.8862 792.0524,-1356.966 801.4244,-1351.2724 801.4244,-1351.2724"/>
<text text-anchor="start" x="667.2675" y="-1336.5" font-family="Arial" font-size="10.00" fill="#000000">FOREIGN KEY (channel_id) REFERENCES channel(id)</text>
</g>
<!-- public.post -->
<g id="node4" class="node">
<title>public.post</title>
<polygon fill="#efefef" stroke="transparent" points="895.5,-1472.5 895.5,-1507.5 1202.5,-1507.5 1202.5,-1472.5 895.5,-1472.5"/>
<polygon fill="none" stroke="#000000" points="895.5,-1472.5 895.5,-1507.5 1202.5,-1507.5 1202.5,-1472.5 895.5,-1472.5"/>
<text text-anchor="start" x="942.2041" y="-1485.3" font-family="Arial Bold" font-size="18.00" fill="#000000">public.post</text>
<text text-anchor="start" x="1028.2279" y="-1485.3" font-family="Arial" font-size="14.00" fill="#000000">    </text>
<text text-anchor="start" x="1062.4327" y="-1485.3" font-family="Arial" font-size="14.00" fill="#666666">[BASE TABLE]</text>
<polygon fill="none" stroke="#000000" points="895.5,-1442.5 895.5,-1472.5 1202.5,-1472.5 1202.5,-1442.5 895.5,-1442.5"/>
<text text-anchor="start" x="902.5" y="-1453.9" font-family="Arial" font-size="14.00" fill="#000000">id    </text>
<text text-anchor="start" x="947.594" y="-1453.9" font-family="Arial" font-size="14.00" fill="#666666">[uuid]</text>
<polygon fill="none" stroke="#000000" points="895.5,-1412.5 895.5,-1442.5 1202.5,-1442.5 1202.5,-1412.5 895.5,-1412.5"/>
<text text-anchor="start" x="902.5" y="-1423.9" font-family="Arial" font-size="14.00" fill="#000000">name    </text>
<text text-anchor="start" x="971.7132" y="-1423.9" font-family="Arial" font-size="14.00" fill="#666666">[text]</text>
<polygon fill="none" stroke="#000000" points="895.5,-1382.5 895.5,-1412.5 1202.5,-1412.5 1202.5,-1382.5 895.5,-1382.5"/>
<text text-anchor="start" x="902.5" y="-1393.9" font-family="Arial" font-size="14.00" fill="#000000">description    </text>
<text text-anchor="start" x="1004.3822" y="-1393.9" font-family="Arial" font-size="14.00" fill="#666666">[text]</text>
<polygon fill="none" stroke="#000000" points="895.5,-1352.5 895.5,-1382.5 1202.5,-1382.5 1202.5,-1352.5 895.5,-1352.5"/>
<text text-anchor="start" x="902.5" y="-1363.9" font-family="Arial" font-size="14.00" fill="#000000">alt_text    </text>
<text text-anchor="start" x="981.831" y="-1363.9" font-family="Arial" font-size="14.00" fill="#666666">[text]</text>
<polygon fill="none" stroke="#000000" points="895.5,-1322.5 895.5,-1352.5 1202.5,-1352.5 1202.5,-1322.5 895.5,-1322.5"/>
<text text-anchor="start" x="902.5" y="-1333.9" font-family="Arial" font-size="14.00" fill="#000000">created_by    </text>
<text text-anchor="start" x="1005.9516" y="-1333.9" font-family="Arial" font-size="14.00" fill="#666666">[uuid]</text>
<polygon fill="none" stroke="#000000" points="895.5,-1292.5 895.5,-1322.5 1202.5,-1322.5 1202.5,-1292.5 895.5,-1292.5"/>
<text text-anchor="start" x="902.5" y="-1303.9" font-family="Arial" font-size="14.00" fill="#000000">channel_id    </text>
<text text-anchor="start" x="1004.3962" y="-1303.9" font-family="Arial" font-size="14.00" fill="#666666">[uuid]</text>
<polygon fill="none" stroke="#000000" points="895.5,-1262.5 895.5,-1292.5 1202.5,-1292.5 1202.5,-1262.5 895.5,-1262.5"/>
<text text-anchor="start" x="902.5" y="-1273.9" font-family="Arial" font-size="14.00" fill="#000000">video_id    </text>
<text text-anchor="start" x="988.831" y="-1273.9" font-family="Arial" font-size="14.00" fill="#666666">[text]</text>
<polygon fill="none" stroke="#000000" points="895.5,-1232.5 895.5,-1262.5 1202.5,-1262.5 1202.5,-1232.5 895.5,-1232.5"/>
<text text-anchor="start" x="902.5" y="-1243.9" font-family="Arial" font-size="14.00" fill="#000000">created_on    </text>
<text text-anchor="start" x="1006.7342" y="-1243.9" font-family="Arial" font-size="14.00" fill="#666666">[timestamp without time zone]</text>
<polygon fill="none" stroke="#000000" points="895.5,-1202.5 895.5,-1232.5 1202.5,-1232.5 1202.5,-1202.5 895.5,-1202.5"/>
<text text-anchor="start" x="902.3605" y="-1213.9" font-family="Arial" font-size="14.00" fill="#000000">updated_on    </text>
<text text-anchor="start" x="1010.4993" y="-1213.9" font-family="Arial" font-size="14.00" fill="#666666">[timestamp without time zone]</text>
<polygon fill="none" stroke="#000000" points="895.5,-1172.5 895.5,-1202.5 1202.5,-1202.5 1202.5,-1172.5 895.5,-1172.5"/>
<text text-anchor="start" x="902.5" y="-1183.9" font-family="Arial" font-size="14.00" fill="#000000">upvotes    </text>
<text text-anchor="start" x="985.7258" y="-1183.9" font-family="Arial" font-size="14.00" fill="#666666">[integer]</text>
<polygon fill="none" stroke="#000000" points="895.5,-1142.5 895.5,-1172.5 1202.5,-1172.5 1202.5,-1142.5 895.5,-1142.5"/>
<text text-anchor="start" x="902.5" y="-1153.9" font-family="Arial" font-size="14.00" fill="#000000">downvotes    </text>
<text text-anchor="start" x="1003.615" y="-1153.9" font-family="Arial" font-size="14.00" fill="#666666">[integer]</text>
</g>
<!-- public.post&#45;&gt;public.channel -->
<g id="edge3" class="edge">
<title>public.post:channel_id&#45;&gt;public.channel:id</title>
<path fill="none" stroke="#000000" d="M1212.6517,-1306.1384C1300.9611,-1280.7555 1187.2168,-908.106 1254.5,-830 1330.0822,-742.26 1642.6942,-697.5 1758.5,-697.5"/>
<polygon fill="#000000" stroke="#000000" points="1212.4112,-1306.1705 1201.9017,-1303.0399 1207.4556,-1306.8353 1202.5,-1307.5 1202.5,-1307.5 1202.5,-1307.5 1207.4556,-1306.8353 1203.0983,-1311.9601 1212.4112,-1306.1705 1212.4112,-1306.1705"/>
<text text-anchor="start" x="1078.2675" y="-1291.5" font-family="Arial" font-size="10.00" fill="#000000">FOREIGN KEY (channel_id) REFERENCES channel(id)</text>
</g>
<!-- public.public_channel -->
<g id="node5" class="node">
<title>public.public_channel</title>
<polygon fill="#efefef" stroke="transparent" points="1306.5,-1352.5 1306.5,-1387.5 1634.5,-1387.5 1634.5,-1352.5 1306.5,-1352.5"/>
<polygon fill="none" stroke="#000000" points="1306.5,-1352.5 1306.5,-1387.5 1634.5,-1387.5 1634.5,-1352.5 1306.5,-1352.5"/>
<text text-anchor="start" x="1320.6922" y="-1365.3" font-family="Arial Bold" font-size="18.00" fill="#000000">public.public_channel</text>
<text text-anchor="start" x="1492.7398" y="-1365.3" font-family="Arial" font-size="14.00" fill="#000000">    </text>
<text text-anchor="start" x="1526.9446" y="-1365.3" font-family="Arial" font-size="14.00" fill="#666666">[BASE TABLE]</text>
<polygon fill="none" stroke="#000000" points="1306.5,-1322.5 1306.5,-1352.5 1634.5,-1352.5 1634.5,-1322.5 1306.5,-1322.5"/>
<text text-anchor="start" x="1313.5" y="-1333.9" font-family="Arial" font-size="14.00" fill="#000000">channel_id    </text>
<text text-anchor="start" x="1415.3962" y="-1333.9" font-family="Arial" font-size="14.00" fill="#666666">[uuid]</text>
<polygon fill="none" stroke="#000000" points="1306.5,-1292.5 1306.5,-1322.5 1634.5,-1322.5 1634.5,-1292.5 1306.5,-1292.5"/>
<text text-anchor="start" x="1313.5" y="-1303.9" font-family="Arial" font-size="14.00" fill="#000000">name    </text>
<text text-anchor="start" x="1382.7132" y="-1303.9" font-family="Arial" font-size="14.00" fill="#666666">[varchar(25)]</text>
<polygon fill="none" stroke="#000000" points="1306.5,-1262.5 1306.5,-1292.5 1634.5,-1292.5 1634.5,-1262.5 1306.5,-1262.5"/>
<text text-anchor="start" x="1313.3626" y="-1273.9" font-family="Arial" font-size="14.00" fill="#000000">date_published    </text>
<text text-anchor="start" x="1442.4972" y="-1273.9" font-family="Arial" font-size="14.00" fill="#666666">[timestamp without time zone]</text>
</g>
<!-- public.public_channel&#45;&gt;public.channel -->
<g id="edge4" class="edge">
<title>public.public_channel:channel_id&#45;&gt;public.channel:id</title>
<path fill="none" stroke="#000000" d="M1643.6828,-1333.0022C1688.8037,-1285.744 1670.7336,-880.9805 1686.5,-830 1706.302,-765.9704 1691.4784,-697.5 1758.5,-697.5"/>
<polygon fill="#000000" stroke="#000000" points="1643.4806,-1333.1012 1632.5205,-1333.4587 1638.9903,-1335.3006 1634.5,-1337.5 1634.5,-1337.5 1634.5,-1337.5 1638.9903,-1335.3006 1636.4795,-1341.5413 1643.4806,-1333.1012 1643.4806,-1333.1012"/>
<text text-anchor="start" x="1641.7675" y="-1347.5" font-family="Arial" font-size="10.00" fill="#000000">FOREIGN KEY (channel_id) REFERENCES channel(id)</text>
</g>
<!-- public.channel_report -->
<g id="node6" class="node">
<title>public.channel_report</title>
<polygon fill="#efefef" stroke="transparent" points="1739.5,-1382.5 1739.5,-1417.5 2052.5,-1417.5 2052.5,-1382.5 1739.5,-1382.5"/>
<polygon fill="none" stroke="#000000" points="1739.5,-1382.5 1739.5,-1417.5 2052.5,-1417.5 2052.5,-1382.5 1739.5,-1382.5"/>
<text text-anchor="start" x="1746.1931" y="-1395.3" font-family="Arial Bold" font-size="18.00" fill="#000000">public.channel_report</text>
<text text-anchor="start" x="1918.2389" y="-1395.3" font-family="Arial" font-size="14.00" fill="#000000">    </text>
<text text-anchor="start" x="1952.4437" y="-1395.3" font-family="Arial" font-size="14.00" fill="#666666">[BASE TABLE]</text>
<polygon fill="none" stroke="#000000" points="1739.5,-1352.5 1739.5,-1382.5 2052.5,-1382.5 2052.5,-1352.5 1739.5,-1352.5"/>
<text text-anchor="start" x="1746.5" y="-1363.9" font-family="Arial" font-size="14.00" fill="#000000">id    </text>
<text text-anchor="start" x="1791.594" y="-1363.9" font-family="Arial" font-size="14.00" fill="#666666">[uuid]</text>
<polygon fill="none" stroke="#000000" points="1739.5,-1322.5 1739.5,-1352.5 2052.5,-1352.5 2052.5,-1322.5 1739.5,-1322.5"/>
<text text-anchor="start" x="1746.5" y="-1333.9" font-family="Arial" font-size="14.00" fill="#000000">channel_id    </text>
<text text-anchor="start" x="1848.3962" y="-1333.9" font-family="Arial" font-size="14.00" fill="#666666">[uuid]</text>
<polygon fill="none" stroke="#000000" points="1739.5,-1292.5 1739.5,-1322.5 2052.5,-1322.5 2052.5,-1292.5 1739.5,-1292.5"/>
<text text-anchor="start" x="1746.5" y="-1303.9" font-family="Arial" font-size="14.00" fill="#000000">description    </text>
<text text-anchor="start" x="1848.3822" y="-1303.9" font-family="Arial" font-size="14.00" fill="#666666">[text]</text>
<polygon fill="none" stroke="#000000" points="1739.5,-1262.5 1739.5,-1292.5 2052.5,-1292.5 2052.5,-1262.5 1739.5,-1262.5"/>
<text text-anchor="start" x="1746.5" y="-1273.9" font-family="Arial" font-size="14.00" fill="#000000">resolution    </text>
<text text-anchor="start" x="1841.3822" y="-1273.9" font-family="Arial" font-size="14.00" fill="#666666">[text]</text>
<polygon fill="none" stroke="#000000" points="1739.5,-1232.5 1739.5,-1262.5 2052.5,-1262.5 2052.5,-1232.5 1739.5,-1232.5"/>
<text text-anchor="start" x="1746.5" y="-1243.9" font-family="Arial" font-size="14.00" fill="#000000">status    </text>
<text text-anchor="start" x="1818.0512" y="-1243.9" font-family="Arial" font-size="14.00" fill="#666666">[report_status]</text>
</g>
<!-- public.channel_report&#45;&gt;public.channel -->
<g id="edge5" class="edge">
<title>public.channel_report:channel_id&#45;&gt;public.channel:id</title>
<path fill="none" stroke="#000000" d="M2062.6,-1336.6991C2113.0388,-1327.9157 2071.9135,-1248.7163 2052.5,-1190 1972.4747,-947.9627 1503.5762,-697.5 1758.5,-697.5"/>
<polygon fill="#000000" stroke="#000000" points="2062.4687,-1336.7094 2052.1442,-1333.0141 2057.4844,-1337.1047 2052.5,-1337.5 2052.5,-1337.5 2052.5,-1337.5 2057.4844,-1337.1047 2052.8558,-1341.9859 2062.4687,-1336.7094 2062.4687,-1336.7094"/>
<text text-anchor="start" x="2059.7675" y="-1347.5" font-family="Arial" font-size="10.00" fill="#000000">FOREIGN KEY (channel_id) REFERENCES channel(id)</text>
</g>
<!-- public.channel_user_reports -->
<g id="node7" class="node">
<title>public.channel_user_reports</title>
<polygon fill="#efefef" stroke="transparent" points="2156.5,-1397.5 2156.5,-1432.5 2523.5,-1432.5 2523.5,-1397.5 2156.5,-1397.5"/>
<polygon fill="none" stroke="#000000" points="2156.5,-1397.5 2156.5,-1432.5 2523.5,-1432.5 2523.5,-1397.5 2156.5,-1397.5"/>
<text text-anchor="start" x="2163.1877" y="-1410.3" font-family="Arial Bold" font-size="18.00" fill="#000000">public.channel_user_reports</text>
<text text-anchor="start" x="2389.2443" y="-1410.3" font-family="Arial" font-size="14.00" fill="#000000">    </text>
<text text-anchor="start" x="2423.4491" y="-1410.3" font-family="Arial" font-size="14.00" fill="#666666">[BASE TABLE]</text>
<polygon fill="none" stroke="#000000" points="2156.5,-1367.5 2156.5,-1397.5 2523.5,-1397.5 2523.5,-1367.5 2156.5,-1367.5"/>
<text text-anchor="start" x="2163.5" y="-1378.9" font-family="Arial" font-size="14.00" fill="#000000">id    </text>
<text text-anchor="start" x="2208.594" y="-1378.9" font-family="Arial" font-size="14.00" fill="#666666">[uuid]</text>
<polygon fill="none" stroke="#000000" points="2156.5,-1337.5 2156.5,-1367.5 2523.5,-1367.5 2523.5,-1337.5 2156.5,-1337.5"/>
<text text-anchor="start" x="2163.5" y="-1348.9" font-family="Arial" font-size="14.00" fill="#000000">user_id    </text>
<text text-anchor="start" x="2243.6024" y="-1348.9" font-family="Arial" font-size="14.00" fill="#666666">[uuid]</text>
<polygon fill="none" stroke="#000000" points="2156.5,-1307.5 2156.5,-1337.5 2523.5,-1337.5 2523.5,-1307.5 2156.5,-1307.5"/>
<text text-anchor="start" x="2163.5" y="-1318.9" font-family="Arial" font-size="14.00" fill="#000000">channel_id    </text>
<text text-anchor="start" x="2265.3962" y="-1318.9" font-family="Arial" font-size="14.00" fill="#666666">[uuid]</text>
<polygon fill="none" stroke="#000000" points="2156.5,-1277.5 2156.5,-1307.5 2523.5,-1307.5 2523.5,-1277.5 2156.5,-1277.5"/>
<text text-anchor="start" x="2163.5" y="-1288.9" font-family="Arial" font-size="14.00" fill="#000000">description    </text>
<text text-anchor="start" x="2265.3822" y="-1288.9" font-family="Arial" font-size="14.00" fill="#666666">[text]</text>
<polygon fill="none" stroke="#000000" points="2156.5,-1247.5 2156.5,-1277.5 2523.5,-1277.5 2523.5,-1247.5 2156.5,-1247.5"/>
<text text-anchor="start" x="2163.5" y="-1258.9" font-family="Arial" font-size="14.00" fill="#000000">resolution    </text>
<text text-anchor="start" x="2258.3822" y="-1258.9" font-family="Arial" font-size="14.00" fill="#666666">[text]</text>
<polygon fill="none" stroke="#000000" points="2156.5,-1217.5 2156.5,-1247.5 2523.5,-1247.5 2523.5,-1217.5 2156.5,-1217.5"/>
<text text-anchor="start" x="2163.5" y="-1228.9" font-family="Arial" font-size="14.00" fill="#000000">status    </text>
<text text-anchor="start" x="2235.0512" y="-1228.9" font-family="Arial" font-size="14.00" fill="#666666">[report_status]</text>
</g>
<!-- public.channel_user_reports&#45;&gt;public.channel -->
<g id="edge6" class="edge">
<title>public.channel_user_reports:channel_id&#45;&gt;public.channel:id</title>
<path fill="none" stroke="#000000" d="M2147.2955,-1317.8461C2103.6527,-1270.6552 2119.56,-879.4524 2104.5,-830 2085.0971,-766.2871 2101.1018,-697.5 2034.5,-697.5"/>
<polygon fill="#000000" stroke="#000000" points="2147.5758,-1317.9878 2154.4695,-1326.5159 2152.0379,-1320.2439 2156.5,-1322.5 2156.5,-1322.5 2156.5,-1322.5 2152.0379,-1320.2439 2158.5305,-1318.4841 2147.5758,-1317.9878 2147.5758,-1317.9878"/>
<text text-anchor="start" x="2163.7675" y="-1306.5" font-family="Arial" font-size="10.00" fill="#000000">FOREIGN KEY (channel_id) REFERENCES channel(id)</text>
</g>
<!-- public.role -->
<g id="node8" class="node">
<title>public.role</title>
<polygon fill="#efefef" stroke="transparent" points="2627.5,-1742.5 2627.5,-1777.5 2923.5,-1777.5 2923.5,-1742.5 2627.5,-1742.5"/>
<polygon fill="none" stroke="#000000" points="2627.5,-1742.5 2627.5,-1777.5 2923.5,-1777.5 2923.5,-1742.5 2627.5,-1742.5"/>
<text text-anchor="start" x="2670.712" y="-1755.3" font-family="Arial Bold" font-size="18.00" fill="#000000">public.role</text>
<text text-anchor="start" x="2752.72" y="-1755.3" font-family="Arial" font-size="14.00" fill="#000000">    </text>
<text text-anchor="start" x="2786.9248" y="-1755.3" font-family="Arial" font-size="14.00" fill="#666666">[BASE TABLE]</text>
<polygon fill="none" stroke="#000000" points="2627.5,-1712.5 2627.5,-1742.5 2923.5,-1742.5 2923.5,-1712.5 2627.5,-1712.5"/>
<text text-anchor="start" x="2634.5" y="-1723.9" font-family="Arial" font-size="14.00" fill="#000000">id    </text>
<text text-anchor="start" x="2679.594" y="-1723.9" font-family="Arial" font-size="14.00" fill="#666666">[uuid]</text>
<polygon fill="none" stroke="#000000" points="2627.5,-1682.5 2627.5,-1712.5 2923.5,-1712.5 2923.5,-1682.5 2627.5,-1682.5"/>
<text text-anchor="start" x="2634.5" y="-1693.9" font-family="Arial" font-size="14.00" fill="#000000">channel_id    </text>
<text text-anchor="start" x="2736.3962" y="-1693.9" font-family="Arial" font-size="14.00" fill="#666666">[uuid]</text>
<polygon fill="none" stroke="#000000" points="2627.5,-1652.5 2627.5,-1682.5 2923.5,-1682.5 2923.5,-1652.5 2627.5,-1652.5"/>
<text text-anchor="start" x="2634.5" y="-1663.9" font-family="Arial" font-size="14.00" fill="#000000">title    </text>
<text text-anchor="start" x="2690.4818" y="-1663.9" font-family="Arial" font-size="14.00" fill="#666666">[varchar(20)]</text>
<polygon fill="none" stroke="#000000" points="2627.5,-1622.5 2627.5,-1652.5 2923.5,-1652.5 2923.5,-1622.5 2627.5,-1622.5"/>
<text text-anchor="start" x="2634.5" y="-1633.9" font-family="Arial" font-size="14.00" fill="#000000">isOwner    </text>
<text text-anchor="start" x="2720.0344" y="-1633.9" font-family="Arial" font-size="14.00" fill="#666666">[boolean]</text>
<polygon fill="none" stroke="#000000" points="2627.5,-1592.5 2627.5,-1622.5 2923.5,-1622.5 2923.5,-1592.5 2627.5,-1592.5"/>
<text text-anchor="start" x="2634.5" y="-1603.9" font-family="Arial" font-size="14.00" fill="#000000">ranking    </text>
<text text-anchor="start" x="2714.6024" y="-1603.9" font-family="Arial" font-size="14.00" fill="#666666">[smallint]</text>
<polygon fill="none" stroke="#000000" points="2627.5,-1562.5 2627.5,-1592.5 2923.5,-1592.5 2923.5,-1562.5 2627.5,-1562.5"/>
<text text-anchor="start" x="2634.5" y="-1573.9" font-family="Arial" font-size="14.00" fill="#000000">can_create_roles    </text>
<text text-anchor="start" x="2776.0666" y="-1573.9" font-family="Arial" font-size="14.00" fill="#666666">[boolean]</text>
<polygon fill="none" stroke="#000000" points="2627.5,-1532.5 2627.5,-1562.5 2923.5,-1562.5 2923.5,-1532.5 2627.5,-1532.5"/>
<text text-anchor="start" x="2634.5" y="-1543.9" font-family="Arial" font-size="14.00" fill="#000000">can_view_roles    </text>
<text text-anchor="start" x="2765.1634" y="-1543.9" font-family="Arial" font-size="14.00" fill="#666666">[boolean]</text>
<polygon fill="none" stroke="#000000" points="2627.5,-1502.5 2627.5,-1532.5 2923.5,-1532.5 2923.5,-1502.5 2627.5,-1502.5"/>
<text text-anchor="start" x="2634.5" y="-1513.9" font-family="Arial" font-size="14.00" fill="#000000">can_edit_roles    </text>
<text text-anchor="start" x="2759.73" y="-1513.9" font-family="Arial" font-size="14.00" fill="#666666">[boolean]</text>
<polygon fill="none" stroke="#000000" points="2627.5,-1472.5 2627.5,-1502.5 2923.5,-1502.5 2923.5,-1472.5 2627.5,-1472.5"/>
<text text-anchor="start" x="2634.5" y="-1483.9" font-family="Arial" font-size="14.00" fill="#000000">can_delete_roles    </text>
<text text-anchor="start" x="2775.2952" y="-1483.9" font-family="Arial" font-size="14.00" fill="#666666">[boolean]</text>
<polygon fill="none" stroke="#000000" points="2627.5,-1442.5 2627.5,-1472.5 2923.5,-1472.5 2923.5,-1442.5 2627.5,-1442.5"/>
<text text-anchor="start" x="2634.5" y="-1453.9" font-family="Arial" font-size="14.00" fill="#000000">can_assign_roles    </text>
<text text-anchor="start" x="2777.622" y="-1453.9" font-family="Arial" font-size="14.00" fill="#666666">[boolean]</text>
<polygon fill="none" stroke="#000000" points="2627.5,-1412.5 2627.5,-1442.5 2923.5,-1442.5 2923.5,-1412.5 2627.5,-1412.5"/>
<text text-anchor="start" x="2634.2876" y="-1423.9" font-family="Arial" font-size="14.00" fill="#000000">can_set_message_of_the_day    </text>
<text text-anchor="start" x="2859.129" y="-1423.9" font-family="Arial" font-size="14.00" fill="#666666">[boolean]</text>
<polygon fill="none" stroke="#000000" points="2627.5,-1382.5 2627.5,-1412.5 2923.5,-1412.5 2923.5,-1382.5 2627.5,-1382.5"/>
<text text-anchor="start" x="2634.5" y="-1393.9" font-family="Arial" font-size="14.00" fill="#000000">can_edit_name    </text>
<text text-anchor="start" x="2764.406" y="-1393.9" font-family="Arial" font-size="14.00" fill="#666666">[boolean]</text>
<polygon fill="none" stroke="#000000" points="2627.5,-1352.5 2627.5,-1382.5 2923.5,-1382.5 2923.5,-1352.5 2627.5,-1352.5"/>
<text text-anchor="start" x="2634.5" y="-1363.9" font-family="Arial" font-size="14.00" fill="#000000">can_set_image    </text>
<text text-anchor="start" x="2763.6234" y="-1363.9" font-family="Arial" font-size="14.00" fill="#666666">[boolean]</text>
<polygon fill="none" stroke="#000000" points="2627.5,-1322.5 2627.5,-1352.5 2923.5,-1352.5 2923.5,-1322.5 2627.5,-1322.5"/>
<text text-anchor="start" x="2634.5" y="-1333.9" font-family="Arial" font-size="14.00" fill="#000000">can_view_user_table    </text>
<text text-anchor="start" x="2800.1844" y="-1333.9" font-family="Arial" font-size="14.00" fill="#666666">[boolean]</text>
<polygon fill="none" stroke="#000000" points="2627.5,-1292.5 2627.5,-1322.5 2923.5,-1322.5 2923.5,-1292.5 2627.5,-1292.5"/>
<text text-anchor="start" x="2634.5" y="-1303.9" font-family="Arial" font-size="14.00" fill="#000000">can_edit_tags    </text>
<text text-anchor="start" x="2755.8534" y="-1303.9" font-family="Arial" font-size="14.00" fill="#666666">[boolean]</text>
<polygon fill="none" stroke="#000000" points="2627.5,-1262.5 2627.5,-1292.5 2923.5,-1292.5 2923.5,-1262.5 2627.5,-1262.5"/>
<text text-anchor="start" x="2634.5" y="-1273.9" font-family="Arial" font-size="14.00" fill="#000000">can_timeout_users    </text>
<text text-anchor="start" x="2786.9572" y="-1273.9" font-family="Arial" font-size="14.00" fill="#666666">[boolean]</text>
<polygon fill="none" stroke="#000000" points="2627.5,-1232.5 2627.5,-1262.5 2923.5,-1262.5 2923.5,-1232.5 2627.5,-1232.5"/>
<text text-anchor="start" x="2634.5" y="-1243.9" font-family="Arial" font-size="14.00" fill="#000000">can_ban_users    </text>
<text text-anchor="start" x="2764.4088" y="-1243.9" font-family="Arial" font-size="14.00" fill="#666666">[boolean]</text>
<polygon fill="none" stroke="#000000" points="2627.5,-1202.5 2627.5,-1232.5 2923.5,-1232.5 2923.5,-1202.5 2627.5,-1202.5"/>
<text text-anchor="start" x="2634.5" y="-1213.9" font-family="Arial" font-size="14.00" fill="#000000">can_view_banned_users    </text>
<text text-anchor="start" x="2823.535" y="-1213.9" font-family="Arial" font-size="14.00" fill="#666666">[boolean]</text>
<polygon fill="none" stroke="#000000" points="2627.5,-1172.5 2627.5,-1202.5 2923.5,-1202.5 2923.5,-1172.5 2627.5,-1172.5"/>
<text text-anchor="start" x="2634.5" y="-1183.9" font-family="Arial" font-size="14.00" fill="#000000">can_unban_users    </text>
<text text-anchor="start" x="2779.974" y="-1183.9" font-family="Arial" font-size="14.00" fill="#666666">[boolean]</text>
<polygon fill="none" stroke="#000000" points="2627.5,-1142.5 2627.5,-1172.5 2923.5,-1172.5 2923.5,-1142.5 2627.5,-1142.5"/>
<text text-anchor="start" x="2634.5" y="-1153.9" font-family="Arial" font-size="14.00" fill="#000000">can_delete_posts    </text>
<text text-anchor="start" x="2778.4186" y="-1153.9" font-family="Arial" font-size="14.00" fill="#666666">[boolean]</text>
<polygon fill="none" stroke="#000000" points="2627.5,-1112.5 2627.5,-1142.5 2923.5,-1142.5 2923.5,-1112.5 2627.5,-1112.5"/>
<text text-anchor="start" x="2634.5" y="-1123.9" font-family="Arial" font-size="14.00" fill="#000000">can_delete_comments    </text>
<text text-anchor="start" x="2809.5224" y="-1123.9" font-family="Arial" font-size="14.00" fill="#666666">[boolean]</text>
<polygon fill="none" stroke="#000000" points="2627.5,-1082.5 2627.5,-1112.5 2923.5,-1112.5 2923.5,-1082.5 2627.5,-1082.5"/>
<text text-anchor="start" x="2634.5" y="-1093.9" font-family="Arial" font-size="14.00" fill="#000000">can_edit_post_tags    </text>
<text text-anchor="start" x="2790.0918" y="-1093.9" font-family="Arial" font-size="14.00" fill="#666666">[boolean]</text>
<polygon fill="none" stroke="#000000" points="2627.5,-1052.5 2627.5,-1082.5 2923.5,-1082.5 2923.5,-1052.5 2627.5,-1052.5"/>
<text text-anchor="start" x="2634.5" y="-1063.9" font-family="Arial" font-size="14.00" fill="#000000">can_view_post_reports    </text>
<text text-anchor="start" x="2812.629" y="-1063.9" font-family="Arial" font-size="14.00" fill="#666666">[boolean]</text>
<polygon fill="none" stroke="#000000" points="2627.5,-1022.5 2627.5,-1052.5 2923.5,-1052.5 2923.5,-1022.5 2627.5,-1022.5"/>
<text text-anchor="start" x="2634.5" y="-1033.9" font-family="Arial" font-size="14.00" fill="#000000">can_update_post_reports    </text>
<text text-anchor="start" x="2827.4368" y="-1033.9" font-family="Arial" font-size="14.00" fill="#666666">[boolean]</text>
<polygon fill="none" stroke="#000000" points="2627.5,-992.5 2627.5,-1022.5 2923.5,-1022.5 2923.5,-992.5 2627.5,-992.5"/>
<text text-anchor="start" x="2634.5" y="-1003.9" font-family="Arial" font-size="14.00" fill="#000000">can_resolve_post_reports    </text>
<text text-anchor="start" x="2829.7482" y="-1003.9" font-family="Arial" font-size="14.00" fill="#666666">[boolean]</text>
<polygon fill="none" stroke="#000000" points="2627.5,-962.5 2627.5,-992.5 2923.5,-992.5 2923.5,-962.5 2627.5,-962.5"/>
<text text-anchor="start" x="2634.5" y="-973.9" font-family="Arial" font-size="14.00" fill="#000000">can_register_events    </text>
<text text-anchor="start" x="2794.7398" y="-973.9" font-family="Arial" font-size="14.00" fill="#666666">[boolean]</text>
<polygon fill="none" stroke="#000000" points="2627.5,-932.5 2627.5,-962.5 2923.5,-962.5 2923.5,-932.5 2627.5,-932.5"/>
<text text-anchor="start" x="2634.5" y="-943.9" font-family="Arial" font-size="14.00" fill="#000000">can_view_events    </text>
<text text-anchor="start" x="2776.0694" y="-943.9" font-family="Arial" font-size="14.00" fill="#666666">[boolean]</text>
<polygon fill="none" stroke="#000000" points="2627.5,-902.5 2627.5,-932.5 2923.5,-932.5 2923.5,-902.5 2627.5,-902.5"/>
<text text-anchor="start" x="2634.5" y="-913.9" font-family="Arial" font-size="14.00" fill="#000000">can_edit_events    </text>
<text text-anchor="start" x="2770.636" y="-913.9" font-family="Arial" font-size="14.00" fill="#666666">[boolean]</text>
<polygon fill="none" stroke="#000000" points="2627.5,-872.5 2627.5,-902.5 2923.5,-902.5 2923.5,-872.5 2627.5,-872.5"/>
<text text-anchor="start" x="2634.5" y="-883.9" font-family="Arial" font-size="14.00" fill="#000000">can_unregister_events    </text>
<text text-anchor="start" x="2810.305" y="-883.9" font-family="Arial" font-size="14.00" fill="#666666">[boolean]</text>
</g>
<!-- public.role&#45;&gt;public.channel -->
<g id="edge7" class="edge">
<title>public.role:channel_id&#45;&gt;public.channel:id</title>
<path fill="none" stroke="#000000" d="M2617.5695,-1694.2997C2538.6045,-1639.609 2635.0592,-901.3983 2575.5,-830 2496.2133,-734.9528 2158.2754,-697.5 2034.5,-697.5"/>
<polygon fill="#000000" stroke="#000000" points="2617.982,-1694.4326 2626.1197,-1701.7831 2622.741,-1695.9663 2627.5,-1697.5 2627.5,-1697.5 2627.5,-1697.5 2622.741,-1695.9663 2628.8803,-1693.2169 2617.982,-1694.4326 2617.982,-1694.4326"/>
<text text-anchor="start" x="2371.7675" y="-1707.5" font-family="Arial" font-size="10.00" fill="#000000">FOREIGN KEY (channel_id) REFERENCES channel(id)</text>
</g>
<!-- public.subscription -->
<g id="node9" class="node">
<title>public.subscription</title>
<polygon fill="#efefef" stroke="transparent" points="3028.5,-1352.5 3028.5,-1387.5 3317.5,-1387.5 3317.5,-1352.5 3028.5,-1352.5"/>
<polygon fill="none" stroke="#000000" points="3028.5,-1352.5 3028.5,-1387.5 3317.5,-1387.5 3317.5,-1352.5 3028.5,-1352.5"/>
<text text-anchor="start" x="3035.2045" y="-1365.3" font-family="Arial Bold" font-size="18.00" fill="#000000">public.subscription</text>
<text text-anchor="start" x="3183.2275" y="-1365.3" font-family="Arial" font-size="14.00" fill="#000000">    </text>
<text text-anchor="start" x="3217.4323" y="-1365.3" font-family="Arial" font-size="14.00" fill="#666666">[BASE TABLE]</text>
<polygon fill="none" stroke="#000000" points="3028.5,-1322.5 3028.5,-1352.5 3317.5,-1352.5 3317.5,-1322.5 3028.5,-1322.5"/>
<text text-anchor="start" x="3035.5" y="-1333.9" font-family="Arial" font-size="14.00" fill="#000000">id    </text>
<text text-anchor="start" x="3080.594" y="-1333.9" font-family="Arial" font-size="14.00" fill="#666666">[uuid]</text>
<polygon fill="none" stroke="#000000" points="3028.5,-1292.5 3028.5,-1322.5 3317.5,-1322.5 3317.5,-1292.5 3028.5,-1292.5"/>
<text text-anchor="start" x="3035.5" y="-1303.9" font-family="Arial" font-size="14.00" fill="#000000">channel_id    </text>
<text text-anchor="start" x="3137.3962" y="-1303.9" font-family="Arial" font-size="14.00" fill="#666666">[uuid]</text>
<polygon fill="none" stroke="#000000" points="3028.5,-1262.5 3028.5,-1292.5 3317.5,-1292.5 3317.5,-1262.5 3028.5,-1262.5"/>
<text text-anchor="start" x="3035.5" y="-1273.9" font-family="Arial" font-size="14.00" fill="#000000">user_id    </text>
<text text-anchor="start" x="3115.6024" y="-1273.9" font-family="Arial" font-size="14.00" fill="#666666">[uuid]</text>
</g>
<!-- public.subscription&#45;&gt;public.channel -->
<g id="edge8" class="edge">
<title>public.subscription:channel_id&#45;&gt;public.channel:id</title>
<path fill="none" stroke="#000000" d="M3018.3585,-1306.1239C2930.2602,-1280.4731 3047.3347,-903.9743 2975.5,-830 2901.9422,-754.2513 2140.087,-697.5 2034.5,-697.5"/>
<polygon fill="#000000" stroke="#000000" points="3018.5908,-1306.1553 3027.8949,-1311.9591 3023.5454,-1306.8277 3028.5,-1307.5 3028.5,-1307.5 3028.5,-1307.5 3023.5454,-1306.8277 3029.1051,-1303.0409 3018.5908,-1306.1553 3018.5908,-1306.1553"/>
<text text-anchor="start" x="2772.7675" y="-1317.5" font-family="Arial" font-size="10.00" fill="#000000">FOREIGN KEY (channel_id) REFERENCES channel(id)</text>
</g>
<!-- public.channel_tags -->
<g id="node10" class="node">
<title>public.channel_tags</title>
<polygon fill="#efefef" stroke="transparent" points="3421.5,-1367.5 3421.5,-1402.5 3721.5,-1402.5 3721.5,-1367.5 3421.5,-1367.5"/>
<polygon fill="none" stroke="#000000" points="3421.5,-1367.5 3421.5,-1402.5 3721.5,-1402.5 3721.5,-1367.5 3421.5,-1367.5"/>
<text text-anchor="start" x="3428.1884" y="-1380.3" font-family="Arial Bold" font-size="18.00" fill="#000000">public.channel_tags</text>
<text text-anchor="start" x="3587.2436" y="-1380.3" font-family="Arial" font-size="14.00" fill="#000000">    </text>
<text text-anchor="start" x="3621.4484" y="-1380.3" font-family="Arial" font-size="14.00" fill="#666666">[BASE TABLE]</text>
<polygon fill="none" stroke="#000000" points="3421.5,-1337.5 3421.5,-1367.5 3721.5,-1367.5 3721.5,-1337.5 3421.5,-1337.5"/>
<text text-anchor="start" x="3428.5" y="-1348.9" font-family="Arial" font-size="14.00" fill="#000000">id    </text>
<text text-anchor="start" x="3473.594" y="-1348.9" font-family="Arial" font-size="14.00" fill="#666666">[uuid]</text>
<polygon fill="none" stroke="#000000" points="3421.5,-1307.5 3421.5,-1337.5 3721.5,-1337.5 3721.5,-1307.5 3421.5,-1307.5"/>
<text text-anchor="start" x="3428.5" y="-1318.9" font-family="Arial" font-size="14.00" fill="#000000">channel_id    </text>
<text text-anchor="start" x="3530.3962" y="-1318.9" font-family="Arial" font-size="14.00" fill="#666666">[uuid]</text>
<polygon fill="none" stroke="#000000" points="3421.5,-1277.5 3421.5,-1307.5 3721.5,-1307.5 3721.5,-1277.5 3421.5,-1277.5"/>
<text text-anchor="start" x="3428.5" y="-1288.9" font-family="Arial" font-size="14.00" fill="#000000">name    </text>
<text text-anchor="start" x="3497.7132" y="-1288.9" font-family="Arial" font-size="14.00" fill="#666666">[varchar(16)]</text>
<polygon fill="none" stroke="#000000" points="3421.5,-1247.5 3421.5,-1277.5 3721.5,-1277.5 3721.5,-1247.5 3421.5,-1247.5"/>
<text text-anchor="start" x="3428.5" y="-1258.9" font-family="Arial" font-size="14.00" fill="#000000">color    </text>
<text text-anchor="start" x="3493.0372" y="-1258.9" font-family="Arial" font-size="14.00" fill="#666666">[varchar(16)]</text>
</g>
<!-- public.channel_tags&#45;&gt;public.channel -->
<g id="edge9" class="edge">
<title>public.channel_tags:channel_id&#45;&gt;public.channel:id</title>
<path fill="none" stroke="#000000" d="M3411.335,-1321.1552C3320.25,-1295.3183 3444.9706,-904.9991 3369.5,-830 3263.7674,-724.928 2183.5621,-697.5 2034.5,-697.5"/>
<polygon fill="#000000" stroke="#000000" points="3411.5864,-1321.1884 3420.9098,-1326.9611 3416.5432,-1321.8442 3421.5,-1322.5 3421.5,-1322.5 3421.5,-1322.5 3416.5432,-1321.8442 3422.0902,-1318.0389 3411.5864,-1321.1884 3411.5864,-1321.1884"/>
<text text-anchor="start" x="3165.7675" y="-1332.5" font-family="Arial" font-size="10.00" fill="#000000">FOREIGN KEY (channel_id) REFERENCES channel(id)</text>
</g>
</g>
</svg>
