<?xml version="1.0" encoding="UTF-8" standalone="no"?>
<!DOCTYPE svg PUBLIC "-//W3C//DTD SVG 1.1//EN"
 "http://www.w3.org/Graphics/SVG/1.1/DTD/svg11.dtd">
<!-- Generated by graphviz version 12.1.2 (20240928.0832)
 -->
<!-- Title: public.user_report Pages: 1 -->
<svg width="581pt" height="787pt"
 viewBox="0.00 0.00 580.73 786.80" xmlns="http://www.w3.org/2000/svg" xmlns:xlink="http://www.w3.org/1999/xlink">
<g id="graph0" class="graph" transform="scale(1 1) rotate(0) translate(4 782.8)">
<title>public.user_report</title>
<polygon fill="white" stroke="none" points="-4,4 -4,-782.8 576.73,-782.8 576.73,4 -4,4"/>
<!-- public.user_report -->
<g id="node1" class="node">
<title>public.user_report</title>
<polygon fill="#efefef" stroke="none" points="46.75,-697 46.75,-732.6 316.69,-732.6 316.69,-697 46.75,-697"/>
<polygon fill="none" stroke="black" points="46.75,-697 46.75,-732.6 316.69,-732.6 316.69,-697 46.75,-697"/>
<text text-anchor="start" x="53.75" y="-710.4" font-family="Arial Bold" font-size="18.00">public.user_report</text>
<text text-anchor="start" x="185.2" y="-710.4" font-family="Arial" font-size="14.00">    </text>
<text text-anchor="start" x="216.32" y="-710.4" font-family="Arial" font-size="14.00" fill="#666666">[BASE TABLE]</text>
<polygon fill="none" stroke="black" points="46.75,-666.2 46.75,-697 316.69,-697 316.69,-666.2 46.75,-666.2"/>
<text text-anchor="start" x="53.75" y="-678.4" font-family="Arial" font-size="14.00">id </text>
<text text-anchor="start" x="68.53" y="-678.4" font-family="Arial" font-size="14.00" fill="#666666">[uuid]</text>
<polygon fill="none" stroke="black" points="46.75,-635.4 46.75,-666.2 316.69,-666.2 316.69,-635.4 46.75,-635.4"/>
<text text-anchor="start" x="53.75" y="-647.6" font-family="Arial" font-size="14.00">user_id </text>
<text text-anchor="start" x="103.55" y="-647.6" font-family="Arial" font-size="14.00" fill="#666666">[uuid]</text>
<polygon fill="none" stroke="black" points="46.75,-604.6 46.75,-635.4 316.69,-635.4 316.69,-604.6 46.75,-604.6"/>
<text text-anchor="start" x="53.75" y="-616.8" font-family="Arial" font-size="14.00">reporter_id </text>
<text text-anchor="start" x="125.34" y="-616.8" font-family="Arial" font-size="14.00" fill="#666666">[uuid]</text>
<polygon fill="none" stroke="black" points="46.75,-573.8 46.75,-604.6 316.69,-604.6 316.69,-573.8 46.75,-573.8"/>
<text text-anchor="start" x="53.75" y="-586" font-family="Arial" font-size="14.00">description </text>
<text text-anchor="start" x="125.34" y="-586" font-family="Arial" font-size="14.00" fill="#666666">[text]</text>
<polygon fill="none" stroke="black" points="46.75,-543 46.75,-573.8 316.69,-573.8 316.69,-543 46.75,-543"/>
<text text-anchor="start" x="53.75" y="-555.2" font-family="Arial" font-size="14.00">resolution </text>
<text text-anchor="start" x="118.34" y="-555.2" font-family="Arial" font-size="14.00" fill="#666666">[text]</text>
<polygon fill="none" stroke="black" points="46.75,-512.2 46.75,-543 316.69,-543 316.69,-512.2 46.75,-512.2"/>
<text text-anchor="start" x="53.75" y="-524.4" font-family="Arial" font-size="14.00">status </text>
<text text-anchor="start" x="94.99" y="-524.4" font-family="Arial" font-size="14.00" fill="#666666">[report_status]</text>
<polygon fill="none" stroke="black" stroke-width="3" points="45.25,-510.7 45.25,-734.1 318.19,-734.1 318.19,-510.7 45.25,-510.7"/>
</g>
<!-- public.user -->
<g id="node2" class="node">
<title>public.user</title>
<polygon fill="#efefef" stroke="none" points="43.2,-351.2 43.2,-386.8 320.24,-386.8 320.24,-351.2 43.2,-351.2"/>
<polygon fill="none" stroke="black" points="43.2,-351.2 43.2,-386.8 320.24,-386.8 320.24,-351.2 43.2,-351.2"/>
<text text-anchor="start" x="79.74" y="-364.6" font-family="Arial Bold" font-size="18.00">public.user</text>
<text text-anchor="start" x="159.22" y="-364.6" font-family="Arial" font-size="14.00">    </text>
<text text-anchor="start" x="190.33" y="-364.6" font-family="Arial" font-size="14.00" fill="#666666">[BASE TABLE]</text>
<polygon fill="none" stroke="black" points="43.2,-320.4 43.2,-351.2 320.24,-351.2 320.24,-320.4 43.2,-320.4"/>
<text text-anchor="start" x="50.2" y="-332.6" font-family="Arial" font-size="14.00">id </text>
<text text-anchor="start" x="64.99" y="-332.6" font-family="Arial" font-size="14.00" fill="#666666">[uuid]</text>
<polygon fill="none" stroke="black" points="43.2,-289.6 43.2,-320.4 320.24,-320.4 320.24,-289.6 43.2,-289.6"/>
<text text-anchor="start" x="50.2" y="-301.8" font-family="Arial" font-size="14.00">username </text>
<text text-anchor="start" x="116.34" y="-301.8" font-family="Arial" font-size="14.00" fill="#666666">[varchar(25)]</text>
<polygon fill="none" stroke="black" points="43.2,-258.8 43.2,-289.6 320.24,-289.6 320.24,-258.8 43.2,-258.8"/>
<text text-anchor="start" x="50.2" y="-271" font-family="Arial" font-size="14.00">profile_image </text>
<text text-anchor="start" x="138.14" y="-271" font-family="Arial" font-size="14.00" fill="#666666">[text]</text>
<polygon fill="none" stroke="black" points="43.2,-228 43.2,-258.8 320.24,-258.8 320.24,-228 43.2,-228"/>
<text text-anchor="start" x="50.2" y="-240.2" font-family="Arial" font-size="14.00">role </text>
<text text-anchor="start" x="77.43" y="-240.2" font-family="Arial" font-size="14.00" fill="#666666">[site_role]</text>
<polygon fill="none" stroke="black" points="43.2,-197.2 43.2,-228 320.24,-228 320.24,-197.2 43.2,-197.2"/>
<text text-anchor="start" x="50.2" y="-209.4" font-family="Arial" font-size="14.00">created_on </text>
<text text-anchor="start" x="124.14" y="-209.4" font-family="Arial" font-size="14.00" fill="#666666">[timestamp without time zone]</text>
<polygon fill="none" stroke="black" points="43.2,-166.4 43.2,-197.2 320.24,-197.2 320.24,-166.4 43.2,-166.4"/>
<text text-anchor="start" x="50.2" y="-178.6" font-family="Arial" font-size="14.00">updated_on </text>
<text text-anchor="start" x="128.05" y="-178.6" font-family="Arial" font-size="14.00" fill="#666666">[timestamp without time zone]</text>
<polygon fill="none" stroke="black" points="43.2,-135.6 43.2,-166.4 320.24,-166.4 320.24,-135.6 43.2,-135.6"/>
<text text-anchor="start" x="50.2" y="-147.8" font-family="Arial" font-size="14.00">discord_id </text>
<text text-anchor="start" x="117.9" y="-147.8" font-family="Arial" font-size="14.00" fill="#666666">[bigint]</text>
<polygon fill="none" stroke="black" points="43.2,-104.8 43.2,-135.6 320.24,-135.6 320.24,-104.8 43.2,-104.8"/>
<text text-anchor="start" x="50.2" y="-117" font-family="Arial" font-size="14.00">github_id </text>
<text text-anchor="start" x="110.92" y="-117" font-family="Arial" font-size="14.00" fill="#666666">[integer]</text>
<polygon fill="none" stroke="black" points="43.2,-74 43.2,-104.8 320.24,-104.8 320.24,-74 43.2,-74"/>
<text text-anchor="start" x="50.2" y="-86.2" font-family="Arial" font-size="14.00">followers </text>
<text text-anchor="start" x="109.33" y="-86.2" font-family="Arial" font-size="14.00" fill="#666666">[integer]</text>
<polygon fill="none" stroke="black" points="43.2,-43.2 43.2,-74 320.24,-74 320.24,-43.2 43.2,-43.2"/>
<text text-anchor="start" x="50.2" y="-55.4" font-family="Arial" font-size="14.00">following </text>
<text text-anchor="start" x="108.57" y="-55.4" font-family="Arial" font-size="14.00" fill="#666666">[integer]</text>
</g>
<!-- public.user_report&#45;&gt;public.user -->
<g id="edge1" class="edge">
<title>public.user_report:user_id&#45;&gt;public.user:id</title>
<path fill="none" stroke="black" d="M327.84,-648.45C387.87,-619.62 387.69,-335.8 321.24,-335.8"/>
<polygon fill="black" stroke="black" points="327.76,-648.46 317,-646.34 322.56,-649.67 318.35,-650.65 318.35,-650.65 318.35,-650.65 322.56,-649.67 319.04,-655.11 327.76,-648.46"/>
<text text-anchor="start" x="324.69" y="-660.8" font-family="Arial" font-size="10.00">FOREIGN KEY (user_id) REFERENCES &quot;user&quot;(id)</text>
</g>
<!-- public.user_report&#45;&gt;public.user -->
<g id="edge2" class="edge">
<title>public.user_report:reporter_id&#45;&gt;public.user:id</title>
<path fill="none" stroke="black" d="M327.52,-617.54C381.04,-589.77 380.95,-335.8 321.24,-335.8"/>
<polygon fill="black" stroke="black" points="327.72,-617.49 316.93,-615.55 322.54,-618.79 318.34,-619.84 318.34,-619.84 318.34,-619.84 322.54,-618.79 319.11,-624.28 327.72,-617.49"/>
<text text-anchor="start" x="324.69" y="-630" font-family="Arial" font-size="10.00">FOREIGN KEY (reporter_id) REFERENCES &quot;user&quot;(id)</text>
</g>
</g>
</svg>
