<?xml version="1.0" encoding="UTF-8" standalone="no"?>
<!DOCTYPE svg PUBLIC "-//W3C//DTD SVG 1.1//EN"
 "http://www.w3.org/Graphics/SVG/1.1/DTD/svg11.dtd">
<!-- Generated by graphviz version 12.1.2 (20240928.0832)
 -->
<!-- Title: public.post Pages: 1 -->
<svg width="2346pt" height="1468pt"
 viewBox="0.00 0.00 2346.20 1468.40" xmlns="http://www.w3.org/2000/svg" xmlns:xlink="http://www.w3.org/1999/xlink">
<g id="graph0" class="graph" transform="scale(1 1) rotate(0) translate(4 1464.4)">
<title>public.post</title>
<polygon fill="white" stroke="none" points="-4,4 -4,-1464.4 2342.2,-1464.4 2342.2,4 -4,4"/>
<!-- public.post -->
<g id="node1" class="node">
<title>public.post</title>
<polygon fill="#efefef" stroke="none" points="1061.82,-943.4 1061.82,-979 1338.86,-979 1338.86,-943.4 1061.82,-943.4"/>
<polygon fill="none" stroke="black" points="1061.82,-943.4 1061.82,-979 1338.86,-979 1338.86,-943.4 1061.82,-943.4"/>
<text text-anchor="start" x="1098.34" y="-956.8" font-family="Arial Bold" font-size="18.00">public.post</text>
<text text-anchor="start" x="1177.84" y="-956.8" font-family="Arial" font-size="14.00">    </text>
<text text-anchor="start" x="1208.96" y="-956.8" font-family="Arial" font-size="14.00" fill="#666666">[BASE TABLE]</text>
<polygon fill="none" stroke="black" points="1061.82,-912.6 1061.82,-943.4 1338.86,-943.4 1338.86,-912.6 1061.82,-912.6"/>
<text text-anchor="start" x="1068.82" y="-924.8" font-family="Arial" font-size="14.00">id </text>
<text text-anchor="start" x="1083.6" y="-924.8" font-family="Arial" font-size="14.00" fill="#666666">[uuid]</text>
<polygon fill="none" stroke="black" points="1061.82,-881.8 1061.82,-912.6 1338.86,-912.6 1338.86,-881.8 1061.82,-881.8"/>
<text text-anchor="start" x="1068.82" y="-894" font-family="Arial" font-size="14.00">name </text>
<text text-anchor="start" x="1107.73" y="-894" font-family="Arial" font-size="14.00" fill="#666666">[text]</text>
<polygon fill="none" stroke="black" points="1061.82,-851 1061.82,-881.8 1338.86,-881.8 1338.86,-851 1061.82,-851"/>
<text text-anchor="start" x="1068.82" y="-863.2" font-family="Arial" font-size="14.00">description </text>
<text text-anchor="start" x="1140.41" y="-863.2" font-family="Arial" font-size="14.00" fill="#666666">[text]</text>
<polygon fill="none" stroke="black" points="1061.82,-820.2 1061.82,-851 1338.86,-851 1338.86,-820.2 1061.82,-820.2"/>
<text text-anchor="start" x="1068.82" y="-832.4" font-family="Arial" font-size="14.00">alt_text </text>
<text text-anchor="start" x="1117.84" y="-832.4" font-family="Arial" font-size="14.00" fill="#666666">[text]</text>
<polygon fill="none" stroke="black" points="1061.82,-789.4 1061.82,-820.2 1338.86,-820.2 1338.86,-789.4 1061.82,-789.4"/>
<text text-anchor="start" x="1068.82" y="-801.6" font-family="Arial" font-size="14.00">created_by </text>
<text text-anchor="start" x="1141.97" y="-801.6" font-family="Arial" font-size="14.00" fill="#666666">[uuid]</text>
<polygon fill="none" stroke="black" points="1061.82,-758.6 1061.82,-789.4 1338.86,-789.4 1338.86,-758.6 1061.82,-758.6"/>
<text text-anchor="start" x="1068.82" y="-770.8" font-family="Arial" font-size="14.00">channel_id </text>
<text text-anchor="start" x="1140.43" y="-770.8" font-family="Arial" font-size="14.00" fill="#666666">[uuid]</text>
<polygon fill="none" stroke="black" points="1061.82,-727.8 1061.82,-758.6 1338.86,-758.6 1338.86,-727.8 1061.82,-727.8"/>
<text text-anchor="start" x="1068.82" y="-740" font-family="Arial" font-size="14.00">video_id </text>
<text text-anchor="start" x="1124.86" y="-740" font-family="Arial" font-size="14.00" fill="#666666">[text]</text>
<polygon fill="none" stroke="black" points="1061.82,-697 1061.82,-727.8 1338.86,-727.8 1338.86,-697 1061.82,-697"/>
<text text-anchor="start" x="1068.82" y="-709.2" font-family="Arial" font-size="14.00">created_on </text>
<text text-anchor="start" x="1142.76" y="-709.2" font-family="Arial" font-size="14.00" fill="#666666">[timestamp without time zone]</text>
<polygon fill="none" stroke="black" points="1061.82,-666.2 1061.82,-697 1338.86,-697 1338.86,-666.2 1061.82,-666.2"/>
<text text-anchor="start" x="1068.82" y="-678.4" font-family="Arial" font-size="14.00">updated_on </text>
<text text-anchor="start" x="1146.67" y="-678.4" font-family="Arial" font-size="14.00" fill="#666666">[timestamp without time zone]</text>
<polygon fill="none" stroke="black" points="1061.82,-635.4 1061.82,-666.2 1338.86,-666.2 1338.86,-635.4 1061.82,-635.4"/>
<text text-anchor="start" x="1068.82" y="-647.6" font-family="Arial" font-size="14.00">status </text>
<text text-anchor="start" x="1110.06" y="-647.6" font-family="Arial" font-size="14.00" fill="#666666">[post_status]</text>
<polygon fill="none" stroke="black" points="1061.82,-604.6 1061.82,-635.4 1338.86,-635.4 1338.86,-604.6 1061.82,-604.6"/>
<text text-anchor="start" x="1068.82" y="-616.8" font-family="Arial" font-size="14.00">upvotes </text>
<text text-anchor="start" x="1121.74" y="-616.8" font-family="Arial" font-size="14.00" fill="#666666">[integer]</text>
<polygon fill="none" stroke="black" points="1061.82,-573.8 1061.82,-604.6 1338.86,-604.6 1338.86,-573.8 1061.82,-573.8"/>
<text text-anchor="start" x="1068.82" y="-586" font-family="Arial" font-size="14.00">downvotes </text>
<text text-anchor="start" x="1139.64" y="-586" font-family="Arial" font-size="14.00" fill="#666666">[integer]</text>
<polygon fill="none" stroke="black" points="1061.82,-543 1061.82,-573.8 1338.86,-573.8 1338.86,-543 1061.82,-543"/>
<text text-anchor="start" x="1068.82" y="-555.2" font-family="Arial" font-size="14.00">comments </text>
<text text-anchor="start" x="1137.28" y="-555.2" font-family="Arial" font-size="14.00" fill="#666666">[integer]</text>
<polygon fill="none" stroke="black" stroke-width="3" points="1060.32,-541.5 1060.32,-980.5 1340.36,-980.5 1340.36,-541.5 1060.32,-541.5"/>
</g>
<!-- public.user -->
<g id="node8" class="node">
<title>public.user</title>
<polygon fill="#efefef" stroke="none" points="871.82,-366.6 871.82,-402.2 1148.86,-402.2 1148.86,-366.6 871.82,-366.6"/>
<polygon fill="none" stroke="black" points="871.82,-366.6 871.82,-402.2 1148.86,-402.2 1148.86,-366.6 871.82,-366.6"/>
<text text-anchor="start" x="908.35" y="-380" font-family="Arial Bold" font-size="18.00">public.user</text>
<text text-anchor="start" x="987.83" y="-380" font-family="Arial" font-size="14.00">    </text>
<text text-anchor="start" x="1018.95" y="-380" font-family="Arial" font-size="14.00" fill="#666666">[BASE TABLE]</text>
<polygon fill="none" stroke="black" points="871.82,-335.8 871.82,-366.6 1148.86,-366.6 1148.86,-335.8 871.82,-335.8"/>
<text text-anchor="start" x="878.82" y="-348" font-family="Arial" font-size="14.00">id </text>
<text text-anchor="start" x="893.6" y="-348" font-family="Arial" font-size="14.00" fill="#666666">[uuid]</text>
<polygon fill="none" stroke="black" points="871.82,-305 871.82,-335.8 1148.86,-335.8 1148.86,-305 871.82,-305"/>
<text text-anchor="start" x="878.82" y="-317.2" font-family="Arial" font-size="14.00">username </text>
<text text-anchor="start" x="944.96" y="-317.2" font-family="Arial" font-size="14.00" fill="#666666">[varchar(25)]</text>
<polygon fill="none" stroke="black" points="871.82,-274.2 871.82,-305 1148.86,-305 1148.86,-274.2 871.82,-274.2"/>
<text text-anchor="start" x="878.82" y="-286.4" font-family="Arial" font-size="14.00">profile_image </text>
<text text-anchor="start" x="966.75" y="-286.4" font-family="Arial" font-size="14.00" fill="#666666">[text]</text>
<polygon fill="none" stroke="black" points="871.82,-243.4 871.82,-274.2 1148.86,-274.2 1148.86,-243.4 871.82,-243.4"/>
<text text-anchor="start" x="878.82" y="-255.6" font-family="Arial" font-size="14.00">role </text>
<text text-anchor="start" x="906.05" y="-255.6" font-family="Arial" font-size="14.00" fill="#666666">[site_role]</text>
<polygon fill="none" stroke="black" points="871.82,-212.6 871.82,-243.4 1148.86,-243.4 1148.86,-212.6 871.82,-212.6"/>
<text text-anchor="start" x="878.82" y="-224.8" font-family="Arial" font-size="14.00">created_on </text>
<text text-anchor="start" x="952.76" y="-224.8" font-family="Arial" font-size="14.00" fill="#666666">[timestamp without time zone]</text>
<polygon fill="none" stroke="black" points="871.82,-181.8 871.82,-212.6 1148.86,-212.6 1148.86,-181.8 871.82,-181.8"/>
<text text-anchor="start" x="878.82" y="-194" font-family="Arial" font-size="14.00">updated_on </text>
<text text-anchor="start" x="956.67" y="-194" font-family="Arial" font-size="14.00" fill="#666666">[timestamp without time zone]</text>
<polygon fill="none" stroke="black" points="871.82,-151 871.82,-181.8 1148.86,-181.8 1148.86,-151 871.82,-151"/>
<text text-anchor="start" x="878.82" y="-163.2" font-family="Arial" font-size="14.00">discord_id </text>
<text text-anchor="start" x="946.52" y="-163.2" font-family="Arial" font-size="14.00" fill="#666666">[bigint]</text>
<polygon fill="none" stroke="black" points="871.82,-120.2 871.82,-151 1148.86,-151 1148.86,-120.2 871.82,-120.2"/>
<text text-anchor="start" x="878.82" y="-132.4" font-family="Arial" font-size="14.00">github_id </text>
<text text-anchor="start" x="939.53" y="-132.4" font-family="Arial" font-size="14.00" fill="#666666">[integer]</text>
<polygon fill="none" stroke="black" points="871.82,-89.4 871.82,-120.2 1148.86,-120.2 1148.86,-89.4 871.82,-89.4"/>
<text text-anchor="start" x="878.82" y="-101.6" font-family="Arial" font-size="14.00">followers </text>
<text text-anchor="start" x="937.95" y="-101.6" font-family="Arial" font-size="14.00" fill="#666666">[integer]</text>
<polygon fill="none" stroke="black" points="871.82,-58.6 871.82,-89.4 1148.86,-89.4 1148.86,-58.6 871.82,-58.6"/>
<text text-anchor="start" x="878.82" y="-70.8" font-family="Arial" font-size="14.00">following </text>
<text text-anchor="start" x="937.18" y="-70.8" font-family="Arial" font-size="14.00" fill="#666666">[integer]</text>
</g>
<!-- public.post&#45;&gt;public.user -->
<g id="edge7" class="edge">
<title>public.post:created_by&#45;&gt;public.user:id</title>
<path fill="none" stroke="black" d="M1050.42,-804.41C927.61,-794.87 995.56,-612.44 1061.82,-496.8 1084.15,-457.82 1126.38,-484.3 1148.86,-445.4 1169.81,-409.15 1191.73,-351.2 1149.86,-351.2"/>
<polygon fill="black" stroke="black" points="1050.49,-804.41 1060.31,-809.28 1055.82,-804.61 1060.15,-804.77 1060.15,-804.77 1060.15,-804.77 1055.82,-804.61 1060.65,-800.29 1050.49,-804.41"/>
<text text-anchor="start" x="811.66" y="-814.8" font-family="Arial" font-size="10.00">FOREIGN KEY (created_by) REFERENCES &quot;user&quot;(id)</text>
</g>
<!-- public.channel -->
<g id="node9" class="node">
<title>public.channel</title>
<polygon fill="#efefef" stroke="none" points="1252.82,-382 1252.82,-417.6 1529.86,-417.6 1529.86,-382 1252.82,-382"/>
<polygon fill="none" stroke="black" points="1252.82,-382 1252.82,-417.6 1529.86,-417.6 1529.86,-382 1252.82,-382"/>
<text text-anchor="start" x="1276.36" y="-395.4" font-family="Arial Bold" font-size="18.00">public.channel</text>
<text text-anchor="start" x="1381.82" y="-395.4" font-family="Arial" font-size="14.00">    </text>
<text text-anchor="start" x="1412.94" y="-395.4" font-family="Arial" font-size="14.00" fill="#666666">[BASE TABLE]</text>
<polygon fill="none" stroke="black" points="1252.82,-351.2 1252.82,-382 1529.86,-382 1529.86,-351.2 1252.82,-351.2"/>
<text text-anchor="start" x="1259.82" y="-363.4" font-family="Arial" font-size="14.00">id </text>
<text text-anchor="start" x="1274.6" y="-363.4" font-family="Arial" font-size="14.00" fill="#666666">[uuid]</text>
<polygon fill="none" stroke="black" points="1252.82,-320.4 1252.82,-351.2 1529.86,-351.2 1529.86,-320.4 1252.82,-320.4"/>
<text text-anchor="start" x="1259.82" y="-332.6" font-family="Arial" font-size="14.00">name </text>
<text text-anchor="start" x="1298.73" y="-332.6" font-family="Arial" font-size="14.00" fill="#666666">[text]</text>
<polygon fill="none" stroke="black" points="1252.82,-289.6 1252.82,-320.4 1529.86,-320.4 1529.86,-289.6 1252.82,-289.6"/>
<text text-anchor="start" x="1259.82" y="-301.8" font-family="Arial" font-size="14.00">description </text>
<text text-anchor="start" x="1331.41" y="-301.8" font-family="Arial" font-size="14.00" fill="#666666">[text]</text>
<polygon fill="none" stroke="black" points="1252.82,-258.8 1252.82,-289.6 1529.86,-289.6 1529.86,-258.8 1252.82,-258.8"/>
<text text-anchor="start" x="1259.82" y="-271" font-family="Arial" font-size="14.00">guidelines </text>
<text text-anchor="start" x="1326.75" y="-271" font-family="Arial" font-size="14.00" fill="#666666">[text]</text>
<polygon fill="none" stroke="black" points="1252.82,-228 1252.82,-258.8 1529.86,-258.8 1529.86,-228 1252.82,-228"/>
<text text-anchor="start" x="1259.82" y="-240.2" font-family="Arial" font-size="14.00">created_by </text>
<text text-anchor="start" x="1332.97" y="-240.2" font-family="Arial" font-size="14.00" fill="#666666">[uuid]</text>
<polygon fill="none" stroke="black" points="1252.82,-197.2 1252.82,-228 1529.86,-228 1529.86,-197.2 1252.82,-197.2"/>
<text text-anchor="start" x="1259.82" y="-209.4" font-family="Arial" font-size="14.00">banner_image </text>
<text text-anchor="start" x="1353.22" y="-209.4" font-family="Arial" font-size="14.00" fill="#666666">[text]</text>
<polygon fill="none" stroke="black" points="1252.82,-166.4 1252.82,-197.2 1529.86,-197.2 1529.86,-166.4 1252.82,-166.4"/>
<text text-anchor="start" x="1259.82" y="-178.6" font-family="Arial" font-size="14.00">icon </text>
<text text-anchor="start" x="1289.39" y="-178.6" font-family="Arial" font-size="14.00" fill="#666666">[text]</text>
<polygon fill="none" stroke="black" points="1252.82,-135.6 1252.82,-166.4 1529.86,-166.4 1529.86,-135.6 1252.82,-135.6"/>
<text text-anchor="start" x="1259.82" y="-147.8" font-family="Arial" font-size="14.00">created_on </text>
<text text-anchor="start" x="1333.76" y="-147.8" font-family="Arial" font-size="14.00" fill="#666666">[timestamp without time zone]</text>
<polygon fill="none" stroke="black" points="1252.82,-104.8 1252.82,-135.6 1529.86,-135.6 1529.86,-104.8 1252.82,-104.8"/>
<text text-anchor="start" x="1259.82" y="-117" font-family="Arial" font-size="14.00">updated_on </text>
<text text-anchor="start" x="1337.67" y="-117" font-family="Arial" font-size="14.00" fill="#666666">[timestamp without time zone]</text>
<polygon fill="none" stroke="black" points="1252.82,-74 1252.82,-104.8 1529.86,-104.8 1529.86,-74 1252.82,-74"/>
<text text-anchor="start" x="1259.82" y="-86.2" font-family="Arial" font-size="14.00">subscribers </text>
<text text-anchor="start" x="1335.29" y="-86.2" font-family="Arial" font-size="14.00" fill="#666666">[integer]</text>
<polygon fill="none" stroke="black" points="1252.82,-43.2 1252.82,-74 1529.86,-74 1529.86,-43.2 1252.82,-43.2"/>
<text text-anchor="start" x="1259.82" y="-55.4" font-family="Arial" font-size="14.00">posts </text>
<text text-anchor="start" x="1297.17" y="-55.4" font-family="Arial" font-size="14.00" fill="#666666">[integer]</text>
</g>
<!-- public.post&#45;&gt;public.channel -->
<g id="edge8" class="edge">
<title>public.post:channel_id&#45;&gt;public.channel:id</title>
<path fill="none" stroke="black" d="M1350.23,-773.56C1459.78,-763.82 1405.3,-596.24 1338.86,-496.8 1315.83,-462.33 1275.97,-495.19 1252.82,-460.8 1229.43,-426.07 1209.95,-366.6 1251.82,-366.6"/>
<polygon fill="black" stroke="black" points="1350.18,-773.56 1340,-769.49 1344.85,-773.79 1340.52,-773.97 1340.52,-773.97 1340.52,-773.97 1344.85,-773.79 1340.38,-778.48 1350.18,-773.56"/>
<text text-anchor="start" x="1346.86" y="-784" font-family="Arial" font-size="10.00">FOREIGN KEY (channel_id) REFERENCES channel(id)</text>
</g>
<!-- public.comment -->
<g id="node2" class="node">
<title>public.comment</title>
<polygon fill="#efefef" stroke="none" points="63.82,-1381.6 63.82,-1417.2 340.86,-1417.2 340.86,-1381.6 63.82,-1381.6"/>
<polygon fill="none" stroke="black" points="63.82,-1381.6 63.82,-1417.2 340.86,-1417.2 340.86,-1381.6 63.82,-1381.6"/>
<text text-anchor="start" x="81.86" y="-1395" font-family="Arial Bold" font-size="18.00">public.comment</text>
<text text-anchor="start" x="198.33" y="-1395" font-family="Arial" font-size="14.00">    </text>
<text text-anchor="start" x="229.45" y="-1395" font-family="Arial" font-size="14.00" fill="#666666">[BASE TABLE]</text>
<polygon fill="none" stroke="black" points="63.82,-1350.8 63.82,-1381.6 340.86,-1381.6 340.86,-1350.8 63.82,-1350.8"/>
<text text-anchor="start" x="70.82" y="-1363" font-family="Arial" font-size="14.00">id </text>
<text text-anchor="start" x="85.6" y="-1363" font-family="Arial" font-size="14.00" fill="#666666">[uuid]</text>
<polygon fill="none" stroke="black" points="63.82,-1320 63.82,-1350.8 340.86,-1350.8 340.86,-1320 63.82,-1320"/>
<text text-anchor="start" x="70.82" y="-1332.2" font-family="Arial" font-size="14.00">content </text>
<text text-anchor="start" x="120.63" y="-1332.2" font-family="Arial" font-size="14.00" fill="#666666">[text]</text>
<polygon fill="none" stroke="black" points="63.82,-1289.2 63.82,-1320 340.86,-1320 340.86,-1289.2 63.82,-1289.2"/>
<text text-anchor="start" x="70.82" y="-1301.4" font-family="Arial" font-size="14.00">creator_id </text>
<text text-anchor="start" x="136.96" y="-1301.4" font-family="Arial" font-size="14.00" fill="#666666">[uuid]</text>
<polygon fill="none" stroke="black" points="63.82,-1258.4 63.82,-1289.2 340.86,-1289.2 340.86,-1258.4 63.82,-1258.4"/>
<text text-anchor="start" x="70.82" y="-1270.6" font-family="Arial" font-size="14.00">post_id </text>
<text text-anchor="start" x="119.85" y="-1270.6" font-family="Arial" font-size="14.00" fill="#666666">[uuid]</text>
<polygon fill="none" stroke="black" points="63.82,-1227.6 63.82,-1258.4 340.86,-1258.4 340.86,-1227.6 63.82,-1227.6"/>
<text text-anchor="start" x="70.82" y="-1239.8" font-family="Arial" font-size="14.00">reply_to </text>
<text text-anchor="start" x="124.51" y="-1239.8" font-family="Arial" font-size="14.00" fill="#666666">[uuid]</text>
<polygon fill="none" stroke="black" points="63.82,-1196.8 63.82,-1227.6 340.86,-1227.6 340.86,-1196.8 63.82,-1196.8"/>
<text text-anchor="start" x="70.82" y="-1209" font-family="Arial" font-size="14.00">created_on </text>
<text text-anchor="start" x="144.76" y="-1209" font-family="Arial" font-size="14.00" fill="#666666">[timestamp without time zone]</text>
<polygon fill="none" stroke="black" points="63.82,-1166 63.82,-1196.8 340.86,-1196.8 340.86,-1166 63.82,-1166"/>
<text text-anchor="start" x="70.82" y="-1178.2" font-family="Arial" font-size="14.00">updated_on </text>
<text text-anchor="start" x="148.67" y="-1178.2" font-family="Arial" font-size="14.00" fill="#666666">[timestamp without time zone]</text>
<polygon fill="none" stroke="black" points="63.82,-1135.2 63.82,-1166 340.86,-1166 340.86,-1135.2 63.82,-1135.2"/>
<text text-anchor="start" x="70.82" y="-1147.4" font-family="Arial" font-size="14.00">upvotes </text>
<text text-anchor="start" x="123.74" y="-1147.4" font-family="Arial" font-size="14.00" fill="#666666">[integer]</text>
<polygon fill="none" stroke="black" points="63.82,-1104.4 63.82,-1135.2 340.86,-1135.2 340.86,-1104.4 63.82,-1104.4"/>
<text text-anchor="start" x="70.82" y="-1116.6" font-family="Arial" font-size="14.00">downvotes </text>
<text text-anchor="start" x="141.64" y="-1116.6" font-family="Arial" font-size="14.00" fill="#666666">[integer]</text>
</g>
<!-- public.comment&#45;&gt;public.post -->
<g id="edge1" class="edge">
<title>public.comment:post_id&#45;&gt;public.post:id</title>
<path fill="none" stroke="black" d="M351.82,-1273.21C430.73,-1263.13 325.81,-1126.04 393.34,-1061.2 502.44,-956.44 909.56,-928 1060.82,-928"/>
<polygon fill="black" stroke="black" points="352.17,-1273.19 341.92,-1269.29 346.85,-1273.51 342.52,-1273.76 342.52,-1273.76 342.52,-1273.76 346.85,-1273.51 342.46,-1278.27 352.17,-1273.19"/>
<text text-anchor="start" x="7" y="-1283.8" font-family="Arial" font-size="10.00">FOREIGN KEY (post_id) REFERENCES post(id) ON DELETE CASCADE</text>
</g>
<!-- public.playlist_post -->
<g id="node3" class="node">
<title>public.playlist_post</title>
<polygon fill="#efefef" stroke="none" points="445.34,-1304.6 445.34,-1340.2 725.33,-1340.2 725.33,-1304.6 445.34,-1304.6"/>
<polygon fill="none" stroke="black" points="445.34,-1304.6 445.34,-1340.2 725.33,-1340.2 725.33,-1304.6 445.34,-1304.6"/>
<text text-anchor="start" x="452.34" y="-1318" font-family="Arial Bold" font-size="18.00">public.playlist_post</text>
<text text-anchor="start" x="593.84" y="-1318" font-family="Arial" font-size="14.00">    </text>
<text text-anchor="start" x="624.96" y="-1318" font-family="Arial" font-size="14.00" fill="#666666">[BASE TABLE]</text>
<polygon fill="none" stroke="black" points="445.34,-1273.8 445.34,-1304.6 725.33,-1304.6 725.33,-1273.8 445.34,-1273.8"/>
<text text-anchor="start" x="452.34" y="-1286" font-family="Arial" font-size="14.00">id </text>
<text text-anchor="start" x="467.13" y="-1286" font-family="Arial" font-size="14.00" fill="#666666">[uuid]</text>
<polygon fill="none" stroke="black" points="445.34,-1243 445.34,-1273.8 725.33,-1273.8 725.33,-1243 445.34,-1243"/>
<text text-anchor="start" x="452.34" y="-1255.2" font-family="Arial" font-size="14.00">playlist_id </text>
<text text-anchor="start" x="517.71" y="-1255.2" font-family="Arial" font-size="14.00" fill="#666666">[uuid]</text>
<polygon fill="none" stroke="black" points="445.34,-1212.2 445.34,-1243 725.33,-1243 725.33,-1212.2 445.34,-1212.2"/>
<text text-anchor="start" x="452.34" y="-1224.4" font-family="Arial" font-size="14.00">post_id </text>
<text text-anchor="start" x="501.38" y="-1224.4" font-family="Arial" font-size="14.00" fill="#666666">[uuid]</text>
<polygon fill="none" stroke="black" points="445.34,-1181.4 445.34,-1212.2 725.33,-1212.2 725.33,-1181.4 445.34,-1181.4"/>
<text text-anchor="start" x="452.34" y="-1193.6" font-family="Arial" font-size="14.00">sort_index </text>
<text text-anchor="start" x="520.83" y="-1193.6" font-family="Arial" font-size="14.00" fill="#666666">[smallint]</text>
</g>
<!-- public.playlist_post&#45;&gt;public.post -->
<g id="edge2" class="edge">
<title>public.playlist_post:post_id&#45;&gt;public.post:id</title>
<path fill="none" stroke="black" d="M736.59,-1226.85C796.46,-1217.17 729.13,-1116.78 777.34,-1061.2 868.55,-956.04 921.61,-928 1060.82,-928"/>
<polygon fill="black" stroke="black" points="736.64,-1226.84 726.33,-1223.09 731.32,-1227.23 727,-1227.55 727,-1227.55 727,-1227.55 731.32,-1227.23 726.99,-1232.06 736.64,-1226.84"/>
<text text-anchor="start" x="617.69" y="-1211.6" font-family="Arial" font-size="10.00">FOREIGN KEY (post_id) REFERENCES post(id)</text>
</g>
<!-- public.channel_post_report -->
<g id="node4" class="node">
<title>public.channel_post_report</title>
<polygon fill="#efefef" stroke="none" points="829.87,-1335.4 829.87,-1371 1164.8,-1371 1164.8,-1335.4 829.87,-1335.4"/>
<polygon fill="none" stroke="black" points="829.87,-1335.4 829.87,-1371 1164.8,-1371 1164.8,-1335.4 829.87,-1335.4"/>
<text text-anchor="start" x="836.87" y="-1348.8" font-family="Arial Bold" font-size="18.00">public.channel_post_report</text>
<text text-anchor="start" x="1033.31" y="-1348.8" font-family="Arial" font-size="14.00">    </text>
<text text-anchor="start" x="1064.43" y="-1348.8" font-family="Arial" font-size="14.00" fill="#666666">[BASE TABLE]</text>
<polygon fill="none" stroke="black" points="829.87,-1304.6 829.87,-1335.4 1164.8,-1335.4 1164.8,-1304.6 829.87,-1304.6"/>
<text text-anchor="start" x="836.87" y="-1316.8" font-family="Arial" font-size="14.00">id </text>
<text text-anchor="start" x="851.66" y="-1316.8" font-family="Arial" font-size="14.00" fill="#666666">[uuid]</text>
<polygon fill="none" stroke="black" points="829.87,-1273.8 829.87,-1304.6 1164.8,-1304.6 1164.8,-1273.8 829.87,-1273.8"/>
<text text-anchor="start" x="836.87" y="-1286" font-family="Arial" font-size="14.00">post_id </text>
<text text-anchor="start" x="885.9" y="-1286" font-family="Arial" font-size="14.00" fill="#666666">[uuid]</text>
<polygon fill="none" stroke="black" points="829.87,-1243 829.87,-1273.8 1164.8,-1273.8 1164.8,-1243 829.87,-1243"/>
<text text-anchor="start" x="836.87" y="-1255.2" font-family="Arial" font-size="14.00">reporter_id </text>
<text text-anchor="start" x="908.46" y="-1255.2" font-family="Arial" font-size="14.00" fill="#666666">[uuid]</text>
<polygon fill="none" stroke="black" points="829.87,-1212.2 829.87,-1243 1164.8,-1243 1164.8,-1212.2 829.87,-1212.2"/>
<text text-anchor="start" x="836.87" y="-1224.4" font-family="Arial" font-size="14.00">description </text>
<text text-anchor="start" x="908.46" y="-1224.4" font-family="Arial" font-size="14.00" fill="#666666">[text]</text>
<polygon fill="none" stroke="black" points="829.87,-1181.4 829.87,-1212.2 1164.8,-1212.2 1164.8,-1181.4 829.87,-1181.4"/>
<text text-anchor="start" x="836.87" y="-1193.6" font-family="Arial" font-size="14.00">resolution </text>
<text text-anchor="start" x="901.46" y="-1193.6" font-family="Arial" font-size="14.00" fill="#666666">[text]</text>
<polygon fill="none" stroke="black" points="829.87,-1150.6 829.87,-1181.4 1164.8,-1181.4 1164.8,-1150.6 829.87,-1150.6"/>
<text text-anchor="start" x="836.87" y="-1162.8" font-family="Arial" font-size="14.00">status </text>
<text text-anchor="start" x="878.11" y="-1162.8" font-family="Arial" font-size="14.00" fill="#666666">[report_status]</text>
</g>
<!-- public.channel_post_report&#45;&gt;public.post -->
<g id="edge3" class="edge">
<title>public.channel_post_report:post_id&#45;&gt;public.post:id</title>
<path fill="none" stroke="black" d="M1175.93,-1288.55C1242.44,-1279.47 1198.46,-1176.84 1164.8,-1107.4 1139.26,-1054.7 1087.49,-1077.84 1061.82,-1025.2 1042.88,-986.37 1017.61,-928 1060.82,-928"/>
<polygon fill="black" stroke="black" points="1176.12,-1288.54 1165.85,-1284.69 1170.79,-1288.88 1166.47,-1289.16 1166.47,-1289.16 1166.47,-1289.16 1170.79,-1288.88 1166.42,-1293.67 1176.12,-1288.54"/>
<text text-anchor="start" x="1172.8" y="-1299.2" font-family="Arial" font-size="10.00">FOREIGN KEY (post_id) REFERENCES post(id)</text>
</g>
<!-- public.post_report -->
<g id="node5" class="node">
<title>public.post_report</title>
<polygon fill="#efefef" stroke="none" points="1269.35,-1335.4 1269.35,-1371 1539.32,-1371 1539.32,-1335.4 1269.35,-1335.4"/>
<polygon fill="none" stroke="black" points="1269.35,-1335.4 1269.35,-1371 1539.32,-1371 1539.32,-1335.4 1269.35,-1335.4"/>
<text text-anchor="start" x="1276.35" y="-1348.8" font-family="Arial Bold" font-size="18.00">public.post_report</text>
<text text-anchor="start" x="1407.83" y="-1348.8" font-family="Arial" font-size="14.00">    </text>
<text text-anchor="start" x="1438.95" y="-1348.8" font-family="Arial" font-size="14.00" fill="#666666">[BASE TABLE]</text>
<polygon fill="none" stroke="black" points="1269.35,-1304.6 1269.35,-1335.4 1539.32,-1335.4 1539.32,-1304.6 1269.35,-1304.6"/>
<text text-anchor="start" x="1276.35" y="-1316.8" font-family="Arial" font-size="14.00">id </text>
<text text-anchor="start" x="1291.14" y="-1316.8" font-family="Arial" font-size="14.00" fill="#666666">[uuid]</text>
<polygon fill="none" stroke="black" points="1269.35,-1273.8 1269.35,-1304.6 1539.32,-1304.6 1539.32,-1273.8 1269.35,-1273.8"/>
<text text-anchor="start" x="1276.35" y="-1286" font-family="Arial" font-size="14.00">post_id </text>
<text text-anchor="start" x="1325.39" y="-1286" font-family="Arial" font-size="14.00" fill="#666666">[uuid]</text>
<polygon fill="none" stroke="black" points="1269.35,-1243 1269.35,-1273.8 1539.32,-1273.8 1539.32,-1243 1269.35,-1243"/>
<text text-anchor="start" x="1276.35" y="-1255.2" font-family="Arial" font-size="14.00">reporter_id </text>
<text text-anchor="start" x="1347.95" y="-1255.2" font-family="Arial" font-size="14.00" fill="#666666">[uuid]</text>
<polygon fill="none" stroke="black" points="1269.35,-1212.2 1269.35,-1243 1539.32,-1243 1539.32,-1212.2 1269.35,-1212.2"/>
<text text-anchor="start" x="1276.35" y="-1224.4" font-family="Arial" font-size="14.00">description </text>
<text text-anchor="start" x="1347.95" y="-1224.4" font-family="Arial" font-size="14.00" fill="#666666">[text]</text>
<polygon fill="none" stroke="black" points="1269.35,-1181.4 1269.35,-1212.2 1539.32,-1212.2 1539.32,-1181.4 1269.35,-1181.4"/>
<text text-anchor="start" x="1276.35" y="-1193.6" font-family="Arial" font-size="14.00">resolution </text>
<text text-anchor="start" x="1340.95" y="-1193.6" font-family="Arial" font-size="14.00" fill="#666666">[text]</text>
<polygon fill="none" stroke="black" points="1269.35,-1150.6 1269.35,-1181.4 1539.32,-1181.4 1539.32,-1150.6 1269.35,-1150.6"/>
<text text-anchor="start" x="1276.35" y="-1162.8" font-family="Arial" font-size="14.00">status </text>
<text text-anchor="start" x="1317.6" y="-1162.8" font-family="Arial" font-size="14.00" fill="#666666">[report_status]</text>
</g>
<!-- public.post_report&#45;&gt;public.post -->
<g id="edge4" class="edge">
<title>public.post_report:post_id&#45;&gt;public.post:id</title>
<path fill="none" stroke="black" d="M1258.27,-1288.57C1192.34,-1279.74 1242.62,-1179.79 1269.35,-1107.4 1285.92,-1062.52 1322.18,-1070.04 1338.86,-1025.2 1353.92,-984.71 1383.06,-928 1339.86,-928"/>
<polygon fill="black" stroke="black" points="1258.04,-1288.56 1267.74,-1293.67 1263.36,-1288.89 1267.69,-1289.16 1267.69,-1289.16 1267.69,-1289.16 1263.36,-1288.89 1268.3,-1284.69 1258.04,-1288.56"/>
<text text-anchor="start" x="1019.38" y="-1273.2" font-family="Arial" font-size="10.00">FOREIGN KEY (post_id) REFERENCES post(id) ON DELETE SET NULL</text>
</g>
<!-- public.post_tag -->
<g id="node6" class="node">
<title>public.post_tag</title>
<polygon fill="#efefef" stroke="none" points="1643.85,-1289.2 1643.85,-1324.8 1892.82,-1324.8 1892.82,-1289.2 1643.85,-1289.2"/>
<polygon fill="none" stroke="black" points="1643.85,-1289.2 1643.85,-1324.8 1892.82,-1324.8 1892.82,-1289.2 1643.85,-1289.2"/>
<text text-anchor="start" x="1650.85" y="-1302.6" font-family="Arial Bold" font-size="18.00">public.post_tag</text>
<text text-anchor="start" x="1761.34" y="-1302.6" font-family="Arial" font-size="14.00">    </text>
<text text-anchor="start" x="1792.45" y="-1302.6" font-family="Arial" font-size="14.00" fill="#666666">[BASE TABLE]</text>
<polygon fill="none" stroke="black" points="1643.85,-1258.4 1643.85,-1289.2 1892.82,-1289.2 1892.82,-1258.4 1643.85,-1258.4"/>
<text text-anchor="start" x="1650.85" y="-1270.6" font-family="Arial" font-size="14.00">id </text>
<text text-anchor="start" x="1665.63" y="-1270.6" font-family="Arial" font-size="14.00" fill="#666666">[uuid]</text>
<polygon fill="none" stroke="black" points="1643.85,-1227.6 1643.85,-1258.4 1892.82,-1258.4 1892.82,-1227.6 1643.85,-1227.6"/>
<text text-anchor="start" x="1650.85" y="-1239.8" font-family="Arial" font-size="14.00">post_id </text>
<text text-anchor="start" x="1699.88" y="-1239.8" font-family="Arial" font-size="14.00" fill="#666666">[uuid]</text>
<polygon fill="none" stroke="black" points="1643.85,-1196.8 1643.85,-1227.6 1892.82,-1227.6 1892.82,-1196.8 1643.85,-1196.8"/>
<text text-anchor="start" x="1650.85" y="-1209" font-family="Arial" font-size="14.00">tag_id </text>
<text text-anchor="start" x="1692.88" y="-1209" font-family="Arial" font-size="14.00" fill="#666666">[uuid]</text>
</g>
<!-- public.post_tag&#45;&gt;public.post -->
<g id="edge5" class="edge">
<title>public.post_tag:post_id&#45;&gt;public.post:id</title>
<path fill="none" stroke="black" d="M1632.53,-1242.31C1566.25,-1232.64 1641.76,-1123.57 1591.34,-1061.2 1511.82,-962.85 1466.34,-928 1339.86,-928"/>
<polygon fill="black" stroke="black" points="1632.54,-1242.31 1642.21,-1247.47 1637.86,-1242.67 1642.18,-1242.96 1642.18,-1242.96 1642.18,-1242.96 1637.86,-1242.67 1642.81,-1238.49 1632.54,-1242.31"/>
<text text-anchor="start" x="1393.46" y="-1227" font-family="Arial" font-size="10.00">FOREIGN KEY (post_id) REFERENCES post(id) ON DELETE CASCADE</text>
</g>
<!-- public.post_vote -->
<g id="node7" class="node">
<title>public.post_vote</title>
<polygon fill="#efefef" stroke="none" points="1997.35,-1289.2 1997.35,-1324.8 2255.32,-1324.8 2255.32,-1289.2 1997.35,-1289.2"/>
<polygon fill="none" stroke="black" points="1997.35,-1289.2 1997.35,-1324.8 2255.32,-1324.8 2255.32,-1289.2 1997.35,-1289.2"/>
<text text-anchor="start" x="2004.35" y="-1302.6" font-family="Arial Bold" font-size="18.00">public.post_vote</text>
<text text-anchor="start" x="2123.84" y="-1302.6" font-family="Arial" font-size="14.00">    </text>
<text text-anchor="start" x="2154.95" y="-1302.6" font-family="Arial" font-size="14.00" fill="#666666">[BASE TABLE]</text>
<polygon fill="none" stroke="black" points="1997.35,-1258.4 1997.35,-1289.2 2255.32,-1289.2 2255.32,-1258.4 1997.35,-1258.4"/>
<text text-anchor="start" x="2004.35" y="-1270.6" font-family="Arial" font-size="14.00">post_id </text>
<text text-anchor="start" x="2053.38" y="-1270.6" font-family="Arial" font-size="14.00" fill="#666666">[uuid]</text>
<polygon fill="none" stroke="black" points="1997.35,-1227.6 1997.35,-1258.4 2255.32,-1258.4 2255.32,-1227.6 1997.35,-1227.6"/>
<text text-anchor="start" x="2004.35" y="-1239.8" font-family="Arial" font-size="14.00">user_id </text>
<text text-anchor="start" x="2054.15" y="-1239.8" font-family="Arial" font-size="14.00" fill="#666666">[uuid]</text>
<polygon fill="none" stroke="black" points="1997.35,-1196.8 1997.35,-1227.6 2255.32,-1227.6 2255.32,-1196.8 1997.35,-1196.8"/>
<text text-anchor="start" x="2004.35" y="-1209" font-family="Arial" font-size="14.00">vote </text>
<text text-anchor="start" x="2034.7" y="-1209" font-family="Arial" font-size="14.00" fill="#666666">[vote]</text>
</g>
<!-- public.post_vote&#45;&gt;public.post -->
<g id="edge6" class="edge">
<title>public.post_vote:post_id&#45;&gt;public.post:id</title>
<path fill="none" stroke="black" d="M1986.39,-1273.21C1907.5,-1263.18 2012.12,-1126.73 1945.34,-1061.2 1847,-964.71 1477.62,-928 1339.86,-928"/>
<polygon fill="black" stroke="black" points="1986.03,-1273.19 1995.75,-1278.27 1991.36,-1273.51 1995.68,-1273.76 1995.68,-1273.76 1995.68,-1273.76 1991.36,-1273.51 1996.28,-1269.29 1986.03,-1273.19"/>
<text text-anchor="start" x="2003.35" y="-1283.8" font-family="Arial" font-size="10.00">FOREIGN KEY (post_id) REFERENCES post(id) ON DELETE CASCADE</text>
</g>
</g>
</svg>
