<?xml version="1.0" encoding="UTF-8" standalone="no"?>
<!DOCTYPE svg PUBLIC "-//W3C//DTD SVG 1.1//EN"
 "http://www.w3.org/Graphics/SVG/1.1/DTD/svg11.dtd">
<!-- Generated by graphviz version 12.1.2 (20240928.0832)
 -->
<!-- Title: public.playlist_post Pages: 1 -->
<svg width="776pt" height="818pt"
 viewBox="0.00 0.00 775.87 817.60" xmlns="http://www.w3.org/2000/svg" xmlns:xlink="http://www.w3.org/1999/xlink">
<g id="graph0" class="graph" transform="scale(1 1) rotate(0) translate(4 813.6)">
<title>public.playlist_post</title>
<polygon fill="white" stroke="none" points="-4,4 -4,-813.6 771.87,-813.6 771.87,4 -4,4"/>
<!-- public.playlist_post -->
<g id="node1" class="node">
<title>public.playlist_post</title>
<polygon fill="#efefef" stroke="none" points="255.61,-727.8 255.61,-763.4 535.59,-763.4 535.59,-727.8 255.61,-727.8"/>
<polygon fill="none" stroke="black" points="255.61,-727.8 255.61,-763.4 535.59,-763.4 535.59,-727.8 255.61,-727.8"/>
<text text-anchor="start" x="262.61" y="-741.2" font-family="Arial Bold" font-size="18.00">public.playlist_post</text>
<text text-anchor="start" x="404.1" y="-741.2" font-family="Arial" font-size="14.00">    </text>
<text text-anchor="start" x="435.22" y="-741.2" font-family="Arial" font-size="14.00" fill="#666666">[BASE TABLE]</text>
<polygon fill="none" stroke="black" points="255.61,-697 255.61,-727.8 535.59,-727.8 535.59,-697 255.61,-697"/>
<text text-anchor="start" x="262.61" y="-709.2" font-family="Arial" font-size="14.00">id </text>
<text text-anchor="start" x="277.39" y="-709.2" font-family="Arial" font-size="14.00" fill="#666666">[uuid]</text>
<polygon fill="none" stroke="black" points="255.61,-666.2 255.61,-697 535.59,-697 535.59,-666.2 255.61,-666.2"/>
<text text-anchor="start" x="262.61" y="-678.4" font-family="Arial" font-size="14.00">playlist_id </text>
<text text-anchor="start" x="327.97" y="-678.4" font-family="Arial" font-size="14.00" fill="#666666">[uuid]</text>
<polygon fill="none" stroke="black" points="255.61,-635.4 255.61,-666.2 535.59,-666.2 535.59,-635.4 255.61,-635.4"/>
<text text-anchor="start" x="262.61" y="-647.6" font-family="Arial" font-size="14.00">post_id </text>
<text text-anchor="start" x="311.64" y="-647.6" font-family="Arial" font-size="14.00" fill="#666666">[uuid]</text>
<polygon fill="none" stroke="black" points="255.61,-604.6 255.61,-635.4 535.59,-635.4 535.59,-604.6 255.61,-604.6"/>
<text text-anchor="start" x="262.61" y="-616.8" font-family="Arial" font-size="14.00">sort_index </text>
<text text-anchor="start" x="331.09" y="-616.8" font-family="Arial" font-size="14.00" fill="#666666">[smallint]</text>
<polygon fill="none" stroke="black" stroke-width="3" points="254.11,-603.1 254.11,-764.9 537.09,-764.9 537.09,-603.1 254.11,-603.1"/>
</g>
<!-- public.playlist -->
<g id="node2" class="node">
<title>public.playlist</title>
<polygon fill="#efefef" stroke="none" points="94.11,-320.4 94.11,-356 335.09,-356 335.09,-320.4 94.11,-320.4"/>
<polygon fill="none" stroke="black" points="94.11,-320.4 94.11,-356 335.09,-356 335.09,-320.4 94.11,-320.4"/>
<text text-anchor="start" x="101.11" y="-333.8" font-family="Arial Bold" font-size="18.00">public.playlist</text>
<text text-anchor="start" x="203.6" y="-333.8" font-family="Arial" font-size="14.00">    </text>
<text text-anchor="start" x="234.71" y="-333.8" font-family="Arial" font-size="14.00" fill="#666666">[BASE TABLE]</text>
<polygon fill="none" stroke="black" points="94.11,-289.6 94.11,-320.4 335.09,-320.4 335.09,-289.6 94.11,-289.6"/>
<text text-anchor="start" x="101.11" y="-301.8" font-family="Arial" font-size="14.00">id </text>
<text text-anchor="start" x="115.89" y="-301.8" font-family="Arial" font-size="14.00" fill="#666666">[uuid]</text>
<polygon fill="none" stroke="black" points="94.11,-258.8 94.11,-289.6 335.09,-289.6 335.09,-258.8 94.11,-258.8"/>
<text text-anchor="start" x="101.11" y="-271" font-family="Arial" font-size="14.00">user_id </text>
<text text-anchor="start" x="150.92" y="-271" font-family="Arial" font-size="14.00" fill="#666666">[uuid]</text>
<polygon fill="none" stroke="black" points="94.11,-228 94.11,-258.8 335.09,-258.8 335.09,-228 94.11,-228"/>
<text text-anchor="start" x="101.11" y="-240.2" font-family="Arial" font-size="14.00">name </text>
<text text-anchor="start" x="140.02" y="-240.2" font-family="Arial" font-size="14.00" fill="#666666">[varchar(32)]</text>
<polygon fill="none" stroke="black" points="94.11,-197.2 94.11,-228 335.09,-228 335.09,-197.2 94.11,-197.2"/>
<text text-anchor="start" x="101.11" y="-209.4" font-family="Arial" font-size="14.00">description </text>
<text text-anchor="start" x="172.7" y="-209.4" font-family="Arial" font-size="14.00" fill="#666666">[text]</text>
<polygon fill="none" stroke="black" points="94.11,-166.4 94.11,-197.2 335.09,-197.2 335.09,-166.4 94.11,-166.4"/>
<text text-anchor="start" x="101.11" y="-178.6" font-family="Arial" font-size="14.00">public </text>
<text text-anchor="start" x="141.58" y="-178.6" font-family="Arial" font-size="14.00" fill="#666666">[boolean]</text>
</g>
<!-- public.playlist_post&#45;&gt;public.playlist -->
<g id="edge1" class="edge">
<title>public.playlist_post:playlist_id&#45;&gt;public.playlist:id</title>
<path fill="none" stroke="black" d="M244.38,-681.09C101.3,-665.59 503.66,-305 336.09,-305"/>
<polygon fill="black" stroke="black" points="244.28,-681.08 254.05,-686.08 249.61,-681.35 253.94,-681.57 253.94,-681.57 253.94,-681.57 249.61,-681.35 254.5,-677.09 244.28,-681.08"/>
<text text-anchor="start" x="7" y="-691.6" font-family="Arial" font-size="10.00">FOREIGN KEY (playlist_id) REFERENCES playlist(id)</text>
</g>
<!-- public.post -->
<g id="node3" class="node">
<title>public.post</title>
<polygon fill="#efefef" stroke="none" points="439.08,-443.6 439.08,-479.2 716.12,-479.2 716.12,-443.6 439.08,-443.6"/>
<polygon fill="none" stroke="black" points="439.08,-443.6 439.08,-479.2 716.12,-479.2 716.12,-443.6 439.08,-443.6"/>
<text text-anchor="start" x="475.6" y="-457" font-family="Arial Bold" font-size="18.00">public.post</text>
<text text-anchor="start" x="555.1" y="-457" font-family="Arial" font-size="14.00">    </text>
<text text-anchor="start" x="586.22" y="-457" font-family="Arial" font-size="14.00" fill="#666666">[BASE TABLE]</text>
<polygon fill="none" stroke="black" points="439.08,-412.8 439.08,-443.6 716.12,-443.6 716.12,-412.8 439.08,-412.8"/>
<text text-anchor="start" x="446.08" y="-425" font-family="Arial" font-size="14.00">id </text>
<text text-anchor="start" x="460.86" y="-425" font-family="Arial" font-size="14.00" fill="#666666">[uuid]</text>
<polygon fill="none" stroke="black" points="439.08,-382 439.08,-412.8 716.12,-412.8 716.12,-382 439.08,-382"/>
<text text-anchor="start" x="446.08" y="-394.2" font-family="Arial" font-size="14.00">name </text>
<text text-anchor="start" x="484.99" y="-394.2" font-family="Arial" font-size="14.00" fill="#666666">[text]</text>
<polygon fill="none" stroke="black" points="439.08,-351.2 439.08,-382 716.12,-382 716.12,-351.2 439.08,-351.2"/>
<text text-anchor="start" x="446.08" y="-363.4" font-family="Arial" font-size="14.00">description </text>
<text text-anchor="start" x="517.67" y="-363.4" font-family="Arial" font-size="14.00" fill="#666666">[text]</text>
<polygon fill="none" stroke="black" points="439.08,-320.4 439.08,-351.2 716.12,-351.2 716.12,-320.4 439.08,-320.4"/>
<text text-anchor="start" x="446.08" y="-332.6" font-family="Arial" font-size="14.00">alt_text </text>
<text text-anchor="start" x="495.1" y="-332.6" font-family="Arial" font-size="14.00" fill="#666666">[text]</text>
<polygon fill="none" stroke="black" points="439.08,-289.6 439.08,-320.4 716.12,-320.4 716.12,-289.6 439.08,-289.6"/>
<text text-anchor="start" x="446.08" y="-301.8" font-family="Arial" font-size="14.00">created_by </text>
<text text-anchor="start" x="519.24" y="-301.8" font-family="Arial" font-size="14.00" fill="#666666">[uuid]</text>
<polygon fill="none" stroke="black" points="439.08,-258.8 439.08,-289.6 716.12,-289.6 716.12,-258.8 439.08,-258.8"/>
<text text-anchor="start" x="446.08" y="-271" font-family="Arial" font-size="14.00">channel_id </text>
<text text-anchor="start" x="517.69" y="-271" font-family="Arial" font-size="14.00" fill="#666666">[uuid]</text>
<polygon fill="none" stroke="black" points="439.08,-228 439.08,-258.8 716.12,-258.8 716.12,-228 439.08,-228"/>
<text text-anchor="start" x="446.08" y="-240.2" font-family="Arial" font-size="14.00">video_id </text>
<text text-anchor="start" x="502.12" y="-240.2" font-family="Arial" font-size="14.00" fill="#666666">[text]</text>
<polygon fill="none" stroke="black" points="439.08,-197.2 439.08,-228 716.12,-228 716.12,-197.2 439.08,-197.2"/>
<text text-anchor="start" x="446.08" y="-209.4" font-family="Arial" font-size="14.00">created_on </text>
<text text-anchor="start" x="520.02" y="-209.4" font-family="Arial" font-size="14.00" fill="#666666">[timestamp without time zone]</text>
<polygon fill="none" stroke="black" points="439.08,-166.4 439.08,-197.2 716.12,-197.2 716.12,-166.4 439.08,-166.4"/>
<text text-anchor="start" x="446.08" y="-178.6" font-family="Arial" font-size="14.00">updated_on </text>
<text text-anchor="start" x="523.93" y="-178.6" font-family="Arial" font-size="14.00" fill="#666666">[timestamp without time zone]</text>
<polygon fill="none" stroke="black" points="439.08,-135.6 439.08,-166.4 716.12,-166.4 716.12,-135.6 439.08,-135.6"/>
<text text-anchor="start" x="446.08" y="-147.8" font-family="Arial" font-size="14.00">status </text>
<text text-anchor="start" x="487.32" y="-147.8" font-family="Arial" font-size="14.00" fill="#666666">[post_status]</text>
<polygon fill="none" stroke="black" points="439.08,-104.8 439.08,-135.6 716.12,-135.6 716.12,-104.8 439.08,-104.8"/>
<text text-anchor="start" x="446.08" y="-117" font-family="Arial" font-size="14.00">upvotes </text>
<text text-anchor="start" x="499" y="-117" font-family="Arial" font-size="14.00" fill="#666666">[integer]</text>
<polygon fill="none" stroke="black" points="439.08,-74 439.08,-104.8 716.12,-104.8 716.12,-74 439.08,-74"/>
<text text-anchor="start" x="446.08" y="-86.2" font-family="Arial" font-size="14.00">downvotes </text>
<text text-anchor="start" x="516.9" y="-86.2" font-family="Arial" font-size="14.00" fill="#666666">[integer]</text>
<polygon fill="none" stroke="black" points="439.08,-43.2 439.08,-74 716.12,-74 716.12,-43.2 439.08,-43.2"/>
<text text-anchor="start" x="446.08" y="-55.4" font-family="Arial" font-size="14.00">comments </text>
<text text-anchor="start" x="514.54" y="-55.4" font-family="Arial" font-size="14.00" fill="#666666">[integer]</text>
</g>
<!-- public.playlist_post&#45;&gt;public.post -->
<g id="edge2" class="edge">
<title>public.playlist_post:post_id&#45;&gt;public.post:id</title>
<path fill="none" stroke="black" d="M546.62,-649.32C574.15,-640 556.98,-588.86 535.59,-558.4 509.28,-520.94 465.39,-559.87 439.08,-522.4 415.02,-488.13 396.21,-428.2 438.08,-428.2"/>
<polygon fill="black" stroke="black" points="546.81,-649.29 536.26,-646.3 541.54,-650.07 537.25,-650.7 537.25,-650.7 537.25,-650.7 541.54,-650.07 537.58,-655.2 546.81,-649.29"/>
<text text-anchor="start" x="543.59" y="-660.8" font-family="Arial" font-size="10.00">FOREIGN KEY (post_id) REFERENCES post(id)</text>
</g>
</g>
</svg>
