<?xml version="1.0" encoding="UTF-8" standalone="no"?>
<!DOCTYPE svg PUBLIC "-//W3C//DTD SVG 1.1//EN"
 "http://www.w3.org/Graphics/SVG/1.1/DTD/svg11.dtd">
<!-- Generated by graphviz version 2.40.1 (20161225.0304)
 -->
<!-- Title: public.comment Pages: 1 -->
<svg width="841pt" height="1019pt"
 viewBox="0.00 0.00 840.50 1019.00" xmlns="http://www.w3.org/2000/svg" xmlns:xlink="http://www.w3.org/1999/xlink">
<g id="graph0" class="graph" transform="scale(1 1) rotate(0) translate(4 1015)">
<title>public.comment</title>
<polygon fill="#ffffff" stroke="transparent" points="-4,4 -4,-1015 836.5,-1015 836.5,4 -4,4"/>
<!-- public.comment -->
<g id="node1" class="node">
<title>public.comment</title>
<polygon fill="#efefef" stroke="transparent" points="264.5,-682.5 264.5,-717.5 540.5,-717.5 540.5,-682.5 264.5,-682.5"/>
<polygon fill="none" stroke="#000000" points="264.5,-682.5 264.5,-717.5 540.5,-717.5 540.5,-682.5 264.5,-682.5"/>
<text text-anchor="start" x="275.7088" y="-695.3" font-family="Arial Bold" font-size="18.00" fill="#000000">public.comment</text>
<text text-anchor="start" x="401.7232" y="-695.3" font-family="Arial" font-size="14.00" fill="#000000">    </text>
<text text-anchor="start" x="435.928" y="-695.3" font-family="Arial" font-size="14.00" fill="#666666">[BASE TABLE]</text>
<polygon fill="none" stroke="#000000" points="264.5,-652.5 264.5,-682.5 540.5,-682.5 540.5,-652.5 264.5,-652.5"/>
<text text-anchor="start" x="271.5" y="-663.9" font-family="Arial" font-size="14.00" fill="#000000">id </text>
<text text-anchor="start" x="286.2798" y="-663.9" font-family="Arial" font-size="14.00" fill="#666666">[uuid]</text>
<polygon fill="none" stroke="#000000" points="264.5,-622.5 264.5,-652.5 540.5,-652.5 540.5,-622.5 264.5,-622.5"/>
<text text-anchor="start" x="271.5" y="-633.9" font-family="Arial" font-size="14.00" fill="#000000">content </text>
<text text-anchor="start" x="321.3022" y="-633.9" font-family="Arial" font-size="14.00" fill="#666666">[text]</text>
<polygon fill="none" stroke="#000000" points="264.5,-592.5 264.5,-622.5 540.5,-622.5 540.5,-592.5 264.5,-592.5"/>
<text text-anchor="start" x="271.5" y="-603.9" font-family="Arial" font-size="14.00" fill="#000000">creator_id </text>
<text text-anchor="start" x="337.622" y="-603.9" font-family="Arial" font-size="14.00" fill="#666666">[uuid]</text>
<polygon fill="none" stroke="#000000" points="264.5,-562.5 264.5,-592.5 540.5,-592.5 540.5,-562.5 264.5,-562.5"/>
<text text-anchor="start" x="271.5" y="-573.9" font-family="Arial" font-size="14.00" fill="#000000">post_id </text>
<text text-anchor="start" x="320.5182" y="-573.9" font-family="Arial" font-size="14.00" fill="#666666">[uuid]</text>
<polygon fill="none" stroke="#000000" points="264.5,-532.5 264.5,-562.5 540.5,-562.5 540.5,-532.5 264.5,-532.5"/>
<text text-anchor="start" x="271.5" y="-543.9" font-family="Arial" font-size="14.00" fill="#000000">reply_to </text>
<text text-anchor="start" x="325.1788" y="-543.9" font-family="Arial" font-size="14.00" fill="#666666">[uuid]</text>
<polygon fill="none" stroke="#000000" points="264.5,-502.5 264.5,-532.5 540.5,-532.5 540.5,-502.5 264.5,-502.5"/>
<text text-anchor="start" x="271.5" y="-513.9" font-family="Arial" font-size="14.00" fill="#000000">created_on </text>
<text text-anchor="start" x="345.42" y="-513.9" font-family="Arial" font-size="14.00" fill="#666666">[timestamp without time zone]</text>
<polygon fill="none" stroke="#000000" points="264.5,-472.5 264.5,-502.5 540.5,-502.5 540.5,-472.5 264.5,-472.5"/>
<text text-anchor="start" x="271.0176" y="-483.9" font-family="Arial" font-size="14.00" fill="#000000">updated_on </text>
<text text-anchor="start" x="348.8422" y="-483.9" font-family="Arial" font-size="14.00" fill="#666666">[timestamp without time zone]</text>
<polygon fill="none" stroke="#000000" stroke-width="3" points="263,-471.5 263,-719.5 542,-719.5 542,-471.5 263,-471.5"/>
</g>
<!-- public.comment&#45;&gt;public.comment -->
<g id="edge1" class="edge">
<title>public.comment:reply_to&#45;&gt;public.comment:id</title>
<path fill="none" stroke="#000000" d="M404.2814,-572.6831C411.4546,-691.4552 410.8608,-919 402.5,-919 393.9131,-919 393.519,-788.2188 401.3176,-682.5573"/>
<polygon fill="#000000" stroke="#000000" points="404.2738,-572.5631 408.1252,-562.2958 403.9541,-567.5733 403.6344,-562.5835 403.6344,-562.5835 403.6344,-562.5835 403.9541,-567.5733 399.1436,-562.8713 404.2738,-572.5631 404.2738,-572.5631"/>
<text text-anchor="start" x="410.2459" y="-572.5835" font-family="Arial" font-size="10.00" fill="#000000">FOREIGN KEY (reply_to) REFERENCES comment(id)</text>
</g>
<!-- public.user -->
<g id="node3" class="node">
<title>public.user</title>
<polygon fill="#efefef" stroke="transparent" points="43.5,-267.5 43.5,-302.5 350.5,-302.5 350.5,-267.5 43.5,-267.5"/>
<polygon fill="none" stroke="#000000" points="43.5,-267.5 43.5,-302.5 350.5,-302.5 350.5,-267.5 43.5,-267.5"/>
<text text-anchor="start" x="89.7091" y="-280.3" font-family="Arial Bold" font-size="18.00" fill="#000000">public.user</text>
<text text-anchor="start" x="176.7229" y="-280.3" font-family="Arial" font-size="14.00" fill="#000000">    </text>
<text text-anchor="start" x="210.9277" y="-280.3" font-family="Arial" font-size="14.00" fill="#666666">[BASE TABLE]</text>
<polygon fill="none" stroke="#000000" points="43.5,-237.5 43.5,-267.5 350.5,-267.5 350.5,-237.5 43.5,-237.5"/>
<text text-anchor="start" x="50.5" y="-248.9" font-family="Arial" font-size="14.00" fill="#000000">id    </text>
<text text-anchor="start" x="95.594" y="-248.9" font-family="Arial" font-size="14.00" fill="#666666">[uuid]</text>
<polygon fill="none" stroke="#000000" points="43.5,-207.5 43.5,-237.5 350.5,-237.5 350.5,-207.5 43.5,-207.5"/>
<text text-anchor="start" x="50.5" y="-218.9" font-family="Arial" font-size="14.00" fill="#000000">username    </text>
<text text-anchor="start" x="146.939" y="-218.9" font-family="Arial" font-size="14.00" fill="#666666">[varchar(25)]</text>
<polygon fill="none" stroke="#000000" points="43.5,-177.5 43.5,-207.5 350.5,-207.5 350.5,-177.5 43.5,-177.5"/>
<text text-anchor="start" x="50.5" y="-188.9" font-family="Arial" font-size="14.00" fill="#000000">profile_image    </text>
<text text-anchor="start" x="168.7146" y="-188.9" font-family="Arial" font-size="14.00" fill="#666666">[text]</text>
<polygon fill="none" stroke="#000000" points="43.5,-147.5 43.5,-177.5 350.5,-177.5 350.5,-147.5 43.5,-147.5"/>
<text text-anchor="start" x="50.5" y="-158.9" font-family="Arial" font-size="14.00" fill="#000000">role    </text>
<text text-anchor="start" x="108.0372" y="-158.9" font-family="Arial" font-size="14.00" fill="#666666">[site_role]</text>
<polygon fill="none" stroke="#000000" points="43.5,-117.5 43.5,-147.5 350.5,-147.5 350.5,-117.5 43.5,-117.5"/>
<text text-anchor="start" x="50.5" y="-128.9" font-family="Arial" font-size="14.00" fill="#000000">created_on    </text>
<text text-anchor="start" x="154.7342" y="-128.9" font-family="Arial" font-size="14.00" fill="#666666">[timestamp without time zone]</text>
<polygon fill="none" stroke="#000000" points="43.5,-87.5 43.5,-117.5 350.5,-117.5 350.5,-87.5 43.5,-87.5"/>
<text text-anchor="start" x="50.3605" y="-98.9" font-family="Arial" font-size="14.00" fill="#000000">updated_on    </text>
<text text-anchor="start" x="158.4993" y="-98.9" font-family="Arial" font-size="14.00" fill="#666666">[timestamp without time zone]</text>
</g>
<!-- public.comment&#45;&gt;public.user -->
<g id="edge3" class="edge">
<title>public.comment:creator_id&#45;&gt;public.user:id</title>
<path fill="none" stroke="#000000" d="M254.4544,-606.8658C188.5942,-597.967 234.1233,-497.3395 264.5,-427 285.3171,-378.7964 329.6829,-394.2036 350.5,-346 366.9754,-307.85 392.0556,-252.5 350.5,-252.5"/>
<polygon fill="#000000" stroke="#000000" points="254.5199,-606.8699 264.2164,-611.9911 259.5099,-607.1849 264.5,-607.5 264.5,-607.5 264.5,-607.5 259.5099,-607.1849 264.7836,-603.0089 254.5199,-606.8699 254.5199,-606.8699"/>
<text text-anchor="start" x="20.952" y="-617.5" font-family="Arial" font-size="10.00" fill="#000000">FOREIGN KEY (creator_id) REFERENCES &quot;user&quot;(id)</text>
</g>
<!-- public.post -->
<g id="node4" class="node">
<title>public.post</title>
<polygon fill="#efefef" stroke="transparent" points="454.5,-312.5 454.5,-347.5 761.5,-347.5 761.5,-312.5 454.5,-312.5"/>
<polygon fill="none" stroke="#000000" points="454.5,-312.5 454.5,-347.5 761.5,-347.5 761.5,-312.5 454.5,-312.5"/>
<text text-anchor="start" x="501.2041" y="-325.3" font-family="Arial Bold" font-size="18.00" fill="#000000">public.post</text>
<text text-anchor="start" x="587.2279" y="-325.3" font-family="Arial" font-size="14.00" fill="#000000">    </text>
<text text-anchor="start" x="621.4327" y="-325.3" font-family="Arial" font-size="14.00" fill="#666666">[BASE TABLE]</text>
<polygon fill="none" stroke="#000000" points="454.5,-282.5 454.5,-312.5 761.5,-312.5 761.5,-282.5 454.5,-282.5"/>
<text text-anchor="start" x="461.5" y="-293.9" font-family="Arial" font-size="14.00" fill="#000000">id    </text>
<text text-anchor="start" x="506.594" y="-293.9" font-family="Arial" font-size="14.00" fill="#666666">[uuid]</text>
<polygon fill="none" stroke="#000000" points="454.5,-252.5 454.5,-282.5 761.5,-282.5 761.5,-252.5 454.5,-252.5"/>
<text text-anchor="start" x="461.5" y="-263.9" font-family="Arial" font-size="14.00" fill="#000000">name    </text>
<text text-anchor="start" x="530.7132" y="-263.9" font-family="Arial" font-size="14.00" fill="#666666">[text]</text>
<polygon fill="none" stroke="#000000" points="454.5,-222.5 454.5,-252.5 761.5,-252.5 761.5,-222.5 454.5,-222.5"/>
<text text-anchor="start" x="461.5" y="-233.9" font-family="Arial" font-size="14.00" fill="#000000">description    </text>
<text text-anchor="start" x="563.3822" y="-233.9" font-family="Arial" font-size="14.00" fill="#666666">[text]</text>
<polygon fill="none" stroke="#000000" points="454.5,-192.5 454.5,-222.5 761.5,-222.5 761.5,-192.5 454.5,-192.5"/>
<text text-anchor="start" x="461.5" y="-203.9" font-family="Arial" font-size="14.00" fill="#000000">alt_text    </text>
<text text-anchor="start" x="540.831" y="-203.9" font-family="Arial" font-size="14.00" fill="#666666">[text]</text>
<polygon fill="none" stroke="#000000" points="454.5,-162.5 454.5,-192.5 761.5,-192.5 761.5,-162.5 454.5,-162.5"/>
<text text-anchor="start" x="461.5" y="-173.9" font-family="Arial" font-size="14.00" fill="#000000">created_by    </text>
<text text-anchor="start" x="564.9516" y="-173.9" font-family="Arial" font-size="14.00" fill="#666666">[uuid]</text>
<polygon fill="none" stroke="#000000" points="454.5,-132.5 454.5,-162.5 761.5,-162.5 761.5,-132.5 454.5,-132.5"/>
<text text-anchor="start" x="461.5" y="-143.9" font-family="Arial" font-size="14.00" fill="#000000">channel_id    </text>
<text text-anchor="start" x="563.3962" y="-143.9" font-family="Arial" font-size="14.00" fill="#666666">[uuid]</text>
<polygon fill="none" stroke="#000000" points="454.5,-102.5 454.5,-132.5 761.5,-132.5 761.5,-102.5 454.5,-102.5"/>
<text text-anchor="start" x="461.5" y="-113.9" font-family="Arial" font-size="14.00" fill="#000000">video_id    </text>
<text text-anchor="start" x="547.831" y="-113.9" font-family="Arial" font-size="14.00" fill="#666666">[text]</text>
<polygon fill="none" stroke="#000000" points="454.5,-72.5 454.5,-102.5 761.5,-102.5 761.5,-72.5 454.5,-72.5"/>
<text text-anchor="start" x="461.5" y="-83.9" font-family="Arial" font-size="14.00" fill="#000000">created_on    </text>
<text text-anchor="start" x="565.7342" y="-83.9" font-family="Arial" font-size="14.00" fill="#666666">[timestamp without time zone]</text>
<polygon fill="none" stroke="#000000" points="454.5,-42.5 454.5,-72.5 761.5,-72.5 761.5,-42.5 454.5,-42.5"/>
<text text-anchor="start" x="461.3605" y="-53.9" font-family="Arial" font-size="14.00" fill="#000000">updated_on    </text>
<text text-anchor="start" x="569.4993" y="-53.9" font-family="Arial" font-size="14.00" fill="#666666">[timestamp without time zone]</text>
</g>
<!-- public.comment&#45;&gt;public.post -->
<g id="edge4" class="edge">
<title>public.comment:post_id&#45;&gt;public.post:id</title>
<path fill="none" stroke="#000000" d="M550.6208,-576.6712C604.1045,-567.2467 575.5308,-479.6402 540.5,-427 517.5439,-392.5043 477.4561,-425.4957 454.5,-391 431.4777,-356.4047 412.9444,-297.5 454.5,-297.5"/>
<polygon fill="#000000" stroke="#000000" points="550.4666,-576.6837 540.1327,-573.015 545.4833,-577.0919 540.5,-577.5 540.5,-577.5 540.5,-577.5 545.4833,-577.0919 540.8673,-581.985 550.4666,-576.6837 550.4666,-576.6837"/>
<text text-anchor="start" x="547.8845" y="-587.5" font-family="Arial" font-size="10.00" fill="#000000">FOREIGN KEY (post_id) REFERENCES post(id)</text>
</g>
<!-- public.comment_vote -->
<g id="node2" class="node">
<title>public.comment_vote</title>
<polygon fill="#efefef" stroke="transparent" points="246.5,-932.5 246.5,-967.5 557.5,-967.5 557.5,-932.5 246.5,-932.5"/>
<polygon fill="none" stroke="#000000" points="246.5,-932.5 246.5,-967.5 557.5,-967.5 557.5,-932.5 246.5,-932.5"/>
<text text-anchor="start" x="253.1984" y="-945.3" font-family="Arial Bold" font-size="18.00" fill="#000000">public.comment_vote</text>
<text text-anchor="start" x="423.2336" y="-945.3" font-family="Arial" font-size="14.00" fill="#000000">    </text>
<text text-anchor="start" x="457.4384" y="-945.3" font-family="Arial" font-size="14.00" fill="#666666">[BASE TABLE]</text>
<polygon fill="none" stroke="#000000" points="246.5,-902.5 246.5,-932.5 557.5,-932.5 557.5,-902.5 246.5,-902.5"/>
<text text-anchor="start" x="253.5" y="-913.9" font-family="Arial" font-size="14.00" fill="#000000">comment_id    </text>
<text text-anchor="start" x="363.9362" y="-913.9" font-family="Arial" font-size="14.00" fill="#666666">[uuid]</text>
<polygon fill="none" stroke="#000000" points="246.5,-872.5 246.5,-902.5 557.5,-902.5 557.5,-872.5 246.5,-872.5"/>
<text text-anchor="start" x="253.5" y="-883.9" font-family="Arial" font-size="14.00" fill="#000000">user_id    </text>
<text text-anchor="start" x="333.6024" y="-883.9" font-family="Arial" font-size="14.00" fill="#666666">[uuid]</text>
<polygon fill="none" stroke="#000000" points="246.5,-842.5 246.5,-872.5 557.5,-872.5 557.5,-842.5 246.5,-842.5"/>
<text text-anchor="start" x="253.5" y="-853.9" font-family="Arial" font-size="14.00" fill="#000000">vote    </text>
<text text-anchor="start" x="314.1606" y="-853.9" font-family="Arial" font-size="14.00" fill="#666666">[vote]</text>
</g>
<!-- public.comment_vote&#45;&gt;public.comment -->
<g id="edge2" class="edge">
<title>public.comment_vote:comment_id&#45;&gt;public.comment:id</title>
<path fill="none" stroke="#000000" d="M567.4981,-916.3783C607.1604,-906.6711 589.669,-836.3634 557.5,-800 470.5673,-701.7324 351.4327,-862.2676 264.5,-764 236.0823,-731.877 221.6111,-667.5 264.5,-667.5"/>
<polygon fill="#000000" stroke="#000000" points="567.4377,-916.385 556.9983,-913.0281 562.4688,-916.9425 557.5,-917.5 557.5,-917.5 557.5,-917.5 562.4688,-916.9425 558.0017,-921.9719 567.4377,-916.385 567.4377,-916.385"/>
<text text-anchor="start" x="564.6675" y="-927.5" font-family="Arial" font-size="10.00" fill="#000000">FOREIGN KEY (comment_id) REFERENCES comment(id)</text>
</g>
</g>
</svg>
