<?xml version="1.0" encoding="UTF-8" standalone="no"?>
<!DOCTYPE svg PUBLIC "-//W3C//DTD SVG 1.1//EN"
 "http://www.w3.org/Graphics/SVG/1.1/DTD/svg11.dtd">
<!-- Generated by graphviz version 2.40.1 (20161225.0304)
 -->
<!-- Title: public.post_tag Pages: 1 -->
<svg width="806pt" height="652pt"
 viewBox="0.00 0.00 805.50 652.00" xmlns="http://www.w3.org/2000/svg" xmlns:xlink="http://www.w3.org/1999/xlink">
<g id="graph0" class="graph" transform="scale(1 1) rotate(0) translate(4 648)">
<title>public.post_tag</title>
<polygon fill="#ffffff" stroke="transparent" points="-4,4 -4,-648 801.5,-648 801.5,4 -4,4"/>
<!-- public.post_tag -->
<g id="node1" class="node">
<title>public.post_tag</title>
<polygon fill="#efefef" stroke="transparent" points="269.5,-562.5 269.5,-597.5 531.5,-597.5 531.5,-562.5 269.5,-562.5"/>
<polygon fill="none" stroke="#000000" points="269.5,-562.5 269.5,-597.5 531.5,-597.5 531.5,-562.5 269.5,-562.5"/>
<text text-anchor="start" x="276.1937" y="-575.3" font-family="Arial Bold" font-size="18.00" fill="#000000">public.post_tag</text>
<text text-anchor="start" x="397.2383" y="-575.3" font-family="Arial" font-size="14.00" fill="#000000">    </text>
<text text-anchor="start" x="431.4431" y="-575.3" font-family="Arial" font-size="14.00" fill="#666666">[BASE TABLE]</text>
<polygon fill="none" stroke="#000000" points="269.5,-532.5 269.5,-562.5 531.5,-562.5 531.5,-532.5 269.5,-532.5"/>
<text text-anchor="start" x="276.5" y="-543.9" font-family="Arial" font-size="14.00" fill="#000000">id </text>
<text text-anchor="start" x="291.2798" y="-543.9" font-family="Arial" font-size="14.00" fill="#666666">[uuid]</text>
<polygon fill="none" stroke="#000000" points="269.5,-502.5 269.5,-532.5 531.5,-532.5 531.5,-502.5 269.5,-502.5"/>
<text text-anchor="start" x="276.5" y="-513.9" font-family="Arial" font-size="14.00" fill="#000000">post_id </text>
<text text-anchor="start" x="325.5182" y="-513.9" font-family="Arial" font-size="14.00" fill="#666666">[uuid]</text>
<polygon fill="none" stroke="#000000" points="269.5,-472.5 269.5,-502.5 531.5,-502.5 531.5,-472.5 269.5,-472.5"/>
<text text-anchor="start" x="276.5" y="-483.9" font-family="Arial" font-size="14.00" fill="#000000">tag_id </text>
<text text-anchor="start" x="318.5182" y="-483.9" font-family="Arial" font-size="14.00" fill="#666666">[uuid]</text>
<polygon fill="none" stroke="#000000" stroke-width="3" points="268,-471.5 268,-599.5 533,-599.5 533,-471.5 268,-471.5"/>
</g>
<!-- public.post -->
<g id="node2" class="node">
<title>public.post</title>
<polygon fill="#efefef" stroke="transparent" points="43.5,-312.5 43.5,-347.5 350.5,-347.5 350.5,-312.5 43.5,-312.5"/>
<polygon fill="none" stroke="#000000" points="43.5,-312.5 43.5,-347.5 350.5,-347.5 350.5,-312.5 43.5,-312.5"/>
<text text-anchor="start" x="90.2041" y="-325.3" font-family="Arial Bold" font-size="18.00" fill="#000000">public.post</text>
<text text-anchor="start" x="176.2279" y="-325.3" font-family="Arial" font-size="14.00" fill="#000000">    </text>
<text text-anchor="start" x="210.4327" y="-325.3" font-family="Arial" font-size="14.00" fill="#666666">[BASE TABLE]</text>
<polygon fill="none" stroke="#000000" points="43.5,-282.5 43.5,-312.5 350.5,-312.5 350.5,-282.5 43.5,-282.5"/>
<text text-anchor="start" x="50.5" y="-293.9" font-family="Arial" font-size="14.00" fill="#000000">id    </text>
<text text-anchor="start" x="95.594" y="-293.9" font-family="Arial" font-size="14.00" fill="#666666">[uuid]</text>
<polygon fill="none" stroke="#000000" points="43.5,-252.5 43.5,-282.5 350.5,-282.5 350.5,-252.5 43.5,-252.5"/>
<text text-anchor="start" x="50.5" y="-263.9" font-family="Arial" font-size="14.00" fill="#000000">name    </text>
<text text-anchor="start" x="119.7132" y="-263.9" font-family="Arial" font-size="14.00" fill="#666666">[text]</text>
<polygon fill="none" stroke="#000000" points="43.5,-222.5 43.5,-252.5 350.5,-252.5 350.5,-222.5 43.5,-222.5"/>
<text text-anchor="start" x="50.5" y="-233.9" font-family="Arial" font-size="14.00" fill="#000000">description    </text>
<text text-anchor="start" x="152.3822" y="-233.9" font-family="Arial" font-size="14.00" fill="#666666">[text]</text>
<polygon fill="none" stroke="#000000" points="43.5,-192.5 43.5,-222.5 350.5,-222.5 350.5,-192.5 43.5,-192.5"/>
<text text-anchor="start" x="50.5" y="-203.9" font-family="Arial" font-size="14.00" fill="#000000">alt_text    </text>
<text text-anchor="start" x="129.831" y="-203.9" font-family="Arial" font-size="14.00" fill="#666666">[text]</text>
<polygon fill="none" stroke="#000000" points="43.5,-162.5 43.5,-192.5 350.5,-192.5 350.5,-162.5 43.5,-162.5"/>
<text text-anchor="start" x="50.5" y="-173.9" font-family="Arial" font-size="14.00" fill="#000000">created_by    </text>
<text text-anchor="start" x="153.9516" y="-173.9" font-family="Arial" font-size="14.00" fill="#666666">[uuid]</text>
<polygon fill="none" stroke="#000000" points="43.5,-132.5 43.5,-162.5 350.5,-162.5 350.5,-132.5 43.5,-132.5"/>
<text text-anchor="start" x="50.5" y="-143.9" font-family="Arial" font-size="14.00" fill="#000000">channel_id    </text>
<text text-anchor="start" x="152.3962" y="-143.9" font-family="Arial" font-size="14.00" fill="#666666">[uuid]</text>
<polygon fill="none" stroke="#000000" points="43.5,-102.5 43.5,-132.5 350.5,-132.5 350.5,-102.5 43.5,-102.5"/>
<text text-anchor="start" x="50.5" y="-113.9" font-family="Arial" font-size="14.00" fill="#000000">video_id    </text>
<text text-anchor="start" x="136.831" y="-113.9" font-family="Arial" font-size="14.00" fill="#666666">[text]</text>
<polygon fill="none" stroke="#000000" points="43.5,-72.5 43.5,-102.5 350.5,-102.5 350.5,-72.5 43.5,-72.5"/>
<text text-anchor="start" x="50.5" y="-83.9" font-family="Arial" font-size="14.00" fill="#000000">created_on    </text>
<text text-anchor="start" x="154.7342" y="-83.9" font-family="Arial" font-size="14.00" fill="#666666">[timestamp without time zone]</text>
<polygon fill="none" stroke="#000000" points="43.5,-42.5 43.5,-72.5 350.5,-72.5 350.5,-42.5 43.5,-42.5"/>
<text text-anchor="start" x="50.3605" y="-53.9" font-family="Arial" font-size="14.00" fill="#000000">updated_on    </text>
<text text-anchor="start" x="158.4993" y="-53.9" font-family="Arial" font-size="14.00" fill="#666666">[timestamp without time zone]</text>
</g>
<!-- public.post_tag&#45;&gt;public.post -->
<g id="edge1" class="edge">
<title>public.post_tag:post_id&#45;&gt;public.post:id</title>
<path fill="none" stroke="#000000" d="M259.3395,-515.95C232.8873,-506.6311 249.7228,-457.4325 269.5,-427 290.9671,-393.9672 329.0329,-424.0328 350.5,-391 373.1442,-356.156 392.0556,-297.5 350.5,-297.5"/>
<polygon fill="#000000" stroke="#000000" points="259.6144,-515.9919 268.8213,-521.9485 264.5572,-516.7459 269.5,-517.5 269.5,-517.5 269.5,-517.5 264.5572,-516.7459 270.1787,-513.0515 259.6144,-515.9919 259.6144,-515.9919"/>
<text text-anchor="start" x="45.8845" y="-527.5" font-family="Arial" font-size="10.00" fill="#000000">FOREIGN KEY (post_id) REFERENCES post(id)</text>
</g>
<!-- public.channel_tags -->
<g id="node3" class="node">
<title>public.channel_tags</title>
<polygon fill="#efefef" stroke="transparent" points="454.5,-237.5 454.5,-272.5 754.5,-272.5 754.5,-237.5 454.5,-237.5"/>
<polygon fill="none" stroke="#000000" points="454.5,-237.5 454.5,-272.5 754.5,-272.5 754.5,-237.5 454.5,-237.5"/>
<text text-anchor="start" x="461.1884" y="-250.3" font-family="Arial Bold" font-size="18.00" fill="#000000">public.channel_tags</text>
<text text-anchor="start" x="620.2436" y="-250.3" font-family="Arial" font-size="14.00" fill="#000000">    </text>
<text text-anchor="start" x="654.4484" y="-250.3" font-family="Arial" font-size="14.00" fill="#666666">[BASE TABLE]</text>
<polygon fill="none" stroke="#000000" points="454.5,-207.5 454.5,-237.5 754.5,-237.5 754.5,-207.5 454.5,-207.5"/>
<text text-anchor="start" x="461.5" y="-218.9" font-family="Arial" font-size="14.00" fill="#000000">id    </text>
<text text-anchor="start" x="506.594" y="-218.9" font-family="Arial" font-size="14.00" fill="#666666">[uuid]</text>
<polygon fill="none" stroke="#000000" points="454.5,-177.5 454.5,-207.5 754.5,-207.5 754.5,-177.5 454.5,-177.5"/>
<text text-anchor="start" x="461.5" y="-188.9" font-family="Arial" font-size="14.00" fill="#000000">channel_id    </text>
<text text-anchor="start" x="563.3962" y="-188.9" font-family="Arial" font-size="14.00" fill="#666666">[uuid]</text>
<polygon fill="none" stroke="#000000" points="454.5,-147.5 454.5,-177.5 754.5,-177.5 754.5,-147.5 454.5,-147.5"/>
<text text-anchor="start" x="461.5" y="-158.9" font-family="Arial" font-size="14.00" fill="#000000">name    </text>
<text text-anchor="start" x="530.7132" y="-158.9" font-family="Arial" font-size="14.00" fill="#666666">[varchar(16)]</text>
<polygon fill="none" stroke="#000000" points="454.5,-117.5 454.5,-147.5 754.5,-147.5 754.5,-117.5 454.5,-117.5"/>
<text text-anchor="start" x="461.5" y="-128.9" font-family="Arial" font-size="14.00" fill="#000000">color    </text>
<text text-anchor="start" x="526.0372" y="-128.9" font-family="Arial" font-size="14.00" fill="#666666">[varchar(16)]</text>
</g>
<!-- public.post_tag&#45;&gt;public.channel_tags -->
<g id="edge2" class="edge">
<title>public.post_tag:tag_id&#45;&gt;public.channel_tags:id</title>
<path fill="none" stroke="#000000" d="M541.2901,-484.8812C552.4921,-476.3158 538.2121,-448.4519 531.5,-427 513.5709,-369.6983 472.4291,-373.3017 454.5,-316 442.0909,-276.3405 412.9444,-222.5 454.5,-222.5"/>
<polygon fill="#000000" stroke="#000000" points="541.1604,-484.9158 530.3371,-483.1528 536.3302,-486.2079 531.5,-487.5 531.5,-487.5 531.5,-487.5 536.3302,-486.2079 532.6629,-491.8472 541.1604,-484.9158 541.1604,-484.9158"/>
<text text-anchor="start" x="538.098" y="-497.5" font-family="Arial" font-size="10.00" fill="#000000">FOREIGN KEY (tag_id) REFERENCES channel_tags(id)</text>
</g>
</g>
</svg>
