<?xml version="1.0" encoding="UTF-8" standalone="no"?>
<!DOCTYPE svg PUBLIC "-//W3C//DTD SVG 1.1//EN"
 "http://www.w3.org/Graphics/SVG/1.1/DTD/svg11.dtd">
<!-- Generated by graphviz version 2.40.1 (20161225.0304)
 -->
<!-- Title: public.invite Pages: 1 -->
<svg width="1213pt" height="1282pt"
 viewBox="0.00 0.00 1212.50 1282.00" xmlns="http://www.w3.org/2000/svg" xmlns:xlink="http://www.w3.org/1999/xlink">
<g id="graph0" class="graph" transform="scale(1 1) rotate(0) translate(4 1278)">
<title>public.invite</title>
<polygon fill="#ffffff" stroke="transparent" points="-4,4 -4,-1278 1208.5,-1278 1208.5,4 -4,4"/>
<!-- public.invite -->
<g id="node1" class="node">
<title>public.invite</title>
<polygon fill="#efefef" stroke="transparent" points="471.5,-1192.5 471.5,-1227.5 744.5,-1227.5 744.5,-1192.5 471.5,-1192.5"/>
<polygon fill="none" stroke="#000000" points="471.5,-1192.5 471.5,-1227.5 744.5,-1227.5 744.5,-1192.5 471.5,-1192.5"/>
<text text-anchor="start" x="497.2099" y="-1205.3" font-family="Arial Bold" font-size="18.00" fill="#000000">public.invite</text>
<text text-anchor="start" x="591.2221" y="-1205.3" font-family="Arial" font-size="14.00" fill="#000000">    </text>
<text text-anchor="start" x="625.4269" y="-1205.3" font-family="Arial" font-size="14.00" fill="#666666">[BASE TABLE]</text>
<polygon fill="none" stroke="#000000" points="471.5,-1162.5 471.5,-1192.5 744.5,-1192.5 744.5,-1162.5 471.5,-1162.5"/>
<text text-anchor="start" x="478.5" y="-1173.9" font-family="Arial" font-size="14.00" fill="#000000">channel_id </text>
<text text-anchor="start" x="550.082" y="-1173.9" font-family="Arial" font-size="14.00" fill="#666666">[uuid]</text>
<polygon fill="none" stroke="#000000" points="471.5,-1132.5 471.5,-1162.5 744.5,-1162.5 744.5,-1132.5 471.5,-1132.5"/>
<text text-anchor="start" x="478.5" y="-1143.9" font-family="Arial" font-size="14.00" fill="#000000">user_id </text>
<text text-anchor="start" x="528.2882" y="-1143.9" font-family="Arial" font-size="14.00" fill="#666666">[uuid]</text>
<polygon fill="none" stroke="#000000" points="471.5,-1102.5 471.5,-1132.5 744.5,-1132.5 744.5,-1102.5 471.5,-1102.5"/>
<text text-anchor="start" x="478.4699" y="-1113.9" font-family="Arial" font-size="14.00" fill="#000000">created_on </text>
<text text-anchor="start" x="552.3899" y="-1113.9" font-family="Arial" font-size="14.00" fill="#666666">[timestamp without time zone]</text>
<polygon fill="none" stroke="#000000" points="471.5,-1072.5 471.5,-1102.5 744.5,-1102.5 744.5,-1072.5 471.5,-1072.5"/>
<text text-anchor="start" x="478.5" y="-1083.9" font-family="Arial" font-size="14.00" fill="#000000">role_id </text>
<text text-anchor="start" x="524.3948" y="-1083.9" font-family="Arial" font-size="14.00" fill="#666666">[uuid]</text>
<polygon fill="none" stroke="#000000" stroke-width="3" points="469.5,-1071.5 469.5,-1229.5 745.5,-1229.5 745.5,-1071.5 469.5,-1071.5"/>
</g>
<!-- public.channel -->
<g id="node2" class="node">
<title>public.channel</title>
<polygon fill="#efefef" stroke="transparent" points="43.5,-612.5 43.5,-647.5 350.5,-647.5 350.5,-612.5 43.5,-612.5"/>
<polygon fill="none" stroke="#000000" points="43.5,-612.5 43.5,-647.5 350.5,-647.5 350.5,-612.5 43.5,-612.5"/>
<text text-anchor="start" x="75.6988" y="-625.3" font-family="Arial Bold" font-size="18.00" fill="#000000">public.channel</text>
<text text-anchor="start" x="190.7332" y="-625.3" font-family="Arial" font-size="14.00" fill="#000000">    </text>
<text text-anchor="start" x="224.938" y="-625.3" font-family="Arial" font-size="14.00" fill="#666666">[BASE TABLE]</text>
<polygon fill="none" stroke="#000000" points="43.5,-582.5 43.5,-612.5 350.5,-612.5 350.5,-582.5 43.5,-582.5"/>
<text text-anchor="start" x="50.5" y="-593.9" font-family="Arial" font-size="14.00" fill="#000000">id    </text>
<text text-anchor="start" x="95.594" y="-593.9" font-family="Arial" font-size="14.00" fill="#666666">[uuid]</text>
<polygon fill="none" stroke="#000000" points="43.5,-552.5 43.5,-582.5 350.5,-582.5 350.5,-552.5 43.5,-552.5"/>
<text text-anchor="start" x="50.5" y="-563.9" font-family="Arial" font-size="14.00" fill="#000000">name    </text>
<text text-anchor="start" x="119.7132" y="-563.9" font-family="Arial" font-size="14.00" fill="#666666">[text]</text>
<polygon fill="none" stroke="#000000" points="43.5,-522.5 43.5,-552.5 350.5,-552.5 350.5,-522.5 43.5,-522.5"/>
<text text-anchor="start" x="50.5" y="-533.9" font-family="Arial" font-size="14.00" fill="#000000">description    </text>
<text text-anchor="start" x="152.3822" y="-533.9" font-family="Arial" font-size="14.00" fill="#666666">[text]</text>
<polygon fill="none" stroke="#000000" points="43.5,-492.5 43.5,-522.5 350.5,-522.5 350.5,-492.5 43.5,-492.5"/>
<text text-anchor="start" x="50.5" y="-503.9" font-family="Arial" font-size="14.00" fill="#000000">guidelines    </text>
<text text-anchor="start" x="147.7202" y="-503.9" font-family="Arial" font-size="14.00" fill="#666666">[text]</text>
<polygon fill="none" stroke="#000000" points="43.5,-462.5 43.5,-492.5 350.5,-492.5 350.5,-462.5 43.5,-462.5"/>
<text text-anchor="start" x="50.5" y="-473.9" font-family="Arial" font-size="14.00" fill="#000000">created_by    </text>
<text text-anchor="start" x="153.9516" y="-473.9" font-family="Arial" font-size="14.00" fill="#666666">[uuid]</text>
<polygon fill="none" stroke="#000000" points="43.5,-432.5 43.5,-462.5 350.5,-462.5 350.5,-432.5 43.5,-432.5"/>
<text text-anchor="start" x="50.5" y="-443.9" font-family="Arial" font-size="14.00" fill="#000000">banner_image    </text>
<text text-anchor="start" x="174.176" y="-443.9" font-family="Arial" font-size="14.00" fill="#666666">[text]</text>
<polygon fill="none" stroke="#000000" points="43.5,-402.5 43.5,-432.5 350.5,-432.5 350.5,-402.5 43.5,-402.5"/>
<text text-anchor="start" x="50.5" y="-413.9" font-family="Arial" font-size="14.00" fill="#000000">icon    </text>
<text text-anchor="start" x="110.3766" y="-413.9" font-family="Arial" font-size="14.00" fill="#666666">[text]</text>
<polygon fill="none" stroke="#000000" points="43.5,-372.5 43.5,-402.5 350.5,-402.5 350.5,-372.5 43.5,-372.5"/>
<text text-anchor="start" x="50.5" y="-383.9" font-family="Arial" font-size="14.00" fill="#000000">created_on    </text>
<text text-anchor="start" x="154.7342" y="-383.9" font-family="Arial" font-size="14.00" fill="#666666">[timestamp without time zone]</text>
<polygon fill="none" stroke="#000000" points="43.5,-342.5 43.5,-372.5 350.5,-372.5 350.5,-342.5 43.5,-342.5"/>
<text text-anchor="start" x="50.3605" y="-353.9" font-family="Arial" font-size="14.00" fill="#000000">updated_on    </text>
<text text-anchor="start" x="158.4993" y="-353.9" font-family="Arial" font-size="14.00" fill="#666666">[timestamp without time zone]</text>
</g>
<!-- public.invite&#45;&gt;public.channel -->
<g id="edge1" class="edge">
<title>public.invite:channel_id&#45;&gt;public.channel:id</title>
<path fill="none" stroke="#000000" d="M461.2412,-1177.0003C386.1366,-1169.2734 422.0096,-1073.3894 401.5,-991 380.2,-905.4355 438.6758,-597.5 350.5,-597.5"/>
<polygon fill="#000000" stroke="#000000" points="461.5118,-1177.0134 471.281,-1181.9947 466.5059,-1177.2567 471.5,-1177.5 471.5,-1177.5 471.5,-1177.5 466.5059,-1177.2567 471.719,-1173.0053 461.5118,-1177.0134 461.5118,-1177.0134"/>
<text text-anchor="start" x="215.7675" y="-1187.5" font-family="Arial" font-size="10.00" fill="#000000">FOREIGN KEY (channel_id) REFERENCES channel(id)</text>
</g>
<!-- public.user -->
<g id="node3" class="node">
<title>public.user</title>
<polygon fill="#efefef" stroke="transparent" points="454.5,-597.5 454.5,-632.5 761.5,-632.5 761.5,-597.5 454.5,-597.5"/>
<polygon fill="none" stroke="#000000" points="454.5,-597.5 454.5,-632.5 761.5,-632.5 761.5,-597.5 454.5,-597.5"/>
<text text-anchor="start" x="500.7091" y="-610.3" font-family="Arial Bold" font-size="18.00" fill="#000000">public.user</text>
<text text-anchor="start" x="587.7229" y="-610.3" font-family="Arial" font-size="14.00" fill="#000000">    </text>
<text text-anchor="start" x="621.9277" y="-610.3" font-family="Arial" font-size="14.00" fill="#666666">[BASE TABLE]</text>
<polygon fill="none" stroke="#000000" points="454.5,-567.5 454.5,-597.5 761.5,-597.5 761.5,-567.5 454.5,-567.5"/>
<text text-anchor="start" x="461.5" y="-578.9" font-family="Arial" font-size="14.00" fill="#000000">id    </text>
<text text-anchor="start" x="506.594" y="-578.9" font-family="Arial" font-size="14.00" fill="#666666">[uuid]</text>
<polygon fill="none" stroke="#000000" points="454.5,-537.5 454.5,-567.5 761.5,-567.5 761.5,-537.5 454.5,-537.5"/>
<text text-anchor="start" x="461.5" y="-548.9" font-family="Arial" font-size="14.00" fill="#000000">username    </text>
<text text-anchor="start" x="557.939" y="-548.9" font-family="Arial" font-size="14.00" fill="#666666">[varchar(25)]</text>
<polygon fill="none" stroke="#000000" points="454.5,-507.5 454.5,-537.5 761.5,-537.5 761.5,-507.5 454.5,-507.5"/>
<text text-anchor="start" x="461.5" y="-518.9" font-family="Arial" font-size="14.00" fill="#000000">profile_image    </text>
<text text-anchor="start" x="579.7146" y="-518.9" font-family="Arial" font-size="14.00" fill="#666666">[text]</text>
<polygon fill="none" stroke="#000000" points="454.5,-477.5 454.5,-507.5 761.5,-507.5 761.5,-477.5 454.5,-477.5"/>
<text text-anchor="start" x="461.5" y="-488.9" font-family="Arial" font-size="14.00" fill="#000000">role    </text>
<text text-anchor="start" x="519.0372" y="-488.9" font-family="Arial" font-size="14.00" fill="#666666">[site_role]</text>
<polygon fill="none" stroke="#000000" points="454.5,-447.5 454.5,-477.5 761.5,-477.5 761.5,-447.5 454.5,-447.5"/>
<text text-anchor="start" x="461.5" y="-458.9" font-family="Arial" font-size="14.00" fill="#000000">created_on    </text>
<text text-anchor="start" x="565.7342" y="-458.9" font-family="Arial" font-size="14.00" fill="#666666">[timestamp without time zone]</text>
<polygon fill="none" stroke="#000000" points="454.5,-417.5 454.5,-447.5 761.5,-447.5 761.5,-417.5 454.5,-417.5"/>
<text text-anchor="start" x="461.3605" y="-428.9" font-family="Arial" font-size="14.00" fill="#000000">updated_on    </text>
<text text-anchor="start" x="569.4993" y="-428.9" font-family="Arial" font-size="14.00" fill="#666666">[timestamp without time zone]</text>
<polygon fill="none" stroke="#000000" points="454.5,-387.5 454.5,-417.5 761.5,-417.5 761.5,-387.5 454.5,-387.5"/>
<text text-anchor="start" x="461.5" y="-398.9" font-family="Arial" font-size="14.00" fill="#000000">discord_id    </text>
<text text-anchor="start" x="559.4916" y="-398.9" font-family="Arial" font-size="14.00" fill="#666666">[bigint]</text>
<polygon fill="none" stroke="#000000" points="454.5,-357.5 454.5,-387.5 761.5,-387.5 761.5,-357.5 454.5,-357.5"/>
<text text-anchor="start" x="461.5" y="-368.9" font-family="Arial" font-size="14.00" fill="#000000">github_id    </text>
<text text-anchor="start" x="552.5042" y="-368.9" font-family="Arial" font-size="14.00" fill="#666666">[integer]</text>
</g>
<!-- public.invite&#45;&gt;public.user -->
<g id="edge2" class="edge">
<title>public.invite:user_id&#45;&gt;public.user:id</title>
<path fill="none" stroke="#000000" d="M462.2907,-1143.277C407.173,-1091.5742 394.8832,-582.5 454.5,-582.5"/>
<polygon fill="#000000" stroke="#000000" points="462.4101,-1143.3317 469.6243,-1151.5905 466.9551,-1145.4159 471.5,-1147.5 471.5,-1147.5 471.5,-1147.5 466.9551,-1145.4159 473.3757,-1143.4095 462.4101,-1143.3317 462.4101,-1143.3317"/>
<text text-anchor="start" x="239.7855" y="-1157.5" font-family="Arial" font-size="10.00" fill="#000000">FOREIGN KEY (user_id) REFERENCES &quot;user&quot;(id)</text>
</g>
<!-- public.role -->
<g id="node4" class="node">
<title>public.role</title>
<polygon fill="#efefef" stroke="transparent" points="865.5,-912.5 865.5,-947.5 1161.5,-947.5 1161.5,-912.5 865.5,-912.5"/>
<polygon fill="none" stroke="#000000" points="865.5,-912.5 865.5,-947.5 1161.5,-947.5 1161.5,-912.5 865.5,-912.5"/>
<text text-anchor="start" x="908.712" y="-925.3" font-family="Arial Bold" font-size="18.00" fill="#000000">public.role</text>
<text text-anchor="start" x="990.72" y="-925.3" font-family="Arial" font-size="14.00" fill="#000000">    </text>
<text text-anchor="start" x="1024.9248" y="-925.3" font-family="Arial" font-size="14.00" fill="#666666">[BASE TABLE]</text>
<polygon fill="none" stroke="#000000" points="865.5,-882.5 865.5,-912.5 1161.5,-912.5 1161.5,-882.5 865.5,-882.5"/>
<text text-anchor="start" x="872.5" y="-893.9" font-family="Arial" font-size="14.00" fill="#000000">id    </text>
<text text-anchor="start" x="917.594" y="-893.9" font-family="Arial" font-size="14.00" fill="#666666">[uuid]</text>
<polygon fill="none" stroke="#000000" points="865.5,-852.5 865.5,-882.5 1161.5,-882.5 1161.5,-852.5 865.5,-852.5"/>
<text text-anchor="start" x="872.5" y="-863.9" font-family="Arial" font-size="14.00" fill="#000000">channel_id    </text>
<text text-anchor="start" x="974.3962" y="-863.9" font-family="Arial" font-size="14.00" fill="#666666">[uuid]</text>
<polygon fill="none" stroke="#000000" points="865.5,-822.5 865.5,-852.5 1161.5,-852.5 1161.5,-822.5 865.5,-822.5"/>
<text text-anchor="start" x="872.5" y="-833.9" font-family="Arial" font-size="14.00" fill="#000000">title    </text>
<text text-anchor="start" x="928.4818" y="-833.9" font-family="Arial" font-size="14.00" fill="#666666">[varchar(20)]</text>
<polygon fill="none" stroke="#000000" points="865.5,-792.5 865.5,-822.5 1161.5,-822.5 1161.5,-792.5 865.5,-792.5"/>
<text text-anchor="start" x="872.5" y="-803.9" font-family="Arial" font-size="14.00" fill="#000000">isOwner    </text>
<text text-anchor="start" x="958.0344" y="-803.9" font-family="Arial" font-size="14.00" fill="#666666">[boolean]</text>
<polygon fill="none" stroke="#000000" points="865.5,-762.5 865.5,-792.5 1161.5,-792.5 1161.5,-762.5 865.5,-762.5"/>
<text text-anchor="start" x="872.5" y="-773.9" font-family="Arial" font-size="14.00" fill="#000000">ranking    </text>
<text text-anchor="start" x="952.6024" y="-773.9" font-family="Arial" font-size="14.00" fill="#666666">[smallint]</text>
<polygon fill="none" stroke="#000000" points="865.5,-732.5 865.5,-762.5 1161.5,-762.5 1161.5,-732.5 865.5,-732.5"/>
<text text-anchor="start" x="872.5" y="-743.9" font-family="Arial" font-size="14.00" fill="#000000">can_create_roles    </text>
<text text-anchor="start" x="1014.0666" y="-743.9" font-family="Arial" font-size="14.00" fill="#666666">[boolean]</text>
<polygon fill="none" stroke="#000000" points="865.5,-702.5 865.5,-732.5 1161.5,-732.5 1161.5,-702.5 865.5,-702.5"/>
<text text-anchor="start" x="872.5" y="-713.9" font-family="Arial" font-size="14.00" fill="#000000">can_view_roles    </text>
<text text-anchor="start" x="1003.1634" y="-713.9" font-family="Arial" font-size="14.00" fill="#666666">[boolean]</text>
<polygon fill="none" stroke="#000000" points="865.5,-672.5 865.5,-702.5 1161.5,-702.5 1161.5,-672.5 865.5,-672.5"/>
<text text-anchor="start" x="872.5" y="-683.9" font-family="Arial" font-size="14.00" fill="#000000">can_edit_roles    </text>
<text text-anchor="start" x="997.73" y="-683.9" font-family="Arial" font-size="14.00" fill="#666666">[boolean]</text>
<polygon fill="none" stroke="#000000" points="865.5,-642.5 865.5,-672.5 1161.5,-672.5 1161.5,-642.5 865.5,-642.5"/>
<text text-anchor="start" x="872.5" y="-653.9" font-family="Arial" font-size="14.00" fill="#000000">can_delete_roles    </text>
<text text-anchor="start" x="1013.2952" y="-653.9" font-family="Arial" font-size="14.00" fill="#666666">[boolean]</text>
<polygon fill="none" stroke="#000000" points="865.5,-612.5 865.5,-642.5 1161.5,-642.5 1161.5,-612.5 865.5,-612.5"/>
<text text-anchor="start" x="872.5" y="-623.9" font-family="Arial" font-size="14.00" fill="#000000">can_assign_roles    </text>
<text text-anchor="start" x="1015.622" y="-623.9" font-family="Arial" font-size="14.00" fill="#666666">[boolean]</text>
<polygon fill="none" stroke="#000000" points="865.5,-582.5 865.5,-612.5 1161.5,-612.5 1161.5,-582.5 865.5,-582.5"/>
<text text-anchor="start" x="872.2876" y="-593.9" font-family="Arial" font-size="14.00" fill="#000000">can_set_message_of_the_day    </text>
<text text-anchor="start" x="1097.129" y="-593.9" font-family="Arial" font-size="14.00" fill="#666666">[boolean]</text>
<polygon fill="none" stroke="#000000" points="865.5,-552.5 865.5,-582.5 1161.5,-582.5 1161.5,-552.5 865.5,-552.5"/>
<text text-anchor="start" x="872.5" y="-563.9" font-family="Arial" font-size="14.00" fill="#000000">can_edit_name    </text>
<text text-anchor="start" x="1002.406" y="-563.9" font-family="Arial" font-size="14.00" fill="#666666">[boolean]</text>
<polygon fill="none" stroke="#000000" points="865.5,-522.5 865.5,-552.5 1161.5,-552.5 1161.5,-522.5 865.5,-522.5"/>
<text text-anchor="start" x="872.5" y="-533.9" font-family="Arial" font-size="14.00" fill="#000000">can_set_image    </text>
<text text-anchor="start" x="1001.6234" y="-533.9" font-family="Arial" font-size="14.00" fill="#666666">[boolean]</text>
<polygon fill="none" stroke="#000000" points="865.5,-492.5 865.5,-522.5 1161.5,-522.5 1161.5,-492.5 865.5,-492.5"/>
<text text-anchor="start" x="872.5" y="-503.9" font-family="Arial" font-size="14.00" fill="#000000">can_view_user_table    </text>
<text text-anchor="start" x="1038.1844" y="-503.9" font-family="Arial" font-size="14.00" fill="#666666">[boolean]</text>
<polygon fill="none" stroke="#000000" points="865.5,-462.5 865.5,-492.5 1161.5,-492.5 1161.5,-462.5 865.5,-462.5"/>
<text text-anchor="start" x="872.5" y="-473.9" font-family="Arial" font-size="14.00" fill="#000000">can_edit_tags    </text>
<text text-anchor="start" x="993.8534" y="-473.9" font-family="Arial" font-size="14.00" fill="#666666">[boolean]</text>
<polygon fill="none" stroke="#000000" points="865.5,-432.5 865.5,-462.5 1161.5,-462.5 1161.5,-432.5 865.5,-432.5"/>
<text text-anchor="start" x="872.5" y="-443.9" font-family="Arial" font-size="14.00" fill="#000000">can_timeout_users    </text>
<text text-anchor="start" x="1024.9572" y="-443.9" font-family="Arial" font-size="14.00" fill="#666666">[boolean]</text>
<polygon fill="none" stroke="#000000" points="865.5,-402.5 865.5,-432.5 1161.5,-432.5 1161.5,-402.5 865.5,-402.5"/>
<text text-anchor="start" x="872.5" y="-413.9" font-family="Arial" font-size="14.00" fill="#000000">can_ban_users    </text>
<text text-anchor="start" x="1002.4088" y="-413.9" font-family="Arial" font-size="14.00" fill="#666666">[boolean]</text>
<polygon fill="none" stroke="#000000" points="865.5,-372.5 865.5,-402.5 1161.5,-402.5 1161.5,-372.5 865.5,-372.5"/>
<text text-anchor="start" x="872.5" y="-383.9" font-family="Arial" font-size="14.00" fill="#000000">can_view_banned_users    </text>
<text text-anchor="start" x="1061.535" y="-383.9" font-family="Arial" font-size="14.00" fill="#666666">[boolean]</text>
<polygon fill="none" stroke="#000000" points="865.5,-342.5 865.5,-372.5 1161.5,-372.5 1161.5,-342.5 865.5,-342.5"/>
<text text-anchor="start" x="872.5" y="-353.9" font-family="Arial" font-size="14.00" fill="#000000">can_unban_users    </text>
<text text-anchor="start" x="1017.974" y="-353.9" font-family="Arial" font-size="14.00" fill="#666666">[boolean]</text>
<polygon fill="none" stroke="#000000" points="865.5,-312.5 865.5,-342.5 1161.5,-342.5 1161.5,-312.5 865.5,-312.5"/>
<text text-anchor="start" x="872.5" y="-323.9" font-family="Arial" font-size="14.00" fill="#000000">can_delete_posts    </text>
<text text-anchor="start" x="1016.4186" y="-323.9" font-family="Arial" font-size="14.00" fill="#666666">[boolean]</text>
<polygon fill="none" stroke="#000000" points="865.5,-282.5 865.5,-312.5 1161.5,-312.5 1161.5,-282.5 865.5,-282.5"/>
<text text-anchor="start" x="872.5" y="-293.9" font-family="Arial" font-size="14.00" fill="#000000">can_delete_comments    </text>
<text text-anchor="start" x="1047.5224" y="-293.9" font-family="Arial" font-size="14.00" fill="#666666">[boolean]</text>
<polygon fill="none" stroke="#000000" points="865.5,-252.5 865.5,-282.5 1161.5,-282.5 1161.5,-252.5 865.5,-252.5"/>
<text text-anchor="start" x="872.5" y="-263.9" font-family="Arial" font-size="14.00" fill="#000000">can_edit_post_tags    </text>
<text text-anchor="start" x="1028.0918" y="-263.9" font-family="Arial" font-size="14.00" fill="#666666">[boolean]</text>
<polygon fill="none" stroke="#000000" points="865.5,-222.5 865.5,-252.5 1161.5,-252.5 1161.5,-222.5 865.5,-222.5"/>
<text text-anchor="start" x="872.5" y="-233.9" font-family="Arial" font-size="14.00" fill="#000000">can_view_post_reports    </text>
<text text-anchor="start" x="1050.629" y="-233.9" font-family="Arial" font-size="14.00" fill="#666666">[boolean]</text>
<polygon fill="none" stroke="#000000" points="865.5,-192.5 865.5,-222.5 1161.5,-222.5 1161.5,-192.5 865.5,-192.5"/>
<text text-anchor="start" x="872.5" y="-203.9" font-family="Arial" font-size="14.00" fill="#000000">can_update_post_reports    </text>
<text text-anchor="start" x="1065.4368" y="-203.9" font-family="Arial" font-size="14.00" fill="#666666">[boolean]</text>
<polygon fill="none" stroke="#000000" points="865.5,-162.5 865.5,-192.5 1161.5,-192.5 1161.5,-162.5 865.5,-162.5"/>
<text text-anchor="start" x="872.5" y="-173.9" font-family="Arial" font-size="14.00" fill="#000000">can_resolve_post_reports    </text>
<text text-anchor="start" x="1067.7482" y="-173.9" font-family="Arial" font-size="14.00" fill="#666666">[boolean]</text>
<polygon fill="none" stroke="#000000" points="865.5,-132.5 865.5,-162.5 1161.5,-162.5 1161.5,-132.5 865.5,-132.5"/>
<text text-anchor="start" x="872.5" y="-143.9" font-family="Arial" font-size="14.00" fill="#000000">can_register_events    </text>
<text text-anchor="start" x="1032.7398" y="-143.9" font-family="Arial" font-size="14.00" fill="#666666">[boolean]</text>
<polygon fill="none" stroke="#000000" points="865.5,-102.5 865.5,-132.5 1161.5,-132.5 1161.5,-102.5 865.5,-102.5"/>
<text text-anchor="start" x="872.5" y="-113.9" font-family="Arial" font-size="14.00" fill="#000000">can_view_events    </text>
<text text-anchor="start" x="1014.0694" y="-113.9" font-family="Arial" font-size="14.00" fill="#666666">[boolean]</text>
<polygon fill="none" stroke="#000000" points="865.5,-72.5 865.5,-102.5 1161.5,-102.5 1161.5,-72.5 865.5,-72.5"/>
<text text-anchor="start" x="872.5" y="-83.9" font-family="Arial" font-size="14.00" fill="#000000">can_edit_events    </text>
<text text-anchor="start" x="1008.636" y="-83.9" font-family="Arial" font-size="14.00" fill="#666666">[boolean]</text>
<polygon fill="none" stroke="#000000" points="865.5,-42.5 865.5,-72.5 1161.5,-72.5 1161.5,-42.5 865.5,-42.5"/>
<text text-anchor="start" x="872.5" y="-53.9" font-family="Arial" font-size="14.00" fill="#000000">can_unregister_events    </text>
<text text-anchor="start" x="1048.305" y="-53.9" font-family="Arial" font-size="14.00" fill="#666666">[boolean]</text>
</g>
<!-- public.invite&#45;&gt;public.role -->
<g id="edge3" class="edge">
<title>public.invite:role_id&#45;&gt;public.role:id</title>
<path fill="none" stroke="#000000" d="M754.6993,-1086.7502C795.7473,-1080.2317 787.2906,-1032.4221 813.5,-991 838.9246,-950.8182 817.9502,-897.5 865.5,-897.5"/>
<polygon fill="#000000" stroke="#000000" points="754.4731,-1086.7667 744.17,-1083.0121 749.4865,-1087.1334 744.5,-1087.5 744.5,-1087.5 744.5,-1087.5 749.4865,-1087.1334 744.83,-1091.9879 754.4731,-1086.7667 754.4731,-1086.7667"/>
<text text-anchor="start" x="751.1155" y="-1097.5" font-family="Arial" font-size="10.00" fill="#000000">FOREIGN KEY (role_id) REFERENCES role(id)</text>
</g>
</g>
</svg>
