<?xml version="1.0" encoding="UTF-8" standalone="no"?>
<!DOCTYPE svg PUBLIC "-//W3C//DTD SVG 1.1//EN"
 "http://www.w3.org/Graphics/SVG/1.1/DTD/svg11.dtd">
<!-- Generated by graphviz version 12.1.2 (20240928.0832)
 -->
<!-- Title: public.channel_user_reports Pages: 1 -->
<svg width="855pt" height="818pt"
 viewBox="0.00 0.00 854.93 817.60" xmlns="http://www.w3.org/2000/svg" xmlns:xlink="http://www.w3.org/1999/xlink">
<g id="graph0" class="graph" transform="scale(1 1) rotate(0) translate(4 813.6)">
<title>public.channel_user_reports</title>
<polygon fill="white" stroke="none" points="-4,4 -4,-813.6 850.93,-813.6 850.93,4 -4,4"/>
<!-- public.channel_user_reports -->
<g id="node1" class="node">
<title>public.channel_user_reports</title>
<polygon fill="#efefef" stroke="none" points="240.48,-727.8 240.48,-763.4 582.4,-763.4 582.4,-727.8 240.48,-727.8"/>
<polygon fill="none" stroke="black" points="240.48,-727.8 240.48,-763.4 582.4,-763.4 582.4,-727.8 240.48,-727.8"/>
<text text-anchor="start" x="247.48" y="-741.2" font-family="Arial Bold" font-size="18.00">public.channel_user_reports</text>
<text text-anchor="start" x="450.91" y="-741.2" font-family="Arial" font-size="14.00">    </text>
<text text-anchor="start" x="482.03" y="-741.2" font-family="Arial" font-size="14.00" fill="#666666">[BASE TABLE]</text>
<polygon fill="none" stroke="black" points="240.48,-697 240.48,-727.8 582.4,-727.8 582.4,-697 240.48,-697"/>
<text text-anchor="start" x="247.48" y="-709.2" font-family="Arial" font-size="14.00">id </text>
<text text-anchor="start" x="262.26" y="-709.2" font-family="Arial" font-size="14.00" fill="#666666">[uuid]</text>
<polygon fill="none" stroke="black" points="240.48,-666.2 240.48,-697 582.4,-697 582.4,-666.2 240.48,-666.2"/>
<text text-anchor="start" x="247.48" y="-678.4" font-family="Arial" font-size="14.00">user_id </text>
<text text-anchor="start" x="297.29" y="-678.4" font-family="Arial" font-size="14.00" fill="#666666">[uuid]</text>
<polygon fill="none" stroke="black" points="240.48,-635.4 240.48,-666.2 582.4,-666.2 582.4,-635.4 240.48,-635.4"/>
<text text-anchor="start" x="247.48" y="-647.6" font-family="Arial" font-size="14.00">channel_id </text>
<text text-anchor="start" x="319.09" y="-647.6" font-family="Arial" font-size="14.00" fill="#666666">[uuid]</text>
<polygon fill="none" stroke="black" points="240.48,-604.6 240.48,-635.4 582.4,-635.4 582.4,-604.6 240.48,-604.6"/>
<text text-anchor="start" x="247.48" y="-616.8" font-family="Arial" font-size="14.00">description </text>
<text text-anchor="start" x="319.07" y="-616.8" font-family="Arial" font-size="14.00" fill="#666666">[text]</text>
<polygon fill="none" stroke="black" points="240.48,-573.8 240.48,-604.6 582.4,-604.6 582.4,-573.8 240.48,-573.8"/>
<text text-anchor="start" x="247.48" y="-586" font-family="Arial" font-size="14.00">resolution </text>
<text text-anchor="start" x="312.07" y="-586" font-family="Arial" font-size="14.00" fill="#666666">[text]</text>
<polygon fill="none" stroke="black" points="240.48,-543 240.48,-573.8 582.4,-573.8 582.4,-543 240.48,-543"/>
<text text-anchor="start" x="247.48" y="-555.2" font-family="Arial" font-size="14.00">status </text>
<text text-anchor="start" x="288.72" y="-555.2" font-family="Arial" font-size="14.00" fill="#666666">[report_status]</text>
<polygon fill="none" stroke="black" stroke-width="3" points="238.98,-541.5 238.98,-764.9 583.9,-764.9 583.9,-541.5 238.98,-541.5"/>
</g>
<!-- public.user -->
<g id="node2" class="node">
<title>public.user</title>
<polygon fill="#efefef" stroke="none" points="82.92,-366.6 82.92,-402.2 359.96,-402.2 359.96,-366.6 82.92,-366.6"/>
<polygon fill="none" stroke="black" points="82.92,-366.6 82.92,-402.2 359.96,-402.2 359.96,-366.6 82.92,-366.6"/>
<text text-anchor="start" x="119.45" y="-380" font-family="Arial Bold" font-size="18.00">public.user</text>
<text text-anchor="start" x="198.93" y="-380" font-family="Arial" font-size="14.00">    </text>
<text text-anchor="start" x="230.05" y="-380" font-family="Arial" font-size="14.00" fill="#666666">[BASE TABLE]</text>
<polygon fill="none" stroke="black" points="82.92,-335.8 82.92,-366.6 359.96,-366.6 359.96,-335.8 82.92,-335.8"/>
<text text-anchor="start" x="89.92" y="-348" font-family="Arial" font-size="14.00">id </text>
<text text-anchor="start" x="104.71" y="-348" font-family="Arial" font-size="14.00" fill="#666666">[uuid]</text>
<polygon fill="none" stroke="black" points="82.92,-305 82.92,-335.8 359.96,-335.8 359.96,-305 82.92,-305"/>
<text text-anchor="start" x="89.92" y="-317.2" font-family="Arial" font-size="14.00">username </text>
<text text-anchor="start" x="156.06" y="-317.2" font-family="Arial" font-size="14.00" fill="#666666">[varchar(25)]</text>
<polygon fill="none" stroke="black" points="82.92,-274.2 82.92,-305 359.96,-305 359.96,-274.2 82.92,-274.2"/>
<text text-anchor="start" x="89.92" y="-286.4" font-family="Arial" font-size="14.00">profile_image </text>
<text text-anchor="start" x="177.86" y="-286.4" font-family="Arial" font-size="14.00" fill="#666666">[text]</text>
<polygon fill="none" stroke="black" points="82.92,-243.4 82.92,-274.2 359.96,-274.2 359.96,-243.4 82.92,-243.4"/>
<text text-anchor="start" x="89.92" y="-255.6" font-family="Arial" font-size="14.00">role </text>
<text text-anchor="start" x="117.15" y="-255.6" font-family="Arial" font-size="14.00" fill="#666666">[site_role]</text>
<polygon fill="none" stroke="black" points="82.92,-212.6 82.92,-243.4 359.96,-243.4 359.96,-212.6 82.92,-212.6"/>
<text text-anchor="start" x="89.92" y="-224.8" font-family="Arial" font-size="14.00">created_on </text>
<text text-anchor="start" x="163.86" y="-224.8" font-family="Arial" font-size="14.00" fill="#666666">[timestamp without time zone]</text>
<polygon fill="none" stroke="black" points="82.92,-181.8 82.92,-212.6 359.96,-212.6 359.96,-181.8 82.92,-181.8"/>
<text text-anchor="start" x="89.92" y="-194" font-family="Arial" font-size="14.00">updated_on </text>
<text text-anchor="start" x="167.77" y="-194" font-family="Arial" font-size="14.00" fill="#666666">[timestamp without time zone]</text>
<polygon fill="none" stroke="black" points="82.92,-151 82.92,-181.8 359.96,-181.8 359.96,-151 82.92,-151"/>
<text text-anchor="start" x="89.92" y="-163.2" font-family="Arial" font-size="14.00">discord_id </text>
<text text-anchor="start" x="157.62" y="-163.2" font-family="Arial" font-size="14.00" fill="#666666">[bigint]</text>
<polygon fill="none" stroke="black" points="82.92,-120.2 82.92,-151 359.96,-151 359.96,-120.2 82.92,-120.2"/>
<text text-anchor="start" x="89.92" y="-132.4" font-family="Arial" font-size="14.00">github_id </text>
<text text-anchor="start" x="150.64" y="-132.4" font-family="Arial" font-size="14.00" fill="#666666">[integer]</text>
<polygon fill="none" stroke="black" points="82.92,-89.4 82.92,-120.2 359.96,-120.2 359.96,-89.4 82.92,-89.4"/>
<text text-anchor="start" x="89.92" y="-101.6" font-family="Arial" font-size="14.00">followers </text>
<text text-anchor="start" x="149.05" y="-101.6" font-family="Arial" font-size="14.00" fill="#666666">[integer]</text>
<polygon fill="none" stroke="black" points="82.92,-58.6 82.92,-89.4 359.96,-89.4 359.96,-58.6 82.92,-58.6"/>
<text text-anchor="start" x="89.92" y="-70.8" font-family="Arial" font-size="14.00">following </text>
<text text-anchor="start" x="148.28" y="-70.8" font-family="Arial" font-size="14.00" fill="#666666">[integer]</text>
</g>
<!-- public.channel_user_reports&#45;&gt;public.user -->
<g id="edge1" class="edge">
<title>public.channel_user_reports:user_id&#45;&gt;public.user:id</title>
<path fill="none" stroke="black" d="M229.13,-680.91C160.75,-671.25 197.16,-562.2 240.48,-496.8 272.4,-448.6 327.91,-493.51 359.96,-445.4 383.17,-410.55 402.83,-351.2 360.96,-351.2"/>
<polygon fill="black" stroke="black" points="229.17,-680.91 238.85,-686.07 234.49,-681.27 238.81,-681.56 238.81,-681.56 238.81,-681.56 234.49,-681.27 239.44,-677.09 229.17,-680.91"/>
<text text-anchor="start" x="7" y="-691.6" font-family="Arial" font-size="10.00">FOREIGN KEY (user_id) REFERENCES &quot;user&quot;(id)</text>
</g>
<!-- public.channel -->
<g id="node3" class="node">
<title>public.channel</title>
<polygon fill="#efefef" stroke="none" points="463.92,-382 463.92,-417.6 740.96,-417.6 740.96,-382 463.92,-382"/>
<polygon fill="none" stroke="black" points="463.92,-382 463.92,-417.6 740.96,-417.6 740.96,-382 463.92,-382"/>
<text text-anchor="start" x="487.46" y="-395.4" font-family="Arial Bold" font-size="18.00">public.channel</text>
<text text-anchor="start" x="592.92" y="-395.4" font-family="Arial" font-size="14.00">    </text>
<text text-anchor="start" x="624.04" y="-395.4" font-family="Arial" font-size="14.00" fill="#666666">[BASE TABLE]</text>
<polygon fill="none" stroke="black" points="463.92,-351.2 463.92,-382 740.96,-382 740.96,-351.2 463.92,-351.2"/>
<text text-anchor="start" x="470.92" y="-363.4" font-family="Arial" font-size="14.00">id </text>
<text text-anchor="start" x="485.71" y="-363.4" font-family="Arial" font-size="14.00" fill="#666666">[uuid]</text>
<polygon fill="none" stroke="black" points="463.92,-320.4 463.92,-351.2 740.96,-351.2 740.96,-320.4 463.92,-320.4"/>
<text text-anchor="start" x="470.92" y="-332.6" font-family="Arial" font-size="14.00">name </text>
<text text-anchor="start" x="509.83" y="-332.6" font-family="Arial" font-size="14.00" fill="#666666">[text]</text>
<polygon fill="none" stroke="black" points="463.92,-289.6 463.92,-320.4 740.96,-320.4 740.96,-289.6 463.92,-289.6"/>
<text text-anchor="start" x="470.92" y="-301.8" font-family="Arial" font-size="14.00">description </text>
<text text-anchor="start" x="542.51" y="-301.8" font-family="Arial" font-size="14.00" fill="#666666">[text]</text>
<polygon fill="none" stroke="black" points="463.92,-258.8 463.92,-289.6 740.96,-289.6 740.96,-258.8 463.92,-258.8"/>
<text text-anchor="start" x="470.92" y="-271" font-family="Arial" font-size="14.00">guidelines </text>
<text text-anchor="start" x="537.86" y="-271" font-family="Arial" font-size="14.00" fill="#666666">[text]</text>
<polygon fill="none" stroke="black" points="463.92,-228 463.92,-258.8 740.96,-258.8 740.96,-228 463.92,-228"/>
<text text-anchor="start" x="470.92" y="-240.2" font-family="Arial" font-size="14.00">created_by </text>
<text text-anchor="start" x="544.08" y="-240.2" font-family="Arial" font-size="14.00" fill="#666666">[uuid]</text>
<polygon fill="none" stroke="black" points="463.92,-197.2 463.92,-228 740.96,-228 740.96,-197.2 463.92,-197.2"/>
<text text-anchor="start" x="470.92" y="-209.4" font-family="Arial" font-size="14.00">banner_image </text>
<text text-anchor="start" x="564.32" y="-209.4" font-family="Arial" font-size="14.00" fill="#666666">[text]</text>
<polygon fill="none" stroke="black" points="463.92,-166.4 463.92,-197.2 740.96,-197.2 740.96,-166.4 463.92,-166.4"/>
<text text-anchor="start" x="470.92" y="-178.6" font-family="Arial" font-size="14.00">icon </text>
<text text-anchor="start" x="500.49" y="-178.6" font-family="Arial" font-size="14.00" fill="#666666">[text]</text>
<polygon fill="none" stroke="black" points="463.92,-135.6 463.92,-166.4 740.96,-166.4 740.96,-135.6 463.92,-135.6"/>
<text text-anchor="start" x="470.92" y="-147.8" font-family="Arial" font-size="14.00">created_on </text>
<text text-anchor="start" x="544.86" y="-147.8" font-family="Arial" font-size="14.00" fill="#666666">[timestamp without time zone]</text>
<polygon fill="none" stroke="black" points="463.92,-104.8 463.92,-135.6 740.96,-135.6 740.96,-104.8 463.92,-104.8"/>
<text text-anchor="start" x="470.92" y="-117" font-family="Arial" font-size="14.00">updated_on </text>
<text text-anchor="start" x="548.77" y="-117" font-family="Arial" font-size="14.00" fill="#666666">[timestamp without time zone]</text>
<polygon fill="none" stroke="black" points="463.92,-74 463.92,-104.8 740.96,-104.8 740.96,-74 463.92,-74"/>
<text text-anchor="start" x="470.92" y="-86.2" font-family="Arial" font-size="14.00">subscribers </text>
<text text-anchor="start" x="546.39" y="-86.2" font-family="Arial" font-size="14.00" fill="#666666">[integer]</text>
<polygon fill="none" stroke="black" points="463.92,-43.2 463.92,-74 740.96,-74 740.96,-43.2 463.92,-43.2"/>
<text text-anchor="start" x="470.92" y="-55.4" font-family="Arial" font-size="14.00">posts </text>
<text text-anchor="start" x="508.27" y="-55.4" font-family="Arial" font-size="14.00" fill="#666666">[integer]</text>
</g>
<!-- public.channel_user_reports&#45;&gt;public.channel -->
<g id="edge2" class="edge">
<title>public.channel_user_reports:channel_id&#45;&gt;public.channel:id</title>
<path fill="none" stroke="black" d="M593.77,-649.93C648.69,-640.09 621.1,-548.65 582.4,-496.8 549.48,-452.69 496.93,-504.84 463.92,-460.8 438.81,-427.3 421.05,-366.6 462.92,-366.6"/>
<polygon fill="black" stroke="black" points="593.7,-649.94 583.36,-646.29 588.38,-650.38 584.07,-650.74 584.07,-650.74 584.07,-650.74 588.38,-650.38 584.11,-655.26 593.7,-649.94"/>
<text text-anchor="start" x="590.4" y="-660.8" font-family="Arial" font-size="10.00">FOREIGN KEY (channel_id) REFERENCES channel(id)</text>
</g>
</g>
</svg>
