<?xml version="1.0" encoding="UTF-8" standalone="no"?>
<!DOCTYPE svg PUBLIC "-//W3C//DTD SVG 1.1//EN"
 "http://www.w3.org/Graphics/SVG/1.1/DTD/svg11.dtd">
<!-- Generated by graphviz version 2.40.1 (20161225.0304)
 -->
<!-- Title: public.post_vote Pages: 1 -->
<svg width="812pt" height="712pt"
 viewBox="0.00 0.00 812.00 712.00" xmlns="http://www.w3.org/2000/svg" xmlns:xlink="http://www.w3.org/1999/xlink">
<g id="graph0" class="graph" transform="scale(1 1) rotate(0) translate(4 708)">
<title>public.post_vote</title>
<polygon fill="#ffffff" stroke="transparent" points="-4,4 -4,-708 808,-708 808,4 -4,4"/>
<!-- public.post_vote -->
<g id="node1" class="node">
<title>public.post_vote</title>
<polygon fill="#efefef" stroke="transparent" points="266.5,-622.5 266.5,-657.5 537.5,-657.5 537.5,-622.5 266.5,-622.5"/>
<polygon fill="none" stroke="#000000" points="266.5,-622.5 266.5,-657.5 537.5,-657.5 537.5,-622.5 266.5,-622.5"/>
<text text-anchor="start" x="273.1937" y="-635.3" font-family="Arial Bold" font-size="18.00" fill="#000000">public.post_vote</text>
<text text-anchor="start" x="403.2383" y="-635.3" font-family="Arial" font-size="14.00" fill="#000000">    </text>
<text text-anchor="start" x="437.4431" y="-635.3" font-family="Arial" font-size="14.00" fill="#666666">[BASE TABLE]</text>
<polygon fill="none" stroke="#000000" points="266.5,-592.5 266.5,-622.5 537.5,-622.5 537.5,-592.5 266.5,-592.5"/>
<text text-anchor="start" x="273.5" y="-603.9" font-family="Arial" font-size="14.00" fill="#000000">post_id </text>
<text text-anchor="start" x="322.5182" y="-603.9" font-family="Arial" font-size="14.00" fill="#666666">[uuid]</text>
<polygon fill="none" stroke="#000000" points="266.5,-562.5 266.5,-592.5 537.5,-592.5 537.5,-562.5 266.5,-562.5"/>
<text text-anchor="start" x="273.5" y="-573.9" font-family="Arial" font-size="14.00" fill="#000000">user_id </text>
<text text-anchor="start" x="323.2882" y="-573.9" font-family="Arial" font-size="14.00" fill="#666666">[uuid]</text>
<polygon fill="none" stroke="#000000" points="266.5,-532.5 266.5,-562.5 537.5,-562.5 537.5,-532.5 266.5,-532.5"/>
<text text-anchor="start" x="273.5" y="-543.9" font-family="Arial" font-size="14.00" fill="#000000">vote </text>
<text text-anchor="start" x="303.8464" y="-543.9" font-family="Arial" font-size="14.00" fill="#666666">[vote]</text>
<polygon fill="none" stroke="#000000" stroke-width="3" points="264.5,-531.5 264.5,-659.5 538.5,-659.5 538.5,-531.5 264.5,-531.5"/>
</g>
<!-- public.post -->
<g id="node2" class="node">
<title>public.post</title>
<polygon fill="#efefef" stroke="transparent" points="43.5,-372.5 43.5,-407.5 350.5,-407.5 350.5,-372.5 43.5,-372.5"/>
<polygon fill="none" stroke="#000000" points="43.5,-372.5 43.5,-407.5 350.5,-407.5 350.5,-372.5 43.5,-372.5"/>
<text text-anchor="start" x="90.2041" y="-385.3" font-family="Arial Bold" font-size="18.00" fill="#000000">public.post</text>
<text text-anchor="start" x="176.2279" y="-385.3" font-family="Arial" font-size="14.00" fill="#000000">    </text>
<text text-anchor="start" x="210.4327" y="-385.3" font-family="Arial" font-size="14.00" fill="#666666">[BASE TABLE]</text>
<polygon fill="none" stroke="#000000" points="43.5,-342.5 43.5,-372.5 350.5,-372.5 350.5,-342.5 43.5,-342.5"/>
<text text-anchor="start" x="50.5" y="-353.9" font-family="Arial" font-size="14.00" fill="#000000">id    </text>
<text text-anchor="start" x="95.594" y="-353.9" font-family="Arial" font-size="14.00" fill="#666666">[uuid]</text>
<polygon fill="none" stroke="#000000" points="43.5,-312.5 43.5,-342.5 350.5,-342.5 350.5,-312.5 43.5,-312.5"/>
<text text-anchor="start" x="50.5" y="-323.9" font-family="Arial" font-size="14.00" fill="#000000">name    </text>
<text text-anchor="start" x="119.7132" y="-323.9" font-family="Arial" font-size="14.00" fill="#666666">[text]</text>
<polygon fill="none" stroke="#000000" points="43.5,-282.5 43.5,-312.5 350.5,-312.5 350.5,-282.5 43.5,-282.5"/>
<text text-anchor="start" x="50.5" y="-293.9" font-family="Arial" font-size="14.00" fill="#000000">description    </text>
<text text-anchor="start" x="152.3822" y="-293.9" font-family="Arial" font-size="14.00" fill="#666666">[text]</text>
<polygon fill="none" stroke="#000000" points="43.5,-252.5 43.5,-282.5 350.5,-282.5 350.5,-252.5 43.5,-252.5"/>
<text text-anchor="start" x="50.5" y="-263.9" font-family="Arial" font-size="14.00" fill="#000000">alt_text    </text>
<text text-anchor="start" x="129.831" y="-263.9" font-family="Arial" font-size="14.00" fill="#666666">[text]</text>
<polygon fill="none" stroke="#000000" points="43.5,-222.5 43.5,-252.5 350.5,-252.5 350.5,-222.5 43.5,-222.5"/>
<text text-anchor="start" x="50.5" y="-233.9" font-family="Arial" font-size="14.00" fill="#000000">created_by    </text>
<text text-anchor="start" x="153.9516" y="-233.9" font-family="Arial" font-size="14.00" fill="#666666">[uuid]</text>
<polygon fill="none" stroke="#000000" points="43.5,-192.5 43.5,-222.5 350.5,-222.5 350.5,-192.5 43.5,-192.5"/>
<text text-anchor="start" x="50.5" y="-203.9" font-family="Arial" font-size="14.00" fill="#000000">channel_id    </text>
<text text-anchor="start" x="152.3962" y="-203.9" font-family="Arial" font-size="14.00" fill="#666666">[uuid]</text>
<polygon fill="none" stroke="#000000" points="43.5,-162.5 43.5,-192.5 350.5,-192.5 350.5,-162.5 43.5,-162.5"/>
<text text-anchor="start" x="50.5" y="-173.9" font-family="Arial" font-size="14.00" fill="#000000">video_id    </text>
<text text-anchor="start" x="136.831" y="-173.9" font-family="Arial" font-size="14.00" fill="#666666">[text]</text>
<polygon fill="none" stroke="#000000" points="43.5,-132.5 43.5,-162.5 350.5,-162.5 350.5,-132.5 43.5,-132.5"/>
<text text-anchor="start" x="50.5" y="-143.9" font-family="Arial" font-size="14.00" fill="#000000">created_on    </text>
<text text-anchor="start" x="154.7342" y="-143.9" font-family="Arial" font-size="14.00" fill="#666666">[timestamp without time zone]</text>
<polygon fill="none" stroke="#000000" points="43.5,-102.5 43.5,-132.5 350.5,-132.5 350.5,-102.5 43.5,-102.5"/>
<text text-anchor="start" x="50.3605" y="-113.9" font-family="Arial" font-size="14.00" fill="#000000">updated_on    </text>
<text text-anchor="start" x="158.4993" y="-113.9" font-family="Arial" font-size="14.00" fill="#666666">[timestamp without time zone]</text>
<polygon fill="none" stroke="#000000" points="43.5,-72.5 43.5,-102.5 350.5,-102.5 350.5,-72.5 43.5,-72.5"/>
<text text-anchor="start" x="50.5" y="-83.9" font-family="Arial" font-size="14.00" fill="#000000">upvotes    </text>
<text text-anchor="start" x="133.7258" y="-83.9" font-family="Arial" font-size="14.00" fill="#666666">[integer]</text>
<polygon fill="none" stroke="#000000" points="43.5,-42.5 43.5,-72.5 350.5,-72.5 350.5,-42.5 43.5,-42.5"/>
<text text-anchor="start" x="50.5" y="-53.9" font-family="Arial" font-size="14.00" fill="#000000">downvotes    </text>
<text text-anchor="start" x="151.615" y="-53.9" font-family="Arial" font-size="14.00" fill="#666666">[integer]</text>
</g>
<!-- public.post_vote&#45;&gt;public.post -->
<g id="edge1" class="edge">
<title>public.post_vote:post_id&#45;&gt;public.post:id</title>
<path fill="none" stroke="#000000" d="M256.3294,-606.4131C216.3565,-596.9957 239.0911,-528.5667 266.5,-487 288.8595,-453.0909 328.1405,-484.9091 350.5,-451 373.376,-416.3077 392.0556,-357.5 350.5,-357.5"/>
<polygon fill="#000000" stroke="#000000" points="256.5566,-606.4373 266.0218,-611.9745 261.5283,-606.9686 266.5,-607.5 266.5,-607.5 266.5,-607.5 261.5283,-606.9686 266.9782,-603.0255 256.5566,-606.4373 256.5566,-606.4373"/>
<text text-anchor="start" x="42.8845" y="-617.5" font-family="Arial" font-size="10.00" fill="#000000">FOREIGN KEY (post_id) REFERENCES post(id)</text>
</g>
<!-- public.user -->
<g id="node3" class="node">
<title>public.user</title>
<polygon fill="#efefef" stroke="transparent" points="454.5,-327.5 454.5,-362.5 761.5,-362.5 761.5,-327.5 454.5,-327.5"/>
<polygon fill="none" stroke="#000000" points="454.5,-327.5 454.5,-362.5 761.5,-362.5 761.5,-327.5 454.5,-327.5"/>
<text text-anchor="start" x="500.7091" y="-340.3" font-family="Arial Bold" font-size="18.00" fill="#000000">public.user</text>
<text text-anchor="start" x="587.7229" y="-340.3" font-family="Arial" font-size="14.00" fill="#000000">    </text>
<text text-anchor="start" x="621.9277" y="-340.3" font-family="Arial" font-size="14.00" fill="#666666">[BASE TABLE]</text>
<polygon fill="none" stroke="#000000" points="454.5,-297.5 454.5,-327.5 761.5,-327.5 761.5,-297.5 454.5,-297.5"/>
<text text-anchor="start" x="461.5" y="-308.9" font-family="Arial" font-size="14.00" fill="#000000">id    </text>
<text text-anchor="start" x="506.594" y="-308.9" font-family="Arial" font-size="14.00" fill="#666666">[uuid]</text>
<polygon fill="none" stroke="#000000" points="454.5,-267.5 454.5,-297.5 761.5,-297.5 761.5,-267.5 454.5,-267.5"/>
<text text-anchor="start" x="461.5" y="-278.9" font-family="Arial" font-size="14.00" fill="#000000">username    </text>
<text text-anchor="start" x="557.939" y="-278.9" font-family="Arial" font-size="14.00" fill="#666666">[varchar(25)]</text>
<polygon fill="none" stroke="#000000" points="454.5,-237.5 454.5,-267.5 761.5,-267.5 761.5,-237.5 454.5,-237.5"/>
<text text-anchor="start" x="461.5" y="-248.9" font-family="Arial" font-size="14.00" fill="#000000">profile_image    </text>
<text text-anchor="start" x="579.7146" y="-248.9" font-family="Arial" font-size="14.00" fill="#666666">[text]</text>
<polygon fill="none" stroke="#000000" points="454.5,-207.5 454.5,-237.5 761.5,-237.5 761.5,-207.5 454.5,-207.5"/>
<text text-anchor="start" x="461.5" y="-218.9" font-family="Arial" font-size="14.00" fill="#000000">role    </text>
<text text-anchor="start" x="519.0372" y="-218.9" font-family="Arial" font-size="14.00" fill="#666666">[site_role]</text>
<polygon fill="none" stroke="#000000" points="454.5,-177.5 454.5,-207.5 761.5,-207.5 761.5,-177.5 454.5,-177.5"/>
<text text-anchor="start" x="461.5" y="-188.9" font-family="Arial" font-size="14.00" fill="#000000">created_on    </text>
<text text-anchor="start" x="565.7342" y="-188.9" font-family="Arial" font-size="14.00" fill="#666666">[timestamp without time zone]</text>
<polygon fill="none" stroke="#000000" points="454.5,-147.5 454.5,-177.5 761.5,-177.5 761.5,-147.5 454.5,-147.5"/>
<text text-anchor="start" x="461.3605" y="-158.9" font-family="Arial" font-size="14.00" fill="#000000">updated_on    </text>
<text text-anchor="start" x="569.4993" y="-158.9" font-family="Arial" font-size="14.00" fill="#666666">[timestamp without time zone]</text>
<polygon fill="none" stroke="#000000" points="454.5,-117.5 454.5,-147.5 761.5,-147.5 761.5,-117.5 454.5,-117.5"/>
<text text-anchor="start" x="461.5" y="-128.9" font-family="Arial" font-size="14.00" fill="#000000">discord_id    </text>
<text text-anchor="start" x="559.4916" y="-128.9" font-family="Arial" font-size="14.00" fill="#666666">[bigint]</text>
<polygon fill="none" stroke="#000000" points="454.5,-87.5 454.5,-117.5 761.5,-117.5 761.5,-87.5 454.5,-87.5"/>
<text text-anchor="start" x="461.5" y="-98.9" font-family="Arial" font-size="14.00" fill="#000000">github_id    </text>
<text text-anchor="start" x="552.5042" y="-98.9" font-family="Arial" font-size="14.00" fill="#666666">[integer]</text>
</g>
<!-- public.post_vote&#45;&gt;public.user -->
<g id="edge2" class="edge">
<title>public.post_vote:user_id&#45;&gt;public.user:id</title>
<path fill="none" stroke="#000000" d="M547.4979,-576.0362C573.0025,-567.2198 551.5934,-520.4462 537.5,-487 517.485,-439.5007 474.515,-453.4993 454.5,-406 438.3636,-367.7053 412.9444,-312.5 454.5,-312.5"/>
<polygon fill="#000000" stroke="#000000" points="547.3945,-576.0513 536.8481,-573.0475 542.4473,-576.7757 537.5,-577.5 537.5,-577.5 537.5,-577.5 542.4473,-576.7757 538.1519,-581.9525 547.3945,-576.0513 547.3945,-576.0513"/>
<text text-anchor="start" x="544.7855" y="-587.5" font-family="Arial" font-size="10.00" fill="#000000">FOREIGN KEY (user_id) REFERENCES &quot;user&quot;(id)</text>
</g>
</g>
</svg>
