<?xml version="1.0" encoding="UTF-8" standalone="no"?>
<!DOCTYPE svg PUBLIC "-//W3C//DTD SVG 1.1//EN"
 "http://www.w3.org/Graphics/SVG/1.1/DTD/svg11.dtd">
<!-- Generated by graphviz version 2.40.1 (20161225.0304)
 -->
<!-- Title: public.user_role Pages: 1 -->
<svg width="802pt" height="1252pt"
 viewBox="0.00 0.00 801.50 1252.00" xmlns="http://www.w3.org/2000/svg" xmlns:xlink="http://www.w3.org/1999/xlink">
<g id="graph0" class="graph" transform="scale(1 1) rotate(0) translate(4 1248)">
<title>public.user_role</title>
<polygon fill="#ffffff" stroke="transparent" points="-4,4 -4,-1248 797.5,-1248 797.5,4 -4,4"/>
<!-- public.user_role -->
<g id="node1" class="node">
<title>public.user_role</title>
<polygon fill="#efefef" stroke="transparent" points="261.5,-1162.5 261.5,-1197.5 537.5,-1197.5 537.5,-1162.5 261.5,-1162.5"/>
<polygon fill="none" stroke="#000000" points="261.5,-1162.5 261.5,-1197.5 537.5,-1197.5 537.5,-1162.5 261.5,-1162.5"/>
<text text-anchor="start" x="272.2066" y="-1175.3" font-family="Arial Bold" font-size="18.00" fill="#000000">public.user_role</text>
<text text-anchor="start" x="399.2254" y="-1175.3" font-family="Arial" font-size="14.00" fill="#000000">    </text>
<text text-anchor="start" x="433.4302" y="-1175.3" font-family="Arial" font-size="14.00" fill="#666666">[BASE TABLE]</text>
<polygon fill="none" stroke="#000000" points="261.5,-1132.5 261.5,-1162.5 537.5,-1162.5 537.5,-1132.5 261.5,-1132.5"/>
<text text-anchor="start" x="268.5" y="-1143.9" font-family="Arial" font-size="14.00" fill="#000000">user_id </text>
<text text-anchor="start" x="318.2882" y="-1143.9" font-family="Arial" font-size="14.00" fill="#666666">[uuid]</text>
<polygon fill="none" stroke="#000000" points="261.5,-1102.5 261.5,-1132.5 537.5,-1132.5 537.5,-1102.5 261.5,-1102.5"/>
<text text-anchor="start" x="268.5" y="-1113.9" font-family="Arial" font-size="14.00" fill="#000000">role_id </text>
<text text-anchor="start" x="314.3948" y="-1113.9" font-family="Arial" font-size="14.00" fill="#666666">[uuid]</text>
<polygon fill="none" stroke="#000000" points="261.5,-1072.5 261.5,-1102.5 537.5,-1102.5 537.5,-1072.5 261.5,-1072.5"/>
<text text-anchor="start" x="268.0176" y="-1083.9" font-family="Arial" font-size="14.00" fill="#000000">updated_on </text>
<text text-anchor="start" x="345.8422" y="-1083.9" font-family="Arial" font-size="14.00" fill="#666666">[timestamp without time zone]</text>
<polygon fill="none" stroke="#000000" stroke-width="3" points="260,-1071.5 260,-1199.5 539,-1199.5 539,-1071.5 260,-1071.5"/>
</g>
<!-- public.user -->
<g id="node2" class="node">
<title>public.user</title>
<polygon fill="#efefef" stroke="transparent" points="43.5,-567.5 43.5,-602.5 350.5,-602.5 350.5,-567.5 43.5,-567.5"/>
<polygon fill="none" stroke="#000000" points="43.5,-567.5 43.5,-602.5 350.5,-602.5 350.5,-567.5 43.5,-567.5"/>
<text text-anchor="start" x="89.7091" y="-580.3" font-family="Arial Bold" font-size="18.00" fill="#000000">public.user</text>
<text text-anchor="start" x="176.7229" y="-580.3" font-family="Arial" font-size="14.00" fill="#000000">    </text>
<text text-anchor="start" x="210.9277" y="-580.3" font-family="Arial" font-size="14.00" fill="#666666">[BASE TABLE]</text>
<polygon fill="none" stroke="#000000" points="43.5,-537.5 43.5,-567.5 350.5,-567.5 350.5,-537.5 43.5,-537.5"/>
<text text-anchor="start" x="50.5" y="-548.9" font-family="Arial" font-size="14.00" fill="#000000">id    </text>
<text text-anchor="start" x="95.594" y="-548.9" font-family="Arial" font-size="14.00" fill="#666666">[uuid]</text>
<polygon fill="none" stroke="#000000" points="43.5,-507.5 43.5,-537.5 350.5,-537.5 350.5,-507.5 43.5,-507.5"/>
<text text-anchor="start" x="50.5" y="-518.9" font-family="Arial" font-size="14.00" fill="#000000">username    </text>
<text text-anchor="start" x="146.939" y="-518.9" font-family="Arial" font-size="14.00" fill="#666666">[varchar(25)]</text>
<polygon fill="none" stroke="#000000" points="43.5,-477.5 43.5,-507.5 350.5,-507.5 350.5,-477.5 43.5,-477.5"/>
<text text-anchor="start" x="50.5" y="-488.9" font-family="Arial" font-size="14.00" fill="#000000">profile_image    </text>
<text text-anchor="start" x="168.7146" y="-488.9" font-family="Arial" font-size="14.00" fill="#666666">[text]</text>
<polygon fill="none" stroke="#000000" points="43.5,-447.5 43.5,-477.5 350.5,-477.5 350.5,-447.5 43.5,-447.5"/>
<text text-anchor="start" x="50.5" y="-458.9" font-family="Arial" font-size="14.00" fill="#000000">role    </text>
<text text-anchor="start" x="108.0372" y="-458.9" font-family="Arial" font-size="14.00" fill="#666666">[site_role]</text>
<polygon fill="none" stroke="#000000" points="43.5,-417.5 43.5,-447.5 350.5,-447.5 350.5,-417.5 43.5,-417.5"/>
<text text-anchor="start" x="50.5" y="-428.9" font-family="Arial" font-size="14.00" fill="#000000">created_on    </text>
<text text-anchor="start" x="154.7342" y="-428.9" font-family="Arial" font-size="14.00" fill="#666666">[timestamp without time zone]</text>
<polygon fill="none" stroke="#000000" points="43.5,-387.5 43.5,-417.5 350.5,-417.5 350.5,-387.5 43.5,-387.5"/>
<text text-anchor="start" x="50.3605" y="-398.9" font-family="Arial" font-size="14.00" fill="#000000">updated_on    </text>
<text text-anchor="start" x="158.4993" y="-398.9" font-family="Arial" font-size="14.00" fill="#666666">[timestamp without time zone]</text>
</g>
<!-- public.user_role&#45;&gt;public.user -->
<g id="edge1" class="edge">
<title>public.user_role:user_id&#45;&gt;public.user:id</title>
<path fill="none" stroke="#000000" d="M251.2982,-1146.0954C147.5997,-1114.276 480.407,-552.5 350.5,-552.5"/>
<polygon fill="#000000" stroke="#000000" points="251.5935,-1146.136 260.8862,-1151.9579 256.5467,-1146.818 261.5,-1147.5 261.5,-1147.5 261.5,-1147.5 256.5467,-1146.818 262.1138,-1143.0421 251.5935,-1146.136 251.5935,-1146.136"/>
<text text-anchor="start" x="29.7855" y="-1157.5" font-family="Arial" font-size="10.00" fill="#000000">FOREIGN KEY (user_id) REFERENCES &quot;user&quot;(id)</text>
</g>
<!-- public.role -->
<g id="node3" class="node">
<title>public.role</title>
<polygon fill="#efefef" stroke="transparent" points="454.5,-912.5 454.5,-947.5 750.5,-947.5 750.5,-912.5 454.5,-912.5"/>
<polygon fill="none" stroke="#000000" points="454.5,-912.5 454.5,-947.5 750.5,-947.5 750.5,-912.5 454.5,-912.5"/>
<text text-anchor="start" x="497.712" y="-925.3" font-family="Arial Bold" font-size="18.00" fill="#000000">public.role</text>
<text text-anchor="start" x="579.72" y="-925.3" font-family="Arial" font-size="14.00" fill="#000000">    </text>
<text text-anchor="start" x="613.9248" y="-925.3" font-family="Arial" font-size="14.00" fill="#666666">[BASE TABLE]</text>
<polygon fill="none" stroke="#000000" points="454.5,-882.5 454.5,-912.5 750.5,-912.5 750.5,-882.5 454.5,-882.5"/>
<text text-anchor="start" x="461.5" y="-893.9" font-family="Arial" font-size="14.00" fill="#000000">id    </text>
<text text-anchor="start" x="506.594" y="-893.9" font-family="Arial" font-size="14.00" fill="#666666">[uuid]</text>
<polygon fill="none" stroke="#000000" points="454.5,-852.5 454.5,-882.5 750.5,-882.5 750.5,-852.5 454.5,-852.5"/>
<text text-anchor="start" x="461.5" y="-863.9" font-family="Arial" font-size="14.00" fill="#000000">channel_id    </text>
<text text-anchor="start" x="563.3962" y="-863.9" font-family="Arial" font-size="14.00" fill="#666666">[uuid]</text>
<polygon fill="none" stroke="#000000" points="454.5,-822.5 454.5,-852.5 750.5,-852.5 750.5,-822.5 454.5,-822.5"/>
<text text-anchor="start" x="461.5" y="-833.9" font-family="Arial" font-size="14.00" fill="#000000">title    </text>
<text text-anchor="start" x="517.4818" y="-833.9" font-family="Arial" font-size="14.00" fill="#666666">[varchar(20)]</text>
<polygon fill="none" stroke="#000000" points="454.5,-792.5 454.5,-822.5 750.5,-822.5 750.5,-792.5 454.5,-792.5"/>
<text text-anchor="start" x="461.5" y="-803.9" font-family="Arial" font-size="14.00" fill="#000000">isOwner    </text>
<text text-anchor="start" x="547.0344" y="-803.9" font-family="Arial" font-size="14.00" fill="#666666">[boolean]</text>
<polygon fill="none" stroke="#000000" points="454.5,-762.5 454.5,-792.5 750.5,-792.5 750.5,-762.5 454.5,-762.5"/>
<text text-anchor="start" x="461.5" y="-773.9" font-family="Arial" font-size="14.00" fill="#000000">ranking    </text>
<text text-anchor="start" x="541.6024" y="-773.9" font-family="Arial" font-size="14.00" fill="#666666">[smallint]</text>
<polygon fill="none" stroke="#000000" points="454.5,-732.5 454.5,-762.5 750.5,-762.5 750.5,-732.5 454.5,-732.5"/>
<text text-anchor="start" x="461.5" y="-743.9" font-family="Arial" font-size="14.00" fill="#000000">can_create_roles    </text>
<text text-anchor="start" x="603.0666" y="-743.9" font-family="Arial" font-size="14.00" fill="#666666">[boolean]</text>
<polygon fill="none" stroke="#000000" points="454.5,-702.5 454.5,-732.5 750.5,-732.5 750.5,-702.5 454.5,-702.5"/>
<text text-anchor="start" x="461.5" y="-713.9" font-family="Arial" font-size="14.00" fill="#000000">can_view_roles    </text>
<text text-anchor="start" x="592.1634" y="-713.9" font-family="Arial" font-size="14.00" fill="#666666">[boolean]</text>
<polygon fill="none" stroke="#000000" points="454.5,-672.5 454.5,-702.5 750.5,-702.5 750.5,-672.5 454.5,-672.5"/>
<text text-anchor="start" x="461.5" y="-683.9" font-family="Arial" font-size="14.00" fill="#000000">can_edit_roles    </text>
<text text-anchor="start" x="586.73" y="-683.9" font-family="Arial" font-size="14.00" fill="#666666">[boolean]</text>
<polygon fill="none" stroke="#000000" points="454.5,-642.5 454.5,-672.5 750.5,-672.5 750.5,-642.5 454.5,-642.5"/>
<text text-anchor="start" x="461.5" y="-653.9" font-family="Arial" font-size="14.00" fill="#000000">can_delete_roles    </text>
<text text-anchor="start" x="602.2952" y="-653.9" font-family="Arial" font-size="14.00" fill="#666666">[boolean]</text>
<polygon fill="none" stroke="#000000" points="454.5,-612.5 454.5,-642.5 750.5,-642.5 750.5,-612.5 454.5,-612.5"/>
<text text-anchor="start" x="461.5" y="-623.9" font-family="Arial" font-size="14.00" fill="#000000">can_assign_roles    </text>
<text text-anchor="start" x="604.622" y="-623.9" font-family="Arial" font-size="14.00" fill="#666666">[boolean]</text>
<polygon fill="none" stroke="#000000" points="454.5,-582.5 454.5,-612.5 750.5,-612.5 750.5,-582.5 454.5,-582.5"/>
<text text-anchor="start" x="461.2876" y="-593.9" font-family="Arial" font-size="14.00" fill="#000000">can_set_message_of_the_day    </text>
<text text-anchor="start" x="686.129" y="-593.9" font-family="Arial" font-size="14.00" fill="#666666">[boolean]</text>
<polygon fill="none" stroke="#000000" points="454.5,-552.5 454.5,-582.5 750.5,-582.5 750.5,-552.5 454.5,-552.5"/>
<text text-anchor="start" x="461.5" y="-563.9" font-family="Arial" font-size="14.00" fill="#000000">can_edit_name    </text>
<text text-anchor="start" x="591.406" y="-563.9" font-family="Arial" font-size="14.00" fill="#666666">[boolean]</text>
<polygon fill="none" stroke="#000000" points="454.5,-522.5 454.5,-552.5 750.5,-552.5 750.5,-522.5 454.5,-522.5"/>
<text text-anchor="start" x="461.5" y="-533.9" font-family="Arial" font-size="14.00" fill="#000000">can_set_image    </text>
<text text-anchor="start" x="590.6234" y="-533.9" font-family="Arial" font-size="14.00" fill="#666666">[boolean]</text>
<polygon fill="none" stroke="#000000" points="454.5,-492.5 454.5,-522.5 750.5,-522.5 750.5,-492.5 454.5,-492.5"/>
<text text-anchor="start" x="461.5" y="-503.9" font-family="Arial" font-size="14.00" fill="#000000">can_view_user_table    </text>
<text text-anchor="start" x="627.1844" y="-503.9" font-family="Arial" font-size="14.00" fill="#666666">[boolean]</text>
<polygon fill="none" stroke="#000000" points="454.5,-462.5 454.5,-492.5 750.5,-492.5 750.5,-462.5 454.5,-462.5"/>
<text text-anchor="start" x="461.5" y="-473.9" font-family="Arial" font-size="14.00" fill="#000000">can_edit_tags    </text>
<text text-anchor="start" x="582.8534" y="-473.9" font-family="Arial" font-size="14.00" fill="#666666">[boolean]</text>
<polygon fill="none" stroke="#000000" points="454.5,-432.5 454.5,-462.5 750.5,-462.5 750.5,-432.5 454.5,-432.5"/>
<text text-anchor="start" x="461.5" y="-443.9" font-family="Arial" font-size="14.00" fill="#000000">can_timeout_users    </text>
<text text-anchor="start" x="613.9572" y="-443.9" font-family="Arial" font-size="14.00" fill="#666666">[boolean]</text>
<polygon fill="none" stroke="#000000" points="454.5,-402.5 454.5,-432.5 750.5,-432.5 750.5,-402.5 454.5,-402.5"/>
<text text-anchor="start" x="461.5" y="-413.9" font-family="Arial" font-size="14.00" fill="#000000">can_ban_users    </text>
<text text-anchor="start" x="591.4088" y="-413.9" font-family="Arial" font-size="14.00" fill="#666666">[boolean]</text>
<polygon fill="none" stroke="#000000" points="454.5,-372.5 454.5,-402.5 750.5,-402.5 750.5,-372.5 454.5,-372.5"/>
<text text-anchor="start" x="461.5" y="-383.9" font-family="Arial" font-size="14.00" fill="#000000">can_view_banned_users    </text>
<text text-anchor="start" x="650.535" y="-383.9" font-family="Arial" font-size="14.00" fill="#666666">[boolean]</text>
<polygon fill="none" stroke="#000000" points="454.5,-342.5 454.5,-372.5 750.5,-372.5 750.5,-342.5 454.5,-342.5"/>
<text text-anchor="start" x="461.5" y="-353.9" font-family="Arial" font-size="14.00" fill="#000000">can_unban_users    </text>
<text text-anchor="start" x="606.974" y="-353.9" font-family="Arial" font-size="14.00" fill="#666666">[boolean]</text>
<polygon fill="none" stroke="#000000" points="454.5,-312.5 454.5,-342.5 750.5,-342.5 750.5,-312.5 454.5,-312.5"/>
<text text-anchor="start" x="461.5" y="-323.9" font-family="Arial" font-size="14.00" fill="#000000">can_delete_posts    </text>
<text text-anchor="start" x="605.4186" y="-323.9" font-family="Arial" font-size="14.00" fill="#666666">[boolean]</text>
<polygon fill="none" stroke="#000000" points="454.5,-282.5 454.5,-312.5 750.5,-312.5 750.5,-282.5 454.5,-282.5"/>
<text text-anchor="start" x="461.5" y="-293.9" font-family="Arial" font-size="14.00" fill="#000000">can_delete_comments    </text>
<text text-anchor="start" x="636.5224" y="-293.9" font-family="Arial" font-size="14.00" fill="#666666">[boolean]</text>
<polygon fill="none" stroke="#000000" points="454.5,-252.5 454.5,-282.5 750.5,-282.5 750.5,-252.5 454.5,-252.5"/>
<text text-anchor="start" x="461.5" y="-263.9" font-family="Arial" font-size="14.00" fill="#000000">can_edit_post_tags    </text>
<text text-anchor="start" x="617.0918" y="-263.9" font-family="Arial" font-size="14.00" fill="#666666">[boolean]</text>
<polygon fill="none" stroke="#000000" points="454.5,-222.5 454.5,-252.5 750.5,-252.5 750.5,-222.5 454.5,-222.5"/>
<text text-anchor="start" x="461.5" y="-233.9" font-family="Arial" font-size="14.00" fill="#000000">can_view_post_reports    </text>
<text text-anchor="start" x="639.629" y="-233.9" font-family="Arial" font-size="14.00" fill="#666666">[boolean]</text>
<polygon fill="none" stroke="#000000" points="454.5,-192.5 454.5,-222.5 750.5,-222.5 750.5,-192.5 454.5,-192.5"/>
<text text-anchor="start" x="461.5" y="-203.9" font-family="Arial" font-size="14.00" fill="#000000">can_update_post_reports    </text>
<text text-anchor="start" x="654.4368" y="-203.9" font-family="Arial" font-size="14.00" fill="#666666">[boolean]</text>
<polygon fill="none" stroke="#000000" points="454.5,-162.5 454.5,-192.5 750.5,-192.5 750.5,-162.5 454.5,-162.5"/>
<text text-anchor="start" x="461.5" y="-173.9" font-family="Arial" font-size="14.00" fill="#000000">can_resolve_post_reports    </text>
<text text-anchor="start" x="656.7482" y="-173.9" font-family="Arial" font-size="14.00" fill="#666666">[boolean]</text>
<polygon fill="none" stroke="#000000" points="454.5,-132.5 454.5,-162.5 750.5,-162.5 750.5,-132.5 454.5,-132.5"/>
<text text-anchor="start" x="461.5" y="-143.9" font-family="Arial" font-size="14.00" fill="#000000">can_register_events    </text>
<text text-anchor="start" x="621.7398" y="-143.9" font-family="Arial" font-size="14.00" fill="#666666">[boolean]</text>
<polygon fill="none" stroke="#000000" points="454.5,-102.5 454.5,-132.5 750.5,-132.5 750.5,-102.5 454.5,-102.5"/>
<text text-anchor="start" x="461.5" y="-113.9" font-family="Arial" font-size="14.00" fill="#000000">can_view_events    </text>
<text text-anchor="start" x="603.0694" y="-113.9" font-family="Arial" font-size="14.00" fill="#666666">[boolean]</text>
<polygon fill="none" stroke="#000000" points="454.5,-72.5 454.5,-102.5 750.5,-102.5 750.5,-72.5 454.5,-72.5"/>
<text text-anchor="start" x="461.5" y="-83.9" font-family="Arial" font-size="14.00" fill="#000000">can_edit_events    </text>
<text text-anchor="start" x="597.636" y="-83.9" font-family="Arial" font-size="14.00" fill="#666666">[boolean]</text>
<polygon fill="none" stroke="#000000" points="454.5,-42.5 454.5,-72.5 750.5,-72.5 750.5,-42.5 454.5,-42.5"/>
<text text-anchor="start" x="461.5" y="-53.9" font-family="Arial" font-size="14.00" fill="#000000">can_unregister_events    </text>
<text text-anchor="start" x="637.305" y="-53.9" font-family="Arial" font-size="14.00" fill="#666666">[boolean]</text>
</g>
<!-- public.user_role&#45;&gt;public.role -->
<g id="edge2" class="edge">
<title>public.user_role:role_id&#45;&gt;public.role:id</title>
<path fill="none" stroke="#000000" d="M547.6644,-1115.9475C574.1393,-1106.6137 557.4137,-1057.3434 537.5,-1027 515.4383,-993.3835 476.5617,-1024.6165 454.5,-991 431.6996,-956.258 412.9444,-897.5 454.5,-897.5"/>
<polygon fill="#000000" stroke="#000000" points="547.3854,-1115.99 536.8205,-1113.0516 542.4427,-1116.745 537.5,-1117.5 537.5,-1117.5 537.5,-1117.5 542.4427,-1116.745 538.1795,-1121.9484 547.3854,-1115.99 547.3854,-1115.99"/>
<text text-anchor="start" x="544.1155" y="-1127.5" font-family="Arial" font-size="10.00" fill="#000000">FOREIGN KEY (role_id) REFERENCES role(id)</text>
</g>
</g>
</svg>
