<?xml version="1.0" encoding="UTF-8" standalone="no"?>
<!DOCTYPE svg PUBLIC "-//W3C//DTD SVG 1.1//EN"
 "http://www.w3.org/Graphics/SVG/1.1/DTD/svg11.dtd">
<!-- Generated by graphviz version 2.40.1 (20161225.0304)
 -->
<!-- Title: public.comment Pages: 1 -->
<svg width="841pt" height="1079pt"
 viewBox="0.00 0.00 840.50 1079.00" xmlns="http://www.w3.org/2000/svg" xmlns:xlink="http://www.w3.org/1999/xlink">
<g id="graph0" class="graph" transform="scale(1 1) rotate(0) translate(4 1075)">
<title>public.comment</title>
<polygon fill="#ffffff" stroke="transparent" points="-4,4 -4,-1075 836.5,-1075 836.5,4 -4,4"/>
<!-- public.comment -->
<g id="node1" class="node">
<title>public.comment</title>
<polygon fill="#efefef" stroke="transparent" points="264.5,-742.5 264.5,-777.5 540.5,-777.5 540.5,-742.5 264.5,-742.5"/>
<polygon fill="none" stroke="#000000" points="264.5,-742.5 264.5,-777.5 540.5,-777.5 540.5,-742.5 264.5,-742.5"/>
<text text-anchor="start" x="275.7088" y="-755.3" font-family="Arial Bold" font-size="18.00" fill="#000000">public.comment</text>
<text text-anchor="start" x="401.7232" y="-755.3" font-family="Arial" font-size="14.00" fill="#000000">    </text>
<text text-anchor="start" x="435.928" y="-755.3" font-family="Arial" font-size="14.00" fill="#666666">[BASE TABLE]</text>
<polygon fill="none" stroke="#000000" points="264.5,-712.5 264.5,-742.5 540.5,-742.5 540.5,-712.5 264.5,-712.5"/>
<text text-anchor="start" x="271.5" y="-723.9" font-family="Arial" font-size="14.00" fill="#000000">id </text>
<text text-anchor="start" x="286.2798" y="-723.9" font-family="Arial" font-size="14.00" fill="#666666">[uuid]</text>
<polygon fill="none" stroke="#000000" points="264.5,-682.5 264.5,-712.5 540.5,-712.5 540.5,-682.5 264.5,-682.5"/>
<text text-anchor="start" x="271.5" y="-693.9" font-family="Arial" font-size="14.00" fill="#000000">content </text>
<text text-anchor="start" x="321.3022" y="-693.9" font-family="Arial" font-size="14.00" fill="#666666">[text]</text>
<polygon fill="none" stroke="#000000" points="264.5,-652.5 264.5,-682.5 540.5,-682.5 540.5,-652.5 264.5,-652.5"/>
<text text-anchor="start" x="271.5" y="-663.9" font-family="Arial" font-size="14.00" fill="#000000">creator_id </text>
<text text-anchor="start" x="337.622" y="-663.9" font-family="Arial" font-size="14.00" fill="#666666">[uuid]</text>
<polygon fill="none" stroke="#000000" points="264.5,-622.5 264.5,-652.5 540.5,-652.5 540.5,-622.5 264.5,-622.5"/>
<text text-anchor="start" x="271.5" y="-633.9" font-family="Arial" font-size="14.00" fill="#000000">post_id </text>
<text text-anchor="start" x="320.5182" y="-633.9" font-family="Arial" font-size="14.00" fill="#666666">[uuid]</text>
<polygon fill="none" stroke="#000000" points="264.5,-592.5 264.5,-622.5 540.5,-622.5 540.5,-592.5 264.5,-592.5"/>
<text text-anchor="start" x="271.5" y="-603.9" font-family="Arial" font-size="14.00" fill="#000000">reply_to </text>
<text text-anchor="start" x="325.1788" y="-603.9" font-family="Arial" font-size="14.00" fill="#666666">[uuid]</text>
<polygon fill="none" stroke="#000000" points="264.5,-562.5 264.5,-592.5 540.5,-592.5 540.5,-562.5 264.5,-562.5"/>
<text text-anchor="start" x="271.5" y="-573.9" font-family="Arial" font-size="14.00" fill="#000000">created_on </text>
<text text-anchor="start" x="345.42" y="-573.9" font-family="Arial" font-size="14.00" fill="#666666">[timestamp without time zone]</text>
<polygon fill="none" stroke="#000000" points="264.5,-532.5 264.5,-562.5 540.5,-562.5 540.5,-532.5 264.5,-532.5"/>
<text text-anchor="start" x="271.0176" y="-543.9" font-family="Arial" font-size="14.00" fill="#000000">updated_on </text>
<text text-anchor="start" x="348.8422" y="-543.9" font-family="Arial" font-size="14.00" fill="#666666">[timestamp without time zone]</text>
<polygon fill="none" stroke="#000000" stroke-width="3" points="263,-531.5 263,-779.5 542,-779.5 542,-531.5 263,-531.5"/>
</g>
<!-- public.comment&#45;&gt;public.comment -->
<g id="edge1" class="edge">
<title>public.comment:reply_to&#45;&gt;public.comment:id</title>
<path fill="none" stroke="#000000" d="M404.2814,-632.6831C411.4546,-751.4552 410.8608,-979 402.5,-979 393.9131,-979 393.519,-848.2188 401.3176,-742.5573"/>
<polygon fill="#000000" stroke="#000000" points="404.2738,-632.5631 408.1252,-622.2958 403.9541,-627.5733 403.6344,-622.5835 403.6344,-622.5835 403.6344,-622.5835 403.9541,-627.5733 399.1436,-622.8713 404.2738,-632.5631 404.2738,-632.5631"/>
<text text-anchor="start" x="410.2459" y="-632.5835" font-family="Arial" font-size="10.00" fill="#000000">FOREIGN KEY (reply_to) REFERENCES comment(id)</text>
</g>
<!-- public.user -->
<g id="node3" class="node">
<title>public.user</title>
<polygon fill="#efefef" stroke="transparent" points="43.5,-327.5 43.5,-362.5 350.5,-362.5 350.5,-327.5 43.5,-327.5"/>
<polygon fill="none" stroke="#000000" points="43.5,-327.5 43.5,-362.5 350.5,-362.5 350.5,-327.5 43.5,-327.5"/>
<text text-anchor="start" x="89.7091" y="-340.3" font-family="Arial Bold" font-size="18.00" fill="#000000">public.user</text>
<text text-anchor="start" x="176.7229" y="-340.3" font-family="Arial" font-size="14.00" fill="#000000">    </text>
<text text-anchor="start" x="210.9277" y="-340.3" font-family="Arial" font-size="14.00" fill="#666666">[BASE TABLE]</text>
<polygon fill="none" stroke="#000000" points="43.5,-297.5 43.5,-327.5 350.5,-327.5 350.5,-297.5 43.5,-297.5"/>
<text text-anchor="start" x="50.5" y="-308.9" font-family="Arial" font-size="14.00" fill="#000000">id    </text>
<text text-anchor="start" x="95.594" y="-308.9" font-family="Arial" font-size="14.00" fill="#666666">[uuid]</text>
<polygon fill="none" stroke="#000000" points="43.5,-267.5 43.5,-297.5 350.5,-297.5 350.5,-267.5 43.5,-267.5"/>
<text text-anchor="start" x="50.5" y="-278.9" font-family="Arial" font-size="14.00" fill="#000000">username    </text>
<text text-anchor="start" x="146.939" y="-278.9" font-family="Arial" font-size="14.00" fill="#666666">[varchar(25)]</text>
<polygon fill="none" stroke="#000000" points="43.5,-237.5 43.5,-267.5 350.5,-267.5 350.5,-237.5 43.5,-237.5"/>
<text text-anchor="start" x="50.5" y="-248.9" font-family="Arial" font-size="14.00" fill="#000000">profile_image    </text>
<text text-anchor="start" x="168.7146" y="-248.9" font-family="Arial" font-size="14.00" fill="#666666">[text]</text>
<polygon fill="none" stroke="#000000" points="43.5,-207.5 43.5,-237.5 350.5,-237.5 350.5,-207.5 43.5,-207.5"/>
<text text-anchor="start" x="50.5" y="-218.9" font-family="Arial" font-size="14.00" fill="#000000">role    </text>
<text text-anchor="start" x="108.0372" y="-218.9" font-family="Arial" font-size="14.00" fill="#666666">[site_role]</text>
<polygon fill="none" stroke="#000000" points="43.5,-177.5 43.5,-207.5 350.5,-207.5 350.5,-177.5 43.5,-177.5"/>
<text text-anchor="start" x="50.5" y="-188.9" font-family="Arial" font-size="14.00" fill="#000000">created_on    </text>
<text text-anchor="start" x="154.7342" y="-188.9" font-family="Arial" font-size="14.00" fill="#666666">[timestamp without time zone]</text>
<polygon fill="none" stroke="#000000" points="43.5,-147.5 43.5,-177.5 350.5,-177.5 350.5,-147.5 43.5,-147.5"/>
<text text-anchor="start" x="50.3605" y="-158.9" font-family="Arial" font-size="14.00" fill="#000000">updated_on    </text>
<text text-anchor="start" x="158.4993" y="-158.9" font-family="Arial" font-size="14.00" fill="#666666">[timestamp without time zone]</text>
<polygon fill="none" stroke="#000000" points="43.5,-117.5 43.5,-147.5 350.5,-147.5 350.5,-117.5 43.5,-117.5"/>
<text text-anchor="start" x="50.5" y="-128.9" font-family="Arial" font-size="14.00" fill="#000000">discord_id    </text>
<text text-anchor="start" x="148.4916" y="-128.9" font-family="Arial" font-size="14.00" fill="#666666">[bigint]</text>
<polygon fill="none" stroke="#000000" points="43.5,-87.5 43.5,-117.5 350.5,-117.5 350.5,-87.5 43.5,-87.5"/>
<text text-anchor="start" x="50.5" y="-98.9" font-family="Arial" font-size="14.00" fill="#000000">github_id    </text>
<text text-anchor="start" x="141.5042" y="-98.9" font-family="Arial" font-size="14.00" fill="#666666">[integer]</text>
</g>
<!-- public.comment&#45;&gt;public.user -->
<g id="edge3" class="edge">
<title>public.comment:creator_id&#45;&gt;public.user:id</title>
<path fill="none" stroke="#000000" d="M254.4544,-666.8658C188.5942,-657.967 234.1233,-557.3395 264.5,-487 285.3171,-438.7964 329.6829,-454.2036 350.5,-406 366.9754,-367.85 392.0556,-312.5 350.5,-312.5"/>
<polygon fill="#000000" stroke="#000000" points="254.5199,-666.8699 264.2164,-671.9911 259.5099,-667.1849 264.5,-667.5 264.5,-667.5 264.5,-667.5 259.5099,-667.1849 264.7836,-663.0089 254.5199,-666.8699 254.5199,-666.8699"/>
<text text-anchor="start" x="20.952" y="-677.5" font-family="Arial" font-size="10.00" fill="#000000">FOREIGN KEY (creator_id) REFERENCES &quot;user&quot;(id)</text>
</g>
<!-- public.post -->
<g id="node4" class="node">
<title>public.post</title>
<polygon fill="#efefef" stroke="transparent" points="454.5,-372.5 454.5,-407.5 761.5,-407.5 761.5,-372.5 454.5,-372.5"/>
<polygon fill="none" stroke="#000000" points="454.5,-372.5 454.5,-407.5 761.5,-407.5 761.5,-372.5 454.5,-372.5"/>
<text text-anchor="start" x="501.2041" y="-385.3" font-family="Arial Bold" font-size="18.00" fill="#000000">public.post</text>
<text text-anchor="start" x="587.2279" y="-385.3" font-family="Arial" font-size="14.00" fill="#000000">    </text>
<text text-anchor="start" x="621.4327" y="-385.3" font-family="Arial" font-size="14.00" fill="#666666">[BASE TABLE]</text>
<polygon fill="none" stroke="#000000" points="454.5,-342.5 454.5,-372.5 761.5,-372.5 761.5,-342.5 454.5,-342.5"/>
<text text-anchor="start" x="461.5" y="-353.9" font-family="Arial" font-size="14.00" fill="#000000">id    </text>
<text text-anchor="start" x="506.594" y="-353.9" font-family="Arial" font-size="14.00" fill="#666666">[uuid]</text>
<polygon fill="none" stroke="#000000" points="454.5,-312.5 454.5,-342.5 761.5,-342.5 761.5,-312.5 454.5,-312.5"/>
<text text-anchor="start" x="461.5" y="-323.9" font-family="Arial" font-size="14.00" fill="#000000">name    </text>
<text text-anchor="start" x="530.7132" y="-323.9" font-family="Arial" font-size="14.00" fill="#666666">[text]</text>
<polygon fill="none" stroke="#000000" points="454.5,-282.5 454.5,-312.5 761.5,-312.5 761.5,-282.5 454.5,-282.5"/>
<text text-anchor="start" x="461.5" y="-293.9" font-family="Arial" font-size="14.00" fill="#000000">description    </text>
<text text-anchor="start" x="563.3822" y="-293.9" font-family="Arial" font-size="14.00" fill="#666666">[text]</text>
<polygon fill="none" stroke="#000000" points="454.5,-252.5 454.5,-282.5 761.5,-282.5 761.5,-252.5 454.5,-252.5"/>
<text text-anchor="start" x="461.5" y="-263.9" font-family="Arial" font-size="14.00" fill="#000000">alt_text    </text>
<text text-anchor="start" x="540.831" y="-263.9" font-family="Arial" font-size="14.00" fill="#666666">[text]</text>
<polygon fill="none" stroke="#000000" points="454.5,-222.5 454.5,-252.5 761.5,-252.5 761.5,-222.5 454.5,-222.5"/>
<text text-anchor="start" x="461.5" y="-233.9" font-family="Arial" font-size="14.00" fill="#000000">created_by    </text>
<text text-anchor="start" x="564.9516" y="-233.9" font-family="Arial" font-size="14.00" fill="#666666">[uuid]</text>
<polygon fill="none" stroke="#000000" points="454.5,-192.5 454.5,-222.5 761.5,-222.5 761.5,-192.5 454.5,-192.5"/>
<text text-anchor="start" x="461.5" y="-203.9" font-family="Arial" font-size="14.00" fill="#000000">channel_id    </text>
<text text-anchor="start" x="563.3962" y="-203.9" font-family="Arial" font-size="14.00" fill="#666666">[uuid]</text>
<polygon fill="none" stroke="#000000" points="454.5,-162.5 454.5,-192.5 761.5,-192.5 761.5,-162.5 454.5,-162.5"/>
<text text-anchor="start" x="461.5" y="-173.9" font-family="Arial" font-size="14.00" fill="#000000">video_id    </text>
<text text-anchor="start" x="547.831" y="-173.9" font-family="Arial" font-size="14.00" fill="#666666">[text]</text>
<polygon fill="none" stroke="#000000" points="454.5,-132.5 454.5,-162.5 761.5,-162.5 761.5,-132.5 454.5,-132.5"/>
<text text-anchor="start" x="461.5" y="-143.9" font-family="Arial" font-size="14.00" fill="#000000">created_on    </text>
<text text-anchor="start" x="565.7342" y="-143.9" font-family="Arial" font-size="14.00" fill="#666666">[timestamp without time zone]</text>
<polygon fill="none" stroke="#000000" points="454.5,-102.5 454.5,-132.5 761.5,-132.5 761.5,-102.5 454.5,-102.5"/>
<text text-anchor="start" x="461.3605" y="-113.9" font-family="Arial" font-size="14.00" fill="#000000">updated_on    </text>
<text text-anchor="start" x="569.4993" y="-113.9" font-family="Arial" font-size="14.00" fill="#666666">[timestamp without time zone]</text>
<polygon fill="none" stroke="#000000" points="454.5,-72.5 454.5,-102.5 761.5,-102.5 761.5,-72.5 454.5,-72.5"/>
<text text-anchor="start" x="461.5" y="-83.9" font-family="Arial" font-size="14.00" fill="#000000">upvotes    </text>
<text text-anchor="start" x="544.7258" y="-83.9" font-family="Arial" font-size="14.00" fill="#666666">[integer]</text>
<polygon fill="none" stroke="#000000" points="454.5,-42.5 454.5,-72.5 761.5,-72.5 761.5,-42.5 454.5,-42.5"/>
<text text-anchor="start" x="461.5" y="-53.9" font-family="Arial" font-size="14.00" fill="#000000">downvotes    </text>
<text text-anchor="start" x="562.615" y="-53.9" font-family="Arial" font-size="14.00" fill="#666666">[integer]</text>
</g>
<!-- public.comment&#45;&gt;public.post -->
<g id="edge4" class="edge">
<title>public.comment:post_id&#45;&gt;public.post:id</title>
<path fill="none" stroke="#000000" d="M550.6208,-636.6712C604.1045,-627.2467 575.5308,-539.6402 540.5,-487 517.5439,-452.5043 477.4561,-485.4957 454.5,-451 431.4777,-416.4047 412.9444,-357.5 454.5,-357.5"/>
<polygon fill="#000000" stroke="#000000" points="550.4666,-636.6837 540.1327,-633.015 545.4833,-637.0919 540.5,-637.5 540.5,-637.5 540.5,-637.5 545.4833,-637.0919 540.8673,-641.985 550.4666,-636.6837 550.4666,-636.6837"/>
<text text-anchor="start" x="547.8845" y="-647.5" font-family="Arial" font-size="10.00" fill="#000000">FOREIGN KEY (post_id) REFERENCES post(id)</text>
</g>
<!-- public.comment_vote -->
<g id="node2" class="node">
<title>public.comment_vote</title>
<polygon fill="#efefef" stroke="transparent" points="246.5,-992.5 246.5,-1027.5 557.5,-1027.5 557.5,-992.5 246.5,-992.5"/>
<polygon fill="none" stroke="#000000" points="246.5,-992.5 246.5,-1027.5 557.5,-1027.5 557.5,-992.5 246.5,-992.5"/>
<text text-anchor="start" x="253.1984" y="-1005.3" font-family="Arial Bold" font-size="18.00" fill="#000000">public.comment_vote</text>
<text text-anchor="start" x="423.2336" y="-1005.3" font-family="Arial" font-size="14.00" fill="#000000">    </text>
<text text-anchor="start" x="457.4384" y="-1005.3" font-family="Arial" font-size="14.00" fill="#666666">[BASE TABLE]</text>
<polygon fill="none" stroke="#000000" points="246.5,-962.5 246.5,-992.5 557.5,-992.5 557.5,-962.5 246.5,-962.5"/>
<text text-anchor="start" x="253.5" y="-973.9" font-family="Arial" font-size="14.00" fill="#000000">comment_id    </text>
<text text-anchor="start" x="363.9362" y="-973.9" font-family="Arial" font-size="14.00" fill="#666666">[uuid]</text>
<polygon fill="none" stroke="#000000" points="246.5,-932.5 246.5,-962.5 557.5,-962.5 557.5,-932.5 246.5,-932.5"/>
<text text-anchor="start" x="253.5" y="-943.9" font-family="Arial" font-size="14.00" fill="#000000">user_id    </text>
<text text-anchor="start" x="333.6024" y="-943.9" font-family="Arial" font-size="14.00" fill="#666666">[uuid]</text>
<polygon fill="none" stroke="#000000" points="246.5,-902.5 246.5,-932.5 557.5,-932.5 557.5,-902.5 246.5,-902.5"/>
<text text-anchor="start" x="253.5" y="-913.9" font-family="Arial" font-size="14.00" fill="#000000">vote    </text>
<text text-anchor="start" x="314.1606" y="-913.9" font-family="Arial" font-size="14.00" fill="#666666">[vote]</text>
</g>
<!-- public.comment_vote&#45;&gt;public.comment -->
<g id="edge2" class="edge">
<title>public.comment_vote:comment_id&#45;&gt;public.comment:id</title>
<path fill="none" stroke="#000000" d="M567.4981,-976.3783C607.1604,-966.6711 589.669,-896.3634 557.5,-860 470.5673,-761.7324 351.4327,-922.2676 264.5,-824 236.0823,-791.877 221.6111,-727.5 264.5,-727.5"/>
<polygon fill="#000000" stroke="#000000" points="567.4377,-976.385 556.9983,-973.0281 562.4688,-976.9425 557.5,-977.5 557.5,-977.5 557.5,-977.5 562.4688,-976.9425 558.0017,-981.9719 567.4377,-976.385 567.4377,-976.385"/>
<text text-anchor="start" x="564.6675" y="-987.5" font-family="Arial" font-size="10.00" fill="#000000">FOREIGN KEY (comment_id) REFERENCES comment(id)</text>
</g>
</g>
</svg>
