<?xml version="1.0" encoding="UTF-8" standalone="no"?>
<!DOCTYPE svg PUBLIC "-//W3C//DTD SVG 1.1//EN"
 "http://www.w3.org/Graphics/SVG/1.1/DTD/svg11.dtd">
<!-- Generated by graphviz version 12.1.2 (20240928.0832)
 -->
<!-- Title: public.follow Pages: 1 -->
<svg width="620pt" height="664pt"
 viewBox="0.00 0.00 620.45 663.60" xmlns="http://www.w3.org/2000/svg" xmlns:xlink="http://www.w3.org/1999/xlink">
<g id="graph0" class="graph" transform="scale(1 1) rotate(0) translate(4 659.6)">
<title>public.follow</title>
<polygon fill="white" stroke="none" points="-4,4 -4,-659.6 616.45,-659.6 616.45,4 -4,4"/>
<!-- public.follow -->
<g id="node1" class="node">
<title>public.follow</title>
<polygon fill="#efefef" stroke="none" points="121.99,-573.8 121.99,-609.4 356.97,-609.4 356.97,-573.8 121.99,-573.8"/>
<polygon fill="none" stroke="black" points="121.99,-573.8 121.99,-609.4 356.97,-609.4 356.97,-573.8 121.99,-573.8"/>
<text text-anchor="start" x="128.99" y="-587.2" font-family="Arial Bold" font-size="18.00">public.follow</text>
<text text-anchor="start" x="225.48" y="-587.2" font-family="Arial" font-size="14.00">    </text>
<text text-anchor="start" x="256.59" y="-587.2" font-family="Arial" font-size="14.00" fill="#666666">[BASE TABLE]</text>
<polygon fill="none" stroke="black" points="121.99,-543 121.99,-573.8 356.97,-573.8 356.97,-543 121.99,-543"/>
<text text-anchor="start" x="128.99" y="-555.2" font-family="Arial" font-size="14.00">follower_id </text>
<text text-anchor="start" x="199.8" y="-555.2" font-family="Arial" font-size="14.00" fill="#666666">[uuid]</text>
<polygon fill="none" stroke="black" points="121.99,-512.2 121.99,-543 356.97,-543 356.97,-512.2 121.99,-512.2"/>
<text text-anchor="start" x="128.99" y="-524.4" font-family="Arial" font-size="14.00">user_id </text>
<text text-anchor="start" x="178.8" y="-524.4" font-family="Arial" font-size="14.00" fill="#666666">[uuid]</text>
<polygon fill="none" stroke="black" stroke-width="3" points="120.49,-510.7 120.49,-610.9 358.47,-610.9 358.47,-510.7 120.49,-510.7"/>
</g>
<!-- public.user -->
<g id="node2" class="node">
<title>public.user</title>
<polygon fill="#efefef" stroke="none" points="100.96,-351.2 100.96,-386.8 378,-386.8 378,-351.2 100.96,-351.2"/>
<polygon fill="none" stroke="black" points="100.96,-351.2 100.96,-386.8 378,-386.8 378,-351.2 100.96,-351.2"/>
<text text-anchor="start" x="137.49" y="-364.6" font-family="Arial Bold" font-size="18.00">public.user</text>
<text text-anchor="start" x="216.97" y="-364.6" font-family="Arial" font-size="14.00">    </text>
<text text-anchor="start" x="248.09" y="-364.6" font-family="Arial" font-size="14.00" fill="#666666">[BASE TABLE]</text>
<polygon fill="none" stroke="black" points="100.96,-320.4 100.96,-351.2 378,-351.2 378,-320.4 100.96,-320.4"/>
<text text-anchor="start" x="107.96" y="-332.6" font-family="Arial" font-size="14.00">id </text>
<text text-anchor="start" x="122.74" y="-332.6" font-family="Arial" font-size="14.00" fill="#666666">[uuid]</text>
<polygon fill="none" stroke="black" points="100.96,-289.6 100.96,-320.4 378,-320.4 378,-289.6 100.96,-289.6"/>
<text text-anchor="start" x="107.96" y="-301.8" font-family="Arial" font-size="14.00">username </text>
<text text-anchor="start" x="174.1" y="-301.8" font-family="Arial" font-size="14.00" fill="#666666">[varchar(25)]</text>
<polygon fill="none" stroke="black" points="100.96,-258.8 100.96,-289.6 378,-289.6 378,-258.8 100.96,-258.8"/>
<text text-anchor="start" x="107.96" y="-271" font-family="Arial" font-size="14.00">profile_image </text>
<text text-anchor="start" x="195.9" y="-271" font-family="Arial" font-size="14.00" fill="#666666">[text]</text>
<polygon fill="none" stroke="black" points="100.96,-228 100.96,-258.8 378,-258.8 378,-228 100.96,-228"/>
<text text-anchor="start" x="107.96" y="-240.2" font-family="Arial" font-size="14.00">role </text>
<text text-anchor="start" x="135.19" y="-240.2" font-family="Arial" font-size="14.00" fill="#666666">[site_role]</text>
<polygon fill="none" stroke="black" points="100.96,-197.2 100.96,-228 378,-228 378,-197.2 100.96,-197.2"/>
<text text-anchor="start" x="107.96" y="-209.4" font-family="Arial" font-size="14.00">created_on </text>
<text text-anchor="start" x="181.9" y="-209.4" font-family="Arial" font-size="14.00" fill="#666666">[timestamp without time zone]</text>
<polygon fill="none" stroke="black" points="100.96,-166.4 100.96,-197.2 378,-197.2 378,-166.4 100.96,-166.4"/>
<text text-anchor="start" x="107.96" y="-178.6" font-family="Arial" font-size="14.00">updated_on </text>
<text text-anchor="start" x="185.81" y="-178.6" font-family="Arial" font-size="14.00" fill="#666666">[timestamp without time zone]</text>
<polygon fill="none" stroke="black" points="100.96,-135.6 100.96,-166.4 378,-166.4 378,-135.6 100.96,-135.6"/>
<text text-anchor="start" x="107.96" y="-147.8" font-family="Arial" font-size="14.00">discord_id </text>
<text text-anchor="start" x="175.66" y="-147.8" font-family="Arial" font-size="14.00" fill="#666666">[bigint]</text>
<polygon fill="none" stroke="black" points="100.96,-104.8 100.96,-135.6 378,-135.6 378,-104.8 100.96,-104.8"/>
<text text-anchor="start" x="107.96" y="-117" font-family="Arial" font-size="14.00">github_id </text>
<text text-anchor="start" x="168.68" y="-117" font-family="Arial" font-size="14.00" fill="#666666">[integer]</text>
<polygon fill="none" stroke="black" points="100.96,-74 100.96,-104.8 378,-104.8 378,-74 100.96,-74"/>
<text text-anchor="start" x="107.96" y="-86.2" font-family="Arial" font-size="14.00">followers </text>
<text text-anchor="start" x="167.09" y="-86.2" font-family="Arial" font-size="14.00" fill="#666666">[integer]</text>
<polygon fill="none" stroke="black" points="100.96,-43.2 100.96,-74 378,-74 378,-43.2 100.96,-43.2"/>
<text text-anchor="start" x="107.96" y="-55.4" font-family="Arial" font-size="14.00">following </text>
<text text-anchor="start" x="166.32" y="-55.4" font-family="Arial" font-size="14.00" fill="#666666">[integer]</text>
</g>
<!-- public.follow&#45;&gt;public.user -->
<g id="edge1" class="edge">
<title>public.follow:follower_id&#45;&gt;public.user:id</title>
<path fill="none" stroke="black" d="M367.74,-555.42C410.2,-529.01 425.29,-335.8 379,-335.8"/>
<polygon fill="black" stroke="black" points="367.85,-555.39 356.97,-554 362.75,-556.94 358.61,-558.21 358.61,-558.21 358.61,-558.21 362.75,-556.94 359.6,-562.61 367.85,-555.39"/>
<text text-anchor="start" x="364.97" y="-568.4" font-family="Arial" font-size="10.00">FOREIGN KEY (follower_id) REFERENCES &quot;user&quot;(id)</text>
</g>
<!-- public.follow&#45;&gt;public.user -->
<g id="edge2" class="edge">
<title>public.follow:user_id&#45;&gt;public.user:id</title>
<path fill="none" stroke="black" d="M240.31,-500.9C250.13,-444.99 344.08,-488.47 378,-430 399.01,-393.78 420.87,-335.8 379,-335.8"/>
<polygon fill="black" stroke="black" points="240.31,-500.9 235.02,-510.5 239.88,-506.22 239.53,-510.53 239.53,-510.53 239.53,-510.53 239.88,-506.22 243.99,-511.23 240.31,-500.9"/>
<text text-anchor="start" x="7" y="-521.2" font-family="Arial" font-size="10.00">FOREIGN KEY (user_id) REFERENCES &quot;user&quot;(id)</text>
</g>
</g>
</svg>
