<?xml version="1.0" encoding="UTF-8" standalone="no"?>
<!DOCTYPE svg PUBLIC "-//W3C//DTD SVG 1.1//EN"
 "http://www.w3.org/Graphics/SVG/1.1/DTD/svg11.dtd">
<!-- Generated by graphviz version 12.1.2 (20240928.0832)
 -->
<!-- Title: public.channel Pages: 1 -->
<svg width="3555pt" height="2023pt"
 viewBox="0.00 0.00 3555.34 2022.80" xmlns="http://www.w3.org/2000/svg" xmlns:xlink="http://www.w3.org/1999/xlink">
<g id="graph0" class="graph" transform="scale(1 1) rotate(0) translate(4 2018.8)">
<title>public.channel</title>
<polygon fill="white" stroke="none" points="-4,4 -4,-2018.8 3551.34,-2018.8 3551.34,4 -4,4"/>
<!-- public.channel -->
<g id="node1" class="node">
<title>public.channel</title>
<polygon fill="#efefef" stroke="none" points="1635.64,-851 1635.64,-886.6 1912.68,-886.6 1912.68,-851 1635.64,-851"/>
<polygon fill="none" stroke="black" points="1635.64,-851 1635.64,-886.6 1912.68,-886.6 1912.68,-851 1635.64,-851"/>
<text text-anchor="start" x="1659.19" y="-864.4" font-family="Arial Bold" font-size="18.00">public.channel</text>
<text text-anchor="start" x="1764.65" y="-864.4" font-family="Arial" font-size="14.00">    </text>
<text text-anchor="start" x="1795.77" y="-864.4" font-family="Arial" font-size="14.00" fill="#666666">[BASE TABLE]</text>
<polygon fill="none" stroke="black" points="1635.64,-820.2 1635.64,-851 1912.68,-851 1912.68,-820.2 1635.64,-820.2"/>
<text text-anchor="start" x="1642.64" y="-832.4" font-family="Arial" font-size="14.00">id </text>
<text text-anchor="start" x="1657.43" y="-832.4" font-family="Arial" font-size="14.00" fill="#666666">[uuid]</text>
<polygon fill="none" stroke="black" points="1635.64,-789.4 1635.64,-820.2 1912.68,-820.2 1912.68,-789.4 1635.64,-789.4"/>
<text text-anchor="start" x="1642.64" y="-801.6" font-family="Arial" font-size="14.00">name </text>
<text text-anchor="start" x="1681.55" y="-801.6" font-family="Arial" font-size="14.00" fill="#666666">[text]</text>
<polygon fill="none" stroke="black" points="1635.64,-758.6 1635.64,-789.4 1912.68,-789.4 1912.68,-758.6 1635.64,-758.6"/>
<text text-anchor="start" x="1642.64" y="-770.8" font-family="Arial" font-size="14.00">description </text>
<text text-anchor="start" x="1714.24" y="-770.8" font-family="Arial" font-size="14.00" fill="#666666">[text]</text>
<polygon fill="none" stroke="black" points="1635.64,-727.8 1635.64,-758.6 1912.68,-758.6 1912.68,-727.8 1635.64,-727.8"/>
<text text-anchor="start" x="1642.64" y="-740" font-family="Arial" font-size="14.00">guidelines </text>
<text text-anchor="start" x="1709.58" y="-740" font-family="Arial" font-size="14.00" fill="#666666">[text]</text>
<polygon fill="none" stroke="black" points="1635.64,-697 1635.64,-727.8 1912.68,-727.8 1912.68,-697 1635.64,-697"/>
<text text-anchor="start" x="1642.64" y="-709.2" font-family="Arial" font-size="14.00">created_by </text>
<text text-anchor="start" x="1715.8" y="-709.2" font-family="Arial" font-size="14.00" fill="#666666">[uuid]</text>
<polygon fill="none" stroke="black" points="1635.64,-666.2 1635.64,-697 1912.68,-697 1912.68,-666.2 1635.64,-666.2"/>
<text text-anchor="start" x="1642.64" y="-678.4" font-family="Arial" font-size="14.00">banner_image </text>
<text text-anchor="start" x="1736.04" y="-678.4" font-family="Arial" font-size="14.00" fill="#666666">[text]</text>
<polygon fill="none" stroke="black" points="1635.64,-635.4 1635.64,-666.2 1912.68,-666.2 1912.68,-635.4 1635.64,-635.4"/>
<text text-anchor="start" x="1642.64" y="-647.6" font-family="Arial" font-size="14.00">icon </text>
<text text-anchor="start" x="1672.22" y="-647.6" font-family="Arial" font-size="14.00" fill="#666666">[text]</text>
<polygon fill="none" stroke="black" points="1635.64,-604.6 1635.64,-635.4 1912.68,-635.4 1912.68,-604.6 1635.64,-604.6"/>
<text text-anchor="start" x="1642.64" y="-616.8" font-family="Arial" font-size="14.00">created_on </text>
<text text-anchor="start" x="1716.59" y="-616.8" font-family="Arial" font-size="14.00" fill="#666666">[timestamp without time zone]</text>
<polygon fill="none" stroke="black" points="1635.64,-573.8 1635.64,-604.6 1912.68,-604.6 1912.68,-573.8 1635.64,-573.8"/>
<text text-anchor="start" x="1642.64" y="-586" font-family="Arial" font-size="14.00">updated_on </text>
<text text-anchor="start" x="1720.5" y="-586" font-family="Arial" font-size="14.00" fill="#666666">[timestamp without time zone]</text>
<polygon fill="none" stroke="black" points="1635.64,-543 1635.64,-573.8 1912.68,-573.8 1912.68,-543 1635.64,-543"/>
<text text-anchor="start" x="1642.64" y="-555.2" font-family="Arial" font-size="14.00">subscribers </text>
<text text-anchor="start" x="1718.11" y="-555.2" font-family="Arial" font-size="14.00" fill="#666666">[integer]</text>
<polygon fill="none" stroke="black" points="1635.64,-512.2 1635.64,-543 1912.68,-543 1912.68,-512.2 1635.64,-512.2"/>
<text text-anchor="start" x="1642.64" y="-524.4" font-family="Arial" font-size="14.00">posts </text>
<text text-anchor="start" x="1679.99" y="-524.4" font-family="Arial" font-size="14.00" fill="#666666">[integer]</text>
<polygon fill="none" stroke="black" stroke-width="3" points="1634.14,-510.7 1634.14,-888.1 1914.18,-888.1 1914.18,-510.7 1634.14,-510.7"/>
</g>
<!-- public.user -->
<g id="node11" class="node">
<title>public.user</title>
<polygon fill="#efefef" stroke="none" points="1635.64,-351.2 1635.64,-386.8 1912.68,-386.8 1912.68,-351.2 1635.64,-351.2"/>
<polygon fill="none" stroke="black" points="1635.64,-351.2 1635.64,-386.8 1912.68,-386.8 1912.68,-351.2 1635.64,-351.2"/>
<text text-anchor="start" x="1672.18" y="-364.6" font-family="Arial Bold" font-size="18.00">public.user</text>
<text text-anchor="start" x="1751.66" y="-364.6" font-family="Arial" font-size="14.00">    </text>
<text text-anchor="start" x="1782.78" y="-364.6" font-family="Arial" font-size="14.00" fill="#666666">[BASE TABLE]</text>
<polygon fill="none" stroke="black" points="1635.64,-320.4 1635.64,-351.2 1912.68,-351.2 1912.68,-320.4 1635.64,-320.4"/>
<text text-anchor="start" x="1642.64" y="-332.6" font-family="Arial" font-size="14.00">id </text>
<text text-anchor="start" x="1657.43" y="-332.6" font-family="Arial" font-size="14.00" fill="#666666">[uuid]</text>
<polygon fill="none" stroke="black" points="1635.64,-289.6 1635.64,-320.4 1912.68,-320.4 1912.68,-289.6 1635.64,-289.6"/>
<text text-anchor="start" x="1642.64" y="-301.8" font-family="Arial" font-size="14.00">username </text>
<text text-anchor="start" x="1708.79" y="-301.8" font-family="Arial" font-size="14.00" fill="#666666">[varchar(25)]</text>
<polygon fill="none" stroke="black" points="1635.64,-258.8 1635.64,-289.6 1912.68,-289.6 1912.68,-258.8 1635.64,-258.8"/>
<text text-anchor="start" x="1642.64" y="-271" font-family="Arial" font-size="14.00">profile_image </text>
<text text-anchor="start" x="1730.58" y="-271" font-family="Arial" font-size="14.00" fill="#666666">[text]</text>
<polygon fill="none" stroke="black" points="1635.64,-228 1635.64,-258.8 1912.68,-258.8 1912.68,-228 1635.64,-228"/>
<text text-anchor="start" x="1642.64" y="-240.2" font-family="Arial" font-size="14.00">role </text>
<text text-anchor="start" x="1669.88" y="-240.2" font-family="Arial" font-size="14.00" fill="#666666">[site_role]</text>
<polygon fill="none" stroke="black" points="1635.64,-197.2 1635.64,-228 1912.68,-228 1912.68,-197.2 1635.64,-197.2"/>
<text text-anchor="start" x="1642.64" y="-209.4" font-family="Arial" font-size="14.00">created_on </text>
<text text-anchor="start" x="1716.59" y="-209.4" font-family="Arial" font-size="14.00" fill="#666666">[timestamp without time zone]</text>
<polygon fill="none" stroke="black" points="1635.64,-166.4 1635.64,-197.2 1912.68,-197.2 1912.68,-166.4 1635.64,-166.4"/>
<text text-anchor="start" x="1642.64" y="-178.6" font-family="Arial" font-size="14.00">updated_on </text>
<text text-anchor="start" x="1720.5" y="-178.6" font-family="Arial" font-size="14.00" fill="#666666">[timestamp without time zone]</text>
<polygon fill="none" stroke="black" points="1635.64,-135.6 1635.64,-166.4 1912.68,-166.4 1912.68,-135.6 1635.64,-135.6"/>
<text text-anchor="start" x="1642.64" y="-147.8" font-family="Arial" font-size="14.00">discord_id </text>
<text text-anchor="start" x="1710.35" y="-147.8" font-family="Arial" font-size="14.00" fill="#666666">[bigint]</text>
<polygon fill="none" stroke="black" points="1635.64,-104.8 1635.64,-135.6 1912.68,-135.6 1912.68,-104.8 1635.64,-104.8"/>
<text text-anchor="start" x="1642.64" y="-117" font-family="Arial" font-size="14.00">github_id </text>
<text text-anchor="start" x="1703.36" y="-117" font-family="Arial" font-size="14.00" fill="#666666">[integer]</text>
<polygon fill="none" stroke="black" points="1635.64,-74 1635.64,-104.8 1912.68,-104.8 1912.68,-74 1635.64,-74"/>
<text text-anchor="start" x="1642.64" y="-86.2" font-family="Arial" font-size="14.00">followers </text>
<text text-anchor="start" x="1701.77" y="-86.2" font-family="Arial" font-size="14.00" fill="#666666">[integer]</text>
<polygon fill="none" stroke="black" points="1635.64,-43.2 1635.64,-74 1912.68,-74 1912.68,-43.2 1635.64,-43.2"/>
<text text-anchor="start" x="1642.64" y="-55.4" font-family="Arial" font-size="14.00">following </text>
<text text-anchor="start" x="1701.01" y="-55.4" font-family="Arial" font-size="14.00" fill="#666666">[integer]</text>
</g>
<!-- public.channel&#45;&gt;public.user -->
<g id="edge10" class="edge">
<title>public.channel:created_by&#45;&gt;public.user:id</title>
<path fill="none" stroke="black" d="M1923.77,-711.93C2080.99,-697.11 2077.63,-335.8 1913.68,-335.8"/>
<polygon fill="black" stroke="black" points="1924.01,-711.92 1913.81,-707.89 1918.68,-712.17 1914.35,-712.37 1914.35,-712.37 1914.35,-712.37 1918.68,-712.17 1914.23,-716.88 1924.01,-711.92"/>
<text text-anchor="start" x="1920.68" y="-722.4" font-family="Arial" font-size="10.00">FOREIGN KEY (created_by) REFERENCES &quot;user&quot;(id)</text>
</g>
<!-- public.channel_user_ban -->
<g id="node2" class="node">
<title>public.channel_user_ban</title>
<polygon fill="#efefef" stroke="none" points="43.2,-1551 43.2,-1586.6 361.13,-1586.6 361.13,-1551 43.2,-1551"/>
<polygon fill="none" stroke="black" points="43.2,-1551 43.2,-1586.6 361.13,-1586.6 361.13,-1551 43.2,-1551"/>
<text text-anchor="start" x="50.2" y="-1564.4" font-family="Arial Bold" font-size="18.00">public.channel_user_ban</text>
<text text-anchor="start" x="229.64" y="-1564.4" font-family="Arial" font-size="14.00">    </text>
<text text-anchor="start" x="260.75" y="-1564.4" font-family="Arial" font-size="14.00" fill="#666666">[BASE TABLE]</text>
<polygon fill="none" stroke="black" points="43.2,-1520.2 43.2,-1551 361.13,-1551 361.13,-1520.2 43.2,-1520.2"/>
<text text-anchor="start" x="50.2" y="-1532.4" font-family="Arial" font-size="14.00">id </text>
<text text-anchor="start" x="64.99" y="-1532.4" font-family="Arial" font-size="14.00" fill="#666666">[uuid]</text>
<polygon fill="none" stroke="black" points="43.2,-1489.4 43.2,-1520.2 361.13,-1520.2 361.13,-1489.4 43.2,-1489.4"/>
<text text-anchor="start" x="50.2" y="-1501.6" font-family="Arial" font-size="14.00">channel_id </text>
<text text-anchor="start" x="121.81" y="-1501.6" font-family="Arial" font-size="14.00" fill="#666666">[uuid]</text>
<polygon fill="none" stroke="black" points="43.2,-1458.6 43.2,-1489.4 361.13,-1489.4 361.13,-1458.6 43.2,-1458.6"/>
<text text-anchor="start" x="50.2" y="-1470.8" font-family="Arial" font-size="14.00">user_id </text>
<text text-anchor="start" x="100.01" y="-1470.8" font-family="Arial" font-size="14.00" fill="#666666">[uuid]</text>
<polygon fill="none" stroke="black" points="43.2,-1427.8 43.2,-1458.6 361.13,-1458.6 361.13,-1427.8 43.2,-1427.8"/>
<text text-anchor="start" x="50.2" y="-1440" font-family="Arial" font-size="14.00">created_on </text>
<text text-anchor="start" x="124.14" y="-1440" font-family="Arial" font-size="14.00" fill="#666666">[timestamp without time zone]</text>
<polygon fill="none" stroke="black" points="43.2,-1397 43.2,-1427.8 361.13,-1427.8 361.13,-1397 43.2,-1397"/>
<text text-anchor="start" x="50.2" y="-1409.2" font-family="Arial" font-size="14.00">pardoned </text>
<text text-anchor="start" x="113.25" y="-1409.2" font-family="Arial" font-size="14.00" fill="#666666">[boolean]</text>
</g>
<!-- public.channel_user_ban&#45;&gt;public.channel -->
<g id="edge1" class="edge">
<title>public.channel_user_ban:channel_id&#45;&gt;public.channel:id</title>
<path fill="none" stroke="black" d="M372.26,-1503.58C472.75,-1477.84 331.68,-1051.4 413.16,-968.8 509.04,-871.6 1498.12,-835.6 1634.64,-835.6"/>
<polygon fill="black" stroke="black" points="372.39,-1503.57 361.92,-1500.29 367.09,-1504.2 362.79,-1504.72 362.79,-1504.72 362.79,-1504.72 367.09,-1504.2 363,-1509.23 372.39,-1503.57"/>
<text text-anchor="start" x="237.36" y="-1488.8" font-family="Arial" font-size="10.00">FOREIGN KEY (channel_id) REFERENCES channel(id)</text>
</g>
<!-- public.invite -->
<g id="node3" class="node">
<title>public.invite</title>
<polygon fill="#efefef" stroke="none" points="465.6,-1535.6 465.6,-1571.2 738.73,-1571.2 738.73,-1535.6 465.6,-1535.6"/>
<polygon fill="none" stroke="black" points="465.6,-1535.6 465.6,-1571.2 738.73,-1571.2 738.73,-1535.6 465.6,-1535.6"/>
<text text-anchor="start" x="494.68" y="-1549" font-family="Arial Bold" font-size="18.00">public.invite</text>
<text text-anchor="start" x="585.16" y="-1549" font-family="Arial" font-size="14.00">    </text>
<text text-anchor="start" x="616.28" y="-1549" font-family="Arial" font-size="14.00" fill="#666666">[BASE TABLE]</text>
<polygon fill="none" stroke="black" points="465.6,-1504.8 465.6,-1535.6 738.73,-1535.6 738.73,-1504.8 465.6,-1504.8"/>
<text text-anchor="start" x="472.6" y="-1517" font-family="Arial" font-size="14.00">channel_id </text>
<text text-anchor="start" x="544.21" y="-1517" font-family="Arial" font-size="14.00" fill="#666666">[uuid]</text>
<polygon fill="none" stroke="black" points="465.6,-1474 465.6,-1504.8 738.73,-1504.8 738.73,-1474 465.6,-1474"/>
<text text-anchor="start" x="472.6" y="-1486.2" font-family="Arial" font-size="14.00">user_id </text>
<text text-anchor="start" x="522.41" y="-1486.2" font-family="Arial" font-size="14.00" fill="#666666">[uuid]</text>
<polygon fill="none" stroke="black" points="465.6,-1443.2 465.6,-1474 738.73,-1474 738.73,-1443.2 465.6,-1443.2"/>
<text text-anchor="start" x="472.6" y="-1455.4" font-family="Arial" font-size="14.00">created_on </text>
<text text-anchor="start" x="546.54" y="-1455.4" font-family="Arial" font-size="14.00" fill="#666666">[timestamp without time zone]</text>
<polygon fill="none" stroke="black" points="465.6,-1412.4 465.6,-1443.2 738.73,-1443.2 738.73,-1412.4 465.6,-1412.4"/>
<text text-anchor="start" x="472.6" y="-1424.6" font-family="Arial" font-size="14.00">role_id </text>
<text text-anchor="start" x="518.52" y="-1424.6" font-family="Arial" font-size="14.00" fill="#666666">[uuid]</text>
</g>
<!-- public.invite&#45;&gt;public.channel -->
<g id="edge2" class="edge">
<title>public.invite:channel_id&#45;&gt;public.channel:id</title>
<path fill="none" stroke="black" d="M749.84,-1519.03C853.8,-1493.47 708.51,-1055.97 790.16,-968.8 855.11,-899.48 1539.65,-835.6 1634.64,-835.6"/>
<polygon fill="black" stroke="black" points="749.99,-1519.01 739.54,-1515.69 744.7,-1519.63 740.39,-1520.12 740.39,-1520.12 740.39,-1520.12 744.7,-1519.63 740.58,-1524.63 749.99,-1519.01"/>
<text text-anchor="start" x="614.96" y="-1504.2" font-family="Arial" font-size="10.00">FOREIGN KEY (channel_id) REFERENCES channel(id)</text>
</g>
<!-- public.post -->
<g id="node4" class="node">
<title>public.post</title>
<polygon fill="#efefef" stroke="none" points="842.64,-1658.8 842.64,-1694.4 1119.68,-1694.4 1119.68,-1658.8 842.64,-1658.8"/>
<polygon fill="none" stroke="black" points="842.64,-1658.8 842.64,-1694.4 1119.68,-1694.4 1119.68,-1658.8 842.64,-1658.8"/>
<text text-anchor="start" x="879.17" y="-1672.2" font-family="Arial Bold" font-size="18.00">public.post</text>
<text text-anchor="start" x="958.67" y="-1672.2" font-family="Arial" font-size="14.00">    </text>
<text text-anchor="start" x="989.78" y="-1672.2" font-family="Arial" font-size="14.00" fill="#666666">[BASE TABLE]</text>
<polygon fill="none" stroke="black" points="842.64,-1628 842.64,-1658.8 1119.68,-1658.8 1119.68,-1628 842.64,-1628"/>
<text text-anchor="start" x="849.64" y="-1640.2" font-family="Arial" font-size="14.00">id </text>
<text text-anchor="start" x="864.43" y="-1640.2" font-family="Arial" font-size="14.00" fill="#666666">[uuid]</text>
<polygon fill="none" stroke="black" points="842.64,-1597.2 842.64,-1628 1119.68,-1628 1119.68,-1597.2 842.64,-1597.2"/>
<text text-anchor="start" x="849.64" y="-1609.4" font-family="Arial" font-size="14.00">name </text>
<text text-anchor="start" x="888.55" y="-1609.4" font-family="Arial" font-size="14.00" fill="#666666">[text]</text>
<polygon fill="none" stroke="black" points="842.64,-1566.4 842.64,-1597.2 1119.68,-1597.2 1119.68,-1566.4 842.64,-1566.4"/>
<text text-anchor="start" x="849.64" y="-1578.6" font-family="Arial" font-size="14.00">description </text>
<text text-anchor="start" x="921.24" y="-1578.6" font-family="Arial" font-size="14.00" fill="#666666">[text]</text>
<polygon fill="none" stroke="black" points="842.64,-1535.6 842.64,-1566.4 1119.68,-1566.4 1119.68,-1535.6 842.64,-1535.6"/>
<text text-anchor="start" x="849.64" y="-1547.8" font-family="Arial" font-size="14.00">alt_text </text>
<text text-anchor="start" x="898.67" y="-1547.8" font-family="Arial" font-size="14.00" fill="#666666">[text]</text>
<polygon fill="none" stroke="black" points="842.64,-1504.8 842.64,-1535.6 1119.68,-1535.6 1119.68,-1504.8 842.64,-1504.8"/>
<text text-anchor="start" x="849.64" y="-1517" font-family="Arial" font-size="14.00">created_by </text>
<text text-anchor="start" x="922.8" y="-1517" font-family="Arial" font-size="14.00" fill="#666666">[uuid]</text>
<polygon fill="none" stroke="black" points="842.64,-1474 842.64,-1504.8 1119.68,-1504.8 1119.68,-1474 842.64,-1474"/>
<text text-anchor="start" x="849.64" y="-1486.2" font-family="Arial" font-size="14.00">channel_id </text>
<text text-anchor="start" x="921.26" y="-1486.2" font-family="Arial" font-size="14.00" fill="#666666">[uuid]</text>
<polygon fill="none" stroke="black" points="842.64,-1443.2 842.64,-1474 1119.68,-1474 1119.68,-1443.2 842.64,-1443.2"/>
<text text-anchor="start" x="849.64" y="-1455.4" font-family="Arial" font-size="14.00">video_id </text>
<text text-anchor="start" x="905.68" y="-1455.4" font-family="Arial" font-size="14.00" fill="#666666">[text]</text>
<polygon fill="none" stroke="black" points="842.64,-1412.4 842.64,-1443.2 1119.68,-1443.2 1119.68,-1412.4 842.64,-1412.4"/>
<text text-anchor="start" x="849.64" y="-1424.6" font-family="Arial" font-size="14.00">created_on </text>
<text text-anchor="start" x="923.59" y="-1424.6" font-family="Arial" font-size="14.00" fill="#666666">[timestamp without time zone]</text>
<polygon fill="none" stroke="black" points="842.64,-1381.6 842.64,-1412.4 1119.68,-1412.4 1119.68,-1381.6 842.64,-1381.6"/>
<text text-anchor="start" x="849.64" y="-1393.8" font-family="Arial" font-size="14.00">updated_on </text>
<text text-anchor="start" x="927.5" y="-1393.8" font-family="Arial" font-size="14.00" fill="#666666">[timestamp without time zone]</text>
<polygon fill="none" stroke="black" points="842.64,-1350.8 842.64,-1381.6 1119.68,-1381.6 1119.68,-1350.8 842.64,-1350.8"/>
<text text-anchor="start" x="849.64" y="-1363" font-family="Arial" font-size="14.00">upvotes </text>
<text text-anchor="start" x="902.57" y="-1363" font-family="Arial" font-size="14.00" fill="#666666">[integer]</text>
<polygon fill="none" stroke="black" points="842.64,-1320 842.64,-1350.8 1119.68,-1350.8 1119.68,-1320 842.64,-1320"/>
<text text-anchor="start" x="849.64" y="-1332.2" font-family="Arial" font-size="14.00">downvotes </text>
<text text-anchor="start" x="920.46" y="-1332.2" font-family="Arial" font-size="14.00" fill="#666666">[integer]</text>
<polygon fill="none" stroke="black" points="842.64,-1289.2 842.64,-1320 1119.68,-1320 1119.68,-1289.2 842.64,-1289.2"/>
<text text-anchor="start" x="849.64" y="-1301.4" font-family="Arial" font-size="14.00">comments </text>
<text text-anchor="start" x="918.11" y="-1301.4" font-family="Arial" font-size="14.00" fill="#666666">[integer]</text>
</g>
<!-- public.post&#45;&gt;public.channel -->
<g id="edge3" class="edge">
<title>public.post:channel_id&#45;&gt;public.channel:id</title>
<path fill="none" stroke="black" d="M1130.85,-1488.16C1228.45,-1462.78 1100.09,-1055.34 1172.16,-968.8 1240.61,-886.62 1527.69,-835.6 1634.64,-835.6"/>
<polygon fill="black" stroke="black" points="1130.94,-1488.15 1120.47,-1484.89 1125.65,-1488.79 1121.35,-1489.32 1121.35,-1489.32 1121.35,-1489.32 1125.65,-1488.79 1121.56,-1493.83 1130.94,-1488.15"/>
<text text-anchor="start" x="995.92" y="-1473.4" font-family="Arial" font-size="10.00">FOREIGN KEY (channel_id) REFERENCES channel(id)</text>
</g>
<!-- public.public_channel -->
<g id="node5" class="node">
<title>public.public_channel</title>
<polygon fill="#efefef" stroke="none" points="1224.14,-1520.2 1224.14,-1555.8 1522.19,-1555.8 1522.19,-1520.2 1224.14,-1520.2"/>
<polygon fill="none" stroke="black" points="1224.14,-1520.2 1224.14,-1555.8 1522.19,-1555.8 1522.19,-1520.2 1224.14,-1520.2"/>
<text text-anchor="start" x="1231.19" y="-1533.6" font-family="Arial Bold" font-size="18.00">public.public_channel</text>
<text text-anchor="start" x="1390.64" y="-1533.6" font-family="Arial" font-size="14.00">    </text>
<text text-anchor="start" x="1421.76" y="-1533.6" font-family="Arial" font-size="14.00" fill="#666666">[BASE TABLE]</text>
<polygon fill="none" stroke="black" points="1224.14,-1489.4 1224.14,-1520.2 1522.19,-1520.2 1522.19,-1489.4 1224.14,-1489.4"/>
<text text-anchor="start" x="1231.14" y="-1501.6" font-family="Arial" font-size="14.00">channel_id </text>
<text text-anchor="start" x="1302.75" y="-1501.6" font-family="Arial" font-size="14.00" fill="#666666">[uuid]</text>
<polygon fill="none" stroke="black" points="1224.14,-1458.6 1224.14,-1489.4 1522.19,-1489.4 1522.19,-1458.6 1224.14,-1458.6"/>
<text text-anchor="start" x="1231.14" y="-1470.8" font-family="Arial" font-size="14.00">name </text>
<text text-anchor="start" x="1270.05" y="-1470.8" font-family="Arial" font-size="14.00" fill="#666666">[varchar(25)]</text>
<polygon fill="none" stroke="black" points="1224.14,-1427.8 1224.14,-1458.6 1522.19,-1458.6 1522.19,-1427.8 1224.14,-1427.8"/>
<text text-anchor="start" x="1231.14" y="-1440" font-family="Arial" font-size="14.00">date_published </text>
<text text-anchor="start" x="1330" y="-1440" font-family="Arial" font-size="14.00" fill="#666666">[timestamp without time zone]</text>
</g>
<!-- public.public_channel&#45;&gt;public.channel -->
<g id="edge4" class="edge">
<title>public.public_channel:channel_id&#45;&gt;public.channel:id</title>
<path fill="none" stroke="black" d="M1532.57,-1500.36C1580.39,-1451.98 1559.63,-1023.33 1574.16,-968.8 1590.91,-905.98 1569.63,-835.6 1634.64,-835.6"/>
<polygon fill="black" stroke="black" points="1532.53,-1500.38 1521.56,-1500.59 1527.71,-1502.66 1523.79,-1504.51 1523.79,-1504.51 1523.79,-1504.51 1527.71,-1502.66 1525.41,-1508.72 1532.53,-1500.38"/>
<text text-anchor="start" x="1530.19" y="-1514.8" font-family="Arial" font-size="10.00">FOREIGN KEY (channel_id) REFERENCES channel(id)</text>
</g>
<!-- public.channel_report -->
<g id="node6" class="node">
<title>public.channel_report</title>
<polygon fill="#efefef" stroke="none" points="1626.2,-1551 1626.2,-1586.6 1922.13,-1586.6 1922.13,-1551 1626.2,-1551"/>
<polygon fill="none" stroke="black" points="1626.2,-1551 1626.2,-1586.6 1922.13,-1586.6 1922.13,-1551 1626.2,-1551"/>
<text text-anchor="start" x="1633.2" y="-1564.4" font-family="Arial Bold" font-size="18.00">public.channel_report</text>
<text text-anchor="start" x="1790.64" y="-1564.4" font-family="Arial" font-size="14.00">    </text>
<text text-anchor="start" x="1821.76" y="-1564.4" font-family="Arial" font-size="14.00" fill="#666666">[BASE TABLE]</text>
<polygon fill="none" stroke="black" points="1626.2,-1520.2 1626.2,-1551 1922.13,-1551 1922.13,-1520.2 1626.2,-1520.2"/>
<text text-anchor="start" x="1633.2" y="-1532.4" font-family="Arial" font-size="14.00">id </text>
<text text-anchor="start" x="1647.99" y="-1532.4" font-family="Arial" font-size="14.00" fill="#666666">[uuid]</text>
<polygon fill="none" stroke="black" points="1626.2,-1489.4 1626.2,-1520.2 1922.13,-1520.2 1922.13,-1489.4 1626.2,-1489.4"/>
<text text-anchor="start" x="1633.2" y="-1501.6" font-family="Arial" font-size="14.00">channel_id </text>
<text text-anchor="start" x="1704.81" y="-1501.6" font-family="Arial" font-size="14.00" fill="#666666">[uuid]</text>
<polygon fill="none" stroke="black" points="1626.2,-1458.6 1626.2,-1489.4 1922.13,-1489.4 1922.13,-1458.6 1626.2,-1458.6"/>
<text text-anchor="start" x="1633.2" y="-1470.8" font-family="Arial" font-size="14.00">description </text>
<text text-anchor="start" x="1704.79" y="-1470.8" font-family="Arial" font-size="14.00" fill="#666666">[text]</text>
<polygon fill="none" stroke="black" points="1626.2,-1427.8 1626.2,-1458.6 1922.13,-1458.6 1922.13,-1427.8 1626.2,-1427.8"/>
<text text-anchor="start" x="1633.2" y="-1440" font-family="Arial" font-size="14.00">resolution </text>
<text text-anchor="start" x="1697.79" y="-1440" font-family="Arial" font-size="14.00" fill="#666666">[text]</text>
<polygon fill="none" stroke="black" points="1626.2,-1397 1626.2,-1427.8 1922.13,-1427.8 1922.13,-1397 1626.2,-1397"/>
<text text-anchor="start" x="1633.2" y="-1409.2" font-family="Arial" font-size="14.00">status </text>
<text text-anchor="start" x="1674.44" y="-1409.2" font-family="Arial" font-size="14.00" fill="#666666">[report_status]</text>
</g>
<!-- public.channel_report&#45;&gt;public.channel -->
<g id="edge5" class="edge">
<title>public.channel_report:channel_id&#45;&gt;public.channel:id</title>
<path fill="none" stroke="black" d="M1929.74,-1496.82C1958.98,-1421.32 1948.47,-835.6 1913.68,-835.6"/>
<polygon fill="black" stroke="black" points="1929.72,-1496.84 1919.88,-1501.67 1926.32,-1500.95 1923.55,-1504.28 1923.55,-1504.28 1923.55,-1504.28 1926.32,-1500.95 1926.81,-1507.41 1929.72,-1496.84"/>
<text text-anchor="start" x="1930.13" y="-1514.8" font-family="Arial" font-size="10.00">FOREIGN KEY (channel_id) REFERENCES channel(id)</text>
</g>
<!-- public.channel_user_reports -->
<g id="node7" class="node">
<title>public.channel_user_reports</title>
<polygon fill="#efefef" stroke="none" points="2026.2,-1566.4 2026.2,-1602 2368.12,-1602 2368.12,-1566.4 2026.2,-1566.4"/>
<polygon fill="none" stroke="black" points="2026.2,-1566.4 2026.2,-1602 2368.12,-1602 2368.12,-1566.4 2026.2,-1566.4"/>
<text text-anchor="start" x="2033.2" y="-1579.8" font-family="Arial Bold" font-size="18.00">public.channel_user_reports</text>
<text text-anchor="start" x="2236.63" y="-1579.8" font-family="Arial" font-size="14.00">    </text>
<text text-anchor="start" x="2267.75" y="-1579.8" font-family="Arial" font-size="14.00" fill="#666666">[BASE TABLE]</text>
<polygon fill="none" stroke="black" points="2026.2,-1535.6 2026.2,-1566.4 2368.12,-1566.4 2368.12,-1535.6 2026.2,-1535.6"/>
<text text-anchor="start" x="2033.2" y="-1547.8" font-family="Arial" font-size="14.00">id </text>
<text text-anchor="start" x="2047.99" y="-1547.8" font-family="Arial" font-size="14.00" fill="#666666">[uuid]</text>
<polygon fill="none" stroke="black" points="2026.2,-1504.8 2026.2,-1535.6 2368.12,-1535.6 2368.12,-1504.8 2026.2,-1504.8"/>
<text text-anchor="start" x="2033.2" y="-1517" font-family="Arial" font-size="14.00">user_id </text>
<text text-anchor="start" x="2083.01" y="-1517" font-family="Arial" font-size="14.00" fill="#666666">[uuid]</text>
<polygon fill="none" stroke="black" points="2026.2,-1474 2026.2,-1504.8 2368.12,-1504.8 2368.12,-1474 2026.2,-1474"/>
<text text-anchor="start" x="2033.2" y="-1486.2" font-family="Arial" font-size="14.00">channel_id </text>
<text text-anchor="start" x="2104.82" y="-1486.2" font-family="Arial" font-size="14.00" fill="#666666">[uuid]</text>
<polygon fill="none" stroke="black" points="2026.2,-1443.2 2026.2,-1474 2368.12,-1474 2368.12,-1443.2 2026.2,-1443.2"/>
<text text-anchor="start" x="2033.2" y="-1455.4" font-family="Arial" font-size="14.00">description </text>
<text text-anchor="start" x="2104.8" y="-1455.4" font-family="Arial" font-size="14.00" fill="#666666">[text]</text>
<polygon fill="none" stroke="black" points="2026.2,-1412.4 2026.2,-1443.2 2368.12,-1443.2 2368.12,-1412.4 2026.2,-1412.4"/>
<text text-anchor="start" x="2033.2" y="-1424.6" font-family="Arial" font-size="14.00">resolution </text>
<text text-anchor="start" x="2097.8" y="-1424.6" font-family="Arial" font-size="14.00" fill="#666666">[text]</text>
<polygon fill="none" stroke="black" points="2026.2,-1381.6 2026.2,-1412.4 2368.12,-1412.4 2368.12,-1381.6 2026.2,-1381.6"/>
<text text-anchor="start" x="2033.2" y="-1393.8" font-family="Arial" font-size="14.00">status </text>
<text text-anchor="start" x="2074.44" y="-1393.8" font-family="Arial" font-size="14.00" fill="#666666">[report_status]</text>
</g>
<!-- public.channel_user_reports&#45;&gt;public.channel -->
<g id="edge6" class="edge">
<title>public.channel_user_reports:channel_id&#45;&gt;public.channel:id</title>
<path fill="none" stroke="black" d="M2016.08,-1485.09C1969.47,-1438.1 1988.36,-1021.76 1974.16,-968.8 1957.32,-906 1978.7,-835.6 1913.68,-835.6"/>
<polygon fill="black" stroke="black" points="2015.86,-1484.98 2022.98,-1493.33 2020.68,-1487.26 2024.6,-1489.11 2024.6,-1489.11 2024.6,-1489.11 2020.68,-1487.26 2026.82,-1485.19 2015.86,-1484.98"/>
<text text-anchor="start" x="2032.2" y="-1473.4" font-family="Arial" font-size="10.00">FOREIGN KEY (channel_id) REFERENCES channel(id)</text>
</g>
<!-- public.role -->
<g id="node8" class="node">
<title>public.role</title>
<polygon fill="#efefef" stroke="none" points="2472.07,-1936 2472.07,-1971.6 2738.26,-1971.6 2738.26,-1936 2472.07,-1936"/>
<polygon fill="none" stroke="black" points="2472.07,-1936 2472.07,-1971.6 2738.26,-1971.6 2738.26,-1936 2472.07,-1936"/>
<text text-anchor="start" x="2504.18" y="-1949.4" font-family="Arial Bold" font-size="18.00">public.role</text>
<text text-anchor="start" x="2581.66" y="-1949.4" font-family="Arial" font-size="14.00">    </text>
<text text-anchor="start" x="2612.77" y="-1949.4" font-family="Arial" font-size="14.00" fill="#666666">[BASE TABLE]</text>
<polygon fill="none" stroke="black" points="2472.07,-1905.2 2472.07,-1936 2738.26,-1936 2738.26,-1905.2 2472.07,-1905.2"/>
<text text-anchor="start" x="2479.07" y="-1917.4" font-family="Arial" font-size="14.00">id </text>
<text text-anchor="start" x="2493.85" y="-1917.4" font-family="Arial" font-size="14.00" fill="#666666">[uuid]</text>
<polygon fill="none" stroke="black" points="2472.07,-1874.4 2472.07,-1905.2 2738.26,-1905.2 2738.26,-1874.4 2472.07,-1874.4"/>
<text text-anchor="start" x="2479.07" y="-1886.6" font-family="Arial" font-size="14.00">channel_id </text>
<text text-anchor="start" x="2550.68" y="-1886.6" font-family="Arial" font-size="14.00" fill="#666666">[uuid]</text>
<polygon fill="none" stroke="black" points="2472.07,-1843.6 2472.07,-1874.4 2738.26,-1874.4 2738.26,-1843.6 2472.07,-1843.6"/>
<text text-anchor="start" x="2479.07" y="-1855.8" font-family="Arial" font-size="14.00">title </text>
<text text-anchor="start" x="2504.74" y="-1855.8" font-family="Arial" font-size="14.00" fill="#666666">[varchar(20)]</text>
<polygon fill="none" stroke="black" points="2472.07,-1812.8 2472.07,-1843.6 2738.26,-1843.6 2738.26,-1812.8 2472.07,-1812.8"/>
<text text-anchor="start" x="2479.07" y="-1825" font-family="Arial" font-size="14.00">isOwner </text>
<text text-anchor="start" x="2534.3" y="-1825" font-family="Arial" font-size="14.00" fill="#666666">[boolean]</text>
<polygon fill="none" stroke="black" points="2472.07,-1782 2472.07,-1812.8 2738.26,-1812.8 2738.26,-1782 2472.07,-1782"/>
<text text-anchor="start" x="2479.07" y="-1794.2" font-family="Arial" font-size="14.00">ranking </text>
<text text-anchor="start" x="2528.87" y="-1794.2" font-family="Arial" font-size="14.00" fill="#666666">[smallint]</text>
<polygon fill="none" stroke="black" points="2472.07,-1751.2 2472.07,-1782 2738.26,-1782 2738.26,-1751.2 2472.07,-1751.2"/>
<text text-anchor="start" x="2479.07" y="-1763.4" font-family="Arial" font-size="14.00">can_create_roles </text>
<text text-anchor="start" x="2590.36" y="-1763.4" font-family="Arial" font-size="14.00" fill="#666666">[boolean]</text>
<polygon fill="none" stroke="black" points="2472.07,-1720.4 2472.07,-1751.2 2738.26,-1751.2 2738.26,-1720.4 2472.07,-1720.4"/>
<text text-anchor="start" x="2479.07" y="-1732.6" font-family="Arial" font-size="14.00">can_view_roles </text>
<text text-anchor="start" x="2579.45" y="-1732.6" font-family="Arial" font-size="14.00" fill="#666666">[boolean]</text>
<polygon fill="none" stroke="black" points="2472.07,-1689.6 2472.07,-1720.4 2738.26,-1720.4 2738.26,-1689.6 2472.07,-1689.6"/>
<text text-anchor="start" x="2479.07" y="-1701.8" font-family="Arial" font-size="14.00">can_edit_roles </text>
<text text-anchor="start" x="2574.02" y="-1701.8" font-family="Arial" font-size="14.00" fill="#666666">[boolean]</text>
<polygon fill="none" stroke="black" points="2472.07,-1658.8 2472.07,-1689.6 2738.26,-1689.6 2738.26,-1658.8 2472.07,-1658.8"/>
<text text-anchor="start" x="2479.07" y="-1671" font-family="Arial" font-size="14.00">can_delete_roles </text>
<text text-anchor="start" x="2589.59" y="-1671" font-family="Arial" font-size="14.00" fill="#666666">[boolean]</text>
<polygon fill="none" stroke="black" points="2472.07,-1628 2472.07,-1658.8 2738.26,-1658.8 2738.26,-1628 2472.07,-1628"/>
<text text-anchor="start" x="2479.07" y="-1640.2" font-family="Arial" font-size="14.00">can_assign_roles </text>
<text text-anchor="start" x="2591.92" y="-1640.2" font-family="Arial" font-size="14.00" fill="#666666">[boolean]</text>
<polygon fill="none" stroke="black" points="2472.07,-1597.2 2472.07,-1628 2738.26,-1628 2738.26,-1597.2 2472.07,-1597.2"/>
<text text-anchor="start" x="2479.07" y="-1609.4" font-family="Arial" font-size="14.00">can_set_message_of_the_day </text>
<text text-anchor="start" x="2673.65" y="-1609.4" font-family="Arial" font-size="14.00" fill="#666666">[boolean]</text>
<polygon fill="none" stroke="black" points="2472.07,-1566.4 2472.07,-1597.2 2738.26,-1597.2 2738.26,-1566.4 2472.07,-1566.4"/>
<text text-anchor="start" x="2479.07" y="-1578.6" font-family="Arial" font-size="14.00">can_edit_name </text>
<text text-anchor="start" x="2578.69" y="-1578.6" font-family="Arial" font-size="14.00" fill="#666666">[boolean]</text>
<polygon fill="none" stroke="black" points="2472.07,-1535.6 2472.07,-1566.4 2738.26,-1566.4 2738.26,-1535.6 2472.07,-1535.6"/>
<text text-anchor="start" x="2479.07" y="-1547.8" font-family="Arial" font-size="14.00">can_set_image </text>
<text text-anchor="start" x="2577.91" y="-1547.8" font-family="Arial" font-size="14.00" fill="#666666">[boolean]</text>
<polygon fill="none" stroke="black" points="2472.07,-1504.8 2472.07,-1535.6 2738.26,-1535.6 2738.26,-1504.8 2472.07,-1504.8"/>
<text text-anchor="start" x="2479.07" y="-1517" font-family="Arial" font-size="14.00">can_view_user_table </text>
<text text-anchor="start" x="2614.49" y="-1517" font-family="Arial" font-size="14.00" fill="#666666">[boolean]</text>
<polygon fill="none" stroke="black" points="2472.07,-1474 2472.07,-1504.8 2738.26,-1504.8 2738.26,-1474 2472.07,-1474"/>
<text text-anchor="start" x="2479.07" y="-1486.2" font-family="Arial" font-size="14.00">can_edit_tags </text>
<text text-anchor="start" x="2570.14" y="-1486.2" font-family="Arial" font-size="14.00" fill="#666666">[boolean]</text>
<polygon fill="none" stroke="black" points="2472.07,-1443.2 2472.07,-1474 2738.26,-1474 2738.26,-1443.2 2472.07,-1443.2"/>
<text text-anchor="start" x="2479.07" y="-1455.4" font-family="Arial" font-size="14.00">can_set_guidelines </text>
<text text-anchor="start" x="2602.83" y="-1455.4" font-family="Arial" font-size="14.00" fill="#666666">[boolean]</text>
<polygon fill="none" stroke="black" points="2472.07,-1412.4 2472.07,-1443.2 2738.26,-1443.2 2738.26,-1412.4 2472.07,-1412.4"/>
<text text-anchor="start" x="2479.07" y="-1424.6" font-family="Arial" font-size="14.00">can_timeout_users </text>
<text text-anchor="start" x="2601.25" y="-1424.6" font-family="Arial" font-size="14.00" fill="#666666">[boolean]</text>
<polygon fill="none" stroke="black" points="2472.07,-1381.6 2472.07,-1412.4 2738.26,-1412.4 2738.26,-1381.6 2472.07,-1381.6"/>
<text text-anchor="start" x="2479.07" y="-1393.8" font-family="Arial" font-size="14.00">can_ban_users </text>
<text text-anchor="start" x="2578.69" y="-1393.8" font-family="Arial" font-size="14.00" fill="#666666">[boolean]</text>
<polygon fill="none" stroke="black" points="2472.07,-1350.8 2472.07,-1381.6 2738.26,-1381.6 2738.26,-1350.8 2472.07,-1350.8"/>
<text text-anchor="start" x="2479.07" y="-1363" font-family="Arial" font-size="14.00">can_view_banned_users </text>
<text text-anchor="start" x="2637.85" y="-1363" font-family="Arial" font-size="14.00" fill="#666666">[boolean]</text>
<polygon fill="none" stroke="black" points="2472.07,-1320 2472.07,-1350.8 2738.26,-1350.8 2738.26,-1320 2472.07,-1320"/>
<text text-anchor="start" x="2479.07" y="-1332.2" font-family="Arial" font-size="14.00">can_unban_users </text>
<text text-anchor="start" x="2594.27" y="-1332.2" font-family="Arial" font-size="14.00" fill="#666666">[boolean]</text>
<polygon fill="none" stroke="black" points="2472.07,-1289.2 2472.07,-1320 2738.26,-1320 2738.26,-1289.2 2472.07,-1289.2"/>
<text text-anchor="start" x="2479.07" y="-1301.4" font-family="Arial" font-size="14.00">can_delete_posts </text>
<text text-anchor="start" x="2592.71" y="-1301.4" font-family="Arial" font-size="14.00" fill="#666666">[boolean]</text>
<polygon fill="none" stroke="black" points="2472.07,-1258.4 2472.07,-1289.2 2738.26,-1289.2 2738.26,-1258.4 2472.07,-1258.4"/>
<text text-anchor="start" x="2479.07" y="-1270.6" font-family="Arial" font-size="14.00">can_delete_comments </text>
<text text-anchor="start" x="2623.82" y="-1270.6" font-family="Arial" font-size="14.00" fill="#666666">[boolean]</text>
<polygon fill="none" stroke="black" points="2472.07,-1227.6 2472.07,-1258.4 2738.26,-1258.4 2738.26,-1227.6 2472.07,-1227.6"/>
<text text-anchor="start" x="2479.07" y="-1239.8" font-family="Arial" font-size="14.00">can_edit_post_tags </text>
<text text-anchor="start" x="2604.38" y="-1239.8" font-family="Arial" font-size="14.00" fill="#666666">[boolean]</text>
<polygon fill="none" stroke="black" points="2472.07,-1196.8 2472.07,-1227.6 2738.26,-1227.6 2738.26,-1196.8 2472.07,-1196.8"/>
<text text-anchor="start" x="2479.07" y="-1209" font-family="Arial" font-size="14.00">can_view_post_reports </text>
<text text-anchor="start" x="2626.93" y="-1209" font-family="Arial" font-size="14.00" fill="#666666">[boolean]</text>
<polygon fill="none" stroke="black" points="2472.07,-1166 2472.07,-1196.8 2738.26,-1196.8 2738.26,-1166 2472.07,-1166"/>
<text text-anchor="start" x="2479.07" y="-1178.2" font-family="Arial" font-size="14.00">can_update_post_reports </text>
<text text-anchor="start" x="2641.74" y="-1178.2" font-family="Arial" font-size="14.00" fill="#666666">[boolean]</text>
<polygon fill="none" stroke="black" points="2472.07,-1135.2 2472.07,-1166 2738.26,-1166 2738.26,-1135.2 2472.07,-1135.2"/>
<text text-anchor="start" x="2479.07" y="-1147.4" font-family="Arial" font-size="14.00">can_resolve_post_reports </text>
<text text-anchor="start" x="2644.05" y="-1147.4" font-family="Arial" font-size="14.00" fill="#666666">[boolean]</text>
<polygon fill="none" stroke="black" points="2472.07,-1104.4 2472.07,-1135.2 2738.26,-1135.2 2738.26,-1104.4 2472.07,-1104.4"/>
<text text-anchor="start" x="2479.07" y="-1116.6" font-family="Arial" font-size="14.00">can_register_events </text>
<text text-anchor="start" x="2609.03" y="-1116.6" font-family="Arial" font-size="14.00" fill="#666666">[boolean]</text>
<polygon fill="none" stroke="black" points="2472.07,-1073.6 2472.07,-1104.4 2738.26,-1104.4 2738.26,-1073.6 2472.07,-1073.6"/>
<text text-anchor="start" x="2479.07" y="-1085.8" font-family="Arial" font-size="14.00">can_view_events </text>
<text text-anchor="start" x="2590.36" y="-1085.8" font-family="Arial" font-size="14.00" fill="#666666">[boolean]</text>
<polygon fill="none" stroke="black" points="2472.07,-1042.8 2472.07,-1073.6 2738.26,-1073.6 2738.26,-1042.8 2472.07,-1042.8"/>
<text text-anchor="start" x="2479.07" y="-1055" font-family="Arial" font-size="14.00">can_edit_events </text>
<text text-anchor="start" x="2584.92" y="-1055" font-family="Arial" font-size="14.00" fill="#666666">[boolean]</text>
<polygon fill="none" stroke="black" points="2472.07,-1012 2472.07,-1042.8 2738.26,-1042.8 2738.26,-1012 2472.07,-1012"/>
<text text-anchor="start" x="2479.07" y="-1024.2" font-family="Arial" font-size="14.00">can_unregister_events </text>
<text text-anchor="start" x="2624.6" y="-1024.2" font-family="Arial" font-size="14.00" fill="#666666">[boolean]</text>
</g>
<!-- public.role&#45;&gt;public.channel -->
<g id="edge7" class="edge">
<title>public.role:channel_id&#45;&gt;public.channel:id</title>
<path fill="none" stroke="black" d="M2461.31,-1886.91C2376.32,-1833.16 2482.75,-1045.49 2420.16,-968.8 2346.59,-878.63 2030.06,-835.6 1913.68,-835.6"/>
<polygon fill="black" stroke="black" points="2461.16,-1886.87 2469.47,-1894.02 2466.27,-1888.38 2470.43,-1889.61 2470.43,-1889.61 2470.43,-1889.61 2466.27,-1888.38 2472.02,-1885.39 2461.16,-1886.87"/>
<text text-anchor="start" x="2214.54" y="-1899.8" font-family="Arial" font-size="10.00">FOREIGN KEY (channel_id) REFERENCES channel(id)</text>
</g>
<!-- public.subscription -->
<g id="node9" class="node">
<title>public.subscription</title>
<polygon fill="#efefef" stroke="none" points="2842.18,-1520.2 2842.18,-1555.8 3118.15,-1555.8 3118.15,-1520.2 2842.18,-1520.2"/>
<polygon fill="none" stroke="black" points="2842.18,-1520.2 2842.18,-1555.8 3118.15,-1555.8 3118.15,-1520.2 2842.18,-1520.2"/>
<text text-anchor="start" x="2849.18" y="-1533.6" font-family="Arial Bold" font-size="18.00">public.subscription</text>
<text text-anchor="start" x="2986.66" y="-1533.6" font-family="Arial" font-size="14.00">    </text>
<text text-anchor="start" x="3017.78" y="-1533.6" font-family="Arial" font-size="14.00" fill="#666666">[BASE TABLE]</text>
<polygon fill="none" stroke="black" points="2842.18,-1489.4 2842.18,-1520.2 3118.15,-1520.2 3118.15,-1489.4 2842.18,-1489.4"/>
<text text-anchor="start" x="2849.18" y="-1501.6" font-family="Arial" font-size="14.00">id </text>
<text text-anchor="start" x="2863.96" y="-1501.6" font-family="Arial" font-size="14.00" fill="#666666">[uuid]</text>
<polygon fill="none" stroke="black" points="2842.18,-1458.6 2842.18,-1489.4 3118.15,-1489.4 3118.15,-1458.6 2842.18,-1458.6"/>
<text text-anchor="start" x="2849.18" y="-1470.8" font-family="Arial" font-size="14.00">channel_id </text>
<text text-anchor="start" x="2920.79" y="-1470.8" font-family="Arial" font-size="14.00" fill="#666666">[uuid]</text>
<polygon fill="none" stroke="black" points="2842.18,-1427.8 2842.18,-1458.6 3118.15,-1458.6 3118.15,-1427.8 2842.18,-1427.8"/>
<text text-anchor="start" x="2849.18" y="-1440" font-family="Arial" font-size="14.00">user_id </text>
<text text-anchor="start" x="2898.98" y="-1440" font-family="Arial" font-size="14.00" fill="#666666">[uuid]</text>
</g>
<!-- public.subscription&#45;&gt;public.channel -->
<g id="edge8" class="edge">
<title>public.subscription:channel_id&#45;&gt;public.channel:id</title>
<path fill="none" stroke="black" d="M2831.04,-1472.71C2737.11,-1447.06 2865.42,-1047.93 2790.16,-968.8 2722.28,-897.42 2012.19,-835.6 1913.68,-835.6"/>
<polygon fill="black" stroke="black" points="2830.92,-1472.69 2840.27,-1478.42 2836.22,-1473.37 2840.51,-1473.92 2840.51,-1473.92 2840.51,-1473.92 2836.22,-1473.37 2841.41,-1469.49 2830.92,-1472.69"/>
<text text-anchor="start" x="2650.53" y="-1458" font-family="Arial" font-size="10.00">FOREIGN KEY (channel_id) REFERENCES channel(id)</text>
</g>
<!-- public.channel_tags -->
<g id="node10" class="node">
<title>public.channel_tags</title>
<polygon fill="#efefef" stroke="none" points="3222.19,-1535.6 3222.19,-1571.2 3504.14,-1571.2 3504.14,-1535.6 3222.19,-1535.6"/>
<polygon fill="none" stroke="black" points="3222.19,-1535.6 3222.19,-1571.2 3504.14,-1571.2 3504.14,-1535.6 3222.19,-1535.6"/>
<text text-anchor="start" x="3229.19" y="-1549" font-family="Arial Bold" font-size="18.00">public.channel_tags</text>
<text text-anchor="start" x="3372.65" y="-1549" font-family="Arial" font-size="14.00">    </text>
<text text-anchor="start" x="3403.76" y="-1549" font-family="Arial" font-size="14.00" fill="#666666">[BASE TABLE]</text>
<polygon fill="none" stroke="black" points="3222.19,-1504.8 3222.19,-1535.6 3504.14,-1535.6 3504.14,-1504.8 3222.19,-1504.8"/>
<text text-anchor="start" x="3229.19" y="-1517" font-family="Arial" font-size="14.00">id </text>
<text text-anchor="start" x="3243.98" y="-1517" font-family="Arial" font-size="14.00" fill="#666666">[uuid]</text>
<polygon fill="none" stroke="black" points="3222.19,-1474 3222.19,-1504.8 3504.14,-1504.8 3504.14,-1474 3222.19,-1474"/>
<text text-anchor="start" x="3229.19" y="-1486.2" font-family="Arial" font-size="14.00">channel_id </text>
<text text-anchor="start" x="3300.8" y="-1486.2" font-family="Arial" font-size="14.00" fill="#666666">[uuid]</text>
<polygon fill="none" stroke="black" points="3222.19,-1443.2 3222.19,-1474 3504.14,-1474 3504.14,-1443.2 3222.19,-1443.2"/>
<text text-anchor="start" x="3229.19" y="-1455.4" font-family="Arial" font-size="14.00">name </text>
<text text-anchor="start" x="3268.1" y="-1455.4" font-family="Arial" font-size="14.00" fill="#666666">[varchar(16)]</text>
<polygon fill="none" stroke="black" points="3222.19,-1412.4 3222.19,-1443.2 3504.14,-1443.2 3504.14,-1412.4 3222.19,-1412.4"/>
<text text-anchor="start" x="3229.19" y="-1424.6" font-family="Arial" font-size="14.00">color </text>
<text text-anchor="start" x="3263.43" y="-1424.6" font-family="Arial" font-size="14.00" fill="#666666">[varchar(16)]</text>
</g>
<!-- public.channel_tags&#45;&gt;public.channel -->
<g id="edge9" class="edge">
<title>public.channel_tags:channel_id&#45;&gt;public.channel:id</title>
<path fill="none" stroke="black" d="M3211.05,-1488.14C3113.92,-1462.37 3249.48,-1048.74 3170.16,-968.8 3071.29,-869.14 2054.07,-835.6 1913.68,-835.6"/>
<polygon fill="black" stroke="black" points="3210.94,-1488.13 3220.3,-1493.82 3216.23,-1488.78 3220.53,-1489.32 3220.53,-1489.32 3220.53,-1489.32 3216.23,-1488.78 3221.41,-1484.89 3210.94,-1488.13"/>
<text text-anchor="start" x="3030.54" y="-1473.4" font-family="Arial" font-size="10.00">FOREIGN KEY (channel_id) REFERENCES channel(id)</text>
</g>
</g>
</svg>
