<?xml version="1.0" encoding="UTF-8" standalone="no"?>
<!DOCTYPE svg PUBLIC "-//W3C//DTD SVG 1.1//EN"
 "http://www.w3.org/Graphics/SVG/1.1/DTD/svg11.dtd">
<!-- Generated by graphviz version 12.1.2 (20240928.0832)
 -->
<!-- Title: public.comment_vote Pages: 1 -->
<svg width="820pt" height="694pt"
 viewBox="0.00 0.00 820.15 694.40" xmlns="http://www.w3.org/2000/svg" xmlns:xlink="http://www.w3.org/1999/xlink">
<g id="graph0" class="graph" transform="scale(1 1) rotate(0) translate(4 690.4)">
<title>public.comment_vote</title>
<polygon fill="white" stroke="none" points="-4,4 -4,-690.4 816.15,-690.4 816.15,4 -4,4"/>
<!-- public.comment_vote -->
<g id="node1" class="node">
<title>public.comment_vote</title>
<polygon fill="#efefef" stroke="none" points="276.72,-604.6 276.72,-640.2 571.67,-640.2 571.67,-604.6 276.72,-604.6"/>
<polygon fill="none" stroke="black" points="276.72,-604.6 276.72,-640.2 571.67,-640.2 571.67,-604.6 276.72,-604.6"/>
<text text-anchor="start" x="283.72" y="-618" font-family="Arial Bold" font-size="18.00">public.comment_vote</text>
<text text-anchor="start" x="440.18" y="-618" font-family="Arial" font-size="14.00">    </text>
<text text-anchor="start" x="471.3" y="-618" font-family="Arial" font-size="14.00" fill="#666666">[BASE TABLE]</text>
<polygon fill="none" stroke="black" points="276.72,-573.8 276.72,-604.6 571.67,-604.6 571.67,-573.8 276.72,-573.8"/>
<text text-anchor="start" x="283.72" y="-586" font-family="Arial" font-size="14.00">comment_id </text>
<text text-anchor="start" x="363.86" y="-586" font-family="Arial" font-size="14.00" fill="#666666">[uuid]</text>
<polygon fill="none" stroke="black" points="276.72,-543 276.72,-573.8 571.67,-573.8 571.67,-543 276.72,-543"/>
<text text-anchor="start" x="283.72" y="-555.2" font-family="Arial" font-size="14.00">user_id </text>
<text text-anchor="start" x="333.53" y="-555.2" font-family="Arial" font-size="14.00" fill="#666666">[uuid]</text>
<polygon fill="none" stroke="black" points="276.72,-512.2 276.72,-543 571.67,-543 571.67,-512.2 276.72,-512.2"/>
<text text-anchor="start" x="283.72" y="-524.4" font-family="Arial" font-size="14.00">vote </text>
<text text-anchor="start" x="314.07" y="-524.4" font-family="Arial" font-size="14.00" fill="#666666">[vote]</text>
<polygon fill="none" stroke="black" stroke-width="3" points="275.22,-510.7 275.22,-641.7 573.17,-641.7 573.17,-510.7 275.22,-510.7"/>
</g>
<!-- public.comment -->
<g id="node2" class="node">
<title>public.comment</title>
<polygon fill="#efefef" stroke="none" points="95.67,-335.8 95.67,-371.4 372.71,-371.4 372.71,-335.8 95.67,-335.8"/>
<polygon fill="none" stroke="black" points="95.67,-335.8 95.67,-371.4 372.71,-371.4 372.71,-335.8 95.67,-335.8"/>
<text text-anchor="start" x="113.71" y="-349.2" font-family="Arial Bold" font-size="18.00">public.comment</text>
<text text-anchor="start" x="230.19" y="-349.2" font-family="Arial" font-size="14.00">    </text>
<text text-anchor="start" x="261.3" y="-349.2" font-family="Arial" font-size="14.00" fill="#666666">[BASE TABLE]</text>
<polygon fill="none" stroke="black" points="95.67,-305 95.67,-335.8 372.71,-335.8 372.71,-305 95.67,-305"/>
<text text-anchor="start" x="102.67" y="-317.2" font-family="Arial" font-size="14.00">id </text>
<text text-anchor="start" x="117.46" y="-317.2" font-family="Arial" font-size="14.00" fill="#666666">[uuid]</text>
<polygon fill="none" stroke="black" points="95.67,-274.2 95.67,-305 372.71,-305 372.71,-274.2 95.67,-274.2"/>
<text text-anchor="start" x="102.67" y="-286.4" font-family="Arial" font-size="14.00">content </text>
<text text-anchor="start" x="152.49" y="-286.4" font-family="Arial" font-size="14.00" fill="#666666">[text]</text>
<polygon fill="none" stroke="black" points="95.67,-243.4 95.67,-274.2 372.71,-274.2 372.71,-243.4 95.67,-243.4"/>
<text text-anchor="start" x="102.67" y="-255.6" font-family="Arial" font-size="14.00">creator_id </text>
<text text-anchor="start" x="168.82" y="-255.6" font-family="Arial" font-size="14.00" fill="#666666">[uuid]</text>
<polygon fill="none" stroke="black" points="95.67,-212.6 95.67,-243.4 372.71,-243.4 372.71,-212.6 95.67,-212.6"/>
<text text-anchor="start" x="102.67" y="-224.8" font-family="Arial" font-size="14.00">post_id </text>
<text text-anchor="start" x="151.71" y="-224.8" font-family="Arial" font-size="14.00" fill="#666666">[uuid]</text>
<polygon fill="none" stroke="black" points="95.67,-181.8 95.67,-212.6 372.71,-212.6 372.71,-181.8 95.67,-181.8"/>
<text text-anchor="start" x="102.67" y="-194" font-family="Arial" font-size="14.00">reply_to </text>
<text text-anchor="start" x="156.37" y="-194" font-family="Arial" font-size="14.00" fill="#666666">[uuid]</text>
<polygon fill="none" stroke="black" points="95.67,-151 95.67,-181.8 372.71,-181.8 372.71,-151 95.67,-151"/>
<text text-anchor="start" x="102.67" y="-163.2" font-family="Arial" font-size="14.00">created_on </text>
<text text-anchor="start" x="176.62" y="-163.2" font-family="Arial" font-size="14.00" fill="#666666">[timestamp without time zone]</text>
<polygon fill="none" stroke="black" points="95.67,-120.2 95.67,-151 372.71,-151 372.71,-120.2 95.67,-120.2"/>
<text text-anchor="start" x="102.67" y="-132.4" font-family="Arial" font-size="14.00">updated_on </text>
<text text-anchor="start" x="180.53" y="-132.4" font-family="Arial" font-size="14.00" fill="#666666">[timestamp without time zone]</text>
<polygon fill="none" stroke="black" points="95.67,-89.4 95.67,-120.2 372.71,-120.2 372.71,-89.4 95.67,-89.4"/>
<text text-anchor="start" x="102.67" y="-101.6" font-family="Arial" font-size="14.00">upvotes </text>
<text text-anchor="start" x="155.6" y="-101.6" font-family="Arial" font-size="14.00" fill="#666666">[integer]</text>
<polygon fill="none" stroke="black" points="95.67,-58.6 95.67,-89.4 372.71,-89.4 372.71,-58.6 95.67,-58.6"/>
<text text-anchor="start" x="102.67" y="-70.8" font-family="Arial" font-size="14.00">downvotes </text>
<text text-anchor="start" x="173.5" y="-70.8" font-family="Arial" font-size="14.00" fill="#666666">[integer]</text>
</g>
<!-- public.comment_vote&#45;&gt;public.comment -->
<g id="edge1" class="edge">
<title>public.comment_vote:comment_id&#45;&gt;public.comment:id</title>
<path fill="none" stroke="black" d="M265.36,-588.1C224.82,-578.61 250.39,-509.57 276.72,-466 301.75,-424.58 347.63,-455.99 372.71,-414.6 394.42,-378.79 415.58,-320.4 373.71,-320.4"/>
<polygon fill="black" stroke="black" points="265.44,-588.11 274.91,-593.64 270.75,-588.67 275.05,-589.13 275.05,-589.13 275.05,-589.13 270.75,-588.67 275.86,-584.69 265.44,-588.11"/>
<text text-anchor="start" x="7" y="-599.2" font-family="Arial" font-size="10.00">FOREIGN KEY (comment_id) REFERENCES comment(id)</text>
</g>
<!-- public.user -->
<g id="node3" class="node">
<title>public.user</title>
<polygon fill="#efefef" stroke="none" points="476.67,-351.2 476.67,-386.8 753.71,-386.8 753.71,-351.2 476.67,-351.2"/>
<polygon fill="none" stroke="black" points="476.67,-351.2 476.67,-386.8 753.71,-386.8 753.71,-351.2 476.67,-351.2"/>
<text text-anchor="start" x="513.21" y="-364.6" font-family="Arial Bold" font-size="18.00">public.user</text>
<text text-anchor="start" x="592.69" y="-364.6" font-family="Arial" font-size="14.00">    </text>
<text text-anchor="start" x="623.81" y="-364.6" font-family="Arial" font-size="14.00" fill="#666666">[BASE TABLE]</text>
<polygon fill="none" stroke="black" points="476.67,-320.4 476.67,-351.2 753.71,-351.2 753.71,-320.4 476.67,-320.4"/>
<text text-anchor="start" x="483.67" y="-332.6" font-family="Arial" font-size="14.00">id </text>
<text text-anchor="start" x="498.46" y="-332.6" font-family="Arial" font-size="14.00" fill="#666666">[uuid]</text>
<polygon fill="none" stroke="black" points="476.67,-289.6 476.67,-320.4 753.71,-320.4 753.71,-289.6 476.67,-289.6"/>
<text text-anchor="start" x="483.67" y="-301.8" font-family="Arial" font-size="14.00">username </text>
<text text-anchor="start" x="549.82" y="-301.8" font-family="Arial" font-size="14.00" fill="#666666">[varchar(25)]</text>
<polygon fill="none" stroke="black" points="476.67,-258.8 476.67,-289.6 753.71,-289.6 753.71,-258.8 476.67,-258.8"/>
<text text-anchor="start" x="483.67" y="-271" font-family="Arial" font-size="14.00">profile_image </text>
<text text-anchor="start" x="571.61" y="-271" font-family="Arial" font-size="14.00" fill="#666666">[text]</text>
<polygon fill="none" stroke="black" points="476.67,-228 476.67,-258.8 753.71,-258.8 753.71,-228 476.67,-228"/>
<text text-anchor="start" x="483.67" y="-240.2" font-family="Arial" font-size="14.00">role </text>
<text text-anchor="start" x="510.91" y="-240.2" font-family="Arial" font-size="14.00" fill="#666666">[site_role]</text>
<polygon fill="none" stroke="black" points="476.67,-197.2 476.67,-228 753.71,-228 753.71,-197.2 476.67,-197.2"/>
<text text-anchor="start" x="483.67" y="-209.4" font-family="Arial" font-size="14.00">created_on </text>
<text text-anchor="start" x="557.62" y="-209.4" font-family="Arial" font-size="14.00" fill="#666666">[timestamp without time zone]</text>
<polygon fill="none" stroke="black" points="476.67,-166.4 476.67,-197.2 753.71,-197.2 753.71,-166.4 476.67,-166.4"/>
<text text-anchor="start" x="483.67" y="-178.6" font-family="Arial" font-size="14.00">updated_on </text>
<text text-anchor="start" x="561.53" y="-178.6" font-family="Arial" font-size="14.00" fill="#666666">[timestamp without time zone]</text>
<polygon fill="none" stroke="black" points="476.67,-135.6 476.67,-166.4 753.71,-166.4 753.71,-135.6 476.67,-135.6"/>
<text text-anchor="start" x="483.67" y="-147.8" font-family="Arial" font-size="14.00">discord_id </text>
<text text-anchor="start" x="551.38" y="-147.8" font-family="Arial" font-size="14.00" fill="#666666">[bigint]</text>
<polygon fill="none" stroke="black" points="476.67,-104.8 476.67,-135.6 753.71,-135.6 753.71,-104.8 476.67,-104.8"/>
<text text-anchor="start" x="483.67" y="-117" font-family="Arial" font-size="14.00">github_id </text>
<text text-anchor="start" x="544.39" y="-117" font-family="Arial" font-size="14.00" fill="#666666">[integer]</text>
<polygon fill="none" stroke="black" points="476.67,-74 476.67,-104.8 753.71,-104.8 753.71,-74 476.67,-74"/>
<text text-anchor="start" x="483.67" y="-86.2" font-family="Arial" font-size="14.00">followers </text>
<text text-anchor="start" x="542.81" y="-86.2" font-family="Arial" font-size="14.00" fill="#666666">[integer]</text>
<polygon fill="none" stroke="black" points="476.67,-43.2 476.67,-74 753.71,-74 753.71,-43.2 476.67,-43.2"/>
<text text-anchor="start" x="483.67" y="-55.4" font-family="Arial" font-size="14.00">following </text>
<text text-anchor="start" x="542.04" y="-55.4" font-family="Arial" font-size="14.00" fill="#666666">[integer]</text>
</g>
<!-- public.comment_vote&#45;&gt;public.user -->
<g id="edge2" class="edge">
<title>public.comment_vote:user_id&#45;&gt;public.user:id</title>
<path fill="none" stroke="black" d="M582.69,-556.92C610.22,-547.61 592.98,-496.51 571.67,-466 545.82,-428.98 502.52,-467.02 476.67,-430 452.7,-395.67 433.81,-335.8 475.67,-335.8"/>
<polygon fill="black" stroke="black" points="582.89,-556.89 572.34,-553.9 577.62,-557.67 573.33,-558.3 573.33,-558.3 573.33,-558.3 577.62,-557.67 573.66,-562.8 582.89,-556.89"/>
<text text-anchor="start" x="579.67" y="-568.4" font-family="Arial" font-size="10.00">FOREIGN KEY (user_id) REFERENCES &quot;user&quot;(id)</text>
</g>
</g>
</svg>
