<?xml version="1.0" encoding="UTF-8" standalone="no"?>
<!DOCTYPE svg PUBLIC "-//W3C//DTD SVG 1.1//EN"
 "http://www.w3.org/Graphics/SVG/1.1/DTD/svg11.dtd">
<!-- Generated by graphviz version 12.1.2 (20240928.0832)
 -->
<!-- Title: public.channel_report Pages: 1 -->
<svg width="824pt" height="818pt"
 viewBox="0.00 0.00 824.50 817.60" xmlns="http://www.w3.org/2000/svg" xmlns:xlink="http://www.w3.org/1999/xlink">
<g id="graph0" class="graph" transform="scale(1 1) rotate(0) translate(4 813.6)">
<title>public.channel_report</title>
<polygon fill="white" stroke="none" points="-4,4 -4,-813.6 820.5,-813.6 820.5,4 -4,4"/>
<!-- public.channel_report -->
<g id="node1" class="node">
<title>public.channel_report</title>
<polygon fill="#efefef" stroke="none" points="264.53,-727.8 264.53,-763.4 560.46,-763.4 560.46,-727.8 264.53,-727.8"/>
<polygon fill="none" stroke="black" points="264.53,-727.8 264.53,-763.4 560.46,-763.4 560.46,-727.8 264.53,-727.8"/>
<text text-anchor="start" x="271.53" y="-741.2" font-family="Arial Bold" font-size="18.00">public.channel_report</text>
<text text-anchor="start" x="428.97" y="-741.2" font-family="Arial" font-size="14.00">    </text>
<text text-anchor="start" x="460.09" y="-741.2" font-family="Arial" font-size="14.00" fill="#666666">[BASE TABLE]</text>
<polygon fill="none" stroke="black" points="264.53,-697 264.53,-727.8 560.46,-727.8 560.46,-697 264.53,-697"/>
<text text-anchor="start" x="271.53" y="-709.2" font-family="Arial" font-size="14.00">id </text>
<text text-anchor="start" x="286.32" y="-709.2" font-family="Arial" font-size="14.00" fill="#666666">[uuid]</text>
<polygon fill="none" stroke="black" points="264.53,-666.2 264.53,-697 560.46,-697 560.46,-666.2 264.53,-666.2"/>
<text text-anchor="start" x="271.53" y="-678.4" font-family="Arial" font-size="14.00">channel_id </text>
<text text-anchor="start" x="343.14" y="-678.4" font-family="Arial" font-size="14.00" fill="#666666">[uuid]</text>
<polygon fill="none" stroke="black" points="264.53,-635.4 264.53,-666.2 560.46,-666.2 560.46,-635.4 264.53,-635.4"/>
<text text-anchor="start" x="271.53" y="-647.6" font-family="Arial" font-size="14.00">reporter_id </text>
<text text-anchor="start" x="343.12" y="-647.6" font-family="Arial" font-size="14.00" fill="#666666">[uuid]</text>
<polygon fill="none" stroke="black" points="264.53,-604.6 264.53,-635.4 560.46,-635.4 560.46,-604.6 264.53,-604.6"/>
<text text-anchor="start" x="271.53" y="-616.8" font-family="Arial" font-size="14.00">description </text>
<text text-anchor="start" x="343.12" y="-616.8" font-family="Arial" font-size="14.00" fill="#666666">[text]</text>
<polygon fill="none" stroke="black" points="264.53,-573.8 264.53,-604.6 560.46,-604.6 560.46,-573.8 264.53,-573.8"/>
<text text-anchor="start" x="271.53" y="-586" font-family="Arial" font-size="14.00">resolution </text>
<text text-anchor="start" x="336.12" y="-586" font-family="Arial" font-size="14.00" fill="#666666">[text]</text>
<polygon fill="none" stroke="black" points="264.53,-543 264.53,-573.8 560.46,-573.8 560.46,-543 264.53,-543"/>
<text text-anchor="start" x="271.53" y="-555.2" font-family="Arial" font-size="14.00">status </text>
<text text-anchor="start" x="312.77" y="-555.2" font-family="Arial" font-size="14.00" fill="#666666">[report_status]</text>
<polygon fill="none" stroke="black" stroke-width="3" points="263.03,-541.5 263.03,-764.9 561.96,-764.9 561.96,-541.5 263.03,-541.5"/>
</g>
<!-- public.channel -->
<g id="node2" class="node">
<title>public.channel</title>
<polygon fill="#efefef" stroke="none" points="83.98,-382 83.98,-417.6 361.02,-417.6 361.02,-382 83.98,-382"/>
<polygon fill="none" stroke="black" points="83.98,-382 83.98,-417.6 361.02,-417.6 361.02,-382 83.98,-382"/>
<text text-anchor="start" x="107.52" y="-395.4" font-family="Arial Bold" font-size="18.00">public.channel</text>
<text text-anchor="start" x="212.98" y="-395.4" font-family="Arial" font-size="14.00">    </text>
<text text-anchor="start" x="244.1" y="-395.4" font-family="Arial" font-size="14.00" fill="#666666">[BASE TABLE]</text>
<polygon fill="none" stroke="black" points="83.98,-351.2 83.98,-382 361.02,-382 361.02,-351.2 83.98,-351.2"/>
<text text-anchor="start" x="90.98" y="-363.4" font-family="Arial" font-size="14.00">id </text>
<text text-anchor="start" x="105.76" y="-363.4" font-family="Arial" font-size="14.00" fill="#666666">[uuid]</text>
<polygon fill="none" stroke="black" points="83.98,-320.4 83.98,-351.2 361.02,-351.2 361.02,-320.4 83.98,-320.4"/>
<text text-anchor="start" x="90.98" y="-332.6" font-family="Arial" font-size="14.00">name </text>
<text text-anchor="start" x="129.89" y="-332.6" font-family="Arial" font-size="14.00" fill="#666666">[text]</text>
<polygon fill="none" stroke="black" points="83.98,-289.6 83.98,-320.4 361.02,-320.4 361.02,-289.6 83.98,-289.6"/>
<text text-anchor="start" x="90.98" y="-301.8" font-family="Arial" font-size="14.00">description </text>
<text text-anchor="start" x="162.57" y="-301.8" font-family="Arial" font-size="14.00" fill="#666666">[text]</text>
<polygon fill="none" stroke="black" points="83.98,-258.8 83.98,-289.6 361.02,-289.6 361.02,-258.8 83.98,-258.8"/>
<text text-anchor="start" x="90.98" y="-271" font-family="Arial" font-size="14.00">guidelines </text>
<text text-anchor="start" x="157.91" y="-271" font-family="Arial" font-size="14.00" fill="#666666">[text]</text>
<polygon fill="none" stroke="black" points="83.98,-228 83.98,-258.8 361.02,-258.8 361.02,-228 83.98,-228"/>
<text text-anchor="start" x="90.98" y="-240.2" font-family="Arial" font-size="14.00">created_by </text>
<text text-anchor="start" x="164.13" y="-240.2" font-family="Arial" font-size="14.00" fill="#666666">[uuid]</text>
<polygon fill="none" stroke="black" points="83.98,-197.2 83.98,-228 361.02,-228 361.02,-197.2 83.98,-197.2"/>
<text text-anchor="start" x="90.98" y="-209.4" font-family="Arial" font-size="14.00">banner_image </text>
<text text-anchor="start" x="184.37" y="-209.4" font-family="Arial" font-size="14.00" fill="#666666">[text]</text>
<polygon fill="none" stroke="black" points="83.98,-166.4 83.98,-197.2 361.02,-197.2 361.02,-166.4 83.98,-166.4"/>
<text text-anchor="start" x="90.98" y="-178.6" font-family="Arial" font-size="14.00">icon </text>
<text text-anchor="start" x="120.55" y="-178.6" font-family="Arial" font-size="14.00" fill="#666666">[text]</text>
<polygon fill="none" stroke="black" points="83.98,-135.6 83.98,-166.4 361.02,-166.4 361.02,-135.6 83.98,-135.6"/>
<text text-anchor="start" x="90.98" y="-147.8" font-family="Arial" font-size="14.00">created_on </text>
<text text-anchor="start" x="164.92" y="-147.8" font-family="Arial" font-size="14.00" fill="#666666">[timestamp without time zone]</text>
<polygon fill="none" stroke="black" points="83.98,-104.8 83.98,-135.6 361.02,-135.6 361.02,-104.8 83.98,-104.8"/>
<text text-anchor="start" x="90.98" y="-117" font-family="Arial" font-size="14.00">updated_on </text>
<text text-anchor="start" x="168.83" y="-117" font-family="Arial" font-size="14.00" fill="#666666">[timestamp without time zone]</text>
<polygon fill="none" stroke="black" points="83.98,-74 83.98,-104.8 361.02,-104.8 361.02,-74 83.98,-74"/>
<text text-anchor="start" x="90.98" y="-86.2" font-family="Arial" font-size="14.00">subscribers </text>
<text text-anchor="start" x="166.44" y="-86.2" font-family="Arial" font-size="14.00" fill="#666666">[integer]</text>
<polygon fill="none" stroke="black" points="83.98,-43.2 83.98,-74 361.02,-74 361.02,-43.2 83.98,-43.2"/>
<text text-anchor="start" x="90.98" y="-55.4" font-family="Arial" font-size="14.00">posts </text>
<text text-anchor="start" x="128.33" y="-55.4" font-family="Arial" font-size="14.00" fill="#666666">[integer]</text>
</g>
<!-- public.channel_report&#45;&gt;public.channel -->
<g id="edge1" class="edge">
<title>public.channel_report:channel_id&#45;&gt;public.channel:id</title>
<path fill="none" stroke="black" d="M253.17,-680.9C184.66,-671.15 219.62,-561.12 264.53,-496.8 290.73,-459.27 334.71,-498.26 361.02,-460.8 385.07,-426.53 403.88,-366.6 362.02,-366.6"/>
<polygon fill="black" stroke="black" points="253.22,-680.91 262.9,-686.07 258.54,-681.26 262.86,-681.56 262.86,-681.56 262.86,-681.56 258.54,-681.26 263.5,-677.09 253.22,-680.91"/>
<text text-anchor="start" x="7" y="-691.6" font-family="Arial" font-size="10.00">FOREIGN KEY (channel_id) REFERENCES channel(id)</text>
</g>
<!-- public.user -->
<g id="node3" class="node">
<title>public.user</title>
<polygon fill="#efefef" stroke="none" points="464.98,-366.6 464.98,-402.2 742.02,-402.2 742.02,-366.6 464.98,-366.6"/>
<polygon fill="none" stroke="black" points="464.98,-366.6 464.98,-402.2 742.02,-402.2 742.02,-366.6 464.98,-366.6"/>
<text text-anchor="start" x="501.51" y="-380" font-family="Arial Bold" font-size="18.00">public.user</text>
<text text-anchor="start" x="580.99" y="-380" font-family="Arial" font-size="14.00">    </text>
<text text-anchor="start" x="612.11" y="-380" font-family="Arial" font-size="14.00" fill="#666666">[BASE TABLE]</text>
<polygon fill="none" stroke="black" points="464.98,-335.8 464.98,-366.6 742.02,-366.6 742.02,-335.8 464.98,-335.8"/>
<text text-anchor="start" x="471.98" y="-348" font-family="Arial" font-size="14.00">id </text>
<text text-anchor="start" x="486.76" y="-348" font-family="Arial" font-size="14.00" fill="#666666">[uuid]</text>
<polygon fill="none" stroke="black" points="464.98,-305 464.98,-335.8 742.02,-335.8 742.02,-305 464.98,-305"/>
<text text-anchor="start" x="471.98" y="-317.2" font-family="Arial" font-size="14.00">username </text>
<text text-anchor="start" x="538.12" y="-317.2" font-family="Arial" font-size="14.00" fill="#666666">[varchar(25)]</text>
<polygon fill="none" stroke="black" points="464.98,-274.2 464.98,-305 742.02,-305 742.02,-274.2 464.98,-274.2"/>
<text text-anchor="start" x="471.98" y="-286.4" font-family="Arial" font-size="14.00">profile_image </text>
<text text-anchor="start" x="559.91" y="-286.4" font-family="Arial" font-size="14.00" fill="#666666">[text]</text>
<polygon fill="none" stroke="black" points="464.98,-243.4 464.98,-274.2 742.02,-274.2 742.02,-243.4 464.98,-243.4"/>
<text text-anchor="start" x="471.98" y="-255.6" font-family="Arial" font-size="14.00">role </text>
<text text-anchor="start" x="499.21" y="-255.6" font-family="Arial" font-size="14.00" fill="#666666">[site_role]</text>
<polygon fill="none" stroke="black" points="464.98,-212.6 464.98,-243.4 742.02,-243.4 742.02,-212.6 464.98,-212.6"/>
<text text-anchor="start" x="471.98" y="-224.8" font-family="Arial" font-size="14.00">created_on </text>
<text text-anchor="start" x="545.92" y="-224.8" font-family="Arial" font-size="14.00" fill="#666666">[timestamp without time zone]</text>
<polygon fill="none" stroke="black" points="464.98,-181.8 464.98,-212.6 742.02,-212.6 742.02,-181.8 464.98,-181.8"/>
<text text-anchor="start" x="471.98" y="-194" font-family="Arial" font-size="14.00">updated_on </text>
<text text-anchor="start" x="549.83" y="-194" font-family="Arial" font-size="14.00" fill="#666666">[timestamp without time zone]</text>
<polygon fill="none" stroke="black" points="464.98,-151 464.98,-181.8 742.02,-181.8 742.02,-151 464.98,-151"/>
<text text-anchor="start" x="471.98" y="-163.2" font-family="Arial" font-size="14.00">discord_id </text>
<text text-anchor="start" x="539.68" y="-163.2" font-family="Arial" font-size="14.00" fill="#666666">[bigint]</text>
<polygon fill="none" stroke="black" points="464.98,-120.2 464.98,-151 742.02,-151 742.02,-120.2 464.98,-120.2"/>
<text text-anchor="start" x="471.98" y="-132.4" font-family="Arial" font-size="14.00">github_id </text>
<text text-anchor="start" x="532.69" y="-132.4" font-family="Arial" font-size="14.00" fill="#666666">[integer]</text>
<polygon fill="none" stroke="black" points="464.98,-89.4 464.98,-120.2 742.02,-120.2 742.02,-89.4 464.98,-89.4"/>
<text text-anchor="start" x="471.98" y="-101.6" font-family="Arial" font-size="14.00">followers </text>
<text text-anchor="start" x="531.11" y="-101.6" font-family="Arial" font-size="14.00" fill="#666666">[integer]</text>
<polygon fill="none" stroke="black" points="464.98,-58.6 464.98,-89.4 742.02,-89.4 742.02,-58.6 464.98,-58.6"/>
<text text-anchor="start" x="471.98" y="-70.8" font-family="Arial" font-size="14.00">following </text>
<text text-anchor="start" x="530.34" y="-70.8" font-family="Arial" font-size="14.00" fill="#666666">[integer]</text>
</g>
<!-- public.channel_report&#45;&gt;public.user -->
<g id="edge2" class="edge">
<title>public.channel_report:reporter_id&#45;&gt;public.user:id</title>
<path fill="none" stroke="black" d="M571.78,-649.97C626.17,-640.48 593.82,-552.24 560.46,-496.8 535.61,-455.51 489.91,-486.64 464.98,-445.4 443.31,-409.57 422.11,-351.2 463.98,-351.2"/>
<polygon fill="black" stroke="black" points="571.76,-649.97 561.43,-646.29 566.44,-650.4 562.13,-650.75 562.13,-650.75 562.13,-650.75 566.44,-650.4 562.15,-655.26 571.76,-649.97"/>
<text text-anchor="start" x="568.46" y="-660.8" font-family="Arial" font-size="10.00">FOREIGN KEY (reporter_id) REFERENCES &quot;user&quot;(id)</text>
</g>
</g>
</svg>
