<?xml version="1.0" encoding="UTF-8" standalone="no"?>
<!DOCTYPE svg PUBLIC "-//W3C//DTD SVG 1.1//EN"
 "http://www.w3.org/Graphics/SVG/1.1/DTD/svg11.dtd">
<!-- Generated by graphviz version 2.40.1 (20161225.0304)
 -->
<!-- Title: public.playlist Pages: 1 -->
<svg width="771pt" height="1019pt"
 viewBox="0.00 0.00 771.00 1019.00" xmlns="http://www.w3.org/2000/svg" xmlns:xlink="http://www.w3.org/1999/xlink">
<g id="graph0" class="graph" transform="scale(1 1) rotate(0) translate(4 1015)">
<title>public.playlist</title>
<polygon fill="#ffffff" stroke="transparent" points="-4,4 -4,-1015 767,-1015 767,4 -4,4"/>
<!-- public.playlist -->
<g id="node1" class="node">
<title>public.playlist</title>
<polygon fill="#efefef" stroke="transparent" points="239,-652.5 239,-687.5 487,-687.5 487,-652.5 239,-652.5"/>
<polygon fill="none" stroke="#000000" points="239,-652.5 239,-687.5 487,-687.5 487,-652.5 239,-652.5"/>
<text text-anchor="start" x="245.7128" y="-665.3" font-family="Arial Bold" font-size="18.00" fill="#000000">public.playlist</text>
<text text-anchor="start" x="352.7192" y="-665.3" font-family="Arial" font-size="14.00" fill="#000000">    </text>
<text text-anchor="start" x="386.924" y="-665.3" font-family="Arial" font-size="14.00" fill="#666666">[BASE TABLE]</text>
<polygon fill="none" stroke="#000000" points="239,-622.5 239,-652.5 487,-652.5 487,-622.5 239,-622.5"/>
<text text-anchor="start" x="246" y="-633.9" font-family="Arial" font-size="14.00" fill="#000000">id </text>
<text text-anchor="start" x="260.7798" y="-633.9" font-family="Arial" font-size="14.00" fill="#666666">[uuid]</text>
<polygon fill="none" stroke="#000000" points="239,-592.5 239,-622.5 487,-622.5 487,-592.5 239,-592.5"/>
<text text-anchor="start" x="246" y="-603.9" font-family="Arial" font-size="14.00" fill="#000000">user_id </text>
<text text-anchor="start" x="295.7882" y="-603.9" font-family="Arial" font-size="14.00" fill="#666666">[uuid]</text>
<polygon fill="none" stroke="#000000" points="239,-562.5 239,-592.5 487,-592.5 487,-562.5 239,-562.5"/>
<text text-anchor="start" x="246" y="-573.9" font-family="Arial" font-size="14.00" fill="#000000">name </text>
<text text-anchor="start" x="284.899" y="-573.9" font-family="Arial" font-size="14.00" fill="#666666">[varchar(32)]</text>
<polygon fill="none" stroke="#000000" points="239,-532.5 239,-562.5 487,-562.5 487,-532.5 239,-532.5"/>
<text text-anchor="start" x="246" y="-543.9" font-family="Arial" font-size="14.00" fill="#000000">description </text>
<text text-anchor="start" x="317.568" y="-543.9" font-family="Arial" font-size="14.00" fill="#666666">[text]</text>
<polygon fill="none" stroke="#000000" points="239,-502.5 239,-532.5 487,-532.5 487,-502.5 239,-502.5"/>
<text text-anchor="start" x="246" y="-513.9" font-family="Arial" font-size="14.00" fill="#000000">public </text>
<text text-anchor="start" x="286.4516" y="-513.9" font-family="Arial" font-size="14.00" fill="#666666">[boolean]</text>
<polygon fill="none" stroke="#000000" stroke-width="3" points="237.5,-501.5 237.5,-689.5 488.5,-689.5 488.5,-501.5 237.5,-501.5"/>
</g>
<!-- public.user -->
<g id="node3" class="node">
<title>public.user</title>
<polygon fill="#efefef" stroke="transparent" points="209,-342.5 209,-377.5 516,-377.5 516,-342.5 209,-342.5"/>
<polygon fill="none" stroke="#000000" points="209,-342.5 209,-377.5 516,-377.5 516,-342.5 209,-342.5"/>
<text text-anchor="start" x="255.2091" y="-355.3" font-family="Arial Bold" font-size="18.00" fill="#000000">public.user</text>
<text text-anchor="start" x="342.2229" y="-355.3" font-family="Arial" font-size="14.00" fill="#000000">    </text>
<text text-anchor="start" x="376.4277" y="-355.3" font-family="Arial" font-size="14.00" fill="#666666">[BASE TABLE]</text>
<polygon fill="none" stroke="#000000" points="209,-312.5 209,-342.5 516,-342.5 516,-312.5 209,-312.5"/>
<text text-anchor="start" x="216" y="-323.9" font-family="Arial" font-size="14.00" fill="#000000">id    </text>
<text text-anchor="start" x="261.094" y="-323.9" font-family="Arial" font-size="14.00" fill="#666666">[uuid]</text>
<polygon fill="none" stroke="#000000" points="209,-282.5 209,-312.5 516,-312.5 516,-282.5 209,-282.5"/>
<text text-anchor="start" x="216" y="-293.9" font-family="Arial" font-size="14.00" fill="#000000">username    </text>
<text text-anchor="start" x="312.439" y="-293.9" font-family="Arial" font-size="14.00" fill="#666666">[varchar(25)]</text>
<polygon fill="none" stroke="#000000" points="209,-252.5 209,-282.5 516,-282.5 516,-252.5 209,-252.5"/>
<text text-anchor="start" x="216" y="-263.9" font-family="Arial" font-size="14.00" fill="#000000">profile_image    </text>
<text text-anchor="start" x="334.2146" y="-263.9" font-family="Arial" font-size="14.00" fill="#666666">[text]</text>
<polygon fill="none" stroke="#000000" points="209,-222.5 209,-252.5 516,-252.5 516,-222.5 209,-222.5"/>
<text text-anchor="start" x="216" y="-233.9" font-family="Arial" font-size="14.00" fill="#000000">role    </text>
<text text-anchor="start" x="273.5372" y="-233.9" font-family="Arial" font-size="14.00" fill="#666666">[site_role]</text>
<polygon fill="none" stroke="#000000" points="209,-192.5 209,-222.5 516,-222.5 516,-192.5 209,-192.5"/>
<text text-anchor="start" x="216" y="-203.9" font-family="Arial" font-size="14.00" fill="#000000">created_on    </text>
<text text-anchor="start" x="320.2342" y="-203.9" font-family="Arial" font-size="14.00" fill="#666666">[timestamp without time zone]</text>
<polygon fill="none" stroke="#000000" points="209,-162.5 209,-192.5 516,-192.5 516,-162.5 209,-162.5"/>
<text text-anchor="start" x="215.8605" y="-173.9" font-family="Arial" font-size="14.00" fill="#000000">updated_on    </text>
<text text-anchor="start" x="323.9993" y="-173.9" font-family="Arial" font-size="14.00" fill="#666666">[timestamp without time zone]</text>
<polygon fill="none" stroke="#000000" points="209,-132.5 209,-162.5 516,-162.5 516,-132.5 209,-132.5"/>
<text text-anchor="start" x="216" y="-143.9" font-family="Arial" font-size="14.00" fill="#000000">discord_id    </text>
<text text-anchor="start" x="313.9916" y="-143.9" font-family="Arial" font-size="14.00" fill="#666666">[bigint]</text>
<polygon fill="none" stroke="#000000" points="209,-102.5 209,-132.5 516,-132.5 516,-102.5 209,-102.5"/>
<text text-anchor="start" x="216" y="-113.9" font-family="Arial" font-size="14.00" fill="#000000">github_id    </text>
<text text-anchor="start" x="307.0042" y="-113.9" font-family="Arial" font-size="14.00" fill="#666666">[integer]</text>
<polygon fill="none" stroke="#000000" points="209,-72.5 209,-102.5 516,-102.5 516,-72.5 209,-72.5"/>
<text text-anchor="start" x="216" y="-83.9" font-family="Arial" font-size="14.00" fill="#000000">followers    </text>
<text text-anchor="start" x="305.4236" y="-83.9" font-family="Arial" font-size="14.00" fill="#666666">[integer]</text>
<polygon fill="none" stroke="#000000" points="209,-42.5 209,-72.5 516,-72.5 516,-42.5 209,-42.5"/>
<text text-anchor="start" x="216" y="-53.9" font-family="Arial" font-size="14.00" fill="#000000">following    </text>
<text text-anchor="start" x="304.6522" y="-53.9" font-family="Arial" font-size="14.00" fill="#666666">[integer]</text>
</g>
<!-- public.playlist&#45;&gt;public.user -->
<g id="edge2" class="edge">
<title>public.playlist:user_id&#45;&gt;public.user:id</title>
<path fill="none" stroke="#000000" d="M228.8191,-606.6251C174.6628,-596.685 197.2695,-504.5049 239,-457 320.9329,-363.7297 434.0671,-514.2703 516,-421 543.4254,-389.7796 557.5556,-327.5 516,-327.5"/>
<polygon fill="#000000" stroke="#000000" points="229.0367,-606.6438 238.6147,-611.9835 234.0184,-607.0719 239,-607.5 239,-607.5 239,-607.5 234.0184,-607.0719 239.3853,-603.0165 229.0367,-606.6438 229.0367,-606.6438"/>
<text text-anchor="start" x="7.2855" y="-617.5" font-family="Arial" font-size="10.00" fill="#000000">FOREIGN KEY (user_id) REFERENCES &quot;user&quot;(id)</text>
</g>
<!-- public.playlist_post -->
<g id="node2" class="node">
<title>public.playlist_post</title>
<polygon fill="#efefef" stroke="transparent" points="217,-932.5 217,-967.5 509,-967.5 509,-932.5 217,-932.5"/>
<polygon fill="none" stroke="#000000" points="217,-932.5 217,-967.5 509,-967.5 509,-932.5 217,-932.5"/>
<text text-anchor="start" x="223.7024" y="-945.3" font-family="Arial Bold" font-size="18.00" fill="#000000">public.playlist_post</text>
<text text-anchor="start" x="374.7296" y="-945.3" font-family="Arial" font-size="14.00" fill="#000000">    </text>
<text text-anchor="start" x="408.9344" y="-945.3" font-family="Arial" font-size="14.00" fill="#666666">[BASE TABLE]</text>
<polygon fill="none" stroke="#000000" points="217,-902.5 217,-932.5 509,-932.5 509,-902.5 217,-902.5"/>
<text text-anchor="start" x="224" y="-913.9" font-family="Arial" font-size="14.00" fill="#000000">id    </text>
<text text-anchor="start" x="269.094" y="-913.9" font-family="Arial" font-size="14.00" fill="#666666">[uuid]</text>
<polygon fill="none" stroke="#000000" points="217,-872.5 217,-902.5 509,-902.5 509,-872.5 217,-872.5"/>
<text text-anchor="start" x="224" y="-883.9" font-family="Arial" font-size="14.00" fill="#000000">playlist_id    </text>
<text text-anchor="start" x="319.6522" y="-883.9" font-family="Arial" font-size="14.00" fill="#666666">[uuid]</text>
<polygon fill="none" stroke="#000000" points="217,-842.5 217,-872.5 509,-872.5 509,-842.5 217,-842.5"/>
<text text-anchor="start" x="224" y="-853.9" font-family="Arial" font-size="14.00" fill="#000000">post_id    </text>
<text text-anchor="start" x="303.3324" y="-853.9" font-family="Arial" font-size="14.00" fill="#666666">[uuid]</text>
<polygon fill="none" stroke="#000000" points="217,-812.5 217,-842.5 509,-842.5 509,-812.5 217,-812.5"/>
<text text-anchor="start" x="224" y="-823.9" font-family="Arial" font-size="14.00" fill="#000000">sort_index    </text>
<text text-anchor="start" x="322.7756" y="-823.9" font-family="Arial" font-size="14.00" fill="#666666">[smallint]</text>
</g>
<!-- public.playlist_post&#45;&gt;public.playlist -->
<g id="edge1" class="edge">
<title>public.playlist_post:playlist_id&#45;&gt;public.playlist:id</title>
<path fill="none" stroke="#000000" d="M519.067,-886.7828C619.0781,-872.1191 595.0549,-637.5 487,-637.5"/>
<polygon fill="#000000" stroke="#000000" points="518.9747,-886.7893 508.6802,-883.0114 513.9874,-887.1447 509,-887.5 509,-887.5 509,-887.5 513.9874,-887.1447 509.3198,-891.9886 518.9747,-886.7893 518.9747,-886.7893"/>
<text text-anchor="start" x="515.7275" y="-897.5" font-family="Arial" font-size="10.00" fill="#000000">FOREIGN KEY (playlist_id) REFERENCES playlist(id)</text>
</g>
</g>
</svg>
