<?xml version="1.0" encoding="UTF-8" standalone="no"?>
<!DOCTYPE svg PUBLIC "-//W3C//DTD SVG 1.1//EN"
 "http://www.w3.org/Graphics/SVG/1.1/DTD/svg11.dtd">
<!-- Generated by graphviz version 12.1.2 (20240928.0832)
 -->
<!-- Title: public.post_vote Pages: 1 -->
<svg width="752pt" height="787pt"
 viewBox="0.00 0.00 752.44 786.80" xmlns="http://www.w3.org/2000/svg" xmlns:xlink="http://www.w3.org/1999/xlink">
<g id="graph0" class="graph" transform="scale(1 1) rotate(0) translate(4 782.8)">
<title>public.post_vote</title>
<polygon fill="white" stroke="none" points="-4,4 -4,-782.8 748.44,-782.8 748.44,4 -4,4"/>
<!-- public.post_vote -->
<g id="node1" class="node">
<title>public.post_vote</title>
<polygon fill="#efefef" stroke="none" points="242.73,-697 242.73,-732.6 500.71,-732.6 500.71,-697 242.73,-697"/>
<polygon fill="none" stroke="black" points="242.73,-697 242.73,-732.6 500.71,-732.6 500.71,-697 242.73,-697"/>
<text text-anchor="start" x="249.73" y="-710.4" font-family="Arial Bold" font-size="18.00">public.post_vote</text>
<text text-anchor="start" x="369.22" y="-710.4" font-family="Arial" font-size="14.00">    </text>
<text text-anchor="start" x="400.34" y="-710.4" font-family="Arial" font-size="14.00" fill="#666666">[BASE TABLE]</text>
<polygon fill="none" stroke="black" points="242.73,-666.2 242.73,-697 500.71,-697 500.71,-666.2 242.73,-666.2"/>
<text text-anchor="start" x="249.73" y="-678.4" font-family="Arial" font-size="14.00">post_id </text>
<text text-anchor="start" x="298.77" y="-678.4" font-family="Arial" font-size="14.00" fill="#666666">[uuid]</text>
<polygon fill="none" stroke="black" points="242.73,-635.4 242.73,-666.2 500.71,-666.2 500.71,-635.4 242.73,-635.4"/>
<text text-anchor="start" x="249.73" y="-647.6" font-family="Arial" font-size="14.00">user_id </text>
<text text-anchor="start" x="299.54" y="-647.6" font-family="Arial" font-size="14.00" fill="#666666">[uuid]</text>
<polygon fill="none" stroke="black" points="242.73,-604.6 242.73,-635.4 500.71,-635.4 500.71,-604.6 242.73,-604.6"/>
<text text-anchor="start" x="249.73" y="-616.8" font-family="Arial" font-size="14.00">vote </text>
<text text-anchor="start" x="280.08" y="-616.8" font-family="Arial" font-size="14.00" fill="#666666">[vote]</text>
<polygon fill="none" stroke="black" stroke-width="3" points="241.23,-603.1 241.23,-734.1 502.21,-734.1 502.21,-603.1 241.23,-603.1"/>
</g>
<!-- public.post -->
<g id="node2" class="node">
<title>public.post</title>
<polygon fill="#efefef" stroke="none" points="43.2,-443.6 43.2,-479.2 320.24,-479.2 320.24,-443.6 43.2,-443.6"/>
<polygon fill="none" stroke="black" points="43.2,-443.6 43.2,-479.2 320.24,-479.2 320.24,-443.6 43.2,-443.6"/>
<text text-anchor="start" x="79.73" y="-457" font-family="Arial Bold" font-size="18.00">public.post</text>
<text text-anchor="start" x="159.22" y="-457" font-family="Arial" font-size="14.00">    </text>
<text text-anchor="start" x="190.34" y="-457" font-family="Arial" font-size="14.00" fill="#666666">[BASE TABLE]</text>
<polygon fill="none" stroke="black" points="43.2,-412.8 43.2,-443.6 320.24,-443.6 320.24,-412.8 43.2,-412.8"/>
<text text-anchor="start" x="50.2" y="-425" font-family="Arial" font-size="14.00">id </text>
<text text-anchor="start" x="64.99" y="-425" font-family="Arial" font-size="14.00" fill="#666666">[uuid]</text>
<polygon fill="none" stroke="black" points="43.2,-382 43.2,-412.8 320.24,-412.8 320.24,-382 43.2,-382"/>
<text text-anchor="start" x="50.2" y="-394.2" font-family="Arial" font-size="14.00">name </text>
<text text-anchor="start" x="89.11" y="-394.2" font-family="Arial" font-size="14.00" fill="#666666">[text]</text>
<polygon fill="none" stroke="black" points="43.2,-351.2 43.2,-382 320.24,-382 320.24,-351.2 43.2,-351.2"/>
<text text-anchor="start" x="50.2" y="-363.4" font-family="Arial" font-size="14.00">description </text>
<text text-anchor="start" x="121.79" y="-363.4" font-family="Arial" font-size="14.00" fill="#666666">[text]</text>
<polygon fill="none" stroke="black" points="43.2,-320.4 43.2,-351.2 320.24,-351.2 320.24,-320.4 43.2,-320.4"/>
<text text-anchor="start" x="50.2" y="-332.6" font-family="Arial" font-size="14.00">alt_text </text>
<text text-anchor="start" x="99.23" y="-332.6" font-family="Arial" font-size="14.00" fill="#666666">[text]</text>
<polygon fill="none" stroke="black" points="43.2,-289.6 43.2,-320.4 320.24,-320.4 320.24,-289.6 43.2,-289.6"/>
<text text-anchor="start" x="50.2" y="-301.8" font-family="Arial" font-size="14.00">created_by </text>
<text text-anchor="start" x="123.36" y="-301.8" font-family="Arial" font-size="14.00" fill="#666666">[uuid]</text>
<polygon fill="none" stroke="black" points="43.2,-258.8 43.2,-289.6 320.24,-289.6 320.24,-258.8 43.2,-258.8"/>
<text text-anchor="start" x="50.2" y="-271" font-family="Arial" font-size="14.00">channel_id </text>
<text text-anchor="start" x="121.81" y="-271" font-family="Arial" font-size="14.00" fill="#666666">[uuid]</text>
<polygon fill="none" stroke="black" points="43.2,-228 43.2,-258.8 320.24,-258.8 320.24,-228 43.2,-228"/>
<text text-anchor="start" x="50.2" y="-240.2" font-family="Arial" font-size="14.00">video_id </text>
<text text-anchor="start" x="106.24" y="-240.2" font-family="Arial" font-size="14.00" fill="#666666">[text]</text>
<polygon fill="none" stroke="black" points="43.2,-197.2 43.2,-228 320.24,-228 320.24,-197.2 43.2,-197.2"/>
<text text-anchor="start" x="50.2" y="-209.4" font-family="Arial" font-size="14.00">created_on </text>
<text text-anchor="start" x="124.14" y="-209.4" font-family="Arial" font-size="14.00" fill="#666666">[timestamp without time zone]</text>
<polygon fill="none" stroke="black" points="43.2,-166.4 43.2,-197.2 320.24,-197.2 320.24,-166.4 43.2,-166.4"/>
<text text-anchor="start" x="50.2" y="-178.6" font-family="Arial" font-size="14.00">updated_on </text>
<text text-anchor="start" x="128.05" y="-178.6" font-family="Arial" font-size="14.00" fill="#666666">[timestamp without time zone]</text>
<polygon fill="none" stroke="black" points="43.2,-135.6 43.2,-166.4 320.24,-166.4 320.24,-135.6 43.2,-135.6"/>
<text text-anchor="start" x="50.2" y="-147.8" font-family="Arial" font-size="14.00">status </text>
<text text-anchor="start" x="91.44" y="-147.8" font-family="Arial" font-size="14.00" fill="#666666">[post_status]</text>
<polygon fill="none" stroke="black" points="43.2,-104.8 43.2,-135.6 320.24,-135.6 320.24,-104.8 43.2,-104.8"/>
<text text-anchor="start" x="50.2" y="-117" font-family="Arial" font-size="14.00">upvotes </text>
<text text-anchor="start" x="103.12" y="-117" font-family="Arial" font-size="14.00" fill="#666666">[integer]</text>
<polygon fill="none" stroke="black" points="43.2,-74 43.2,-104.8 320.24,-104.8 320.24,-74 43.2,-74"/>
<text text-anchor="start" x="50.2" y="-86.2" font-family="Arial" font-size="14.00">downvotes </text>
<text text-anchor="start" x="121.02" y="-86.2" font-family="Arial" font-size="14.00" fill="#666666">[integer]</text>
<polygon fill="none" stroke="black" points="43.2,-43.2 43.2,-74 320.24,-74 320.24,-43.2 43.2,-43.2"/>
<text text-anchor="start" x="50.2" y="-55.4" font-family="Arial" font-size="14.00">comments </text>
<text text-anchor="start" x="118.66" y="-55.4" font-family="Arial" font-size="14.00" fill="#666666">[integer]</text>
</g>
<!-- public.post_vote&#45;&gt;public.post -->
<g id="edge1" class="edge">
<title>public.post_vote:post_id&#45;&gt;public.post:id</title>
<path fill="none" stroke="black" d="M231.35,-680.49C190.66,-670.9 215.17,-601.2 242.73,-558.4 263.29,-526.46 299.64,-554.31 320.24,-522.4 342.95,-487.23 363.11,-428.2 321.24,-428.2"/>
<polygon fill="black" stroke="black" points="231.46,-680.5 240.92,-686.04 236.76,-681.07 241.07,-681.53 241.07,-681.53 241.07,-681.53 236.76,-681.07 241.88,-677.09 231.46,-680.5"/>
<text text-anchor="start" x="17.46" y="-691.6" font-family="Arial" font-size="10.00">FOREIGN KEY (post_id) REFERENCES post(id)</text>
</g>
<!-- public.user -->
<g id="node3" class="node">
<title>public.user</title>
<polygon fill="#efefef" stroke="none" points="424.2,-397.4 424.2,-433 701.24,-433 701.24,-397.4 424.2,-397.4"/>
<polygon fill="none" stroke="black" points="424.2,-397.4 424.2,-433 701.24,-433 701.24,-397.4 424.2,-397.4"/>
<text text-anchor="start" x="460.74" y="-410.8" font-family="Arial Bold" font-size="18.00">public.user</text>
<text text-anchor="start" x="540.22" y="-410.8" font-family="Arial" font-size="14.00">    </text>
<text text-anchor="start" x="571.33" y="-410.8" font-family="Arial" font-size="14.00" fill="#666666">[BASE TABLE]</text>
<polygon fill="none" stroke="black" points="424.2,-366.6 424.2,-397.4 701.24,-397.4 701.24,-366.6 424.2,-366.6"/>
<text text-anchor="start" x="431.2" y="-378.8" font-family="Arial" font-size="14.00">id </text>
<text text-anchor="start" x="445.99" y="-378.8" font-family="Arial" font-size="14.00" fill="#666666">[uuid]</text>
<polygon fill="none" stroke="black" points="424.2,-335.8 424.2,-366.6 701.24,-366.6 701.24,-335.8 424.2,-335.8"/>
<text text-anchor="start" x="431.2" y="-348" font-family="Arial" font-size="14.00">username </text>
<text text-anchor="start" x="497.34" y="-348" font-family="Arial" font-size="14.00" fill="#666666">[varchar(25)]</text>
<polygon fill="none" stroke="black" points="424.2,-305 424.2,-335.8 701.24,-335.8 701.24,-305 424.2,-305"/>
<text text-anchor="start" x="431.2" y="-317.2" font-family="Arial" font-size="14.00">profile_image </text>
<text text-anchor="start" x="519.14" y="-317.2" font-family="Arial" font-size="14.00" fill="#666666">[text]</text>
<polygon fill="none" stroke="black" points="424.2,-274.2 424.2,-305 701.24,-305 701.24,-274.2 424.2,-274.2"/>
<text text-anchor="start" x="431.2" y="-286.4" font-family="Arial" font-size="14.00">role </text>
<text text-anchor="start" x="458.43" y="-286.4" font-family="Arial" font-size="14.00" fill="#666666">[site_role]</text>
<polygon fill="none" stroke="black" points="424.2,-243.4 424.2,-274.2 701.24,-274.2 701.24,-243.4 424.2,-243.4"/>
<text text-anchor="start" x="431.2" y="-255.6" font-family="Arial" font-size="14.00">created_on </text>
<text text-anchor="start" x="505.14" y="-255.6" font-family="Arial" font-size="14.00" fill="#666666">[timestamp without time zone]</text>
<polygon fill="none" stroke="black" points="424.2,-212.6 424.2,-243.4 701.24,-243.4 701.24,-212.6 424.2,-212.6"/>
<text text-anchor="start" x="431.2" y="-224.8" font-family="Arial" font-size="14.00">updated_on </text>
<text text-anchor="start" x="509.05" y="-224.8" font-family="Arial" font-size="14.00" fill="#666666">[timestamp without time zone]</text>
<polygon fill="none" stroke="black" points="424.2,-181.8 424.2,-212.6 701.24,-212.6 701.24,-181.8 424.2,-181.8"/>
<text text-anchor="start" x="431.2" y="-194" font-family="Arial" font-size="14.00">discord_id </text>
<text text-anchor="start" x="498.9" y="-194" font-family="Arial" font-size="14.00" fill="#666666">[bigint]</text>
<polygon fill="none" stroke="black" points="424.2,-151 424.2,-181.8 701.24,-181.8 701.24,-151 424.2,-151"/>
<text text-anchor="start" x="431.2" y="-163.2" font-family="Arial" font-size="14.00">github_id </text>
<text text-anchor="start" x="491.92" y="-163.2" font-family="Arial" font-size="14.00" fill="#666666">[integer]</text>
<polygon fill="none" stroke="black" points="424.2,-120.2 424.2,-151 701.24,-151 701.24,-120.2 424.2,-120.2"/>
<text text-anchor="start" x="431.2" y="-132.4" font-family="Arial" font-size="14.00">followers </text>
<text text-anchor="start" x="490.33" y="-132.4" font-family="Arial" font-size="14.00" fill="#666666">[integer]</text>
<polygon fill="none" stroke="black" points="424.2,-89.4 424.2,-120.2 701.24,-120.2 701.24,-89.4 424.2,-89.4"/>
<text text-anchor="start" x="431.2" y="-101.6" font-family="Arial" font-size="14.00">following </text>
<text text-anchor="start" x="489.57" y="-101.6" font-family="Arial" font-size="14.00" fill="#666666">[integer]</text>
</g>
<!-- public.post_vote&#45;&gt;public.user -->
<g id="edge2" class="edge">
<title>public.post_vote:user_id&#45;&gt;public.user:id</title>
<path fill="none" stroke="black" d="M511.87,-649.31C537.65,-640.36 514.46,-592.81 500.71,-558.4 482.19,-512.05 442.72,-522.55 424.2,-476.2 408.67,-437.32 381.33,-382 423.2,-382"/>
<polygon fill="black" stroke="black" points="511.93,-649.3 501.39,-646.3 506.66,-650.08 502.37,-650.7 502.37,-650.7 502.37,-650.7 506.66,-650.08 502.69,-655.2 511.93,-649.3"/>
<text text-anchor="start" x="508.71" y="-660.8" font-family="Arial" font-size="10.00">FOREIGN KEY (user_id) REFERENCES &quot;user&quot;(id)</text>
</g>
</g>
</svg>
