<?xml version="1.0" encoding="UTF-8" standalone="no"?>
<!DOCTYPE svg PUBLIC "-//W3C//DTD SVG 1.1//EN"
 "http://www.w3.org/Graphics/SVG/1.1/DTD/svg11.dtd">
<!-- Generated by graphviz version 2.40.1 (20161225.0304)
 -->
<!-- Title: public.playlist Pages: 1 -->
<svg width="771pt" height="899pt"
 viewBox="0.00 0.00 771.00 899.00" xmlns="http://www.w3.org/2000/svg" xmlns:xlink="http://www.w3.org/1999/xlink">
<g id="graph0" class="graph" transform="scale(1 1) rotate(0) translate(4 895)">
<title>public.playlist</title>
<polygon fill="#ffffff" stroke="transparent" points="-4,4 -4,-895 767,-895 767,4 -4,4"/>
<!-- public.playlist -->
<g id="node1" class="node">
<title>public.playlist</title>
<polygon fill="#efefef" stroke="transparent" points="239,-532.5 239,-567.5 487,-567.5 487,-532.5 239,-532.5"/>
<polygon fill="none" stroke="#000000" points="239,-532.5 239,-567.5 487,-567.5 487,-532.5 239,-532.5"/>
<text text-anchor="start" x="245.7128" y="-545.3" font-family="Arial Bold" font-size="18.00" fill="#000000">public.playlist</text>
<text text-anchor="start" x="352.7192" y="-545.3" font-family="Arial" font-size="14.00" fill="#000000">    </text>
<text text-anchor="start" x="386.924" y="-545.3" font-family="Arial" font-size="14.00" fill="#666666">[BASE TABLE]</text>
<polygon fill="none" stroke="#000000" points="239,-502.5 239,-532.5 487,-532.5 487,-502.5 239,-502.5"/>
<text text-anchor="start" x="246" y="-513.9" font-family="Arial" font-size="14.00" fill="#000000">id </text>
<text text-anchor="start" x="260.7798" y="-513.9" font-family="Arial" font-size="14.00" fill="#666666">[uuid]</text>
<polygon fill="none" stroke="#000000" points="239,-472.5 239,-502.5 487,-502.5 487,-472.5 239,-472.5"/>
<text text-anchor="start" x="246" y="-483.9" font-family="Arial" font-size="14.00" fill="#000000">user_id </text>
<text text-anchor="start" x="295.7882" y="-483.9" font-family="Arial" font-size="14.00" fill="#666666">[uuid]</text>
<polygon fill="none" stroke="#000000" points="239,-442.5 239,-472.5 487,-472.5 487,-442.5 239,-442.5"/>
<text text-anchor="start" x="246" y="-453.9" font-family="Arial" font-size="14.00" fill="#000000">name </text>
<text text-anchor="start" x="284.899" y="-453.9" font-family="Arial" font-size="14.00" fill="#666666">[varchar(32)]</text>
<polygon fill="none" stroke="#000000" points="239,-412.5 239,-442.5 487,-442.5 487,-412.5 239,-412.5"/>
<text text-anchor="start" x="246" y="-423.9" font-family="Arial" font-size="14.00" fill="#000000">description </text>
<text text-anchor="start" x="317.568" y="-423.9" font-family="Arial" font-size="14.00" fill="#666666">[text]</text>
<polygon fill="none" stroke="#000000" points="239,-382.5 239,-412.5 487,-412.5 487,-382.5 239,-382.5"/>
<text text-anchor="start" x="246" y="-393.9" font-family="Arial" font-size="14.00" fill="#000000">public </text>
<text text-anchor="start" x="286.4516" y="-393.9" font-family="Arial" font-size="14.00" fill="#666666">[boolean]</text>
<polygon fill="none" stroke="#000000" stroke-width="3" points="237.5,-381.5 237.5,-569.5 488.5,-569.5 488.5,-381.5 237.5,-381.5"/>
</g>
<!-- public.user -->
<g id="node3" class="node">
<title>public.user</title>
<polygon fill="#efefef" stroke="transparent" points="209,-222.5 209,-257.5 516,-257.5 516,-222.5 209,-222.5"/>
<polygon fill="none" stroke="#000000" points="209,-222.5 209,-257.5 516,-257.5 516,-222.5 209,-222.5"/>
<text text-anchor="start" x="255.2091" y="-235.3" font-family="Arial Bold" font-size="18.00" fill="#000000">public.user</text>
<text text-anchor="start" x="342.2229" y="-235.3" font-family="Arial" font-size="14.00" fill="#000000">    </text>
<text text-anchor="start" x="376.4277" y="-235.3" font-family="Arial" font-size="14.00" fill="#666666">[BASE TABLE]</text>
<polygon fill="none" stroke="#000000" points="209,-192.5 209,-222.5 516,-222.5 516,-192.5 209,-192.5"/>
<text text-anchor="start" x="216" y="-203.9" font-family="Arial" font-size="14.00" fill="#000000">id    </text>
<text text-anchor="start" x="261.094" y="-203.9" font-family="Arial" font-size="14.00" fill="#666666">[uuid]</text>
<polygon fill="none" stroke="#000000" points="209,-162.5 209,-192.5 516,-192.5 516,-162.5 209,-162.5"/>
<text text-anchor="start" x="216" y="-173.9" font-family="Arial" font-size="14.00" fill="#000000">username    </text>
<text text-anchor="start" x="312.439" y="-173.9" font-family="Arial" font-size="14.00" fill="#666666">[varchar(25)]</text>
<polygon fill="none" stroke="#000000" points="209,-132.5 209,-162.5 516,-162.5 516,-132.5 209,-132.5"/>
<text text-anchor="start" x="216" y="-143.9" font-family="Arial" font-size="14.00" fill="#000000">profile_image    </text>
<text text-anchor="start" x="334.2146" y="-143.9" font-family="Arial" font-size="14.00" fill="#666666">[text]</text>
<polygon fill="none" stroke="#000000" points="209,-102.5 209,-132.5 516,-132.5 516,-102.5 209,-102.5"/>
<text text-anchor="start" x="216" y="-113.9" font-family="Arial" font-size="14.00" fill="#000000">role    </text>
<text text-anchor="start" x="273.5372" y="-113.9" font-family="Arial" font-size="14.00" fill="#666666">[site_role]</text>
<polygon fill="none" stroke="#000000" points="209,-72.5 209,-102.5 516,-102.5 516,-72.5 209,-72.5"/>
<text text-anchor="start" x="216" y="-83.9" font-family="Arial" font-size="14.00" fill="#000000">created_on    </text>
<text text-anchor="start" x="320.2342" y="-83.9" font-family="Arial" font-size="14.00" fill="#666666">[timestamp without time zone]</text>
<polygon fill="none" stroke="#000000" points="209,-42.5 209,-72.5 516,-72.5 516,-42.5 209,-42.5"/>
<text text-anchor="start" x="215.8605" y="-53.9" font-family="Arial" font-size="14.00" fill="#000000">updated_on    </text>
<text text-anchor="start" x="323.9993" y="-53.9" font-family="Arial" font-size="14.00" fill="#666666">[timestamp without time zone]</text>
</g>
<!-- public.playlist&#45;&gt;public.user -->
<g id="edge2" class="edge">
<title>public.playlist:user_id&#45;&gt;public.user:id</title>
<path fill="none" stroke="#000000" d="M228.8191,-486.6251C174.6628,-476.685 197.2695,-384.5049 239,-337 320.9329,-243.7297 434.0671,-394.2703 516,-301 543.4254,-269.7796 557.5556,-207.5 516,-207.5"/>
<polygon fill="#000000" stroke="#000000" points="229.0367,-486.6438 238.6147,-491.9835 234.0184,-487.0719 239,-487.5 239,-487.5 239,-487.5 234.0184,-487.0719 239.3853,-483.0165 229.0367,-486.6438 229.0367,-486.6438"/>
<text text-anchor="start" x="7.2855" y="-497.5" font-family="Arial" font-size="10.00" fill="#000000">FOREIGN KEY (user_id) REFERENCES &quot;user&quot;(id)</text>
</g>
<!-- public.playlist_post -->
<g id="node2" class="node">
<title>public.playlist_post</title>
<polygon fill="#efefef" stroke="transparent" points="217,-812.5 217,-847.5 509,-847.5 509,-812.5 217,-812.5"/>
<polygon fill="none" stroke="#000000" points="217,-812.5 217,-847.5 509,-847.5 509,-812.5 217,-812.5"/>
<text text-anchor="start" x="223.7024" y="-825.3" font-family="Arial Bold" font-size="18.00" fill="#000000">public.playlist_post</text>
<text text-anchor="start" x="374.7296" y="-825.3" font-family="Arial" font-size="14.00" fill="#000000">    </text>
<text text-anchor="start" x="408.9344" y="-825.3" font-family="Arial" font-size="14.00" fill="#666666">[BASE TABLE]</text>
<polygon fill="none" stroke="#000000" points="217,-782.5 217,-812.5 509,-812.5 509,-782.5 217,-782.5"/>
<text text-anchor="start" x="224" y="-793.9" font-family="Arial" font-size="14.00" fill="#000000">id    </text>
<text text-anchor="start" x="269.094" y="-793.9" font-family="Arial" font-size="14.00" fill="#666666">[uuid]</text>
<polygon fill="none" stroke="#000000" points="217,-752.5 217,-782.5 509,-782.5 509,-752.5 217,-752.5"/>
<text text-anchor="start" x="224" y="-763.9" font-family="Arial" font-size="14.00" fill="#000000">playlist_id    </text>
<text text-anchor="start" x="319.6522" y="-763.9" font-family="Arial" font-size="14.00" fill="#666666">[uuid]</text>
<polygon fill="none" stroke="#000000" points="217,-722.5 217,-752.5 509,-752.5 509,-722.5 217,-722.5"/>
<text text-anchor="start" x="224" y="-733.9" font-family="Arial" font-size="14.00" fill="#000000">post_id    </text>
<text text-anchor="start" x="303.3324" y="-733.9" font-family="Arial" font-size="14.00" fill="#666666">[uuid]</text>
<polygon fill="none" stroke="#000000" points="217,-692.5 217,-722.5 509,-722.5 509,-692.5 217,-692.5"/>
<text text-anchor="start" x="224" y="-703.9" font-family="Arial" font-size="14.00" fill="#000000">sort_index    </text>
<text text-anchor="start" x="322.7756" y="-703.9" font-family="Arial" font-size="14.00" fill="#666666">[smallint]</text>
</g>
<!-- public.playlist_post&#45;&gt;public.playlist -->
<g id="edge1" class="edge">
<title>public.playlist_post:playlist_id&#45;&gt;public.playlist:id</title>
<path fill="none" stroke="#000000" d="M519.067,-766.7828C619.0781,-752.1191 595.0549,-517.5 487,-517.5"/>
<polygon fill="#000000" stroke="#000000" points="518.9747,-766.7893 508.6802,-763.0114 513.9874,-767.1447 509,-767.5 509,-767.5 509,-767.5 513.9874,-767.1447 509.3198,-771.9886 518.9747,-766.7893 518.9747,-766.7893"/>
<text text-anchor="start" x="515.7275" y="-777.5" font-family="Arial" font-size="10.00" fill="#000000">FOREIGN KEY (playlist_id) REFERENCES playlist(id)</text>
</g>
</g>
</svg>
