<?xml version="1.0" encoding="UTF-8" standalone="no"?>
<!DOCTYPE svg PUBLIC "-//W3C//DTD SVG 1.1//EN"
 "http://www.w3.org/Graphics/SVG/1.1/DTD/svg11.dtd">
<!-- Generated by graphviz version 12.1.2 (20240928.0832)
 -->
<!-- Title: public.subscription Pages: 1 -->
<svg width="789pt" height="725pt"
 viewBox="0.00 0.00 788.99 725.20" xmlns="http://www.w3.org/2000/svg" xmlns:xlink="http://www.w3.org/1999/xlink">
<g id="graph0" class="graph" transform="scale(1 1) rotate(0) translate(4 721.2)">
<title>public.subscription</title>
<polygon fill="white" stroke="none" points="-4,4 -4,-721.2 784.99,-721.2 784.99,4 -4,4"/>
<!-- public.subscription -->
<g id="node1" class="node">
<title>public.subscription</title>
<polygon fill="#efefef" stroke="none" points="264.53,-635.4 264.53,-671 540.51,-671 540.51,-635.4 264.53,-635.4"/>
<polygon fill="none" stroke="black" points="264.53,-635.4 264.53,-671 540.51,-671 540.51,-635.4 264.53,-635.4"/>
<text text-anchor="start" x="271.53" y="-648.8" font-family="Arial Bold" font-size="18.00">public.subscription</text>
<text text-anchor="start" x="409.02" y="-648.8" font-family="Arial" font-size="14.00">    </text>
<text text-anchor="start" x="440.14" y="-648.8" font-family="Arial" font-size="14.00" fill="#666666">[BASE TABLE]</text>
<polygon fill="none" stroke="black" points="264.53,-604.6 264.53,-635.4 540.51,-635.4 540.51,-604.6 264.53,-604.6"/>
<text text-anchor="start" x="271.53" y="-616.8" font-family="Arial" font-size="14.00">id </text>
<text text-anchor="start" x="286.32" y="-616.8" font-family="Arial" font-size="14.00" fill="#666666">[uuid]</text>
<polygon fill="none" stroke="black" points="264.53,-573.8 264.53,-604.6 540.51,-604.6 540.51,-573.8 264.53,-573.8"/>
<text text-anchor="start" x="271.53" y="-586" font-family="Arial" font-size="14.00">channel_id </text>
<text text-anchor="start" x="343.14" y="-586" font-family="Arial" font-size="14.00" fill="#666666">[uuid]</text>
<polygon fill="none" stroke="black" points="264.53,-543 264.53,-573.8 540.51,-573.8 540.51,-543 264.53,-543"/>
<text text-anchor="start" x="271.53" y="-555.2" font-family="Arial" font-size="14.00">user_id </text>
<text text-anchor="start" x="321.34" y="-555.2" font-family="Arial" font-size="14.00" fill="#666666">[uuid]</text>
<polygon fill="none" stroke="black" stroke-width="3" points="263.03,-541.5 263.03,-672.5 542.01,-672.5 542.01,-541.5 263.03,-541.5"/>
</g>
<!-- public.channel -->
<g id="node2" class="node">
<title>public.channel</title>
<polygon fill="#efefef" stroke="none" points="74,-382 74,-417.6 351.04,-417.6 351.04,-382 74,-382"/>
<polygon fill="none" stroke="black" points="74,-382 74,-417.6 351.04,-417.6 351.04,-382 74,-382"/>
<text text-anchor="start" x="97.54" y="-395.4" font-family="Arial Bold" font-size="18.00">public.channel</text>
<text text-anchor="start" x="203" y="-395.4" font-family="Arial" font-size="14.00">    </text>
<text text-anchor="start" x="234.12" y="-395.4" font-family="Arial" font-size="14.00" fill="#666666">[BASE TABLE]</text>
<polygon fill="none" stroke="black" points="74,-351.2 74,-382 351.04,-382 351.04,-351.2 74,-351.2"/>
<text text-anchor="start" x="81" y="-363.4" font-family="Arial" font-size="14.00">id </text>
<text text-anchor="start" x="95.79" y="-363.4" font-family="Arial" font-size="14.00" fill="#666666">[uuid]</text>
<polygon fill="none" stroke="black" points="74,-320.4 74,-351.2 351.04,-351.2 351.04,-320.4 74,-320.4"/>
<text text-anchor="start" x="81" y="-332.6" font-family="Arial" font-size="14.00">name </text>
<text text-anchor="start" x="119.91" y="-332.6" font-family="Arial" font-size="14.00" fill="#666666">[text]</text>
<polygon fill="none" stroke="black" points="74,-289.6 74,-320.4 351.04,-320.4 351.04,-289.6 74,-289.6"/>
<text text-anchor="start" x="81" y="-301.8" font-family="Arial" font-size="14.00">description </text>
<text text-anchor="start" x="152.59" y="-301.8" font-family="Arial" font-size="14.00" fill="#666666">[text]</text>
<polygon fill="none" stroke="black" points="74,-258.8 74,-289.6 351.04,-289.6 351.04,-258.8 74,-258.8"/>
<text text-anchor="start" x="81" y="-271" font-family="Arial" font-size="14.00">guidelines </text>
<text text-anchor="start" x="147.94" y="-271" font-family="Arial" font-size="14.00" fill="#666666">[text]</text>
<polygon fill="none" stroke="black" points="74,-228 74,-258.8 351.04,-258.8 351.04,-228 74,-228"/>
<text text-anchor="start" x="81" y="-240.2" font-family="Arial" font-size="14.00">created_by </text>
<text text-anchor="start" x="154.16" y="-240.2" font-family="Arial" font-size="14.00" fill="#666666">[uuid]</text>
<polygon fill="none" stroke="black" points="74,-197.2 74,-228 351.04,-228 351.04,-197.2 74,-197.2"/>
<text text-anchor="start" x="81" y="-209.4" font-family="Arial" font-size="14.00">banner_image </text>
<text text-anchor="start" x="174.4" y="-209.4" font-family="Arial" font-size="14.00" fill="#666666">[text]</text>
<polygon fill="none" stroke="black" points="74,-166.4 74,-197.2 351.04,-197.2 351.04,-166.4 74,-166.4"/>
<text text-anchor="start" x="81" y="-178.6" font-family="Arial" font-size="14.00">icon </text>
<text text-anchor="start" x="110.57" y="-178.6" font-family="Arial" font-size="14.00" fill="#666666">[text]</text>
<polygon fill="none" stroke="black" points="74,-135.6 74,-166.4 351.04,-166.4 351.04,-135.6 74,-135.6"/>
<text text-anchor="start" x="81" y="-147.8" font-family="Arial" font-size="14.00">created_on </text>
<text text-anchor="start" x="154.94" y="-147.8" font-family="Arial" font-size="14.00" fill="#666666">[timestamp without time zone]</text>
<polygon fill="none" stroke="black" points="74,-104.8 74,-135.6 351.04,-135.6 351.04,-104.8 74,-104.8"/>
<text text-anchor="start" x="81" y="-117" font-family="Arial" font-size="14.00">updated_on </text>
<text text-anchor="start" x="158.85" y="-117" font-family="Arial" font-size="14.00" fill="#666666">[timestamp without time zone]</text>
<polygon fill="none" stroke="black" points="74,-74 74,-104.8 351.04,-104.8 351.04,-74 74,-74"/>
<text text-anchor="start" x="81" y="-86.2" font-family="Arial" font-size="14.00">subscribers </text>
<text text-anchor="start" x="156.47" y="-86.2" font-family="Arial" font-size="14.00" fill="#666666">[integer]</text>
<polygon fill="none" stroke="black" points="74,-43.2 74,-74 351.04,-74 351.04,-43.2 74,-43.2"/>
<text text-anchor="start" x="81" y="-55.4" font-family="Arial" font-size="14.00">posts </text>
<text text-anchor="start" x="118.35" y="-55.4" font-family="Arial" font-size="14.00" fill="#666666">[integer]</text>
</g>
<!-- public.subscription&#45;&gt;public.channel -->
<g id="edge1" class="edge">
<title>public.subscription:channel_id&#45;&gt;public.channel:id</title>
<path fill="none" stroke="black" d="M253.52,-587.73C226.08,-578.47 243.71,-527.65 264.53,-496.8 287.83,-462.28 327.75,-495.32 351.04,-460.8 374.46,-426.09 393.91,-366.6 352.04,-366.6"/>
<polygon fill="black" stroke="black" points="253.31,-587.7 262.55,-593.6 258.58,-588.47 262.87,-589.1 262.87,-589.1 262.87,-589.1 258.58,-588.47 263.85,-584.7 253.31,-587.7"/>
<text text-anchor="start" x="7" y="-599.2" font-family="Arial" font-size="10.00">FOREIGN KEY (channel_id) REFERENCES channel(id)</text>
</g>
<!-- public.user -->
<g id="node3" class="node">
<title>public.user</title>
<polygon fill="#efefef" stroke="none" points="455,-366.6 455,-402.2 732.04,-402.2 732.04,-366.6 455,-366.6"/>
<polygon fill="none" stroke="black" points="455,-366.6 455,-402.2 732.04,-402.2 732.04,-366.6 455,-366.6"/>
<text text-anchor="start" x="491.54" y="-380" font-family="Arial Bold" font-size="18.00">public.user</text>
<text text-anchor="start" x="571.01" y="-380" font-family="Arial" font-size="14.00">    </text>
<text text-anchor="start" x="602.13" y="-380" font-family="Arial" font-size="14.00" fill="#666666">[BASE TABLE]</text>
<polygon fill="none" stroke="black" points="455,-335.8 455,-366.6 732.04,-366.6 732.04,-335.8 455,-335.8"/>
<text text-anchor="start" x="462" y="-348" font-family="Arial" font-size="14.00">id </text>
<text text-anchor="start" x="476.79" y="-348" font-family="Arial" font-size="14.00" fill="#666666">[uuid]</text>
<polygon fill="none" stroke="black" points="455,-305 455,-335.8 732.04,-335.8 732.04,-305 455,-305"/>
<text text-anchor="start" x="462" y="-317.2" font-family="Arial" font-size="14.00">username </text>
<text text-anchor="start" x="528.14" y="-317.2" font-family="Arial" font-size="14.00" fill="#666666">[varchar(25)]</text>
<polygon fill="none" stroke="black" points="455,-274.2 455,-305 732.04,-305 732.04,-274.2 455,-274.2"/>
<text text-anchor="start" x="462" y="-286.4" font-family="Arial" font-size="14.00">profile_image </text>
<text text-anchor="start" x="549.94" y="-286.4" font-family="Arial" font-size="14.00" fill="#666666">[text]</text>
<polygon fill="none" stroke="black" points="455,-243.4 455,-274.2 732.04,-274.2 732.04,-243.4 455,-243.4"/>
<text text-anchor="start" x="462" y="-255.6" font-family="Arial" font-size="14.00">role </text>
<text text-anchor="start" x="489.23" y="-255.6" font-family="Arial" font-size="14.00" fill="#666666">[site_role]</text>
<polygon fill="none" stroke="black" points="455,-212.6 455,-243.4 732.04,-243.4 732.04,-212.6 455,-212.6"/>
<text text-anchor="start" x="462" y="-224.8" font-family="Arial" font-size="14.00">created_on </text>
<text text-anchor="start" x="535.94" y="-224.8" font-family="Arial" font-size="14.00" fill="#666666">[timestamp without time zone]</text>
<polygon fill="none" stroke="black" points="455,-181.8 455,-212.6 732.04,-212.6 732.04,-181.8 455,-181.8"/>
<text text-anchor="start" x="462" y="-194" font-family="Arial" font-size="14.00">updated_on </text>
<text text-anchor="start" x="539.85" y="-194" font-family="Arial" font-size="14.00" fill="#666666">[timestamp without time zone]</text>
<polygon fill="none" stroke="black" points="455,-151 455,-181.8 732.04,-181.8 732.04,-151 455,-151"/>
<text text-anchor="start" x="462" y="-163.2" font-family="Arial" font-size="14.00">discord_id </text>
<text text-anchor="start" x="529.7" y="-163.2" font-family="Arial" font-size="14.00" fill="#666666">[bigint]</text>
<polygon fill="none" stroke="black" points="455,-120.2 455,-151 732.04,-151 732.04,-120.2 455,-120.2"/>
<text text-anchor="start" x="462" y="-132.4" font-family="Arial" font-size="14.00">github_id </text>
<text text-anchor="start" x="522.72" y="-132.4" font-family="Arial" font-size="14.00" fill="#666666">[integer]</text>
<polygon fill="none" stroke="black" points="455,-89.4 455,-120.2 732.04,-120.2 732.04,-89.4 455,-89.4"/>
<text text-anchor="start" x="462" y="-101.6" font-family="Arial" font-size="14.00">followers </text>
<text text-anchor="start" x="521.13" y="-101.6" font-family="Arial" font-size="14.00" fill="#666666">[integer]</text>
<polygon fill="none" stroke="black" points="455,-58.6 455,-89.4 732.04,-89.4 732.04,-58.6 455,-58.6"/>
<text text-anchor="start" x="462" y="-70.8" font-family="Arial" font-size="14.00">following </text>
<text text-anchor="start" x="520.36" y="-70.8" font-family="Arial" font-size="14.00" fill="#666666">[integer]</text>
</g>
<!-- public.subscription&#45;&gt;public.user -->
<g id="edge2" class="edge">
<title>public.subscription:user_id&#45;&gt;public.user:id</title>
<path fill="none" stroke="black" d="M551.42,-555.82C564.32,-546.91 552.05,-516.82 540.51,-496.8 518.36,-458.38 477.04,-483.88 455,-445.4 434.19,-409.07 412.13,-351.2 454,-351.2"/>
<polygon fill="black" stroke="black" points="551.51,-555.8 540.7,-553.96 546.35,-557.14 542.16,-558.23 542.16,-558.23 542.16,-558.23 546.35,-557.14 542.96,-562.67 551.51,-555.8"/>
<text text-anchor="start" x="548.51" y="-568.4" font-family="Arial" font-size="10.00">FOREIGN KEY (user_id) REFERENCES &quot;user&quot;(id)</text>
</g>
</g>
</svg>
