<?xml version="1.0" encoding="UTF-8" standalone="no"?>
<!DOCTYPE svg PUBLIC "-//W3C//DTD SVG 1.1//EN"
 "http://www.w3.org/Graphics/SVG/1.1/DTD/svg11.dtd">
<!-- Generated by graphviz version 2.40.1 (20161225.0304)
 -->
<!-- Title: public.channel_user_reports Pages: 1 -->
<svg width="877pt" height="802pt"
 viewBox="0.00 0.00 877.00 802.00" xmlns="http://www.w3.org/2000/svg" xmlns:xlink="http://www.w3.org/1999/xlink">
<g id="graph0" class="graph" transform="scale(1 1) rotate(0) translate(4 798)">
<title>public.channel_user_reports</title>
<polygon fill="#ffffff" stroke="transparent" points="-4,4 -4,-798 873,-798 873,4 -4,4"/>
<!-- public.channel_user_reports -->
<g id="node1" class="node">
<title>public.channel_user_reports</title>
<polygon fill="#efefef" stroke="transparent" points="239,-712.5 239,-747.5 606,-747.5 606,-712.5 239,-712.5"/>
<polygon fill="none" stroke="#000000" points="239,-712.5 239,-747.5 606,-747.5 606,-712.5 239,-712.5"/>
<text text-anchor="start" x="245.6877" y="-725.3" font-family="Arial Bold" font-size="18.00" fill="#000000">public.channel_user_reports</text>
<text text-anchor="start" x="471.7443" y="-725.3" font-family="Arial" font-size="14.00" fill="#000000">    </text>
<text text-anchor="start" x="505.9491" y="-725.3" font-family="Arial" font-size="14.00" fill="#666666">[BASE TABLE]</text>
<polygon fill="none" stroke="#000000" points="239,-682.5 239,-712.5 606,-712.5 606,-682.5 239,-682.5"/>
<text text-anchor="start" x="246" y="-693.9" font-family="Arial" font-size="14.00" fill="#000000">id </text>
<text text-anchor="start" x="260.7798" y="-693.9" font-family="Arial" font-size="14.00" fill="#666666">[uuid]</text>
<polygon fill="none" stroke="#000000" points="239,-652.5 239,-682.5 606,-682.5 606,-652.5 239,-652.5"/>
<text text-anchor="start" x="246" y="-663.9" font-family="Arial" font-size="14.00" fill="#000000">user_id </text>
<text text-anchor="start" x="295.7882" y="-663.9" font-family="Arial" font-size="14.00" fill="#666666">[uuid]</text>
<polygon fill="none" stroke="#000000" points="239,-622.5 239,-652.5 606,-652.5 606,-622.5 239,-622.5"/>
<text text-anchor="start" x="246" y="-633.9" font-family="Arial" font-size="14.00" fill="#000000">channel_id </text>
<text text-anchor="start" x="317.582" y="-633.9" font-family="Arial" font-size="14.00" fill="#666666">[uuid]</text>
<polygon fill="none" stroke="#000000" points="239,-592.5 239,-622.5 606,-622.5 606,-592.5 239,-592.5"/>
<text text-anchor="start" x="246" y="-603.9" font-family="Arial" font-size="14.00" fill="#000000">description </text>
<text text-anchor="start" x="317.568" y="-603.9" font-family="Arial" font-size="14.00" fill="#666666">[text]</text>
<polygon fill="none" stroke="#000000" points="239,-562.5 239,-592.5 606,-592.5 606,-562.5 239,-562.5"/>
<text text-anchor="start" x="246" y="-573.9" font-family="Arial" font-size="14.00" fill="#000000">resolution </text>
<text text-anchor="start" x="310.568" y="-573.9" font-family="Arial" font-size="14.00" fill="#666666">[text]</text>
<polygon fill="none" stroke="#000000" points="239,-532.5 239,-562.5 606,-562.5 606,-532.5 239,-532.5"/>
<text text-anchor="start" x="246" y="-543.9" font-family="Arial" font-size="14.00" fill="#000000">status </text>
<text text-anchor="start" x="287.237" y="-543.9" font-family="Arial" font-size="14.00" fill="#666666">[report_status]</text>
<polygon fill="none" stroke="#000000" stroke-width="3" points="237,-531.5 237,-749.5 607,-749.5 607,-531.5 237,-531.5"/>
</g>
<!-- public.user -->
<g id="node2" class="node">
<title>public.user</title>
<polygon fill="#efefef" stroke="transparent" points="64,-357.5 64,-392.5 371,-392.5 371,-357.5 64,-357.5"/>
<polygon fill="none" stroke="#000000" points="64,-357.5 64,-392.5 371,-392.5 371,-357.5 64,-357.5"/>
<text text-anchor="start" x="110.2091" y="-370.3" font-family="Arial Bold" font-size="18.00" fill="#000000">public.user</text>
<text text-anchor="start" x="197.2229" y="-370.3" font-family="Arial" font-size="14.00" fill="#000000">    </text>
<text text-anchor="start" x="231.4277" y="-370.3" font-family="Arial" font-size="14.00" fill="#666666">[BASE TABLE]</text>
<polygon fill="none" stroke="#000000" points="64,-327.5 64,-357.5 371,-357.5 371,-327.5 64,-327.5"/>
<text text-anchor="start" x="71" y="-338.9" font-family="Arial" font-size="14.00" fill="#000000">id    </text>
<text text-anchor="start" x="116.094" y="-338.9" font-family="Arial" font-size="14.00" fill="#666666">[uuid]</text>
<polygon fill="none" stroke="#000000" points="64,-297.5 64,-327.5 371,-327.5 371,-297.5 64,-297.5"/>
<text text-anchor="start" x="71" y="-308.9" font-family="Arial" font-size="14.00" fill="#000000">username    </text>
<text text-anchor="start" x="167.439" y="-308.9" font-family="Arial" font-size="14.00" fill="#666666">[varchar(25)]</text>
<polygon fill="none" stroke="#000000" points="64,-267.5 64,-297.5 371,-297.5 371,-267.5 64,-267.5"/>
<text text-anchor="start" x="71" y="-278.9" font-family="Arial" font-size="14.00" fill="#000000">profile_image    </text>
<text text-anchor="start" x="189.2146" y="-278.9" font-family="Arial" font-size="14.00" fill="#666666">[text]</text>
<polygon fill="none" stroke="#000000" points="64,-237.5 64,-267.5 371,-267.5 371,-237.5 64,-237.5"/>
<text text-anchor="start" x="71" y="-248.9" font-family="Arial" font-size="14.00" fill="#000000">role    </text>
<text text-anchor="start" x="128.5372" y="-248.9" font-family="Arial" font-size="14.00" fill="#666666">[site_role]</text>
<polygon fill="none" stroke="#000000" points="64,-207.5 64,-237.5 371,-237.5 371,-207.5 64,-207.5"/>
<text text-anchor="start" x="71" y="-218.9" font-family="Arial" font-size="14.00" fill="#000000">created_on    </text>
<text text-anchor="start" x="175.2342" y="-218.9" font-family="Arial" font-size="14.00" fill="#666666">[timestamp without time zone]</text>
<polygon fill="none" stroke="#000000" points="64,-177.5 64,-207.5 371,-207.5 371,-177.5 64,-177.5"/>
<text text-anchor="start" x="70.8605" y="-188.9" font-family="Arial" font-size="14.00" fill="#000000">updated_on    </text>
<text text-anchor="start" x="178.9993" y="-188.9" font-family="Arial" font-size="14.00" fill="#666666">[timestamp without time zone]</text>
<polygon fill="none" stroke="#000000" points="64,-147.5 64,-177.5 371,-177.5 371,-147.5 64,-147.5"/>
<text text-anchor="start" x="71" y="-158.9" font-family="Arial" font-size="14.00" fill="#000000">discord_id    </text>
<text text-anchor="start" x="168.9916" y="-158.9" font-family="Arial" font-size="14.00" fill="#666666">[bigint]</text>
<polygon fill="none" stroke="#000000" points="64,-117.5 64,-147.5 371,-147.5 371,-117.5 64,-117.5"/>
<text text-anchor="start" x="71" y="-128.9" font-family="Arial" font-size="14.00" fill="#000000">github_id    </text>
<text text-anchor="start" x="162.0042" y="-128.9" font-family="Arial" font-size="14.00" fill="#666666">[integer]</text>
<polygon fill="none" stroke="#000000" points="64,-87.5 64,-117.5 371,-117.5 371,-87.5 64,-87.5"/>
<text text-anchor="start" x="71" y="-98.9" font-family="Arial" font-size="14.00" fill="#000000">followers    </text>
<text text-anchor="start" x="160.4236" y="-98.9" font-family="Arial" font-size="14.00" fill="#666666">[integer]</text>
<polygon fill="none" stroke="#000000" points="64,-57.5 64,-87.5 371,-87.5 371,-57.5 64,-57.5"/>
<text text-anchor="start" x="71" y="-68.9" font-family="Arial" font-size="14.00" fill="#000000">following    </text>
<text text-anchor="start" x="159.6522" y="-68.9" font-family="Arial" font-size="14.00" fill="#666666">[integer]</text>
</g>
<!-- public.channel_user_reports&#45;&gt;public.user -->
<g id="edge1" class="edge">
<title>public.channel_user_reports:user_id&#45;&gt;public.user:id</title>
<path fill="none" stroke="#000000" d="M228.876,-666.8225C161.9306,-657.3247 195.6716,-550.1905 239,-487 274.5667,-435.1293 335.4333,-487.8707 371,-436 394.5,-401.7274 412.5556,-342.5 371,-342.5"/>
<polygon fill="#000000" stroke="#000000" points="229.0223,-666.8322 238.6995,-671.99 234.0112,-667.1661 239,-667.5 239,-667.5 239,-667.5 234.0112,-667.1661 239.3005,-663.01 229.0223,-666.8322 229.0223,-666.8322"/>
<text text-anchor="start" x="7.2855" y="-677.5" font-family="Arial" font-size="10.00" fill="#000000">FOREIGN KEY (user_id) REFERENCES &quot;user&quot;(id)</text>
</g>
<!-- public.channel -->
<g id="node3" class="node">
<title>public.channel</title>
<polygon fill="#efefef" stroke="transparent" points="475,-372.5 475,-407.5 782,-407.5 782,-372.5 475,-372.5"/>
<polygon fill="none" stroke="#000000" points="475,-372.5 475,-407.5 782,-407.5 782,-372.5 475,-372.5"/>
<text text-anchor="start" x="507.1988" y="-385.3" font-family="Arial Bold" font-size="18.00" fill="#000000">public.channel</text>
<text text-anchor="start" x="622.2332" y="-385.3" font-family="Arial" font-size="14.00" fill="#000000">    </text>
<text text-anchor="start" x="656.438" y="-385.3" font-family="Arial" font-size="14.00" fill="#666666">[BASE TABLE]</text>
<polygon fill="none" stroke="#000000" points="475,-342.5 475,-372.5 782,-372.5 782,-342.5 475,-342.5"/>
<text text-anchor="start" x="482" y="-353.9" font-family="Arial" font-size="14.00" fill="#000000">id    </text>
<text text-anchor="start" x="527.094" y="-353.9" font-family="Arial" font-size="14.00" fill="#666666">[uuid]</text>
<polygon fill="none" stroke="#000000" points="475,-312.5 475,-342.5 782,-342.5 782,-312.5 475,-312.5"/>
<text text-anchor="start" x="482" y="-323.9" font-family="Arial" font-size="14.00" fill="#000000">name    </text>
<text text-anchor="start" x="551.2132" y="-323.9" font-family="Arial" font-size="14.00" fill="#666666">[text]</text>
<polygon fill="none" stroke="#000000" points="475,-282.5 475,-312.5 782,-312.5 782,-282.5 475,-282.5"/>
<text text-anchor="start" x="482" y="-293.9" font-family="Arial" font-size="14.00" fill="#000000">description    </text>
<text text-anchor="start" x="583.8822" y="-293.9" font-family="Arial" font-size="14.00" fill="#666666">[text]</text>
<polygon fill="none" stroke="#000000" points="475,-252.5 475,-282.5 782,-282.5 782,-252.5 475,-252.5"/>
<text text-anchor="start" x="482" y="-263.9" font-family="Arial" font-size="14.00" fill="#000000">guidelines    </text>
<text text-anchor="start" x="579.2202" y="-263.9" font-family="Arial" font-size="14.00" fill="#666666">[text]</text>
<polygon fill="none" stroke="#000000" points="475,-222.5 475,-252.5 782,-252.5 782,-222.5 475,-222.5"/>
<text text-anchor="start" x="482" y="-233.9" font-family="Arial" font-size="14.00" fill="#000000">created_by    </text>
<text text-anchor="start" x="585.4516" y="-233.9" font-family="Arial" font-size="14.00" fill="#666666">[uuid]</text>
<polygon fill="none" stroke="#000000" points="475,-192.5 475,-222.5 782,-222.5 782,-192.5 475,-192.5"/>
<text text-anchor="start" x="482" y="-203.9" font-family="Arial" font-size="14.00" fill="#000000">banner_image    </text>
<text text-anchor="start" x="605.676" y="-203.9" font-family="Arial" font-size="14.00" fill="#666666">[text]</text>
<polygon fill="none" stroke="#000000" points="475,-162.5 475,-192.5 782,-192.5 782,-162.5 475,-162.5"/>
<text text-anchor="start" x="482" y="-173.9" font-family="Arial" font-size="14.00" fill="#000000">icon    </text>
<text text-anchor="start" x="541.8766" y="-173.9" font-family="Arial" font-size="14.00" fill="#666666">[text]</text>
<polygon fill="none" stroke="#000000" points="475,-132.5 475,-162.5 782,-162.5 782,-132.5 475,-132.5"/>
<text text-anchor="start" x="482" y="-143.9" font-family="Arial" font-size="14.00" fill="#000000">created_on    </text>
<text text-anchor="start" x="586.2342" y="-143.9" font-family="Arial" font-size="14.00" fill="#666666">[timestamp without time zone]</text>
<polygon fill="none" stroke="#000000" points="475,-102.5 475,-132.5 782,-132.5 782,-102.5 475,-102.5"/>
<text text-anchor="start" x="481.8605" y="-113.9" font-family="Arial" font-size="14.00" fill="#000000">updated_on    </text>
<text text-anchor="start" x="589.9993" y="-113.9" font-family="Arial" font-size="14.00" fill="#666666">[timestamp without time zone]</text>
<polygon fill="none" stroke="#000000" points="475,-72.5 475,-102.5 782,-102.5 782,-72.5 475,-72.5"/>
<text text-anchor="start" x="482" y="-83.9" font-family="Arial" font-size="14.00" fill="#000000">subscribers    </text>
<text text-anchor="start" x="587.763" y="-83.9" font-family="Arial" font-size="14.00" fill="#666666">[integer]</text>
<polygon fill="none" stroke="#000000" points="475,-42.5 475,-72.5 782,-72.5 782,-42.5 475,-42.5"/>
<text text-anchor="start" x="482" y="-53.9" font-family="Arial" font-size="14.00" fill="#000000">posts    </text>
<text text-anchor="start" x="549.6606" y="-53.9" font-family="Arial" font-size="14.00" fill="#666666">[integer]</text>
</g>
<!-- public.channel_user_reports&#45;&gt;public.channel -->
<g id="edge2" class="edge">
<title>public.channel_user_reports:channel_id&#45;&gt;public.channel:id</title>
<path fill="none" stroke="#000000" d="M616.1504,-636.6501C669.9655,-626.9893 644.3321,-537.2872 606,-487 569.3958,-438.9796 511.6042,-499.0204 475,-451 449.808,-417.9511 433.4444,-357.5 475,-357.5"/>
<polygon fill="#000000" stroke="#000000" points="615.9651,-636.6655 605.6245,-633.0157 610.9826,-637.0828 606,-637.5 606,-637.5 606,-637.5 610.9826,-637.0828 606.3755,-641.9843 615.9651,-636.6655 615.9651,-636.6655"/>
<text text-anchor="start" x="613.2675" y="-647.5" font-family="Arial" font-size="10.00" fill="#000000">FOREIGN KEY (channel_id) REFERENCES channel(id)</text>
</g>
</g>
</svg>
