<?xml version="1.0" encoding="UTF-8" standalone="no"?>
<!DOCTYPE svg PUBLIC "-//W3C//DTD SVG 1.1//EN"
 "http://www.w3.org/Graphics/SVG/1.1/DTD/svg11.dtd">
<!-- Generated by graphviz version 12.1.2 (20240928.0832)
 -->
<!-- Title: public.post_tag Pages: 1 -->
<svg width="868pt" height="787pt"
 viewBox="0.00 0.00 867.70 786.80" xmlns="http://www.w3.org/2000/svg" xmlns:xlink="http://www.w3.org/1999/xlink">
<g id="graph0" class="graph" transform="scale(1 1) rotate(0) translate(4 782.8)">
<title>public.post_tag</title>
<polygon fill="white" stroke="none" points="-4,4 -4,-782.8 863.7,-782.8 863.7,4 -4,4"/>
<!-- public.post_tag -->
<g id="node1" class="node">
<title>public.post_tag</title>
<polygon fill="#efefef" stroke="none" points="342.86,-697 342.86,-732.6 591.83,-732.6 591.83,-697 342.86,-697"/>
<polygon fill="none" stroke="black" points="342.86,-697 342.86,-732.6 591.83,-732.6 591.83,-697 342.86,-697"/>
<text text-anchor="start" x="349.86" y="-710.4" font-family="Arial Bold" font-size="18.00">public.post_tag</text>
<text text-anchor="start" x="460.34" y="-710.4" font-family="Arial" font-size="14.00">    </text>
<text text-anchor="start" x="491.46" y="-710.4" font-family="Arial" font-size="14.00" fill="#666666">[BASE TABLE]</text>
<polygon fill="none" stroke="black" points="342.86,-666.2 342.86,-697 591.83,-697 591.83,-666.2 342.86,-666.2"/>
<text text-anchor="start" x="349.86" y="-678.4" font-family="Arial" font-size="14.00">id </text>
<text text-anchor="start" x="364.64" y="-678.4" font-family="Arial" font-size="14.00" fill="#666666">[uuid]</text>
<polygon fill="none" stroke="black" points="342.86,-635.4 342.86,-666.2 591.83,-666.2 591.83,-635.4 342.86,-635.4"/>
<text text-anchor="start" x="349.86" y="-647.6" font-family="Arial" font-size="14.00">post_id </text>
<text text-anchor="start" x="398.89" y="-647.6" font-family="Arial" font-size="14.00" fill="#666666">[uuid]</text>
<polygon fill="none" stroke="black" points="342.86,-604.6 342.86,-635.4 591.83,-635.4 591.83,-604.6 342.86,-604.6"/>
<text text-anchor="start" x="349.86" y="-616.8" font-family="Arial" font-size="14.00">tag_id </text>
<text text-anchor="start" x="391.89" y="-616.8" font-family="Arial" font-size="14.00" fill="#666666">[uuid]</text>
<polygon fill="none" stroke="black" stroke-width="3" points="341.36,-603.1 341.36,-734.1 593.33,-734.1 593.33,-603.1 341.36,-603.1"/>
</g>
<!-- public.post -->
<g id="node2" class="node">
<title>public.post</title>
<polygon fill="#efefef" stroke="none" points="136.82,-443.6 136.82,-479.2 413.86,-479.2 413.86,-443.6 136.82,-443.6"/>
<polygon fill="none" stroke="black" points="136.82,-443.6 136.82,-479.2 413.86,-479.2 413.86,-443.6 136.82,-443.6"/>
<text text-anchor="start" x="173.35" y="-457" font-family="Arial Bold" font-size="18.00">public.post</text>
<text text-anchor="start" x="252.85" y="-457" font-family="Arial" font-size="14.00">    </text>
<text text-anchor="start" x="283.97" y="-457" font-family="Arial" font-size="14.00" fill="#666666">[BASE TABLE]</text>
<polygon fill="none" stroke="black" points="136.82,-412.8 136.82,-443.6 413.86,-443.6 413.86,-412.8 136.82,-412.8"/>
<text text-anchor="start" x="143.82" y="-425" font-family="Arial" font-size="14.00">id </text>
<text text-anchor="start" x="158.61" y="-425" font-family="Arial" font-size="14.00" fill="#666666">[uuid]</text>
<polygon fill="none" stroke="black" points="136.82,-382 136.82,-412.8 413.86,-412.8 413.86,-382 136.82,-382"/>
<text text-anchor="start" x="143.82" y="-394.2" font-family="Arial" font-size="14.00">name </text>
<text text-anchor="start" x="182.73" y="-394.2" font-family="Arial" font-size="14.00" fill="#666666">[text]</text>
<polygon fill="none" stroke="black" points="136.82,-351.2 136.82,-382 413.86,-382 413.86,-351.2 136.82,-351.2"/>
<text text-anchor="start" x="143.82" y="-363.4" font-family="Arial" font-size="14.00">description </text>
<text text-anchor="start" x="215.42" y="-363.4" font-family="Arial" font-size="14.00" fill="#666666">[text]</text>
<polygon fill="none" stroke="black" points="136.82,-320.4 136.82,-351.2 413.86,-351.2 413.86,-320.4 136.82,-320.4"/>
<text text-anchor="start" x="143.82" y="-332.6" font-family="Arial" font-size="14.00">alt_text </text>
<text text-anchor="start" x="192.85" y="-332.6" font-family="Arial" font-size="14.00" fill="#666666">[text]</text>
<polygon fill="none" stroke="black" points="136.82,-289.6 136.82,-320.4 413.86,-320.4 413.86,-289.6 136.82,-289.6"/>
<text text-anchor="start" x="143.82" y="-301.8" font-family="Arial" font-size="14.00">created_by </text>
<text text-anchor="start" x="216.98" y="-301.8" font-family="Arial" font-size="14.00" fill="#666666">[uuid]</text>
<polygon fill="none" stroke="black" points="136.82,-258.8 136.82,-289.6 413.86,-289.6 413.86,-258.8 136.82,-258.8"/>
<text text-anchor="start" x="143.82" y="-271" font-family="Arial" font-size="14.00">channel_id </text>
<text text-anchor="start" x="215.44" y="-271" font-family="Arial" font-size="14.00" fill="#666666">[uuid]</text>
<polygon fill="none" stroke="black" points="136.82,-228 136.82,-258.8 413.86,-258.8 413.86,-228 136.82,-228"/>
<text text-anchor="start" x="143.82" y="-240.2" font-family="Arial" font-size="14.00">video_id </text>
<text text-anchor="start" x="199.87" y="-240.2" font-family="Arial" font-size="14.00" fill="#666666">[text]</text>
<polygon fill="none" stroke="black" points="136.82,-197.2 136.82,-228 413.86,-228 413.86,-197.2 136.82,-197.2"/>
<text text-anchor="start" x="143.82" y="-209.4" font-family="Arial" font-size="14.00">created_on </text>
<text text-anchor="start" x="217.77" y="-209.4" font-family="Arial" font-size="14.00" fill="#666666">[timestamp without time zone]</text>
<polygon fill="none" stroke="black" points="136.82,-166.4 136.82,-197.2 413.86,-197.2 413.86,-166.4 136.82,-166.4"/>
<text text-anchor="start" x="143.82" y="-178.6" font-family="Arial" font-size="14.00">updated_on </text>
<text text-anchor="start" x="221.68" y="-178.6" font-family="Arial" font-size="14.00" fill="#666666">[timestamp without time zone]</text>
<polygon fill="none" stroke="black" points="136.82,-135.6 136.82,-166.4 413.86,-166.4 413.86,-135.6 136.82,-135.6"/>
<text text-anchor="start" x="143.82" y="-147.8" font-family="Arial" font-size="14.00">status </text>
<text text-anchor="start" x="185.07" y="-147.8" font-family="Arial" font-size="14.00" fill="#666666">[post_status]</text>
<polygon fill="none" stroke="black" points="136.82,-104.8 136.82,-135.6 413.86,-135.6 413.86,-104.8 136.82,-104.8"/>
<text text-anchor="start" x="143.82" y="-117" font-family="Arial" font-size="14.00">upvotes </text>
<text text-anchor="start" x="196.75" y="-117" font-family="Arial" font-size="14.00" fill="#666666">[integer]</text>
<polygon fill="none" stroke="black" points="136.82,-74 136.82,-104.8 413.86,-104.8 413.86,-74 136.82,-74"/>
<text text-anchor="start" x="143.82" y="-86.2" font-family="Arial" font-size="14.00">downvotes </text>
<text text-anchor="start" x="214.65" y="-86.2" font-family="Arial" font-size="14.00" fill="#666666">[integer]</text>
<polygon fill="none" stroke="black" points="136.82,-43.2 136.82,-74 413.86,-74 413.86,-43.2 136.82,-43.2"/>
<text text-anchor="start" x="143.82" y="-55.4" font-family="Arial" font-size="14.00">comments </text>
<text text-anchor="start" x="212.29" y="-55.4" font-family="Arial" font-size="14.00" fill="#666666">[integer]</text>
</g>
<!-- public.post_tag&#45;&gt;public.post -->
<g id="edge1" class="edge">
<title>public.post_tag:post_id&#45;&gt;public.post:id</title>
<path fill="none" stroke="black" d="M331.88,-649.35C304.62,-640.21 323.21,-590.01 342.86,-558.4 361.54,-528.35 395.19,-552.45 413.86,-522.4 435.97,-486.84 456.73,-428.2 414.86,-428.2"/>
<polygon fill="black" stroke="black" points="331.63,-649.31 340.88,-655.21 336.91,-650.08 341.19,-650.7 341.19,-650.7 341.19,-650.7 336.91,-650.08 342.17,-646.3 331.63,-649.31"/>
<text text-anchor="start" x="7" y="-660.8" font-family="Arial" font-size="10.00">FOREIGN KEY (post_id) REFERENCES post(id) ON DELETE CASCADE</text>
</g>
<!-- public.channel_tags -->
<g id="node3" class="node">
<title>public.channel_tags</title>
<polygon fill="#efefef" stroke="none" points="518.37,-305 518.37,-340.6 800.32,-340.6 800.32,-305 518.37,-305"/>
<polygon fill="none" stroke="black" points="518.37,-305 518.37,-340.6 800.32,-340.6 800.32,-305 518.37,-305"/>
<text text-anchor="start" x="525.37" y="-318.4" font-family="Arial Bold" font-size="18.00">public.channel_tags</text>
<text text-anchor="start" x="668.83" y="-318.4" font-family="Arial" font-size="14.00">    </text>
<text text-anchor="start" x="699.94" y="-318.4" font-family="Arial" font-size="14.00" fill="#666666">[BASE TABLE]</text>
<polygon fill="none" stroke="black" points="518.37,-274.2 518.37,-305 800.32,-305 800.32,-274.2 518.37,-274.2"/>
<text text-anchor="start" x="525.37" y="-286.4" font-family="Arial" font-size="14.00">id </text>
<text text-anchor="start" x="540.16" y="-286.4" font-family="Arial" font-size="14.00" fill="#666666">[uuid]</text>
<polygon fill="none" stroke="black" points="518.37,-243.4 518.37,-274.2 800.32,-274.2 800.32,-243.4 518.37,-243.4"/>
<text text-anchor="start" x="525.37" y="-255.6" font-family="Arial" font-size="14.00">channel_id </text>
<text text-anchor="start" x="596.99" y="-255.6" font-family="Arial" font-size="14.00" fill="#666666">[uuid]</text>
<polygon fill="none" stroke="black" points="518.37,-212.6 518.37,-243.4 800.32,-243.4 800.32,-212.6 518.37,-212.6"/>
<text text-anchor="start" x="525.37" y="-224.8" font-family="Arial" font-size="14.00">name </text>
<text text-anchor="start" x="564.28" y="-224.8" font-family="Arial" font-size="14.00" fill="#666666">[varchar(16)]</text>
<polygon fill="none" stroke="black" points="518.37,-181.8 518.37,-212.6 800.32,-212.6 800.32,-181.8 518.37,-181.8"/>
<text text-anchor="start" x="525.37" y="-194" font-family="Arial" font-size="14.00">color </text>
<text text-anchor="start" x="559.61" y="-194" font-family="Arial" font-size="14.00" fill="#666666">[varchar(16)]</text>
</g>
<!-- public.post_tag&#45;&gt;public.channel_tags -->
<g id="edge2" class="edge">
<title>public.post_tag:tag_id&#45;&gt;public.channel_tags:id</title>
<path fill="none" stroke="black" d="M602.94,-619.42C725.38,-604.06 370.42,-289.6 517.37,-289.6"/>
<polygon fill="black" stroke="black" points="603.15,-619.41 592.91,-615.49 597.82,-619.71 593.5,-619.96 593.5,-619.96 593.5,-619.96 597.82,-619.71 593.43,-624.47 603.15,-619.41"/>
<text text-anchor="start" x="599.83" y="-630" font-family="Arial" font-size="10.00">FOREIGN KEY (tag_id) REFERENCES channel_tags(id)</text>
</g>
</g>
</svg>
