<?xml version="1.0" encoding="UTF-8" standalone="no"?>
<!DOCTYPE svg PUBLIC "-//W3C//DTD SVG 1.1//EN"
 "http://www.w3.org/Graphics/SVG/1.1/DTD/svg11.dtd">
<!-- Generated by graphviz version 2.40.1 (20161225.0304)
 -->
<!-- Title: public.channel_report Pages: 1 -->
<svg width="630pt" height="712pt"
 viewBox="0.00 0.00 629.50 712.00" xmlns="http://www.w3.org/2000/svg" xmlns:xlink="http://www.w3.org/1999/xlink">
<g id="graph0" class="graph" transform="scale(1 1) rotate(0) translate(4 708)">
<title>public.channel_report</title>
<polygon fill="#ffffff" stroke="transparent" points="-4,4 -4,-708 625.5,-708 625.5,4 -4,4"/>
<!-- public.channel_report -->
<g id="node1" class="node">
<title>public.channel_report</title>
<polygon fill="#efefef" stroke="transparent" points="263,-622.5 263,-657.5 576,-657.5 576,-622.5 263,-622.5"/>
<polygon fill="none" stroke="#000000" points="263,-622.5 263,-657.5 576,-657.5 576,-622.5 263,-622.5"/>
<text text-anchor="start" x="269.6931" y="-635.3" font-family="Arial Bold" font-size="18.00" fill="#000000">public.channel_report</text>
<text text-anchor="start" x="441.7389" y="-635.3" font-family="Arial" font-size="14.00" fill="#000000">    </text>
<text text-anchor="start" x="475.9437" y="-635.3" font-family="Arial" font-size="14.00" fill="#666666">[BASE TABLE]</text>
<polygon fill="none" stroke="#000000" points="263,-592.5 263,-622.5 576,-622.5 576,-592.5 263,-592.5"/>
<text text-anchor="start" x="270" y="-603.9" font-family="Arial" font-size="14.00" fill="#000000">id </text>
<text text-anchor="start" x="284.7798" y="-603.9" font-family="Arial" font-size="14.00" fill="#666666">[uuid]</text>
<polygon fill="none" stroke="#000000" points="263,-562.5 263,-592.5 576,-592.5 576,-562.5 263,-562.5"/>
<text text-anchor="start" x="270" y="-573.9" font-family="Arial" font-size="14.00" fill="#000000">channel_id </text>
<text text-anchor="start" x="341.582" y="-573.9" font-family="Arial" font-size="14.00" fill="#666666">[uuid]</text>
<polygon fill="none" stroke="#000000" points="263,-532.5 263,-562.5 576,-562.5 576,-532.5 263,-532.5"/>
<text text-anchor="start" x="270" y="-543.9" font-family="Arial" font-size="14.00" fill="#000000">description </text>
<text text-anchor="start" x="341.568" y="-543.9" font-family="Arial" font-size="14.00" fill="#666666">[text]</text>
<polygon fill="none" stroke="#000000" points="263,-502.5 263,-532.5 576,-532.5 576,-502.5 263,-502.5"/>
<text text-anchor="start" x="270" y="-513.9" font-family="Arial" font-size="14.00" fill="#000000">resolution </text>
<text text-anchor="start" x="334.568" y="-513.9" font-family="Arial" font-size="14.00" fill="#666666">[text]</text>
<polygon fill="none" stroke="#000000" points="263,-472.5 263,-502.5 576,-502.5 576,-472.5 263,-472.5"/>
<text text-anchor="start" x="270" y="-483.9" font-family="Arial" font-size="14.00" fill="#000000">status </text>
<text text-anchor="start" x="311.237" y="-483.9" font-family="Arial" font-size="14.00" fill="#666666">[report_status]</text>
<polygon fill="none" stroke="#000000" stroke-width="3" points="261,-471.5 261,-659.5 577,-659.5 577,-471.5 261,-471.5"/>
</g>
<!-- public.channel -->
<g id="node2" class="node">
<title>public.channel</title>
<polygon fill="#efefef" stroke="transparent" points="266,-312.5 266,-347.5 573,-347.5 573,-312.5 266,-312.5"/>
<polygon fill="none" stroke="#000000" points="266,-312.5 266,-347.5 573,-347.5 573,-312.5 266,-312.5"/>
<text text-anchor="start" x="298.1988" y="-325.3" font-family="Arial Bold" font-size="18.00" fill="#000000">public.channel</text>
<text text-anchor="start" x="413.2332" y="-325.3" font-family="Arial" font-size="14.00" fill="#000000">    </text>
<text text-anchor="start" x="447.438" y="-325.3" font-family="Arial" font-size="14.00" fill="#666666">[BASE TABLE]</text>
<polygon fill="none" stroke="#000000" points="266,-282.5 266,-312.5 573,-312.5 573,-282.5 266,-282.5"/>
<text text-anchor="start" x="273" y="-293.9" font-family="Arial" font-size="14.00" fill="#000000">id    </text>
<text text-anchor="start" x="318.094" y="-293.9" font-family="Arial" font-size="14.00" fill="#666666">[uuid]</text>
<polygon fill="none" stroke="#000000" points="266,-252.5 266,-282.5 573,-282.5 573,-252.5 266,-252.5"/>
<text text-anchor="start" x="273" y="-263.9" font-family="Arial" font-size="14.00" fill="#000000">name    </text>
<text text-anchor="start" x="342.2132" y="-263.9" font-family="Arial" font-size="14.00" fill="#666666">[text]</text>
<polygon fill="none" stroke="#000000" points="266,-222.5 266,-252.5 573,-252.5 573,-222.5 266,-222.5"/>
<text text-anchor="start" x="273" y="-233.9" font-family="Arial" font-size="14.00" fill="#000000">description    </text>
<text text-anchor="start" x="374.8822" y="-233.9" font-family="Arial" font-size="14.00" fill="#666666">[text]</text>
<polygon fill="none" stroke="#000000" points="266,-192.5 266,-222.5 573,-222.5 573,-192.5 266,-192.5"/>
<text text-anchor="start" x="273" y="-203.9" font-family="Arial" font-size="14.00" fill="#000000">guidelines    </text>
<text text-anchor="start" x="370.2202" y="-203.9" font-family="Arial" font-size="14.00" fill="#666666">[text]</text>
<polygon fill="none" stroke="#000000" points="266,-162.5 266,-192.5 573,-192.5 573,-162.5 266,-162.5"/>
<text text-anchor="start" x="273" y="-173.9" font-family="Arial" font-size="14.00" fill="#000000">created_by    </text>
<text text-anchor="start" x="376.4516" y="-173.9" font-family="Arial" font-size="14.00" fill="#666666">[uuid]</text>
<polygon fill="none" stroke="#000000" points="266,-132.5 266,-162.5 573,-162.5 573,-132.5 266,-132.5"/>
<text text-anchor="start" x="273" y="-143.9" font-family="Arial" font-size="14.00" fill="#000000">banner_image    </text>
<text text-anchor="start" x="396.676" y="-143.9" font-family="Arial" font-size="14.00" fill="#666666">[text]</text>
<polygon fill="none" stroke="#000000" points="266,-102.5 266,-132.5 573,-132.5 573,-102.5 266,-102.5"/>
<text text-anchor="start" x="273" y="-113.9" font-family="Arial" font-size="14.00" fill="#000000">icon    </text>
<text text-anchor="start" x="332.8766" y="-113.9" font-family="Arial" font-size="14.00" fill="#666666">[text]</text>
<polygon fill="none" stroke="#000000" points="266,-72.5 266,-102.5 573,-102.5 573,-72.5 266,-72.5"/>
<text text-anchor="start" x="273" y="-83.9" font-family="Arial" font-size="14.00" fill="#000000">created_on    </text>
<text text-anchor="start" x="377.2342" y="-83.9" font-family="Arial" font-size="14.00" fill="#666666">[timestamp without time zone]</text>
<polygon fill="none" stroke="#000000" points="266,-42.5 266,-72.5 573,-72.5 573,-42.5 266,-42.5"/>
<text text-anchor="start" x="272.8605" y="-53.9" font-family="Arial" font-size="14.00" fill="#000000">updated_on    </text>
<text text-anchor="start" x="380.9993" y="-53.9" font-family="Arial" font-size="14.00" fill="#666666">[timestamp without time zone]</text>
</g>
<!-- public.channel_report&#45;&gt;public.channel -->
<g id="edge1" class="edge">
<title>public.channel_report:channel_id&#45;&gt;public.channel:id</title>
<path fill="none" stroke="#000000" d="M253.0532,-574.9069C201.3041,-546.6795 207.2987,-297.5 266,-297.5"/>
<polygon fill="#000000" stroke="#000000" points="253.3234,-574.9773 261.8648,-581.8545 258.1617,-576.2386 263,-577.5 263,-577.5 263,-577.5 258.1617,-576.2386 264.1352,-573.1455 253.3234,-574.9773 253.3234,-574.9773"/>
<text text-anchor="start" x="7.2675" y="-587.5" font-family="Arial" font-size="10.00" fill="#000000">FOREIGN KEY (channel_id) REFERENCES channel(id)</text>
</g>
</g>
</svg>
