<?xml version="1.0" encoding="UTF-8" standalone="no"?>
<!DOCTYPE svg PUBLIC "-//W3C//DTD SVG 1.1//EN"
 "http://www.w3.org/Graphics/SVG/1.1/DTD/svg11.dtd">
<!-- Generated by graphviz version 2.40.1 (20161225.0304)
 -->
<!-- Title: public.invite Pages: 1 -->
<svg width="1213pt" height="1312pt"
 viewBox="0.00 0.00 1212.50 1312.00" xmlns="http://www.w3.org/2000/svg" xmlns:xlink="http://www.w3.org/1999/xlink">
<g id="graph0" class="graph" transform="scale(1 1) rotate(0) translate(4 1308)">
<title>public.invite</title>
<polygon fill="#ffffff" stroke="transparent" points="-4,4 -4,-1308 1208.5,-1308 1208.5,4 -4,4"/>
<!-- public.invite -->
<g id="node1" class="node">
<title>public.invite</title>
<polygon fill="#efefef" stroke="transparent" points="471.5,-1222.5 471.5,-1257.5 744.5,-1257.5 744.5,-1222.5 471.5,-1222.5"/>
<polygon fill="none" stroke="#000000" points="471.5,-1222.5 471.5,-1257.5 744.5,-1257.5 744.5,-1222.5 471.5,-1222.5"/>
<text text-anchor="start" x="497.2099" y="-1235.3" font-family="Arial Bold" font-size="18.00" fill="#000000">public.invite</text>
<text text-anchor="start" x="591.2221" y="-1235.3" font-family="Arial" font-size="14.00" fill="#000000">    </text>
<text text-anchor="start" x="625.4269" y="-1235.3" font-family="Arial" font-size="14.00" fill="#666666">[BASE TABLE]</text>
<polygon fill="none" stroke="#000000" points="471.5,-1192.5 471.5,-1222.5 744.5,-1222.5 744.5,-1192.5 471.5,-1192.5"/>
<text text-anchor="start" x="478.5" y="-1203.9" font-family="Arial" font-size="14.00" fill="#000000">channel_id </text>
<text text-anchor="start" x="550.082" y="-1203.9" font-family="Arial" font-size="14.00" fill="#666666">[uuid]</text>
<polygon fill="none" stroke="#000000" points="471.5,-1162.5 471.5,-1192.5 744.5,-1192.5 744.5,-1162.5 471.5,-1162.5"/>
<text text-anchor="start" x="478.5" y="-1173.9" font-family="Arial" font-size="14.00" fill="#000000">user_id </text>
<text text-anchor="start" x="528.2882" y="-1173.9" font-family="Arial" font-size="14.00" fill="#666666">[uuid]</text>
<polygon fill="none" stroke="#000000" points="471.5,-1132.5 471.5,-1162.5 744.5,-1162.5 744.5,-1132.5 471.5,-1132.5"/>
<text text-anchor="start" x="478.4699" y="-1143.9" font-family="Arial" font-size="14.00" fill="#000000">created_on </text>
<text text-anchor="start" x="552.3899" y="-1143.9" font-family="Arial" font-size="14.00" fill="#666666">[timestamp without time zone]</text>
<polygon fill="none" stroke="#000000" points="471.5,-1102.5 471.5,-1132.5 744.5,-1132.5 744.5,-1102.5 471.5,-1102.5"/>
<text text-anchor="start" x="478.5" y="-1113.9" font-family="Arial" font-size="14.00" fill="#000000">role_id </text>
<text text-anchor="start" x="524.3948" y="-1113.9" font-family="Arial" font-size="14.00" fill="#666666">[uuid]</text>
<polygon fill="none" stroke="#000000" stroke-width="3" points="469.5,-1101.5 469.5,-1259.5 745.5,-1259.5 745.5,-1101.5 469.5,-1101.5"/>
</g>
<!-- public.channel -->
<g id="node2" class="node">
<title>public.channel</title>
<polygon fill="#efefef" stroke="transparent" points="43.5,-657.5 43.5,-692.5 350.5,-692.5 350.5,-657.5 43.5,-657.5"/>
<polygon fill="none" stroke="#000000" points="43.5,-657.5 43.5,-692.5 350.5,-692.5 350.5,-657.5 43.5,-657.5"/>
<text text-anchor="start" x="75.6988" y="-670.3" font-family="Arial Bold" font-size="18.00" fill="#000000">public.channel</text>
<text text-anchor="start" x="190.7332" y="-670.3" font-family="Arial" font-size="14.00" fill="#000000">    </text>
<text text-anchor="start" x="224.938" y="-670.3" font-family="Arial" font-size="14.00" fill="#666666">[BASE TABLE]</text>
<polygon fill="none" stroke="#000000" points="43.5,-627.5 43.5,-657.5 350.5,-657.5 350.5,-627.5 43.5,-627.5"/>
<text text-anchor="start" x="50.5" y="-638.9" font-family="Arial" font-size="14.00" fill="#000000">id    </text>
<text text-anchor="start" x="95.594" y="-638.9" font-family="Arial" font-size="14.00" fill="#666666">[uuid]</text>
<polygon fill="none" stroke="#000000" points="43.5,-597.5 43.5,-627.5 350.5,-627.5 350.5,-597.5 43.5,-597.5"/>
<text text-anchor="start" x="50.5" y="-608.9" font-family="Arial" font-size="14.00" fill="#000000">name    </text>
<text text-anchor="start" x="119.7132" y="-608.9" font-family="Arial" font-size="14.00" fill="#666666">[text]</text>
<polygon fill="none" stroke="#000000" points="43.5,-567.5 43.5,-597.5 350.5,-597.5 350.5,-567.5 43.5,-567.5"/>
<text text-anchor="start" x="50.5" y="-578.9" font-family="Arial" font-size="14.00" fill="#000000">description    </text>
<text text-anchor="start" x="152.3822" y="-578.9" font-family="Arial" font-size="14.00" fill="#666666">[text]</text>
<polygon fill="none" stroke="#000000" points="43.5,-537.5 43.5,-567.5 350.5,-567.5 350.5,-537.5 43.5,-537.5"/>
<text text-anchor="start" x="50.5" y="-548.9" font-family="Arial" font-size="14.00" fill="#000000">guidelines    </text>
<text text-anchor="start" x="147.7202" y="-548.9" font-family="Arial" font-size="14.00" fill="#666666">[text]</text>
<polygon fill="none" stroke="#000000" points="43.5,-507.5 43.5,-537.5 350.5,-537.5 350.5,-507.5 43.5,-507.5"/>
<text text-anchor="start" x="50.5" y="-518.9" font-family="Arial" font-size="14.00" fill="#000000">created_by    </text>
<text text-anchor="start" x="153.9516" y="-518.9" font-family="Arial" font-size="14.00" fill="#666666">[uuid]</text>
<polygon fill="none" stroke="#000000" points="43.5,-477.5 43.5,-507.5 350.5,-507.5 350.5,-477.5 43.5,-477.5"/>
<text text-anchor="start" x="50.5" y="-488.9" font-family="Arial" font-size="14.00" fill="#000000">banner_image    </text>
<text text-anchor="start" x="174.176" y="-488.9" font-family="Arial" font-size="14.00" fill="#666666">[text]</text>
<polygon fill="none" stroke="#000000" points="43.5,-447.5 43.5,-477.5 350.5,-477.5 350.5,-447.5 43.5,-447.5"/>
<text text-anchor="start" x="50.5" y="-458.9" font-family="Arial" font-size="14.00" fill="#000000">icon    </text>
<text text-anchor="start" x="110.3766" y="-458.9" font-family="Arial" font-size="14.00" fill="#666666">[text]</text>
<polygon fill="none" stroke="#000000" points="43.5,-417.5 43.5,-447.5 350.5,-447.5 350.5,-417.5 43.5,-417.5"/>
<text text-anchor="start" x="50.5" y="-428.9" font-family="Arial" font-size="14.00" fill="#000000">created_on    </text>
<text text-anchor="start" x="154.7342" y="-428.9" font-family="Arial" font-size="14.00" fill="#666666">[timestamp without time zone]</text>
<polygon fill="none" stroke="#000000" points="43.5,-387.5 43.5,-417.5 350.5,-417.5 350.5,-387.5 43.5,-387.5"/>
<text text-anchor="start" x="50.3605" y="-398.9" font-family="Arial" font-size="14.00" fill="#000000">updated_on    </text>
<text text-anchor="start" x="158.4993" y="-398.9" font-family="Arial" font-size="14.00" fill="#666666">[timestamp without time zone]</text>
<polygon fill="none" stroke="#000000" points="43.5,-357.5 43.5,-387.5 350.5,-387.5 350.5,-357.5 43.5,-357.5"/>
<text text-anchor="start" x="50.5" y="-368.9" font-family="Arial" font-size="14.00" fill="#000000">subscribers    </text>
<text text-anchor="start" x="156.263" y="-368.9" font-family="Arial" font-size="14.00" fill="#666666">[integer]</text>
<polygon fill="none" stroke="#000000" points="43.5,-327.5 43.5,-357.5 350.5,-357.5 350.5,-327.5 43.5,-327.5"/>
<text text-anchor="start" x="50.5" y="-338.9" font-family="Arial" font-size="14.00" fill="#000000">posts    </text>
<text text-anchor="start" x="118.1606" y="-338.9" font-family="Arial" font-size="14.00" fill="#666666">[integer]</text>
</g>
<!-- public.invite&#45;&gt;public.channel -->
<g id="edge1" class="edge">
<title>public.invite:channel_id&#45;&gt;public.channel:id</title>
<path fill="none" stroke="#000000" d="M461.2423,-1207C386.1536,-1199.2692 422.2175,-1103.3374 401.5,-1021 380.7905,-938.6942 435.3712,-642.5 350.5,-642.5"/>
<polygon fill="#000000" stroke="#000000" points="461.5119,-1207.0131 471.2809,-1211.9947 466.5059,-1207.2565 471.5,-1207.5 471.5,-1207.5 471.5,-1207.5 466.5059,-1207.2565 471.7191,-1203.0053 461.5119,-1207.0131 461.5119,-1207.0131"/>
<text text-anchor="start" x="215.7675" y="-1217.5" font-family="Arial" font-size="10.00" fill="#000000">FOREIGN KEY (channel_id) REFERENCES channel(id)</text>
</g>
<!-- public.user -->
<g id="node3" class="node">
<title>public.user</title>
<polygon fill="#efefef" stroke="transparent" points="454.5,-642.5 454.5,-677.5 761.5,-677.5 761.5,-642.5 454.5,-642.5"/>
<polygon fill="none" stroke="#000000" points="454.5,-642.5 454.5,-677.5 761.5,-677.5 761.5,-642.5 454.5,-642.5"/>
<text text-anchor="start" x="500.7091" y="-655.3" font-family="Arial Bold" font-size="18.00" fill="#000000">public.user</text>
<text text-anchor="start" x="587.7229" y="-655.3" font-family="Arial" font-size="14.00" fill="#000000">    </text>
<text text-anchor="start" x="621.9277" y="-655.3" font-family="Arial" font-size="14.00" fill="#666666">[BASE TABLE]</text>
<polygon fill="none" stroke="#000000" points="454.5,-612.5 454.5,-642.5 761.5,-642.5 761.5,-612.5 454.5,-612.5"/>
<text text-anchor="start" x="461.5" y="-623.9" font-family="Arial" font-size="14.00" fill="#000000">id    </text>
<text text-anchor="start" x="506.594" y="-623.9" font-family="Arial" font-size="14.00" fill="#666666">[uuid]</text>
<polygon fill="none" stroke="#000000" points="454.5,-582.5 454.5,-612.5 761.5,-612.5 761.5,-582.5 454.5,-582.5"/>
<text text-anchor="start" x="461.5" y="-593.9" font-family="Arial" font-size="14.00" fill="#000000">username    </text>
<text text-anchor="start" x="557.939" y="-593.9" font-family="Arial" font-size="14.00" fill="#666666">[varchar(25)]</text>
<polygon fill="none" stroke="#000000" points="454.5,-552.5 454.5,-582.5 761.5,-582.5 761.5,-552.5 454.5,-552.5"/>
<text text-anchor="start" x="461.5" y="-563.9" font-family="Arial" font-size="14.00" fill="#000000">profile_image    </text>
<text text-anchor="start" x="579.7146" y="-563.9" font-family="Arial" font-size="14.00" fill="#666666">[text]</text>
<polygon fill="none" stroke="#000000" points="454.5,-522.5 454.5,-552.5 761.5,-552.5 761.5,-522.5 454.5,-522.5"/>
<text text-anchor="start" x="461.5" y="-533.9" font-family="Arial" font-size="14.00" fill="#000000">role    </text>
<text text-anchor="start" x="519.0372" y="-533.9" font-family="Arial" font-size="14.00" fill="#666666">[site_role]</text>
<polygon fill="none" stroke="#000000" points="454.5,-492.5 454.5,-522.5 761.5,-522.5 761.5,-492.5 454.5,-492.5"/>
<text text-anchor="start" x="461.5" y="-503.9" font-family="Arial" font-size="14.00" fill="#000000">created_on    </text>
<text text-anchor="start" x="565.7342" y="-503.9" font-family="Arial" font-size="14.00" fill="#666666">[timestamp without time zone]</text>
<polygon fill="none" stroke="#000000" points="454.5,-462.5 454.5,-492.5 761.5,-492.5 761.5,-462.5 454.5,-462.5"/>
<text text-anchor="start" x="461.3605" y="-473.9" font-family="Arial" font-size="14.00" fill="#000000">updated_on    </text>
<text text-anchor="start" x="569.4993" y="-473.9" font-family="Arial" font-size="14.00" fill="#666666">[timestamp without time zone]</text>
<polygon fill="none" stroke="#000000" points="454.5,-432.5 454.5,-462.5 761.5,-462.5 761.5,-432.5 454.5,-432.5"/>
<text text-anchor="start" x="461.5" y="-443.9" font-family="Arial" font-size="14.00" fill="#000000">discord_id    </text>
<text text-anchor="start" x="559.4916" y="-443.9" font-family="Arial" font-size="14.00" fill="#666666">[bigint]</text>
<polygon fill="none" stroke="#000000" points="454.5,-402.5 454.5,-432.5 761.5,-432.5 761.5,-402.5 454.5,-402.5"/>
<text text-anchor="start" x="461.5" y="-413.9" font-family="Arial" font-size="14.00" fill="#000000">github_id    </text>
<text text-anchor="start" x="552.5042" y="-413.9" font-family="Arial" font-size="14.00" fill="#666666">[integer]</text>
<polygon fill="none" stroke="#000000" points="454.5,-372.5 454.5,-402.5 761.5,-402.5 761.5,-372.5 454.5,-372.5"/>
<text text-anchor="start" x="461.5" y="-383.9" font-family="Arial" font-size="14.00" fill="#000000">followers    </text>
<text text-anchor="start" x="550.9236" y="-383.9" font-family="Arial" font-size="14.00" fill="#666666">[integer]</text>
<polygon fill="none" stroke="#000000" points="454.5,-342.5 454.5,-372.5 761.5,-372.5 761.5,-342.5 454.5,-342.5"/>
<text text-anchor="start" x="461.5" y="-353.9" font-family="Arial" font-size="14.00" fill="#000000">following    </text>
<text text-anchor="start" x="550.1522" y="-353.9" font-family="Arial" font-size="14.00" fill="#666666">[integer]</text>
</g>
<!-- public.invite&#45;&gt;public.user -->
<g id="edge2" class="edge">
<title>public.invite:user_id&#45;&gt;public.user:id</title>
<path fill="none" stroke="#000000" d="M462.2007,-1173.0728C408.784,-1121.0217 396.5839,-627.5 454.5,-627.5"/>
<polygon fill="#000000" stroke="#000000" points="462.471,-1173.2015 469.5657,-1181.5631 466.9855,-1175.3507 471.5,-1177.5 471.5,-1177.5 471.5,-1177.5 466.9855,-1175.3507 473.4343,-1173.4369 462.471,-1173.2015 462.471,-1173.2015"/>
<text text-anchor="start" x="239.7855" y="-1187.5" font-family="Arial" font-size="10.00" fill="#000000">FOREIGN KEY (user_id) REFERENCES &quot;user&quot;(id)</text>
</g>
<!-- public.role -->
<g id="node4" class="node">
<title>public.role</title>
<polygon fill="#efefef" stroke="transparent" points="865.5,-942.5 865.5,-977.5 1161.5,-977.5 1161.5,-942.5 865.5,-942.5"/>
<polygon fill="none" stroke="#000000" points="865.5,-942.5 865.5,-977.5 1161.5,-977.5 1161.5,-942.5 865.5,-942.5"/>
<text text-anchor="start" x="908.712" y="-955.3" font-family="Arial Bold" font-size="18.00" fill="#000000">public.role</text>
<text text-anchor="start" x="990.72" y="-955.3" font-family="Arial" font-size="14.00" fill="#000000">    </text>
<text text-anchor="start" x="1024.9248" y="-955.3" font-family="Arial" font-size="14.00" fill="#666666">[BASE TABLE]</text>
<polygon fill="none" stroke="#000000" points="865.5,-912.5 865.5,-942.5 1161.5,-942.5 1161.5,-912.5 865.5,-912.5"/>
<text text-anchor="start" x="872.5" y="-923.9" font-family="Arial" font-size="14.00" fill="#000000">id    </text>
<text text-anchor="start" x="917.594" y="-923.9" font-family="Arial" font-size="14.00" fill="#666666">[uuid]</text>
<polygon fill="none" stroke="#000000" points="865.5,-882.5 865.5,-912.5 1161.5,-912.5 1161.5,-882.5 865.5,-882.5"/>
<text text-anchor="start" x="872.5" y="-893.9" font-family="Arial" font-size="14.00" fill="#000000">channel_id    </text>
<text text-anchor="start" x="974.3962" y="-893.9" font-family="Arial" font-size="14.00" fill="#666666">[uuid]</text>
<polygon fill="none" stroke="#000000" points="865.5,-852.5 865.5,-882.5 1161.5,-882.5 1161.5,-852.5 865.5,-852.5"/>
<text text-anchor="start" x="872.5" y="-863.9" font-family="Arial" font-size="14.00" fill="#000000">title    </text>
<text text-anchor="start" x="928.4818" y="-863.9" font-family="Arial" font-size="14.00" fill="#666666">[varchar(20)]</text>
<polygon fill="none" stroke="#000000" points="865.5,-822.5 865.5,-852.5 1161.5,-852.5 1161.5,-822.5 865.5,-822.5"/>
<text text-anchor="start" x="872.5" y="-833.9" font-family="Arial" font-size="14.00" fill="#000000">isOwner    </text>
<text text-anchor="start" x="958.0344" y="-833.9" font-family="Arial" font-size="14.00" fill="#666666">[boolean]</text>
<polygon fill="none" stroke="#000000" points="865.5,-792.5 865.5,-822.5 1161.5,-822.5 1161.5,-792.5 865.5,-792.5"/>
<text text-anchor="start" x="872.5" y="-803.9" font-family="Arial" font-size="14.00" fill="#000000">ranking    </text>
<text text-anchor="start" x="952.6024" y="-803.9" font-family="Arial" font-size="14.00" fill="#666666">[smallint]</text>
<polygon fill="none" stroke="#000000" points="865.5,-762.5 865.5,-792.5 1161.5,-792.5 1161.5,-762.5 865.5,-762.5"/>
<text text-anchor="start" x="872.5" y="-773.9" font-family="Arial" font-size="14.00" fill="#000000">can_create_roles    </text>
<text text-anchor="start" x="1014.0666" y="-773.9" font-family="Arial" font-size="14.00" fill="#666666">[boolean]</text>
<polygon fill="none" stroke="#000000" points="865.5,-732.5 865.5,-762.5 1161.5,-762.5 1161.5,-732.5 865.5,-732.5"/>
<text text-anchor="start" x="872.5" y="-743.9" font-family="Arial" font-size="14.00" fill="#000000">can_view_roles    </text>
<text text-anchor="start" x="1003.1634" y="-743.9" font-family="Arial" font-size="14.00" fill="#666666">[boolean]</text>
<polygon fill="none" stroke="#000000" points="865.5,-702.5 865.5,-732.5 1161.5,-732.5 1161.5,-702.5 865.5,-702.5"/>
<text text-anchor="start" x="872.5" y="-713.9" font-family="Arial" font-size="14.00" fill="#000000">can_edit_roles    </text>
<text text-anchor="start" x="997.73" y="-713.9" font-family="Arial" font-size="14.00" fill="#666666">[boolean]</text>
<polygon fill="none" stroke="#000000" points="865.5,-672.5 865.5,-702.5 1161.5,-702.5 1161.5,-672.5 865.5,-672.5"/>
<text text-anchor="start" x="872.5" y="-683.9" font-family="Arial" font-size="14.00" fill="#000000">can_delete_roles    </text>
<text text-anchor="start" x="1013.2952" y="-683.9" font-family="Arial" font-size="14.00" fill="#666666">[boolean]</text>
<polygon fill="none" stroke="#000000" points="865.5,-642.5 865.5,-672.5 1161.5,-672.5 1161.5,-642.5 865.5,-642.5"/>
<text text-anchor="start" x="872.5" y="-653.9" font-family="Arial" font-size="14.00" fill="#000000">can_assign_roles    </text>
<text text-anchor="start" x="1015.622" y="-653.9" font-family="Arial" font-size="14.00" fill="#666666">[boolean]</text>
<polygon fill="none" stroke="#000000" points="865.5,-612.5 865.5,-642.5 1161.5,-642.5 1161.5,-612.5 865.5,-612.5"/>
<text text-anchor="start" x="872.2876" y="-623.9" font-family="Arial" font-size="14.00" fill="#000000">can_set_message_of_the_day    </text>
<text text-anchor="start" x="1097.129" y="-623.9" font-family="Arial" font-size="14.00" fill="#666666">[boolean]</text>
<polygon fill="none" stroke="#000000" points="865.5,-582.5 865.5,-612.5 1161.5,-612.5 1161.5,-582.5 865.5,-582.5"/>
<text text-anchor="start" x="872.5" y="-593.9" font-family="Arial" font-size="14.00" fill="#000000">can_edit_name    </text>
<text text-anchor="start" x="1002.406" y="-593.9" font-family="Arial" font-size="14.00" fill="#666666">[boolean]</text>
<polygon fill="none" stroke="#000000" points="865.5,-552.5 865.5,-582.5 1161.5,-582.5 1161.5,-552.5 865.5,-552.5"/>
<text text-anchor="start" x="872.5" y="-563.9" font-family="Arial" font-size="14.00" fill="#000000">can_set_image    </text>
<text text-anchor="start" x="1001.6234" y="-563.9" font-family="Arial" font-size="14.00" fill="#666666">[boolean]</text>
<polygon fill="none" stroke="#000000" points="865.5,-522.5 865.5,-552.5 1161.5,-552.5 1161.5,-522.5 865.5,-522.5"/>
<text text-anchor="start" x="872.5" y="-533.9" font-family="Arial" font-size="14.00" fill="#000000">can_view_user_table    </text>
<text text-anchor="start" x="1038.1844" y="-533.9" font-family="Arial" font-size="14.00" fill="#666666">[boolean]</text>
<polygon fill="none" stroke="#000000" points="865.5,-492.5 865.5,-522.5 1161.5,-522.5 1161.5,-492.5 865.5,-492.5"/>
<text text-anchor="start" x="872.5" y="-503.9" font-family="Arial" font-size="14.00" fill="#000000">can_edit_tags    </text>
<text text-anchor="start" x="993.8534" y="-503.9" font-family="Arial" font-size="14.00" fill="#666666">[boolean]</text>
<polygon fill="none" stroke="#000000" points="865.5,-462.5 865.5,-492.5 1161.5,-492.5 1161.5,-462.5 865.5,-462.5"/>
<text text-anchor="start" x="872.5" y="-473.9" font-family="Arial" font-size="14.00" fill="#000000">can_set_guidelines    </text>
<text text-anchor="start" x="1026.5238" y="-473.9" font-family="Arial" font-size="14.00" fill="#666666">[boolean]</text>
<polygon fill="none" stroke="#000000" points="865.5,-432.5 865.5,-462.5 1161.5,-462.5 1161.5,-432.5 865.5,-432.5"/>
<text text-anchor="start" x="872.5" y="-443.9" font-family="Arial" font-size="14.00" fill="#000000">can_timeout_users    </text>
<text text-anchor="start" x="1024.9572" y="-443.9" font-family="Arial" font-size="14.00" fill="#666666">[boolean]</text>
<polygon fill="none" stroke="#000000" points="865.5,-402.5 865.5,-432.5 1161.5,-432.5 1161.5,-402.5 865.5,-402.5"/>
<text text-anchor="start" x="872.5" y="-413.9" font-family="Arial" font-size="14.00" fill="#000000">can_ban_users    </text>
<text text-anchor="start" x="1002.4088" y="-413.9" font-family="Arial" font-size="14.00" fill="#666666">[boolean]</text>
<polygon fill="none" stroke="#000000" points="865.5,-372.5 865.5,-402.5 1161.5,-402.5 1161.5,-372.5 865.5,-372.5"/>
<text text-anchor="start" x="872.5" y="-383.9" font-family="Arial" font-size="14.00" fill="#000000">can_view_banned_users    </text>
<text text-anchor="start" x="1061.535" y="-383.9" font-family="Arial" font-size="14.00" fill="#666666">[boolean]</text>
<polygon fill="none" stroke="#000000" points="865.5,-342.5 865.5,-372.5 1161.5,-372.5 1161.5,-342.5 865.5,-342.5"/>
<text text-anchor="start" x="872.5" y="-353.9" font-family="Arial" font-size="14.00" fill="#000000">can_unban_users    </text>
<text text-anchor="start" x="1017.974" y="-353.9" font-family="Arial" font-size="14.00" fill="#666666">[boolean]</text>
<polygon fill="none" stroke="#000000" points="865.5,-312.5 865.5,-342.5 1161.5,-342.5 1161.5,-312.5 865.5,-312.5"/>
<text text-anchor="start" x="872.5" y="-323.9" font-family="Arial" font-size="14.00" fill="#000000">can_delete_posts    </text>
<text text-anchor="start" x="1016.4186" y="-323.9" font-family="Arial" font-size="14.00" fill="#666666">[boolean]</text>
<polygon fill="none" stroke="#000000" points="865.5,-282.5 865.5,-312.5 1161.5,-312.5 1161.5,-282.5 865.5,-282.5"/>
<text text-anchor="start" x="872.5" y="-293.9" font-family="Arial" font-size="14.00" fill="#000000">can_delete_comments    </text>
<text text-anchor="start" x="1047.5224" y="-293.9" font-family="Arial" font-size="14.00" fill="#666666">[boolean]</text>
<polygon fill="none" stroke="#000000" points="865.5,-252.5 865.5,-282.5 1161.5,-282.5 1161.5,-252.5 865.5,-252.5"/>
<text text-anchor="start" x="872.5" y="-263.9" font-family="Arial" font-size="14.00" fill="#000000">can_edit_post_tags    </text>
<text text-anchor="start" x="1028.0918" y="-263.9" font-family="Arial" font-size="14.00" fill="#666666">[boolean]</text>
<polygon fill="none" stroke="#000000" points="865.5,-222.5 865.5,-252.5 1161.5,-252.5 1161.5,-222.5 865.5,-222.5"/>
<text text-anchor="start" x="872.5" y="-233.9" font-family="Arial" font-size="14.00" fill="#000000">can_view_post_reports    </text>
<text text-anchor="start" x="1050.629" y="-233.9" font-family="Arial" font-size="14.00" fill="#666666">[boolean]</text>
<polygon fill="none" stroke="#000000" points="865.5,-192.5 865.5,-222.5 1161.5,-222.5 1161.5,-192.5 865.5,-192.5"/>
<text text-anchor="start" x="872.5" y="-203.9" font-family="Arial" font-size="14.00" fill="#000000">can_update_post_reports    </text>
<text text-anchor="start" x="1065.4368" y="-203.9" font-family="Arial" font-size="14.00" fill="#666666">[boolean]</text>
<polygon fill="none" stroke="#000000" points="865.5,-162.5 865.5,-192.5 1161.5,-192.5 1161.5,-162.5 865.5,-162.5"/>
<text text-anchor="start" x="872.5" y="-173.9" font-family="Arial" font-size="14.00" fill="#000000">can_resolve_post_reports    </text>
<text text-anchor="start" x="1067.7482" y="-173.9" font-family="Arial" font-size="14.00" fill="#666666">[boolean]</text>
<polygon fill="none" stroke="#000000" points="865.5,-132.5 865.5,-162.5 1161.5,-162.5 1161.5,-132.5 865.5,-132.5"/>
<text text-anchor="start" x="872.5" y="-143.9" font-family="Arial" font-size="14.00" fill="#000000">can_register_events    </text>
<text text-anchor="start" x="1032.7398" y="-143.9" font-family="Arial" font-size="14.00" fill="#666666">[boolean]</text>
<polygon fill="none" stroke="#000000" points="865.5,-102.5 865.5,-132.5 1161.5,-132.5 1161.5,-102.5 865.5,-102.5"/>
<text text-anchor="start" x="872.5" y="-113.9" font-family="Arial" font-size="14.00" fill="#000000">can_view_events    </text>
<text text-anchor="start" x="1014.0694" y="-113.9" font-family="Arial" font-size="14.00" fill="#666666">[boolean]</text>
<polygon fill="none" stroke="#000000" points="865.5,-72.5 865.5,-102.5 1161.5,-102.5 1161.5,-72.5 865.5,-72.5"/>
<text text-anchor="start" x="872.5" y="-83.9" font-family="Arial" font-size="14.00" fill="#000000">can_edit_events    </text>
<text text-anchor="start" x="1008.636" y="-83.9" font-family="Arial" font-size="14.00" fill="#666666">[boolean]</text>
<polygon fill="none" stroke="#000000" points="865.5,-42.5 865.5,-72.5 1161.5,-72.5 1161.5,-42.5 865.5,-42.5"/>
<text text-anchor="start" x="872.5" y="-53.9" font-family="Arial" font-size="14.00" fill="#000000">can_unregister_events    </text>
<text text-anchor="start" x="1048.305" y="-53.9" font-family="Arial" font-size="14.00" fill="#666666">[boolean]</text>
</g>
<!-- public.invite&#45;&gt;public.role -->
<g id="edge3" class="edge">
<title>public.invite:role_id&#45;&gt;public.role:id</title>
<path fill="none" stroke="#000000" d="M754.6993,-1116.7502C795.7473,-1110.2317 787.2906,-1062.4221 813.5,-1021 838.9246,-980.8182 817.9502,-927.5 865.5,-927.5"/>
<polygon fill="#000000" stroke="#000000" points="754.4731,-1116.7667 744.17,-1113.0121 749.4865,-1117.1334 744.5,-1117.5 744.5,-1117.5 744.5,-1117.5 749.4865,-1117.1334 744.83,-1121.9879 754.4731,-1116.7667 754.4731,-1116.7667"/>
<text text-anchor="start" x="751.1155" y="-1127.5" font-family="Arial" font-size="10.00" fill="#000000">FOREIGN KEY (role_id) REFERENCES role(id)</text>
</g>
</g>
</svg>
