<?xml version="1.0" encoding="UTF-8" standalone="no"?>
<!DOCTYPE svg PUBLIC "-//W3C//DTD SVG 1.1//EN"
 "http://www.w3.org/Graphics/SVG/1.1/DTD/svg11.dtd">
<!-- Generated by graphviz version 2.40.1 (20161225.0304)
 -->
<!-- Title: public.playlist_post Pages: 1 -->
<svg width="796pt" height="682pt"
 viewBox="0.00 0.00 795.50 682.00" xmlns="http://www.w3.org/2000/svg" xmlns:xlink="http://www.w3.org/1999/xlink">
<g id="graph0" class="graph" transform="scale(1 1) rotate(0) translate(4 678)">
<title>public.playlist_post</title>
<polygon fill="#ffffff" stroke="transparent" points="-4,4 -4,-678 791.5,-678 791.5,4 -4,4"/>
<!-- public.playlist_post -->
<g id="node1" class="node">
<title>public.playlist_post</title>
<polygon fill="#efefef" stroke="transparent" points="254,-592.5 254,-627.5 546,-627.5 546,-592.5 254,-592.5"/>
<polygon fill="none" stroke="#000000" points="254,-592.5 254,-627.5 546,-627.5 546,-592.5 254,-592.5"/>
<text text-anchor="start" x="260.7024" y="-605.3" font-family="Arial Bold" font-size="18.00" fill="#000000">public.playlist_post</text>
<text text-anchor="start" x="411.7296" y="-605.3" font-family="Arial" font-size="14.00" fill="#000000">    </text>
<text text-anchor="start" x="445.9344" y="-605.3" font-family="Arial" font-size="14.00" fill="#666666">[BASE TABLE]</text>
<polygon fill="none" stroke="#000000" points="254,-562.5 254,-592.5 546,-592.5 546,-562.5 254,-562.5"/>
<text text-anchor="start" x="261" y="-573.9" font-family="Arial" font-size="14.00" fill="#000000">id </text>
<text text-anchor="start" x="275.7798" y="-573.9" font-family="Arial" font-size="14.00" fill="#666666">[uuid]</text>
<polygon fill="none" stroke="#000000" points="254,-532.5 254,-562.5 546,-562.5 546,-532.5 254,-532.5"/>
<text text-anchor="start" x="261" y="-543.9" font-family="Arial" font-size="14.00" fill="#000000">playlist_id </text>
<text text-anchor="start" x="326.338" y="-543.9" font-family="Arial" font-size="14.00" fill="#666666">[uuid]</text>
<polygon fill="none" stroke="#000000" points="254,-502.5 254,-532.5 546,-532.5 546,-502.5 254,-502.5"/>
<text text-anchor="start" x="261" y="-513.9" font-family="Arial" font-size="14.00" fill="#000000">post_id </text>
<text text-anchor="start" x="310.0182" y="-513.9" font-family="Arial" font-size="14.00" fill="#666666">[uuid]</text>
<polygon fill="none" stroke="#000000" points="254,-472.5 254,-502.5 546,-502.5 546,-472.5 254,-472.5"/>
<text text-anchor="start" x="261" y="-483.9" font-family="Arial" font-size="14.00" fill="#000000">sort_index </text>
<text text-anchor="start" x="329.4614" y="-483.9" font-family="Arial" font-size="14.00" fill="#666666">[smallint]</text>
<polygon fill="none" stroke="#000000" stroke-width="3" points="252.5,-471.5 252.5,-629.5 547.5,-629.5 547.5,-471.5 252.5,-471.5"/>
</g>
<!-- public.playlist -->
<g id="node2" class="node">
<title>public.playlist</title>
<polygon fill="#efefef" stroke="transparent" points="85,-252.5 85,-287.5 333,-287.5 333,-252.5 85,-252.5"/>
<polygon fill="none" stroke="#000000" points="85,-252.5 85,-287.5 333,-287.5 333,-252.5 85,-252.5"/>
<text text-anchor="start" x="91.7128" y="-265.3" font-family="Arial Bold" font-size="18.00" fill="#000000">public.playlist</text>
<text text-anchor="start" x="198.7192" y="-265.3" font-family="Arial" font-size="14.00" fill="#000000">    </text>
<text text-anchor="start" x="232.924" y="-265.3" font-family="Arial" font-size="14.00" fill="#666666">[BASE TABLE]</text>
<polygon fill="none" stroke="#000000" points="85,-222.5 85,-252.5 333,-252.5 333,-222.5 85,-222.5"/>
<text text-anchor="start" x="92" y="-233.9" font-family="Arial" font-size="14.00" fill="#000000">id    </text>
<text text-anchor="start" x="137.094" y="-233.9" font-family="Arial" font-size="14.00" fill="#666666">[uuid]</text>
<polygon fill="none" stroke="#000000" points="85,-192.5 85,-222.5 333,-222.5 333,-192.5 85,-192.5"/>
<text text-anchor="start" x="92" y="-203.9" font-family="Arial" font-size="14.00" fill="#000000">user_id    </text>
<text text-anchor="start" x="172.1024" y="-203.9" font-family="Arial" font-size="14.00" fill="#666666">[uuid]</text>
<polygon fill="none" stroke="#000000" points="85,-162.5 85,-192.5 333,-192.5 333,-162.5 85,-162.5"/>
<text text-anchor="start" x="92" y="-173.9" font-family="Arial" font-size="14.00" fill="#000000">name    </text>
<text text-anchor="start" x="161.2132" y="-173.9" font-family="Arial" font-size="14.00" fill="#666666">[varchar(32)]</text>
<polygon fill="none" stroke="#000000" points="85,-132.5 85,-162.5 333,-162.5 333,-132.5 85,-132.5"/>
<text text-anchor="start" x="92" y="-143.9" font-family="Arial" font-size="14.00" fill="#000000">description    </text>
<text text-anchor="start" x="193.8822" y="-143.9" font-family="Arial" font-size="14.00" fill="#666666">[text]</text>
<polygon fill="none" stroke="#000000" points="85,-102.5 85,-132.5 333,-132.5 333,-102.5 85,-102.5"/>
<text text-anchor="start" x="92" y="-113.9" font-family="Arial" font-size="14.00" fill="#000000">public    </text>
<text text-anchor="start" x="162.7658" y="-113.9" font-family="Arial" font-size="14.00" fill="#666666">[boolean]</text>
</g>
<!-- public.playlist_post&#45;&gt;public.playlist -->
<g id="edge1" class="edge">
<title>public.playlist_post:playlist_id&#45;&gt;public.playlist:id</title>
<path fill="none" stroke="#000000" d="M243.9867,-546.4917C205.3477,-537.7413 237.195,-473.8682 254,-427 272.65,-374.9864 314.35,-383.0136 333,-331 347.0258,-291.883 374.5556,-237.5 333,-237.5"/>
<polygon fill="#000000" stroke="#000000" points="244.0503,-546.498 253.5491,-551.9774 249.0252,-546.999 254,-547.5 254,-547.5 254,-547.5 249.0252,-546.999 254.4509,-543.0226 244.0503,-546.498 244.0503,-546.498"/>
<text text-anchor="start" x="6.7275" y="-557.5" font-family="Arial" font-size="10.00" fill="#000000">FOREIGN KEY (playlist_id) REFERENCES playlist(id)</text>
</g>
<!-- public.post -->
<g id="node3" class="node">
<title>public.post</title>
<polygon fill="#efefef" stroke="transparent" points="438,-312.5 438,-347.5 745,-347.5 745,-312.5 438,-312.5"/>
<polygon fill="none" stroke="#000000" points="438,-312.5 438,-347.5 745,-347.5 745,-312.5 438,-312.5"/>
<text text-anchor="start" x="484.7041" y="-325.3" font-family="Arial Bold" font-size="18.00" fill="#000000">public.post</text>
<text text-anchor="start" x="570.7279" y="-325.3" font-family="Arial" font-size="14.00" fill="#000000">    </text>
<text text-anchor="start" x="604.9327" y="-325.3" font-family="Arial" font-size="14.00" fill="#666666">[BASE TABLE]</text>
<polygon fill="none" stroke="#000000" points="438,-282.5 438,-312.5 745,-312.5 745,-282.5 438,-282.5"/>
<text text-anchor="start" x="445" y="-293.9" font-family="Arial" font-size="14.00" fill="#000000">id    </text>
<text text-anchor="start" x="490.094" y="-293.9" font-family="Arial" font-size="14.00" fill="#666666">[uuid]</text>
<polygon fill="none" stroke="#000000" points="438,-252.5 438,-282.5 745,-282.5 745,-252.5 438,-252.5"/>
<text text-anchor="start" x="445" y="-263.9" font-family="Arial" font-size="14.00" fill="#000000">name    </text>
<text text-anchor="start" x="514.2132" y="-263.9" font-family="Arial" font-size="14.00" fill="#666666">[text]</text>
<polygon fill="none" stroke="#000000" points="438,-222.5 438,-252.5 745,-252.5 745,-222.5 438,-222.5"/>
<text text-anchor="start" x="445" y="-233.9" font-family="Arial" font-size="14.00" fill="#000000">description    </text>
<text text-anchor="start" x="546.8822" y="-233.9" font-family="Arial" font-size="14.00" fill="#666666">[text]</text>
<polygon fill="none" stroke="#000000" points="438,-192.5 438,-222.5 745,-222.5 745,-192.5 438,-192.5"/>
<text text-anchor="start" x="445" y="-203.9" font-family="Arial" font-size="14.00" fill="#000000">alt_text    </text>
<text text-anchor="start" x="524.331" y="-203.9" font-family="Arial" font-size="14.00" fill="#666666">[text]</text>
<polygon fill="none" stroke="#000000" points="438,-162.5 438,-192.5 745,-192.5 745,-162.5 438,-162.5"/>
<text text-anchor="start" x="445" y="-173.9" font-family="Arial" font-size="14.00" fill="#000000">created_by    </text>
<text text-anchor="start" x="548.4516" y="-173.9" font-family="Arial" font-size="14.00" fill="#666666">[uuid]</text>
<polygon fill="none" stroke="#000000" points="438,-132.5 438,-162.5 745,-162.5 745,-132.5 438,-132.5"/>
<text text-anchor="start" x="445" y="-143.9" font-family="Arial" font-size="14.00" fill="#000000">channel_id    </text>
<text text-anchor="start" x="546.8962" y="-143.9" font-family="Arial" font-size="14.00" fill="#666666">[uuid]</text>
<polygon fill="none" stroke="#000000" points="438,-102.5 438,-132.5 745,-132.5 745,-102.5 438,-102.5"/>
<text text-anchor="start" x="445" y="-113.9" font-family="Arial" font-size="14.00" fill="#000000">video_id    </text>
<text text-anchor="start" x="531.331" y="-113.9" font-family="Arial" font-size="14.00" fill="#666666">[text]</text>
<polygon fill="none" stroke="#000000" points="438,-72.5 438,-102.5 745,-102.5 745,-72.5 438,-72.5"/>
<text text-anchor="start" x="445" y="-83.9" font-family="Arial" font-size="14.00" fill="#000000">created_on    </text>
<text text-anchor="start" x="549.2342" y="-83.9" font-family="Arial" font-size="14.00" fill="#666666">[timestamp without time zone]</text>
<polygon fill="none" stroke="#000000" points="438,-42.5 438,-72.5 745,-72.5 745,-42.5 438,-42.5"/>
<text text-anchor="start" x="444.8605" y="-53.9" font-family="Arial" font-size="14.00" fill="#000000">updated_on    </text>
<text text-anchor="start" x="552.9993" y="-53.9" font-family="Arial" font-size="14.00" fill="#666666">[timestamp without time zone]</text>
</g>
<!-- public.playlist_post&#45;&gt;public.post -->
<g id="edge2" class="edge">
<title>public.playlist_post:post_id&#45;&gt;public.post:id</title>
<path fill="none" stroke="#000000" d="M556.2019,-515.9217C582.8948,-506.438 567.2216,-456.4434 546,-427 516.4157,-385.954 467.5843,-432.046 438,-391 413.702,-357.2884 396.4444,-297.5 438,-297.5"/>
<polygon fill="#000000" stroke="#000000" points="555.8824,-515.9711 545.312,-513.0529 550.9412,-516.7355 546,-517.5 546,-517.5 546,-517.5 550.9412,-516.7355 546.688,-521.9471 555.8824,-515.9711 555.8824,-515.9711"/>
<text text-anchor="start" x="553.3845" y="-527.5" font-family="Arial" font-size="10.00" fill="#000000">FOREIGN KEY (post_id) REFERENCES post(id)</text>
</g>
</g>
</svg>
