<?xml version="1.0" encoding="UTF-8" standalone="no"?>
<!DOCTYPE svg PUBLIC "-//W3C//DTD SVG 1.1//EN"
 "http://www.w3.org/Graphics/SVG/1.1/DTD/svg11.dtd">
<!-- Generated by graphviz version 2.40.1 (20161225.0304)
 -->
<!-- Title: public.channel_report Pages: 1 -->
<svg width="630pt" height="652pt"
 viewBox="0.00 0.00 629.50 652.00" xmlns="http://www.w3.org/2000/svg" xmlns:xlink="http://www.w3.org/1999/xlink">
<g id="graph0" class="graph" transform="scale(1 1) rotate(0) translate(4 648)">
<title>public.channel_report</title>
<polygon fill="#ffffff" stroke="transparent" points="-4,4 -4,-648 625.5,-648 625.5,4 -4,4"/>
<!-- public.channel_report -->
<g id="node1" class="node">
<title>public.channel_report</title>
<polygon fill="#efefef" stroke="transparent" points="263,-562.5 263,-597.5 576,-597.5 576,-562.5 263,-562.5"/>
<polygon fill="none" stroke="#000000" points="263,-562.5 263,-597.5 576,-597.5 576,-562.5 263,-562.5"/>
<text text-anchor="start" x="269.6931" y="-575.3" font-family="Arial Bold" font-size="18.00" fill="#000000">public.channel_report</text>
<text text-anchor="start" x="441.7389" y="-575.3" font-family="Arial" font-size="14.00" fill="#000000">    </text>
<text text-anchor="start" x="475.9437" y="-575.3" font-family="Arial" font-size="14.00" fill="#666666">[BASE TABLE]</text>
<polygon fill="none" stroke="#000000" points="263,-532.5 263,-562.5 576,-562.5 576,-532.5 263,-532.5"/>
<text text-anchor="start" x="270" y="-543.9" font-family="Arial" font-size="14.00" fill="#000000">id </text>
<text text-anchor="start" x="284.7798" y="-543.9" font-family="Arial" font-size="14.00" fill="#666666">[uuid]</text>
<polygon fill="none" stroke="#000000" points="263,-502.5 263,-532.5 576,-532.5 576,-502.5 263,-502.5"/>
<text text-anchor="start" x="270" y="-513.9" font-family="Arial" font-size="14.00" fill="#000000">channel_id </text>
<text text-anchor="start" x="341.582" y="-513.9" font-family="Arial" font-size="14.00" fill="#666666">[uuid]</text>
<polygon fill="none" stroke="#000000" points="263,-472.5 263,-502.5 576,-502.5 576,-472.5 263,-472.5"/>
<text text-anchor="start" x="270" y="-483.9" font-family="Arial" font-size="14.00" fill="#000000">description </text>
<text text-anchor="start" x="341.568" y="-483.9" font-family="Arial" font-size="14.00" fill="#666666">[text]</text>
<polygon fill="none" stroke="#000000" points="263,-442.5 263,-472.5 576,-472.5 576,-442.5 263,-442.5"/>
<text text-anchor="start" x="270" y="-453.9" font-family="Arial" font-size="14.00" fill="#000000">resolution </text>
<text text-anchor="start" x="334.568" y="-453.9" font-family="Arial" font-size="14.00" fill="#666666">[text]</text>
<polygon fill="none" stroke="#000000" points="263,-412.5 263,-442.5 576,-442.5 576,-412.5 263,-412.5"/>
<text text-anchor="start" x="270" y="-423.9" font-family="Arial" font-size="14.00" fill="#000000">status </text>
<text text-anchor="start" x="311.237" y="-423.9" font-family="Arial" font-size="14.00" fill="#666666">[report_status]</text>
<polygon fill="none" stroke="#000000" stroke-width="3" points="261,-411.5 261,-599.5 577,-599.5 577,-411.5 261,-411.5"/>
</g>
<!-- public.channel -->
<g id="node2" class="node">
<title>public.channel</title>
<polygon fill="#efefef" stroke="transparent" points="266,-252.5 266,-287.5 573,-287.5 573,-252.5 266,-252.5"/>
<polygon fill="none" stroke="#000000" points="266,-252.5 266,-287.5 573,-287.5 573,-252.5 266,-252.5"/>
<text text-anchor="start" x="298.1988" y="-265.3" font-family="Arial Bold" font-size="18.00" fill="#000000">public.channel</text>
<text text-anchor="start" x="413.2332" y="-265.3" font-family="Arial" font-size="14.00" fill="#000000">    </text>
<text text-anchor="start" x="447.438" y="-265.3" font-family="Arial" font-size="14.00" fill="#666666">[BASE TABLE]</text>
<polygon fill="none" stroke="#000000" points="266,-222.5 266,-252.5 573,-252.5 573,-222.5 266,-222.5"/>
<text text-anchor="start" x="273" y="-233.9" font-family="Arial" font-size="14.00" fill="#000000">id    </text>
<text text-anchor="start" x="318.094" y="-233.9" font-family="Arial" font-size="14.00" fill="#666666">[uuid]</text>
<polygon fill="none" stroke="#000000" points="266,-192.5 266,-222.5 573,-222.5 573,-192.5 266,-192.5"/>
<text text-anchor="start" x="273" y="-203.9" font-family="Arial" font-size="14.00" fill="#000000">name    </text>
<text text-anchor="start" x="342.2132" y="-203.9" font-family="Arial" font-size="14.00" fill="#666666">[text]</text>
<polygon fill="none" stroke="#000000" points="266,-162.5 266,-192.5 573,-192.5 573,-162.5 266,-162.5"/>
<text text-anchor="start" x="273" y="-173.9" font-family="Arial" font-size="14.00" fill="#000000">description    </text>
<text text-anchor="start" x="374.8822" y="-173.9" font-family="Arial" font-size="14.00" fill="#666666">[text]</text>
<polygon fill="none" stroke="#000000" points="266,-132.5 266,-162.5 573,-162.5 573,-132.5 266,-132.5"/>
<text text-anchor="start" x="273" y="-143.9" font-family="Arial" font-size="14.00" fill="#000000">guidelines    </text>
<text text-anchor="start" x="370.2202" y="-143.9" font-family="Arial" font-size="14.00" fill="#666666">[text]</text>
<polygon fill="none" stroke="#000000" points="266,-102.5 266,-132.5 573,-132.5 573,-102.5 266,-102.5"/>
<text text-anchor="start" x="273" y="-113.9" font-family="Arial" font-size="14.00" fill="#000000">created_by    </text>
<text text-anchor="start" x="376.4516" y="-113.9" font-family="Arial" font-size="14.00" fill="#666666">[uuid]</text>
<polygon fill="none" stroke="#000000" points="266,-72.5 266,-102.5 573,-102.5 573,-72.5 266,-72.5"/>
<text text-anchor="start" x="273" y="-83.9" font-family="Arial" font-size="14.00" fill="#000000">created_on    </text>
<text text-anchor="start" x="377.2342" y="-83.9" font-family="Arial" font-size="14.00" fill="#666666">[timestamp without time zone]</text>
<polygon fill="none" stroke="#000000" points="266,-42.5 266,-72.5 573,-72.5 573,-42.5 266,-42.5"/>
<text text-anchor="start" x="272.8605" y="-53.9" font-family="Arial" font-size="14.00" fill="#000000">updated_on    </text>
<text text-anchor="start" x="380.9993" y="-53.9" font-family="Arial" font-size="14.00" fill="#666666">[timestamp without time zone]</text>
</g>
<!-- public.channel_report&#45;&gt;public.channel -->
<g id="edge1" class="edge">
<title>public.channel_report:channel_id&#45;&gt;public.channel:id</title>
<path fill="none" stroke="#000000" d="M253.0532,-514.9069C201.3041,-486.6795 207.2987,-237.5 266,-237.5"/>
<polygon fill="#000000" stroke="#000000" points="253.3234,-514.9773 261.8648,-521.8545 258.1617,-516.2386 263,-517.5 263,-517.5 263,-517.5 258.1617,-516.2386 264.1352,-513.1455 253.3234,-514.9773 253.3234,-514.9773"/>
<text text-anchor="start" x="7.2675" y="-527.5" font-family="Arial" font-size="10.00" fill="#000000">FOREIGN KEY (channel_id) REFERENCES channel(id)</text>
</g>
</g>
</svg>
