<?xml version="1.0" encoding="UTF-8" standalone="no"?>
<!DOCTYPE svg PUBLIC "-//W3C//DTD SVG 1.1//EN"
 "http://www.w3.org/Graphics/SVG/1.1/DTD/svg11.dtd">
<!-- Generated by graphviz version 12.1.2 (20240928.0832)
 -->
<!-- Title: public.channel_report Pages: 1 -->
<svg width="615pt" height="787pt"
 viewBox="0.00 0.00 614.66 786.80" xmlns="http://www.w3.org/2000/svg" xmlns:xlink="http://www.w3.org/1999/xlink">
<g id="graph0" class="graph" transform="scale(1 1) rotate(0) translate(4 782.8)">
<title>public.channel_report</title>
<polygon fill="white" stroke="none" points="-4,4 -4,-782.8 610.66,-782.8 610.66,4 -4,4"/>
<!-- public.channel_report -->
<g id="node1" class="node">
<title>public.channel_report</title>
<polygon fill="#efefef" stroke="none" points="46.2,-697 46.2,-732.6 342.13,-732.6 342.13,-697 46.2,-697"/>
<polygon fill="none" stroke="black" points="46.2,-697 46.2,-732.6 342.13,-732.6 342.13,-697 46.2,-697"/>
<text text-anchor="start" x="53.2" y="-710.4" font-family="Arial Bold" font-size="18.00">public.channel_report</text>
<text text-anchor="start" x="210.64" y="-710.4" font-family="Arial" font-size="14.00">    </text>
<text text-anchor="start" x="241.76" y="-710.4" font-family="Arial" font-size="14.00" fill="#666666">[BASE TABLE]</text>
<polygon fill="none" stroke="black" points="46.2,-666.2 46.2,-697 342.13,-697 342.13,-666.2 46.2,-666.2"/>
<text text-anchor="start" x="53.2" y="-678.4" font-family="Arial" font-size="14.00">id </text>
<text text-anchor="start" x="67.99" y="-678.4" font-family="Arial" font-size="14.00" fill="#666666">[uuid]</text>
<polygon fill="none" stroke="black" points="46.2,-635.4 46.2,-666.2 342.13,-666.2 342.13,-635.4 46.2,-635.4"/>
<text text-anchor="start" x="53.2" y="-647.6" font-family="Arial" font-size="14.00">channel_id </text>
<text text-anchor="start" x="124.81" y="-647.6" font-family="Arial" font-size="14.00" fill="#666666">[uuid]</text>
<polygon fill="none" stroke="black" points="46.2,-604.6 46.2,-635.4 342.13,-635.4 342.13,-604.6 46.2,-604.6"/>
<text text-anchor="start" x="53.2" y="-616.8" font-family="Arial" font-size="14.00">description </text>
<text text-anchor="start" x="124.79" y="-616.8" font-family="Arial" font-size="14.00" fill="#666666">[text]</text>
<polygon fill="none" stroke="black" points="46.2,-573.8 46.2,-604.6 342.13,-604.6 342.13,-573.8 46.2,-573.8"/>
<text text-anchor="start" x="53.2" y="-586" font-family="Arial" font-size="14.00">resolution </text>
<text text-anchor="start" x="117.79" y="-586" font-family="Arial" font-size="14.00" fill="#666666">[text]</text>
<polygon fill="none" stroke="black" points="46.2,-543 46.2,-573.8 342.13,-573.8 342.13,-543 46.2,-543"/>
<text text-anchor="start" x="53.2" y="-555.2" font-family="Arial" font-size="14.00">status </text>
<text text-anchor="start" x="94.44" y="-555.2" font-family="Arial" font-size="14.00" fill="#666666">[report_status]</text>
<polygon fill="none" stroke="black" stroke-width="3" points="44.7,-541.5 44.7,-734.1 343.63,-734.1 343.63,-541.5 44.7,-541.5"/>
</g>
<!-- public.channel -->
<g id="node2" class="node">
<title>public.channel</title>
<polygon fill="#efefef" stroke="none" points="55.64,-382 55.64,-417.6 332.68,-417.6 332.68,-382 55.64,-382"/>
<polygon fill="none" stroke="black" points="55.64,-382 55.64,-417.6 332.68,-417.6 332.68,-382 55.64,-382"/>
<text text-anchor="start" x="79.19" y="-395.4" font-family="Arial Bold" font-size="18.00">public.channel</text>
<text text-anchor="start" x="184.65" y="-395.4" font-family="Arial" font-size="14.00">    </text>
<text text-anchor="start" x="215.77" y="-395.4" font-family="Arial" font-size="14.00" fill="#666666">[BASE TABLE]</text>
<polygon fill="none" stroke="black" points="55.64,-351.2 55.64,-382 332.68,-382 332.68,-351.2 55.64,-351.2"/>
<text text-anchor="start" x="62.64" y="-363.4" font-family="Arial" font-size="14.00">id </text>
<text text-anchor="start" x="77.43" y="-363.4" font-family="Arial" font-size="14.00" fill="#666666">[uuid]</text>
<polygon fill="none" stroke="black" points="55.64,-320.4 55.64,-351.2 332.68,-351.2 332.68,-320.4 55.64,-320.4"/>
<text text-anchor="start" x="62.64" y="-332.6" font-family="Arial" font-size="14.00">name </text>
<text text-anchor="start" x="101.55" y="-332.6" font-family="Arial" font-size="14.00" fill="#666666">[text]</text>
<polygon fill="none" stroke="black" points="55.64,-289.6 55.64,-320.4 332.68,-320.4 332.68,-289.6 55.64,-289.6"/>
<text text-anchor="start" x="62.64" y="-301.8" font-family="Arial" font-size="14.00">description </text>
<text text-anchor="start" x="134.24" y="-301.8" font-family="Arial" font-size="14.00" fill="#666666">[text]</text>
<polygon fill="none" stroke="black" points="55.64,-258.8 55.64,-289.6 332.68,-289.6 332.68,-258.8 55.64,-258.8"/>
<text text-anchor="start" x="62.64" y="-271" font-family="Arial" font-size="14.00">guidelines </text>
<text text-anchor="start" x="129.58" y="-271" font-family="Arial" font-size="14.00" fill="#666666">[text]</text>
<polygon fill="none" stroke="black" points="55.64,-228 55.64,-258.8 332.68,-258.8 332.68,-228 55.64,-228"/>
<text text-anchor="start" x="62.64" y="-240.2" font-family="Arial" font-size="14.00">created_by </text>
<text text-anchor="start" x="135.8" y="-240.2" font-family="Arial" font-size="14.00" fill="#666666">[uuid]</text>
<polygon fill="none" stroke="black" points="55.64,-197.2 55.64,-228 332.68,-228 332.68,-197.2 55.64,-197.2"/>
<text text-anchor="start" x="62.64" y="-209.4" font-family="Arial" font-size="14.00">banner_image </text>
<text text-anchor="start" x="156.04" y="-209.4" font-family="Arial" font-size="14.00" fill="#666666">[text]</text>
<polygon fill="none" stroke="black" points="55.64,-166.4 55.64,-197.2 332.68,-197.2 332.68,-166.4 55.64,-166.4"/>
<text text-anchor="start" x="62.64" y="-178.6" font-family="Arial" font-size="14.00">icon </text>
<text text-anchor="start" x="92.22" y="-178.6" font-family="Arial" font-size="14.00" fill="#666666">[text]</text>
<polygon fill="none" stroke="black" points="55.64,-135.6 55.64,-166.4 332.68,-166.4 332.68,-135.6 55.64,-135.6"/>
<text text-anchor="start" x="62.64" y="-147.8" font-family="Arial" font-size="14.00">created_on </text>
<text text-anchor="start" x="136.59" y="-147.8" font-family="Arial" font-size="14.00" fill="#666666">[timestamp without time zone]</text>
<polygon fill="none" stroke="black" points="55.64,-104.8 55.64,-135.6 332.68,-135.6 332.68,-104.8 55.64,-104.8"/>
<text text-anchor="start" x="62.64" y="-117" font-family="Arial" font-size="14.00">updated_on </text>
<text text-anchor="start" x="140.5" y="-117" font-family="Arial" font-size="14.00" fill="#666666">[timestamp without time zone]</text>
<polygon fill="none" stroke="black" points="55.64,-74 55.64,-104.8 332.68,-104.8 332.68,-74 55.64,-74"/>
<text text-anchor="start" x="62.64" y="-86.2" font-family="Arial" font-size="14.00">subscribers </text>
<text text-anchor="start" x="138.11" y="-86.2" font-family="Arial" font-size="14.00" fill="#666666">[integer]</text>
<polygon fill="none" stroke="black" points="55.64,-43.2 55.64,-74 332.68,-74 332.68,-43.2 55.64,-43.2"/>
<text text-anchor="start" x="62.64" y="-55.4" font-family="Arial" font-size="14.00">posts </text>
<text text-anchor="start" x="100" y="-55.4" font-family="Arial" font-size="14.00" fill="#666666">[integer]</text>
</g>
<!-- public.channel_report&#45;&gt;public.channel -->
<g id="edge1" class="edge">
<title>public.channel_report:channel_id&#45;&gt;public.channel:id</title>
<path fill="none" stroke="black" d="M353.17,-648.17C405.08,-619.52 393.3,-366.6 333.68,-366.6"/>
<polygon fill="black" stroke="black" points="353.12,-648.18 342.31,-646.36 347.96,-649.53 343.77,-650.63 343.77,-650.63 343.77,-650.63 347.96,-649.53 344.59,-655.07 353.12,-648.18"/>
<text text-anchor="start" x="350.13" y="-660.8" font-family="Arial" font-size="10.00">FOREIGN KEY (channel_id) REFERENCES channel(id)</text>
</g>
</g>
</svg>
