<?xml version="1.0" encoding="UTF-8" standalone="no"?>
<!DOCTYPE svg PUBLIC "-//W3C//DTD SVG 1.1//EN"
 "http://www.w3.org/Graphics/SVG/1.1/DTD/svg11.dtd">
<!-- Generated by graphviz version 2.40.1 (20161225.0304)
 -->
<!-- Title: public.user_report Pages: 1 -->
<svg width="586pt" height="742pt"
 viewBox="0.00 0.00 585.50 742.00" xmlns="http://www.w3.org/2000/svg" xmlns:xlink="http://www.w3.org/1999/xlink">
<g id="graph0" class="graph" transform="scale(1 1) rotate(0) translate(4 738)">
<title>public.user_report</title>
<polygon fill="#ffffff" stroke="transparent" points="-4,4 -4,-738 581.5,-738 581.5,4 -4,4"/>
<!-- public.user_report -->
<g id="node1" class="node">
<title>public.user_report</title>
<polygon fill="#efefef" stroke="transparent" points="239,-652.5 239,-687.5 524,-687.5 524,-652.5 239,-652.5"/>
<polygon fill="none" stroke="#000000" points="239,-652.5 239,-687.5 524,-687.5 524,-652.5 239,-652.5"/>
<text text-anchor="start" x="245.7034" y="-665.3" font-family="Arial Bold" font-size="18.00" fill="#000000">public.user_report</text>
<text text-anchor="start" x="389.7286" y="-665.3" font-family="Arial" font-size="14.00" fill="#000000">    </text>
<text text-anchor="start" x="423.9334" y="-665.3" font-family="Arial" font-size="14.00" fill="#666666">[BASE TABLE]</text>
<polygon fill="none" stroke="#000000" points="239,-622.5 239,-652.5 524,-652.5 524,-622.5 239,-622.5"/>
<text text-anchor="start" x="246" y="-633.9" font-family="Arial" font-size="14.00" fill="#000000">id </text>
<text text-anchor="start" x="260.7798" y="-633.9" font-family="Arial" font-size="14.00" fill="#666666">[uuid]</text>
<polygon fill="none" stroke="#000000" points="239,-592.5 239,-622.5 524,-622.5 524,-592.5 239,-592.5"/>
<text text-anchor="start" x="246" y="-603.9" font-family="Arial" font-size="14.00" fill="#000000">user_id </text>
<text text-anchor="start" x="295.7882" y="-603.9" font-family="Arial" font-size="14.00" fill="#666666">[uuid]</text>
<polygon fill="none" stroke="#000000" points="239,-562.5 239,-592.5 524,-592.5 524,-562.5 239,-562.5"/>
<text text-anchor="start" x="246" y="-573.9" font-family="Arial" font-size="14.00" fill="#000000">description </text>
<text text-anchor="start" x="317.568" y="-573.9" font-family="Arial" font-size="14.00" fill="#666666">[text]</text>
<polygon fill="none" stroke="#000000" points="239,-532.5 239,-562.5 524,-562.5 524,-532.5 239,-532.5"/>
<text text-anchor="start" x="246" y="-543.9" font-family="Arial" font-size="14.00" fill="#000000">resolution </text>
<text text-anchor="start" x="310.568" y="-543.9" font-family="Arial" font-size="14.00" fill="#666666">[text]</text>
<polygon fill="none" stroke="#000000" points="239,-502.5 239,-532.5 524,-532.5 524,-502.5 239,-502.5"/>
<text text-anchor="start" x="246" y="-513.9" font-family="Arial" font-size="14.00" fill="#000000">status </text>
<text text-anchor="start" x="287.237" y="-513.9" font-family="Arial" font-size="14.00" fill="#666666">[report_status]</text>
<polygon fill="none" stroke="#000000" stroke-width="3" points="237,-501.5 237,-689.5 525,-689.5 525,-501.5 237,-501.5"/>
</g>
<!-- public.user -->
<g id="node2" class="node">
<title>public.user</title>
<polygon fill="#efefef" stroke="transparent" points="228,-342.5 228,-377.5 535,-377.5 535,-342.5 228,-342.5"/>
<polygon fill="none" stroke="#000000" points="228,-342.5 228,-377.5 535,-377.5 535,-342.5 228,-342.5"/>
<text text-anchor="start" x="274.2091" y="-355.3" font-family="Arial Bold" font-size="18.00" fill="#000000">public.user</text>
<text text-anchor="start" x="361.2229" y="-355.3" font-family="Arial" font-size="14.00" fill="#000000">    </text>
<text text-anchor="start" x="395.4277" y="-355.3" font-family="Arial" font-size="14.00" fill="#666666">[BASE TABLE]</text>
<polygon fill="none" stroke="#000000" points="228,-312.5 228,-342.5 535,-342.5 535,-312.5 228,-312.5"/>
<text text-anchor="start" x="235" y="-323.9" font-family="Arial" font-size="14.00" fill="#000000">id    </text>
<text text-anchor="start" x="280.094" y="-323.9" font-family="Arial" font-size="14.00" fill="#666666">[uuid]</text>
<polygon fill="none" stroke="#000000" points="228,-282.5 228,-312.5 535,-312.5 535,-282.5 228,-282.5"/>
<text text-anchor="start" x="235" y="-293.9" font-family="Arial" font-size="14.00" fill="#000000">username    </text>
<text text-anchor="start" x="331.439" y="-293.9" font-family="Arial" font-size="14.00" fill="#666666">[varchar(25)]</text>
<polygon fill="none" stroke="#000000" points="228,-252.5 228,-282.5 535,-282.5 535,-252.5 228,-252.5"/>
<text text-anchor="start" x="235" y="-263.9" font-family="Arial" font-size="14.00" fill="#000000">profile_image    </text>
<text text-anchor="start" x="353.2146" y="-263.9" font-family="Arial" font-size="14.00" fill="#666666">[text]</text>
<polygon fill="none" stroke="#000000" points="228,-222.5 228,-252.5 535,-252.5 535,-222.5 228,-222.5"/>
<text text-anchor="start" x="235" y="-233.9" font-family="Arial" font-size="14.00" fill="#000000">role    </text>
<text text-anchor="start" x="292.5372" y="-233.9" font-family="Arial" font-size="14.00" fill="#666666">[site_role]</text>
<polygon fill="none" stroke="#000000" points="228,-192.5 228,-222.5 535,-222.5 535,-192.5 228,-192.5"/>
<text text-anchor="start" x="235" y="-203.9" font-family="Arial" font-size="14.00" fill="#000000">created_on    </text>
<text text-anchor="start" x="339.2342" y="-203.9" font-family="Arial" font-size="14.00" fill="#666666">[timestamp without time zone]</text>
<polygon fill="none" stroke="#000000" points="228,-162.5 228,-192.5 535,-192.5 535,-162.5 228,-162.5"/>
<text text-anchor="start" x="234.8605" y="-173.9" font-family="Arial" font-size="14.00" fill="#000000">updated_on    </text>
<text text-anchor="start" x="342.9993" y="-173.9" font-family="Arial" font-size="14.00" fill="#666666">[timestamp without time zone]</text>
<polygon fill="none" stroke="#000000" points="228,-132.5 228,-162.5 535,-162.5 535,-132.5 228,-132.5"/>
<text text-anchor="start" x="235" y="-143.9" font-family="Arial" font-size="14.00" fill="#000000">discord_id    </text>
<text text-anchor="start" x="332.9916" y="-143.9" font-family="Arial" font-size="14.00" fill="#666666">[bigint]</text>
<polygon fill="none" stroke="#000000" points="228,-102.5 228,-132.5 535,-132.5 535,-102.5 228,-102.5"/>
<text text-anchor="start" x="235" y="-113.9" font-family="Arial" font-size="14.00" fill="#000000">github_id    </text>
<text text-anchor="start" x="326.0042" y="-113.9" font-family="Arial" font-size="14.00" fill="#666666">[integer]</text>
<polygon fill="none" stroke="#000000" points="228,-72.5 228,-102.5 535,-102.5 535,-72.5 228,-72.5"/>
<text text-anchor="start" x="235" y="-83.9" font-family="Arial" font-size="14.00" fill="#000000">followers    </text>
<text text-anchor="start" x="324.4236" y="-83.9" font-family="Arial" font-size="14.00" fill="#666666">[integer]</text>
<polygon fill="none" stroke="#000000" points="228,-42.5 228,-72.5 535,-72.5 535,-42.5 228,-42.5"/>
<text text-anchor="start" x="235" y="-53.9" font-family="Arial" font-size="14.00" fill="#000000">following    </text>
<text text-anchor="start" x="323.6522" y="-53.9" font-family="Arial" font-size="14.00" fill="#666666">[integer]</text>
</g>
<!-- public.user_report&#45;&gt;public.user -->
<g id="edge1" class="edge">
<title>public.user_report:user_id&#45;&gt;public.user:id</title>
<path fill="none" stroke="#000000" d="M229.2474,-605.0794C175.7458,-577.7124 169.1352,-327.5 228,-327.5"/>
<polygon fill="#000000" stroke="#000000" points="229.2945,-605.091 237.9159,-611.8675 234.1472,-606.2955 239,-607.5 239,-607.5 239,-607.5 234.1472,-606.2955 240.0841,-603.1325 229.2945,-605.091 229.2945,-605.091"/>
<text text-anchor="start" x="7.2855" y="-617.5" font-family="Arial" font-size="10.00" fill="#000000">FOREIGN KEY (user_id) REFERENCES &quot;user&quot;(id)</text>
</g>
</g>
</svg>
