<?xml version="1.0" encoding="UTF-8" standalone="no"?>
<!DOCTYPE svg PUBLIC "-//W3C//DTD SVG 1.1//EN"
 "http://www.w3.org/Graphics/SVG/1.1/DTD/svg11.dtd">
<!-- Generated by graphviz version 12.1.2 (20240928.0832)
 -->
<!-- Title: public.comment Pages: 1 -->
<svg width="823pt" height="1191pt"
 viewBox="0.00 0.00 822.86 1191.20" xmlns="http://www.w3.org/2000/svg" xmlns:xlink="http://www.w3.org/1999/xlink">
<g id="graph0" class="graph" transform="scale(1 1) rotate(0) translate(4 1187.2)">
<title>public.comment</title>
<polygon fill="white" stroke="none" points="-4,4 -4,-1187.2 818.86,-1187.2 818.86,4 -4,4"/>
<!-- public.comment -->
<g id="node1" class="node">
<title>public.comment</title>
<polygon fill="#efefef" stroke="none" points="252.15,-851 252.15,-886.6 529.19,-886.6 529.19,-851 252.15,-851"/>
<polygon fill="none" stroke="black" points="252.15,-851 252.15,-886.6 529.19,-886.6 529.19,-851 252.15,-851"/>
<text text-anchor="start" x="270.19" y="-864.4" font-family="Arial Bold" font-size="18.00">public.comment</text>
<text text-anchor="start" x="386.66" y="-864.4" font-family="Arial" font-size="14.00">    </text>
<text text-anchor="start" x="417.78" y="-864.4" font-family="Arial" font-size="14.00" fill="#666666">[BASE TABLE]</text>
<polygon fill="none" stroke="black" points="252.15,-820.2 252.15,-851 529.19,-851 529.19,-820.2 252.15,-820.2"/>
<text text-anchor="start" x="259.15" y="-832.4" font-family="Arial" font-size="14.00">id </text>
<text text-anchor="start" x="273.93" y="-832.4" font-family="Arial" font-size="14.00" fill="#666666">[uuid]</text>
<polygon fill="none" stroke="black" points="252.15,-789.4 252.15,-820.2 529.19,-820.2 529.19,-789.4 252.15,-789.4"/>
<text text-anchor="start" x="259.15" y="-801.6" font-family="Arial" font-size="14.00">content </text>
<text text-anchor="start" x="308.96" y="-801.6" font-family="Arial" font-size="14.00" fill="#666666">[text]</text>
<polygon fill="none" stroke="black" points="252.15,-758.6 252.15,-789.4 529.19,-789.4 529.19,-758.6 252.15,-758.6"/>
<text text-anchor="start" x="259.15" y="-770.8" font-family="Arial" font-size="14.00">creator_id </text>
<text text-anchor="start" x="325.29" y="-770.8" font-family="Arial" font-size="14.00" fill="#666666">[uuid]</text>
<polygon fill="none" stroke="black" points="252.15,-727.8 252.15,-758.6 529.19,-758.6 529.19,-727.8 252.15,-727.8"/>
<text text-anchor="start" x="259.15" y="-740" font-family="Arial" font-size="14.00">post_id </text>
<text text-anchor="start" x="308.18" y="-740" font-family="Arial" font-size="14.00" fill="#666666">[uuid]</text>
<polygon fill="none" stroke="black" points="252.15,-697 252.15,-727.8 529.19,-727.8 529.19,-697 252.15,-697"/>
<text text-anchor="start" x="259.15" y="-709.2" font-family="Arial" font-size="14.00">reply_to </text>
<text text-anchor="start" x="312.84" y="-709.2" font-family="Arial" font-size="14.00" fill="#666666">[uuid]</text>
<polygon fill="none" stroke="black" points="252.15,-666.2 252.15,-697 529.19,-697 529.19,-666.2 252.15,-666.2"/>
<text text-anchor="start" x="259.15" y="-678.4" font-family="Arial" font-size="14.00">created_on </text>
<text text-anchor="start" x="333.09" y="-678.4" font-family="Arial" font-size="14.00" fill="#666666">[timestamp without time zone]</text>
<polygon fill="none" stroke="black" points="252.15,-635.4 252.15,-666.2 529.19,-666.2 529.19,-635.4 252.15,-635.4"/>
<text text-anchor="start" x="259.15" y="-647.6" font-family="Arial" font-size="14.00">updated_on </text>
<text text-anchor="start" x="337" y="-647.6" font-family="Arial" font-size="14.00" fill="#666666">[timestamp without time zone]</text>
<polygon fill="none" stroke="black" points="252.15,-604.6 252.15,-635.4 529.19,-635.4 529.19,-604.6 252.15,-604.6"/>
<text text-anchor="start" x="259.15" y="-616.8" font-family="Arial" font-size="14.00">upvotes </text>
<text text-anchor="start" x="312.07" y="-616.8" font-family="Arial" font-size="14.00" fill="#666666">[integer]</text>
<polygon fill="none" stroke="black" points="252.15,-573.8 252.15,-604.6 529.19,-604.6 529.19,-573.8 252.15,-573.8"/>
<text text-anchor="start" x="259.15" y="-586" font-family="Arial" font-size="14.00">downvotes </text>
<text text-anchor="start" x="329.97" y="-586" font-family="Arial" font-size="14.00" fill="#666666">[integer]</text>
<polygon fill="none" stroke="black" stroke-width="3" points="250.65,-572.3 250.65,-888.1 530.69,-888.1 530.69,-572.3 250.65,-572.3"/>
</g>
<!-- public.comment&#45;&gt;public.comment -->
<g id="edge1" class="edge">
<title>public.comment:reply_to&#45;&gt;public.comment:id</title>
<path fill="none" stroke="black" d="M392.27,-737.85C399.63,-870.52 399.1,-1105.7 390.67,-1105.7 382.03,-1105.7 381.68,-972.14 389.63,-850.72"/>
<polygon fill="black" stroke="black" points="392.28,-738.01 396.19,-727.77 391.97,-732.69 391.72,-728.37 391.72,-728.37 391.72,-728.37 391.97,-732.69 387.21,-728.29 392.28,-738.01"/>
<text text-anchor="start" x="398.68" y="-737.7" font-family="Arial" font-size="10.00">FOREIGN KEY (reply_to) REFERENCES comment(id)</text>
</g>
<!-- public.user -->
<g id="node3" class="node">
<title>public.user</title>
<polygon fill="#efefef" stroke="none" points="62.15,-382 62.15,-417.6 339.19,-417.6 339.19,-382 62.15,-382"/>
<polygon fill="none" stroke="black" points="62.15,-382 62.15,-417.6 339.19,-417.6 339.19,-382 62.15,-382"/>
<text text-anchor="start" x="98.68" y="-395.4" font-family="Arial Bold" font-size="18.00">public.user</text>
<text text-anchor="start" x="178.16" y="-395.4" font-family="Arial" font-size="14.00">    </text>
<text text-anchor="start" x="209.28" y="-395.4" font-family="Arial" font-size="14.00" fill="#666666">[BASE TABLE]</text>
<polygon fill="none" stroke="black" points="62.15,-351.2 62.15,-382 339.19,-382 339.19,-351.2 62.15,-351.2"/>
<text text-anchor="start" x="69.15" y="-363.4" font-family="Arial" font-size="14.00">id </text>
<text text-anchor="start" x="83.93" y="-363.4" font-family="Arial" font-size="14.00" fill="#666666">[uuid]</text>
<polygon fill="none" stroke="black" points="62.15,-320.4 62.15,-351.2 339.19,-351.2 339.19,-320.4 62.15,-320.4"/>
<text text-anchor="start" x="69.15" y="-332.6" font-family="Arial" font-size="14.00">username </text>
<text text-anchor="start" x="135.29" y="-332.6" font-family="Arial" font-size="14.00" fill="#666666">[varchar(25)]</text>
<polygon fill="none" stroke="black" points="62.15,-289.6 62.15,-320.4 339.19,-320.4 339.19,-289.6 62.15,-289.6"/>
<text text-anchor="start" x="69.15" y="-301.8" font-family="Arial" font-size="14.00">profile_image </text>
<text text-anchor="start" x="157.09" y="-301.8" font-family="Arial" font-size="14.00" fill="#666666">[text]</text>
<polygon fill="none" stroke="black" points="62.15,-258.8 62.15,-289.6 339.19,-289.6 339.19,-258.8 62.15,-258.8"/>
<text text-anchor="start" x="69.15" y="-271" font-family="Arial" font-size="14.00">role </text>
<text text-anchor="start" x="96.38" y="-271" font-family="Arial" font-size="14.00" fill="#666666">[site_role]</text>
<polygon fill="none" stroke="black" points="62.15,-228 62.15,-258.8 339.19,-258.8 339.19,-228 62.15,-228"/>
<text text-anchor="start" x="69.15" y="-240.2" font-family="Arial" font-size="14.00">created_on </text>
<text text-anchor="start" x="143.09" y="-240.2" font-family="Arial" font-size="14.00" fill="#666666">[timestamp without time zone]</text>
<polygon fill="none" stroke="black" points="62.15,-197.2 62.15,-228 339.19,-228 339.19,-197.2 62.15,-197.2"/>
<text text-anchor="start" x="69.15" y="-209.4" font-family="Arial" font-size="14.00">updated_on </text>
<text text-anchor="start" x="147" y="-209.4" font-family="Arial" font-size="14.00" fill="#666666">[timestamp without time zone]</text>
<polygon fill="none" stroke="black" points="62.15,-166.4 62.15,-197.2 339.19,-197.2 339.19,-166.4 62.15,-166.4"/>
<text text-anchor="start" x="69.15" y="-178.6" font-family="Arial" font-size="14.00">discord_id </text>
<text text-anchor="start" x="136.85" y="-178.6" font-family="Arial" font-size="14.00" fill="#666666">[bigint]</text>
<polygon fill="none" stroke="black" points="62.15,-135.6 62.15,-166.4 339.19,-166.4 339.19,-135.6 62.15,-135.6"/>
<text text-anchor="start" x="69.15" y="-147.8" font-family="Arial" font-size="14.00">github_id </text>
<text text-anchor="start" x="129.87" y="-147.8" font-family="Arial" font-size="14.00" fill="#666666">[integer]</text>
<polygon fill="none" stroke="black" points="62.15,-104.8 62.15,-135.6 339.19,-135.6 339.19,-104.8 62.15,-104.8"/>
<text text-anchor="start" x="69.15" y="-117" font-family="Arial" font-size="14.00">followers </text>
<text text-anchor="start" x="128.28" y="-117" font-family="Arial" font-size="14.00" fill="#666666">[integer]</text>
<polygon fill="none" stroke="black" points="62.15,-74 62.15,-104.8 339.19,-104.8 339.19,-74 62.15,-74"/>
<text text-anchor="start" x="69.15" y="-86.2" font-family="Arial" font-size="14.00">following </text>
<text text-anchor="start" x="127.51" y="-86.2" font-family="Arial" font-size="14.00" fill="#666666">[integer]</text>
</g>
<!-- public.comment&#45;&gt;public.user -->
<g id="edge3" class="edge">
<title>public.comment:creator_id&#45;&gt;public.user:id</title>
<path fill="none" stroke="black" d="M240.8,-773.52C145.73,-764.21 205.13,-622.46 252.15,-527.6 273.8,-483.91 317.39,-504.42 339.19,-460.8 357.9,-423.35 382.06,-366.6 340.19,-366.6"/>
<polygon fill="black" stroke="black" points="240.83,-773.52 250.6,-778.48 246.15,-773.77 250.48,-773.97 250.48,-773.97 250.48,-773.97 246.15,-773.77 251.02,-769.49 240.83,-773.52"/>
<text text-anchor="start" x="7" y="-784" font-family="Arial" font-size="10.00">FOREIGN KEY (creator_id) REFERENCES &quot;user&quot;(id)</text>
</g>
<!-- public.post -->
<g id="node4" class="node">
<title>public.post</title>
<polygon fill="#efefef" stroke="none" points="443.15,-412.8 443.15,-448.4 720.19,-448.4 720.19,-412.8 443.15,-412.8"/>
<polygon fill="none" stroke="black" points="443.15,-412.8 443.15,-448.4 720.19,-448.4 720.19,-412.8 443.15,-412.8"/>
<text text-anchor="start" x="479.68" y="-426.2" font-family="Arial Bold" font-size="18.00">public.post</text>
<text text-anchor="start" x="559.17" y="-426.2" font-family="Arial" font-size="14.00">    </text>
<text text-anchor="start" x="590.29" y="-426.2" font-family="Arial" font-size="14.00" fill="#666666">[BASE TABLE]</text>
<polygon fill="none" stroke="black" points="443.15,-382 443.15,-412.8 720.19,-412.8 720.19,-382 443.15,-382"/>
<text text-anchor="start" x="450.15" y="-394.2" font-family="Arial" font-size="14.00">id </text>
<text text-anchor="start" x="464.93" y="-394.2" font-family="Arial" font-size="14.00" fill="#666666">[uuid]</text>
<polygon fill="none" stroke="black" points="443.15,-351.2 443.15,-382 720.19,-382 720.19,-351.2 443.15,-351.2"/>
<text text-anchor="start" x="450.15" y="-363.4" font-family="Arial" font-size="14.00">name </text>
<text text-anchor="start" x="489.06" y="-363.4" font-family="Arial" font-size="14.00" fill="#666666">[text]</text>
<polygon fill="none" stroke="black" points="443.15,-320.4 443.15,-351.2 720.19,-351.2 720.19,-320.4 443.15,-320.4"/>
<text text-anchor="start" x="450.15" y="-332.6" font-family="Arial" font-size="14.00">description </text>
<text text-anchor="start" x="521.74" y="-332.6" font-family="Arial" font-size="14.00" fill="#666666">[text]</text>
<polygon fill="none" stroke="black" points="443.15,-289.6 443.15,-320.4 720.19,-320.4 720.19,-289.6 443.15,-289.6"/>
<text text-anchor="start" x="450.15" y="-301.8" font-family="Arial" font-size="14.00">alt_text </text>
<text text-anchor="start" x="499.18" y="-301.8" font-family="Arial" font-size="14.00" fill="#666666">[text]</text>
<polygon fill="none" stroke="black" points="443.15,-258.8 443.15,-289.6 720.19,-289.6 720.19,-258.8 443.15,-258.8"/>
<text text-anchor="start" x="450.15" y="-271" font-family="Arial" font-size="14.00">created_by </text>
<text text-anchor="start" x="523.31" y="-271" font-family="Arial" font-size="14.00" fill="#666666">[uuid]</text>
<polygon fill="none" stroke="black" points="443.15,-228 443.15,-258.8 720.19,-258.8 720.19,-228 443.15,-228"/>
<text text-anchor="start" x="450.15" y="-240.2" font-family="Arial" font-size="14.00">channel_id </text>
<text text-anchor="start" x="521.76" y="-240.2" font-family="Arial" font-size="14.00" fill="#666666">[uuid]</text>
<polygon fill="none" stroke="black" points="443.15,-197.2 443.15,-228 720.19,-228 720.19,-197.2 443.15,-197.2"/>
<text text-anchor="start" x="450.15" y="-209.4" font-family="Arial" font-size="14.00">video_id </text>
<text text-anchor="start" x="506.19" y="-209.4" font-family="Arial" font-size="14.00" fill="#666666">[text]</text>
<polygon fill="none" stroke="black" points="443.15,-166.4 443.15,-197.2 720.19,-197.2 720.19,-166.4 443.15,-166.4"/>
<text text-anchor="start" x="450.15" y="-178.6" font-family="Arial" font-size="14.00">created_on </text>
<text text-anchor="start" x="524.09" y="-178.6" font-family="Arial" font-size="14.00" fill="#666666">[timestamp without time zone]</text>
<polygon fill="none" stroke="black" points="443.15,-135.6 443.15,-166.4 720.19,-166.4 720.19,-135.6 443.15,-135.6"/>
<text text-anchor="start" x="450.15" y="-147.8" font-family="Arial" font-size="14.00">updated_on </text>
<text text-anchor="start" x="528" y="-147.8" font-family="Arial" font-size="14.00" fill="#666666">[timestamp without time zone]</text>
<polygon fill="none" stroke="black" points="443.15,-104.8 443.15,-135.6 720.19,-135.6 720.19,-104.8 443.15,-104.8"/>
<text text-anchor="start" x="450.15" y="-117" font-family="Arial" font-size="14.00">upvotes </text>
<text text-anchor="start" x="503.07" y="-117" font-family="Arial" font-size="14.00" fill="#666666">[integer]</text>
<polygon fill="none" stroke="black" points="443.15,-74 443.15,-104.8 720.19,-104.8 720.19,-74 443.15,-74"/>
<text text-anchor="start" x="450.15" y="-86.2" font-family="Arial" font-size="14.00">downvotes </text>
<text text-anchor="start" x="520.97" y="-86.2" font-family="Arial" font-size="14.00" fill="#666666">[integer]</text>
<polygon fill="none" stroke="black" points="443.15,-43.2 443.15,-74 720.19,-74 720.19,-43.2 443.15,-43.2"/>
<text text-anchor="start" x="450.15" y="-55.4" font-family="Arial" font-size="14.00">comments </text>
<text text-anchor="start" x="518.61" y="-55.4" font-family="Arial" font-size="14.00" fill="#666666">[integer]</text>
</g>
<!-- public.comment&#45;&gt;public.post -->
<g id="edge4" class="edge">
<title>public.comment:post_id&#45;&gt;public.post:id</title>
<path fill="none" stroke="black" d="M540.54,-742.62C622.68,-732.93 580.44,-604.21 529.19,-527.6 506.14,-493.15 466.3,-525.99 443.15,-491.6 419.76,-456.87 400.28,-397.4 442.15,-397.4"/>
<polygon fill="black" stroke="black" points="540.51,-742.62 530.27,-738.69 535.18,-742.92 530.86,-743.16 530.86,-743.16 530.86,-743.16 535.18,-742.92 530.77,-747.67 540.51,-742.62"/>
<text text-anchor="start" x="537.19" y="-753.2" font-family="Arial" font-size="10.00">FOREIGN KEY (post_id) REFERENCES post(id)</text>
</g>
<!-- public.comment_vote -->
<g id="node2" class="node">
<title>public.comment_vote</title>
<polygon fill="#efefef" stroke="none" points="243.19,-1104.4 243.19,-1140 538.14,-1140 538.14,-1104.4 243.19,-1104.4"/>
<polygon fill="none" stroke="black" points="243.19,-1104.4 243.19,-1140 538.14,-1140 538.14,-1104.4 243.19,-1104.4"/>
<text text-anchor="start" x="250.19" y="-1117.8" font-family="Arial Bold" font-size="18.00">public.comment_vote</text>
<text text-anchor="start" x="406.66" y="-1117.8" font-family="Arial" font-size="14.00">    </text>
<text text-anchor="start" x="437.77" y="-1117.8" font-family="Arial" font-size="14.00" fill="#666666">[BASE TABLE]</text>
<polygon fill="none" stroke="black" points="243.19,-1073.6 243.19,-1104.4 538.14,-1104.4 538.14,-1073.6 243.19,-1073.6"/>
<text text-anchor="start" x="250.19" y="-1085.8" font-family="Arial" font-size="14.00">comment_id </text>
<text text-anchor="start" x="330.34" y="-1085.8" font-family="Arial" font-size="14.00" fill="#666666">[uuid]</text>
<polygon fill="none" stroke="black" points="243.19,-1042.8 243.19,-1073.6 538.14,-1073.6 538.14,-1042.8 243.19,-1042.8"/>
<text text-anchor="start" x="250.19" y="-1055" font-family="Arial" font-size="14.00">user_id </text>
<text text-anchor="start" x="300" y="-1055" font-family="Arial" font-size="14.00" fill="#666666">[uuid]</text>
<polygon fill="none" stroke="black" points="243.19,-1012 243.19,-1042.8 538.14,-1042.8 538.14,-1012 243.19,-1012"/>
<text text-anchor="start" x="250.19" y="-1024.2" font-family="Arial" font-size="14.00">vote </text>
<text text-anchor="start" x="280.54" y="-1024.2" font-family="Arial" font-size="14.00" fill="#666666">[vote]</text>
</g>
<!-- public.comment_vote&#45;&gt;public.comment -->
<g id="edge2" class="edge">
<title>public.comment_vote:comment_id&#45;&gt;public.comment:id</title>
<path fill="none" stroke="black" d="M549.35,-1088.27C651.18,-1073.41 639.36,-835.6 530.19,-835.6"/>
<polygon fill="black" stroke="black" points="549.45,-1088.27 539.16,-1084.49 544.13,-1088.64 539.81,-1088.95 539.81,-1088.95 539.81,-1088.95 544.13,-1088.64 539.8,-1093.46 549.45,-1088.27"/>
<text text-anchor="start" x="546.14" y="-1099" font-family="Arial" font-size="10.00">FOREIGN KEY (comment_id) REFERENCES comment(id)</text>
</g>
</g>
</svg>
