<?xml version="1.0" encoding="UTF-8" standalone="no"?>
<!DOCTYPE svg PUBLIC "-//W3C//DTD SVG 1.1//EN"
 "http://www.w3.org/Graphics/SVG/1.1/DTD/svg11.dtd">
<!-- Generated by graphviz version 12.1.2 (20240928.0832)
 -->
<!-- Title: public.session Pages: 1 -->
<svg width="554pt" height="694pt"
 viewBox="0.00 0.00 554.30 694.40" xmlns="http://www.w3.org/2000/svg" xmlns:xlink="http://www.w3.org/1999/xlink">
<g id="graph0" class="graph" transform="scale(1 1) rotate(0) translate(4 690.4)">
<title>public.session</title>
<polygon fill="white" stroke="none" points="-4,4 -4,-690.4 550.3,-690.4 550.3,4 -4,4"/>
<!-- public.session -->
<g id="node1" class="node">
<title>public.session</title>
<polygon fill="#efefef" stroke="none" points="57.62,-604.6 57.62,-640.2 305.82,-640.2 305.82,-604.6 57.62,-604.6"/>
<polygon fill="none" stroke="black" points="57.62,-604.6 57.62,-640.2 305.82,-640.2 305.82,-604.6 57.62,-604.6"/>
<text text-anchor="start" x="68.73" y="-618" font-family="Arial Bold" font-size="18.00">public.session</text>
<text text-anchor="start" x="170.22" y="-618" font-family="Arial" font-size="14.00">    </text>
<text text-anchor="start" x="201.34" y="-618" font-family="Arial" font-size="14.00" fill="#666666">[BASE TABLE]</text>
<polygon fill="none" stroke="black" points="57.62,-573.8 57.62,-604.6 305.82,-604.6 305.82,-573.8 57.62,-573.8"/>
<text text-anchor="start" x="64.62" y="-586" font-family="Arial" font-size="14.00">id </text>
<text text-anchor="start" x="79.4" y="-586" font-family="Arial" font-size="14.00" fill="#666666">[text]</text>
<polygon fill="none" stroke="black" points="57.62,-543 57.62,-573.8 305.82,-573.8 305.82,-543 57.62,-543"/>
<text text-anchor="start" x="64.62" y="-555.2" font-family="Arial" font-size="14.00">user_id </text>
<text text-anchor="start" x="114.42" y="-555.2" font-family="Arial" font-size="14.00" fill="#666666">[uuid]</text>
<polygon fill="none" stroke="black" points="57.62,-512.2 57.62,-543 305.82,-543 305.82,-512.2 57.62,-512.2"/>
<text text-anchor="start" x="64.62" y="-524.4" font-family="Arial" font-size="14.00">expires_at </text>
<text text-anchor="start" x="133.1" y="-524.4" font-family="Arial" font-size="14.00" fill="#666666">[timestamp with time zone]</text>
<polygon fill="none" stroke="black" stroke-width="3" points="56.12,-510.7 56.12,-641.7 307.32,-641.7 307.32,-510.7 56.12,-510.7"/>
</g>
<!-- public.user -->
<g id="node2" class="node">
<title>public.user</title>
<polygon fill="#efefef" stroke="none" points="43.2,-351.2 43.2,-386.8 320.24,-386.8 320.24,-351.2 43.2,-351.2"/>
<polygon fill="none" stroke="black" points="43.2,-351.2 43.2,-386.8 320.24,-386.8 320.24,-351.2 43.2,-351.2"/>
<text text-anchor="start" x="79.74" y="-364.6" font-family="Arial Bold" font-size="18.00">public.user</text>
<text text-anchor="start" x="159.22" y="-364.6" font-family="Arial" font-size="14.00">    </text>
<text text-anchor="start" x="190.33" y="-364.6" font-family="Arial" font-size="14.00" fill="#666666">[BASE TABLE]</text>
<polygon fill="none" stroke="black" points="43.2,-320.4 43.2,-351.2 320.24,-351.2 320.24,-320.4 43.2,-320.4"/>
<text text-anchor="start" x="50.2" y="-332.6" font-family="Arial" font-size="14.00">id </text>
<text text-anchor="start" x="64.99" y="-332.6" font-family="Arial" font-size="14.00" fill="#666666">[uuid]</text>
<polygon fill="none" stroke="black" points="43.2,-289.6 43.2,-320.4 320.24,-320.4 320.24,-289.6 43.2,-289.6"/>
<text text-anchor="start" x="50.2" y="-301.8" font-family="Arial" font-size="14.00">username </text>
<text text-anchor="start" x="116.34" y="-301.8" font-family="Arial" font-size="14.00" fill="#666666">[varchar(25)]</text>
<polygon fill="none" stroke="black" points="43.2,-258.8 43.2,-289.6 320.24,-289.6 320.24,-258.8 43.2,-258.8"/>
<text text-anchor="start" x="50.2" y="-271" font-family="Arial" font-size="14.00">profile_image </text>
<text text-anchor="start" x="138.14" y="-271" font-family="Arial" font-size="14.00" fill="#666666">[text]</text>
<polygon fill="none" stroke="black" points="43.2,-228 43.2,-258.8 320.24,-258.8 320.24,-228 43.2,-228"/>
<text text-anchor="start" x="50.2" y="-240.2" font-family="Arial" font-size="14.00">role </text>
<text text-anchor="start" x="77.43" y="-240.2" font-family="Arial" font-size="14.00" fill="#666666">[site_role]</text>
<polygon fill="none" stroke="black" points="43.2,-197.2 43.2,-228 320.24,-228 320.24,-197.2 43.2,-197.2"/>
<text text-anchor="start" x="50.2" y="-209.4" font-family="Arial" font-size="14.00">created_on </text>
<text text-anchor="start" x="124.14" y="-209.4" font-family="Arial" font-size="14.00" fill="#666666">[timestamp without time zone]</text>
<polygon fill="none" stroke="black" points="43.2,-166.4 43.2,-197.2 320.24,-197.2 320.24,-166.4 43.2,-166.4"/>
<text text-anchor="start" x="50.2" y="-178.6" font-family="Arial" font-size="14.00">updated_on </text>
<text text-anchor="start" x="128.05" y="-178.6" font-family="Arial" font-size="14.00" fill="#666666">[timestamp without time zone]</text>
<polygon fill="none" stroke="black" points="43.2,-135.6 43.2,-166.4 320.24,-166.4 320.24,-135.6 43.2,-135.6"/>
<text text-anchor="start" x="50.2" y="-147.8" font-family="Arial" font-size="14.00">discord_id </text>
<text text-anchor="start" x="117.9" y="-147.8" font-family="Arial" font-size="14.00" fill="#666666">[bigint]</text>
<polygon fill="none" stroke="black" points="43.2,-104.8 43.2,-135.6 320.24,-135.6 320.24,-104.8 43.2,-104.8"/>
<text text-anchor="start" x="50.2" y="-117" font-family="Arial" font-size="14.00">github_id </text>
<text text-anchor="start" x="110.92" y="-117" font-family="Arial" font-size="14.00" fill="#666666">[integer]</text>
<polygon fill="none" stroke="black" points="43.2,-74 43.2,-104.8 320.24,-104.8 320.24,-74 43.2,-74"/>
<text text-anchor="start" x="50.2" y="-86.2" font-family="Arial" font-size="14.00">followers </text>
<text text-anchor="start" x="109.33" y="-86.2" font-family="Arial" font-size="14.00" fill="#666666">[integer]</text>
<polygon fill="none" stroke="black" points="43.2,-43.2 43.2,-74 320.24,-74 320.24,-43.2 43.2,-43.2"/>
<text text-anchor="start" x="50.2" y="-55.4" font-family="Arial" font-size="14.00">following </text>
<text text-anchor="start" x="108.57" y="-55.4" font-family="Arial" font-size="14.00" fill="#666666">[integer]</text>
</g>
<!-- public.session&#45;&gt;public.user -->
<g id="edge1" class="edge">
<title>public.session:user_id&#45;&gt;public.user:id</title>
<path fill="none" stroke="black" d="M316.75,-555.25C358.1,-528.2 367.32,-335.8 321.24,-335.8"/>
<polygon fill="black" stroke="black" points="316.67,-555.28 305.78,-554.01 311.59,-556.89 307.46,-558.2 307.46,-558.2 307.46,-558.2 311.59,-556.89 308.5,-562.59 316.67,-555.28"/>
<text text-anchor="start" x="313.82" y="-568.4" font-family="Arial" font-size="10.00">FOREIGN KEY (user_id) REFERENCES &quot;user&quot;(id)</text>
</g>
</g>
</svg>
