<?xml version="1.0" encoding="UTF-8" standalone="no"?>
<!DOCTYPE svg PUBLIC "-//W3C//DTD SVG 1.1//EN"
 "http://www.w3.org/Graphics/SVG/1.1/DTD/svg11.dtd">
<!-- Generated by graphviz version 12.1.2 (20240928.0832)
 -->
<!-- Title: public.post_report Pages: 1 -->
<svg width="667pt" height="848pt"
 viewBox="0.00 0.00 667.01 848.40" xmlns="http://www.w3.org/2000/svg" xmlns:xlink="http://www.w3.org/1999/xlink">
<g id="graph0" class="graph" transform="scale(1 1) rotate(0) translate(4 844.4)">
<title>public.post_report</title>
<polygon fill="white" stroke="none" points="-4,4 -4,-844.4 663.01,-844.4 663.01,4 -4,4"/>
<!-- public.post_report -->
<g id="node1" class="node">
<title>public.post_report</title>
<polygon fill="#efefef" stroke="none" points="46.74,-758.6 46.74,-794.2 316.7,-794.2 316.7,-758.6 46.74,-758.6"/>
<polygon fill="none" stroke="black" points="46.74,-758.6 46.74,-794.2 316.7,-794.2 316.7,-758.6 46.74,-758.6"/>
<text text-anchor="start" x="53.74" y="-772" font-family="Arial Bold" font-size="18.00">public.post_report</text>
<text text-anchor="start" x="185.21" y="-772" font-family="Arial" font-size="14.00">    </text>
<text text-anchor="start" x="216.33" y="-772" font-family="Arial" font-size="14.00" fill="#666666">[BASE TABLE]</text>
<polygon fill="none" stroke="black" points="46.74,-727.8 46.74,-758.6 316.7,-758.6 316.7,-727.8 46.74,-727.8"/>
<text text-anchor="start" x="53.74" y="-740" font-family="Arial" font-size="14.00">id </text>
<text text-anchor="start" x="68.52" y="-740" font-family="Arial" font-size="14.00" fill="#666666">[uuid]</text>
<polygon fill="none" stroke="black" points="46.74,-697 46.74,-727.8 316.7,-727.8 316.7,-697 46.74,-697"/>
<text text-anchor="start" x="53.74" y="-709.2" font-family="Arial" font-size="14.00">post_id </text>
<text text-anchor="start" x="102.77" y="-709.2" font-family="Arial" font-size="14.00" fill="#666666">[uuid]</text>
<polygon fill="none" stroke="black" points="46.74,-666.2 46.74,-697 316.7,-697 316.7,-666.2 46.74,-666.2"/>
<text text-anchor="start" x="53.74" y="-678.4" font-family="Arial" font-size="14.00">description </text>
<text text-anchor="start" x="125.33" y="-678.4" font-family="Arial" font-size="14.00" fill="#666666">[text]</text>
<polygon fill="none" stroke="black" points="46.74,-635.4 46.74,-666.2 316.7,-666.2 316.7,-635.4 46.74,-635.4"/>
<text text-anchor="start" x="53.74" y="-647.6" font-family="Arial" font-size="14.00">resolution </text>
<text text-anchor="start" x="118.33" y="-647.6" font-family="Arial" font-size="14.00" fill="#666666">[text]</text>
<polygon fill="none" stroke="black" points="46.74,-604.6 46.74,-635.4 316.7,-635.4 316.7,-604.6 46.74,-604.6"/>
<text text-anchor="start" x="53.74" y="-616.8" font-family="Arial" font-size="14.00">status </text>
<text text-anchor="start" x="94.98" y="-616.8" font-family="Arial" font-size="14.00" fill="#666666">[report_status]</text>
<polygon fill="none" stroke="black" stroke-width="3" points="45.24,-603.1 45.24,-795.7 318.2,-795.7 318.2,-603.1 45.24,-603.1"/>
</g>
<!-- public.post -->
<g id="node2" class="node">
<title>public.post</title>
<polygon fill="#efefef" stroke="none" points="43.2,-443.6 43.2,-479.2 320.24,-479.2 320.24,-443.6 43.2,-443.6"/>
<polygon fill="none" stroke="black" points="43.2,-443.6 43.2,-479.2 320.24,-479.2 320.24,-443.6 43.2,-443.6"/>
<text text-anchor="start" x="79.73" y="-457" font-family="Arial Bold" font-size="18.00">public.post</text>
<text text-anchor="start" x="159.22" y="-457" font-family="Arial" font-size="14.00">    </text>
<text text-anchor="start" x="190.34" y="-457" font-family="Arial" font-size="14.00" fill="#666666">[BASE TABLE]</text>
<polygon fill="none" stroke="black" points="43.2,-412.8 43.2,-443.6 320.24,-443.6 320.24,-412.8 43.2,-412.8"/>
<text text-anchor="start" x="50.2" y="-425" font-family="Arial" font-size="14.00">id </text>
<text text-anchor="start" x="64.99" y="-425" font-family="Arial" font-size="14.00" fill="#666666">[uuid]</text>
<polygon fill="none" stroke="black" points="43.2,-382 43.2,-412.8 320.24,-412.8 320.24,-382 43.2,-382"/>
<text text-anchor="start" x="50.2" y="-394.2" font-family="Arial" font-size="14.00">name </text>
<text text-anchor="start" x="89.11" y="-394.2" font-family="Arial" font-size="14.00" fill="#666666">[text]</text>
<polygon fill="none" stroke="black" points="43.2,-351.2 43.2,-382 320.24,-382 320.24,-351.2 43.2,-351.2"/>
<text text-anchor="start" x="50.2" y="-363.4" font-family="Arial" font-size="14.00">description </text>
<text text-anchor="start" x="121.79" y="-363.4" font-family="Arial" font-size="14.00" fill="#666666">[text]</text>
<polygon fill="none" stroke="black" points="43.2,-320.4 43.2,-351.2 320.24,-351.2 320.24,-320.4 43.2,-320.4"/>
<text text-anchor="start" x="50.2" y="-332.6" font-family="Arial" font-size="14.00">alt_text </text>
<text text-anchor="start" x="99.23" y="-332.6" font-family="Arial" font-size="14.00" fill="#666666">[text]</text>
<polygon fill="none" stroke="black" points="43.2,-289.6 43.2,-320.4 320.24,-320.4 320.24,-289.6 43.2,-289.6"/>
<text text-anchor="start" x="50.2" y="-301.8" font-family="Arial" font-size="14.00">created_by </text>
<text text-anchor="start" x="123.36" y="-301.8" font-family="Arial" font-size="14.00" fill="#666666">[uuid]</text>
<polygon fill="none" stroke="black" points="43.2,-258.8 43.2,-289.6 320.24,-289.6 320.24,-258.8 43.2,-258.8"/>
<text text-anchor="start" x="50.2" y="-271" font-family="Arial" font-size="14.00">channel_id </text>
<text text-anchor="start" x="121.81" y="-271" font-family="Arial" font-size="14.00" fill="#666666">[uuid]</text>
<polygon fill="none" stroke="black" points="43.2,-228 43.2,-258.8 320.24,-258.8 320.24,-228 43.2,-228"/>
<text text-anchor="start" x="50.2" y="-240.2" font-family="Arial" font-size="14.00">video_id </text>
<text text-anchor="start" x="106.24" y="-240.2" font-family="Arial" font-size="14.00" fill="#666666">[text]</text>
<polygon fill="none" stroke="black" points="43.2,-197.2 43.2,-228 320.24,-228 320.24,-197.2 43.2,-197.2"/>
<text text-anchor="start" x="50.2" y="-209.4" font-family="Arial" font-size="14.00">created_on </text>
<text text-anchor="start" x="124.14" y="-209.4" font-family="Arial" font-size="14.00" fill="#666666">[timestamp without time zone]</text>
<polygon fill="none" stroke="black" points="43.2,-166.4 43.2,-197.2 320.24,-197.2 320.24,-166.4 43.2,-166.4"/>
<text text-anchor="start" x="50.2" y="-178.6" font-family="Arial" font-size="14.00">updated_on </text>
<text text-anchor="start" x="128.05" y="-178.6" font-family="Arial" font-size="14.00" fill="#666666">[timestamp without time zone]</text>
<polygon fill="none" stroke="black" points="43.2,-135.6 43.2,-166.4 320.24,-166.4 320.24,-135.6 43.2,-135.6"/>
<text text-anchor="start" x="50.2" y="-147.8" font-family="Arial" font-size="14.00">status </text>
<text text-anchor="start" x="91.44" y="-147.8" font-family="Arial" font-size="14.00" fill="#666666">[post_status]</text>
<polygon fill="none" stroke="black" points="43.2,-104.8 43.2,-135.6 320.24,-135.6 320.24,-104.8 43.2,-104.8"/>
<text text-anchor="start" x="50.2" y="-117" font-family="Arial" font-size="14.00">upvotes </text>
<text text-anchor="start" x="103.12" y="-117" font-family="Arial" font-size="14.00" fill="#666666">[integer]</text>
<polygon fill="none" stroke="black" points="43.2,-74 43.2,-104.8 320.24,-104.8 320.24,-74 43.2,-74"/>
<text text-anchor="start" x="50.2" y="-86.2" font-family="Arial" font-size="14.00">downvotes </text>
<text text-anchor="start" x="121.02" y="-86.2" font-family="Arial" font-size="14.00" fill="#666666">[integer]</text>
<polygon fill="none" stroke="black" points="43.2,-43.2 43.2,-74 320.24,-74 320.24,-43.2 43.2,-43.2"/>
<text text-anchor="start" x="50.2" y="-55.4" font-family="Arial" font-size="14.00">comments </text>
<text text-anchor="start" x="118.66" y="-55.4" font-family="Arial" font-size="14.00" fill="#666666">[integer]</text>
</g>
<!-- public.post_report&#45;&gt;public.post -->
<g id="edge1" class="edge">
<title>public.post_report:post_id&#45;&gt;public.post:id</title>
<path fill="none" stroke="black" d="M327.53,-709.94C381.05,-682.17 380.95,-428.2 321.24,-428.2"/>
<polygon fill="black" stroke="black" points="327.73,-709.89 316.94,-707.95 322.55,-711.19 318.35,-712.24 318.35,-712.24 318.35,-712.24 322.55,-711.19 319.12,-716.68 327.73,-709.89"/>
<text text-anchor="start" x="324.7" y="-722.4" font-family="Arial" font-size="10.00">FOREIGN KEY (post_id) REFERENCES post(id) ON DELETE SET NULL</text>
</g>
</g>
</svg>
