<?xml version="1.0" encoding="UTF-8" standalone="no"?>
<!DOCTYPE svg PUBLIC "-//W3C//DTD SVG 1.1//EN"
 "http://www.w3.org/Graphics/SVG/1.1/DTD/svg11.dtd">
<!-- Generated by graphviz version 12.1.2 (20240928.0832)
 -->
<!-- Title: public.comment Pages: 1 -->
<svg width="933pt" height="1222pt"
 viewBox="0.00 0.00 933.44 1222.00" xmlns="http://www.w3.org/2000/svg" xmlns:xlink="http://www.w3.org/1999/xlink">
<g id="graph0" class="graph" transform="scale(1 1) rotate(0) translate(4 1218)">
<title>public.comment</title>
<polygon fill="white" stroke="none" points="-4,4 -4,-1218 929.44,-1218 929.44,4 -4,4"/>
<!-- public.comment -->
<g id="node1" class="node">
<title>public.comment</title>
<polygon fill="#efefef" stroke="none" points="252.15,-881.8 252.15,-917.4 529.19,-917.4 529.19,-881.8 252.15,-881.8"/>
<polygon fill="none" stroke="black" points="252.15,-881.8 252.15,-917.4 529.19,-917.4 529.19,-881.8 252.15,-881.8"/>
<text text-anchor="start" x="270.19" y="-895.2" font-family="Arial Bold" font-size="18.00">public.comment</text>
<text text-anchor="start" x="386.66" y="-895.2" font-family="Arial" font-size="14.00">    </text>
<text text-anchor="start" x="417.78" y="-895.2" font-family="Arial" font-size="14.00" fill="#666666">[BASE TABLE]</text>
<polygon fill="none" stroke="black" points="252.15,-851 252.15,-881.8 529.19,-881.8 529.19,-851 252.15,-851"/>
<text text-anchor="start" x="259.15" y="-863.2" font-family="Arial" font-size="14.00">id </text>
<text text-anchor="start" x="273.93" y="-863.2" font-family="Arial" font-size="14.00" fill="#666666">[uuid]</text>
<polygon fill="none" stroke="black" points="252.15,-820.2 252.15,-851 529.19,-851 529.19,-820.2 252.15,-820.2"/>
<text text-anchor="start" x="259.15" y="-832.4" font-family="Arial" font-size="14.00">content </text>
<text text-anchor="start" x="308.96" y="-832.4" font-family="Arial" font-size="14.00" fill="#666666">[text]</text>
<polygon fill="none" stroke="black" points="252.15,-789.4 252.15,-820.2 529.19,-820.2 529.19,-789.4 252.15,-789.4"/>
<text text-anchor="start" x="259.15" y="-801.6" font-family="Arial" font-size="14.00">creator_id </text>
<text text-anchor="start" x="325.29" y="-801.6" font-family="Arial" font-size="14.00" fill="#666666">[uuid]</text>
<polygon fill="none" stroke="black" points="252.15,-758.6 252.15,-789.4 529.19,-789.4 529.19,-758.6 252.15,-758.6"/>
<text text-anchor="start" x="259.15" y="-770.8" font-family="Arial" font-size="14.00">post_id </text>
<text text-anchor="start" x="308.18" y="-770.8" font-family="Arial" font-size="14.00" fill="#666666">[uuid]</text>
<polygon fill="none" stroke="black" points="252.15,-727.8 252.15,-758.6 529.19,-758.6 529.19,-727.8 252.15,-727.8"/>
<text text-anchor="start" x="259.15" y="-740" font-family="Arial" font-size="14.00">reply_to </text>
<text text-anchor="start" x="312.84" y="-740" font-family="Arial" font-size="14.00" fill="#666666">[uuid]</text>
<polygon fill="none" stroke="black" points="252.15,-697 252.15,-727.8 529.19,-727.8 529.19,-697 252.15,-697"/>
<text text-anchor="start" x="259.15" y="-709.2" font-family="Arial" font-size="14.00">created_on </text>
<text text-anchor="start" x="333.09" y="-709.2" font-family="Arial" font-size="14.00" fill="#666666">[timestamp without time zone]</text>
<polygon fill="none" stroke="black" points="252.15,-666.2 252.15,-697 529.19,-697 529.19,-666.2 252.15,-666.2"/>
<text text-anchor="start" x="259.15" y="-678.4" font-family="Arial" font-size="14.00">updated_on </text>
<text text-anchor="start" x="337" y="-678.4" font-family="Arial" font-size="14.00" fill="#666666">[timestamp without time zone]</text>
<polygon fill="none" stroke="black" points="252.15,-635.4 252.15,-666.2 529.19,-666.2 529.19,-635.4 252.15,-635.4"/>
<text text-anchor="start" x="259.15" y="-647.6" font-family="Arial" font-size="14.00">upvotes </text>
<text text-anchor="start" x="312.07" y="-647.6" font-family="Arial" font-size="14.00" fill="#666666">[integer]</text>
<polygon fill="none" stroke="black" points="252.15,-604.6 252.15,-635.4 529.19,-635.4 529.19,-604.6 252.15,-604.6"/>
<text text-anchor="start" x="259.15" y="-616.8" font-family="Arial" font-size="14.00">downvotes </text>
<text text-anchor="start" x="329.97" y="-616.8" font-family="Arial" font-size="14.00" fill="#666666">[integer]</text>
<polygon fill="none" stroke="black" stroke-width="3" points="250.65,-603.1 250.65,-918.9 530.69,-918.9 530.69,-603.1 250.65,-603.1"/>
</g>
<!-- public.comment&#45;&gt;public.comment -->
<g id="edge1" class="edge">
<title>public.comment:reply_to&#45;&gt;public.comment:id</title>
<path fill="none" stroke="black" d="M392.27,-768.65C399.63,-901.32 399.1,-1136.5 390.67,-1136.5 382.03,-1136.5 381.68,-1002.94 389.63,-881.52"/>
<polygon fill="black" stroke="black" points="392.28,-768.81 396.19,-758.57 391.97,-763.49 391.72,-759.17 391.72,-759.17 391.72,-759.17 391.97,-763.49 387.21,-759.09 392.28,-768.81"/>
<text text-anchor="start" x="398.68" y="-768.5" font-family="Arial" font-size="10.00">FOREIGN KEY (reply_to) REFERENCES comment(id) ON DELETE CASCADE</text>
</g>
<!-- public.user -->
<g id="node3" class="node">
<title>public.user</title>
<polygon fill="#efefef" stroke="none" points="62.15,-397.4 62.15,-433 339.19,-433 339.19,-397.4 62.15,-397.4"/>
<polygon fill="none" stroke="black" points="62.15,-397.4 62.15,-433 339.19,-433 339.19,-397.4 62.15,-397.4"/>
<text text-anchor="start" x="98.68" y="-410.8" font-family="Arial Bold" font-size="18.00">public.user</text>
<text text-anchor="start" x="178.16" y="-410.8" font-family="Arial" font-size="14.00">    </text>
<text text-anchor="start" x="209.28" y="-410.8" font-family="Arial" font-size="14.00" fill="#666666">[BASE TABLE]</text>
<polygon fill="none" stroke="black" points="62.15,-366.6 62.15,-397.4 339.19,-397.4 339.19,-366.6 62.15,-366.6"/>
<text text-anchor="start" x="69.15" y="-378.8" font-family="Arial" font-size="14.00">id </text>
<text text-anchor="start" x="83.93" y="-378.8" font-family="Arial" font-size="14.00" fill="#666666">[uuid]</text>
<polygon fill="none" stroke="black" points="62.15,-335.8 62.15,-366.6 339.19,-366.6 339.19,-335.8 62.15,-335.8"/>
<text text-anchor="start" x="69.15" y="-348" font-family="Arial" font-size="14.00">username </text>
<text text-anchor="start" x="135.29" y="-348" font-family="Arial" font-size="14.00" fill="#666666">[varchar(25)]</text>
<polygon fill="none" stroke="black" points="62.15,-305 62.15,-335.8 339.19,-335.8 339.19,-305 62.15,-305"/>
<text text-anchor="start" x="69.15" y="-317.2" font-family="Arial" font-size="14.00">profile_image </text>
<text text-anchor="start" x="157.09" y="-317.2" font-family="Arial" font-size="14.00" fill="#666666">[text]</text>
<polygon fill="none" stroke="black" points="62.15,-274.2 62.15,-305 339.19,-305 339.19,-274.2 62.15,-274.2"/>
<text text-anchor="start" x="69.15" y="-286.4" font-family="Arial" font-size="14.00">role </text>
<text text-anchor="start" x="96.38" y="-286.4" font-family="Arial" font-size="14.00" fill="#666666">[site_role]</text>
<polygon fill="none" stroke="black" points="62.15,-243.4 62.15,-274.2 339.19,-274.2 339.19,-243.4 62.15,-243.4"/>
<text text-anchor="start" x="69.15" y="-255.6" font-family="Arial" font-size="14.00">created_on </text>
<text text-anchor="start" x="143.09" y="-255.6" font-family="Arial" font-size="14.00" fill="#666666">[timestamp without time zone]</text>
<polygon fill="none" stroke="black" points="62.15,-212.6 62.15,-243.4 339.19,-243.4 339.19,-212.6 62.15,-212.6"/>
<text text-anchor="start" x="69.15" y="-224.8" font-family="Arial" font-size="14.00">updated_on </text>
<text text-anchor="start" x="147" y="-224.8" font-family="Arial" font-size="14.00" fill="#666666">[timestamp without time zone]</text>
<polygon fill="none" stroke="black" points="62.15,-181.8 62.15,-212.6 339.19,-212.6 339.19,-181.8 62.15,-181.8"/>
<text text-anchor="start" x="69.15" y="-194" font-family="Arial" font-size="14.00">discord_id </text>
<text text-anchor="start" x="136.85" y="-194" font-family="Arial" font-size="14.00" fill="#666666">[bigint]</text>
<polygon fill="none" stroke="black" points="62.15,-151 62.15,-181.8 339.19,-181.8 339.19,-151 62.15,-151"/>
<text text-anchor="start" x="69.15" y="-163.2" font-family="Arial" font-size="14.00">github_id </text>
<text text-anchor="start" x="129.87" y="-163.2" font-family="Arial" font-size="14.00" fill="#666666">[integer]</text>
<polygon fill="none" stroke="black" points="62.15,-120.2 62.15,-151 339.19,-151 339.19,-120.2 62.15,-120.2"/>
<text text-anchor="start" x="69.15" y="-132.4" font-family="Arial" font-size="14.00">followers </text>
<text text-anchor="start" x="128.28" y="-132.4" font-family="Arial" font-size="14.00" fill="#666666">[integer]</text>
<polygon fill="none" stroke="black" points="62.15,-89.4 62.15,-120.2 339.19,-120.2 339.19,-89.4 62.15,-89.4"/>
<text text-anchor="start" x="69.15" y="-101.6" font-family="Arial" font-size="14.00">following </text>
<text text-anchor="start" x="127.51" y="-101.6" font-family="Arial" font-size="14.00" fill="#666666">[integer]</text>
</g>
<!-- public.comment&#45;&gt;public.user -->
<g id="edge3" class="edge">
<title>public.comment:creator_id&#45;&gt;public.user:id</title>
<path fill="none" stroke="black" d="M240.82,-804.32C146.06,-795.16 210.04,-655.54 252.15,-558.4 273.31,-509.58 317.87,-524.95 339.19,-476.2 355.97,-437.84 382.06,-382 340.19,-382"/>
<polygon fill="black" stroke="black" points="240.82,-804.32 250.61,-809.28 246.15,-804.57 250.48,-804.77 250.48,-804.77 250.48,-804.77 246.15,-804.57 251.02,-800.29 240.82,-804.32"/>
<text text-anchor="start" x="7" y="-814.8" font-family="Arial" font-size="10.00">FOREIGN KEY (creator_id) REFERENCES &quot;user&quot;(id)</text>
</g>
<!-- public.post -->
<g id="node4" class="node">
<title>public.post</title>
<polygon fill="#efefef" stroke="none" points="443.15,-443.6 443.15,-479.2 720.19,-479.2 720.19,-443.6 443.15,-443.6"/>
<polygon fill="none" stroke="black" points="443.15,-443.6 443.15,-479.2 720.19,-479.2 720.19,-443.6 443.15,-443.6"/>
<text text-anchor="start" x="479.68" y="-457" font-family="Arial Bold" font-size="18.00">public.post</text>
<text text-anchor="start" x="559.17" y="-457" font-family="Arial" font-size="14.00">    </text>
<text text-anchor="start" x="590.29" y="-457" font-family="Arial" font-size="14.00" fill="#666666">[BASE TABLE]</text>
<polygon fill="none" stroke="black" points="443.15,-412.8 443.15,-443.6 720.19,-443.6 720.19,-412.8 443.15,-412.8"/>
<text text-anchor="start" x="450.15" y="-425" font-family="Arial" font-size="14.00">id </text>
<text text-anchor="start" x="464.93" y="-425" font-family="Arial" font-size="14.00" fill="#666666">[uuid]</text>
<polygon fill="none" stroke="black" points="443.15,-382 443.15,-412.8 720.19,-412.8 720.19,-382 443.15,-382"/>
<text text-anchor="start" x="450.15" y="-394.2" font-family="Arial" font-size="14.00">name </text>
<text text-anchor="start" x="489.06" y="-394.2" font-family="Arial" font-size="14.00" fill="#666666">[text]</text>
<polygon fill="none" stroke="black" points="443.15,-351.2 443.15,-382 720.19,-382 720.19,-351.2 443.15,-351.2"/>
<text text-anchor="start" x="450.15" y="-363.4" font-family="Arial" font-size="14.00">description </text>
<text text-anchor="start" x="521.74" y="-363.4" font-family="Arial" font-size="14.00" fill="#666666">[text]</text>
<polygon fill="none" stroke="black" points="443.15,-320.4 443.15,-351.2 720.19,-351.2 720.19,-320.4 443.15,-320.4"/>
<text text-anchor="start" x="450.15" y="-332.6" font-family="Arial" font-size="14.00">alt_text </text>
<text text-anchor="start" x="499.18" y="-332.6" font-family="Arial" font-size="14.00" fill="#666666">[text]</text>
<polygon fill="none" stroke="black" points="443.15,-289.6 443.15,-320.4 720.19,-320.4 720.19,-289.6 443.15,-289.6"/>
<text text-anchor="start" x="450.15" y="-301.8" font-family="Arial" font-size="14.00">created_by </text>
<text text-anchor="start" x="523.31" y="-301.8" font-family="Arial" font-size="14.00" fill="#666666">[uuid]</text>
<polygon fill="none" stroke="black" points="443.15,-258.8 443.15,-289.6 720.19,-289.6 720.19,-258.8 443.15,-258.8"/>
<text text-anchor="start" x="450.15" y="-271" font-family="Arial" font-size="14.00">channel_id </text>
<text text-anchor="start" x="521.76" y="-271" font-family="Arial" font-size="14.00" fill="#666666">[uuid]</text>
<polygon fill="none" stroke="black" points="443.15,-228 443.15,-258.8 720.19,-258.8 720.19,-228 443.15,-228"/>
<text text-anchor="start" x="450.15" y="-240.2" font-family="Arial" font-size="14.00">video_id </text>
<text text-anchor="start" x="506.19" y="-240.2" font-family="Arial" font-size="14.00" fill="#666666">[text]</text>
<polygon fill="none" stroke="black" points="443.15,-197.2 443.15,-228 720.19,-228 720.19,-197.2 443.15,-197.2"/>
<text text-anchor="start" x="450.15" y="-209.4" font-family="Arial" font-size="14.00">created_on </text>
<text text-anchor="start" x="524.09" y="-209.4" font-family="Arial" font-size="14.00" fill="#666666">[timestamp without time zone]</text>
<polygon fill="none" stroke="black" points="443.15,-166.4 443.15,-197.2 720.19,-197.2 720.19,-166.4 443.15,-166.4"/>
<text text-anchor="start" x="450.15" y="-178.6" font-family="Arial" font-size="14.00">updated_on </text>
<text text-anchor="start" x="528" y="-178.6" font-family="Arial" font-size="14.00" fill="#666666">[timestamp without time zone]</text>
<polygon fill="none" stroke="black" points="443.15,-135.6 443.15,-166.4 720.19,-166.4 720.19,-135.6 443.15,-135.6"/>
<text text-anchor="start" x="450.15" y="-147.8" font-family="Arial" font-size="14.00">status </text>
<text text-anchor="start" x="491.39" y="-147.8" font-family="Arial" font-size="14.00" fill="#666666">[post_status]</text>
<polygon fill="none" stroke="black" points="443.15,-104.8 443.15,-135.6 720.19,-135.6 720.19,-104.8 443.15,-104.8"/>
<text text-anchor="start" x="450.15" y="-117" font-family="Arial" font-size="14.00">upvotes </text>
<text text-anchor="start" x="503.07" y="-117" font-family="Arial" font-size="14.00" fill="#666666">[integer]</text>
<polygon fill="none" stroke="black" points="443.15,-74 443.15,-104.8 720.19,-104.8 720.19,-74 443.15,-74"/>
<text text-anchor="start" x="450.15" y="-86.2" font-family="Arial" font-size="14.00">downvotes </text>
<text text-anchor="start" x="520.97" y="-86.2" font-family="Arial" font-size="14.00" fill="#666666">[integer]</text>
<polygon fill="none" stroke="black" points="443.15,-43.2 443.15,-74 720.19,-74 720.19,-43.2 443.15,-43.2"/>
<text text-anchor="start" x="450.15" y="-55.4" font-family="Arial" font-size="14.00">comments </text>
<text text-anchor="start" x="518.61" y="-55.4" font-family="Arial" font-size="14.00" fill="#666666">[integer]</text>
</g>
<!-- public.comment&#45;&gt;public.post -->
<g id="edge4" class="edge">
<title>public.comment:post_id&#45;&gt;public.post:id</title>
<path fill="none" stroke="black" d="M540.54,-773.42C622.68,-763.73 580.44,-635.01 529.19,-558.4 506.14,-523.95 466.3,-556.79 443.15,-522.4 419.76,-487.67 400.28,-428.2 442.15,-428.2"/>
<polygon fill="black" stroke="black" points="540.51,-773.42 530.27,-769.49 535.18,-773.72 530.86,-773.96 530.86,-773.96 530.86,-773.96 535.18,-773.72 530.77,-778.47 540.51,-773.42"/>
<text text-anchor="start" x="537.19" y="-784" font-family="Arial" font-size="10.00">FOREIGN KEY (post_id) REFERENCES post(id) ON DELETE CASCADE</text>
</g>
<!-- public.comment_vote -->
<g id="node2" class="node">
<title>public.comment_vote</title>
<polygon fill="#efefef" stroke="none" points="243.19,-1135.2 243.19,-1170.8 538.14,-1170.8 538.14,-1135.2 243.19,-1135.2"/>
<polygon fill="none" stroke="black" points="243.19,-1135.2 243.19,-1170.8 538.14,-1170.8 538.14,-1135.2 243.19,-1135.2"/>
<text text-anchor="start" x="250.19" y="-1148.6" font-family="Arial Bold" font-size="18.00">public.comment_vote</text>
<text text-anchor="start" x="406.66" y="-1148.6" font-family="Arial" font-size="14.00">    </text>
<text text-anchor="start" x="437.77" y="-1148.6" font-family="Arial" font-size="14.00" fill="#666666">[BASE TABLE]</text>
<polygon fill="none" stroke="black" points="243.19,-1104.4 243.19,-1135.2 538.14,-1135.2 538.14,-1104.4 243.19,-1104.4"/>
<text text-anchor="start" x="250.19" y="-1116.6" font-family="Arial" font-size="14.00">comment_id </text>
<text text-anchor="start" x="330.34" y="-1116.6" font-family="Arial" font-size="14.00" fill="#666666">[uuid]</text>
<polygon fill="none" stroke="black" points="243.19,-1073.6 243.19,-1104.4 538.14,-1104.4 538.14,-1073.6 243.19,-1073.6"/>
<text text-anchor="start" x="250.19" y="-1085.8" font-family="Arial" font-size="14.00">user_id </text>
<text text-anchor="start" x="300" y="-1085.8" font-family="Arial" font-size="14.00" fill="#666666">[uuid]</text>
<polygon fill="none" stroke="black" points="243.19,-1042.8 243.19,-1073.6 538.14,-1073.6 538.14,-1042.8 243.19,-1042.8"/>
<text text-anchor="start" x="250.19" y="-1055" font-family="Arial" font-size="14.00">vote </text>
<text text-anchor="start" x="280.54" y="-1055" font-family="Arial" font-size="14.00" fill="#666666">[vote]</text>
</g>
<!-- public.comment_vote&#45;&gt;public.comment -->
<g id="edge2" class="edge">
<title>public.comment_vote:comment_id&#45;&gt;public.comment:id</title>
<path fill="none" stroke="black" d="M549.35,-1119.07C651.18,-1104.21 639.36,-866.4 530.19,-866.4"/>
<polygon fill="black" stroke="black" points="549.45,-1119.07 539.16,-1115.29 544.13,-1119.44 539.81,-1119.75 539.81,-1119.75 539.81,-1119.75 544.13,-1119.44 539.8,-1124.26 549.45,-1119.07"/>
<text text-anchor="start" x="546.14" y="-1129.8" font-family="Arial" font-size="10.00">FOREIGN KEY (comment_id) REFERENCES comment(id) ON DELETE CASCADE</text>
</g>
</g>
</svg>
