<?xml version="1.0" encoding="UTF-8" standalone="no"?>
<!DOCTYPE svg PUBLIC "-//W3C//DTD SVG 1.1//EN"
 "http://www.w3.org/Graphics/SVG/1.1/DTD/svg11.dtd">
<!-- Generated by graphviz version 12.1.2 (20240928.0832)
 -->
<!-- Title: public.channel_post_report Pages: 1 -->
<svg width="831pt" height="879pt"
 viewBox="0.00 0.00 831.25 879.20" xmlns="http://www.w3.org/2000/svg" xmlns:xlink="http://www.w3.org/1999/xlink">
<g id="graph0" class="graph" transform="scale(1 1) rotate(0) translate(4 875.2)">
<title>public.channel_post_report</title>
<polygon fill="white" stroke="none" points="-4,4 -4,-875.2 827.25,-875.2 827.25,4 -4,4"/>
<!-- public.channel_post_report -->
<g id="node1" class="node">
<title>public.channel_post_report</title>
<polygon fill="#efefef" stroke="none" points="232.28,-789.4 232.28,-825 567.21,-825 567.21,-789.4 232.28,-789.4"/>
<polygon fill="none" stroke="black" points="232.28,-789.4 232.28,-825 567.21,-825 567.21,-789.4 232.28,-789.4"/>
<text text-anchor="start" x="239.28" y="-802.8" font-family="Arial Bold" font-size="18.00">public.channel_post_report</text>
<text text-anchor="start" x="435.72" y="-802.8" font-family="Arial" font-size="14.00">    </text>
<text text-anchor="start" x="466.84" y="-802.8" font-family="Arial" font-size="14.00" fill="#666666">[BASE TABLE]</text>
<polygon fill="none" stroke="black" points="232.28,-758.6 232.28,-789.4 567.21,-789.4 567.21,-758.6 232.28,-758.6"/>
<text text-anchor="start" x="239.28" y="-770.8" font-family="Arial" font-size="14.00">id </text>
<text text-anchor="start" x="254.06" y="-770.8" font-family="Arial" font-size="14.00" fill="#666666">[uuid]</text>
<polygon fill="none" stroke="black" points="232.28,-727.8 232.28,-758.6 567.21,-758.6 567.21,-727.8 232.28,-727.8"/>
<text text-anchor="start" x="239.28" y="-740" font-family="Arial" font-size="14.00">post_id </text>
<text text-anchor="start" x="288.31" y="-740" font-family="Arial" font-size="14.00" fill="#666666">[uuid]</text>
<polygon fill="none" stroke="black" points="232.28,-697 232.28,-727.8 567.21,-727.8 567.21,-697 232.28,-697"/>
<text text-anchor="start" x="239.28" y="-709.2" font-family="Arial" font-size="14.00">reporter_id </text>
<text text-anchor="start" x="310.87" y="-709.2" font-family="Arial" font-size="14.00" fill="#666666">[uuid]</text>
<polygon fill="none" stroke="black" points="232.28,-666.2 232.28,-697 567.21,-697 567.21,-666.2 232.28,-666.2"/>
<text text-anchor="start" x="239.28" y="-678.4" font-family="Arial" font-size="14.00">description </text>
<text text-anchor="start" x="310.87" y="-678.4" font-family="Arial" font-size="14.00" fill="#666666">[text]</text>
<polygon fill="none" stroke="black" points="232.28,-635.4 232.28,-666.2 567.21,-666.2 567.21,-635.4 232.28,-635.4"/>
<text text-anchor="start" x="239.28" y="-647.6" font-family="Arial" font-size="14.00">resolution </text>
<text text-anchor="start" x="303.87" y="-647.6" font-family="Arial" font-size="14.00" fill="#666666">[text]</text>
<polygon fill="none" stroke="black" points="232.28,-604.6 232.28,-635.4 567.21,-635.4 567.21,-604.6 232.28,-604.6"/>
<text text-anchor="start" x="239.28" y="-616.8" font-family="Arial" font-size="14.00">status </text>
<text text-anchor="start" x="280.52" y="-616.8" font-family="Arial" font-size="14.00" fill="#666666">[report_status]</text>
<polygon fill="none" stroke="black" stroke-width="3" points="230.78,-603.1 230.78,-826.5 568.71,-826.5 568.71,-603.1 230.78,-603.1"/>
</g>
<!-- public.post -->
<g id="node2" class="node">
<title>public.post</title>
<polygon fill="#efefef" stroke="none" points="71.22,-443.6 71.22,-479.2 348.26,-479.2 348.26,-443.6 71.22,-443.6"/>
<polygon fill="none" stroke="black" points="71.22,-443.6 71.22,-479.2 348.26,-479.2 348.26,-443.6 71.22,-443.6"/>
<text text-anchor="start" x="107.75" y="-457" font-family="Arial Bold" font-size="18.00">public.post</text>
<text text-anchor="start" x="187.25" y="-457" font-family="Arial" font-size="14.00">    </text>
<text text-anchor="start" x="218.36" y="-457" font-family="Arial" font-size="14.00" fill="#666666">[BASE TABLE]</text>
<polygon fill="none" stroke="black" points="71.22,-412.8 71.22,-443.6 348.26,-443.6 348.26,-412.8 71.22,-412.8"/>
<text text-anchor="start" x="78.22" y="-425" font-family="Arial" font-size="14.00">id </text>
<text text-anchor="start" x="93.01" y="-425" font-family="Arial" font-size="14.00" fill="#666666">[uuid]</text>
<polygon fill="none" stroke="black" points="71.22,-382 71.22,-412.8 348.26,-412.8 348.26,-382 71.22,-382"/>
<text text-anchor="start" x="78.22" y="-394.2" font-family="Arial" font-size="14.00">name </text>
<text text-anchor="start" x="117.13" y="-394.2" font-family="Arial" font-size="14.00" fill="#666666">[text]</text>
<polygon fill="none" stroke="black" points="71.22,-351.2 71.22,-382 348.26,-382 348.26,-351.2 71.22,-351.2"/>
<text text-anchor="start" x="78.22" y="-363.4" font-family="Arial" font-size="14.00">description </text>
<text text-anchor="start" x="149.81" y="-363.4" font-family="Arial" font-size="14.00" fill="#666666">[text]</text>
<polygon fill="none" stroke="black" points="71.22,-320.4 71.22,-351.2 348.26,-351.2 348.26,-320.4 71.22,-320.4"/>
<text text-anchor="start" x="78.22" y="-332.6" font-family="Arial" font-size="14.00">alt_text </text>
<text text-anchor="start" x="127.25" y="-332.6" font-family="Arial" font-size="14.00" fill="#666666">[text]</text>
<polygon fill="none" stroke="black" points="71.22,-289.6 71.22,-320.4 348.26,-320.4 348.26,-289.6 71.22,-289.6"/>
<text text-anchor="start" x="78.22" y="-301.8" font-family="Arial" font-size="14.00">created_by </text>
<text text-anchor="start" x="151.38" y="-301.8" font-family="Arial" font-size="14.00" fill="#666666">[uuid]</text>
<polygon fill="none" stroke="black" points="71.22,-258.8 71.22,-289.6 348.26,-289.6 348.26,-258.8 71.22,-258.8"/>
<text text-anchor="start" x="78.22" y="-271" font-family="Arial" font-size="14.00">channel_id </text>
<text text-anchor="start" x="149.84" y="-271" font-family="Arial" font-size="14.00" fill="#666666">[uuid]</text>
<polygon fill="none" stroke="black" points="71.22,-228 71.22,-258.8 348.26,-258.8 348.26,-228 71.22,-228"/>
<text text-anchor="start" x="78.22" y="-240.2" font-family="Arial" font-size="14.00">video_id </text>
<text text-anchor="start" x="134.26" y="-240.2" font-family="Arial" font-size="14.00" fill="#666666">[text]</text>
<polygon fill="none" stroke="black" points="71.22,-197.2 71.22,-228 348.26,-228 348.26,-197.2 71.22,-197.2"/>
<text text-anchor="start" x="78.22" y="-209.4" font-family="Arial" font-size="14.00">created_on </text>
<text text-anchor="start" x="152.17" y="-209.4" font-family="Arial" font-size="14.00" fill="#666666">[timestamp without time zone]</text>
<polygon fill="none" stroke="black" points="71.22,-166.4 71.22,-197.2 348.26,-197.2 348.26,-166.4 71.22,-166.4"/>
<text text-anchor="start" x="78.22" y="-178.6" font-family="Arial" font-size="14.00">updated_on </text>
<text text-anchor="start" x="156.08" y="-178.6" font-family="Arial" font-size="14.00" fill="#666666">[timestamp without time zone]</text>
<polygon fill="none" stroke="black" points="71.22,-135.6 71.22,-166.4 348.26,-166.4 348.26,-135.6 71.22,-135.6"/>
<text text-anchor="start" x="78.22" y="-147.8" font-family="Arial" font-size="14.00">status </text>
<text text-anchor="start" x="119.46" y="-147.8" font-family="Arial" font-size="14.00" fill="#666666">[post_status]</text>
<polygon fill="none" stroke="black" points="71.22,-104.8 71.22,-135.6 348.26,-135.6 348.26,-104.8 71.22,-104.8"/>
<text text-anchor="start" x="78.22" y="-117" font-family="Arial" font-size="14.00">upvotes </text>
<text text-anchor="start" x="131.15" y="-117" font-family="Arial" font-size="14.00" fill="#666666">[integer]</text>
<polygon fill="none" stroke="black" points="71.22,-74 71.22,-104.8 348.26,-104.8 348.26,-74 71.22,-74"/>
<text text-anchor="start" x="78.22" y="-86.2" font-family="Arial" font-size="14.00">downvotes </text>
<text text-anchor="start" x="149.04" y="-86.2" font-family="Arial" font-size="14.00" fill="#666666">[integer]</text>
<polygon fill="none" stroke="black" points="71.22,-43.2 71.22,-74 348.26,-74 348.26,-43.2 71.22,-43.2"/>
<text text-anchor="start" x="78.22" y="-55.4" font-family="Arial" font-size="14.00">comments </text>
<text text-anchor="start" x="146.68" y="-55.4" font-family="Arial" font-size="14.00" fill="#666666">[integer]</text>
</g>
<!-- public.channel_post_report&#45;&gt;public.post -->
<g id="edge1" class="edge">
<title>public.channel_post_report:post_id&#45;&gt;public.post:id</title>
<path fill="none" stroke="black" d="M220.9,-742.5C152.25,-732.63 185.58,-621.43 232.28,-558.4 264.41,-515.03 316.02,-565.69 348.26,-522.4 373.27,-488.82 391.13,-428.2 349.26,-428.2"/>
<polygon fill="black" stroke="black" points="220.96,-742.5 230.64,-747.67 226.29,-742.86 230.61,-743.15 230.61,-743.15 230.61,-743.15 226.29,-742.86 231.25,-738.69 220.96,-742.5"/>
<text text-anchor="start" x="7" y="-753.2" font-family="Arial" font-size="10.00">FOREIGN KEY (post_id) REFERENCES post(id)</text>
</g>
<!-- public.user -->
<g id="node3" class="node">
<title>public.user</title>
<polygon fill="#efefef" stroke="none" points="452.22,-397.4 452.22,-433 729.26,-433 729.26,-397.4 452.22,-397.4"/>
<polygon fill="none" stroke="black" points="452.22,-397.4 452.22,-433 729.26,-433 729.26,-397.4 452.22,-397.4"/>
<text text-anchor="start" x="488.76" y="-410.8" font-family="Arial Bold" font-size="18.00">public.user</text>
<text text-anchor="start" x="568.24" y="-410.8" font-family="Arial" font-size="14.00">    </text>
<text text-anchor="start" x="599.35" y="-410.8" font-family="Arial" font-size="14.00" fill="#666666">[BASE TABLE]</text>
<polygon fill="none" stroke="black" points="452.22,-366.6 452.22,-397.4 729.26,-397.4 729.26,-366.6 452.22,-366.6"/>
<text text-anchor="start" x="459.22" y="-378.8" font-family="Arial" font-size="14.00">id </text>
<text text-anchor="start" x="474.01" y="-378.8" font-family="Arial" font-size="14.00" fill="#666666">[uuid]</text>
<polygon fill="none" stroke="black" points="452.22,-335.8 452.22,-366.6 729.26,-366.6 729.26,-335.8 452.22,-335.8"/>
<text text-anchor="start" x="459.22" y="-348" font-family="Arial" font-size="14.00">username </text>
<text text-anchor="start" x="525.37" y="-348" font-family="Arial" font-size="14.00" fill="#666666">[varchar(25)]</text>
<polygon fill="none" stroke="black" points="452.22,-305 452.22,-335.8 729.26,-335.8 729.26,-305 452.22,-305"/>
<text text-anchor="start" x="459.22" y="-317.2" font-family="Arial" font-size="14.00">profile_image </text>
<text text-anchor="start" x="547.16" y="-317.2" font-family="Arial" font-size="14.00" fill="#666666">[text]</text>
<polygon fill="none" stroke="black" points="452.22,-274.2 452.22,-305 729.26,-305 729.26,-274.2 452.22,-274.2"/>
<text text-anchor="start" x="459.22" y="-286.4" font-family="Arial" font-size="14.00">role </text>
<text text-anchor="start" x="486.46" y="-286.4" font-family="Arial" font-size="14.00" fill="#666666">[site_role]</text>
<polygon fill="none" stroke="black" points="452.22,-243.4 452.22,-274.2 729.26,-274.2 729.26,-243.4 452.22,-243.4"/>
<text text-anchor="start" x="459.22" y="-255.6" font-family="Arial" font-size="14.00">created_on </text>
<text text-anchor="start" x="533.17" y="-255.6" font-family="Arial" font-size="14.00" fill="#666666">[timestamp without time zone]</text>
<polygon fill="none" stroke="black" points="452.22,-212.6 452.22,-243.4 729.26,-243.4 729.26,-212.6 452.22,-212.6"/>
<text text-anchor="start" x="459.22" y="-224.8" font-family="Arial" font-size="14.00">updated_on </text>
<text text-anchor="start" x="537.08" y="-224.8" font-family="Arial" font-size="14.00" fill="#666666">[timestamp without time zone]</text>
<polygon fill="none" stroke="black" points="452.22,-181.8 452.22,-212.6 729.26,-212.6 729.26,-181.8 452.22,-181.8"/>
<text text-anchor="start" x="459.22" y="-194" font-family="Arial" font-size="14.00">discord_id </text>
<text text-anchor="start" x="526.93" y="-194" font-family="Arial" font-size="14.00" fill="#666666">[bigint]</text>
<polygon fill="none" stroke="black" points="452.22,-151 452.22,-181.8 729.26,-181.8 729.26,-151 452.22,-151"/>
<text text-anchor="start" x="459.22" y="-163.2" font-family="Arial" font-size="14.00">github_id </text>
<text text-anchor="start" x="519.94" y="-163.2" font-family="Arial" font-size="14.00" fill="#666666">[integer]</text>
<polygon fill="none" stroke="black" points="452.22,-120.2 452.22,-151 729.26,-151 729.26,-120.2 452.22,-120.2"/>
<text text-anchor="start" x="459.22" y="-132.4" font-family="Arial" font-size="14.00">followers </text>
<text text-anchor="start" x="518.35" y="-132.4" font-family="Arial" font-size="14.00" fill="#666666">[integer]</text>
<polygon fill="none" stroke="black" points="452.22,-89.4 452.22,-120.2 729.26,-120.2 729.26,-89.4 452.22,-89.4"/>
<text text-anchor="start" x="459.22" y="-101.6" font-family="Arial" font-size="14.00">following </text>
<text text-anchor="start" x="517.59" y="-101.6" font-family="Arial" font-size="14.00" fill="#666666">[integer]</text>
</g>
<!-- public.channel_post_report&#45;&gt;public.user -->
<g id="edge2" class="edge">
<title>public.channel_post_report:reporter_id&#45;&gt;public.user:id</title>
<path fill="none" stroke="black" d="M578.5,-711.58C632.52,-702.3 596.99,-615.84 567.21,-558.4 538.29,-502.63 481.25,-531.91 452.22,-476.2 432.87,-439.07 409.35,-382 451.22,-382"/>
<polygon fill="black" stroke="black" points="578.51,-711.58 568.19,-707.89 573.19,-712 568.88,-712.35 568.88,-712.35 568.88,-712.35 573.19,-712 568.9,-716.86 578.51,-711.58"/>
<text text-anchor="start" x="575.21" y="-722.4" font-family="Arial" font-size="10.00">FOREIGN KEY (reporter_id) REFERENCES &quot;user&quot;(id)</text>
</g>
</g>
</svg>
