<?xml version="1.0" encoding="UTF-8" standalone="no"?>
<!DOCTYPE svg PUBLIC "-//W3C//DTD SVG 1.1//EN"
 "http://www.w3.org/Graphics/SVG/1.1/DTD/svg11.dtd">
<!-- Generated by graphviz version 2.40.1 (20161225.0304)
 -->
<!-- Title: public.post_vote Pages: 1 -->
<svg width="812pt" height="742pt"
 viewBox="0.00 0.00 812.00 742.00" xmlns="http://www.w3.org/2000/svg" xmlns:xlink="http://www.w3.org/1999/xlink">
<g id="graph0" class="graph" transform="scale(1 1) rotate(0) translate(4 738)">
<title>public.post_vote</title>
<polygon fill="#ffffff" stroke="transparent" points="-4,4 -4,-738 808,-738 808,4 -4,4"/>
<!-- public.post_vote -->
<g id="node1" class="node">
<title>public.post_vote</title>
<polygon fill="#efefef" stroke="transparent" points="266.5,-652.5 266.5,-687.5 537.5,-687.5 537.5,-652.5 266.5,-652.5"/>
<polygon fill="none" stroke="#000000" points="266.5,-652.5 266.5,-687.5 537.5,-687.5 537.5,-652.5 266.5,-652.5"/>
<text text-anchor="start" x="273.1937" y="-665.3" font-family="Arial Bold" font-size="18.00" fill="#000000">public.post_vote</text>
<text text-anchor="start" x="403.2383" y="-665.3" font-family="Arial" font-size="14.00" fill="#000000">    </text>
<text text-anchor="start" x="437.4431" y="-665.3" font-family="Arial" font-size="14.00" fill="#666666">[BASE TABLE]</text>
<polygon fill="none" stroke="#000000" points="266.5,-622.5 266.5,-652.5 537.5,-652.5 537.5,-622.5 266.5,-622.5"/>
<text text-anchor="start" x="273.5" y="-633.9" font-family="Arial" font-size="14.00" fill="#000000">post_id </text>
<text text-anchor="start" x="322.5182" y="-633.9" font-family="Arial" font-size="14.00" fill="#666666">[uuid]</text>
<polygon fill="none" stroke="#000000" points="266.5,-592.5 266.5,-622.5 537.5,-622.5 537.5,-592.5 266.5,-592.5"/>
<text text-anchor="start" x="273.5" y="-603.9" font-family="Arial" font-size="14.00" fill="#000000">user_id </text>
<text text-anchor="start" x="323.2882" y="-603.9" font-family="Arial" font-size="14.00" fill="#666666">[uuid]</text>
<polygon fill="none" stroke="#000000" points="266.5,-562.5 266.5,-592.5 537.5,-592.5 537.5,-562.5 266.5,-562.5"/>
<text text-anchor="start" x="273.5" y="-573.9" font-family="Arial" font-size="14.00" fill="#000000">vote </text>
<text text-anchor="start" x="303.8464" y="-573.9" font-family="Arial" font-size="14.00" fill="#666666">[vote]</text>
<polygon fill="none" stroke="#000000" stroke-width="3" points="264.5,-561.5 264.5,-689.5 538.5,-689.5 538.5,-561.5 264.5,-561.5"/>
</g>
<!-- public.post -->
<g id="node2" class="node">
<title>public.post</title>
<polygon fill="#efefef" stroke="transparent" points="43.5,-402.5 43.5,-437.5 350.5,-437.5 350.5,-402.5 43.5,-402.5"/>
<polygon fill="none" stroke="#000000" points="43.5,-402.5 43.5,-437.5 350.5,-437.5 350.5,-402.5 43.5,-402.5"/>
<text text-anchor="start" x="90.2041" y="-415.3" font-family="Arial Bold" font-size="18.00" fill="#000000">public.post</text>
<text text-anchor="start" x="176.2279" y="-415.3" font-family="Arial" font-size="14.00" fill="#000000">    </text>
<text text-anchor="start" x="210.4327" y="-415.3" font-family="Arial" font-size="14.00" fill="#666666">[BASE TABLE]</text>
<polygon fill="none" stroke="#000000" points="43.5,-372.5 43.5,-402.5 350.5,-402.5 350.5,-372.5 43.5,-372.5"/>
<text text-anchor="start" x="50.5" y="-383.9" font-family="Arial" font-size="14.00" fill="#000000">id    </text>
<text text-anchor="start" x="95.594" y="-383.9" font-family="Arial" font-size="14.00" fill="#666666">[uuid]</text>
<polygon fill="none" stroke="#000000" points="43.5,-342.5 43.5,-372.5 350.5,-372.5 350.5,-342.5 43.5,-342.5"/>
<text text-anchor="start" x="50.5" y="-353.9" font-family="Arial" font-size="14.00" fill="#000000">name    </text>
<text text-anchor="start" x="119.7132" y="-353.9" font-family="Arial" font-size="14.00" fill="#666666">[text]</text>
<polygon fill="none" stroke="#000000" points="43.5,-312.5 43.5,-342.5 350.5,-342.5 350.5,-312.5 43.5,-312.5"/>
<text text-anchor="start" x="50.5" y="-323.9" font-family="Arial" font-size="14.00" fill="#000000">description    </text>
<text text-anchor="start" x="152.3822" y="-323.9" font-family="Arial" font-size="14.00" fill="#666666">[text]</text>
<polygon fill="none" stroke="#000000" points="43.5,-282.5 43.5,-312.5 350.5,-312.5 350.5,-282.5 43.5,-282.5"/>
<text text-anchor="start" x="50.5" y="-293.9" font-family="Arial" font-size="14.00" fill="#000000">alt_text    </text>
<text text-anchor="start" x="129.831" y="-293.9" font-family="Arial" font-size="14.00" fill="#666666">[text]</text>
<polygon fill="none" stroke="#000000" points="43.5,-252.5 43.5,-282.5 350.5,-282.5 350.5,-252.5 43.5,-252.5"/>
<text text-anchor="start" x="50.5" y="-263.9" font-family="Arial" font-size="14.00" fill="#000000">created_by    </text>
<text text-anchor="start" x="153.9516" y="-263.9" font-family="Arial" font-size="14.00" fill="#666666">[uuid]</text>
<polygon fill="none" stroke="#000000" points="43.5,-222.5 43.5,-252.5 350.5,-252.5 350.5,-222.5 43.5,-222.5"/>
<text text-anchor="start" x="50.5" y="-233.9" font-family="Arial" font-size="14.00" fill="#000000">channel_id    </text>
<text text-anchor="start" x="152.3962" y="-233.9" font-family="Arial" font-size="14.00" fill="#666666">[uuid]</text>
<polygon fill="none" stroke="#000000" points="43.5,-192.5 43.5,-222.5 350.5,-222.5 350.5,-192.5 43.5,-192.5"/>
<text text-anchor="start" x="50.5" y="-203.9" font-family="Arial" font-size="14.00" fill="#000000">video_id    </text>
<text text-anchor="start" x="136.831" y="-203.9" font-family="Arial" font-size="14.00" fill="#666666">[text]</text>
<polygon fill="none" stroke="#000000" points="43.5,-162.5 43.5,-192.5 350.5,-192.5 350.5,-162.5 43.5,-162.5"/>
<text text-anchor="start" x="50.5" y="-173.9" font-family="Arial" font-size="14.00" fill="#000000">created_on    </text>
<text text-anchor="start" x="154.7342" y="-173.9" font-family="Arial" font-size="14.00" fill="#666666">[timestamp without time zone]</text>
<polygon fill="none" stroke="#000000" points="43.5,-132.5 43.5,-162.5 350.5,-162.5 350.5,-132.5 43.5,-132.5"/>
<text text-anchor="start" x="50.3605" y="-143.9" font-family="Arial" font-size="14.00" fill="#000000">updated_on    </text>
<text text-anchor="start" x="158.4993" y="-143.9" font-family="Arial" font-size="14.00" fill="#666666">[timestamp without time zone]</text>
<polygon fill="none" stroke="#000000" points="43.5,-102.5 43.5,-132.5 350.5,-132.5 350.5,-102.5 43.5,-102.5"/>
<text text-anchor="start" x="50.5" y="-113.9" font-family="Arial" font-size="14.00" fill="#000000">upvotes    </text>
<text text-anchor="start" x="133.7258" y="-113.9" font-family="Arial" font-size="14.00" fill="#666666">[integer]</text>
<polygon fill="none" stroke="#000000" points="43.5,-72.5 43.5,-102.5 350.5,-102.5 350.5,-72.5 43.5,-72.5"/>
<text text-anchor="start" x="50.5" y="-83.9" font-family="Arial" font-size="14.00" fill="#000000">downvotes    </text>
<text text-anchor="start" x="151.615" y="-83.9" font-family="Arial" font-size="14.00" fill="#666666">[integer]</text>
<polygon fill="none" stroke="#000000" points="43.5,-42.5 43.5,-72.5 350.5,-72.5 350.5,-42.5 43.5,-42.5"/>
<text text-anchor="start" x="50.5" y="-53.9" font-family="Arial" font-size="14.00" fill="#000000">comments    </text>
<text text-anchor="start" x="149.2644" y="-53.9" font-family="Arial" font-size="14.00" fill="#666666">[integer]</text>
</g>
<!-- public.post_vote&#45;&gt;public.post -->
<g id="edge1" class="edge">
<title>public.post_vote:post_id&#45;&gt;public.post:id</title>
<path fill="none" stroke="#000000" d="M256.3294,-636.4131C216.3565,-626.9957 239.0911,-558.5667 266.5,-517 288.8595,-483.0909 328.1405,-514.9091 350.5,-481 373.376,-446.3077 392.0556,-387.5 350.5,-387.5"/>
<polygon fill="#000000" stroke="#000000" points="256.5566,-636.4373 266.0218,-641.9745 261.5283,-636.9686 266.5,-637.5 266.5,-637.5 266.5,-637.5 261.5283,-636.9686 266.9782,-633.0255 256.5566,-636.4373 256.5566,-636.4373"/>
<text text-anchor="start" x="42.8845" y="-647.5" font-family="Arial" font-size="10.00" fill="#000000">FOREIGN KEY (post_id) REFERENCES post(id)</text>
</g>
<!-- public.user -->
<g id="node3" class="node">
<title>public.user</title>
<polygon fill="#efefef" stroke="transparent" points="454.5,-372.5 454.5,-407.5 761.5,-407.5 761.5,-372.5 454.5,-372.5"/>
<polygon fill="none" stroke="#000000" points="454.5,-372.5 454.5,-407.5 761.5,-407.5 761.5,-372.5 454.5,-372.5"/>
<text text-anchor="start" x="500.7091" y="-385.3" font-family="Arial Bold" font-size="18.00" fill="#000000">public.user</text>
<text text-anchor="start" x="587.7229" y="-385.3" font-family="Arial" font-size="14.00" fill="#000000">    </text>
<text text-anchor="start" x="621.9277" y="-385.3" font-family="Arial" font-size="14.00" fill="#666666">[BASE TABLE]</text>
<polygon fill="none" stroke="#000000" points="454.5,-342.5 454.5,-372.5 761.5,-372.5 761.5,-342.5 454.5,-342.5"/>
<text text-anchor="start" x="461.5" y="-353.9" font-family="Arial" font-size="14.00" fill="#000000">id    </text>
<text text-anchor="start" x="506.594" y="-353.9" font-family="Arial" font-size="14.00" fill="#666666">[uuid]</text>
<polygon fill="none" stroke="#000000" points="454.5,-312.5 454.5,-342.5 761.5,-342.5 761.5,-312.5 454.5,-312.5"/>
<text text-anchor="start" x="461.5" y="-323.9" font-family="Arial" font-size="14.00" fill="#000000">username    </text>
<text text-anchor="start" x="557.939" y="-323.9" font-family="Arial" font-size="14.00" fill="#666666">[varchar(25)]</text>
<polygon fill="none" stroke="#000000" points="454.5,-282.5 454.5,-312.5 761.5,-312.5 761.5,-282.5 454.5,-282.5"/>
<text text-anchor="start" x="461.5" y="-293.9" font-family="Arial" font-size="14.00" fill="#000000">profile_image    </text>
<text text-anchor="start" x="579.7146" y="-293.9" font-family="Arial" font-size="14.00" fill="#666666">[text]</text>
<polygon fill="none" stroke="#000000" points="454.5,-252.5 454.5,-282.5 761.5,-282.5 761.5,-252.5 454.5,-252.5"/>
<text text-anchor="start" x="461.5" y="-263.9" font-family="Arial" font-size="14.00" fill="#000000">role    </text>
<text text-anchor="start" x="519.0372" y="-263.9" font-family="Arial" font-size="14.00" fill="#666666">[site_role]</text>
<polygon fill="none" stroke="#000000" points="454.5,-222.5 454.5,-252.5 761.5,-252.5 761.5,-222.5 454.5,-222.5"/>
<text text-anchor="start" x="461.5" y="-233.9" font-family="Arial" font-size="14.00" fill="#000000">created_on    </text>
<text text-anchor="start" x="565.7342" y="-233.9" font-family="Arial" font-size="14.00" fill="#666666">[timestamp without time zone]</text>
<polygon fill="none" stroke="#000000" points="454.5,-192.5 454.5,-222.5 761.5,-222.5 761.5,-192.5 454.5,-192.5"/>
<text text-anchor="start" x="461.3605" y="-203.9" font-family="Arial" font-size="14.00" fill="#000000">updated_on    </text>
<text text-anchor="start" x="569.4993" y="-203.9" font-family="Arial" font-size="14.00" fill="#666666">[timestamp without time zone]</text>
<polygon fill="none" stroke="#000000" points="454.5,-162.5 454.5,-192.5 761.5,-192.5 761.5,-162.5 454.5,-162.5"/>
<text text-anchor="start" x="461.5" y="-173.9" font-family="Arial" font-size="14.00" fill="#000000">discord_id    </text>
<text text-anchor="start" x="559.4916" y="-173.9" font-family="Arial" font-size="14.00" fill="#666666">[bigint]</text>
<polygon fill="none" stroke="#000000" points="454.5,-132.5 454.5,-162.5 761.5,-162.5 761.5,-132.5 454.5,-132.5"/>
<text text-anchor="start" x="461.5" y="-143.9" font-family="Arial" font-size="14.00" fill="#000000">github_id    </text>
<text text-anchor="start" x="552.5042" y="-143.9" font-family="Arial" font-size="14.00" fill="#666666">[integer]</text>
<polygon fill="none" stroke="#000000" points="454.5,-102.5 454.5,-132.5 761.5,-132.5 761.5,-102.5 454.5,-102.5"/>
<text text-anchor="start" x="461.5" y="-113.9" font-family="Arial" font-size="14.00" fill="#000000">followers    </text>
<text text-anchor="start" x="550.9236" y="-113.9" font-family="Arial" font-size="14.00" fill="#666666">[integer]</text>
<polygon fill="none" stroke="#000000" points="454.5,-72.5 454.5,-102.5 761.5,-102.5 761.5,-72.5 454.5,-72.5"/>
<text text-anchor="start" x="461.5" y="-83.9" font-family="Arial" font-size="14.00" fill="#000000">following    </text>
<text text-anchor="start" x="550.1522" y="-83.9" font-family="Arial" font-size="14.00" fill="#666666">[integer]</text>
</g>
<!-- public.post_vote&#45;&gt;public.user -->
<g id="edge2" class="edge">
<title>public.post_vote:user_id&#45;&gt;public.user:id</title>
<path fill="none" stroke="#000000" d="M547.5459,-606.0146C573.3301,-597.0719 553.2704,-549.689 537.5,-517 517.0213,-474.5517 474.9787,-493.4483 454.5,-451 436.4435,-413.5724 412.9444,-357.5 454.5,-357.5"/>
<polygon fill="#000000" stroke="#000000" points="547.3924,-606.0372 536.8417,-603.0484 542.4462,-606.7686 537.5,-607.5 537.5,-607.5 537.5,-607.5 542.4462,-606.7686 538.1583,-611.9516 547.3924,-606.0372 547.3924,-606.0372"/>
<text text-anchor="start" x="544.7855" y="-617.5" font-family="Arial" font-size="10.00" fill="#000000">FOREIGN KEY (user_id) REFERENCES &quot;user&quot;(id)</text>
</g>
</g>
</svg>
