<?xml version="1.0" encoding="UTF-8" standalone="no"?>
<!DOCTYPE svg PUBLIC "-//W3C//DTD SVG 1.1//EN"
 "http://www.w3.org/Graphics/SVG/1.1/DTD/svg11.dtd">
<!-- Generated by graphviz version 2.40.1 (20161225.0304)
 -->
<!-- Title: public.session Pages: 1 -->
<svg width="570pt" height="562pt"
 viewBox="0.00 0.00 569.50 562.00" xmlns="http://www.w3.org/2000/svg" xmlns:xlink="http://www.w3.org/1999/xlink">
<g id="graph0" class="graph" transform="scale(1 1) rotate(0) translate(4 558)">
<title>public.session</title>
<polygon fill="#ffffff" stroke="transparent" points="-4,4 -4,-558 565.5,-558 565.5,4 -4,4"/>
<!-- public.session -->
<g id="node1" class="node">
<title>public.session</title>
<polygon fill="#efefef" stroke="transparent" points="239,-472.5 239,-507.5 493,-507.5 493,-472.5 239,-472.5"/>
<polygon fill="none" stroke="#000000" points="239,-472.5 239,-507.5 493,-507.5 493,-472.5 239,-472.5"/>
<text text-anchor="start" x="245.705" y="-485.3" font-family="Arial Bold" font-size="18.00" fill="#000000">public.session</text>
<text text-anchor="start" x="358.727" y="-485.3" font-family="Arial" font-size="14.00" fill="#000000">    </text>
<text text-anchor="start" x="392.9318" y="-485.3" font-family="Arial" font-size="14.00" fill="#666666">[BASE TABLE]</text>
<polygon fill="none" stroke="#000000" points="239,-442.5 239,-472.5 493,-472.5 493,-442.5 239,-442.5"/>
<text text-anchor="start" x="246" y="-453.9" font-family="Arial" font-size="14.00" fill="#000000">id </text>
<text text-anchor="start" x="260.7798" y="-453.9" font-family="Arial" font-size="14.00" fill="#666666">[text]</text>
<polygon fill="none" stroke="#000000" points="239,-412.5 239,-442.5 493,-442.5 493,-412.5 239,-412.5"/>
<text text-anchor="start" x="246" y="-423.9" font-family="Arial" font-size="14.00" fill="#000000">user_id </text>
<text text-anchor="start" x="295.7882" y="-423.9" font-family="Arial" font-size="14.00" fill="#666666">[uuid]</text>
<polygon fill="none" stroke="#000000" points="239,-382.5 239,-412.5 493,-412.5 493,-382.5 239,-382.5"/>
<text text-anchor="start" x="246" y="-393.9" font-family="Arial" font-size="14.00" fill="#000000">expires_at </text>
<text text-anchor="start" x="314.4614" y="-393.9" font-family="Arial" font-size="14.00" fill="#666666">[timestamp with time zone]</text>
<polygon fill="none" stroke="#000000" stroke-width="3" points="237.5,-381.5 237.5,-509.5 494.5,-509.5 494.5,-381.5 237.5,-381.5"/>
</g>
<!-- public.user -->
<g id="node2" class="node">
<title>public.user</title>
<polygon fill="#efefef" stroke="transparent" points="212,-222.5 212,-257.5 519,-257.5 519,-222.5 212,-222.5"/>
<polygon fill="none" stroke="#000000" points="212,-222.5 212,-257.5 519,-257.5 519,-222.5 212,-222.5"/>
<text text-anchor="start" x="258.2091" y="-235.3" font-family="Arial Bold" font-size="18.00" fill="#000000">public.user</text>
<text text-anchor="start" x="345.2229" y="-235.3" font-family="Arial" font-size="14.00" fill="#000000">    </text>
<text text-anchor="start" x="379.4277" y="-235.3" font-family="Arial" font-size="14.00" fill="#666666">[BASE TABLE]</text>
<polygon fill="none" stroke="#000000" points="212,-192.5 212,-222.5 519,-222.5 519,-192.5 212,-192.5"/>
<text text-anchor="start" x="219" y="-203.9" font-family="Arial" font-size="14.00" fill="#000000">id    </text>
<text text-anchor="start" x="264.094" y="-203.9" font-family="Arial" font-size="14.00" fill="#666666">[uuid]</text>
<polygon fill="none" stroke="#000000" points="212,-162.5 212,-192.5 519,-192.5 519,-162.5 212,-162.5"/>
<text text-anchor="start" x="219" y="-173.9" font-family="Arial" font-size="14.00" fill="#000000">username    </text>
<text text-anchor="start" x="315.439" y="-173.9" font-family="Arial" font-size="14.00" fill="#666666">[varchar(25)]</text>
<polygon fill="none" stroke="#000000" points="212,-132.5 212,-162.5 519,-162.5 519,-132.5 212,-132.5"/>
<text text-anchor="start" x="219" y="-143.9" font-family="Arial" font-size="14.00" fill="#000000">profile_image    </text>
<text text-anchor="start" x="337.2146" y="-143.9" font-family="Arial" font-size="14.00" fill="#666666">[text]</text>
<polygon fill="none" stroke="#000000" points="212,-102.5 212,-132.5 519,-132.5 519,-102.5 212,-102.5"/>
<text text-anchor="start" x="219" y="-113.9" font-family="Arial" font-size="14.00" fill="#000000">role    </text>
<text text-anchor="start" x="276.5372" y="-113.9" font-family="Arial" font-size="14.00" fill="#666666">[site_role]</text>
<polygon fill="none" stroke="#000000" points="212,-72.5 212,-102.5 519,-102.5 519,-72.5 212,-72.5"/>
<text text-anchor="start" x="219" y="-83.9" font-family="Arial" font-size="14.00" fill="#000000">created_on    </text>
<text text-anchor="start" x="323.2342" y="-83.9" font-family="Arial" font-size="14.00" fill="#666666">[timestamp without time zone]</text>
<polygon fill="none" stroke="#000000" points="212,-42.5 212,-72.5 519,-72.5 519,-42.5 212,-42.5"/>
<text text-anchor="start" x="218.8605" y="-53.9" font-family="Arial" font-size="14.00" fill="#000000">updated_on    </text>
<text text-anchor="start" x="326.9993" y="-53.9" font-family="Arial" font-size="14.00" fill="#666666">[timestamp without time zone]</text>
</g>
<!-- public.session&#45;&gt;public.user -->
<g id="edge1" class="edge">
<title>public.session:user_id&#45;&gt;public.user:id</title>
<path fill="none" stroke="#000000" d="M229.0744,-425.9846C201.4518,-416.4584 214.9244,-364.3692 239,-337 321.8701,-242.793 436.1299,-395.207 519,-301 546.4468,-269.7984 560.5556,-207.5 519,-207.5"/>
<polygon fill="#000000" stroke="#000000" points="229.1146,-425.9906 238.3208,-431.9485 234.0573,-426.7453 239,-427.5 239,-427.5 239,-427.5 234.0573,-426.7453 239.6792,-423.0515 229.1146,-425.9906 229.1146,-425.9906"/>
<text text-anchor="start" x="7.2855" y="-437.5" font-family="Arial" font-size="10.00" fill="#000000">FOREIGN KEY (user_id) REFERENCES &quot;user&quot;(id)</text>
</g>
</g>
</svg>
