<?xml version="1.0" encoding="UTF-8" standalone="no"?>
<!DOCTYPE svg PUBLIC "-//W3C//DTD SVG 1.1//EN"
 "http://www.w3.org/Graphics/SVG/1.1/DTD/svg11.dtd">
<!-- Generated by graphviz version 2.40.1 (20161225.0304)
 -->
<!-- Title: public.channel_tags Pages: 1 -->
<svg width="617pt" height="869pt"
 viewBox="0.00 0.00 617.00 869.00" xmlns="http://www.w3.org/2000/svg" xmlns:xlink="http://www.w3.org/1999/xlink">
<g id="graph0" class="graph" transform="scale(1 1) rotate(0) translate(4 865)">
<title>public.channel_tags</title>
<polygon fill="#ffffff" stroke="transparent" points="-4,4 -4,-865 613,-865 613,4 -4,4"/>
<!-- public.channel_tags -->
<g id="node1" class="node">
<title>public.channel_tags</title>
<polygon fill="#efefef" stroke="transparent" points="263,-532.5 263,-567.5 563,-567.5 563,-532.5 263,-532.5"/>
<polygon fill="none" stroke="#000000" points="263,-532.5 263,-567.5 563,-567.5 563,-532.5 263,-532.5"/>
<text text-anchor="start" x="269.6884" y="-545.3" font-family="Arial Bold" font-size="18.00" fill="#000000">public.channel_tags</text>
<text text-anchor="start" x="428.7436" y="-545.3" font-family="Arial" font-size="14.00" fill="#000000">    </text>
<text text-anchor="start" x="462.9484" y="-545.3" font-family="Arial" font-size="14.00" fill="#666666">[BASE TABLE]</text>
<polygon fill="none" stroke="#000000" points="263,-502.5 263,-532.5 563,-532.5 563,-502.5 263,-502.5"/>
<text text-anchor="start" x="270" y="-513.9" font-family="Arial" font-size="14.00" fill="#000000">id </text>
<text text-anchor="start" x="284.7798" y="-513.9" font-family="Arial" font-size="14.00" fill="#666666">[uuid]</text>
<polygon fill="none" stroke="#000000" points="263,-472.5 263,-502.5 563,-502.5 563,-472.5 263,-472.5"/>
<text text-anchor="start" x="270" y="-483.9" font-family="Arial" font-size="14.00" fill="#000000">channel_id </text>
<text text-anchor="start" x="341.582" y="-483.9" font-family="Arial" font-size="14.00" fill="#666666">[uuid]</text>
<polygon fill="none" stroke="#000000" points="263,-442.5 263,-472.5 563,-472.5 563,-442.5 263,-442.5"/>
<text text-anchor="start" x="270" y="-453.9" font-family="Arial" font-size="14.00" fill="#000000">name </text>
<text text-anchor="start" x="308.899" y="-453.9" font-family="Arial" font-size="14.00" fill="#666666">[varchar(16)]</text>
<polygon fill="none" stroke="#000000" points="263,-412.5 263,-442.5 563,-442.5 563,-412.5 263,-412.5"/>
<text text-anchor="start" x="270" y="-423.9" font-family="Arial" font-size="14.00" fill="#000000">color </text>
<text text-anchor="start" x="304.223" y="-423.9" font-family="Arial" font-size="14.00" fill="#666666">[varchar(16)]</text>
<polygon fill="none" stroke="#000000" stroke-width="3" points="261.5,-411.5 261.5,-569.5 564.5,-569.5 564.5,-411.5 261.5,-411.5"/>
</g>
<!-- public.channel -->
<g id="node3" class="node">
<title>public.channel</title>
<polygon fill="#efefef" stroke="transparent" points="259,-252.5 259,-287.5 566,-287.5 566,-252.5 259,-252.5"/>
<polygon fill="none" stroke="#000000" points="259,-252.5 259,-287.5 566,-287.5 566,-252.5 259,-252.5"/>
<text text-anchor="start" x="291.1988" y="-265.3" font-family="Arial Bold" font-size="18.00" fill="#000000">public.channel</text>
<text text-anchor="start" x="406.2332" y="-265.3" font-family="Arial" font-size="14.00" fill="#000000">    </text>
<text text-anchor="start" x="440.438" y="-265.3" font-family="Arial" font-size="14.00" fill="#666666">[BASE TABLE]</text>
<polygon fill="none" stroke="#000000" points="259,-222.5 259,-252.5 566,-252.5 566,-222.5 259,-222.5"/>
<text text-anchor="start" x="266" y="-233.9" font-family="Arial" font-size="14.00" fill="#000000">id    </text>
<text text-anchor="start" x="311.094" y="-233.9" font-family="Arial" font-size="14.00" fill="#666666">[uuid]</text>
<polygon fill="none" stroke="#000000" points="259,-192.5 259,-222.5 566,-222.5 566,-192.5 259,-192.5"/>
<text text-anchor="start" x="266" y="-203.9" font-family="Arial" font-size="14.00" fill="#000000">name    </text>
<text text-anchor="start" x="335.2132" y="-203.9" font-family="Arial" font-size="14.00" fill="#666666">[text]</text>
<polygon fill="none" stroke="#000000" points="259,-162.5 259,-192.5 566,-192.5 566,-162.5 259,-162.5"/>
<text text-anchor="start" x="266" y="-173.9" font-family="Arial" font-size="14.00" fill="#000000">description    </text>
<text text-anchor="start" x="367.8822" y="-173.9" font-family="Arial" font-size="14.00" fill="#666666">[text]</text>
<polygon fill="none" stroke="#000000" points="259,-132.5 259,-162.5 566,-162.5 566,-132.5 259,-132.5"/>
<text text-anchor="start" x="266" y="-143.9" font-family="Arial" font-size="14.00" fill="#000000">guidelines    </text>
<text text-anchor="start" x="363.2202" y="-143.9" font-family="Arial" font-size="14.00" fill="#666666">[text]</text>
<polygon fill="none" stroke="#000000" points="259,-102.5 259,-132.5 566,-132.5 566,-102.5 259,-102.5"/>
<text text-anchor="start" x="266" y="-113.9" font-family="Arial" font-size="14.00" fill="#000000">created_by    </text>
<text text-anchor="start" x="369.4516" y="-113.9" font-family="Arial" font-size="14.00" fill="#666666">[uuid]</text>
<polygon fill="none" stroke="#000000" points="259,-72.5 259,-102.5 566,-102.5 566,-72.5 259,-72.5"/>
<text text-anchor="start" x="266" y="-83.9" font-family="Arial" font-size="14.00" fill="#000000">created_on    </text>
<text text-anchor="start" x="370.2342" y="-83.9" font-family="Arial" font-size="14.00" fill="#666666">[timestamp without time zone]</text>
<polygon fill="none" stroke="#000000" points="259,-42.5 259,-72.5 566,-72.5 566,-42.5 259,-42.5"/>
<text text-anchor="start" x="265.8605" y="-53.9" font-family="Arial" font-size="14.00" fill="#000000">updated_on    </text>
<text text-anchor="start" x="373.9993" y="-53.9" font-family="Arial" font-size="14.00" fill="#666666">[timestamp without time zone]</text>
</g>
<!-- public.channel_tags&#45;&gt;public.channel -->
<g id="edge2" class="edge">
<title>public.channel_tags:channel_id&#45;&gt;public.channel:id</title>
<path fill="none" stroke="#000000" d="M253.0027,-486.4107C211.9862,-476.6886 229.8658,-404.304 263,-367 353.0591,-265.6074 475.9409,-432.3926 566,-331 593.5964,-299.9307 607.5556,-237.5 566,-237.5"/>
<polygon fill="#000000" stroke="#000000" points="253.0588,-486.4167 262.5125,-491.9735 258.0294,-486.9583 263,-487.5 263,-487.5 263,-487.5 258.0294,-486.9583 263.4875,-483.0265 253.0588,-486.4167 253.0588,-486.4167"/>
<text text-anchor="start" x="7.2675" y="-497.5" font-family="Arial" font-size="10.00" fill="#000000">FOREIGN KEY (channel_id) REFERENCES channel(id)</text>
</g>
<!-- public.post_tag -->
<g id="node2" class="node">
<title>public.post_tag</title>
<polygon fill="#efefef" stroke="transparent" points="282,-782.5 282,-817.5 544,-817.5 544,-782.5 282,-782.5"/>
<polygon fill="none" stroke="#000000" points="282,-782.5 282,-817.5 544,-817.5 544,-782.5 282,-782.5"/>
<text text-anchor="start" x="288.6937" y="-795.3" font-family="Arial Bold" font-size="18.00" fill="#000000">public.post_tag</text>
<text text-anchor="start" x="409.7383" y="-795.3" font-family="Arial" font-size="14.00" fill="#000000">    </text>
<text text-anchor="start" x="443.9431" y="-795.3" font-family="Arial" font-size="14.00" fill="#666666">[BASE TABLE]</text>
<polygon fill="none" stroke="#000000" points="282,-752.5 282,-782.5 544,-782.5 544,-752.5 282,-752.5"/>
<text text-anchor="start" x="289" y="-763.9" font-family="Arial" font-size="14.00" fill="#000000">id    </text>
<text text-anchor="start" x="334.094" y="-763.9" font-family="Arial" font-size="14.00" fill="#666666">[uuid]</text>
<polygon fill="none" stroke="#000000" points="282,-722.5 282,-752.5 544,-752.5 544,-722.5 282,-722.5"/>
<text text-anchor="start" x="289" y="-733.9" font-family="Arial" font-size="14.00" fill="#000000">post_id    </text>
<text text-anchor="start" x="368.3324" y="-733.9" font-family="Arial" font-size="14.00" fill="#666666">[uuid]</text>
<polygon fill="none" stroke="#000000" points="282,-692.5 282,-722.5 544,-722.5 544,-692.5 282,-692.5"/>
<text text-anchor="start" x="289" y="-703.9" font-family="Arial" font-size="14.00" fill="#000000">tag_id    </text>
<text text-anchor="start" x="361.3324" y="-703.9" font-family="Arial" font-size="14.00" fill="#666666">[uuid]</text>
</g>
<!-- public.post_tag&#45;&gt;public.channel_tags -->
<g id="edge1" class="edge">
<title>public.post_tag:tag_id&#45;&gt;public.channel_tags:id</title>
<path fill="none" stroke="#000000" d="M413.7729,-682.4227C423.6715,-622.9248 525.9379,-675.2265 563,-614 585.2097,-577.3096 605.8889,-517.5 563,-517.5"/>
<polygon fill="#000000" stroke="#000000" points="413.7648,-682.5293 408.5132,-692.1558 413.3824,-687.5146 413,-692.5 413,-692.5 413,-692.5 413.3824,-687.5146 417.4868,-692.8442 413.7648,-682.5293 413.7648,-682.5293"/>
<text text-anchor="start" x="153.598" y="-702.5" font-family="Arial" font-size="10.00" fill="#000000">FOREIGN KEY (tag_id) REFERENCES channel_tags(id)</text>
</g>
</g>
</svg>
