<?xml version="1.0" encoding="UTF-8" standalone="no"?>
<!DOCTYPE svg PUBLIC "-//W3C//DTD SVG 1.1//EN"
 "http://www.w3.org/Graphics/SVG/1.1/DTD/svg11.dtd">
<!-- Generated by graphviz version 2.40.1 (20161225.0304)
 -->
<!-- Title: public.public_channel Pages: 1 -->
<svg width="614pt" height="592pt"
 viewBox="0.00 0.00 613.50 592.00" xmlns="http://www.w3.org/2000/svg" xmlns:xlink="http://www.w3.org/1999/xlink">
<g id="graph0" class="graph" transform="scale(1 1) rotate(0) translate(4 588)">
<title>public.public_channel</title>
<polygon fill="#ffffff" stroke="transparent" points="-4,4 -4,-588 609.5,-588 609.5,4 -4,4"/>
<!-- public.public_channel -->
<g id="node1" class="node">
<title>public.public_channel</title>
<polygon fill="#efefef" stroke="transparent" points="247,-502.5 247,-537.5 560,-537.5 560,-502.5 247,-502.5"/>
<polygon fill="none" stroke="#000000" points="247,-502.5 247,-537.5 560,-537.5 560,-502.5 247,-502.5"/>
<text text-anchor="start" x="253.6922" y="-515.3" font-family="Arial Bold" font-size="18.00" fill="#000000">public.public_channel</text>
<text text-anchor="start" x="425.7398" y="-515.3" font-family="Arial" font-size="14.00" fill="#000000">    </text>
<text text-anchor="start" x="459.9446" y="-515.3" font-family="Arial" font-size="14.00" fill="#666666">[BASE TABLE]</text>
<polygon fill="none" stroke="#000000" points="247,-472.5 247,-502.5 560,-502.5 560,-472.5 247,-472.5"/>
<text text-anchor="start" x="254" y="-483.9" font-family="Arial" font-size="14.00" fill="#000000">post_id </text>
<text text-anchor="start" x="303.0182" y="-483.9" font-family="Arial" font-size="14.00" fill="#666666">[uuid]</text>
<polygon fill="none" stroke="#000000" points="247,-442.5 247,-472.5 560,-472.5 560,-442.5 247,-442.5"/>
<text text-anchor="start" x="254" y="-453.9" font-family="Arial" font-size="14.00" fill="#000000">name </text>
<text text-anchor="start" x="292.899" y="-453.9" font-family="Arial" font-size="14.00" fill="#666666">[varchar(25)]</text>
<polygon fill="none" stroke="#000000" points="247,-412.5 247,-442.5 560,-442.5 560,-412.5 247,-412.5"/>
<text text-anchor="start" x="254" y="-423.9" font-family="Arial" font-size="14.00" fill="#000000">date_published </text>
<text text-anchor="start" x="352.8204" y="-423.9" font-family="Arial" font-size="14.00" fill="#666666">[timestamp without time zone]</text>
<polygon fill="none" stroke="#000000" stroke-width="3" points="245,-411.5 245,-539.5 561,-539.5 561,-411.5 245,-411.5"/>
</g>
<!-- public.channel -->
<g id="node2" class="node">
<title>public.channel</title>
<polygon fill="#efefef" stroke="transparent" points="250,-252.5 250,-287.5 557,-287.5 557,-252.5 250,-252.5"/>
<polygon fill="none" stroke="#000000" points="250,-252.5 250,-287.5 557,-287.5 557,-252.5 250,-252.5"/>
<text text-anchor="start" x="282.1988" y="-265.3" font-family="Arial Bold" font-size="18.00" fill="#000000">public.channel</text>
<text text-anchor="start" x="397.2332" y="-265.3" font-family="Arial" font-size="14.00" fill="#000000">    </text>
<text text-anchor="start" x="431.438" y="-265.3" font-family="Arial" font-size="14.00" fill="#666666">[BASE TABLE]</text>
<polygon fill="none" stroke="#000000" points="250,-222.5 250,-252.5 557,-252.5 557,-222.5 250,-222.5"/>
<text text-anchor="start" x="257" y="-233.9" font-family="Arial" font-size="14.00" fill="#000000">id    </text>
<text text-anchor="start" x="302.094" y="-233.9" font-family="Arial" font-size="14.00" fill="#666666">[uuid]</text>
<polygon fill="none" stroke="#000000" points="250,-192.5 250,-222.5 557,-222.5 557,-192.5 250,-192.5"/>
<text text-anchor="start" x="257" y="-203.9" font-family="Arial" font-size="14.00" fill="#000000">name    </text>
<text text-anchor="start" x="326.2132" y="-203.9" font-family="Arial" font-size="14.00" fill="#666666">[text]</text>
<polygon fill="none" stroke="#000000" points="250,-162.5 250,-192.5 557,-192.5 557,-162.5 250,-162.5"/>
<text text-anchor="start" x="257" y="-173.9" font-family="Arial" font-size="14.00" fill="#000000">description    </text>
<text text-anchor="start" x="358.8822" y="-173.9" font-family="Arial" font-size="14.00" fill="#666666">[text]</text>
<polygon fill="none" stroke="#000000" points="250,-132.5 250,-162.5 557,-162.5 557,-132.5 250,-132.5"/>
<text text-anchor="start" x="257" y="-143.9" font-family="Arial" font-size="14.00" fill="#000000">guidelines    </text>
<text text-anchor="start" x="354.2202" y="-143.9" font-family="Arial" font-size="14.00" fill="#666666">[text]</text>
<polygon fill="none" stroke="#000000" points="250,-102.5 250,-132.5 557,-132.5 557,-102.5 250,-102.5"/>
<text text-anchor="start" x="257" y="-113.9" font-family="Arial" font-size="14.00" fill="#000000">created_by    </text>
<text text-anchor="start" x="360.4516" y="-113.9" font-family="Arial" font-size="14.00" fill="#666666">[uuid]</text>
<polygon fill="none" stroke="#000000" points="250,-72.5 250,-102.5 557,-102.5 557,-72.5 250,-72.5"/>
<text text-anchor="start" x="257" y="-83.9" font-family="Arial" font-size="14.00" fill="#000000">created_on    </text>
<text text-anchor="start" x="361.2342" y="-83.9" font-family="Arial" font-size="14.00" fill="#666666">[timestamp without time zone]</text>
<polygon fill="none" stroke="#000000" points="250,-42.5 250,-72.5 557,-72.5 557,-42.5 250,-42.5"/>
<text text-anchor="start" x="256.8605" y="-53.9" font-family="Arial" font-size="14.00" fill="#000000">updated_on    </text>
<text text-anchor="start" x="364.9993" y="-53.9" font-family="Arial" font-size="14.00" fill="#666666">[timestamp without time zone]</text>
</g>
<!-- public.public_channel&#45;&gt;public.channel -->
<g id="edge1" class="edge">
<title>public.public_channel:post_id&#45;&gt;public.channel:id</title>
<path fill="none" stroke="#000000" d="M237.2674,-484.6924C192.0208,-457.2266 197.9129,-237.5 250,-237.5"/>
<polygon fill="#000000" stroke="#000000" points="237.3918,-484.7282 245.7527,-491.8237 242.1959,-486.1141 247,-487.5 247,-487.5 247,-487.5 242.1959,-486.1141 248.2473,-483.1763 237.3918,-484.7282 237.3918,-484.7282"/>
<text text-anchor="start" x="7.326" y="-497.5" font-family="Arial" font-size="10.00" fill="#000000">FOREIGN KEY (post_id) REFERENCES channel(id)</text>
</g>
</g>
</svg>
