<?xml version="1.0" encoding="UTF-8" standalone="no"?>
<!DOCTYPE svg PUBLIC "-//W3C//DTD SVG 1.1//EN"
 "http://www.w3.org/Graphics/SVG/1.1/DTD/svg11.dtd">
<!-- Generated by graphviz version 2.40.1 (20161225.0304)
 -->
<!-- Title: public.user Pages: 1 -->
<svg width="5650pt" height="862pt"
 viewBox="0.00 0.00 5650.00 862.00" xmlns="http://www.w3.org/2000/svg" xmlns:xlink="http://www.w3.org/1999/xlink">
<g id="graph0" class="graph" transform="scale(1 1) rotate(0) translate(4 858)">
<title>public.user</title>
<polygon fill="#ffffff" stroke="transparent" points="-4,4 -4,-858 5646,-858 5646,4 -4,4"/>
<!-- public.user -->
<g id="node1" class="node">
<title>public.user</title>
<polygon fill="#efefef" stroke="transparent" points="2471.5,-285.5 2471.5,-320.5 2747.5,-320.5 2747.5,-285.5 2471.5,-285.5"/>
<polygon fill="none" stroke="#000000" points="2471.5,-285.5 2471.5,-320.5 2747.5,-320.5 2747.5,-285.5 2471.5,-285.5"/>
<text text-anchor="start" x="2502.2091" y="-298.3" font-family="Arial Bold" font-size="18.00" fill="#000000">public.user</text>
<text text-anchor="start" x="2589.2229" y="-298.3" font-family="Arial" font-size="14.00" fill="#000000">    </text>
<text text-anchor="start" x="2623.4277" y="-298.3" font-family="Arial" font-size="14.00" fill="#666666">[BASE TABLE]</text>
<polygon fill="none" stroke="#000000" points="2471.5,-255.5 2471.5,-285.5 2747.5,-285.5 2747.5,-255.5 2471.5,-255.5"/>
<text text-anchor="start" x="2478.5" y="-266.9" font-family="Arial" font-size="14.00" fill="#000000">id </text>
<text text-anchor="start" x="2493.2798" y="-266.9" font-family="Arial" font-size="14.00" fill="#666666">[uuid]</text>
<polygon fill="none" stroke="#000000" points="2471.5,-225.5 2471.5,-255.5 2747.5,-255.5 2747.5,-225.5 2471.5,-225.5"/>
<text text-anchor="start" x="2478.5" y="-236.9" font-family="Arial" font-size="14.00" fill="#000000">username </text>
<text text-anchor="start" x="2544.6248" y="-236.9" font-family="Arial" font-size="14.00" fill="#666666">[varchar(25)]</text>
<polygon fill="none" stroke="#000000" points="2471.5,-195.5 2471.5,-225.5 2747.5,-225.5 2747.5,-195.5 2471.5,-195.5"/>
<text text-anchor="start" x="2478.5" y="-206.9" font-family="Arial" font-size="14.00" fill="#000000">profile_image </text>
<text text-anchor="start" x="2566.4004" y="-206.9" font-family="Arial" font-size="14.00" fill="#666666">[text]</text>
<polygon fill="none" stroke="#000000" points="2471.5,-165.5 2471.5,-195.5 2747.5,-195.5 2747.5,-165.5 2471.5,-165.5"/>
<text text-anchor="start" x="2478.5" y="-176.9" font-family="Arial" font-size="14.00" fill="#000000">role </text>
<text text-anchor="start" x="2505.723" y="-176.9" font-family="Arial" font-size="14.00" fill="#666666">[site_role]</text>
<polygon fill="none" stroke="#000000" points="2471.5,-135.5 2471.5,-165.5 2747.5,-165.5 2747.5,-135.5 2471.5,-135.5"/>
<text text-anchor="start" x="2478.5" y="-146.9" font-family="Arial" font-size="14.00" fill="#000000">created_on </text>
<text text-anchor="start" x="2552.42" y="-146.9" font-family="Arial" font-size="14.00" fill="#666666">[timestamp without time zone]</text>
<polygon fill="none" stroke="#000000" points="2471.5,-105.5 2471.5,-135.5 2747.5,-135.5 2747.5,-105.5 2471.5,-105.5"/>
<text text-anchor="start" x="2478.0176" y="-116.9" font-family="Arial" font-size="14.00" fill="#000000">updated_on </text>
<text text-anchor="start" x="2555.8422" y="-116.9" font-family="Arial" font-size="14.00" fill="#666666">[timestamp without time zone]</text>
<polygon fill="none" stroke="#000000" points="2471.5,-75.5 2471.5,-105.5 2747.5,-105.5 2747.5,-75.5 2471.5,-75.5"/>
<text text-anchor="start" x="2478.5" y="-86.9" font-family="Arial" font-size="14.00" fill="#000000">discord_id </text>
<text text-anchor="start" x="2546.1774" y="-86.9" font-family="Arial" font-size="14.00" fill="#666666">[bigint]</text>
<polygon fill="none" stroke="#000000" points="2471.5,-45.5 2471.5,-75.5 2747.5,-75.5 2747.5,-45.5 2471.5,-45.5"/>
<text text-anchor="start" x="2478.5" y="-56.9" font-family="Arial" font-size="14.00" fill="#000000">github_id </text>
<text text-anchor="start" x="2539.19" y="-56.9" font-family="Arial" font-size="14.00" fill="#666666">[integer]</text>
<polygon fill="none" stroke="#000000" stroke-width="3" points="2470,-44.5 2470,-322.5 2749,-322.5 2749,-44.5 2470,-44.5"/>
</g>
<!-- public.channel_user_ban -->
<g id="node2" class="node">
<title>public.channel_user_ban</title>
<polygon fill="#efefef" stroke="transparent" points="43.5,-685.5 43.5,-720.5 384.5,-720.5 384.5,-685.5 43.5,-685.5"/>
<polygon fill="none" stroke="#000000" points="43.5,-685.5 43.5,-720.5 384.5,-720.5 384.5,-685.5 43.5,-685.5"/>
<text text-anchor="start" x="50.181" y="-698.3" font-family="Arial Bold" font-size="18.00" fill="#000000">public.channel_user_ban</text>
<text text-anchor="start" x="250.251" y="-698.3" font-family="Arial" font-size="14.00" fill="#000000">    </text>
<text text-anchor="start" x="284.4558" y="-698.3" font-family="Arial" font-size="14.00" fill="#666666">[BASE TABLE]</text>
<polygon fill="none" stroke="#000000" points="43.5,-655.5 43.5,-685.5 384.5,-685.5 384.5,-655.5 43.5,-655.5"/>
<text text-anchor="start" x="50.5" y="-666.9" font-family="Arial" font-size="14.00" fill="#000000">id    </text>
<text text-anchor="start" x="95.594" y="-666.9" font-family="Arial" font-size="14.00" fill="#666666">[uuid]</text>
<polygon fill="none" stroke="#000000" points="43.5,-625.5 43.5,-655.5 384.5,-655.5 384.5,-625.5 43.5,-625.5"/>
<text text-anchor="start" x="50.5" y="-636.9" font-family="Arial" font-size="14.00" fill="#000000">channel_id    </text>
<text text-anchor="start" x="152.3962" y="-636.9" font-family="Arial" font-size="14.00" fill="#666666">[uuid]</text>
<polygon fill="none" stroke="#000000" points="43.5,-595.5 43.5,-625.5 384.5,-625.5 384.5,-595.5 43.5,-595.5"/>
<text text-anchor="start" x="50.5" y="-606.9" font-family="Arial" font-size="14.00" fill="#000000">user_id    </text>
<text text-anchor="start" x="130.6024" y="-606.9" font-family="Arial" font-size="14.00" fill="#666666">[uuid]</text>
<polygon fill="none" stroke="#000000" points="43.5,-565.5 43.5,-595.5 384.5,-595.5 384.5,-565.5 43.5,-565.5"/>
<text text-anchor="start" x="50.5" y="-576.9" font-family="Arial" font-size="14.00" fill="#000000">created_on    </text>
<text text-anchor="start" x="154.7342" y="-576.9" font-family="Arial" font-size="14.00" fill="#666666">[timestamp without time zone]</text>
<polygon fill="none" stroke="#000000" points="43.5,-535.5 43.5,-565.5 384.5,-565.5 384.5,-535.5 43.5,-535.5"/>
<text text-anchor="start" x="50.5" y="-546.9" font-family="Arial" font-size="14.00" fill="#000000">pardoned    </text>
<text text-anchor="start" x="143.8436" y="-546.9" font-family="Arial" font-size="14.00" fill="#666666">[boolean]</text>
</g>
<!-- public.channel_user_ban&#45;&gt;public.user -->
<g id="edge1" class="edge">
<title>public.channel_user_ban:user_id&#45;&gt;public.user:id</title>
<path fill="none" stroke="#000000" d="M394.6987,-609.8427C470.7932,-599.1772 366.3384,-461.5152 436.5,-403 523.5068,-330.4358 2358.2051,-270.5 2471.5,-270.5"/>
<polygon fill="#000000" stroke="#000000" points="394.4793,-609.8568 384.2106,-606.0093 389.4896,-610.1784 384.5,-610.5 384.5,-610.5 384.5,-610.5 389.4896,-610.1784 384.7894,-614.9907 394.4793,-609.8568 394.4793,-609.8568"/>
<text text-anchor="start" x="272.2855" y="-594.5" font-family="Arial" font-size="10.00" fill="#000000">FOREIGN KEY (user_id) REFERENCES &quot;user&quot;(id)</text>
</g>
<!-- public.user_block -->
<g id="node3" class="node">
<title>public.user_block</title>
<polygon fill="#efefef" stroke="transparent" points="488.5,-640.5 488.5,-675.5 768.5,-675.5 768.5,-640.5 488.5,-640.5"/>
<polygon fill="none" stroke="#000000" points="488.5,-640.5 488.5,-675.5 768.5,-675.5 768.5,-640.5 488.5,-640.5"/>
<text text-anchor="start" x="495.2027" y="-653.3" font-family="Arial Bold" font-size="18.00" fill="#000000">public.user_block</text>
<text text-anchor="start" x="634.2293" y="-653.3" font-family="Arial" font-size="14.00" fill="#000000">    </text>
<text text-anchor="start" x="668.4341" y="-653.3" font-family="Arial" font-size="14.00" fill="#666666">[BASE TABLE]</text>
<polygon fill="none" stroke="#000000" points="488.5,-610.5 488.5,-640.5 768.5,-640.5 768.5,-610.5 488.5,-610.5"/>
<text text-anchor="start" x="495.5" y="-621.9" font-family="Arial" font-size="14.00" fill="#000000">user_id    </text>
<text text-anchor="start" x="575.6024" y="-621.9" font-family="Arial" font-size="14.00" fill="#666666">[uuid]</text>
<polygon fill="none" stroke="#000000" points="488.5,-580.5 488.5,-610.5 768.5,-610.5 768.5,-580.5 488.5,-580.5"/>
<text text-anchor="start" x="495.5" y="-591.9" font-family="Arial" font-size="14.00" fill="#000000">blocked_user_id    </text>
<text text-anchor="start" x="631.622" y="-591.9" font-family="Arial" font-size="14.00" fill="#666666">[uuid]</text>
</g>
<!-- public.user_block&#45;&gt;public.user -->
<g id="edge2" class="edge">
<title>public.user_block:blocked_user_id&#45;&gt;public.user:id</title>
<path fill="none" stroke="#000000" d="M778.8818,-594.7646C848.4375,-583.9718 755.2781,-457.2175 820.5,-403 962.0221,-285.356 2287.4657,-270.5 2471.5,-270.5"/>
<polygon fill="#000000" stroke="#000000" points="778.475,-594.7933 768.182,-591.0112 773.4875,-595.1467 768.5,-595.5 768.5,-595.5 768.5,-595.5 773.4875,-595.1467 768.818,-599.9888 778.475,-594.7933 778.475,-594.7933"/>
<text text-anchor="start" x="636.2785" y="-579.5" font-family="Arial" font-size="10.00" fill="#000000">FOREIGN KEY (blocked_user_id) REFERENCES &quot;user&quot;(id)</text>
</g>
<!-- public.user_block&#45;&gt;public.user -->
<g id="edge3" class="edge">
<title>public.user_block:user_id&#45;&gt;public.user:id</title>
<path fill="none" stroke="#000000" d="M778.6353,-624.8996C861.1759,-614.3257 746.3096,-466.8522 820.5,-403 959.987,-282.9501 2287.4657,-270.5 2471.5,-270.5"/>
<polygon fill="#000000" stroke="#000000" points="778.4825,-624.9086 768.2339,-621.0079 773.4913,-625.2043 768.5,-625.5 768.5,-625.5 768.5,-625.5 773.4913,-625.2043 768.7661,-629.9921 778.4825,-624.9086 778.4825,-624.9086"/>
<text text-anchor="start" x="656.2855" y="-609.5" font-family="Arial" font-size="10.00" fill="#000000">FOREIGN KEY (user_id) REFERENCES &quot;user&quot;(id)</text>
</g>
<!-- public.channel -->
<g id="node4" class="node">
<title>public.channel</title>
<polygon fill="#efefef" stroke="transparent" points="873.5,-745.5 873.5,-780.5 1180.5,-780.5 1180.5,-745.5 873.5,-745.5"/>
<polygon fill="none" stroke="#000000" points="873.5,-745.5 873.5,-780.5 1180.5,-780.5 1180.5,-745.5 873.5,-745.5"/>
<text text-anchor="start" x="905.6988" y="-758.3" font-family="Arial Bold" font-size="18.00" fill="#000000">public.channel</text>
<text text-anchor="start" x="1020.7332" y="-758.3" font-family="Arial" font-size="14.00" fill="#000000">    </text>
<text text-anchor="start" x="1054.938" y="-758.3" font-family="Arial" font-size="14.00" fill="#666666">[BASE TABLE]</text>
<polygon fill="none" stroke="#000000" points="873.5,-715.5 873.5,-745.5 1180.5,-745.5 1180.5,-715.5 873.5,-715.5"/>
<text text-anchor="start" x="880.5" y="-726.9" font-family="Arial" font-size="14.00" fill="#000000">id    </text>
<text text-anchor="start" x="925.594" y="-726.9" font-family="Arial" font-size="14.00" fill="#666666">[uuid]</text>
<polygon fill="none" stroke="#000000" points="873.5,-685.5 873.5,-715.5 1180.5,-715.5 1180.5,-685.5 873.5,-685.5"/>
<text text-anchor="start" x="880.5" y="-696.9" font-family="Arial" font-size="14.00" fill="#000000">name    </text>
<text text-anchor="start" x="949.7132" y="-696.9" font-family="Arial" font-size="14.00" fill="#666666">[text]</text>
<polygon fill="none" stroke="#000000" points="873.5,-655.5 873.5,-685.5 1180.5,-685.5 1180.5,-655.5 873.5,-655.5"/>
<text text-anchor="start" x="880.5" y="-666.9" font-family="Arial" font-size="14.00" fill="#000000">description    </text>
<text text-anchor="start" x="982.3822" y="-666.9" font-family="Arial" font-size="14.00" fill="#666666">[text]</text>
<polygon fill="none" stroke="#000000" points="873.5,-625.5 873.5,-655.5 1180.5,-655.5 1180.5,-625.5 873.5,-625.5"/>
<text text-anchor="start" x="880.5" y="-636.9" font-family="Arial" font-size="14.00" fill="#000000">guidelines    </text>
<text text-anchor="start" x="977.7202" y="-636.9" font-family="Arial" font-size="14.00" fill="#666666">[text]</text>
<polygon fill="none" stroke="#000000" points="873.5,-595.5 873.5,-625.5 1180.5,-625.5 1180.5,-595.5 873.5,-595.5"/>
<text text-anchor="start" x="880.5" y="-606.9" font-family="Arial" font-size="14.00" fill="#000000">created_by    </text>
<text text-anchor="start" x="983.9516" y="-606.9" font-family="Arial" font-size="14.00" fill="#666666">[uuid]</text>
<polygon fill="none" stroke="#000000" points="873.5,-565.5 873.5,-595.5 1180.5,-595.5 1180.5,-565.5 873.5,-565.5"/>
<text text-anchor="start" x="880.5" y="-576.9" font-family="Arial" font-size="14.00" fill="#000000">banner_image    </text>
<text text-anchor="start" x="1004.176" y="-576.9" font-family="Arial" font-size="14.00" fill="#666666">[text]</text>
<polygon fill="none" stroke="#000000" points="873.5,-535.5 873.5,-565.5 1180.5,-565.5 1180.5,-535.5 873.5,-535.5"/>
<text text-anchor="start" x="880.5" y="-546.9" font-family="Arial" font-size="14.00" fill="#000000">icon    </text>
<text text-anchor="start" x="940.3766" y="-546.9" font-family="Arial" font-size="14.00" fill="#666666">[text]</text>
<polygon fill="none" stroke="#000000" points="873.5,-505.5 873.5,-535.5 1180.5,-535.5 1180.5,-505.5 873.5,-505.5"/>
<text text-anchor="start" x="880.5" y="-516.9" font-family="Arial" font-size="14.00" fill="#000000">created_on    </text>
<text text-anchor="start" x="984.7342" y="-516.9" font-family="Arial" font-size="14.00" fill="#666666">[timestamp without time zone]</text>
<polygon fill="none" stroke="#000000" points="873.5,-475.5 873.5,-505.5 1180.5,-505.5 1180.5,-475.5 873.5,-475.5"/>
<text text-anchor="start" x="880.3605" y="-486.9" font-family="Arial" font-size="14.00" fill="#000000">updated_on    </text>
<text text-anchor="start" x="988.4993" y="-486.9" font-family="Arial" font-size="14.00" fill="#666666">[timestamp without time zone]</text>
</g>
<!-- public.channel&#45;&gt;public.user -->
<g id="edge4" class="edge">
<title>public.channel:created_by&#45;&gt;public.user:id</title>
<path fill="none" stroke="#000000" d="M1190.6893,-609.8497C1266.7303,-599.2967 1162.7793,-463.0446 1231.5,-403 1335.8433,-311.8302 2332.9379,-270.5 2471.5,-270.5"/>
<polygon fill="#000000" stroke="#000000" points="1190.4797,-609.863 1180.2134,-606.0091 1185.4898,-610.1815 1180.5,-610.5 1180.5,-610.5 1180.5,-610.5 1185.4898,-610.1815 1180.7866,-614.9909 1190.4797,-609.863 1190.4797,-609.863"/>
<text text-anchor="start" x="1187.4465" y="-620.5" font-family="Arial" font-size="10.00" fill="#000000">FOREIGN KEY (created_by) REFERENCES &quot;user&quot;(id)</text>
</g>
<!-- public.comment -->
<g id="node5" class="node">
<title>public.comment</title>
<polygon fill="#efefef" stroke="transparent" points="1284.5,-715.5 1284.5,-750.5 1591.5,-750.5 1591.5,-715.5 1284.5,-715.5"/>
<polygon fill="none" stroke="#000000" points="1284.5,-715.5 1284.5,-750.5 1591.5,-750.5 1591.5,-715.5 1284.5,-715.5"/>
<text text-anchor="start" x="1311.2088" y="-728.3" font-family="Arial Bold" font-size="18.00" fill="#000000">public.comment</text>
<text text-anchor="start" x="1437.2232" y="-728.3" font-family="Arial" font-size="14.00" fill="#000000">    </text>
<text text-anchor="start" x="1471.428" y="-728.3" font-family="Arial" font-size="14.00" fill="#666666">[BASE TABLE]</text>
<polygon fill="none" stroke="#000000" points="1284.5,-685.5 1284.5,-715.5 1591.5,-715.5 1591.5,-685.5 1284.5,-685.5"/>
<text text-anchor="start" x="1291.5" y="-696.9" font-family="Arial" font-size="14.00" fill="#000000">id    </text>
<text text-anchor="start" x="1336.594" y="-696.9" font-family="Arial" font-size="14.00" fill="#666666">[uuid]</text>
<polygon fill="none" stroke="#000000" points="1284.5,-655.5 1284.5,-685.5 1591.5,-685.5 1591.5,-655.5 1284.5,-655.5"/>
<text text-anchor="start" x="1291.5" y="-666.9" font-family="Arial" font-size="14.00" fill="#000000">content    </text>
<text text-anchor="start" x="1371.6164" y="-666.9" font-family="Arial" font-size="14.00" fill="#666666">[text]</text>
<polygon fill="none" stroke="#000000" points="1284.5,-625.5 1284.5,-655.5 1591.5,-655.5 1591.5,-625.5 1284.5,-625.5"/>
<text text-anchor="start" x="1291.5" y="-636.9" font-family="Arial" font-size="14.00" fill="#000000">creator_id    </text>
<text text-anchor="start" x="1387.9362" y="-636.9" font-family="Arial" font-size="14.00" fill="#666666">[uuid]</text>
<polygon fill="none" stroke="#000000" points="1284.5,-595.5 1284.5,-625.5 1591.5,-625.5 1591.5,-595.5 1284.5,-595.5"/>
<text text-anchor="start" x="1291.5" y="-606.9" font-family="Arial" font-size="14.00" fill="#000000">post_id    </text>
<text text-anchor="start" x="1370.8324" y="-606.9" font-family="Arial" font-size="14.00" fill="#666666">[uuid]</text>
<polygon fill="none" stroke="#000000" points="1284.5,-565.5 1284.5,-595.5 1591.5,-595.5 1591.5,-565.5 1284.5,-565.5"/>
<text text-anchor="start" x="1291.5" y="-576.9" font-family="Arial" font-size="14.00" fill="#000000">reply_to    </text>
<text text-anchor="start" x="1375.493" y="-576.9" font-family="Arial" font-size="14.00" fill="#666666">[uuid]</text>
<polygon fill="none" stroke="#000000" points="1284.5,-535.5 1284.5,-565.5 1591.5,-565.5 1591.5,-535.5 1284.5,-535.5"/>
<text text-anchor="start" x="1291.5" y="-546.9" font-family="Arial" font-size="14.00" fill="#000000">created_on    </text>
<text text-anchor="start" x="1395.7342" y="-546.9" font-family="Arial" font-size="14.00" fill="#666666">[timestamp without time zone]</text>
<polygon fill="none" stroke="#000000" points="1284.5,-505.5 1284.5,-535.5 1591.5,-535.5 1591.5,-505.5 1284.5,-505.5"/>
<text text-anchor="start" x="1291.3605" y="-516.9" font-family="Arial" font-size="14.00" fill="#000000">updated_on    </text>
<text text-anchor="start" x="1399.4993" y="-516.9" font-family="Arial" font-size="14.00" fill="#666666">[timestamp without time zone]</text>
</g>
<!-- public.comment&#45;&gt;public.user -->
<g id="edge5" class="edge">
<title>public.comment:creator_id&#45;&gt;public.user:id</title>
<path fill="none" stroke="#000000" d="M1601.736,-639.9381C1690.4624,-629.4469 1566.8398,-474.7504 1642.5,-403 1777.8694,-274.6259 2284.9395,-270.5 2471.5,-270.5"/>
<polygon fill="#000000" stroke="#000000" points="1601.485,-639.9517 1591.2533,-636.0068 1596.4925,-640.2259 1591.5,-640.5 1591.5,-640.5 1591.5,-640.5 1596.4925,-640.2259 1591.7467,-644.9932 1601.485,-639.9517 1601.485,-639.9517"/>
<text text-anchor="start" x="1473.452" y="-624.5" font-family="Arial" font-size="10.00" fill="#000000">FOREIGN KEY (creator_id) REFERENCES &quot;user&quot;(id)</text>
</g>
<!-- public.invite -->
<g id="node6" class="node">
<title>public.invite</title>
<polygon fill="#efefef" stroke="transparent" points="1695.5,-670.5 1695.5,-705.5 1998.5,-705.5 1998.5,-670.5 1695.5,-670.5"/>
<polygon fill="none" stroke="#000000" points="1695.5,-670.5 1695.5,-705.5 1998.5,-705.5 1998.5,-670.5 1695.5,-670.5"/>
<text text-anchor="start" x="1736.2099" y="-683.3" font-family="Arial Bold" font-size="18.00" fill="#000000">public.invite</text>
<text text-anchor="start" x="1830.2221" y="-683.3" font-family="Arial" font-size="14.00" fill="#000000">    </text>
<text text-anchor="start" x="1864.4269" y="-683.3" font-family="Arial" font-size="14.00" fill="#666666">[BASE TABLE]</text>
<polygon fill="none" stroke="#000000" points="1695.5,-640.5 1695.5,-670.5 1998.5,-670.5 1998.5,-640.5 1695.5,-640.5"/>
<text text-anchor="start" x="1702.5" y="-651.9" font-family="Arial" font-size="14.00" fill="#000000">channel_id    </text>
<text text-anchor="start" x="1804.3962" y="-651.9" font-family="Arial" font-size="14.00" fill="#666666">[uuid]</text>
<polygon fill="none" stroke="#000000" points="1695.5,-610.5 1695.5,-640.5 1998.5,-640.5 1998.5,-610.5 1695.5,-610.5"/>
<text text-anchor="start" x="1702.5" y="-621.9" font-family="Arial" font-size="14.00" fill="#000000">user_id    </text>
<text text-anchor="start" x="1782.6024" y="-621.9" font-family="Arial" font-size="14.00" fill="#666666">[uuid]</text>
<polygon fill="none" stroke="#000000" points="1695.5,-580.5 1695.5,-610.5 1998.5,-610.5 1998.5,-580.5 1695.5,-580.5"/>
<text text-anchor="start" x="1702.3128" y="-591.9" font-family="Arial" font-size="14.00" fill="#000000">created_on    </text>
<text text-anchor="start" x="1806.547" y="-591.9" font-family="Arial" font-size="14.00" fill="#666666">[timestamp without time zone]</text>
<polygon fill="none" stroke="#000000" points="1695.5,-550.5 1695.5,-580.5 1998.5,-580.5 1998.5,-550.5 1695.5,-550.5"/>
<text text-anchor="start" x="1702.5" y="-561.9" font-family="Arial" font-size="14.00" fill="#000000">role_id    </text>
<text text-anchor="start" x="1778.709" y="-561.9" font-family="Arial" font-size="14.00" fill="#666666">[uuid]</text>
</g>
<!-- public.invite&#45;&gt;public.user -->
<g id="edge6" class="edge">
<title>public.invite:user_id&#45;&gt;public.user:id</title>
<path fill="none" stroke="#000000" d="M2008.6652,-624.9306C2091.7273,-614.898 1983.9407,-474.7717 2050.5,-403 2117.1922,-331.085 2373.4204,-270.5 2471.5,-270.5"/>
<polygon fill="#000000" stroke="#000000" points="2008.4844,-624.9407 1998.2483,-621.007 2003.4922,-625.2203 1998.5,-625.5 1998.5,-625.5 1998.5,-625.5 2003.4922,-625.2203 1998.7517,-629.993 2008.4844,-624.9407 2008.4844,-624.9407"/>
<text text-anchor="start" x="1886.2855" y="-609.5" font-family="Arial" font-size="10.00" fill="#000000">FOREIGN KEY (user_id) REFERENCES &quot;user&quot;(id)</text>
</g>
<!-- public.playlist -->
<g id="node7" class="node">
<title>public.playlist</title>
<polygon fill="#efefef" stroke="transparent" points="2102.5,-685.5 2102.5,-720.5 2350.5,-720.5 2350.5,-685.5 2102.5,-685.5"/>
<polygon fill="none" stroke="#000000" points="2102.5,-685.5 2102.5,-720.5 2350.5,-720.5 2350.5,-685.5 2102.5,-685.5"/>
<text text-anchor="start" x="2109.2128" y="-698.3" font-family="Arial Bold" font-size="18.00" fill="#000000">public.playlist</text>
<text text-anchor="start" x="2216.2192" y="-698.3" font-family="Arial" font-size="14.00" fill="#000000">    </text>
<text text-anchor="start" x="2250.424" y="-698.3" font-family="Arial" font-size="14.00" fill="#666666">[BASE TABLE]</text>
<polygon fill="none" stroke="#000000" points="2102.5,-655.5 2102.5,-685.5 2350.5,-685.5 2350.5,-655.5 2102.5,-655.5"/>
<text text-anchor="start" x="2109.5" y="-666.9" font-family="Arial" font-size="14.00" fill="#000000">id    </text>
<text text-anchor="start" x="2154.594" y="-666.9" font-family="Arial" font-size="14.00" fill="#666666">[uuid]</text>
<polygon fill="none" stroke="#000000" points="2102.5,-625.5 2102.5,-655.5 2350.5,-655.5 2350.5,-625.5 2102.5,-625.5"/>
<text text-anchor="start" x="2109.5" y="-636.9" font-family="Arial" font-size="14.00" fill="#000000">user_id    </text>
<text text-anchor="start" x="2189.6024" y="-636.9" font-family="Arial" font-size="14.00" fill="#666666">[uuid]</text>
<polygon fill="none" stroke="#000000" points="2102.5,-595.5 2102.5,-625.5 2350.5,-625.5 2350.5,-595.5 2102.5,-595.5"/>
<text text-anchor="start" x="2109.5" y="-606.9" font-family="Arial" font-size="14.00" fill="#000000">name    </text>
<text text-anchor="start" x="2178.7132" y="-606.9" font-family="Arial" font-size="14.00" fill="#666666">[varchar(32)]</text>
<polygon fill="none" stroke="#000000" points="2102.5,-565.5 2102.5,-595.5 2350.5,-595.5 2350.5,-565.5 2102.5,-565.5"/>
<text text-anchor="start" x="2109.5" y="-576.9" font-family="Arial" font-size="14.00" fill="#000000">description    </text>
<text text-anchor="start" x="2211.3822" y="-576.9" font-family="Arial" font-size="14.00" fill="#666666">[text]</text>
<polygon fill="none" stroke="#000000" points="2102.5,-535.5 2102.5,-565.5 2350.5,-565.5 2350.5,-535.5 2102.5,-535.5"/>
<text text-anchor="start" x="2109.5" y="-546.9" font-family="Arial" font-size="14.00" fill="#000000">public    </text>
<text text-anchor="start" x="2180.2658" y="-546.9" font-family="Arial" font-size="14.00" fill="#666666">[boolean]</text>
</g>
<!-- public.playlist&#45;&gt;public.user -->
<g id="edge7" class="edge">
<title>public.playlist:user_id&#45;&gt;public.user:id</title>
<path fill="none" stroke="#000000" d="M2360.3114,-638.1245C2401.9842,-616.3023 2385.307,-450.4196 2402.5,-403 2425.1314,-340.5807 2405.1046,-270.5 2471.5,-270.5"/>
<polygon fill="#000000" stroke="#000000" points="2360.2192,-638.1467 2349.441,-636.1264 2355.3596,-639.3233 2350.5,-640.5 2350.5,-640.5 2350.5,-640.5 2355.3596,-639.3233 2351.559,-644.8736 2360.2192,-638.1467 2360.2192,-638.1467"/>
<text text-anchor="start" x="2357.7855" y="-650.5" font-family="Arial" font-size="10.00" fill="#000000">FOREIGN KEY (user_id) REFERENCES &quot;user&quot;(id)</text>
</g>
<!-- public.post -->
<g id="node8" class="node">
<title>public.post</title>
<polygon fill="#efefef" stroke="transparent" points="2455.5,-775.5 2455.5,-810.5 2762.5,-810.5 2762.5,-775.5 2455.5,-775.5"/>
<polygon fill="none" stroke="#000000" points="2455.5,-775.5 2455.5,-810.5 2762.5,-810.5 2762.5,-775.5 2455.5,-775.5"/>
<text text-anchor="start" x="2502.2041" y="-788.3" font-family="Arial Bold" font-size="18.00" fill="#000000">public.post</text>
<text text-anchor="start" x="2588.2279" y="-788.3" font-family="Arial" font-size="14.00" fill="#000000">    </text>
<text text-anchor="start" x="2622.4327" y="-788.3" font-family="Arial" font-size="14.00" fill="#666666">[BASE TABLE]</text>
<polygon fill="none" stroke="#000000" points="2455.5,-745.5 2455.5,-775.5 2762.5,-775.5 2762.5,-745.5 2455.5,-745.5"/>
<text text-anchor="start" x="2462.5" y="-756.9" font-family="Arial" font-size="14.00" fill="#000000">id    </text>
<text text-anchor="start" x="2507.594" y="-756.9" font-family="Arial" font-size="14.00" fill="#666666">[uuid]</text>
<polygon fill="none" stroke="#000000" points="2455.5,-715.5 2455.5,-745.5 2762.5,-745.5 2762.5,-715.5 2455.5,-715.5"/>
<text text-anchor="start" x="2462.5" y="-726.9" font-family="Arial" font-size="14.00" fill="#000000">name    </text>
<text text-anchor="start" x="2531.7132" y="-726.9" font-family="Arial" font-size="14.00" fill="#666666">[text]</text>
<polygon fill="none" stroke="#000000" points="2455.5,-685.5 2455.5,-715.5 2762.5,-715.5 2762.5,-685.5 2455.5,-685.5"/>
<text text-anchor="start" x="2462.5" y="-696.9" font-family="Arial" font-size="14.00" fill="#000000">description    </text>
<text text-anchor="start" x="2564.3822" y="-696.9" font-family="Arial" font-size="14.00" fill="#666666">[text]</text>
<polygon fill="none" stroke="#000000" points="2455.5,-655.5 2455.5,-685.5 2762.5,-685.5 2762.5,-655.5 2455.5,-655.5"/>
<text text-anchor="start" x="2462.5" y="-666.9" font-family="Arial" font-size="14.00" fill="#000000">alt_text    </text>
<text text-anchor="start" x="2541.831" y="-666.9" font-family="Arial" font-size="14.00" fill="#666666">[text]</text>
<polygon fill="none" stroke="#000000" points="2455.5,-625.5 2455.5,-655.5 2762.5,-655.5 2762.5,-625.5 2455.5,-625.5"/>
<text text-anchor="start" x="2462.5" y="-636.9" font-family="Arial" font-size="14.00" fill="#000000">created_by    </text>
<text text-anchor="start" x="2565.9516" y="-636.9" font-family="Arial" font-size="14.00" fill="#666666">[uuid]</text>
<polygon fill="none" stroke="#000000" points="2455.5,-595.5 2455.5,-625.5 2762.5,-625.5 2762.5,-595.5 2455.5,-595.5"/>
<text text-anchor="start" x="2462.5" y="-606.9" font-family="Arial" font-size="14.00" fill="#000000">channel_id    </text>
<text text-anchor="start" x="2564.3962" y="-606.9" font-family="Arial" font-size="14.00" fill="#666666">[uuid]</text>
<polygon fill="none" stroke="#000000" points="2455.5,-565.5 2455.5,-595.5 2762.5,-595.5 2762.5,-565.5 2455.5,-565.5"/>
<text text-anchor="start" x="2462.5" y="-576.9" font-family="Arial" font-size="14.00" fill="#000000">video_id    </text>
<text text-anchor="start" x="2548.831" y="-576.9" font-family="Arial" font-size="14.00" fill="#666666">[text]</text>
<polygon fill="none" stroke="#000000" points="2455.5,-535.5 2455.5,-565.5 2762.5,-565.5 2762.5,-535.5 2455.5,-535.5"/>
<text text-anchor="start" x="2462.5" y="-546.9" font-family="Arial" font-size="14.00" fill="#000000">created_on    </text>
<text text-anchor="start" x="2566.7342" y="-546.9" font-family="Arial" font-size="14.00" fill="#666666">[timestamp without time zone]</text>
<polygon fill="none" stroke="#000000" points="2455.5,-505.5 2455.5,-535.5 2762.5,-535.5 2762.5,-505.5 2455.5,-505.5"/>
<text text-anchor="start" x="2462.3605" y="-516.9" font-family="Arial" font-size="14.00" fill="#000000">updated_on    </text>
<text text-anchor="start" x="2570.4993" y="-516.9" font-family="Arial" font-size="14.00" fill="#666666">[timestamp without time zone]</text>
<polygon fill="none" stroke="#000000" points="2455.5,-475.5 2455.5,-505.5 2762.5,-505.5 2762.5,-475.5 2455.5,-475.5"/>
<text text-anchor="start" x="2462.5" y="-486.9" font-family="Arial" font-size="14.00" fill="#000000">upvotes    </text>
<text text-anchor="start" x="2545.7258" y="-486.9" font-family="Arial" font-size="14.00" fill="#666666">[integer]</text>
<polygon fill="none" stroke="#000000" points="2455.5,-445.5 2455.5,-475.5 2762.5,-475.5 2762.5,-445.5 2455.5,-445.5"/>
<text text-anchor="start" x="2462.5" y="-456.9" font-family="Arial" font-size="14.00" fill="#000000">downvotes    </text>
<text text-anchor="start" x="2563.615" y="-456.9" font-family="Arial" font-size="14.00" fill="#666666">[integer]</text>
</g>
<!-- public.post&#45;&gt;public.user -->
<g id="edge8" class="edge">
<title>public.post:created_by&#45;&gt;public.user:id</title>
<path fill="none" stroke="#000000" d="M2772.3509,-637.8387C2812.7608,-614.176 2795.0642,-439.841 2762.5,-403 2676.1924,-305.3572 2557.8076,-464.6428 2471.5,-367 2443.0956,-334.8652 2428.6111,-270.5 2471.5,-270.5"/>
<polygon fill="#000000" stroke="#000000" points="2772.1539,-637.8918 2761.3263,-636.1557 2767.327,-639.1959 2762.5,-640.5 2762.5,-640.5 2762.5,-640.5 2767.327,-639.1959 2763.6737,-644.8443 2772.1539,-637.8918 2772.1539,-637.8918"/>
<text text-anchor="start" x="2641.4465" y="-624.5" font-family="Arial" font-size="10.00" fill="#000000">FOREIGN KEY (created_by) REFERENCES &quot;user&quot;(id)</text>
</g>
<!-- public.channel_user_reports -->
<g id="node9" class="node">
<title>public.channel_user_reports</title>
<polygon fill="#efefef" stroke="transparent" points="2866.5,-700.5 2866.5,-735.5 3233.5,-735.5 3233.5,-700.5 2866.5,-700.5"/>
<polygon fill="none" stroke="#000000" points="2866.5,-700.5 2866.5,-735.5 3233.5,-735.5 3233.5,-700.5 2866.5,-700.5"/>
<text text-anchor="start" x="2873.1877" y="-713.3" font-family="Arial Bold" font-size="18.00" fill="#000000">public.channel_user_reports</text>
<text text-anchor="start" x="3099.2443" y="-713.3" font-family="Arial" font-size="14.00" fill="#000000">    </text>
<text text-anchor="start" x="3133.4491" y="-713.3" font-family="Arial" font-size="14.00" fill="#666666">[BASE TABLE]</text>
<polygon fill="none" stroke="#000000" points="2866.5,-670.5 2866.5,-700.5 3233.5,-700.5 3233.5,-670.5 2866.5,-670.5"/>
<text text-anchor="start" x="2873.5" y="-681.9" font-family="Arial" font-size="14.00" fill="#000000">id    </text>
<text text-anchor="start" x="2918.594" y="-681.9" font-family="Arial" font-size="14.00" fill="#666666">[uuid]</text>
<polygon fill="none" stroke="#000000" points="2866.5,-640.5 2866.5,-670.5 3233.5,-670.5 3233.5,-640.5 2866.5,-640.5"/>
<text text-anchor="start" x="2873.5" y="-651.9" font-family="Arial" font-size="14.00" fill="#000000">user_id    </text>
<text text-anchor="start" x="2953.6024" y="-651.9" font-family="Arial" font-size="14.00" fill="#666666">[uuid]</text>
<polygon fill="none" stroke="#000000" points="2866.5,-610.5 2866.5,-640.5 3233.5,-640.5 3233.5,-610.5 2866.5,-610.5"/>
<text text-anchor="start" x="2873.5" y="-621.9" font-family="Arial" font-size="14.00" fill="#000000">channel_id    </text>
<text text-anchor="start" x="2975.3962" y="-621.9" font-family="Arial" font-size="14.00" fill="#666666">[uuid]</text>
<polygon fill="none" stroke="#000000" points="2866.5,-580.5 2866.5,-610.5 3233.5,-610.5 3233.5,-580.5 2866.5,-580.5"/>
<text text-anchor="start" x="2873.5" y="-591.9" font-family="Arial" font-size="14.00" fill="#000000">description    </text>
<text text-anchor="start" x="2975.3822" y="-591.9" font-family="Arial" font-size="14.00" fill="#666666">[text]</text>
<polygon fill="none" stroke="#000000" points="2866.5,-550.5 2866.5,-580.5 3233.5,-580.5 3233.5,-550.5 2866.5,-550.5"/>
<text text-anchor="start" x="2873.5" y="-561.9" font-family="Arial" font-size="14.00" fill="#000000">resolution    </text>
<text text-anchor="start" x="2968.3822" y="-561.9" font-family="Arial" font-size="14.00" fill="#666666">[text]</text>
<polygon fill="none" stroke="#000000" points="2866.5,-520.5 2866.5,-550.5 3233.5,-550.5 3233.5,-520.5 2866.5,-520.5"/>
<text text-anchor="start" x="2873.5" y="-531.9" font-family="Arial" font-size="14.00" fill="#000000">status    </text>
<text text-anchor="start" x="2945.0512" y="-531.9" font-family="Arial" font-size="14.00" fill="#666666">[report_status]</text>
</g>
<!-- public.channel_user_reports&#45;&gt;public.user -->
<g id="edge9" class="edge">
<title>public.channel_user_reports:user_id&#45;&gt;public.user:id</title>
<path fill="none" stroke="#000000" d="M2856.6824,-653.2586C2812.063,-631.2627 2832.1897,-453.7113 2814.5,-403 2792.7652,-340.6926 2813.4895,-270.5 2747.5,-270.5"/>
<polygon fill="#000000" stroke="#000000" points="2856.7509,-653.2741 2865.4984,-659.8871 2861.6254,-654.3871 2866.5,-655.5 2866.5,-655.5 2866.5,-655.5 2861.6254,-654.3871 2867.5016,-651.1129 2856.7509,-653.2741 2856.7509,-653.2741"/>
<text text-anchor="start" x="2634.7855" y="-665.5" font-family="Arial" font-size="10.00" fill="#000000">FOREIGN KEY (user_id) REFERENCES &quot;user&quot;(id)</text>
</g>
<!-- public.user_report -->
<g id="node10" class="node">
<title>public.user_report</title>
<polygon fill="#efefef" stroke="transparent" points="3337.5,-685.5 3337.5,-720.5 3622.5,-720.5 3622.5,-685.5 3337.5,-685.5"/>
<polygon fill="none" stroke="#000000" points="3337.5,-685.5 3337.5,-720.5 3622.5,-720.5 3622.5,-685.5 3337.5,-685.5"/>
<text text-anchor="start" x="3344.2034" y="-698.3" font-family="Arial Bold" font-size="18.00" fill="#000000">public.user_report</text>
<text text-anchor="start" x="3488.2286" y="-698.3" font-family="Arial" font-size="14.00" fill="#000000">    </text>
<text text-anchor="start" x="3522.4334" y="-698.3" font-family="Arial" font-size="14.00" fill="#666666">[BASE TABLE]</text>
<polygon fill="none" stroke="#000000" points="3337.5,-655.5 3337.5,-685.5 3622.5,-685.5 3622.5,-655.5 3337.5,-655.5"/>
<text text-anchor="start" x="3344.5" y="-666.9" font-family="Arial" font-size="14.00" fill="#000000">id    </text>
<text text-anchor="start" x="3389.594" y="-666.9" font-family="Arial" font-size="14.00" fill="#666666">[uuid]</text>
<polygon fill="none" stroke="#000000" points="3337.5,-625.5 3337.5,-655.5 3622.5,-655.5 3622.5,-625.5 3337.5,-625.5"/>
<text text-anchor="start" x="3344.5" y="-636.9" font-family="Arial" font-size="14.00" fill="#000000">user_id    </text>
<text text-anchor="start" x="3424.6024" y="-636.9" font-family="Arial" font-size="14.00" fill="#666666">[uuid]</text>
<polygon fill="none" stroke="#000000" points="3337.5,-595.5 3337.5,-625.5 3622.5,-625.5 3622.5,-595.5 3337.5,-595.5"/>
<text text-anchor="start" x="3344.5" y="-606.9" font-family="Arial" font-size="14.00" fill="#000000">description    </text>
<text text-anchor="start" x="3446.3822" y="-606.9" font-family="Arial" font-size="14.00" fill="#666666">[text]</text>
<polygon fill="none" stroke="#000000" points="3337.5,-565.5 3337.5,-595.5 3622.5,-595.5 3622.5,-565.5 3337.5,-565.5"/>
<text text-anchor="start" x="3344.5" y="-576.9" font-family="Arial" font-size="14.00" fill="#000000">resolution    </text>
<text text-anchor="start" x="3439.3822" y="-576.9" font-family="Arial" font-size="14.00" fill="#666666">[text]</text>
<polygon fill="none" stroke="#000000" points="3337.5,-535.5 3337.5,-565.5 3622.5,-565.5 3622.5,-535.5 3337.5,-535.5"/>
<text text-anchor="start" x="3344.5" y="-546.9" font-family="Arial" font-size="14.00" fill="#000000">status    </text>
<text text-anchor="start" x="3416.0512" y="-546.9" font-family="Arial" font-size="14.00" fill="#666666">[report_status]</text>
</g>
<!-- public.user_report&#45;&gt;public.user -->
<g id="edge10" class="edge">
<title>public.user_report:user_id&#45;&gt;public.user:id</title>
<path fill="none" stroke="#000000" d="M3327.5125,-639.9794C3237.9461,-629.959 3358.4062,-477.8217 3285.5,-403 3199.5715,-314.8139 2870.628,-270.5 2747.5,-270.5"/>
<polygon fill="#000000" stroke="#000000" points="3327.5136,-639.9793 3337.2657,-644.9939 3332.5068,-640.2397 3337.5,-640.5 3337.5,-640.5 3337.5,-640.5 3332.5068,-640.2397 3337.7343,-636.0061 3327.5136,-639.9793 3327.5136,-639.9793"/>
<text text-anchor="start" x="3105.7855" y="-650.5" font-family="Arial" font-size="10.00" fill="#000000">FOREIGN KEY (user_id) REFERENCES &quot;user&quot;(id)</text>
</g>
<!-- public.user_role -->
<g id="node11" class="node">
<title>public.user_role</title>
<polygon fill="#efefef" stroke="transparent" points="3726.5,-655.5 3726.5,-690.5 4033.5,-690.5 4033.5,-655.5 3726.5,-655.5"/>
<polygon fill="none" stroke="#000000" points="3726.5,-655.5 3726.5,-690.5 4033.5,-690.5 4033.5,-655.5 3726.5,-655.5"/>
<text text-anchor="start" x="3752.7066" y="-668.3" font-family="Arial Bold" font-size="18.00" fill="#000000">public.user_role</text>
<text text-anchor="start" x="3879.7254" y="-668.3" font-family="Arial" font-size="14.00" fill="#000000">    </text>
<text text-anchor="start" x="3913.9302" y="-668.3" font-family="Arial" font-size="14.00" fill="#666666">[BASE TABLE]</text>
<polygon fill="none" stroke="#000000" points="3726.5,-625.5 3726.5,-655.5 4033.5,-655.5 4033.5,-625.5 3726.5,-625.5"/>
<text text-anchor="start" x="3733.5" y="-636.9" font-family="Arial" font-size="14.00" fill="#000000">user_id    </text>
<text text-anchor="start" x="3813.6024" y="-636.9" font-family="Arial" font-size="14.00" fill="#666666">[uuid]</text>
<polygon fill="none" stroke="#000000" points="3726.5,-595.5 3726.5,-625.5 4033.5,-625.5 4033.5,-595.5 3726.5,-595.5"/>
<text text-anchor="start" x="3733.5" y="-606.9" font-family="Arial" font-size="14.00" fill="#000000">role_id    </text>
<text text-anchor="start" x="3809.709" y="-606.9" font-family="Arial" font-size="14.00" fill="#666666">[uuid]</text>
<polygon fill="none" stroke="#000000" points="3726.5,-565.5 3726.5,-595.5 4033.5,-595.5 4033.5,-565.5 3726.5,-565.5"/>
<text text-anchor="start" x="3733.3605" y="-576.9" font-family="Arial" font-size="14.00" fill="#000000">updated_on    </text>
<text text-anchor="start" x="3841.4993" y="-576.9" font-family="Arial" font-size="14.00" fill="#666666">[timestamp without time zone]</text>
</g>
<!-- public.user_role&#45;&gt;public.user -->
<g id="edge11" class="edge">
<title>public.user_role:user_id&#45;&gt;public.user:id</title>
<path fill="none" stroke="#000000" d="M3716.2544,-639.9355C3627.4372,-629.3978 3750.9597,-474.0315 3674.5,-403 3598.2717,-332.1834 2851.5468,-270.5 2747.5,-270.5"/>
<polygon fill="#000000" stroke="#000000" points="3716.5151,-639.9498 3726.2524,-644.9932 3721.5076,-640.2249 3726.5,-640.5 3726.5,-640.5 3726.5,-640.5 3721.5076,-640.2249 3726.7476,-636.0068 3716.5151,-639.9498 3716.5151,-639.9498"/>
<text text-anchor="start" x="3494.7855" y="-650.5" font-family="Arial" font-size="10.00" fill="#000000">FOREIGN KEY (user_id) REFERENCES &quot;user&quot;(id)</text>
</g>
<!-- public.session -->
<g id="node12" class="node">
<title>public.session</title>
<polygon fill="#efefef" stroke="transparent" points="4137.5,-655.5 4137.5,-690.5 4415.5,-690.5 4415.5,-655.5 4137.5,-655.5"/>
<polygon fill="none" stroke="#000000" points="4137.5,-655.5 4137.5,-690.5 4415.5,-690.5 4415.5,-655.5 4137.5,-655.5"/>
<text text-anchor="start" x="4156.205" y="-668.3" font-family="Arial Bold" font-size="18.00" fill="#000000">public.session</text>
<text text-anchor="start" x="4269.227" y="-668.3" font-family="Arial" font-size="14.00" fill="#000000">    </text>
<text text-anchor="start" x="4303.4318" y="-668.3" font-family="Arial" font-size="14.00" fill="#666666">[BASE TABLE]</text>
<polygon fill="none" stroke="#000000" points="4137.5,-625.5 4137.5,-655.5 4415.5,-655.5 4415.5,-625.5 4137.5,-625.5"/>
<text text-anchor="start" x="4144.5" y="-636.9" font-family="Arial" font-size="14.00" fill="#000000">id    </text>
<text text-anchor="start" x="4189.594" y="-636.9" font-family="Arial" font-size="14.00" fill="#666666">[text]</text>
<polygon fill="none" stroke="#000000" points="4137.5,-595.5 4137.5,-625.5 4415.5,-625.5 4415.5,-595.5 4137.5,-595.5"/>
<text text-anchor="start" x="4144.5" y="-606.9" font-family="Arial" font-size="14.00" fill="#000000">user_id    </text>
<text text-anchor="start" x="4224.6024" y="-606.9" font-family="Arial" font-size="14.00" fill="#666666">[uuid]</text>
<polygon fill="none" stroke="#000000" points="4137.5,-565.5 4137.5,-595.5 4415.5,-595.5 4415.5,-565.5 4137.5,-565.5"/>
<text text-anchor="start" x="4144.27" y="-576.9" font-family="Arial" font-size="14.00" fill="#000000">expires_at    </text>
<text text-anchor="start" x="4243.0456" y="-576.9" font-family="Arial" font-size="14.00" fill="#666666">[timestamp with time zone]</text>
</g>
<!-- public.session&#45;&gt;public.user -->
<g id="edge12" class="edge">
<title>public.session:user_id&#45;&gt;public.user:id</title>
<path fill="none" stroke="#000000" d="M4127.2967,-609.8481C4051.129,-599.2689 4154.6661,-462.6886 4085.5,-403 3972.3983,-305.3961 2896.8938,-270.5 2747.5,-270.5"/>
<polygon fill="#000000" stroke="#000000" points="4127.5203,-609.8623 4137.213,-614.9908 4132.5102,-610.1812 4137.5,-610.5 4137.5,-610.5 4137.5,-610.5 4132.5102,-610.1812 4137.787,-606.0092 4127.5203,-609.8623 4127.5203,-609.8623"/>
<text text-anchor="start" x="4085.0355" y="-594.5" font-family="Arial" font-size="10.00" fill="#000000">FOREIGN KEY (user_id) REFERENCES &quot;user&quot;(id)</text>
</g>
<!-- public.subscription -->
<g id="node13" class="node">
<title>public.subscription</title>
<polygon fill="#efefef" stroke="transparent" points="4520.5,-655.5 4520.5,-690.5 4809.5,-690.5 4809.5,-655.5 4520.5,-655.5"/>
<polygon fill="none" stroke="#000000" points="4520.5,-655.5 4520.5,-690.5 4809.5,-690.5 4809.5,-655.5 4520.5,-655.5"/>
<text text-anchor="start" x="4527.2045" y="-668.3" font-family="Arial Bold" font-size="18.00" fill="#000000">public.subscription</text>
<text text-anchor="start" x="4675.2275" y="-668.3" font-family="Arial" font-size="14.00" fill="#000000">    </text>
<text text-anchor="start" x="4709.4323" y="-668.3" font-family="Arial" font-size="14.00" fill="#666666">[BASE TABLE]</text>
<polygon fill="none" stroke="#000000" points="4520.5,-625.5 4520.5,-655.5 4809.5,-655.5 4809.5,-625.5 4520.5,-625.5"/>
<text text-anchor="start" x="4527.5" y="-636.9" font-family="Arial" font-size="14.00" fill="#000000">id    </text>
<text text-anchor="start" x="4572.594" y="-636.9" font-family="Arial" font-size="14.00" fill="#666666">[uuid]</text>
<polygon fill="none" stroke="#000000" points="4520.5,-595.5 4520.5,-625.5 4809.5,-625.5 4809.5,-595.5 4520.5,-595.5"/>
<text text-anchor="start" x="4527.5" y="-606.9" font-family="Arial" font-size="14.00" fill="#000000">channel_id    </text>
<text text-anchor="start" x="4629.3962" y="-606.9" font-family="Arial" font-size="14.00" fill="#666666">[uuid]</text>
<polygon fill="none" stroke="#000000" points="4520.5,-565.5 4520.5,-595.5 4809.5,-595.5 4809.5,-565.5 4520.5,-565.5"/>
<text text-anchor="start" x="4527.5" y="-576.9" font-family="Arial" font-size="14.00" fill="#000000">user_id    </text>
<text text-anchor="start" x="4607.6024" y="-576.9" font-family="Arial" font-size="14.00" fill="#666666">[uuid]</text>
</g>
<!-- public.subscription&#45;&gt;public.user -->
<g id="edge13" class="edge">
<title>public.subscription:user_id&#45;&gt;public.user:id</title>
<path fill="none" stroke="#000000" d="M4510.4384,-579.7565C4446.2442,-569.3463 4528.7036,-452.3673 4467.5,-403 4318.3073,-282.6599 2939.1773,-270.5 2747.5,-270.5"/>
<polygon fill="#000000" stroke="#000000" points="4510.5272,-579.7629 4520.1683,-584.9878 4515.5136,-580.1315 4520.5,-580.5 4520.5,-580.5 4520.5,-580.5 4515.5136,-580.1315 4520.8317,-576.0122 4510.5272,-579.7629 4510.5272,-579.7629"/>
<text text-anchor="start" x="4348.5355" y="-564.5" font-family="Arial" font-size="10.00" fill="#000000">FOREIGN KEY (user_id) REFERENCES &quot;user&quot;(id)</text>
</g>
<!-- public.comment_vote -->
<g id="node14" class="node">
<title>public.comment_vote</title>
<polygon fill="#efefef" stroke="transparent" points="4913.5,-655.5 4913.5,-690.5 5224.5,-690.5 5224.5,-655.5 4913.5,-655.5"/>
<polygon fill="none" stroke="#000000" points="4913.5,-655.5 4913.5,-690.5 5224.5,-690.5 5224.5,-655.5 4913.5,-655.5"/>
<text text-anchor="start" x="4920.1984" y="-668.3" font-family="Arial Bold" font-size="18.00" fill="#000000">public.comment_vote</text>
<text text-anchor="start" x="5090.2336" y="-668.3" font-family="Arial" font-size="14.00" fill="#000000">    </text>
<text text-anchor="start" x="5124.4384" y="-668.3" font-family="Arial" font-size="14.00" fill="#666666">[BASE TABLE]</text>
<polygon fill="none" stroke="#000000" points="4913.5,-625.5 4913.5,-655.5 5224.5,-655.5 5224.5,-625.5 4913.5,-625.5"/>
<text text-anchor="start" x="4920.5" y="-636.9" font-family="Arial" font-size="14.00" fill="#000000">comment_id    </text>
<text text-anchor="start" x="5030.9362" y="-636.9" font-family="Arial" font-size="14.00" fill="#666666">[uuid]</text>
<polygon fill="none" stroke="#000000" points="4913.5,-595.5 4913.5,-625.5 5224.5,-625.5 5224.5,-595.5 4913.5,-595.5"/>
<text text-anchor="start" x="4920.5" y="-606.9" font-family="Arial" font-size="14.00" fill="#000000">user_id    </text>
<text text-anchor="start" x="5000.6024" y="-606.9" font-family="Arial" font-size="14.00" fill="#666666">[uuid]</text>
<polygon fill="none" stroke="#000000" points="4913.5,-565.5 4913.5,-595.5 5224.5,-595.5 5224.5,-565.5 4913.5,-565.5"/>
<text text-anchor="start" x="4920.5" y="-576.9" font-family="Arial" font-size="14.00" fill="#000000">vote    </text>
<text text-anchor="start" x="4981.1606" y="-576.9" font-family="Arial" font-size="14.00" fill="#666666">[vote]</text>
</g>
<!-- public.comment_vote&#45;&gt;public.user -->
<g id="edge14" class="edge">
<title>public.comment_vote:user_id&#45;&gt;public.user:id</title>
<path fill="none" stroke="#000000" d="M4903.3016,-609.8423C4827.2124,-599.1705 4931.7325,-461.4301 4861.5,-403 4771.0383,-327.7401 2865.1749,-270.5 2747.5,-270.5"/>
<polygon fill="#000000" stroke="#000000" points="4903.5207,-609.8564 4913.2104,-614.9907 4908.5104,-610.1782 4913.5,-610.5 4913.5,-610.5 4913.5,-610.5 4908.5104,-610.1782 4913.7896,-606.0093 4903.5207,-609.8564 4903.5207,-609.8564"/>
<text text-anchor="start" x="4681.7855" y="-620.5" font-family="Arial" font-size="10.00" fill="#000000">FOREIGN KEY (user_id) REFERENCES &quot;user&quot;(id)</text>
</g>
<!-- public.post_vote -->
<g id="node15" class="node">
<title>public.post_vote</title>
<polygon fill="#efefef" stroke="transparent" points="5328.5,-655.5 5328.5,-690.5 5599.5,-690.5 5599.5,-655.5 5328.5,-655.5"/>
<polygon fill="none" stroke="#000000" points="5328.5,-655.5 5328.5,-690.5 5599.5,-690.5 5599.5,-655.5 5328.5,-655.5"/>
<text text-anchor="start" x="5335.1937" y="-668.3" font-family="Arial Bold" font-size="18.00" fill="#000000">public.post_vote</text>
<text text-anchor="start" x="5465.2383" y="-668.3" font-family="Arial" font-size="14.00" fill="#000000">    </text>
<text text-anchor="start" x="5499.4431" y="-668.3" font-family="Arial" font-size="14.00" fill="#666666">[BASE TABLE]</text>
<polygon fill="none" stroke="#000000" points="5328.5,-625.5 5328.5,-655.5 5599.5,-655.5 5599.5,-625.5 5328.5,-625.5"/>
<text text-anchor="start" x="5335.5" y="-636.9" font-family="Arial" font-size="14.00" fill="#000000">post_id    </text>
<text text-anchor="start" x="5414.8324" y="-636.9" font-family="Arial" font-size="14.00" fill="#666666">[uuid]</text>
<polygon fill="none" stroke="#000000" points="5328.5,-595.5 5328.5,-625.5 5599.5,-625.5 5599.5,-595.5 5328.5,-595.5"/>
<text text-anchor="start" x="5335.5" y="-606.9" font-family="Arial" font-size="14.00" fill="#000000">user_id    </text>
<text text-anchor="start" x="5415.6024" y="-606.9" font-family="Arial" font-size="14.00" fill="#666666">[uuid]</text>
<polygon fill="none" stroke="#000000" points="5328.5,-565.5 5328.5,-595.5 5599.5,-595.5 5599.5,-565.5 5328.5,-565.5"/>
<text text-anchor="start" x="5335.5" y="-576.9" font-family="Arial" font-size="14.00" fill="#000000">vote    </text>
<text text-anchor="start" x="5396.1606" y="-576.9" font-family="Arial" font-size="14.00" fill="#666666">[vote]</text>
</g>
<!-- public.post_vote&#45;&gt;public.user -->
<g id="edge15" class="edge">
<title>public.post_vote:user_id&#45;&gt;public.user:id</title>
<path fill="none" stroke="#000000" d="M5318.303,-609.8407C5242.2357,-599.1424 5347.031,-461.0694 5276.5,-403 5167.8837,-313.5744 2888.1927,-270.5 2747.5,-270.5"/>
<polygon fill="#000000" stroke="#000000" points="5318.5208,-609.8547 5328.2096,-614.9906 5323.5104,-610.1773 5328.5,-610.5 5328.5,-610.5 5328.5,-610.5 5323.5104,-610.1773 5328.7904,-606.0094 5318.5208,-609.8547 5318.5208,-609.8547"/>
<text text-anchor="start" x="5276.0355" y="-594.5" font-family="Arial" font-size="10.00" fill="#000000">FOREIGN KEY (user_id) REFERENCES &quot;user&quot;(id)</text>
</g>
</g>
</svg>
