<?xml version="1.0" encoding="UTF-8" standalone="no"?>
<!DOCTYPE svg PUBLIC "-//W3C//DTD SVG 1.1//EN"
 "http://www.w3.org/Graphics/SVG/1.1/DTD/svg11.dtd">
<!-- Generated by graphviz version 2.40.1 (20161225.0304)
 -->
<!-- Title: public.channel_user_reports Pages: 1 -->
<svg width="877pt" height="682pt"
 viewBox="0.00 0.00 877.00 682.00" xmlns="http://www.w3.org/2000/svg" xmlns:xlink="http://www.w3.org/1999/xlink">
<g id="graph0" class="graph" transform="scale(1 1) rotate(0) translate(4 678)">
<title>public.channel_user_reports</title>
<polygon fill="#ffffff" stroke="transparent" points="-4,4 -4,-678 873,-678 873,4 -4,4"/>
<!-- public.channel_user_reports -->
<g id="node1" class="node">
<title>public.channel_user_reports</title>
<polygon fill="#efefef" stroke="transparent" points="239,-592.5 239,-627.5 606,-627.5 606,-592.5 239,-592.5"/>
<polygon fill="none" stroke="#000000" points="239,-592.5 239,-627.5 606,-627.5 606,-592.5 239,-592.5"/>
<text text-anchor="start" x="245.6877" y="-605.3" font-family="Arial Bold" font-size="18.00" fill="#000000">public.channel_user_reports</text>
<text text-anchor="start" x="471.7443" y="-605.3" font-family="Arial" font-size="14.00" fill="#000000">    </text>
<text text-anchor="start" x="505.9491" y="-605.3" font-family="Arial" font-size="14.00" fill="#666666">[BASE TABLE]</text>
<polygon fill="none" stroke="#000000" points="239,-562.5 239,-592.5 606,-592.5 606,-562.5 239,-562.5"/>
<text text-anchor="start" x="246" y="-573.9" font-family="Arial" font-size="14.00" fill="#000000">id </text>
<text text-anchor="start" x="260.7798" y="-573.9" font-family="Arial" font-size="14.00" fill="#666666">[uuid]</text>
<polygon fill="none" stroke="#000000" points="239,-532.5 239,-562.5 606,-562.5 606,-532.5 239,-532.5"/>
<text text-anchor="start" x="246" y="-543.9" font-family="Arial" font-size="14.00" fill="#000000">user_id </text>
<text text-anchor="start" x="295.7882" y="-543.9" font-family="Arial" font-size="14.00" fill="#666666">[uuid]</text>
<polygon fill="none" stroke="#000000" points="239,-502.5 239,-532.5 606,-532.5 606,-502.5 239,-502.5"/>
<text text-anchor="start" x="246" y="-513.9" font-family="Arial" font-size="14.00" fill="#000000">channel_id </text>
<text text-anchor="start" x="317.582" y="-513.9" font-family="Arial" font-size="14.00" fill="#666666">[uuid]</text>
<polygon fill="none" stroke="#000000" points="239,-472.5 239,-502.5 606,-502.5 606,-472.5 239,-472.5"/>
<text text-anchor="start" x="246" y="-483.9" font-family="Arial" font-size="14.00" fill="#000000">description </text>
<text text-anchor="start" x="317.568" y="-483.9" font-family="Arial" font-size="14.00" fill="#666666">[text]</text>
<polygon fill="none" stroke="#000000" points="239,-442.5 239,-472.5 606,-472.5 606,-442.5 239,-442.5"/>
<text text-anchor="start" x="246" y="-453.9" font-family="Arial" font-size="14.00" fill="#000000">resolution </text>
<text text-anchor="start" x="310.568" y="-453.9" font-family="Arial" font-size="14.00" fill="#666666">[text]</text>
<polygon fill="none" stroke="#000000" points="239,-412.5 239,-442.5 606,-442.5 606,-412.5 239,-412.5"/>
<text text-anchor="start" x="246" y="-423.9" font-family="Arial" font-size="14.00" fill="#000000">status </text>
<text text-anchor="start" x="287.237" y="-423.9" font-family="Arial" font-size="14.00" fill="#666666">[report_status]</text>
<polygon fill="none" stroke="#000000" stroke-width="3" points="237,-411.5 237,-629.5 607,-629.5 607,-411.5 237,-411.5"/>
</g>
<!-- public.user -->
<g id="node2" class="node">
<title>public.user</title>
<polygon fill="#efefef" stroke="transparent" points="64,-237.5 64,-272.5 371,-272.5 371,-237.5 64,-237.5"/>
<polygon fill="none" stroke="#000000" points="64,-237.5 64,-272.5 371,-272.5 371,-237.5 64,-237.5"/>
<text text-anchor="start" x="110.2091" y="-250.3" font-family="Arial Bold" font-size="18.00" fill="#000000">public.user</text>
<text text-anchor="start" x="197.2229" y="-250.3" font-family="Arial" font-size="14.00" fill="#000000">    </text>
<text text-anchor="start" x="231.4277" y="-250.3" font-family="Arial" font-size="14.00" fill="#666666">[BASE TABLE]</text>
<polygon fill="none" stroke="#000000" points="64,-207.5 64,-237.5 371,-237.5 371,-207.5 64,-207.5"/>
<text text-anchor="start" x="71" y="-218.9" font-family="Arial" font-size="14.00" fill="#000000">id    </text>
<text text-anchor="start" x="116.094" y="-218.9" font-family="Arial" font-size="14.00" fill="#666666">[uuid]</text>
<polygon fill="none" stroke="#000000" points="64,-177.5 64,-207.5 371,-207.5 371,-177.5 64,-177.5"/>
<text text-anchor="start" x="71" y="-188.9" font-family="Arial" font-size="14.00" fill="#000000">username    </text>
<text text-anchor="start" x="167.439" y="-188.9" font-family="Arial" font-size="14.00" fill="#666666">[varchar(25)]</text>
<polygon fill="none" stroke="#000000" points="64,-147.5 64,-177.5 371,-177.5 371,-147.5 64,-147.5"/>
<text text-anchor="start" x="71" y="-158.9" font-family="Arial" font-size="14.00" fill="#000000">profile_image    </text>
<text text-anchor="start" x="189.2146" y="-158.9" font-family="Arial" font-size="14.00" fill="#666666">[text]</text>
<polygon fill="none" stroke="#000000" points="64,-117.5 64,-147.5 371,-147.5 371,-117.5 64,-117.5"/>
<text text-anchor="start" x="71" y="-128.9" font-family="Arial" font-size="14.00" fill="#000000">role    </text>
<text text-anchor="start" x="128.5372" y="-128.9" font-family="Arial" font-size="14.00" fill="#666666">[site_role]</text>
<polygon fill="none" stroke="#000000" points="64,-87.5 64,-117.5 371,-117.5 371,-87.5 64,-87.5"/>
<text text-anchor="start" x="71" y="-98.9" font-family="Arial" font-size="14.00" fill="#000000">created_on    </text>
<text text-anchor="start" x="175.2342" y="-98.9" font-family="Arial" font-size="14.00" fill="#666666">[timestamp without time zone]</text>
<polygon fill="none" stroke="#000000" points="64,-57.5 64,-87.5 371,-87.5 371,-57.5 64,-57.5"/>
<text text-anchor="start" x="70.8605" y="-68.9" font-family="Arial" font-size="14.00" fill="#000000">updated_on    </text>
<text text-anchor="start" x="178.9993" y="-68.9" font-family="Arial" font-size="14.00" fill="#666666">[timestamp without time zone]</text>
</g>
<!-- public.channel_user_reports&#45;&gt;public.user -->
<g id="edge1" class="edge">
<title>public.channel_user_reports:user_id&#45;&gt;public.user:id</title>
<path fill="none" stroke="#000000" d="M228.876,-546.8225C161.9306,-537.3247 195.6716,-430.1905 239,-367 274.5667,-315.1293 335.4333,-367.8707 371,-316 394.5,-281.7274 412.5556,-222.5 371,-222.5"/>
<polygon fill="#000000" stroke="#000000" points="229.0223,-546.8322 238.6995,-551.99 234.0112,-547.1661 239,-547.5 239,-547.5 239,-547.5 234.0112,-547.1661 239.3005,-543.01 229.0223,-546.8322 229.0223,-546.8322"/>
<text text-anchor="start" x="7.2855" y="-557.5" font-family="Arial" font-size="10.00" fill="#000000">FOREIGN KEY (user_id) REFERENCES &quot;user&quot;(id)</text>
</g>
<!-- public.channel -->
<g id="node3" class="node">
<title>public.channel</title>
<polygon fill="#efefef" stroke="transparent" points="475,-252.5 475,-287.5 782,-287.5 782,-252.5 475,-252.5"/>
<polygon fill="none" stroke="#000000" points="475,-252.5 475,-287.5 782,-287.5 782,-252.5 475,-252.5"/>
<text text-anchor="start" x="507.1988" y="-265.3" font-family="Arial Bold" font-size="18.00" fill="#000000">public.channel</text>
<text text-anchor="start" x="622.2332" y="-265.3" font-family="Arial" font-size="14.00" fill="#000000">    </text>
<text text-anchor="start" x="656.438" y="-265.3" font-family="Arial" font-size="14.00" fill="#666666">[BASE TABLE]</text>
<polygon fill="none" stroke="#000000" points="475,-222.5 475,-252.5 782,-252.5 782,-222.5 475,-222.5"/>
<text text-anchor="start" x="482" y="-233.9" font-family="Arial" font-size="14.00" fill="#000000">id    </text>
<text text-anchor="start" x="527.094" y="-233.9" font-family="Arial" font-size="14.00" fill="#666666">[uuid]</text>
<polygon fill="none" stroke="#000000" points="475,-192.5 475,-222.5 782,-222.5 782,-192.5 475,-192.5"/>
<text text-anchor="start" x="482" y="-203.9" font-family="Arial" font-size="14.00" fill="#000000">name    </text>
<text text-anchor="start" x="551.2132" y="-203.9" font-family="Arial" font-size="14.00" fill="#666666">[text]</text>
<polygon fill="none" stroke="#000000" points="475,-162.5 475,-192.5 782,-192.5 782,-162.5 475,-162.5"/>
<text text-anchor="start" x="482" y="-173.9" font-family="Arial" font-size="14.00" fill="#000000">description    </text>
<text text-anchor="start" x="583.8822" y="-173.9" font-family="Arial" font-size="14.00" fill="#666666">[text]</text>
<polygon fill="none" stroke="#000000" points="475,-132.5 475,-162.5 782,-162.5 782,-132.5 475,-132.5"/>
<text text-anchor="start" x="482" y="-143.9" font-family="Arial" font-size="14.00" fill="#000000">guidelines    </text>
<text text-anchor="start" x="579.2202" y="-143.9" font-family="Arial" font-size="14.00" fill="#666666">[text]</text>
<polygon fill="none" stroke="#000000" points="475,-102.5 475,-132.5 782,-132.5 782,-102.5 475,-102.5"/>
<text text-anchor="start" x="482" y="-113.9" font-family="Arial" font-size="14.00" fill="#000000">created_by    </text>
<text text-anchor="start" x="585.4516" y="-113.9" font-family="Arial" font-size="14.00" fill="#666666">[uuid]</text>
<polygon fill="none" stroke="#000000" points="475,-72.5 475,-102.5 782,-102.5 782,-72.5 475,-72.5"/>
<text text-anchor="start" x="482" y="-83.9" font-family="Arial" font-size="14.00" fill="#000000">created_on    </text>
<text text-anchor="start" x="586.2342" y="-83.9" font-family="Arial" font-size="14.00" fill="#666666">[timestamp without time zone]</text>
<polygon fill="none" stroke="#000000" points="475,-42.5 475,-72.5 782,-72.5 782,-42.5 475,-42.5"/>
<text text-anchor="start" x="481.8605" y="-53.9" font-family="Arial" font-size="14.00" fill="#000000">updated_on    </text>
<text text-anchor="start" x="589.9993" y="-53.9" font-family="Arial" font-size="14.00" fill="#666666">[timestamp without time zone]</text>
</g>
<!-- public.channel_user_reports&#45;&gt;public.channel -->
<g id="edge2" class="edge">
<title>public.channel_user_reports:channel_id&#45;&gt;public.channel:id</title>
<path fill="none" stroke="#000000" d="M616.1504,-516.6501C669.9655,-506.9893 644.3321,-417.2872 606,-367 569.3958,-318.9796 511.6042,-379.0204 475,-331 449.808,-297.9511 433.4444,-237.5 475,-237.5"/>
<polygon fill="#000000" stroke="#000000" points="615.9651,-516.6655 605.6245,-513.0157 610.9826,-517.0828 606,-517.5 606,-517.5 606,-517.5 610.9826,-517.0828 606.3755,-521.9843 615.9651,-516.6655 615.9651,-516.6655"/>
<text text-anchor="start" x="613.2675" y="-527.5" font-family="Arial" font-size="10.00" fill="#000000">FOREIGN KEY (channel_id) REFERENCES channel(id)</text>
</g>
</g>
</svg>
