<?xml version="1.0" encoding="UTF-8" standalone="no"?>
<!DOCTYPE svg PUBLIC "-//W3C//DTD SVG 1.1//EN"
 "http://www.w3.org/Graphics/SVG/1.1/DTD/svg11.dtd">
<!-- Generated by graphviz version 12.1.2 (20240928.0832)
 -->
<!-- Title: public.user_role Pages: 1 -->
<svg width="753pt" height="1310pt"
 viewBox="0.00 0.00 753.34 1310.40" xmlns="http://www.w3.org/2000/svg" xmlns:xlink="http://www.w3.org/1999/xlink">
<g id="graph0" class="graph" transform="scale(1 1) rotate(0) translate(4 1306.4)">
<title>public.user_role</title>
<polygon fill="white" stroke="none" points="-4,4 -4,-1306.4 749.34,-1306.4 749.34,4 -4,4"/>
<!-- public.user_role -->
<g id="node1" class="node">
<title>public.user_role</title>
<polygon fill="#efefef" stroke="none" points="240.48,-1220.6 240.48,-1256.2 517.52,-1256.2 517.52,-1220.6 240.48,-1220.6"/>
<polygon fill="none" stroke="black" points="240.48,-1220.6 240.48,-1256.2 517.52,-1256.2 517.52,-1220.6 240.48,-1220.6"/>
<text text-anchor="start" x="258.52" y="-1234" font-family="Arial Bold" font-size="18.00">public.user_role</text>
<text text-anchor="start" x="374.99" y="-1234" font-family="Arial" font-size="14.00">    </text>
<text text-anchor="start" x="406.1" y="-1234" font-family="Arial" font-size="14.00" fill="#666666">[BASE TABLE]</text>
<polygon fill="none" stroke="black" points="240.48,-1189.8 240.48,-1220.6 517.52,-1220.6 517.52,-1189.8 240.48,-1189.8"/>
<text text-anchor="start" x="247.48" y="-1202" font-family="Arial" font-size="14.00">user_id </text>
<text text-anchor="start" x="297.29" y="-1202" font-family="Arial" font-size="14.00" fill="#666666">[uuid]</text>
<polygon fill="none" stroke="black" points="240.48,-1159 240.48,-1189.8 517.52,-1189.8 517.52,-1159 240.48,-1159"/>
<text text-anchor="start" x="247.48" y="-1171.2" font-family="Arial" font-size="14.00">role_id </text>
<text text-anchor="start" x="293.4" y="-1171.2" font-family="Arial" font-size="14.00" fill="#666666">[uuid]</text>
<polygon fill="none" stroke="black" points="240.48,-1128.2 240.48,-1159 517.52,-1159 517.52,-1128.2 240.48,-1128.2"/>
<text text-anchor="start" x="247.48" y="-1140.4" font-family="Arial" font-size="14.00">updated_on </text>
<text text-anchor="start" x="325.33" y="-1140.4" font-family="Arial" font-size="14.00" fill="#666666">[timestamp without time zone]</text>
<polygon fill="none" stroke="black" stroke-width="3" points="238.98,-1126.7 238.98,-1257.7 519.02,-1257.7 519.02,-1126.7 238.98,-1126.7"/>
</g>
<!-- public.user -->
<g id="node2" class="node">
<title>public.user</title>
<polygon fill="#efefef" stroke="none" points="52.48,-659.2 52.48,-694.8 329.52,-694.8 329.52,-659.2 52.48,-659.2"/>
<polygon fill="none" stroke="black" points="52.48,-659.2 52.48,-694.8 329.52,-694.8 329.52,-659.2 52.48,-659.2"/>
<text text-anchor="start" x="89.01" y="-672.6" font-family="Arial Bold" font-size="18.00">public.user</text>
<text text-anchor="start" x="168.49" y="-672.6" font-family="Arial" font-size="14.00">    </text>
<text text-anchor="start" x="199.61" y="-672.6" font-family="Arial" font-size="14.00" fill="#666666">[BASE TABLE]</text>
<polygon fill="none" stroke="black" points="52.48,-628.4 52.48,-659.2 329.52,-659.2 329.52,-628.4 52.48,-628.4"/>
<text text-anchor="start" x="59.48" y="-640.6" font-family="Arial" font-size="14.00">id </text>
<text text-anchor="start" x="74.26" y="-640.6" font-family="Arial" font-size="14.00" fill="#666666">[uuid]</text>
<polygon fill="none" stroke="black" points="52.48,-597.6 52.48,-628.4 329.52,-628.4 329.52,-597.6 52.48,-597.6"/>
<text text-anchor="start" x="59.48" y="-609.8" font-family="Arial" font-size="14.00">username </text>
<text text-anchor="start" x="125.62" y="-609.8" font-family="Arial" font-size="14.00" fill="#666666">[varchar(25)]</text>
<polygon fill="none" stroke="black" points="52.48,-566.8 52.48,-597.6 329.52,-597.6 329.52,-566.8 52.48,-566.8"/>
<text text-anchor="start" x="59.48" y="-579" font-family="Arial" font-size="14.00">profile_image </text>
<text text-anchor="start" x="147.42" y="-579" font-family="Arial" font-size="14.00" fill="#666666">[text]</text>
<polygon fill="none" stroke="black" points="52.48,-536 52.48,-566.8 329.52,-566.8 329.52,-536 52.48,-536"/>
<text text-anchor="start" x="59.48" y="-548.2" font-family="Arial" font-size="14.00">role </text>
<text text-anchor="start" x="86.71" y="-548.2" font-family="Arial" font-size="14.00" fill="#666666">[site_role]</text>
<polygon fill="none" stroke="black" points="52.48,-505.2 52.48,-536 329.52,-536 329.52,-505.2 52.48,-505.2"/>
<text text-anchor="start" x="59.48" y="-517.4" font-family="Arial" font-size="14.00">created_on </text>
<text text-anchor="start" x="133.42" y="-517.4" font-family="Arial" font-size="14.00" fill="#666666">[timestamp without time zone]</text>
<polygon fill="none" stroke="black" points="52.48,-474.4 52.48,-505.2 329.52,-505.2 329.52,-474.4 52.48,-474.4"/>
<text text-anchor="start" x="59.48" y="-486.6" font-family="Arial" font-size="14.00">updated_on </text>
<text text-anchor="start" x="137.33" y="-486.6" font-family="Arial" font-size="14.00" fill="#666666">[timestamp without time zone]</text>
<polygon fill="none" stroke="black" points="52.48,-443.6 52.48,-474.4 329.52,-474.4 329.52,-443.6 52.48,-443.6"/>
<text text-anchor="start" x="59.48" y="-455.8" font-family="Arial" font-size="14.00">discord_id </text>
<text text-anchor="start" x="127.18" y="-455.8" font-family="Arial" font-size="14.00" fill="#666666">[bigint]</text>
<polygon fill="none" stroke="black" points="52.48,-412.8 52.48,-443.6 329.52,-443.6 329.52,-412.8 52.48,-412.8"/>
<text text-anchor="start" x="59.48" y="-425" font-family="Arial" font-size="14.00">github_id </text>
<text text-anchor="start" x="120.2" y="-425" font-family="Arial" font-size="14.00" fill="#666666">[integer]</text>
<polygon fill="none" stroke="black" points="52.48,-382 52.48,-412.8 329.52,-412.8 329.52,-382 52.48,-382"/>
<text text-anchor="start" x="59.48" y="-394.2" font-family="Arial" font-size="14.00">followers </text>
<text text-anchor="start" x="118.61" y="-394.2" font-family="Arial" font-size="14.00" fill="#666666">[integer]</text>
<polygon fill="none" stroke="black" points="52.48,-351.2 52.48,-382 329.52,-382 329.52,-351.2 52.48,-351.2"/>
<text text-anchor="start" x="59.48" y="-363.4" font-family="Arial" font-size="14.00">following </text>
<text text-anchor="start" x="117.84" y="-363.4" font-family="Arial" font-size="14.00" fill="#666666">[integer]</text>
</g>
<!-- public.user_role&#45;&gt;public.user -->
<g id="edge1" class="edge">
<title>public.user_role:user_id&#45;&gt;public.user:id</title>
<path fill="none" stroke="black" d="M229.27,-1203.69C133.48,-1171.72 453.08,-643.8 330.52,-643.8"/>
<polygon fill="black" stroke="black" points="229.26,-1203.69 238.49,-1209.6 234.53,-1204.47 238.82,-1205.1 238.82,-1205.1 238.82,-1205.1 234.53,-1204.47 239.81,-1200.7 229.26,-1203.69"/>
<text text-anchor="start" x="7" y="-1215.2" font-family="Arial" font-size="10.00">FOREIGN KEY (user_id) REFERENCES &quot;user&quot;(id)</text>
</g>
<!-- public.role -->
<g id="node3" class="node">
<title>public.role</title>
<polygon fill="#efefef" stroke="none" points="433.9,-967.2 433.9,-1002.8 700.09,-1002.8 700.09,-967.2 433.9,-967.2"/>
<polygon fill="none" stroke="black" points="433.9,-967.2 433.9,-1002.8 700.09,-1002.8 700.09,-967.2 433.9,-967.2"/>
<text text-anchor="start" x="466.02" y="-980.6" font-family="Arial Bold" font-size="18.00">public.role</text>
<text text-anchor="start" x="543.49" y="-980.6" font-family="Arial" font-size="14.00">    </text>
<text text-anchor="start" x="574.61" y="-980.6" font-family="Arial" font-size="14.00" fill="#666666">[BASE TABLE]</text>
<polygon fill="none" stroke="black" points="433.9,-936.4 433.9,-967.2 700.09,-967.2 700.09,-936.4 433.9,-936.4"/>
<text text-anchor="start" x="440.9" y="-948.6" font-family="Arial" font-size="14.00">id </text>
<text text-anchor="start" x="455.69" y="-948.6" font-family="Arial" font-size="14.00" fill="#666666">[uuid]</text>
<polygon fill="none" stroke="black" points="433.9,-905.6 433.9,-936.4 700.09,-936.4 700.09,-905.6 433.9,-905.6"/>
<text text-anchor="start" x="440.9" y="-917.8" font-family="Arial" font-size="14.00">channel_id </text>
<text text-anchor="start" x="512.52" y="-917.8" font-family="Arial" font-size="14.00" fill="#666666">[uuid]</text>
<polygon fill="none" stroke="black" points="433.9,-874.8 433.9,-905.6 700.09,-905.6 700.09,-874.8 433.9,-874.8"/>
<text text-anchor="start" x="440.9" y="-887" font-family="Arial" font-size="14.00">title </text>
<text text-anchor="start" x="466.58" y="-887" font-family="Arial" font-size="14.00" fill="#666666">[varchar(20)]</text>
<polygon fill="none" stroke="black" points="433.9,-844 433.9,-874.8 700.09,-874.8 700.09,-844 433.9,-844"/>
<text text-anchor="start" x="440.9" y="-856.2" font-family="Arial" font-size="14.00">isOwner </text>
<text text-anchor="start" x="496.14" y="-856.2" font-family="Arial" font-size="14.00" fill="#666666">[boolean]</text>
<polygon fill="none" stroke="black" points="433.9,-813.2 433.9,-844 700.09,-844 700.09,-813.2 433.9,-813.2"/>
<text text-anchor="start" x="440.9" y="-825.4" font-family="Arial" font-size="14.00">ranking </text>
<text text-anchor="start" x="490.71" y="-825.4" font-family="Arial" font-size="14.00" fill="#666666">[smallint]</text>
<polygon fill="none" stroke="black" points="433.9,-782.4 433.9,-813.2 700.09,-813.2 700.09,-782.4 433.9,-782.4"/>
<text text-anchor="start" x="440.9" y="-794.6" font-family="Arial" font-size="14.00">can_create_roles </text>
<text text-anchor="start" x="552.19" y="-794.6" font-family="Arial" font-size="14.00" fill="#666666">[boolean]</text>
<polygon fill="none" stroke="black" points="433.9,-751.6 433.9,-782.4 700.09,-782.4 700.09,-751.6 433.9,-751.6"/>
<text text-anchor="start" x="440.9" y="-763.8" font-family="Arial" font-size="14.00">can_view_roles </text>
<text text-anchor="start" x="541.29" y="-763.8" font-family="Arial" font-size="14.00" fill="#666666">[boolean]</text>
<polygon fill="none" stroke="black" points="433.9,-720.8 433.9,-751.6 700.09,-751.6 700.09,-720.8 433.9,-720.8"/>
<text text-anchor="start" x="440.9" y="-733" font-family="Arial" font-size="14.00">can_edit_roles </text>
<text text-anchor="start" x="535.85" y="-733" font-family="Arial" font-size="14.00" fill="#666666">[boolean]</text>
<polygon fill="none" stroke="black" points="433.9,-690 433.9,-720.8 700.09,-720.8 700.09,-690 433.9,-690"/>
<text text-anchor="start" x="440.9" y="-702.2" font-family="Arial" font-size="14.00">can_delete_roles </text>
<text text-anchor="start" x="551.43" y="-702.2" font-family="Arial" font-size="14.00" fill="#666666">[boolean]</text>
<polygon fill="none" stroke="black" points="433.9,-659.2 433.9,-690 700.09,-690 700.09,-659.2 433.9,-659.2"/>
<text text-anchor="start" x="440.9" y="-671.4" font-family="Arial" font-size="14.00">can_assign_roles </text>
<text text-anchor="start" x="553.75" y="-671.4" font-family="Arial" font-size="14.00" fill="#666666">[boolean]</text>
<polygon fill="none" stroke="black" points="433.9,-628.4 433.9,-659.2 700.09,-659.2 700.09,-628.4 433.9,-628.4"/>
<text text-anchor="start" x="440.9" y="-640.6" font-family="Arial" font-size="14.00">can_set_message_of_the_day </text>
<text text-anchor="start" x="635.49" y="-640.6" font-family="Arial" font-size="14.00" fill="#666666">[boolean]</text>
<polygon fill="none" stroke="black" points="433.9,-597.6 433.9,-628.4 700.09,-628.4 700.09,-597.6 433.9,-597.6"/>
<text text-anchor="start" x="440.9" y="-609.8" font-family="Arial" font-size="14.00">can_edit_name </text>
<text text-anchor="start" x="540.53" y="-609.8" font-family="Arial" font-size="14.00" fill="#666666">[boolean]</text>
<polygon fill="none" stroke="black" points="433.9,-566.8 433.9,-597.6 700.09,-597.6 700.09,-566.8 433.9,-566.8"/>
<text text-anchor="start" x="440.9" y="-579" font-family="Arial" font-size="14.00">can_set_image </text>
<text text-anchor="start" x="539.74" y="-579" font-family="Arial" font-size="14.00" fill="#666666">[boolean]</text>
<polygon fill="none" stroke="black" points="433.9,-536 433.9,-566.8 700.09,-566.8 700.09,-536 433.9,-536"/>
<text text-anchor="start" x="440.9" y="-548.2" font-family="Arial" font-size="14.00">can_view_user_table </text>
<text text-anchor="start" x="576.32" y="-548.2" font-family="Arial" font-size="14.00" fill="#666666">[boolean]</text>
<polygon fill="none" stroke="black" points="433.9,-505.2 433.9,-536 700.09,-536 700.09,-505.2 433.9,-505.2"/>
<text text-anchor="start" x="440.9" y="-517.4" font-family="Arial" font-size="14.00">can_edit_tags </text>
<text text-anchor="start" x="531.97" y="-517.4" font-family="Arial" font-size="14.00" fill="#666666">[boolean]</text>
<polygon fill="none" stroke="black" points="433.9,-474.4 433.9,-505.2 700.09,-505.2 700.09,-474.4 433.9,-474.4"/>
<text text-anchor="start" x="440.9" y="-486.6" font-family="Arial" font-size="14.00">can_set_guidelines </text>
<text text-anchor="start" x="564.66" y="-486.6" font-family="Arial" font-size="14.00" fill="#666666">[boolean]</text>
<polygon fill="none" stroke="black" points="433.9,-443.6 433.9,-474.4 700.09,-474.4 700.09,-443.6 433.9,-443.6"/>
<text text-anchor="start" x="440.9" y="-455.8" font-family="Arial" font-size="14.00">can_timeout_users </text>
<text text-anchor="start" x="563.08" y="-455.8" font-family="Arial" font-size="14.00" fill="#666666">[boolean]</text>
<polygon fill="none" stroke="black" points="433.9,-412.8 433.9,-443.6 700.09,-443.6 700.09,-412.8 433.9,-412.8"/>
<text text-anchor="start" x="440.9" y="-425" font-family="Arial" font-size="14.00">can_ban_users </text>
<text text-anchor="start" x="540.53" y="-425" font-family="Arial" font-size="14.00" fill="#666666">[boolean]</text>
<polygon fill="none" stroke="black" points="433.9,-382 433.9,-412.8 700.09,-412.8 700.09,-382 433.9,-382"/>
<text text-anchor="start" x="440.9" y="-394.2" font-family="Arial" font-size="14.00">can_view_banned_users </text>
<text text-anchor="start" x="599.68" y="-394.2" font-family="Arial" font-size="14.00" fill="#666666">[boolean]</text>
<polygon fill="none" stroke="black" points="433.9,-351.2 433.9,-382 700.09,-382 700.09,-351.2 433.9,-351.2"/>
<text text-anchor="start" x="440.9" y="-363.4" font-family="Arial" font-size="14.00">can_unban_users </text>
<text text-anchor="start" x="556.1" y="-363.4" font-family="Arial" font-size="14.00" fill="#666666">[boolean]</text>
<polygon fill="none" stroke="black" points="433.9,-320.4 433.9,-351.2 700.09,-351.2 700.09,-320.4 433.9,-320.4"/>
<text text-anchor="start" x="440.9" y="-332.6" font-family="Arial" font-size="14.00">can_delete_posts </text>
<text text-anchor="start" x="554.54" y="-332.6" font-family="Arial" font-size="14.00" fill="#666666">[boolean]</text>
<polygon fill="none" stroke="black" points="433.9,-289.6 433.9,-320.4 700.09,-320.4 700.09,-289.6 433.9,-289.6"/>
<text text-anchor="start" x="440.9" y="-301.8" font-family="Arial" font-size="14.00">can_delete_comments </text>
<text text-anchor="start" x="585.65" y="-301.8" font-family="Arial" font-size="14.00" fill="#666666">[boolean]</text>
<polygon fill="none" stroke="black" points="433.9,-258.8 433.9,-289.6 700.09,-289.6 700.09,-258.8 433.9,-258.8"/>
<text text-anchor="start" x="440.9" y="-271" font-family="Arial" font-size="14.00">can_edit_post_tags </text>
<text text-anchor="start" x="566.22" y="-271" font-family="Arial" font-size="14.00" fill="#666666">[boolean]</text>
<polygon fill="none" stroke="black" points="433.9,-228 433.9,-258.8 700.09,-258.8 700.09,-228 433.9,-228"/>
<text text-anchor="start" x="440.9" y="-240.2" font-family="Arial" font-size="14.00">can_view_post_reports </text>
<text text-anchor="start" x="588.76" y="-240.2" font-family="Arial" font-size="14.00" fill="#666666">[boolean]</text>
<polygon fill="none" stroke="black" points="433.9,-197.2 433.9,-228 700.09,-228 700.09,-197.2 433.9,-197.2"/>
<text text-anchor="start" x="440.9" y="-209.4" font-family="Arial" font-size="14.00">can_update_post_reports </text>
<text text-anchor="start" x="603.58" y="-209.4" font-family="Arial" font-size="14.00" fill="#666666">[boolean]</text>
<polygon fill="none" stroke="black" points="433.9,-166.4 433.9,-197.2 700.09,-197.2 700.09,-166.4 433.9,-166.4"/>
<text text-anchor="start" x="440.9" y="-178.6" font-family="Arial" font-size="14.00">can_resolve_post_reports </text>
<text text-anchor="start" x="605.89" y="-178.6" font-family="Arial" font-size="14.00" fill="#666666">[boolean]</text>
<polygon fill="none" stroke="black" points="433.9,-135.6 433.9,-166.4 700.09,-166.4 700.09,-135.6 433.9,-135.6"/>
<text text-anchor="start" x="440.9" y="-147.8" font-family="Arial" font-size="14.00">can_register_events </text>
<text text-anchor="start" x="570.87" y="-147.8" font-family="Arial" font-size="14.00" fill="#666666">[boolean]</text>
<polygon fill="none" stroke="black" points="433.9,-104.8 433.9,-135.6 700.09,-135.6 700.09,-104.8 433.9,-104.8"/>
<text text-anchor="start" x="440.9" y="-117" font-family="Arial" font-size="14.00">can_view_events </text>
<text text-anchor="start" x="552.19" y="-117" font-family="Arial" font-size="14.00" fill="#666666">[boolean]</text>
<polygon fill="none" stroke="black" points="433.9,-74 433.9,-104.8 700.09,-104.8 700.09,-74 433.9,-74"/>
<text text-anchor="start" x="440.9" y="-86.2" font-family="Arial" font-size="14.00">can_edit_events </text>
<text text-anchor="start" x="546.76" y="-86.2" font-family="Arial" font-size="14.00" fill="#666666">[boolean]</text>
<polygon fill="none" stroke="black" points="433.9,-43.2 433.9,-74 700.09,-74 700.09,-43.2 433.9,-43.2"/>
<text text-anchor="start" x="440.9" y="-55.4" font-family="Arial" font-size="14.00">can_unregister_events </text>
<text text-anchor="start" x="586.44" y="-55.4" font-family="Arial" font-size="14.00" fill="#666666">[boolean]</text>
</g>
<!-- public.user_role&#45;&gt;public.role -->
<g id="edge2" class="edge">
<title>public.user_role:role_id&#45;&gt;public.role:id</title>
<path fill="none" stroke="black" d="M528.52,-1172.93C555.94,-1163.7 538.15,-1112.98 517.52,-1082 495.09,-1048.32 456.33,-1079.68 433.9,-1046 410.7,-1011.15 391.03,-951.8 432.9,-951.8"/>
<polygon fill="black" stroke="black" points="528.74,-1172.9 518.2,-1169.9 523.47,-1173.67 519.18,-1174.3 519.18,-1174.3 519.18,-1174.3 523.47,-1173.67 519.5,-1178.8 528.74,-1172.9"/>
<text text-anchor="start" x="525.52" y="-1184.4" font-family="Arial" font-size="10.00">FOREIGN KEY (role_id) REFERENCES role(id)</text>
</g>
</g>
</svg>
