<?xml version="1.0" encoding="UTF-8" standalone="no"?>
<!DOCTYPE svg PUBLIC "-//W3C//DTD SVG 1.1//EN"
 "http://www.w3.org/Graphics/SVG/1.1/DTD/svg11.dtd">
<!-- Generated by graphviz version 12.1.2 (20240928.0832)
 -->
<!-- Title: public.post Pages: 1 -->
<svg width="2286pt" height="1438pt"
 viewBox="0.00 0.00 2285.91 1437.60" xmlns="http://www.w3.org/2000/svg" xmlns:xlink="http://www.w3.org/1999/xlink">
<g id="graph0" class="graph" transform="scale(1 1) rotate(0) translate(4 1433.6)">
<title>public.post</title>
<polygon fill="white" stroke="none" points="-4,4 -4,-1433.6 2281.91,-1433.6 2281.91,4 -4,4"/>
<!-- public.post -->
<g id="node1" class="node">
<title>public.post</title>
<polygon fill="#efefef" stroke="none" points="1041.2,-912.6 1041.2,-948.2 1318.24,-948.2 1318.24,-912.6 1041.2,-912.6"/>
<polygon fill="none" stroke="black" points="1041.2,-912.6 1041.2,-948.2 1318.24,-948.2 1318.24,-912.6 1041.2,-912.6"/>
<text text-anchor="start" x="1077.73" y="-926" font-family="Arial Bold" font-size="18.00">public.post</text>
<text text-anchor="start" x="1157.22" y="-926" font-family="Arial" font-size="14.00">    </text>
<text text-anchor="start" x="1188.34" y="-926" font-family="Arial" font-size="14.00" fill="#666666">[BASE TABLE]</text>
<polygon fill="none" stroke="black" points="1041.2,-881.8 1041.2,-912.6 1318.24,-912.6 1318.24,-881.8 1041.2,-881.8"/>
<text text-anchor="start" x="1048.2" y="-894" font-family="Arial" font-size="14.00">id </text>
<text text-anchor="start" x="1062.99" y="-894" font-family="Arial" font-size="14.00" fill="#666666">[uuid]</text>
<polygon fill="none" stroke="black" points="1041.2,-851 1041.2,-881.8 1318.24,-881.8 1318.24,-851 1041.2,-851"/>
<text text-anchor="start" x="1048.2" y="-863.2" font-family="Arial" font-size="14.00">name </text>
<text text-anchor="start" x="1087.11" y="-863.2" font-family="Arial" font-size="14.00" fill="#666666">[text]</text>
<polygon fill="none" stroke="black" points="1041.2,-820.2 1041.2,-851 1318.24,-851 1318.24,-820.2 1041.2,-820.2"/>
<text text-anchor="start" x="1048.2" y="-832.4" font-family="Arial" font-size="14.00">description </text>
<text text-anchor="start" x="1119.79" y="-832.4" font-family="Arial" font-size="14.00" fill="#666666">[text]</text>
<polygon fill="none" stroke="black" points="1041.2,-789.4 1041.2,-820.2 1318.24,-820.2 1318.24,-789.4 1041.2,-789.4"/>
<text text-anchor="start" x="1048.2" y="-801.6" font-family="Arial" font-size="14.00">alt_text </text>
<text text-anchor="start" x="1097.23" y="-801.6" font-family="Arial" font-size="14.00" fill="#666666">[text]</text>
<polygon fill="none" stroke="black" points="1041.2,-758.6 1041.2,-789.4 1318.24,-789.4 1318.24,-758.6 1041.2,-758.6"/>
<text text-anchor="start" x="1048.2" y="-770.8" font-family="Arial" font-size="14.00">created_by </text>
<text text-anchor="start" x="1121.36" y="-770.8" font-family="Arial" font-size="14.00" fill="#666666">[uuid]</text>
<polygon fill="none" stroke="black" points="1041.2,-727.8 1041.2,-758.6 1318.24,-758.6 1318.24,-727.8 1041.2,-727.8"/>
<text text-anchor="start" x="1048.2" y="-740" font-family="Arial" font-size="14.00">channel_id </text>
<text text-anchor="start" x="1119.81" y="-740" font-family="Arial" font-size="14.00" fill="#666666">[uuid]</text>
<polygon fill="none" stroke="black" points="1041.2,-697 1041.2,-727.8 1318.24,-727.8 1318.24,-697 1041.2,-697"/>
<text text-anchor="start" x="1048.2" y="-709.2" font-family="Arial" font-size="14.00">video_id </text>
<text text-anchor="start" x="1104.24" y="-709.2" font-family="Arial" font-size="14.00" fill="#666666">[text]</text>
<polygon fill="none" stroke="black" points="1041.2,-666.2 1041.2,-697 1318.24,-697 1318.24,-666.2 1041.2,-666.2"/>
<text text-anchor="start" x="1048.2" y="-678.4" font-family="Arial" font-size="14.00">created_on </text>
<text text-anchor="start" x="1122.14" y="-678.4" font-family="Arial" font-size="14.00" fill="#666666">[timestamp without time zone]</text>
<polygon fill="none" stroke="black" points="1041.2,-635.4 1041.2,-666.2 1318.24,-666.2 1318.24,-635.4 1041.2,-635.4"/>
<text text-anchor="start" x="1048.2" y="-647.6" font-family="Arial" font-size="14.00">updated_on </text>
<text text-anchor="start" x="1126.05" y="-647.6" font-family="Arial" font-size="14.00" fill="#666666">[timestamp without time zone]</text>
<polygon fill="none" stroke="black" points="1041.2,-604.6 1041.2,-635.4 1318.24,-635.4 1318.24,-604.6 1041.2,-604.6"/>
<text text-anchor="start" x="1048.2" y="-616.8" font-family="Arial" font-size="14.00">upvotes </text>
<text text-anchor="start" x="1101.12" y="-616.8" font-family="Arial" font-size="14.00" fill="#666666">[integer]</text>
<polygon fill="none" stroke="black" points="1041.2,-573.8 1041.2,-604.6 1318.24,-604.6 1318.24,-573.8 1041.2,-573.8"/>
<text text-anchor="start" x="1048.2" y="-586" font-family="Arial" font-size="14.00">downvotes </text>
<text text-anchor="start" x="1119.02" y="-586" font-family="Arial" font-size="14.00" fill="#666666">[integer]</text>
<polygon fill="none" stroke="black" points="1041.2,-543 1041.2,-573.8 1318.24,-573.8 1318.24,-543 1041.2,-543"/>
<text text-anchor="start" x="1048.2" y="-555.2" font-family="Arial" font-size="14.00">comments </text>
<text text-anchor="start" x="1116.66" y="-555.2" font-family="Arial" font-size="14.00" fill="#666666">[integer]</text>
<polygon fill="none" stroke="black" stroke-width="3" points="1039.7,-541.5 1039.7,-949.7 1319.74,-949.7 1319.74,-541.5 1039.7,-541.5"/>
</g>
<!-- public.user -->
<g id="node8" class="node">
<title>public.user</title>
<polygon fill="#efefef" stroke="none" points="851.2,-366.6 851.2,-402.2 1128.24,-402.2 1128.24,-366.6 851.2,-366.6"/>
<polygon fill="none" stroke="black" points="851.2,-366.6 851.2,-402.2 1128.24,-402.2 1128.24,-366.6 851.2,-366.6"/>
<text text-anchor="start" x="887.74" y="-380" font-family="Arial Bold" font-size="18.00">public.user</text>
<text text-anchor="start" x="967.22" y="-380" font-family="Arial" font-size="14.00">    </text>
<text text-anchor="start" x="998.33" y="-380" font-family="Arial" font-size="14.00" fill="#666666">[BASE TABLE]</text>
<polygon fill="none" stroke="black" points="851.2,-335.8 851.2,-366.6 1128.24,-366.6 1128.24,-335.8 851.2,-335.8"/>
<text text-anchor="start" x="858.2" y="-348" font-family="Arial" font-size="14.00">id </text>
<text text-anchor="start" x="872.99" y="-348" font-family="Arial" font-size="14.00" fill="#666666">[uuid]</text>
<polygon fill="none" stroke="black" points="851.2,-305 851.2,-335.8 1128.24,-335.8 1128.24,-305 851.2,-305"/>
<text text-anchor="start" x="858.2" y="-317.2" font-family="Arial" font-size="14.00">username </text>
<text text-anchor="start" x="924.34" y="-317.2" font-family="Arial" font-size="14.00" fill="#666666">[varchar(25)]</text>
<polygon fill="none" stroke="black" points="851.2,-274.2 851.2,-305 1128.24,-305 1128.24,-274.2 851.2,-274.2"/>
<text text-anchor="start" x="858.2" y="-286.4" font-family="Arial" font-size="14.00">profile_image </text>
<text text-anchor="start" x="946.14" y="-286.4" font-family="Arial" font-size="14.00" fill="#666666">[text]</text>
<polygon fill="none" stroke="black" points="851.2,-243.4 851.2,-274.2 1128.24,-274.2 1128.24,-243.4 851.2,-243.4"/>
<text text-anchor="start" x="858.2" y="-255.6" font-family="Arial" font-size="14.00">role </text>
<text text-anchor="start" x="885.43" y="-255.6" font-family="Arial" font-size="14.00" fill="#666666">[site_role]</text>
<polygon fill="none" stroke="black" points="851.2,-212.6 851.2,-243.4 1128.24,-243.4 1128.24,-212.6 851.2,-212.6"/>
<text text-anchor="start" x="858.2" y="-224.8" font-family="Arial" font-size="14.00">created_on </text>
<text text-anchor="start" x="932.14" y="-224.8" font-family="Arial" font-size="14.00" fill="#666666">[timestamp without time zone]</text>
<polygon fill="none" stroke="black" points="851.2,-181.8 851.2,-212.6 1128.24,-212.6 1128.24,-181.8 851.2,-181.8"/>
<text text-anchor="start" x="858.2" y="-194" font-family="Arial" font-size="14.00">updated_on </text>
<text text-anchor="start" x="936.05" y="-194" font-family="Arial" font-size="14.00" fill="#666666">[timestamp without time zone]</text>
<polygon fill="none" stroke="black" points="851.2,-151 851.2,-181.8 1128.24,-181.8 1128.24,-151 851.2,-151"/>
<text text-anchor="start" x="858.2" y="-163.2" font-family="Arial" font-size="14.00">discord_id </text>
<text text-anchor="start" x="925.9" y="-163.2" font-family="Arial" font-size="14.00" fill="#666666">[bigint]</text>
<polygon fill="none" stroke="black" points="851.2,-120.2 851.2,-151 1128.24,-151 1128.24,-120.2 851.2,-120.2"/>
<text text-anchor="start" x="858.2" y="-132.4" font-family="Arial" font-size="14.00">github_id </text>
<text text-anchor="start" x="918.92" y="-132.4" font-family="Arial" font-size="14.00" fill="#666666">[integer]</text>
<polygon fill="none" stroke="black" points="851.2,-89.4 851.2,-120.2 1128.24,-120.2 1128.24,-89.4 851.2,-89.4"/>
<text text-anchor="start" x="858.2" y="-101.6" font-family="Arial" font-size="14.00">followers </text>
<text text-anchor="start" x="917.33" y="-101.6" font-family="Arial" font-size="14.00" fill="#666666">[integer]</text>
<polygon fill="none" stroke="black" points="851.2,-58.6 851.2,-89.4 1128.24,-89.4 1128.24,-58.6 851.2,-58.6"/>
<text text-anchor="start" x="858.2" y="-70.8" font-family="Arial" font-size="14.00">following </text>
<text text-anchor="start" x="916.57" y="-70.8" font-family="Arial" font-size="14.00" fill="#666666">[integer]</text>
</g>
<!-- public.post&#45;&gt;public.user -->
<g id="edge7" class="edge">
<title>public.post:created_by&#45;&gt;public.user:id</title>
<path fill="none" stroke="black" d="M1029.85,-773.57C920.69,-764.08 981.73,-600.55 1041.2,-496.8 1063.54,-457.82 1105.76,-484.3 1128.24,-445.4 1149.19,-409.15 1171.11,-351.2 1129.24,-351.2"/>
<polygon fill="black" stroke="black" points="1029.87,-773.57 1039.68,-778.48 1035.2,-773.79 1039.53,-773.97 1039.53,-773.97 1039.53,-773.97 1035.2,-773.79 1040.05,-769.49 1029.87,-773.57"/>
<text text-anchor="start" x="791.04" y="-784" font-family="Arial" font-size="10.00">FOREIGN KEY (created_by) REFERENCES &quot;user&quot;(id)</text>
</g>
<!-- public.channel -->
<g id="node9" class="node">
<title>public.channel</title>
<polygon fill="#efefef" stroke="none" points="1232.2,-382 1232.2,-417.6 1509.24,-417.6 1509.24,-382 1232.2,-382"/>
<polygon fill="none" stroke="black" points="1232.2,-382 1232.2,-417.6 1509.24,-417.6 1509.24,-382 1232.2,-382"/>
<text text-anchor="start" x="1255.75" y="-395.4" font-family="Arial Bold" font-size="18.00">public.channel</text>
<text text-anchor="start" x="1361.21" y="-395.4" font-family="Arial" font-size="14.00">    </text>
<text text-anchor="start" x="1392.32" y="-395.4" font-family="Arial" font-size="14.00" fill="#666666">[BASE TABLE]</text>
<polygon fill="none" stroke="black" points="1232.2,-351.2 1232.2,-382 1509.24,-382 1509.24,-351.2 1232.2,-351.2"/>
<text text-anchor="start" x="1239.2" y="-363.4" font-family="Arial" font-size="14.00">id </text>
<text text-anchor="start" x="1253.99" y="-363.4" font-family="Arial" font-size="14.00" fill="#666666">[uuid]</text>
<polygon fill="none" stroke="black" points="1232.2,-320.4 1232.2,-351.2 1509.24,-351.2 1509.24,-320.4 1232.2,-320.4"/>
<text text-anchor="start" x="1239.2" y="-332.6" font-family="Arial" font-size="14.00">name </text>
<text text-anchor="start" x="1278.11" y="-332.6" font-family="Arial" font-size="14.00" fill="#666666">[text]</text>
<polygon fill="none" stroke="black" points="1232.2,-289.6 1232.2,-320.4 1509.24,-320.4 1509.24,-289.6 1232.2,-289.6"/>
<text text-anchor="start" x="1239.2" y="-301.8" font-family="Arial" font-size="14.00">description </text>
<text text-anchor="start" x="1310.79" y="-301.8" font-family="Arial" font-size="14.00" fill="#666666">[text]</text>
<polygon fill="none" stroke="black" points="1232.2,-258.8 1232.2,-289.6 1509.24,-289.6 1509.24,-258.8 1232.2,-258.8"/>
<text text-anchor="start" x="1239.2" y="-271" font-family="Arial" font-size="14.00">guidelines </text>
<text text-anchor="start" x="1306.14" y="-271" font-family="Arial" font-size="14.00" fill="#666666">[text]</text>
<polygon fill="none" stroke="black" points="1232.2,-228 1232.2,-258.8 1509.24,-258.8 1509.24,-228 1232.2,-228"/>
<text text-anchor="start" x="1239.2" y="-240.2" font-family="Arial" font-size="14.00">created_by </text>
<text text-anchor="start" x="1312.36" y="-240.2" font-family="Arial" font-size="14.00" fill="#666666">[uuid]</text>
<polygon fill="none" stroke="black" points="1232.2,-197.2 1232.2,-228 1509.24,-228 1509.24,-197.2 1232.2,-197.2"/>
<text text-anchor="start" x="1239.2" y="-209.4" font-family="Arial" font-size="14.00">banner_image </text>
<text text-anchor="start" x="1332.6" y="-209.4" font-family="Arial" font-size="14.00" fill="#666666">[text]</text>
<polygon fill="none" stroke="black" points="1232.2,-166.4 1232.2,-197.2 1509.24,-197.2 1509.24,-166.4 1232.2,-166.4"/>
<text text-anchor="start" x="1239.2" y="-178.6" font-family="Arial" font-size="14.00">icon </text>
<text text-anchor="start" x="1268.77" y="-178.6" font-family="Arial" font-size="14.00" fill="#666666">[text]</text>
<polygon fill="none" stroke="black" points="1232.2,-135.6 1232.2,-166.4 1509.24,-166.4 1509.24,-135.6 1232.2,-135.6"/>
<text text-anchor="start" x="1239.2" y="-147.8" font-family="Arial" font-size="14.00">created_on </text>
<text text-anchor="start" x="1313.14" y="-147.8" font-family="Arial" font-size="14.00" fill="#666666">[timestamp without time zone]</text>
<polygon fill="none" stroke="black" points="1232.2,-104.8 1232.2,-135.6 1509.24,-135.6 1509.24,-104.8 1232.2,-104.8"/>
<text text-anchor="start" x="1239.2" y="-117" font-family="Arial" font-size="14.00">updated_on </text>
<text text-anchor="start" x="1317.05" y="-117" font-family="Arial" font-size="14.00" fill="#666666">[timestamp without time zone]</text>
<polygon fill="none" stroke="black" points="1232.2,-74 1232.2,-104.8 1509.24,-104.8 1509.24,-74 1232.2,-74"/>
<text text-anchor="start" x="1239.2" y="-86.2" font-family="Arial" font-size="14.00">subscribers </text>
<text text-anchor="start" x="1314.67" y="-86.2" font-family="Arial" font-size="14.00" fill="#666666">[integer]</text>
<polygon fill="none" stroke="black" points="1232.2,-43.2 1232.2,-74 1509.24,-74 1509.24,-43.2 1232.2,-43.2"/>
<text text-anchor="start" x="1239.2" y="-55.4" font-family="Arial" font-size="14.00">posts </text>
<text text-anchor="start" x="1276.55" y="-55.4" font-family="Arial" font-size="14.00" fill="#666666">[integer]</text>
</g>
<!-- public.post&#45;&gt;public.channel -->
<g id="edge8" class="edge">
<title>public.post:channel_id&#45;&gt;public.channel:id</title>
<path fill="none" stroke="black" d="M1329.63,-742.69C1425.44,-732.95 1377.08,-584.82 1318.24,-496.8 1295.2,-462.34 1255.35,-495.19 1232.2,-460.8 1208.82,-426.07 1189.33,-366.6 1231.2,-366.6"/>
<polygon fill="black" stroke="black" points="1329.56,-742.7 1319.36,-738.69 1324.23,-742.96 1319.91,-743.17 1319.91,-743.17 1319.91,-743.17 1324.23,-742.96 1319.79,-747.68 1329.56,-742.7"/>
<text text-anchor="start" x="1326.24" y="-753.2" font-family="Arial" font-size="10.00">FOREIGN KEY (channel_id) REFERENCES channel(id)</text>
</g>
<!-- public.comment -->
<g id="node2" class="node">
<title>public.comment</title>
<polygon fill="#efefef" stroke="none" points="43.2,-1350.8 43.2,-1386.4 320.24,-1386.4 320.24,-1350.8 43.2,-1350.8"/>
<polygon fill="none" stroke="black" points="43.2,-1350.8 43.2,-1386.4 320.24,-1386.4 320.24,-1350.8 43.2,-1350.8"/>
<text text-anchor="start" x="61.24" y="-1364.2" font-family="Arial Bold" font-size="18.00">public.comment</text>
<text text-anchor="start" x="177.71" y="-1364.2" font-family="Arial" font-size="14.00">    </text>
<text text-anchor="start" x="208.83" y="-1364.2" font-family="Arial" font-size="14.00" fill="#666666">[BASE TABLE]</text>
<polygon fill="none" stroke="black" points="43.2,-1320 43.2,-1350.8 320.24,-1350.8 320.24,-1320 43.2,-1320"/>
<text text-anchor="start" x="50.2" y="-1332.2" font-family="Arial" font-size="14.00">id </text>
<text text-anchor="start" x="64.99" y="-1332.2" font-family="Arial" font-size="14.00" fill="#666666">[uuid]</text>
<polygon fill="none" stroke="black" points="43.2,-1289.2 43.2,-1320 320.24,-1320 320.24,-1289.2 43.2,-1289.2"/>
<text text-anchor="start" x="50.2" y="-1301.4" font-family="Arial" font-size="14.00">content </text>
<text text-anchor="start" x="100.01" y="-1301.4" font-family="Arial" font-size="14.00" fill="#666666">[text]</text>
<polygon fill="none" stroke="black" points="43.2,-1258.4 43.2,-1289.2 320.24,-1289.2 320.24,-1258.4 43.2,-1258.4"/>
<text text-anchor="start" x="50.2" y="-1270.6" font-family="Arial" font-size="14.00">creator_id </text>
<text text-anchor="start" x="116.34" y="-1270.6" font-family="Arial" font-size="14.00" fill="#666666">[uuid]</text>
<polygon fill="none" stroke="black" points="43.2,-1227.6 43.2,-1258.4 320.24,-1258.4 320.24,-1227.6 43.2,-1227.6"/>
<text text-anchor="start" x="50.2" y="-1239.8" font-family="Arial" font-size="14.00">post_id </text>
<text text-anchor="start" x="99.23" y="-1239.8" font-family="Arial" font-size="14.00" fill="#666666">[uuid]</text>
<polygon fill="none" stroke="black" points="43.2,-1196.8 43.2,-1227.6 320.24,-1227.6 320.24,-1196.8 43.2,-1196.8"/>
<text text-anchor="start" x="50.2" y="-1209" font-family="Arial" font-size="14.00">reply_to </text>
<text text-anchor="start" x="103.9" y="-1209" font-family="Arial" font-size="14.00" fill="#666666">[uuid]</text>
<polygon fill="none" stroke="black" points="43.2,-1166 43.2,-1196.8 320.24,-1196.8 320.24,-1166 43.2,-1166"/>
<text text-anchor="start" x="50.2" y="-1178.2" font-family="Arial" font-size="14.00">created_on </text>
<text text-anchor="start" x="124.14" y="-1178.2" font-family="Arial" font-size="14.00" fill="#666666">[timestamp without time zone]</text>
<polygon fill="none" stroke="black" points="43.2,-1135.2 43.2,-1166 320.24,-1166 320.24,-1135.2 43.2,-1135.2"/>
<text text-anchor="start" x="50.2" y="-1147.4" font-family="Arial" font-size="14.00">updated_on </text>
<text text-anchor="start" x="128.05" y="-1147.4" font-family="Arial" font-size="14.00" fill="#666666">[timestamp without time zone]</text>
<polygon fill="none" stroke="black" points="43.2,-1104.4 43.2,-1135.2 320.24,-1135.2 320.24,-1104.4 43.2,-1104.4"/>
<text text-anchor="start" x="50.2" y="-1116.6" font-family="Arial" font-size="14.00">upvotes </text>
<text text-anchor="start" x="103.12" y="-1116.6" font-family="Arial" font-size="14.00" fill="#666666">[integer]</text>
<polygon fill="none" stroke="black" points="43.2,-1073.6 43.2,-1104.4 320.24,-1104.4 320.24,-1073.6 43.2,-1073.6"/>
<text text-anchor="start" x="50.2" y="-1085.8" font-family="Arial" font-size="14.00">downvotes </text>
<text text-anchor="start" x="121.02" y="-1085.8" font-family="Arial" font-size="14.00" fill="#666666">[integer]</text>
</g>
<!-- public.comment&#45;&gt;public.post -->
<g id="edge1" class="edge">
<title>public.comment:post_id&#45;&gt;public.post:id</title>
<path fill="none" stroke="black" d="M331.2,-1242.41C410.12,-1232.33 305.2,-1095.24 372.72,-1030.4 481.82,-925.64 888.95,-897.2 1040.2,-897.2"/>
<polygon fill="black" stroke="black" points="331.56,-1242.39 321.31,-1238.49 326.23,-1242.71 321.91,-1242.96 321.91,-1242.96 321.91,-1242.96 326.23,-1242.71 321.84,-1247.47 331.56,-1242.39"/>
<text text-anchor="start" x="212.6" y="-1227" font-family="Arial" font-size="10.00">FOREIGN KEY (post_id) REFERENCES post(id)</text>
</g>
<!-- public.playlist_post -->
<g id="node3" class="node">
<title>public.playlist_post</title>
<polygon fill="#efefef" stroke="none" points="424.73,-1273.8 424.73,-1309.4 704.71,-1309.4 704.71,-1273.8 424.73,-1273.8"/>
<polygon fill="none" stroke="black" points="424.73,-1273.8 424.73,-1309.4 704.71,-1309.4 704.71,-1273.8 424.73,-1273.8"/>
<text text-anchor="start" x="431.73" y="-1287.2" font-family="Arial Bold" font-size="18.00">public.playlist_post</text>
<text text-anchor="start" x="573.22" y="-1287.2" font-family="Arial" font-size="14.00">    </text>
<text text-anchor="start" x="604.34" y="-1287.2" font-family="Arial" font-size="14.00" fill="#666666">[BASE TABLE]</text>
<polygon fill="none" stroke="black" points="424.73,-1243 424.73,-1273.8 704.71,-1273.8 704.71,-1243 424.73,-1243"/>
<text text-anchor="start" x="431.73" y="-1255.2" font-family="Arial" font-size="14.00">id </text>
<text text-anchor="start" x="446.51" y="-1255.2" font-family="Arial" font-size="14.00" fill="#666666">[uuid]</text>
<polygon fill="none" stroke="black" points="424.73,-1212.2 424.73,-1243 704.71,-1243 704.71,-1212.2 424.73,-1212.2"/>
<text text-anchor="start" x="431.73" y="-1224.4" font-family="Arial" font-size="14.00">playlist_id </text>
<text text-anchor="start" x="497.09" y="-1224.4" font-family="Arial" font-size="14.00" fill="#666666">[uuid]</text>
<polygon fill="none" stroke="black" points="424.73,-1181.4 424.73,-1212.2 704.71,-1212.2 704.71,-1181.4 424.73,-1181.4"/>
<text text-anchor="start" x="431.73" y="-1193.6" font-family="Arial" font-size="14.00">post_id </text>
<text text-anchor="start" x="480.76" y="-1193.6" font-family="Arial" font-size="14.00" fill="#666666">[uuid]</text>
<polygon fill="none" stroke="black" points="424.73,-1150.6 424.73,-1181.4 704.71,-1181.4 704.71,-1150.6 424.73,-1150.6"/>
<text text-anchor="start" x="431.73" y="-1162.8" font-family="Arial" font-size="14.00">sort_index </text>
<text text-anchor="start" x="500.21" y="-1162.8" font-family="Arial" font-size="14.00" fill="#666666">[smallint]</text>
</g>
<!-- public.playlist_post&#45;&gt;public.post -->
<g id="edge2" class="edge">
<title>public.playlist_post:post_id&#45;&gt;public.post:id</title>
<path fill="none" stroke="black" d="M715.97,-1196.05C775.85,-1186.37 708.51,-1085.98 756.72,-1030.4 847.93,-925.24 900.99,-897.2 1040.2,-897.2"/>
<polygon fill="black" stroke="black" points="716.02,-1196.04 705.72,-1192.29 710.7,-1196.43 706.38,-1196.75 706.38,-1196.75 706.38,-1196.75 710.7,-1196.43 706.38,-1201.26 716.02,-1196.04"/>
<text text-anchor="start" x="597.07" y="-1180.8" font-family="Arial" font-size="10.00">FOREIGN KEY (post_id) REFERENCES post(id)</text>
</g>
<!-- public.channel_post_report -->
<g id="node4" class="node">
<title>public.channel_post_report</title>
<polygon fill="#efefef" stroke="none" points="809.25,-1289.2 809.25,-1324.8 1144.19,-1324.8 1144.19,-1289.2 809.25,-1289.2"/>
<polygon fill="none" stroke="black" points="809.25,-1289.2 809.25,-1324.8 1144.19,-1324.8 1144.19,-1289.2 809.25,-1289.2"/>
<text text-anchor="start" x="816.25" y="-1302.6" font-family="Arial Bold" font-size="18.00">public.channel_post_report</text>
<text text-anchor="start" x="1012.7" y="-1302.6" font-family="Arial" font-size="14.00">    </text>
<text text-anchor="start" x="1043.81" y="-1302.6" font-family="Arial" font-size="14.00" fill="#666666">[BASE TABLE]</text>
<polygon fill="none" stroke="black" points="809.25,-1258.4 809.25,-1289.2 1144.19,-1289.2 1144.19,-1258.4 809.25,-1258.4"/>
<text text-anchor="start" x="816.25" y="-1270.6" font-family="Arial" font-size="14.00">id </text>
<text text-anchor="start" x="831.04" y="-1270.6" font-family="Arial" font-size="14.00" fill="#666666">[uuid]</text>
<polygon fill="none" stroke="black" points="809.25,-1227.6 809.25,-1258.4 1144.19,-1258.4 1144.19,-1227.6 809.25,-1227.6"/>
<text text-anchor="start" x="816.25" y="-1239.8" font-family="Arial" font-size="14.00">post_id </text>
<text text-anchor="start" x="865.29" y="-1239.8" font-family="Arial" font-size="14.00" fill="#666666">[uuid]</text>
<polygon fill="none" stroke="black" points="809.25,-1196.8 809.25,-1227.6 1144.19,-1227.6 1144.19,-1196.8 809.25,-1196.8"/>
<text text-anchor="start" x="816.25" y="-1209" font-family="Arial" font-size="14.00">description </text>
<text text-anchor="start" x="887.85" y="-1209" font-family="Arial" font-size="14.00" fill="#666666">[text]</text>
<polygon fill="none" stroke="black" points="809.25,-1166 809.25,-1196.8 1144.19,-1196.8 1144.19,-1166 809.25,-1166"/>
<text text-anchor="start" x="816.25" y="-1178.2" font-family="Arial" font-size="14.00">resolution </text>
<text text-anchor="start" x="880.85" y="-1178.2" font-family="Arial" font-size="14.00" fill="#666666">[text]</text>
<polygon fill="none" stroke="black" points="809.25,-1135.2 809.25,-1166 1144.19,-1166 1144.19,-1135.2 809.25,-1135.2"/>
<text text-anchor="start" x="816.25" y="-1147.4" font-family="Arial" font-size="14.00">status </text>
<text text-anchor="start" x="857.49" y="-1147.4" font-family="Arial" font-size="14.00" fill="#666666">[report_status]</text>
</g>
<!-- public.channel_post_report&#45;&gt;public.post -->
<g id="edge3" class="edge">
<title>public.channel_post_report:post_id&#45;&gt;public.post:id</title>
<path fill="none" stroke="black" d="M1155.57,-1242.16C1207.66,-1232.96 1169.39,-1150.08 1144.19,-1092 1119.08,-1034.15 1066.41,-1052.2 1041.2,-994.4 1023.93,-954.8 997,-897.2 1040.2,-897.2"/>
<polygon fill="black" stroke="black" points="1155.49,-1242.17 1145.16,-1238.49 1150.17,-1242.6 1145.85,-1242.95 1145.85,-1242.95 1145.85,-1242.95 1150.17,-1242.6 1145.88,-1247.46 1155.49,-1242.17"/>
<text text-anchor="start" x="1152.19" y="-1253" font-family="Arial" font-size="10.00">FOREIGN KEY (post_id) REFERENCES post(id)</text>
</g>
<!-- public.post_report -->
<g id="node5" class="node">
<title>public.post_report</title>
<polygon fill="#efefef" stroke="none" points="1248.74,-1289.2 1248.74,-1324.8 1518.7,-1324.8 1518.7,-1289.2 1248.74,-1289.2"/>
<polygon fill="none" stroke="black" points="1248.74,-1289.2 1248.74,-1324.8 1518.7,-1324.8 1518.7,-1289.2 1248.74,-1289.2"/>
<text text-anchor="start" x="1255.74" y="-1302.6" font-family="Arial Bold" font-size="18.00">public.post_report</text>
<text text-anchor="start" x="1387.21" y="-1302.6" font-family="Arial" font-size="14.00">    </text>
<text text-anchor="start" x="1418.33" y="-1302.6" font-family="Arial" font-size="14.00" fill="#666666">[BASE TABLE]</text>
<polygon fill="none" stroke="black" points="1248.74,-1258.4 1248.74,-1289.2 1518.7,-1289.2 1518.7,-1258.4 1248.74,-1258.4"/>
<text text-anchor="start" x="1255.74" y="-1270.6" font-family="Arial" font-size="14.00">id </text>
<text text-anchor="start" x="1270.52" y="-1270.6" font-family="Arial" font-size="14.00" fill="#666666">[uuid]</text>
<polygon fill="none" stroke="black" points="1248.74,-1227.6 1248.74,-1258.4 1518.7,-1258.4 1518.7,-1227.6 1248.74,-1227.6"/>
<text text-anchor="start" x="1255.74" y="-1239.8" font-family="Arial" font-size="14.00">post_id </text>
<text text-anchor="start" x="1304.77" y="-1239.8" font-family="Arial" font-size="14.00" fill="#666666">[uuid]</text>
<polygon fill="none" stroke="black" points="1248.74,-1196.8 1248.74,-1227.6 1518.7,-1227.6 1518.7,-1196.8 1248.74,-1196.8"/>
<text text-anchor="start" x="1255.74" y="-1209" font-family="Arial" font-size="14.00">description </text>
<text text-anchor="start" x="1327.33" y="-1209" font-family="Arial" font-size="14.00" fill="#666666">[text]</text>
<polygon fill="none" stroke="black" points="1248.74,-1166 1248.74,-1196.8 1518.7,-1196.8 1518.7,-1166 1248.74,-1166"/>
<text text-anchor="start" x="1255.74" y="-1178.2" font-family="Arial" font-size="14.00">resolution </text>
<text text-anchor="start" x="1320.33" y="-1178.2" font-family="Arial" font-size="14.00" fill="#666666">[text]</text>
<polygon fill="none" stroke="black" points="1248.74,-1135.2 1248.74,-1166 1518.7,-1166 1518.7,-1135.2 1248.74,-1135.2"/>
<text text-anchor="start" x="1255.74" y="-1147.4" font-family="Arial" font-size="14.00">status </text>
<text text-anchor="start" x="1296.98" y="-1147.4" font-family="Arial" font-size="14.00" fill="#666666">[report_status]</text>
</g>
<!-- public.post_report&#45;&gt;public.post -->
<g id="edge4" class="edge">
<title>public.post_report:post_id&#45;&gt;public.post:id</title>
<path fill="none" stroke="black" d="M1237.41,-1242.18C1185.92,-1233.2 1229.26,-1152.24 1248.74,-1092 1265.12,-1041.33 1301.76,-1045.04 1318.24,-994.4 1331.61,-953.32 1362.44,-897.2 1319.24,-897.2"/>
<polygon fill="black" stroke="black" points="1237.44,-1242.18 1247.05,-1247.46 1242.75,-1242.6 1247.07,-1242.95 1247.07,-1242.95 1247.07,-1242.95 1242.75,-1242.6 1247.76,-1238.49 1237.44,-1242.18"/>
<text text-anchor="start" x="1196.92" y="-1227" font-family="Arial" font-size="10.00">FOREIGN KEY (post_id) REFERENCES post(id)</text>
</g>
<!-- public.post_tag -->
<g id="node6" class="node">
<title>public.post_tag</title>
<polygon fill="#efefef" stroke="none" points="1623.23,-1258.4 1623.23,-1294 1872.21,-1294 1872.21,-1258.4 1623.23,-1258.4"/>
<polygon fill="none" stroke="black" points="1623.23,-1258.4 1623.23,-1294 1872.21,-1294 1872.21,-1258.4 1623.23,-1258.4"/>
<text text-anchor="start" x="1630.23" y="-1271.8" font-family="Arial Bold" font-size="18.00">public.post_tag</text>
<text text-anchor="start" x="1740.72" y="-1271.8" font-family="Arial" font-size="14.00">    </text>
<text text-anchor="start" x="1771.84" y="-1271.8" font-family="Arial" font-size="14.00" fill="#666666">[BASE TABLE]</text>
<polygon fill="none" stroke="black" points="1623.23,-1227.6 1623.23,-1258.4 1872.21,-1258.4 1872.21,-1227.6 1623.23,-1227.6"/>
<text text-anchor="start" x="1630.23" y="-1239.8" font-family="Arial" font-size="14.00">id </text>
<text text-anchor="start" x="1645.02" y="-1239.8" font-family="Arial" font-size="14.00" fill="#666666">[uuid]</text>
<polygon fill="none" stroke="black" points="1623.23,-1196.8 1623.23,-1227.6 1872.21,-1227.6 1872.21,-1196.8 1623.23,-1196.8"/>
<text text-anchor="start" x="1630.23" y="-1209" font-family="Arial" font-size="14.00">post_id </text>
<text text-anchor="start" x="1679.27" y="-1209" font-family="Arial" font-size="14.00" fill="#666666">[uuid]</text>
<polygon fill="none" stroke="black" points="1623.23,-1166 1623.23,-1196.8 1872.21,-1196.8 1872.21,-1166 1623.23,-1166"/>
<text text-anchor="start" x="1630.23" y="-1178.2" font-family="Arial" font-size="14.00">tag_id </text>
<text text-anchor="start" x="1672.27" y="-1178.2" font-family="Arial" font-size="14.00" fill="#666666">[uuid]</text>
</g>
<!-- public.post_tag&#45;&gt;public.post -->
<g id="edge5" class="edge">
<title>public.post_tag:post_id&#45;&gt;public.post:id</title>
<path fill="none" stroke="black" d="M1611.91,-1211.51C1545.63,-1201.84 1621.15,-1092.77 1570.72,-1030.4 1491.2,-932.05 1445.72,-897.2 1319.24,-897.2"/>
<polygon fill="black" stroke="black" points="1611.92,-1211.51 1621.6,-1216.67 1617.24,-1211.87 1621.56,-1212.16 1621.56,-1212.16 1621.56,-1212.16 1617.24,-1211.87 1622.2,-1207.69 1611.92,-1211.51"/>
<text text-anchor="start" x="1455.78" y="-1196.2" font-family="Arial" font-size="10.00">FOREIGN KEY (post_id) REFERENCES post(id)</text>
</g>
<!-- public.post_vote -->
<g id="node7" class="node">
<title>public.post_vote</title>
<polygon fill="#efefef" stroke="none" points="1976.73,-1258.4 1976.73,-1294 2234.71,-1294 2234.71,-1258.4 1976.73,-1258.4"/>
<polygon fill="none" stroke="black" points="1976.73,-1258.4 1976.73,-1294 2234.71,-1294 2234.71,-1258.4 1976.73,-1258.4"/>
<text text-anchor="start" x="1983.73" y="-1271.8" font-family="Arial Bold" font-size="18.00">public.post_vote</text>
<text text-anchor="start" x="2103.22" y="-1271.8" font-family="Arial" font-size="14.00">    </text>
<text text-anchor="start" x="2134.34" y="-1271.8" font-family="Arial" font-size="14.00" fill="#666666">[BASE TABLE]</text>
<polygon fill="none" stroke="black" points="1976.73,-1227.6 1976.73,-1258.4 2234.71,-1258.4 2234.71,-1227.6 1976.73,-1227.6"/>
<text text-anchor="start" x="1983.73" y="-1239.8" font-family="Arial" font-size="14.00">post_id </text>
<text text-anchor="start" x="2032.77" y="-1239.8" font-family="Arial" font-size="14.00" fill="#666666">[uuid]</text>
<polygon fill="none" stroke="black" points="1976.73,-1196.8 1976.73,-1227.6 2234.71,-1227.6 2234.71,-1196.8 1976.73,-1196.8"/>
<text text-anchor="start" x="1983.73" y="-1209" font-family="Arial" font-size="14.00">user_id </text>
<text text-anchor="start" x="2033.54" y="-1209" font-family="Arial" font-size="14.00" fill="#666666">[uuid]</text>
<polygon fill="none" stroke="black" points="1976.73,-1166 1976.73,-1196.8 2234.71,-1196.8 2234.71,-1166 1976.73,-1166"/>
<text text-anchor="start" x="1983.73" y="-1178.2" font-family="Arial" font-size="14.00">vote </text>
<text text-anchor="start" x="2014.08" y="-1178.2" font-family="Arial" font-size="14.00" fill="#666666">[vote]</text>
</g>
<!-- public.post_vote&#45;&gt;public.post -->
<g id="edge6" class="edge">
<title>public.post_vote:post_id&#45;&gt;public.post:id</title>
<path fill="none" stroke="black" d="M1965.77,-1242.41C1886.88,-1232.38 1991.5,-1095.93 1924.72,-1030.4 1826.38,-933.91 1457.01,-897.2 1319.24,-897.2"/>
<polygon fill="black" stroke="black" points="1965.42,-1242.39 1975.13,-1247.47 1970.74,-1242.71 1975.06,-1242.96 1975.06,-1242.96 1975.06,-1242.96 1970.74,-1242.71 1975.66,-1238.49 1965.42,-1242.39"/>
<text text-anchor="start" x="1809.28" y="-1227" font-family="Arial" font-size="10.00">FOREIGN KEY (post_id) REFERENCES post(id)</text>
</g>
</g>
</svg>
