<?xml version="1.0" encoding="UTF-8" standalone="no"?>
<!DOCTYPE svg PUBLIC "-//W3C//DTD SVG 1.1//EN"
 "http://www.w3.org/Graphics/SVG/1.1/DTD/svg11.dtd">
<!-- Generated by graphviz version 2.40.1 (20161225.0304)
 -->
<!-- Title: public.post Pages: 1 -->
<svg width="2389pt" height="1139pt"
 viewBox="0.00 0.00 2389.00 1139.00" xmlns="http://www.w3.org/2000/svg" xmlns:xlink="http://www.w3.org/1999/xlink">
<g id="graph0" class="graph" transform="scale(1 1) rotate(0) translate(4 1135)">
<title>public.post</title>
<polygon fill="#ffffff" stroke="transparent" points="-4,4 -4,-1135 2385,-1135 2385,4 -4,4"/>
<!-- public.post -->
<g id="node1" class="node">
<title>public.post</title>
<polygon fill="#efefef" stroke="transparent" points="1104.5,-682.5 1104.5,-717.5 1380.5,-717.5 1380.5,-682.5 1104.5,-682.5"/>
<polygon fill="none" stroke="#000000" points="1104.5,-682.5 1104.5,-717.5 1380.5,-717.5 1380.5,-682.5 1104.5,-682.5"/>
<text text-anchor="start" x="1135.7041" y="-695.3" font-family="Arial Bold" font-size="18.00" fill="#000000">public.post</text>
<text text-anchor="start" x="1221.7279" y="-695.3" font-family="Arial" font-size="14.00" fill="#000000">    </text>
<text text-anchor="start" x="1255.9327" y="-695.3" font-family="Arial" font-size="14.00" fill="#666666">[BASE TABLE]</text>
<polygon fill="none" stroke="#000000" points="1104.5,-652.5 1104.5,-682.5 1380.5,-682.5 1380.5,-652.5 1104.5,-652.5"/>
<text text-anchor="start" x="1111.5" y="-663.9" font-family="Arial" font-size="14.00" fill="#000000">id </text>
<text text-anchor="start" x="1126.2798" y="-663.9" font-family="Arial" font-size="14.00" fill="#666666">[uuid]</text>
<polygon fill="none" stroke="#000000" points="1104.5,-622.5 1104.5,-652.5 1380.5,-652.5 1380.5,-622.5 1104.5,-622.5"/>
<text text-anchor="start" x="1111.5" y="-633.9" font-family="Arial" font-size="14.00" fill="#000000">name </text>
<text text-anchor="start" x="1150.399" y="-633.9" font-family="Arial" font-size="14.00" fill="#666666">[text]</text>
<polygon fill="none" stroke="#000000" points="1104.5,-592.5 1104.5,-622.5 1380.5,-622.5 1380.5,-592.5 1104.5,-592.5"/>
<text text-anchor="start" x="1111.5" y="-603.9" font-family="Arial" font-size="14.00" fill="#000000">description </text>
<text text-anchor="start" x="1183.068" y="-603.9" font-family="Arial" font-size="14.00" fill="#666666">[text]</text>
<polygon fill="none" stroke="#000000" points="1104.5,-562.5 1104.5,-592.5 1380.5,-592.5 1380.5,-562.5 1104.5,-562.5"/>
<text text-anchor="start" x="1111.5" y="-573.9" font-family="Arial" font-size="14.00" fill="#000000">alt_text </text>
<text text-anchor="start" x="1160.5168" y="-573.9" font-family="Arial" font-size="14.00" fill="#666666">[text]</text>
<polygon fill="none" stroke="#000000" points="1104.5,-532.5 1104.5,-562.5 1380.5,-562.5 1380.5,-532.5 1104.5,-532.5"/>
<text text-anchor="start" x="1111.5" y="-543.9" font-family="Arial" font-size="14.00" fill="#000000">created_by </text>
<text text-anchor="start" x="1184.6374" y="-543.9" font-family="Arial" font-size="14.00" fill="#666666">[uuid]</text>
<polygon fill="none" stroke="#000000" points="1104.5,-502.5 1104.5,-532.5 1380.5,-532.5 1380.5,-502.5 1104.5,-502.5"/>
<text text-anchor="start" x="1111.5" y="-513.9" font-family="Arial" font-size="14.00" fill="#000000">channel_id </text>
<text text-anchor="start" x="1183.082" y="-513.9" font-family="Arial" font-size="14.00" fill="#666666">[uuid]</text>
<polygon fill="none" stroke="#000000" points="1104.5,-472.5 1104.5,-502.5 1380.5,-502.5 1380.5,-472.5 1104.5,-472.5"/>
<text text-anchor="start" x="1111.5" y="-483.9" font-family="Arial" font-size="14.00" fill="#000000">video_id </text>
<text text-anchor="start" x="1167.5168" y="-483.9" font-family="Arial" font-size="14.00" fill="#666666">[text]</text>
<polygon fill="none" stroke="#000000" points="1104.5,-442.5 1104.5,-472.5 1380.5,-472.5 1380.5,-442.5 1104.5,-442.5"/>
<text text-anchor="start" x="1111.5" y="-453.9" font-family="Arial" font-size="14.00" fill="#000000">created_on </text>
<text text-anchor="start" x="1185.42" y="-453.9" font-family="Arial" font-size="14.00" fill="#666666">[timestamp without time zone]</text>
<polygon fill="none" stroke="#000000" points="1104.5,-412.5 1104.5,-442.5 1380.5,-442.5 1380.5,-412.5 1104.5,-412.5"/>
<text text-anchor="start" x="1111.0176" y="-423.9" font-family="Arial" font-size="14.00" fill="#000000">updated_on </text>
<text text-anchor="start" x="1188.8422" y="-423.9" font-family="Arial" font-size="14.00" fill="#666666">[timestamp without time zone]</text>
<polygon fill="none" stroke="#000000" stroke-width="3" points="1103,-411.5 1103,-719.5 1382,-719.5 1382,-411.5 1103,-411.5"/>
</g>
<!-- public.user -->
<g id="node8" class="node">
<title>public.user</title>
<polygon fill="#efefef" stroke="transparent" points="883.5,-237.5 883.5,-272.5 1190.5,-272.5 1190.5,-237.5 883.5,-237.5"/>
<polygon fill="none" stroke="#000000" points="883.5,-237.5 883.5,-272.5 1190.5,-272.5 1190.5,-237.5 883.5,-237.5"/>
<text text-anchor="start" x="929.7091" y="-250.3" font-family="Arial Bold" font-size="18.00" fill="#000000">public.user</text>
<text text-anchor="start" x="1016.7229" y="-250.3" font-family="Arial" font-size="14.00" fill="#000000">    </text>
<text text-anchor="start" x="1050.9277" y="-250.3" font-family="Arial" font-size="14.00" fill="#666666">[BASE TABLE]</text>
<polygon fill="none" stroke="#000000" points="883.5,-207.5 883.5,-237.5 1190.5,-237.5 1190.5,-207.5 883.5,-207.5"/>
<text text-anchor="start" x="890.5" y="-218.9" font-family="Arial" font-size="14.00" fill="#000000">id    </text>
<text text-anchor="start" x="935.594" y="-218.9" font-family="Arial" font-size="14.00" fill="#666666">[uuid]</text>
<polygon fill="none" stroke="#000000" points="883.5,-177.5 883.5,-207.5 1190.5,-207.5 1190.5,-177.5 883.5,-177.5"/>
<text text-anchor="start" x="890.5" y="-188.9" font-family="Arial" font-size="14.00" fill="#000000">username    </text>
<text text-anchor="start" x="986.939" y="-188.9" font-family="Arial" font-size="14.00" fill="#666666">[varchar(25)]</text>
<polygon fill="none" stroke="#000000" points="883.5,-147.5 883.5,-177.5 1190.5,-177.5 1190.5,-147.5 883.5,-147.5"/>
<text text-anchor="start" x="890.5" y="-158.9" font-family="Arial" font-size="14.00" fill="#000000">profile_image    </text>
<text text-anchor="start" x="1008.7146" y="-158.9" font-family="Arial" font-size="14.00" fill="#666666">[text]</text>
<polygon fill="none" stroke="#000000" points="883.5,-117.5 883.5,-147.5 1190.5,-147.5 1190.5,-117.5 883.5,-117.5"/>
<text text-anchor="start" x="890.5" y="-128.9" font-family="Arial" font-size="14.00" fill="#000000">role    </text>
<text text-anchor="start" x="948.0372" y="-128.9" font-family="Arial" font-size="14.00" fill="#666666">[site_role]</text>
<polygon fill="none" stroke="#000000" points="883.5,-87.5 883.5,-117.5 1190.5,-117.5 1190.5,-87.5 883.5,-87.5"/>
<text text-anchor="start" x="890.5" y="-98.9" font-family="Arial" font-size="14.00" fill="#000000">created_on    </text>
<text text-anchor="start" x="994.7342" y="-98.9" font-family="Arial" font-size="14.00" fill="#666666">[timestamp without time zone]</text>
<polygon fill="none" stroke="#000000" points="883.5,-57.5 883.5,-87.5 1190.5,-87.5 1190.5,-57.5 883.5,-57.5"/>
<text text-anchor="start" x="890.3605" y="-68.9" font-family="Arial" font-size="14.00" fill="#000000">updated_on    </text>
<text text-anchor="start" x="998.4993" y="-68.9" font-family="Arial" font-size="14.00" fill="#666666">[timestamp without time zone]</text>
</g>
<!-- public.post&#45;&gt;public.user -->
<g id="edge7" class="edge">
<title>public.post:created_by&#45;&gt;public.user:id</title>
<path fill="none" stroke="#000000" d="M1094.4087,-546.843C1027.9164,-537.6289 1066.5787,-433.5761 1104.5,-367 1126.4939,-328.3867 1168.5061,-354.6133 1190.5,-316 1211.0673,-279.8912 1232.0556,-222.5 1190.5,-222.5"/>
<polygon fill="#000000" stroke="#000000" points="1094.5211,-546.8503 1104.2076,-551.9905 1099.5106,-547.1751 1104.5,-547.5 1104.5,-547.5 1104.5,-547.5 1099.5106,-547.1751 1104.7924,-543.0095 1094.5211,-546.8503 1094.5211,-546.8503"/>
<text text-anchor="start" x="855.4465" y="-557.5" font-family="Arial" font-size="10.00" fill="#000000">FOREIGN KEY (created_by) REFERENCES &quot;user&quot;(id)</text>
</g>
<!-- public.channel -->
<g id="node9" class="node">
<title>public.channel</title>
<polygon fill="#efefef" stroke="transparent" points="1294.5,-252.5 1294.5,-287.5 1601.5,-287.5 1601.5,-252.5 1294.5,-252.5"/>
<polygon fill="none" stroke="#000000" points="1294.5,-252.5 1294.5,-287.5 1601.5,-287.5 1601.5,-252.5 1294.5,-252.5"/>
<text text-anchor="start" x="1326.6988" y="-265.3" font-family="Arial Bold" font-size="18.00" fill="#000000">public.channel</text>
<text text-anchor="start" x="1441.7332" y="-265.3" font-family="Arial" font-size="14.00" fill="#000000">    </text>
<text text-anchor="start" x="1475.938" y="-265.3" font-family="Arial" font-size="14.00" fill="#666666">[BASE TABLE]</text>
<polygon fill="none" stroke="#000000" points="1294.5,-222.5 1294.5,-252.5 1601.5,-252.5 1601.5,-222.5 1294.5,-222.5"/>
<text text-anchor="start" x="1301.5" y="-233.9" font-family="Arial" font-size="14.00" fill="#000000">id    </text>
<text text-anchor="start" x="1346.594" y="-233.9" font-family="Arial" font-size="14.00" fill="#666666">[uuid]</text>
<polygon fill="none" stroke="#000000" points="1294.5,-192.5 1294.5,-222.5 1601.5,-222.5 1601.5,-192.5 1294.5,-192.5"/>
<text text-anchor="start" x="1301.5" y="-203.9" font-family="Arial" font-size="14.00" fill="#000000">name    </text>
<text text-anchor="start" x="1370.7132" y="-203.9" font-family="Arial" font-size="14.00" fill="#666666">[text]</text>
<polygon fill="none" stroke="#000000" points="1294.5,-162.5 1294.5,-192.5 1601.5,-192.5 1601.5,-162.5 1294.5,-162.5"/>
<text text-anchor="start" x="1301.5" y="-173.9" font-family="Arial" font-size="14.00" fill="#000000">description    </text>
<text text-anchor="start" x="1403.3822" y="-173.9" font-family="Arial" font-size="14.00" fill="#666666">[text]</text>
<polygon fill="none" stroke="#000000" points="1294.5,-132.5 1294.5,-162.5 1601.5,-162.5 1601.5,-132.5 1294.5,-132.5"/>
<text text-anchor="start" x="1301.5" y="-143.9" font-family="Arial" font-size="14.00" fill="#000000">guidelines    </text>
<text text-anchor="start" x="1398.7202" y="-143.9" font-family="Arial" font-size="14.00" fill="#666666">[text]</text>
<polygon fill="none" stroke="#000000" points="1294.5,-102.5 1294.5,-132.5 1601.5,-132.5 1601.5,-102.5 1294.5,-102.5"/>
<text text-anchor="start" x="1301.5" y="-113.9" font-family="Arial" font-size="14.00" fill="#000000">created_by    </text>
<text text-anchor="start" x="1404.9516" y="-113.9" font-family="Arial" font-size="14.00" fill="#666666">[uuid]</text>
<polygon fill="none" stroke="#000000" points="1294.5,-72.5 1294.5,-102.5 1601.5,-102.5 1601.5,-72.5 1294.5,-72.5"/>
<text text-anchor="start" x="1301.5" y="-83.9" font-family="Arial" font-size="14.00" fill="#000000">created_on    </text>
<text text-anchor="start" x="1405.7342" y="-83.9" font-family="Arial" font-size="14.00" fill="#666666">[timestamp without time zone]</text>
<polygon fill="none" stroke="#000000" points="1294.5,-42.5 1294.5,-72.5 1601.5,-72.5 1601.5,-42.5 1294.5,-42.5"/>
<text text-anchor="start" x="1301.3605" y="-53.9" font-family="Arial" font-size="14.00" fill="#000000">updated_on    </text>
<text text-anchor="start" x="1409.4993" y="-53.9" font-family="Arial" font-size="14.00" fill="#666666">[timestamp without time zone]</text>
</g>
<!-- public.post&#45;&gt;public.channel -->
<g id="edge8" class="edge">
<title>public.post:channel_id&#45;&gt;public.channel:id</title>
<path fill="none" stroke="#000000" d="M1390.6208,-516.6712C1444.1045,-507.2467 1415.5308,-419.6402 1380.5,-367 1357.5439,-332.5043 1317.4561,-365.4957 1294.5,-331 1271.4777,-296.4047 1252.9444,-237.5 1294.5,-237.5"/>
<polygon fill="#000000" stroke="#000000" points="1390.4666,-516.6837 1380.1327,-513.015 1385.4833,-517.0919 1380.5,-517.5 1380.5,-517.5 1380.5,-517.5 1385.4833,-517.0919 1380.8673,-521.985 1390.4666,-516.6837 1390.4666,-516.6837"/>
<text text-anchor="start" x="1387.7675" y="-527.5" font-family="Arial" font-size="10.00" fill="#000000">FOREIGN KEY (channel_id) REFERENCES channel(id)</text>
</g>
<!-- public.comment -->
<g id="node2" class="node">
<title>public.comment</title>
<polygon fill="#efefef" stroke="transparent" points="43.5,-1052.5 43.5,-1087.5 350.5,-1087.5 350.5,-1052.5 43.5,-1052.5"/>
<polygon fill="none" stroke="#000000" points="43.5,-1052.5 43.5,-1087.5 350.5,-1087.5 350.5,-1052.5 43.5,-1052.5"/>
<text text-anchor="start" x="70.2088" y="-1065.3" font-family="Arial Bold" font-size="18.00" fill="#000000">public.comment</text>
<text text-anchor="start" x="196.2232" y="-1065.3" font-family="Arial" font-size="14.00" fill="#000000">    </text>
<text text-anchor="start" x="230.428" y="-1065.3" font-family="Arial" font-size="14.00" fill="#666666">[BASE TABLE]</text>
<polygon fill="none" stroke="#000000" points="43.5,-1022.5 43.5,-1052.5 350.5,-1052.5 350.5,-1022.5 43.5,-1022.5"/>
<text text-anchor="start" x="50.5" y="-1033.9" font-family="Arial" font-size="14.00" fill="#000000">id    </text>
<text text-anchor="start" x="95.594" y="-1033.9" font-family="Arial" font-size="14.00" fill="#666666">[uuid]</text>
<polygon fill="none" stroke="#000000" points="43.5,-992.5 43.5,-1022.5 350.5,-1022.5 350.5,-992.5 43.5,-992.5"/>
<text text-anchor="start" x="50.5" y="-1003.9" font-family="Arial" font-size="14.00" fill="#000000">content    </text>
<text text-anchor="start" x="130.6164" y="-1003.9" font-family="Arial" font-size="14.00" fill="#666666">[text]</text>
<polygon fill="none" stroke="#000000" points="43.5,-962.5 43.5,-992.5 350.5,-992.5 350.5,-962.5 43.5,-962.5"/>
<text text-anchor="start" x="50.5" y="-973.9" font-family="Arial" font-size="14.00" fill="#000000">creator_id    </text>
<text text-anchor="start" x="146.9362" y="-973.9" font-family="Arial" font-size="14.00" fill="#666666">[uuid]</text>
<polygon fill="none" stroke="#000000" points="43.5,-932.5 43.5,-962.5 350.5,-962.5 350.5,-932.5 43.5,-932.5"/>
<text text-anchor="start" x="50.5" y="-943.9" font-family="Arial" font-size="14.00" fill="#000000">post_id    </text>
<text text-anchor="start" x="129.8324" y="-943.9" font-family="Arial" font-size="14.00" fill="#666666">[uuid]</text>
<polygon fill="none" stroke="#000000" points="43.5,-902.5 43.5,-932.5 350.5,-932.5 350.5,-902.5 43.5,-902.5"/>
<text text-anchor="start" x="50.5" y="-913.9" font-family="Arial" font-size="14.00" fill="#000000">reply_to    </text>
<text text-anchor="start" x="134.493" y="-913.9" font-family="Arial" font-size="14.00" fill="#666666">[uuid]</text>
<polygon fill="none" stroke="#000000" points="43.5,-872.5 43.5,-902.5 350.5,-902.5 350.5,-872.5 43.5,-872.5"/>
<text text-anchor="start" x="50.5" y="-883.9" font-family="Arial" font-size="14.00" fill="#000000">created_on    </text>
<text text-anchor="start" x="154.7342" y="-883.9" font-family="Arial" font-size="14.00" fill="#666666">[timestamp without time zone]</text>
<polygon fill="none" stroke="#000000" points="43.5,-842.5 43.5,-872.5 350.5,-872.5 350.5,-842.5 43.5,-842.5"/>
<text text-anchor="start" x="50.3605" y="-853.9" font-family="Arial" font-size="14.00" fill="#000000">updated_on    </text>
<text text-anchor="start" x="158.4993" y="-853.9" font-family="Arial" font-size="14.00" fill="#666666">[timestamp without time zone]</text>
</g>
<!-- public.comment&#45;&gt;public.post -->
<g id="edge1" class="edge">
<title>public.comment:post_id&#45;&gt;public.post:id</title>
<path fill="none" stroke="#000000" d="M360.6929,-946.6088C412.6933,-936.4886 352.6349,-842.7916 402.5,-800 522.9755,-696.6142 945.7456,-667.5 1104.5,-667.5"/>
<polygon fill="#000000" stroke="#000000" points="360.462,-946.6289 350.108,-943.0171 355.481,-947.0644 350.5,-947.5 350.5,-947.5 350.5,-947.5 355.481,-947.0644 350.892,-951.9829 360.462,-946.6289 360.462,-946.6289"/>
<text text-anchor="start" x="242.3845" y="-931.5" font-family="Arial" font-size="10.00" fill="#000000">FOREIGN KEY (post_id) REFERENCES post(id)</text>
</g>
<!-- public.playlist_post -->
<g id="node3" class="node">
<title>public.playlist_post</title>
<polygon fill="#efefef" stroke="transparent" points="454.5,-1007.5 454.5,-1042.5 746.5,-1042.5 746.5,-1007.5 454.5,-1007.5"/>
<polygon fill="none" stroke="#000000" points="454.5,-1007.5 454.5,-1042.5 746.5,-1042.5 746.5,-1007.5 454.5,-1007.5"/>
<text text-anchor="start" x="461.2024" y="-1020.3" font-family="Arial Bold" font-size="18.00" fill="#000000">public.playlist_post</text>
<text text-anchor="start" x="612.2296" y="-1020.3" font-family="Arial" font-size="14.00" fill="#000000">    </text>
<text text-anchor="start" x="646.4344" y="-1020.3" font-family="Arial" font-size="14.00" fill="#666666">[BASE TABLE]</text>
<polygon fill="none" stroke="#000000" points="454.5,-977.5 454.5,-1007.5 746.5,-1007.5 746.5,-977.5 454.5,-977.5"/>
<text text-anchor="start" x="461.5" y="-988.9" font-family="Arial" font-size="14.00" fill="#000000">id    </text>
<text text-anchor="start" x="506.594" y="-988.9" font-family="Arial" font-size="14.00" fill="#666666">[uuid]</text>
<polygon fill="none" stroke="#000000" points="454.5,-947.5 454.5,-977.5 746.5,-977.5 746.5,-947.5 454.5,-947.5"/>
<text text-anchor="start" x="461.5" y="-958.9" font-family="Arial" font-size="14.00" fill="#000000">playlist_id    </text>
<text text-anchor="start" x="557.1522" y="-958.9" font-family="Arial" font-size="14.00" fill="#666666">[uuid]</text>
<polygon fill="none" stroke="#000000" points="454.5,-917.5 454.5,-947.5 746.5,-947.5 746.5,-917.5 454.5,-917.5"/>
<text text-anchor="start" x="461.5" y="-928.9" font-family="Arial" font-size="14.00" fill="#000000">post_id    </text>
<text text-anchor="start" x="540.8324" y="-928.9" font-family="Arial" font-size="14.00" fill="#666666">[uuid]</text>
<polygon fill="none" stroke="#000000" points="454.5,-887.5 454.5,-917.5 746.5,-917.5 746.5,-887.5 454.5,-887.5"/>
<text text-anchor="start" x="461.5" y="-898.9" font-family="Arial" font-size="14.00" fill="#000000">sort_index    </text>
<text text-anchor="start" x="560.2756" y="-898.9" font-family="Arial" font-size="14.00" fill="#666666">[smallint]</text>
</g>
<!-- public.playlist_post&#45;&gt;public.post -->
<g id="edge2" class="edge">
<title>public.playlist_post:post_id&#45;&gt;public.post:id</title>
<path fill="none" stroke="#000000" d="M756.7362,-931.5717C803.4392,-922.1171 757.2101,-842.746 798.5,-800 901.4636,-693.4055 956.2978,-667.5 1104.5,-667.5"/>
<polygon fill="#000000" stroke="#000000" points="756.4591,-931.5968 746.0935,-928.0184 751.4796,-932.0484 746.5,-932.5 746.5,-932.5 746.5,-932.5 751.4796,-932.0484 746.9065,-936.9816 756.4591,-931.5968 756.4591,-931.5968"/>
<text text-anchor="start" x="753.8845" y="-942.5" font-family="Arial" font-size="10.00" fill="#000000">FOREIGN KEY (post_id) REFERENCES post(id)</text>
</g>
<!-- public.channel_post_report -->
<g id="node4" class="node">
<title>public.channel_post_report</title>
<polygon fill="#efefef" stroke="transparent" points="851.5,-1022.5 851.5,-1057.5 1208.5,-1057.5 1208.5,-1022.5 851.5,-1022.5"/>
<polygon fill="none" stroke="#000000" points="851.5,-1022.5 851.5,-1057.5 1208.5,-1057.5 1208.5,-1022.5 851.5,-1022.5"/>
<text text-anchor="start" x="858.1827" y="-1035.3" font-family="Arial Bold" font-size="18.00" fill="#000000">public.channel_post_report</text>
<text text-anchor="start" x="1074.2493" y="-1035.3" font-family="Arial" font-size="14.00" fill="#000000">    </text>
<text text-anchor="start" x="1108.4541" y="-1035.3" font-family="Arial" font-size="14.00" fill="#666666">[BASE TABLE]</text>
<polygon fill="none" stroke="#000000" points="851.5,-992.5 851.5,-1022.5 1208.5,-1022.5 1208.5,-992.5 851.5,-992.5"/>
<text text-anchor="start" x="858.5" y="-1003.9" font-family="Arial" font-size="14.00" fill="#000000">id    </text>
<text text-anchor="start" x="903.594" y="-1003.9" font-family="Arial" font-size="14.00" fill="#666666">[uuid]</text>
<polygon fill="none" stroke="#000000" points="851.5,-962.5 851.5,-992.5 1208.5,-992.5 1208.5,-962.5 851.5,-962.5"/>
<text text-anchor="start" x="858.5" y="-973.9" font-family="Arial" font-size="14.00" fill="#000000">post_id    </text>
<text text-anchor="start" x="937.8324" y="-973.9" font-family="Arial" font-size="14.00" fill="#666666">[uuid]</text>
<polygon fill="none" stroke="#000000" points="851.5,-932.5 851.5,-962.5 1208.5,-962.5 1208.5,-932.5 851.5,-932.5"/>
<text text-anchor="start" x="858.5" y="-943.9" font-family="Arial" font-size="14.00" fill="#000000">description    </text>
<text text-anchor="start" x="960.3822" y="-943.9" font-family="Arial" font-size="14.00" fill="#666666">[text]</text>
<polygon fill="none" stroke="#000000" points="851.5,-902.5 851.5,-932.5 1208.5,-932.5 1208.5,-902.5 851.5,-902.5"/>
<text text-anchor="start" x="858.5" y="-913.9" font-family="Arial" font-size="14.00" fill="#000000">resolution    </text>
<text text-anchor="start" x="953.3822" y="-913.9" font-family="Arial" font-size="14.00" fill="#666666">[text]</text>
<polygon fill="none" stroke="#000000" points="851.5,-872.5 851.5,-902.5 1208.5,-902.5 1208.5,-872.5 851.5,-872.5"/>
<text text-anchor="start" x="858.5" y="-883.9" font-family="Arial" font-size="14.00" fill="#000000">status    </text>
<text text-anchor="start" x="930.0512" y="-883.9" font-family="Arial" font-size="14.00" fill="#666666">[report_status]</text>
</g>
<!-- public.channel_post_report&#45;&gt;public.post -->
<g id="edge3" class="edge">
<title>public.channel_post_report:post_id&#45;&gt;public.post:id</title>
<path fill="none" stroke="#000000" d="M1218.6999,-976.6556C1270.2146,-967.4033 1238.2929,-884.1929 1208.5,-830 1182.1267,-782.0272 1130.8733,-811.9728 1104.5,-764 1083.8381,-726.4162 1061.6111,-667.5 1104.5,-667.5"/>
<polygon fill="#000000" stroke="#000000" points="1218.4659,-976.6749 1208.1287,-973.0153 1213.483,-977.0874 1208.5,-977.5 1208.5,-977.5 1208.5,-977.5 1213.483,-977.0874 1208.8713,-981.9847 1218.4659,-976.6749 1218.4659,-976.6749"/>
<text text-anchor="start" x="1215.8845" y="-987.5" font-family="Arial" font-size="10.00" fill="#000000">FOREIGN KEY (post_id) REFERENCES post(id)</text>
</g>
<!-- public.post_report -->
<g id="node5" class="node">
<title>public.post_report</title>
<polygon fill="#efefef" stroke="transparent" points="1312.5,-1022.5 1312.5,-1057.5 1596.5,-1057.5 1596.5,-1022.5 1312.5,-1022.5"/>
<polygon fill="none" stroke="#000000" points="1312.5,-1022.5 1312.5,-1057.5 1596.5,-1057.5 1596.5,-1022.5 1312.5,-1022.5"/>
<text text-anchor="start" x="1319.1984" y="-1035.3" font-family="Arial Bold" font-size="18.00" fill="#000000">public.post_report</text>
<text text-anchor="start" x="1462.2336" y="-1035.3" font-family="Arial" font-size="14.00" fill="#000000">    </text>
<text text-anchor="start" x="1496.4384" y="-1035.3" font-family="Arial" font-size="14.00" fill="#666666">[BASE TABLE]</text>
<polygon fill="none" stroke="#000000" points="1312.5,-992.5 1312.5,-1022.5 1596.5,-1022.5 1596.5,-992.5 1312.5,-992.5"/>
<text text-anchor="start" x="1319.5" y="-1003.9" font-family="Arial" font-size="14.00" fill="#000000">id    </text>
<text text-anchor="start" x="1364.594" y="-1003.9" font-family="Arial" font-size="14.00" fill="#666666">[uuid]</text>
<polygon fill="none" stroke="#000000" points="1312.5,-962.5 1312.5,-992.5 1596.5,-992.5 1596.5,-962.5 1312.5,-962.5"/>
<text text-anchor="start" x="1319.5" y="-973.9" font-family="Arial" font-size="14.00" fill="#000000">post_id    </text>
<text text-anchor="start" x="1398.8324" y="-973.9" font-family="Arial" font-size="14.00" fill="#666666">[uuid]</text>
<polygon fill="none" stroke="#000000" points="1312.5,-932.5 1312.5,-962.5 1596.5,-962.5 1596.5,-932.5 1312.5,-932.5"/>
<text text-anchor="start" x="1319.5" y="-943.9" font-family="Arial" font-size="14.00" fill="#000000">description    </text>
<text text-anchor="start" x="1421.3822" y="-943.9" font-family="Arial" font-size="14.00" fill="#666666">[text]</text>
<polygon fill="none" stroke="#000000" points="1312.5,-902.5 1312.5,-932.5 1596.5,-932.5 1596.5,-902.5 1312.5,-902.5"/>
<text text-anchor="start" x="1319.5" y="-913.9" font-family="Arial" font-size="14.00" fill="#000000">resolution    </text>
<text text-anchor="start" x="1414.3822" y="-913.9" font-family="Arial" font-size="14.00" fill="#666666">[text]</text>
<polygon fill="none" stroke="#000000" points="1312.5,-872.5 1312.5,-902.5 1596.5,-902.5 1596.5,-872.5 1312.5,-872.5"/>
<text text-anchor="start" x="1319.5" y="-883.9" font-family="Arial" font-size="14.00" fill="#000000">status    </text>
<text text-anchor="start" x="1391.0512" y="-883.9" font-family="Arial" font-size="14.00" fill="#666666">[report_status]</text>
</g>
<!-- public.post_report&#45;&gt;public.post -->
<g id="edge4" class="edge">
<title>public.post_report:post_id&#45;&gt;public.post:id</title>
<path fill="none" stroke="#000000" d="M1302.3549,-976.6822C1251.4312,-967.7164 1288.4082,-886.9568 1312.5,-830 1328.9073,-791.2105 1364.0927,-802.7895 1380.5,-764 1397.2081,-724.4994 1423.3889,-667.5 1380.5,-667.5"/>
<polygon fill="#000000" stroke="#000000" points="1302.5323,-976.6964 1312.1384,-981.9854 1307.5162,-977.0982 1312.5,-977.5 1312.5,-977.5 1312.5,-977.5 1307.5162,-977.0982 1312.8616,-973.0146 1302.5323,-976.6964 1302.5323,-976.6964"/>
<text text-anchor="start" x="1262.1345" y="-961.5" font-family="Arial" font-size="10.00" fill="#000000">FOREIGN KEY (post_id) REFERENCES post(id)</text>
</g>
<!-- public.post_tag -->
<g id="node6" class="node">
<title>public.post_tag</title>
<polygon fill="#efefef" stroke="transparent" points="1700.5,-992.5 1700.5,-1027.5 1962.5,-1027.5 1962.5,-992.5 1700.5,-992.5"/>
<polygon fill="none" stroke="#000000" points="1700.5,-992.5 1700.5,-1027.5 1962.5,-1027.5 1962.5,-992.5 1700.5,-992.5"/>
<text text-anchor="start" x="1707.1937" y="-1005.3" font-family="Arial Bold" font-size="18.00" fill="#000000">public.post_tag</text>
<text text-anchor="start" x="1828.2383" y="-1005.3" font-family="Arial" font-size="14.00" fill="#000000">    </text>
<text text-anchor="start" x="1862.4431" y="-1005.3" font-family="Arial" font-size="14.00" fill="#666666">[BASE TABLE]</text>
<polygon fill="none" stroke="#000000" points="1700.5,-962.5 1700.5,-992.5 1962.5,-992.5 1962.5,-962.5 1700.5,-962.5"/>
<text text-anchor="start" x="1707.5" y="-973.9" font-family="Arial" font-size="14.00" fill="#000000">id    </text>
<text text-anchor="start" x="1752.594" y="-973.9" font-family="Arial" font-size="14.00" fill="#666666">[uuid]</text>
<polygon fill="none" stroke="#000000" points="1700.5,-932.5 1700.5,-962.5 1962.5,-962.5 1962.5,-932.5 1700.5,-932.5"/>
<text text-anchor="start" x="1707.5" y="-943.9" font-family="Arial" font-size="14.00" fill="#000000">post_id    </text>
<text text-anchor="start" x="1786.8324" y="-943.9" font-family="Arial" font-size="14.00" fill="#666666">[uuid]</text>
<polygon fill="none" stroke="#000000" points="1700.5,-902.5 1700.5,-932.5 1962.5,-932.5 1962.5,-902.5 1700.5,-902.5"/>
<text text-anchor="start" x="1707.5" y="-913.9" font-family="Arial" font-size="14.00" fill="#000000">tag_id    </text>
<text text-anchor="start" x="1779.8324" y="-913.9" font-family="Arial" font-size="14.00" fill="#666666">[uuid]</text>
</g>
<!-- public.post_tag&#45;&gt;public.post -->
<g id="edge5" class="edge">
<title>public.post_tag:post_id&#45;&gt;public.post:id</title>
<path fill="none" stroke="#000000" d="M1690.2507,-946.666C1637.6201,-937.1863 1692.0879,-849.1705 1648.5,-800 1560.3583,-700.5696 1513.3735,-667.5 1380.5,-667.5"/>
<polygon fill="#000000" stroke="#000000" points="1690.5329,-946.6889 1700.135,-951.9852 1695.5165,-947.0944 1700.5,-947.5 1700.5,-947.5 1700.5,-947.5 1695.5165,-947.0944 1700.865,-943.0148 1690.5329,-946.6889 1690.5329,-946.6889"/>
<text text-anchor="start" x="1650.1345" y="-931.5" font-family="Arial" font-size="10.00" fill="#000000">FOREIGN KEY (post_id) REFERENCES post(id)</text>
</g>
<!-- public.post_vote -->
<g id="node7" class="node">
<title>public.post_vote</title>
<polygon fill="#efefef" stroke="transparent" points="2067.5,-992.5 2067.5,-1027.5 2338.5,-1027.5 2338.5,-992.5 2067.5,-992.5"/>
<polygon fill="none" stroke="#000000" points="2067.5,-992.5 2067.5,-1027.5 2338.5,-1027.5 2338.5,-992.5 2067.5,-992.5"/>
<text text-anchor="start" x="2074.1937" y="-1005.3" font-family="Arial Bold" font-size="18.00" fill="#000000">public.post_vote</text>
<text text-anchor="start" x="2204.2383" y="-1005.3" font-family="Arial" font-size="14.00" fill="#000000">    </text>
<text text-anchor="start" x="2238.4431" y="-1005.3" font-family="Arial" font-size="14.00" fill="#666666">[BASE TABLE]</text>
<polygon fill="none" stroke="#000000" points="2067.5,-962.5 2067.5,-992.5 2338.5,-992.5 2338.5,-962.5 2067.5,-962.5"/>
<text text-anchor="start" x="2074.5" y="-973.9" font-family="Arial" font-size="14.00" fill="#000000">post_id    </text>
<text text-anchor="start" x="2153.8324" y="-973.9" font-family="Arial" font-size="14.00" fill="#666666">[uuid]</text>
<polygon fill="none" stroke="#000000" points="2067.5,-932.5 2067.5,-962.5 2338.5,-962.5 2338.5,-932.5 2067.5,-932.5"/>
<text text-anchor="start" x="2074.5" y="-943.9" font-family="Arial" font-size="14.00" fill="#000000">user_id    </text>
<text text-anchor="start" x="2154.6024" y="-943.9" font-family="Arial" font-size="14.00" fill="#666666">[uuid]</text>
<polygon fill="none" stroke="#000000" points="2067.5,-902.5 2067.5,-932.5 2338.5,-932.5 2338.5,-902.5 2067.5,-902.5"/>
<text text-anchor="start" x="2074.5" y="-913.9" font-family="Arial" font-size="14.00" fill="#000000">vote    </text>
<text text-anchor="start" x="2135.1606" y="-913.9" font-family="Arial" font-size="14.00" fill="#666666">[vote]</text>
</g>
<!-- public.post_vote&#45;&gt;public.post -->
<g id="edge6" class="edge">
<title>public.post_vote:post_id&#45;&gt;public.post:id</title>
<path fill="none" stroke="#000000" d="M2057.4183,-976.7798C1992.9465,-966.6918 2072.3905,-853.2137 2014.5,-800 1908.5338,-702.5946 1524.4328,-667.5 1380.5,-667.5"/>
<polygon fill="#000000" stroke="#000000" points="2057.5254,-976.7873 2067.1793,-981.9886 2062.5127,-977.1437 2067.5,-977.5 2067.5,-977.5 2067.5,-977.5 2062.5127,-977.1437 2067.8207,-973.0114 2057.5254,-976.7873 2057.5254,-976.7873"/>
<text text-anchor="start" x="2017.1345" y="-961.5" font-family="Arial" font-size="10.00" fill="#000000">FOREIGN KEY (post_id) REFERENCES post(id)</text>
</g>
</g>
</svg>
