<?xml version="1.0" encoding="UTF-8" standalone="no"?>
<!DOCTYPE svg PUBLIC "-//W3C//DTD SVG 1.1//EN"
 "http://www.w3.org/Graphics/SVG/1.1/DTD/svg11.dtd">
<!-- Generated by graphviz version 2.40.1 (20161225.0304)
 -->
<!-- Title: public.post Pages: 1 -->
<svg width="2389pt" height="1409pt"
 viewBox="0.00 0.00 2389.00 1409.00" xmlns="http://www.w3.org/2000/svg" xmlns:xlink="http://www.w3.org/1999/xlink">
<g id="graph0" class="graph" transform="scale(1 1) rotate(0) translate(4 1405)">
<title>public.post</title>
<polygon fill="#ffffff" stroke="transparent" points="-4,4 -4,-1405 2385,-1405 2385,4 -4,4"/>
<!-- public.post -->
<g id="node1" class="node">
<title>public.post</title>
<polygon fill="#efefef" stroke="transparent" points="1104.5,-892.5 1104.5,-927.5 1380.5,-927.5 1380.5,-892.5 1104.5,-892.5"/>
<polygon fill="none" stroke="#000000" points="1104.5,-892.5 1104.5,-927.5 1380.5,-927.5 1380.5,-892.5 1104.5,-892.5"/>
<text text-anchor="start" x="1135.7041" y="-905.3" font-family="Arial Bold" font-size="18.00" fill="#000000">public.post</text>
<text text-anchor="start" x="1221.7279" y="-905.3" font-family="Arial" font-size="14.00" fill="#000000">    </text>
<text text-anchor="start" x="1255.9327" y="-905.3" font-family="Arial" font-size="14.00" fill="#666666">[BASE TABLE]</text>
<polygon fill="none" stroke="#000000" points="1104.5,-862.5 1104.5,-892.5 1380.5,-892.5 1380.5,-862.5 1104.5,-862.5"/>
<text text-anchor="start" x="1111.5" y="-873.9" font-family="Arial" font-size="14.00" fill="#000000">id </text>
<text text-anchor="start" x="1126.2798" y="-873.9" font-family="Arial" font-size="14.00" fill="#666666">[uuid]</text>
<polygon fill="none" stroke="#000000" points="1104.5,-832.5 1104.5,-862.5 1380.5,-862.5 1380.5,-832.5 1104.5,-832.5"/>
<text text-anchor="start" x="1111.5" y="-843.9" font-family="Arial" font-size="14.00" fill="#000000">name </text>
<text text-anchor="start" x="1150.399" y="-843.9" font-family="Arial" font-size="14.00" fill="#666666">[text]</text>
<polygon fill="none" stroke="#000000" points="1104.5,-802.5 1104.5,-832.5 1380.5,-832.5 1380.5,-802.5 1104.5,-802.5"/>
<text text-anchor="start" x="1111.5" y="-813.9" font-family="Arial" font-size="14.00" fill="#000000">description </text>
<text text-anchor="start" x="1183.068" y="-813.9" font-family="Arial" font-size="14.00" fill="#666666">[text]</text>
<polygon fill="none" stroke="#000000" points="1104.5,-772.5 1104.5,-802.5 1380.5,-802.5 1380.5,-772.5 1104.5,-772.5"/>
<text text-anchor="start" x="1111.5" y="-783.9" font-family="Arial" font-size="14.00" fill="#000000">alt_text </text>
<text text-anchor="start" x="1160.5168" y="-783.9" font-family="Arial" font-size="14.00" fill="#666666">[text]</text>
<polygon fill="none" stroke="#000000" points="1104.5,-742.5 1104.5,-772.5 1380.5,-772.5 1380.5,-742.5 1104.5,-742.5"/>
<text text-anchor="start" x="1111.5" y="-753.9" font-family="Arial" font-size="14.00" fill="#000000">created_by </text>
<text text-anchor="start" x="1184.6374" y="-753.9" font-family="Arial" font-size="14.00" fill="#666666">[uuid]</text>
<polygon fill="none" stroke="#000000" points="1104.5,-712.5 1104.5,-742.5 1380.5,-742.5 1380.5,-712.5 1104.5,-712.5"/>
<text text-anchor="start" x="1111.5" y="-723.9" font-family="Arial" font-size="14.00" fill="#000000">channel_id </text>
<text text-anchor="start" x="1183.082" y="-723.9" font-family="Arial" font-size="14.00" fill="#666666">[uuid]</text>
<polygon fill="none" stroke="#000000" points="1104.5,-682.5 1104.5,-712.5 1380.5,-712.5 1380.5,-682.5 1104.5,-682.5"/>
<text text-anchor="start" x="1111.5" y="-693.9" font-family="Arial" font-size="14.00" fill="#000000">video_id </text>
<text text-anchor="start" x="1167.5168" y="-693.9" font-family="Arial" font-size="14.00" fill="#666666">[text]</text>
<polygon fill="none" stroke="#000000" points="1104.5,-652.5 1104.5,-682.5 1380.5,-682.5 1380.5,-652.5 1104.5,-652.5"/>
<text text-anchor="start" x="1111.5" y="-663.9" font-family="Arial" font-size="14.00" fill="#000000">created_on </text>
<text text-anchor="start" x="1185.42" y="-663.9" font-family="Arial" font-size="14.00" fill="#666666">[timestamp without time zone]</text>
<polygon fill="none" stroke="#000000" points="1104.5,-622.5 1104.5,-652.5 1380.5,-652.5 1380.5,-622.5 1104.5,-622.5"/>
<text text-anchor="start" x="1111.0176" y="-633.9" font-family="Arial" font-size="14.00" fill="#000000">updated_on </text>
<text text-anchor="start" x="1188.8422" y="-633.9" font-family="Arial" font-size="14.00" fill="#666666">[timestamp without time zone]</text>
<polygon fill="none" stroke="#000000" points="1104.5,-592.5 1104.5,-622.5 1380.5,-622.5 1380.5,-592.5 1104.5,-592.5"/>
<text text-anchor="start" x="1111.5" y="-603.9" font-family="Arial" font-size="14.00" fill="#000000">upvotes </text>
<text text-anchor="start" x="1164.4116" y="-603.9" font-family="Arial" font-size="14.00" fill="#666666">[integer]</text>
<polygon fill="none" stroke="#000000" points="1104.5,-562.5 1104.5,-592.5 1380.5,-592.5 1380.5,-562.5 1104.5,-562.5"/>
<text text-anchor="start" x="1111.5" y="-573.9" font-family="Arial" font-size="14.00" fill="#000000">downvotes </text>
<text text-anchor="start" x="1182.3008" y="-573.9" font-family="Arial" font-size="14.00" fill="#666666">[integer]</text>
<polygon fill="none" stroke="#000000" points="1104.5,-532.5 1104.5,-562.5 1380.5,-562.5 1380.5,-532.5 1104.5,-532.5"/>
<text text-anchor="start" x="1111.5" y="-543.9" font-family="Arial" font-size="14.00" fill="#000000">comments </text>
<text text-anchor="start" x="1179.9502" y="-543.9" font-family="Arial" font-size="14.00" fill="#666666">[integer]</text>
<polygon fill="none" stroke="#000000" stroke-width="3" points="1103,-531.5 1103,-929.5 1382,-929.5 1382,-531.5 1103,-531.5"/>
</g>
<!-- public.user -->
<g id="node8" class="node">
<title>public.user</title>
<polygon fill="#efefef" stroke="transparent" points="883.5,-357.5 883.5,-392.5 1190.5,-392.5 1190.5,-357.5 883.5,-357.5"/>
<polygon fill="none" stroke="#000000" points="883.5,-357.5 883.5,-392.5 1190.5,-392.5 1190.5,-357.5 883.5,-357.5"/>
<text text-anchor="start" x="929.7091" y="-370.3" font-family="Arial Bold" font-size="18.00" fill="#000000">public.user</text>
<text text-anchor="start" x="1016.7229" y="-370.3" font-family="Arial" font-size="14.00" fill="#000000">    </text>
<text text-anchor="start" x="1050.9277" y="-370.3" font-family="Arial" font-size="14.00" fill="#666666">[BASE TABLE]</text>
<polygon fill="none" stroke="#000000" points="883.5,-327.5 883.5,-357.5 1190.5,-357.5 1190.5,-327.5 883.5,-327.5"/>
<text text-anchor="start" x="890.5" y="-338.9" font-family="Arial" font-size="14.00" fill="#000000">id    </text>
<text text-anchor="start" x="935.594" y="-338.9" font-family="Arial" font-size="14.00" fill="#666666">[uuid]</text>
<polygon fill="none" stroke="#000000" points="883.5,-297.5 883.5,-327.5 1190.5,-327.5 1190.5,-297.5 883.5,-297.5"/>
<text text-anchor="start" x="890.5" y="-308.9" font-family="Arial" font-size="14.00" fill="#000000">username    </text>
<text text-anchor="start" x="986.939" y="-308.9" font-family="Arial" font-size="14.00" fill="#666666">[varchar(25)]</text>
<polygon fill="none" stroke="#000000" points="883.5,-267.5 883.5,-297.5 1190.5,-297.5 1190.5,-267.5 883.5,-267.5"/>
<text text-anchor="start" x="890.5" y="-278.9" font-family="Arial" font-size="14.00" fill="#000000">profile_image    </text>
<text text-anchor="start" x="1008.7146" y="-278.9" font-family="Arial" font-size="14.00" fill="#666666">[text]</text>
<polygon fill="none" stroke="#000000" points="883.5,-237.5 883.5,-267.5 1190.5,-267.5 1190.5,-237.5 883.5,-237.5"/>
<text text-anchor="start" x="890.5" y="-248.9" font-family="Arial" font-size="14.00" fill="#000000">role    </text>
<text text-anchor="start" x="948.0372" y="-248.9" font-family="Arial" font-size="14.00" fill="#666666">[site_role]</text>
<polygon fill="none" stroke="#000000" points="883.5,-207.5 883.5,-237.5 1190.5,-237.5 1190.5,-207.5 883.5,-207.5"/>
<text text-anchor="start" x="890.5" y="-218.9" font-family="Arial" font-size="14.00" fill="#000000">created_on    </text>
<text text-anchor="start" x="994.7342" y="-218.9" font-family="Arial" font-size="14.00" fill="#666666">[timestamp without time zone]</text>
<polygon fill="none" stroke="#000000" points="883.5,-177.5 883.5,-207.5 1190.5,-207.5 1190.5,-177.5 883.5,-177.5"/>
<text text-anchor="start" x="890.3605" y="-188.9" font-family="Arial" font-size="14.00" fill="#000000">updated_on    </text>
<text text-anchor="start" x="998.4993" y="-188.9" font-family="Arial" font-size="14.00" fill="#666666">[timestamp without time zone]</text>
<polygon fill="none" stroke="#000000" points="883.5,-147.5 883.5,-177.5 1190.5,-177.5 1190.5,-147.5 883.5,-147.5"/>
<text text-anchor="start" x="890.5" y="-158.9" font-family="Arial" font-size="14.00" fill="#000000">discord_id    </text>
<text text-anchor="start" x="988.4916" y="-158.9" font-family="Arial" font-size="14.00" fill="#666666">[bigint]</text>
<polygon fill="none" stroke="#000000" points="883.5,-117.5 883.5,-147.5 1190.5,-147.5 1190.5,-117.5 883.5,-117.5"/>
<text text-anchor="start" x="890.5" y="-128.9" font-family="Arial" font-size="14.00" fill="#000000">github_id    </text>
<text text-anchor="start" x="981.5042" y="-128.9" font-family="Arial" font-size="14.00" fill="#666666">[integer]</text>
<polygon fill="none" stroke="#000000" points="883.5,-87.5 883.5,-117.5 1190.5,-117.5 1190.5,-87.5 883.5,-87.5"/>
<text text-anchor="start" x="890.5" y="-98.9" font-family="Arial" font-size="14.00" fill="#000000">followers    </text>
<text text-anchor="start" x="979.9236" y="-98.9" font-family="Arial" font-size="14.00" fill="#666666">[integer]</text>
<polygon fill="none" stroke="#000000" points="883.5,-57.5 883.5,-87.5 1190.5,-87.5 1190.5,-57.5 883.5,-57.5"/>
<text text-anchor="start" x="890.5" y="-68.9" font-family="Arial" font-size="14.00" fill="#000000">following    </text>
<text text-anchor="start" x="979.1522" y="-68.9" font-family="Arial" font-size="14.00" fill="#666666">[integer]</text>
</g>
<!-- public.post&#45;&gt;public.user -->
<g id="edge7" class="edge">
<title>public.post:created_by&#45;&gt;public.user:id</title>
<path fill="none" stroke="#000000" d="M1094.3949,-757.0782C987.8345,-747.8242 1046.7409,-588.4041 1104.5,-487 1126.4939,-448.3867 1168.5061,-474.6133 1190.5,-436 1211.0673,-399.8912 1232.0556,-342.5 1190.5,-342.5"/>
<polygon fill="#000000" stroke="#000000" points="1094.5087,-757.0828 1104.3123,-761.9961 1099.5044,-757.2914 1104.5,-757.5 1104.5,-757.5 1104.5,-757.5 1099.5044,-757.2914 1104.6877,-753.0039 1094.5087,-757.0828 1094.5087,-757.0828"/>
<text text-anchor="start" x="855.4465" y="-767.5" font-family="Arial" font-size="10.00" fill="#000000">FOREIGN KEY (created_by) REFERENCES &quot;user&quot;(id)</text>
</g>
<!-- public.channel -->
<g id="node9" class="node">
<title>public.channel</title>
<polygon fill="#efefef" stroke="transparent" points="1294.5,-372.5 1294.5,-407.5 1601.5,-407.5 1601.5,-372.5 1294.5,-372.5"/>
<polygon fill="none" stroke="#000000" points="1294.5,-372.5 1294.5,-407.5 1601.5,-407.5 1601.5,-372.5 1294.5,-372.5"/>
<text text-anchor="start" x="1326.6988" y="-385.3" font-family="Arial Bold" font-size="18.00" fill="#000000">public.channel</text>
<text text-anchor="start" x="1441.7332" y="-385.3" font-family="Arial" font-size="14.00" fill="#000000">    </text>
<text text-anchor="start" x="1475.938" y="-385.3" font-family="Arial" font-size="14.00" fill="#666666">[BASE TABLE]</text>
<polygon fill="none" stroke="#000000" points="1294.5,-342.5 1294.5,-372.5 1601.5,-372.5 1601.5,-342.5 1294.5,-342.5"/>
<text text-anchor="start" x="1301.5" y="-353.9" font-family="Arial" font-size="14.00" fill="#000000">id    </text>
<text text-anchor="start" x="1346.594" y="-353.9" font-family="Arial" font-size="14.00" fill="#666666">[uuid]</text>
<polygon fill="none" stroke="#000000" points="1294.5,-312.5 1294.5,-342.5 1601.5,-342.5 1601.5,-312.5 1294.5,-312.5"/>
<text text-anchor="start" x="1301.5" y="-323.9" font-family="Arial" font-size="14.00" fill="#000000">name    </text>
<text text-anchor="start" x="1370.7132" y="-323.9" font-family="Arial" font-size="14.00" fill="#666666">[text]</text>
<polygon fill="none" stroke="#000000" points="1294.5,-282.5 1294.5,-312.5 1601.5,-312.5 1601.5,-282.5 1294.5,-282.5"/>
<text text-anchor="start" x="1301.5" y="-293.9" font-family="Arial" font-size="14.00" fill="#000000">description    </text>
<text text-anchor="start" x="1403.3822" y="-293.9" font-family="Arial" font-size="14.00" fill="#666666">[text]</text>
<polygon fill="none" stroke="#000000" points="1294.5,-252.5 1294.5,-282.5 1601.5,-282.5 1601.5,-252.5 1294.5,-252.5"/>
<text text-anchor="start" x="1301.5" y="-263.9" font-family="Arial" font-size="14.00" fill="#000000">guidelines    </text>
<text text-anchor="start" x="1398.7202" y="-263.9" font-family="Arial" font-size="14.00" fill="#666666">[text]</text>
<polygon fill="none" stroke="#000000" points="1294.5,-222.5 1294.5,-252.5 1601.5,-252.5 1601.5,-222.5 1294.5,-222.5"/>
<text text-anchor="start" x="1301.5" y="-233.9" font-family="Arial" font-size="14.00" fill="#000000">created_by    </text>
<text text-anchor="start" x="1404.9516" y="-233.9" font-family="Arial" font-size="14.00" fill="#666666">[uuid]</text>
<polygon fill="none" stroke="#000000" points="1294.5,-192.5 1294.5,-222.5 1601.5,-222.5 1601.5,-192.5 1294.5,-192.5"/>
<text text-anchor="start" x="1301.5" y="-203.9" font-family="Arial" font-size="14.00" fill="#000000">banner_image    </text>
<text text-anchor="start" x="1425.176" y="-203.9" font-family="Arial" font-size="14.00" fill="#666666">[text]</text>
<polygon fill="none" stroke="#000000" points="1294.5,-162.5 1294.5,-192.5 1601.5,-192.5 1601.5,-162.5 1294.5,-162.5"/>
<text text-anchor="start" x="1301.5" y="-173.9" font-family="Arial" font-size="14.00" fill="#000000">icon    </text>
<text text-anchor="start" x="1361.3766" y="-173.9" font-family="Arial" font-size="14.00" fill="#666666">[text]</text>
<polygon fill="none" stroke="#000000" points="1294.5,-132.5 1294.5,-162.5 1601.5,-162.5 1601.5,-132.5 1294.5,-132.5"/>
<text text-anchor="start" x="1301.5" y="-143.9" font-family="Arial" font-size="14.00" fill="#000000">created_on    </text>
<text text-anchor="start" x="1405.7342" y="-143.9" font-family="Arial" font-size="14.00" fill="#666666">[timestamp without time zone]</text>
<polygon fill="none" stroke="#000000" points="1294.5,-102.5 1294.5,-132.5 1601.5,-132.5 1601.5,-102.5 1294.5,-102.5"/>
<text text-anchor="start" x="1301.3605" y="-113.9" font-family="Arial" font-size="14.00" fill="#000000">updated_on    </text>
<text text-anchor="start" x="1409.4993" y="-113.9" font-family="Arial" font-size="14.00" fill="#666666">[timestamp without time zone]</text>
<polygon fill="none" stroke="#000000" points="1294.5,-72.5 1294.5,-102.5 1601.5,-102.5 1601.5,-72.5 1294.5,-72.5"/>
<text text-anchor="start" x="1301.5" y="-83.9" font-family="Arial" font-size="14.00" fill="#000000">subscribers    </text>
<text text-anchor="start" x="1407.263" y="-83.9" font-family="Arial" font-size="14.00" fill="#666666">[integer]</text>
<polygon fill="none" stroke="#000000" points="1294.5,-42.5 1294.5,-72.5 1601.5,-72.5 1601.5,-42.5 1294.5,-42.5"/>
<text text-anchor="start" x="1301.5" y="-53.9" font-family="Arial" font-size="14.00" fill="#000000">posts    </text>
<text text-anchor="start" x="1369.1606" y="-53.9" font-family="Arial" font-size="14.00" fill="#666666">[integer]</text>
</g>
<!-- public.post&#45;&gt;public.channel -->
<g id="edge8" class="edge">
<title>public.post:channel_id&#45;&gt;public.channel:id</title>
<path fill="none" stroke="#000000" d="M1390.6412,-727.0067C1484.2105,-717.5074 1437.7517,-573.0312 1380.5,-487 1357.5439,-452.5043 1317.4561,-485.4957 1294.5,-451 1271.4777,-416.4047 1252.9444,-357.5 1294.5,-357.5"/>
<polygon fill="#000000" stroke="#000000" points="1390.4882,-727.0141 1380.2813,-723.0053 1385.4941,-727.257 1380.5,-727.5 1380.5,-727.5 1380.5,-727.5 1385.4941,-727.257 1380.7187,-731.9947 1390.4882,-727.0141 1390.4882,-727.0141"/>
<text text-anchor="start" x="1387.7675" y="-737.5" font-family="Arial" font-size="10.00" fill="#000000">FOREIGN KEY (channel_id) REFERENCES channel(id)</text>
</g>
<!-- public.comment -->
<g id="node2" class="node">
<title>public.comment</title>
<polygon fill="#efefef" stroke="transparent" points="43.5,-1322.5 43.5,-1357.5 350.5,-1357.5 350.5,-1322.5 43.5,-1322.5"/>
<polygon fill="none" stroke="#000000" points="43.5,-1322.5 43.5,-1357.5 350.5,-1357.5 350.5,-1322.5 43.5,-1322.5"/>
<text text-anchor="start" x="70.2088" y="-1335.3" font-family="Arial Bold" font-size="18.00" fill="#000000">public.comment</text>
<text text-anchor="start" x="196.2232" y="-1335.3" font-family="Arial" font-size="14.00" fill="#000000">    </text>
<text text-anchor="start" x="230.428" y="-1335.3" font-family="Arial" font-size="14.00" fill="#666666">[BASE TABLE]</text>
<polygon fill="none" stroke="#000000" points="43.5,-1292.5 43.5,-1322.5 350.5,-1322.5 350.5,-1292.5 43.5,-1292.5"/>
<text text-anchor="start" x="50.5" y="-1303.9" font-family="Arial" font-size="14.00" fill="#000000">id    </text>
<text text-anchor="start" x="95.594" y="-1303.9" font-family="Arial" font-size="14.00" fill="#666666">[uuid]</text>
<polygon fill="none" stroke="#000000" points="43.5,-1262.5 43.5,-1292.5 350.5,-1292.5 350.5,-1262.5 43.5,-1262.5"/>
<text text-anchor="start" x="50.5" y="-1273.9" font-family="Arial" font-size="14.00" fill="#000000">content    </text>
<text text-anchor="start" x="130.6164" y="-1273.9" font-family="Arial" font-size="14.00" fill="#666666">[text]</text>
<polygon fill="none" stroke="#000000" points="43.5,-1232.5 43.5,-1262.5 350.5,-1262.5 350.5,-1232.5 43.5,-1232.5"/>
<text text-anchor="start" x="50.5" y="-1243.9" font-family="Arial" font-size="14.00" fill="#000000">creator_id    </text>
<text text-anchor="start" x="146.9362" y="-1243.9" font-family="Arial" font-size="14.00" fill="#666666">[uuid]</text>
<polygon fill="none" stroke="#000000" points="43.5,-1202.5 43.5,-1232.5 350.5,-1232.5 350.5,-1202.5 43.5,-1202.5"/>
<text text-anchor="start" x="50.5" y="-1213.9" font-family="Arial" font-size="14.00" fill="#000000">post_id    </text>
<text text-anchor="start" x="129.8324" y="-1213.9" font-family="Arial" font-size="14.00" fill="#666666">[uuid]</text>
<polygon fill="none" stroke="#000000" points="43.5,-1172.5 43.5,-1202.5 350.5,-1202.5 350.5,-1172.5 43.5,-1172.5"/>
<text text-anchor="start" x="50.5" y="-1183.9" font-family="Arial" font-size="14.00" fill="#000000">reply_to    </text>
<text text-anchor="start" x="134.493" y="-1183.9" font-family="Arial" font-size="14.00" fill="#666666">[uuid]</text>
<polygon fill="none" stroke="#000000" points="43.5,-1142.5 43.5,-1172.5 350.5,-1172.5 350.5,-1142.5 43.5,-1142.5"/>
<text text-anchor="start" x="50.5" y="-1153.9" font-family="Arial" font-size="14.00" fill="#000000">created_on    </text>
<text text-anchor="start" x="154.7342" y="-1153.9" font-family="Arial" font-size="14.00" fill="#666666">[timestamp without time zone]</text>
<polygon fill="none" stroke="#000000" points="43.5,-1112.5 43.5,-1142.5 350.5,-1142.5 350.5,-1112.5 43.5,-1112.5"/>
<text text-anchor="start" x="50.3605" y="-1123.9" font-family="Arial" font-size="14.00" fill="#000000">updated_on    </text>
<text text-anchor="start" x="158.4993" y="-1123.9" font-family="Arial" font-size="14.00" fill="#666666">[timestamp without time zone]</text>
<polygon fill="none" stroke="#000000" points="43.5,-1082.5 43.5,-1112.5 350.5,-1112.5 350.5,-1082.5 43.5,-1082.5"/>
<text text-anchor="start" x="50.5" y="-1093.9" font-family="Arial" font-size="14.00" fill="#000000">upvotes    </text>
<text text-anchor="start" x="133.7258" y="-1093.9" font-family="Arial" font-size="14.00" fill="#666666">[integer]</text>
<polygon fill="none" stroke="#000000" points="43.5,-1052.5 43.5,-1082.5 350.5,-1082.5 350.5,-1052.5 43.5,-1052.5"/>
<text text-anchor="start" x="50.5" y="-1063.9" font-family="Arial" font-size="14.00" fill="#000000">downvotes    </text>
<text text-anchor="start" x="151.615" y="-1063.9" font-family="Arial" font-size="14.00" fill="#666666">[integer]</text>
</g>
<!-- public.comment&#45;&gt;public.post -->
<g id="edge1" class="edge">
<title>public.comment:post_id&#45;&gt;public.post:id</title>
<path fill="none" stroke="#000000" d="M360.7156,-1216.8617C437.0809,-1206.5016 336.0215,-1072.668 402.5,-1010 518.0182,-901.1032 945.7456,-877.5 1104.5,-877.5"/>
<polygon fill="#000000" stroke="#000000" points="360.4805,-1216.8763 350.2194,-1213.0088 355.4903,-1217.1882 350.5,-1217.5 350.5,-1217.5 350.5,-1217.5 355.4903,-1217.1882 350.7806,-1221.9912 360.4805,-1216.8763 360.4805,-1216.8763"/>
<text text-anchor="start" x="242.3845" y="-1201.5" font-family="Arial" font-size="10.00" fill="#000000">FOREIGN KEY (post_id) REFERENCES post(id)</text>
</g>
<!-- public.playlist_post -->
<g id="node3" class="node">
<title>public.playlist_post</title>
<polygon fill="#efefef" stroke="transparent" points="454.5,-1247.5 454.5,-1282.5 746.5,-1282.5 746.5,-1247.5 454.5,-1247.5"/>
<polygon fill="none" stroke="#000000" points="454.5,-1247.5 454.5,-1282.5 746.5,-1282.5 746.5,-1247.5 454.5,-1247.5"/>
<text text-anchor="start" x="461.2024" y="-1260.3" font-family="Arial Bold" font-size="18.00" fill="#000000">public.playlist_post</text>
<text text-anchor="start" x="612.2296" y="-1260.3" font-family="Arial" font-size="14.00" fill="#000000">    </text>
<text text-anchor="start" x="646.4344" y="-1260.3" font-family="Arial" font-size="14.00" fill="#666666">[BASE TABLE]</text>
<polygon fill="none" stroke="#000000" points="454.5,-1217.5 454.5,-1247.5 746.5,-1247.5 746.5,-1217.5 454.5,-1217.5"/>
<text text-anchor="start" x="461.5" y="-1228.9" font-family="Arial" font-size="14.00" fill="#000000">id    </text>
<text text-anchor="start" x="506.594" y="-1228.9" font-family="Arial" font-size="14.00" fill="#666666">[uuid]</text>
<polygon fill="none" stroke="#000000" points="454.5,-1187.5 454.5,-1217.5 746.5,-1217.5 746.5,-1187.5 454.5,-1187.5"/>
<text text-anchor="start" x="461.5" y="-1198.9" font-family="Arial" font-size="14.00" fill="#000000">playlist_id    </text>
<text text-anchor="start" x="557.1522" y="-1198.9" font-family="Arial" font-size="14.00" fill="#666666">[uuid]</text>
<polygon fill="none" stroke="#000000" points="454.5,-1157.5 454.5,-1187.5 746.5,-1187.5 746.5,-1157.5 454.5,-1157.5"/>
<text text-anchor="start" x="461.5" y="-1168.9" font-family="Arial" font-size="14.00" fill="#000000">post_id    </text>
<text text-anchor="start" x="540.8324" y="-1168.9" font-family="Arial" font-size="14.00" fill="#666666">[uuid]</text>
<polygon fill="none" stroke="#000000" points="454.5,-1127.5 454.5,-1157.5 746.5,-1157.5 746.5,-1127.5 454.5,-1127.5"/>
<text text-anchor="start" x="461.5" y="-1138.9" font-family="Arial" font-size="14.00" fill="#000000">sort_index    </text>
<text text-anchor="start" x="560.2756" y="-1138.9" font-family="Arial" font-size="14.00" fill="#666666">[smallint]</text>
</g>
<!-- public.playlist_post&#45;&gt;public.post -->
<g id="edge2" class="edge">
<title>public.playlist_post:post_id&#45;&gt;public.post:id</title>
<path fill="none" stroke="#000000" d="M756.5631,-1171.7579C815.3313,-1162.2391 750.0825,-1063.4611 798.5,-1010 897.9851,-900.1518 956.2978,-877.5 1104.5,-877.5"/>
<polygon fill="#000000" stroke="#000000" points="756.4729,-1171.7645 746.169,-1168.0122 751.4865,-1172.1322 746.5,-1172.5 746.5,-1172.5 746.5,-1172.5 751.4865,-1172.1322 746.831,-1176.9878 756.4729,-1171.7645 756.4729,-1171.7645"/>
<text text-anchor="start" x="638.3845" y="-1156.5" font-family="Arial" font-size="10.00" fill="#000000">FOREIGN KEY (post_id) REFERENCES post(id)</text>
</g>
<!-- public.channel_post_report -->
<g id="node4" class="node">
<title>public.channel_post_report</title>
<polygon fill="#efefef" stroke="transparent" points="851.5,-1262.5 851.5,-1297.5 1208.5,-1297.5 1208.5,-1262.5 851.5,-1262.5"/>
<polygon fill="none" stroke="#000000" points="851.5,-1262.5 851.5,-1297.5 1208.5,-1297.5 1208.5,-1262.5 851.5,-1262.5"/>
<text text-anchor="start" x="858.1827" y="-1275.3" font-family="Arial Bold" font-size="18.00" fill="#000000">public.channel_post_report</text>
<text text-anchor="start" x="1074.2493" y="-1275.3" font-family="Arial" font-size="14.00" fill="#000000">    </text>
<text text-anchor="start" x="1108.4541" y="-1275.3" font-family="Arial" font-size="14.00" fill="#666666">[BASE TABLE]</text>
<polygon fill="none" stroke="#000000" points="851.5,-1232.5 851.5,-1262.5 1208.5,-1262.5 1208.5,-1232.5 851.5,-1232.5"/>
<text text-anchor="start" x="858.5" y="-1243.9" font-family="Arial" font-size="14.00" fill="#000000">id    </text>
<text text-anchor="start" x="903.594" y="-1243.9" font-family="Arial" font-size="14.00" fill="#666666">[uuid]</text>
<polygon fill="none" stroke="#000000" points="851.5,-1202.5 851.5,-1232.5 1208.5,-1232.5 1208.5,-1202.5 851.5,-1202.5"/>
<text text-anchor="start" x="858.5" y="-1213.9" font-family="Arial" font-size="14.00" fill="#000000">post_id    </text>
<text text-anchor="start" x="937.8324" y="-1213.9" font-family="Arial" font-size="14.00" fill="#666666">[uuid]</text>
<polygon fill="none" stroke="#000000" points="851.5,-1172.5 851.5,-1202.5 1208.5,-1202.5 1208.5,-1172.5 851.5,-1172.5"/>
<text text-anchor="start" x="858.5" y="-1183.9" font-family="Arial" font-size="14.00" fill="#000000">description    </text>
<text text-anchor="start" x="960.3822" y="-1183.9" font-family="Arial" font-size="14.00" fill="#666666">[text]</text>
<polygon fill="none" stroke="#000000" points="851.5,-1142.5 851.5,-1172.5 1208.5,-1172.5 1208.5,-1142.5 851.5,-1142.5"/>
<text text-anchor="start" x="858.5" y="-1153.9" font-family="Arial" font-size="14.00" fill="#000000">resolution    </text>
<text text-anchor="start" x="953.3822" y="-1153.9" font-family="Arial" font-size="14.00" fill="#666666">[text]</text>
<polygon fill="none" stroke="#000000" points="851.5,-1112.5 851.5,-1142.5 1208.5,-1142.5 1208.5,-1112.5 851.5,-1112.5"/>
<text text-anchor="start" x="858.5" y="-1123.9" font-family="Arial" font-size="14.00" fill="#000000">status    </text>
<text text-anchor="start" x="930.0512" y="-1123.9" font-family="Arial" font-size="14.00" fill="#666666">[report_status]</text>
</g>
<!-- public.channel_post_report&#45;&gt;public.post -->
<g id="edge3" class="edge">
<title>public.channel_post_report:post_id&#45;&gt;public.post:id</title>
<path fill="none" stroke="#000000" d="M1218.6519,-1216.6792C1269.6494,-1207.6817 1233.3034,-1126.6505 1208.5,-1070 1183.2708,-1012.3769 1129.7292,-1031.6231 1104.5,-974 1087.2984,-934.7118 1061.6111,-877.5 1104.5,-877.5"/>
<polygon fill="#000000" stroke="#000000" points="1218.4675,-1216.694 1208.1373,-1213.0146 1213.4837,-1217.097 1208.5,-1217.5 1208.5,-1217.5 1208.5,-1217.5 1213.4837,-1217.097 1208.8627,-1221.9854 1218.4675,-1216.694 1218.4675,-1216.694"/>
<text text-anchor="start" x="1215.8845" y="-1227.5" font-family="Arial" font-size="10.00" fill="#000000">FOREIGN KEY (post_id) REFERENCES post(id)</text>
</g>
<!-- public.post_report -->
<g id="node5" class="node">
<title>public.post_report</title>
<polygon fill="#efefef" stroke="transparent" points="1312.5,-1262.5 1312.5,-1297.5 1596.5,-1297.5 1596.5,-1262.5 1312.5,-1262.5"/>
<polygon fill="none" stroke="#000000" points="1312.5,-1262.5 1312.5,-1297.5 1596.5,-1297.5 1596.5,-1262.5 1312.5,-1262.5"/>
<text text-anchor="start" x="1319.1984" y="-1275.3" font-family="Arial Bold" font-size="18.00" fill="#000000">public.post_report</text>
<text text-anchor="start" x="1462.2336" y="-1275.3" font-family="Arial" font-size="14.00" fill="#000000">    </text>
<text text-anchor="start" x="1496.4384" y="-1275.3" font-family="Arial" font-size="14.00" fill="#666666">[BASE TABLE]</text>
<polygon fill="none" stroke="#000000" points="1312.5,-1232.5 1312.5,-1262.5 1596.5,-1262.5 1596.5,-1232.5 1312.5,-1232.5"/>
<text text-anchor="start" x="1319.5" y="-1243.9" font-family="Arial" font-size="14.00" fill="#000000">id    </text>
<text text-anchor="start" x="1364.594" y="-1243.9" font-family="Arial" font-size="14.00" fill="#666666">[uuid]</text>
<polygon fill="none" stroke="#000000" points="1312.5,-1202.5 1312.5,-1232.5 1596.5,-1232.5 1596.5,-1202.5 1312.5,-1202.5"/>
<text text-anchor="start" x="1319.5" y="-1213.9" font-family="Arial" font-size="14.00" fill="#000000">post_id    </text>
<text text-anchor="start" x="1398.8324" y="-1213.9" font-family="Arial" font-size="14.00" fill="#666666">[uuid]</text>
<polygon fill="none" stroke="#000000" points="1312.5,-1172.5 1312.5,-1202.5 1596.5,-1202.5 1596.5,-1172.5 1312.5,-1172.5"/>
<text text-anchor="start" x="1319.5" y="-1183.9" font-family="Arial" font-size="14.00" fill="#000000">description    </text>
<text text-anchor="start" x="1421.3822" y="-1183.9" font-family="Arial" font-size="14.00" fill="#666666">[text]</text>
<polygon fill="none" stroke="#000000" points="1312.5,-1142.5 1312.5,-1172.5 1596.5,-1172.5 1596.5,-1142.5 1312.5,-1142.5"/>
<text text-anchor="start" x="1319.5" y="-1153.9" font-family="Arial" font-size="14.00" fill="#000000">resolution    </text>
<text text-anchor="start" x="1414.3822" y="-1153.9" font-family="Arial" font-size="14.00" fill="#666666">[text]</text>
<polygon fill="none" stroke="#000000" points="1312.5,-1112.5 1312.5,-1142.5 1596.5,-1142.5 1596.5,-1112.5 1312.5,-1112.5"/>
<text text-anchor="start" x="1319.5" y="-1123.9" font-family="Arial" font-size="14.00" fill="#000000">status    </text>
<text text-anchor="start" x="1391.0512" y="-1123.9" font-family="Arial" font-size="14.00" fill="#666666">[report_status]</text>
</g>
<!-- public.post_report&#45;&gt;public.post -->
<g id="edge4" class="edge">
<title>public.post_report:post_id&#45;&gt;public.post:id</title>
<path fill="none" stroke="#000000" d="M1302.4063,-1216.7012C1252.0356,-1207.9398 1293.7435,-1128.9295 1312.5,-1070 1328.3581,-1020.1768 1364.6419,-1023.8232 1380.5,-974 1393.508,-933.1313 1423.3889,-877.5 1380.5,-877.5"/>
<polygon fill="#000000" stroke="#000000" points="1302.5312,-1216.711 1312.1449,-1221.986 1307.5156,-1217.1055 1312.5,-1217.5 1312.5,-1217.5 1312.5,-1217.5 1307.5156,-1217.1055 1312.8551,-1213.014 1302.5312,-1216.711 1302.5312,-1216.711"/>
<text text-anchor="start" x="1262.1345" y="-1201.5" font-family="Arial" font-size="10.00" fill="#000000">FOREIGN KEY (post_id) REFERENCES post(id)</text>
</g>
<!-- public.post_tag -->
<g id="node6" class="node">
<title>public.post_tag</title>
<polygon fill="#efefef" stroke="transparent" points="1700.5,-1232.5 1700.5,-1267.5 1962.5,-1267.5 1962.5,-1232.5 1700.5,-1232.5"/>
<polygon fill="none" stroke="#000000" points="1700.5,-1232.5 1700.5,-1267.5 1962.5,-1267.5 1962.5,-1232.5 1700.5,-1232.5"/>
<text text-anchor="start" x="1707.1937" y="-1245.3" font-family="Arial Bold" font-size="18.00" fill="#000000">public.post_tag</text>
<text text-anchor="start" x="1828.2383" y="-1245.3" font-family="Arial" font-size="14.00" fill="#000000">    </text>
<text text-anchor="start" x="1862.4431" y="-1245.3" font-family="Arial" font-size="14.00" fill="#666666">[BASE TABLE]</text>
<polygon fill="none" stroke="#000000" points="1700.5,-1202.5 1700.5,-1232.5 1962.5,-1232.5 1962.5,-1202.5 1700.5,-1202.5"/>
<text text-anchor="start" x="1707.5" y="-1213.9" font-family="Arial" font-size="14.00" fill="#000000">id    </text>
<text text-anchor="start" x="1752.594" y="-1213.9" font-family="Arial" font-size="14.00" fill="#666666">[uuid]</text>
<polygon fill="none" stroke="#000000" points="1700.5,-1172.5 1700.5,-1202.5 1962.5,-1202.5 1962.5,-1172.5 1700.5,-1172.5"/>
<text text-anchor="start" x="1707.5" y="-1183.9" font-family="Arial" font-size="14.00" fill="#000000">post_id    </text>
<text text-anchor="start" x="1786.8324" y="-1183.9" font-family="Arial" font-size="14.00" fill="#666666">[uuid]</text>
<polygon fill="none" stroke="#000000" points="1700.5,-1142.5 1700.5,-1172.5 1962.5,-1172.5 1962.5,-1142.5 1700.5,-1142.5"/>
<text text-anchor="start" x="1707.5" y="-1153.9" font-family="Arial" font-size="14.00" fill="#000000">tag_id    </text>
<text text-anchor="start" x="1779.8324" y="-1153.9" font-family="Arial" font-size="14.00" fill="#666666">[uuid]</text>
</g>
<!-- public.post_tag&#45;&gt;public.post -->
<g id="edge5" class="edge">
<title>public.post_tag:post_id&#45;&gt;public.post:id</title>
<path fill="none" stroke="#000000" d="M1690.3948,-1186.8217C1625.4833,-1177.3136 1698.9771,-1070.1345 1648.5,-1010 1563.0724,-908.2282 1513.3735,-877.5 1380.5,-877.5"/>
<polygon fill="#000000" stroke="#000000" points="1690.5225,-1186.8301 1700.1986,-1191.9899 1695.5112,-1187.1651 1700.5,-1187.5 1700.5,-1187.5 1700.5,-1187.5 1695.5112,-1187.1651 1700.8014,-1183.0101 1690.5225,-1186.8301 1690.5225,-1186.8301"/>
<text text-anchor="start" x="1534.6345" y="-1171.5" font-family="Arial" font-size="10.00" fill="#000000">FOREIGN KEY (post_id) REFERENCES post(id)</text>
</g>
<!-- public.post_vote -->
<g id="node7" class="node">
<title>public.post_vote</title>
<polygon fill="#efefef" stroke="transparent" points="2067.5,-1232.5 2067.5,-1267.5 2338.5,-1267.5 2338.5,-1232.5 2067.5,-1232.5"/>
<polygon fill="none" stroke="#000000" points="2067.5,-1232.5 2067.5,-1267.5 2338.5,-1267.5 2338.5,-1232.5 2067.5,-1232.5"/>
<text text-anchor="start" x="2074.1937" y="-1245.3" font-family="Arial Bold" font-size="18.00" fill="#000000">public.post_vote</text>
<text text-anchor="start" x="2204.2383" y="-1245.3" font-family="Arial" font-size="14.00" fill="#000000">    </text>
<text text-anchor="start" x="2238.4431" y="-1245.3" font-family="Arial" font-size="14.00" fill="#666666">[BASE TABLE]</text>
<polygon fill="none" stroke="#000000" points="2067.5,-1202.5 2067.5,-1232.5 2338.5,-1232.5 2338.5,-1202.5 2067.5,-1202.5"/>
<text text-anchor="start" x="2074.5" y="-1213.9" font-family="Arial" font-size="14.00" fill="#000000">post_id    </text>
<text text-anchor="start" x="2153.8324" y="-1213.9" font-family="Arial" font-size="14.00" fill="#666666">[uuid]</text>
<polygon fill="none" stroke="#000000" points="2067.5,-1172.5 2067.5,-1202.5 2338.5,-1202.5 2338.5,-1172.5 2067.5,-1172.5"/>
<text text-anchor="start" x="2074.5" y="-1183.9" font-family="Arial" font-size="14.00" fill="#000000">user_id    </text>
<text text-anchor="start" x="2154.6024" y="-1183.9" font-family="Arial" font-size="14.00" fill="#666666">[uuid]</text>
<polygon fill="none" stroke="#000000" points="2067.5,-1142.5 2067.5,-1172.5 2338.5,-1172.5 2338.5,-1142.5 2067.5,-1142.5"/>
<text text-anchor="start" x="2074.5" y="-1153.9" font-family="Arial" font-size="14.00" fill="#000000">vote    </text>
<text text-anchor="start" x="2135.1606" y="-1153.9" font-family="Arial" font-size="14.00" fill="#666666">[vote]</text>
</g>
<!-- public.post_vote&#45;&gt;public.post -->
<g id="edge6" class="edge">
<title>public.post_vote:post_id&#45;&gt;public.post:id</title>
<path fill="none" stroke="#000000" d="M2057.2664,-1216.8643C1980.711,-1206.5459 2080.5841,-1073.2354 2014.5,-1010 1910.5074,-910.4902 1524.4328,-877.5 1380.5,-877.5"/>
<polygon fill="#000000" stroke="#000000" points="2057.5192,-1216.88 2067.221,-1221.9913 2062.5096,-1217.19 2067.5,-1217.5 2067.5,-1217.5 2067.5,-1217.5 2062.5096,-1217.19 2067.779,-1213.0087 2057.5192,-1216.88 2057.5192,-1216.88"/>
<text text-anchor="start" x="1843.8845" y="-1227.5" font-family="Arial" font-size="10.00" fill="#000000">FOREIGN KEY (post_id) REFERENCES post(id)</text>
</g>
</g>
</svg>
