<?xml version="1.0" encoding="UTF-8" standalone="no"?>
<!DOCTYPE svg PUBLIC "-//W3C//DTD SVG 1.1//EN"
 "http://www.w3.org/Graphics/SVG/1.1/DTD/svg11.dtd">
<!-- Generated by graphviz version 12.1.2 (20240928.0832)
 -->
<!-- Title: public.post_vote Pages: 1 -->
<svg width="853pt" height="787pt"
 viewBox="0.00 0.00 852.56 786.80" xmlns="http://www.w3.org/2000/svg" xmlns:xlink="http://www.w3.org/1999/xlink">
<g id="graph0" class="graph" transform="scale(1 1) rotate(0) translate(4 782.8)">
<title>public.post_vote</title>
<polygon fill="white" stroke="none" points="-4,4 -4,-782.8 848.56,-782.8 848.56,4 -4,4"/>
<!-- public.post_vote -->
<g id="node1" class="node">
<title>public.post_vote</title>
<polygon fill="#efefef" stroke="none" points="342.86,-697 342.86,-732.6 600.83,-732.6 600.83,-697 342.86,-697"/>
<polygon fill="none" stroke="black" points="342.86,-697 342.86,-732.6 600.83,-732.6 600.83,-697 342.86,-697"/>
<text text-anchor="start" x="349.86" y="-710.4" font-family="Arial Bold" font-size="18.00">public.post_vote</text>
<text text-anchor="start" x="469.34" y="-710.4" font-family="Arial" font-size="14.00">    </text>
<text text-anchor="start" x="500.46" y="-710.4" font-family="Arial" font-size="14.00" fill="#666666">[BASE TABLE]</text>
<polygon fill="none" stroke="black" points="342.86,-666.2 342.86,-697 600.83,-697 600.83,-666.2 342.86,-666.2"/>
<text text-anchor="start" x="349.86" y="-678.4" font-family="Arial" font-size="14.00">post_id </text>
<text text-anchor="start" x="398.89" y="-678.4" font-family="Arial" font-size="14.00" fill="#666666">[uuid]</text>
<polygon fill="none" stroke="black" points="342.86,-635.4 342.86,-666.2 600.83,-666.2 600.83,-635.4 342.86,-635.4"/>
<text text-anchor="start" x="349.86" y="-647.6" font-family="Arial" font-size="14.00">user_id </text>
<text text-anchor="start" x="399.66" y="-647.6" font-family="Arial" font-size="14.00" fill="#666666">[uuid]</text>
<polygon fill="none" stroke="black" points="342.86,-604.6 342.86,-635.4 600.83,-635.4 600.83,-604.6 342.86,-604.6"/>
<text text-anchor="start" x="349.86" y="-616.8" font-family="Arial" font-size="14.00">vote </text>
<text text-anchor="start" x="380.21" y="-616.8" font-family="Arial" font-size="14.00" fill="#666666">[vote]</text>
<polygon fill="none" stroke="black" stroke-width="3" points="341.36,-603.1 341.36,-734.1 602.33,-734.1 602.33,-603.1 341.36,-603.1"/>
</g>
<!-- public.post -->
<g id="node2" class="node">
<title>public.post</title>
<polygon fill="#efefef" stroke="none" points="143.32,-443.6 143.32,-479.2 420.36,-479.2 420.36,-443.6 143.32,-443.6"/>
<polygon fill="none" stroke="black" points="143.32,-443.6 143.32,-479.2 420.36,-479.2 420.36,-443.6 143.32,-443.6"/>
<text text-anchor="start" x="179.85" y="-457" font-family="Arial Bold" font-size="18.00">public.post</text>
<text text-anchor="start" x="259.35" y="-457" font-family="Arial" font-size="14.00">    </text>
<text text-anchor="start" x="290.47" y="-457" font-family="Arial" font-size="14.00" fill="#666666">[BASE TABLE]</text>
<polygon fill="none" stroke="black" points="143.32,-412.8 143.32,-443.6 420.36,-443.6 420.36,-412.8 143.32,-412.8"/>
<text text-anchor="start" x="150.32" y="-425" font-family="Arial" font-size="14.00">id </text>
<text text-anchor="start" x="165.11" y="-425" font-family="Arial" font-size="14.00" fill="#666666">[uuid]</text>
<polygon fill="none" stroke="black" points="143.32,-382 143.32,-412.8 420.36,-412.8 420.36,-382 143.32,-382"/>
<text text-anchor="start" x="150.32" y="-394.2" font-family="Arial" font-size="14.00">name </text>
<text text-anchor="start" x="189.23" y="-394.2" font-family="Arial" font-size="14.00" fill="#666666">[text]</text>
<polygon fill="none" stroke="black" points="143.32,-351.2 143.32,-382 420.36,-382 420.36,-351.2 143.32,-351.2"/>
<text text-anchor="start" x="150.32" y="-363.4" font-family="Arial" font-size="14.00">description </text>
<text text-anchor="start" x="221.92" y="-363.4" font-family="Arial" font-size="14.00" fill="#666666">[text]</text>
<polygon fill="none" stroke="black" points="143.32,-320.4 143.32,-351.2 420.36,-351.2 420.36,-320.4 143.32,-320.4"/>
<text text-anchor="start" x="150.32" y="-332.6" font-family="Arial" font-size="14.00">alt_text </text>
<text text-anchor="start" x="199.35" y="-332.6" font-family="Arial" font-size="14.00" fill="#666666">[text]</text>
<polygon fill="none" stroke="black" points="143.32,-289.6 143.32,-320.4 420.36,-320.4 420.36,-289.6 143.32,-289.6"/>
<text text-anchor="start" x="150.32" y="-301.8" font-family="Arial" font-size="14.00">created_by </text>
<text text-anchor="start" x="223.48" y="-301.8" font-family="Arial" font-size="14.00" fill="#666666">[uuid]</text>
<polygon fill="none" stroke="black" points="143.32,-258.8 143.32,-289.6 420.36,-289.6 420.36,-258.8 143.32,-258.8"/>
<text text-anchor="start" x="150.32" y="-271" font-family="Arial" font-size="14.00">channel_id </text>
<text text-anchor="start" x="221.94" y="-271" font-family="Arial" font-size="14.00" fill="#666666">[uuid]</text>
<polygon fill="none" stroke="black" points="143.32,-228 143.32,-258.8 420.36,-258.8 420.36,-228 143.32,-228"/>
<text text-anchor="start" x="150.32" y="-240.2" font-family="Arial" font-size="14.00">video_id </text>
<text text-anchor="start" x="206.37" y="-240.2" font-family="Arial" font-size="14.00" fill="#666666">[text]</text>
<polygon fill="none" stroke="black" points="143.32,-197.2 143.32,-228 420.36,-228 420.36,-197.2 143.32,-197.2"/>
<text text-anchor="start" x="150.32" y="-209.4" font-family="Arial" font-size="14.00">created_on </text>
<text text-anchor="start" x="224.27" y="-209.4" font-family="Arial" font-size="14.00" fill="#666666">[timestamp without time zone]</text>
<polygon fill="none" stroke="black" points="143.32,-166.4 143.32,-197.2 420.36,-197.2 420.36,-166.4 143.32,-166.4"/>
<text text-anchor="start" x="150.32" y="-178.6" font-family="Arial" font-size="14.00">updated_on </text>
<text text-anchor="start" x="228.18" y="-178.6" font-family="Arial" font-size="14.00" fill="#666666">[timestamp without time zone]</text>
<polygon fill="none" stroke="black" points="143.32,-135.6 143.32,-166.4 420.36,-166.4 420.36,-135.6 143.32,-135.6"/>
<text text-anchor="start" x="150.32" y="-147.8" font-family="Arial" font-size="14.00">status </text>
<text text-anchor="start" x="191.57" y="-147.8" font-family="Arial" font-size="14.00" fill="#666666">[post_status]</text>
<polygon fill="none" stroke="black" points="143.32,-104.8 143.32,-135.6 420.36,-135.6 420.36,-104.8 143.32,-104.8"/>
<text text-anchor="start" x="150.32" y="-117" font-family="Arial" font-size="14.00">upvotes </text>
<text text-anchor="start" x="203.25" y="-117" font-family="Arial" font-size="14.00" fill="#666666">[integer]</text>
<polygon fill="none" stroke="black" points="143.32,-74 143.32,-104.8 420.36,-104.8 420.36,-74 143.32,-74"/>
<text text-anchor="start" x="150.32" y="-86.2" font-family="Arial" font-size="14.00">downvotes </text>
<text text-anchor="start" x="221.15" y="-86.2" font-family="Arial" font-size="14.00" fill="#666666">[integer]</text>
<polygon fill="none" stroke="black" points="143.32,-43.2 143.32,-74 420.36,-74 420.36,-43.2 143.32,-43.2"/>
<text text-anchor="start" x="150.32" y="-55.4" font-family="Arial" font-size="14.00">comments </text>
<text text-anchor="start" x="218.79" y="-55.4" font-family="Arial" font-size="14.00" fill="#666666">[integer]</text>
</g>
<!-- public.post_vote&#45;&gt;public.post -->
<g id="edge1" class="edge">
<title>public.post_vote:post_id&#45;&gt;public.post:id</title>
<path fill="none" stroke="black" d="M331.48,-680.49C290.79,-670.9 315.3,-601.2 342.86,-558.4 363.42,-526.46 399.76,-554.31 420.36,-522.4 443.07,-487.23 463.23,-428.2 421.36,-428.2"/>
<polygon fill="black" stroke="black" points="331.58,-680.5 341.05,-686.04 336.88,-681.07 341.19,-681.53 341.19,-681.53 341.19,-681.53 336.88,-681.07 342,-677.09 331.58,-680.5"/>
<text text-anchor="start" x="7" y="-691.6" font-family="Arial" font-size="10.00">FOREIGN KEY (post_id) REFERENCES post(id) ON DELETE CASCADE</text>
</g>
<!-- public.user -->
<g id="node3" class="node">
<title>public.user</title>
<polygon fill="#efefef" stroke="none" points="524.32,-397.4 524.32,-433 801.36,-433 801.36,-397.4 524.32,-397.4"/>
<polygon fill="none" stroke="black" points="524.32,-397.4 524.32,-433 801.36,-433 801.36,-397.4 524.32,-397.4"/>
<text text-anchor="start" x="560.86" y="-410.8" font-family="Arial Bold" font-size="18.00">public.user</text>
<text text-anchor="start" x="640.34" y="-410.8" font-family="Arial" font-size="14.00">    </text>
<text text-anchor="start" x="671.46" y="-410.8" font-family="Arial" font-size="14.00" fill="#666666">[BASE TABLE]</text>
<polygon fill="none" stroke="black" points="524.32,-366.6 524.32,-397.4 801.36,-397.4 801.36,-366.6 524.32,-366.6"/>
<text text-anchor="start" x="531.32" y="-378.8" font-family="Arial" font-size="14.00">id </text>
<text text-anchor="start" x="546.11" y="-378.8" font-family="Arial" font-size="14.00" fill="#666666">[uuid]</text>
<polygon fill="none" stroke="black" points="524.32,-335.8 524.32,-366.6 801.36,-366.6 801.36,-335.8 524.32,-335.8"/>
<text text-anchor="start" x="531.32" y="-348" font-family="Arial" font-size="14.00">username </text>
<text text-anchor="start" x="597.47" y="-348" font-family="Arial" font-size="14.00" fill="#666666">[varchar(25)]</text>
<polygon fill="none" stroke="black" points="524.32,-305 524.32,-335.8 801.36,-335.8 801.36,-305 524.32,-305"/>
<text text-anchor="start" x="531.32" y="-317.2" font-family="Arial" font-size="14.00">profile_image </text>
<text text-anchor="start" x="619.26" y="-317.2" font-family="Arial" font-size="14.00" fill="#666666">[text]</text>
<polygon fill="none" stroke="black" points="524.32,-274.2 524.32,-305 801.36,-305 801.36,-274.2 524.32,-274.2"/>
<text text-anchor="start" x="531.32" y="-286.4" font-family="Arial" font-size="14.00">role </text>
<text text-anchor="start" x="558.56" y="-286.4" font-family="Arial" font-size="14.00" fill="#666666">[site_role]</text>
<polygon fill="none" stroke="black" points="524.32,-243.4 524.32,-274.2 801.36,-274.2 801.36,-243.4 524.32,-243.4"/>
<text text-anchor="start" x="531.32" y="-255.6" font-family="Arial" font-size="14.00">created_on </text>
<text text-anchor="start" x="605.27" y="-255.6" font-family="Arial" font-size="14.00" fill="#666666">[timestamp without time zone]</text>
<polygon fill="none" stroke="black" points="524.32,-212.6 524.32,-243.4 801.36,-243.4 801.36,-212.6 524.32,-212.6"/>
<text text-anchor="start" x="531.32" y="-224.8" font-family="Arial" font-size="14.00">updated_on </text>
<text text-anchor="start" x="609.18" y="-224.8" font-family="Arial" font-size="14.00" fill="#666666">[timestamp without time zone]</text>
<polygon fill="none" stroke="black" points="524.32,-181.8 524.32,-212.6 801.36,-212.6 801.36,-181.8 524.32,-181.8"/>
<text text-anchor="start" x="531.32" y="-194" font-family="Arial" font-size="14.00">discord_id </text>
<text text-anchor="start" x="599.03" y="-194" font-family="Arial" font-size="14.00" fill="#666666">[bigint]</text>
<polygon fill="none" stroke="black" points="524.32,-151 524.32,-181.8 801.36,-181.8 801.36,-151 524.32,-151"/>
<text text-anchor="start" x="531.32" y="-163.2" font-family="Arial" font-size="14.00">github_id </text>
<text text-anchor="start" x="592.04" y="-163.2" font-family="Arial" font-size="14.00" fill="#666666">[integer]</text>
<polygon fill="none" stroke="black" points="524.32,-120.2 524.32,-151 801.36,-151 801.36,-120.2 524.32,-120.2"/>
<text text-anchor="start" x="531.32" y="-132.4" font-family="Arial" font-size="14.00">followers </text>
<text text-anchor="start" x="590.46" y="-132.4" font-family="Arial" font-size="14.00" fill="#666666">[integer]</text>
<polygon fill="none" stroke="black" points="524.32,-89.4 524.32,-120.2 801.36,-120.2 801.36,-89.4 524.32,-89.4"/>
<text text-anchor="start" x="531.32" y="-101.6" font-family="Arial" font-size="14.00">following </text>
<text text-anchor="start" x="589.69" y="-101.6" font-family="Arial" font-size="14.00" fill="#666666">[integer]</text>
</g>
<!-- public.post_vote&#45;&gt;public.user -->
<g id="edge2" class="edge">
<title>public.post_vote:user_id&#45;&gt;public.user:id</title>
<path fill="none" stroke="black" d="M612,-649.31C637.77,-640.36 614.59,-592.81 600.83,-558.4 582.31,-512.05 542.84,-522.55 524.32,-476.2 508.79,-437.32 481.46,-382 523.32,-382"/>
<polygon fill="black" stroke="black" points="612.06,-649.3 601.51,-646.3 606.78,-650.08 602.49,-650.7 602.49,-650.7 602.49,-650.7 606.78,-650.08 602.82,-655.2 612.06,-649.3"/>
<text text-anchor="start" x="608.83" y="-660.8" font-family="Arial" font-size="10.00">FOREIGN KEY (user_id) REFERENCES &quot;user&quot;(id)</text>
</g>
</g>
</svg>
