<?xml version="1.0" encoding="UTF-8" standalone="no"?>
<!DOCTYPE svg PUBLIC "-//W3C//DTD SVG 1.1//EN"
 "http://www.w3.org/Graphics/SVG/1.1/DTD/svg11.dtd">
<!-- Generated by graphviz version 12.1.2 (20240928.0832)
 -->
<!-- Title: public.post_report Pages: 1 -->
<svg width="876pt" height="879pt"
 viewBox="0.00 0.00 876.31 879.20" xmlns="http://www.w3.org/2000/svg" xmlns:xlink="http://www.w3.org/1999/xlink">
<g id="graph0" class="graph" transform="scale(1 1) rotate(0) translate(4 875.2)">
<title>public.post_report</title>
<polygon fill="white" stroke="none" points="-4,4 -4,-875.2 872.31,-875.2 872.31,4 -4,4"/>
<!-- public.post_report -->
<g id="node1" class="node">
<title>public.post_report</title>
<polygon fill="#efefef" stroke="none" points="342.3,-789.4 342.3,-825 612.27,-825 612.27,-789.4 342.3,-789.4"/>
<polygon fill="none" stroke="black" points="342.3,-789.4 342.3,-825 612.27,-825 612.27,-789.4 342.3,-789.4"/>
<text text-anchor="start" x="349.3" y="-802.8" font-family="Arial Bold" font-size="18.00">public.post_report</text>
<text text-anchor="start" x="480.78" y="-802.8" font-family="Arial" font-size="14.00">    </text>
<text text-anchor="start" x="511.9" y="-802.8" font-family="Arial" font-size="14.00" fill="#666666">[BASE TABLE]</text>
<polygon fill="none" stroke="black" points="342.3,-758.6 342.3,-789.4 612.27,-789.4 612.27,-758.6 342.3,-758.6"/>
<text text-anchor="start" x="349.3" y="-770.8" font-family="Arial" font-size="14.00">id </text>
<text text-anchor="start" x="364.09" y="-770.8" font-family="Arial" font-size="14.00" fill="#666666">[uuid]</text>
<polygon fill="none" stroke="black" points="342.3,-727.8 342.3,-758.6 612.27,-758.6 612.27,-727.8 342.3,-727.8"/>
<text text-anchor="start" x="349.3" y="-740" font-family="Arial" font-size="14.00">post_id </text>
<text text-anchor="start" x="398.34" y="-740" font-family="Arial" font-size="14.00" fill="#666666">[uuid]</text>
<polygon fill="none" stroke="black" points="342.3,-697 342.3,-727.8 612.27,-727.8 612.27,-697 342.3,-697"/>
<text text-anchor="start" x="349.3" y="-709.2" font-family="Arial" font-size="14.00">reporter_id </text>
<text text-anchor="start" x="420.9" y="-709.2" font-family="Arial" font-size="14.00" fill="#666666">[uuid]</text>
<polygon fill="none" stroke="black" points="342.3,-666.2 342.3,-697 612.27,-697 612.27,-666.2 342.3,-666.2"/>
<text text-anchor="start" x="349.3" y="-678.4" font-family="Arial" font-size="14.00">description </text>
<text text-anchor="start" x="420.9" y="-678.4" font-family="Arial" font-size="14.00" fill="#666666">[text]</text>
<polygon fill="none" stroke="black" points="342.3,-635.4 342.3,-666.2 612.27,-666.2 612.27,-635.4 342.3,-635.4"/>
<text text-anchor="start" x="349.3" y="-647.6" font-family="Arial" font-size="14.00">resolution </text>
<text text-anchor="start" x="413.9" y="-647.6" font-family="Arial" font-size="14.00" fill="#666666">[text]</text>
<polygon fill="none" stroke="black" points="342.3,-604.6 342.3,-635.4 612.27,-635.4 612.27,-604.6 342.3,-604.6"/>
<text text-anchor="start" x="349.3" y="-616.8" font-family="Arial" font-size="14.00">status </text>
<text text-anchor="start" x="390.55" y="-616.8" font-family="Arial" font-size="14.00" fill="#666666">[report_status]</text>
<polygon fill="none" stroke="black" stroke-width="3" points="340.8,-603.1 340.8,-826.5 613.77,-826.5 613.77,-603.1 340.8,-603.1"/>
</g>
<!-- public.post -->
<g id="node2" class="node">
<title>public.post</title>
<polygon fill="#efefef" stroke="none" points="148.77,-443.6 148.77,-479.2 425.81,-479.2 425.81,-443.6 148.77,-443.6"/>
<polygon fill="none" stroke="black" points="148.77,-443.6 148.77,-479.2 425.81,-479.2 425.81,-443.6 148.77,-443.6"/>
<text text-anchor="start" x="185.29" y="-457" font-family="Arial Bold" font-size="18.00">public.post</text>
<text text-anchor="start" x="264.79" y="-457" font-family="Arial" font-size="14.00">    </text>
<text text-anchor="start" x="295.91" y="-457" font-family="Arial" font-size="14.00" fill="#666666">[BASE TABLE]</text>
<polygon fill="none" stroke="black" points="148.77,-412.8 148.77,-443.6 425.81,-443.6 425.81,-412.8 148.77,-412.8"/>
<text text-anchor="start" x="155.77" y="-425" font-family="Arial" font-size="14.00">id </text>
<text text-anchor="start" x="170.55" y="-425" font-family="Arial" font-size="14.00" fill="#666666">[uuid]</text>
<polygon fill="none" stroke="black" points="148.77,-382 148.77,-412.8 425.81,-412.8 425.81,-382 148.77,-382"/>
<text text-anchor="start" x="155.77" y="-394.2" font-family="Arial" font-size="14.00">name </text>
<text text-anchor="start" x="194.68" y="-394.2" font-family="Arial" font-size="14.00" fill="#666666">[text]</text>
<polygon fill="none" stroke="black" points="148.77,-351.2 148.77,-382 425.81,-382 425.81,-351.2 148.77,-351.2"/>
<text text-anchor="start" x="155.77" y="-363.4" font-family="Arial" font-size="14.00">description </text>
<text text-anchor="start" x="227.36" y="-363.4" font-family="Arial" font-size="14.00" fill="#666666">[text]</text>
<polygon fill="none" stroke="black" points="148.77,-320.4 148.77,-351.2 425.81,-351.2 425.81,-320.4 148.77,-320.4"/>
<text text-anchor="start" x="155.77" y="-332.6" font-family="Arial" font-size="14.00">alt_text </text>
<text text-anchor="start" x="204.79" y="-332.6" font-family="Arial" font-size="14.00" fill="#666666">[text]</text>
<polygon fill="none" stroke="black" points="148.77,-289.6 148.77,-320.4 425.81,-320.4 425.81,-289.6 148.77,-289.6"/>
<text text-anchor="start" x="155.77" y="-301.8" font-family="Arial" font-size="14.00">created_by </text>
<text text-anchor="start" x="228.93" y="-301.8" font-family="Arial" font-size="14.00" fill="#666666">[uuid]</text>
<polygon fill="none" stroke="black" points="148.77,-258.8 148.77,-289.6 425.81,-289.6 425.81,-258.8 148.77,-258.8"/>
<text text-anchor="start" x="155.77" y="-271" font-family="Arial" font-size="14.00">channel_id </text>
<text text-anchor="start" x="227.38" y="-271" font-family="Arial" font-size="14.00" fill="#666666">[uuid]</text>
<polygon fill="none" stroke="black" points="148.77,-228 148.77,-258.8 425.81,-258.8 425.81,-228 148.77,-228"/>
<text text-anchor="start" x="155.77" y="-240.2" font-family="Arial" font-size="14.00">video_id </text>
<text text-anchor="start" x="211.81" y="-240.2" font-family="Arial" font-size="14.00" fill="#666666">[text]</text>
<polygon fill="none" stroke="black" points="148.77,-197.2 148.77,-228 425.81,-228 425.81,-197.2 148.77,-197.2"/>
<text text-anchor="start" x="155.77" y="-209.4" font-family="Arial" font-size="14.00">created_on </text>
<text text-anchor="start" x="229.71" y="-209.4" font-family="Arial" font-size="14.00" fill="#666666">[timestamp without time zone]</text>
<polygon fill="none" stroke="black" points="148.77,-166.4 148.77,-197.2 425.81,-197.2 425.81,-166.4 148.77,-166.4"/>
<text text-anchor="start" x="155.77" y="-178.6" font-family="Arial" font-size="14.00">updated_on </text>
<text text-anchor="start" x="233.62" y="-178.6" font-family="Arial" font-size="14.00" fill="#666666">[timestamp without time zone]</text>
<polygon fill="none" stroke="black" points="148.77,-135.6 148.77,-166.4 425.81,-166.4 425.81,-135.6 148.77,-135.6"/>
<text text-anchor="start" x="155.77" y="-147.8" font-family="Arial" font-size="14.00">status </text>
<text text-anchor="start" x="197.01" y="-147.8" font-family="Arial" font-size="14.00" fill="#666666">[post_status]</text>
<polygon fill="none" stroke="black" points="148.77,-104.8 148.77,-135.6 425.81,-135.6 425.81,-104.8 148.77,-104.8"/>
<text text-anchor="start" x="155.77" y="-117" font-family="Arial" font-size="14.00">upvotes </text>
<text text-anchor="start" x="208.69" y="-117" font-family="Arial" font-size="14.00" fill="#666666">[integer]</text>
<polygon fill="none" stroke="black" points="148.77,-74 148.77,-104.8 425.81,-104.8 425.81,-74 148.77,-74"/>
<text text-anchor="start" x="155.77" y="-86.2" font-family="Arial" font-size="14.00">downvotes </text>
<text text-anchor="start" x="226.59" y="-86.2" font-family="Arial" font-size="14.00" fill="#666666">[integer]</text>
<polygon fill="none" stroke="black" points="148.77,-43.2 148.77,-74 425.81,-74 425.81,-43.2 148.77,-43.2"/>
<text text-anchor="start" x="155.77" y="-55.4" font-family="Arial" font-size="14.00">comments </text>
<text text-anchor="start" x="224.23" y="-55.4" font-family="Arial" font-size="14.00" fill="#666666">[integer]</text>
</g>
<!-- public.post_report&#45;&gt;public.post -->
<g id="edge1" class="edge">
<title>public.post_report:post_id&#45;&gt;public.post:id</title>
<path fill="none" stroke="black" d="M330.95,-742.51C262.58,-732.85 299.01,-623.82 342.3,-558.4 364.61,-524.7 403.42,-556.05 425.81,-522.4 449,-487.54 468.68,-428.2 426.81,-428.2"/>
<polygon fill="black" stroke="black" points="330.99,-742.51 340.67,-747.67 336.32,-742.87 340.64,-743.16 340.64,-743.16 340.64,-743.16 336.32,-742.87 341.27,-738.69 330.99,-742.51"/>
<text text-anchor="start" x="7" y="-753.2" font-family="Arial" font-size="10.00">FOREIGN KEY (post_id) REFERENCES post(id) ON DELETE SET NULL</text>
</g>
<!-- public.user -->
<g id="node3" class="node">
<title>public.user</title>
<polygon fill="#efefef" stroke="none" points="529.77,-397.4 529.77,-433 806.81,-433 806.81,-397.4 529.77,-397.4"/>
<polygon fill="none" stroke="black" points="529.77,-397.4 529.77,-433 806.81,-433 806.81,-397.4 529.77,-397.4"/>
<text text-anchor="start" x="566.3" y="-410.8" font-family="Arial Bold" font-size="18.00">public.user</text>
<text text-anchor="start" x="645.78" y="-410.8" font-family="Arial" font-size="14.00">    </text>
<text text-anchor="start" x="676.9" y="-410.8" font-family="Arial" font-size="14.00" fill="#666666">[BASE TABLE]</text>
<polygon fill="none" stroke="black" points="529.77,-366.6 529.77,-397.4 806.81,-397.4 806.81,-366.6 529.77,-366.6"/>
<text text-anchor="start" x="536.77" y="-378.8" font-family="Arial" font-size="14.00">id </text>
<text text-anchor="start" x="551.55" y="-378.8" font-family="Arial" font-size="14.00" fill="#666666">[uuid]</text>
<polygon fill="none" stroke="black" points="529.77,-335.8 529.77,-366.6 806.81,-366.6 806.81,-335.8 529.77,-335.8"/>
<text text-anchor="start" x="536.77" y="-348" font-family="Arial" font-size="14.00">username </text>
<text text-anchor="start" x="602.91" y="-348" font-family="Arial" font-size="14.00" fill="#666666">[varchar(25)]</text>
<polygon fill="none" stroke="black" points="529.77,-305 529.77,-335.8 806.81,-335.8 806.81,-305 529.77,-305"/>
<text text-anchor="start" x="536.77" y="-317.2" font-family="Arial" font-size="14.00">profile_image </text>
<text text-anchor="start" x="624.7" y="-317.2" font-family="Arial" font-size="14.00" fill="#666666">[text]</text>
<polygon fill="none" stroke="black" points="529.77,-274.2 529.77,-305 806.81,-305 806.81,-274.2 529.77,-274.2"/>
<text text-anchor="start" x="536.77" y="-286.4" font-family="Arial" font-size="14.00">role </text>
<text text-anchor="start" x="564" y="-286.4" font-family="Arial" font-size="14.00" fill="#666666">[site_role]</text>
<polygon fill="none" stroke="black" points="529.77,-243.4 529.77,-274.2 806.81,-274.2 806.81,-243.4 529.77,-243.4"/>
<text text-anchor="start" x="536.77" y="-255.6" font-family="Arial" font-size="14.00">created_on </text>
<text text-anchor="start" x="610.71" y="-255.6" font-family="Arial" font-size="14.00" fill="#666666">[timestamp without time zone]</text>
<polygon fill="none" stroke="black" points="529.77,-212.6 529.77,-243.4 806.81,-243.4 806.81,-212.6 529.77,-212.6"/>
<text text-anchor="start" x="536.77" y="-224.8" font-family="Arial" font-size="14.00">updated_on </text>
<text text-anchor="start" x="614.62" y="-224.8" font-family="Arial" font-size="14.00" fill="#666666">[timestamp without time zone]</text>
<polygon fill="none" stroke="black" points="529.77,-181.8 529.77,-212.6 806.81,-212.6 806.81,-181.8 529.77,-181.8"/>
<text text-anchor="start" x="536.77" y="-194" font-family="Arial" font-size="14.00">discord_id </text>
<text text-anchor="start" x="604.47" y="-194" font-family="Arial" font-size="14.00" fill="#666666">[bigint]</text>
<polygon fill="none" stroke="black" points="529.77,-151 529.77,-181.8 806.81,-181.8 806.81,-151 529.77,-151"/>
<text text-anchor="start" x="536.77" y="-163.2" font-family="Arial" font-size="14.00">github_id </text>
<text text-anchor="start" x="597.48" y="-163.2" font-family="Arial" font-size="14.00" fill="#666666">[integer]</text>
<polygon fill="none" stroke="black" points="529.77,-120.2 529.77,-151 806.81,-151 806.81,-120.2 529.77,-120.2"/>
<text text-anchor="start" x="536.77" y="-132.4" font-family="Arial" font-size="14.00">followers </text>
<text text-anchor="start" x="595.9" y="-132.4" font-family="Arial" font-size="14.00" fill="#666666">[integer]</text>
<polygon fill="none" stroke="black" points="529.77,-89.4 529.77,-120.2 806.81,-120.2 806.81,-89.4 529.77,-89.4"/>
<text text-anchor="start" x="536.77" y="-101.6" font-family="Arial" font-size="14.00">following </text>
<text text-anchor="start" x="595.13" y="-101.6" font-family="Arial" font-size="14.00" fill="#666666">[integer]</text>
</g>
<!-- public.post_report&#45;&gt;public.user -->
<g id="edge2" class="edge">
<title>public.post_report:reporter_id&#45;&gt;public.user:id</title>
<path fill="none" stroke="black" d="M623.59,-712.26C832.34,-706.2 544.92,-512.14 529.77,-476.2 513.5,-437.62 486.9,-382 528.77,-382"/>
<polygon fill="black" stroke="black" points="623.6,-712.25 613.54,-707.9 618.27,-712.33 613.94,-712.39 613.94,-712.39 613.94,-712.39 618.27,-712.33 613.67,-716.89 623.6,-712.25"/>
<text text-anchor="start" x="620.27" y="-722.4" font-family="Arial" font-size="10.00">FOREIGN KEY (reporter_id) REFERENCES &quot;user&quot;(id)</text>
</g>
</g>
</svg>
