<?xml version="1.0" encoding="UTF-8" standalone="no"?>
<!DOCTYPE svg PUBLIC "-//W3C//DTD SVG 1.1//EN"
 "http://www.w3.org/Graphics/SVG/1.1/DTD/svg11.dtd">
<!-- Generated by graphviz version 2.40.1 (20161225.0304)
 -->
<!-- Title: public.session Pages: 1 -->
<svg width="570pt" height="622pt"
 viewBox="0.00 0.00 569.50 622.00" xmlns="http://www.w3.org/2000/svg" xmlns:xlink="http://www.w3.org/1999/xlink">
<g id="graph0" class="graph" transform="scale(1 1) rotate(0) translate(4 618)">
<title>public.session</title>
<polygon fill="#ffffff" stroke="transparent" points="-4,4 -4,-618 565.5,-618 565.5,4 -4,4"/>
<!-- public.session -->
<g id="node1" class="node">
<title>public.session</title>
<polygon fill="#efefef" stroke="transparent" points="239,-532.5 239,-567.5 493,-567.5 493,-532.5 239,-532.5"/>
<polygon fill="none" stroke="#000000" points="239,-532.5 239,-567.5 493,-567.5 493,-532.5 239,-532.5"/>
<text text-anchor="start" x="245.705" y="-545.3" font-family="Arial Bold" font-size="18.00" fill="#000000">public.session</text>
<text text-anchor="start" x="358.727" y="-545.3" font-family="Arial" font-size="14.00" fill="#000000">    </text>
<text text-anchor="start" x="392.9318" y="-545.3" font-family="Arial" font-size="14.00" fill="#666666">[BASE TABLE]</text>
<polygon fill="none" stroke="#000000" points="239,-502.5 239,-532.5 493,-532.5 493,-502.5 239,-502.5"/>
<text text-anchor="start" x="246" y="-513.9" font-family="Arial" font-size="14.00" fill="#000000">id </text>
<text text-anchor="start" x="260.7798" y="-513.9" font-family="Arial" font-size="14.00" fill="#666666">[text]</text>
<polygon fill="none" stroke="#000000" points="239,-472.5 239,-502.5 493,-502.5 493,-472.5 239,-472.5"/>
<text text-anchor="start" x="246" y="-483.9" font-family="Arial" font-size="14.00" fill="#000000">user_id </text>
<text text-anchor="start" x="295.7882" y="-483.9" font-family="Arial" font-size="14.00" fill="#666666">[uuid]</text>
<polygon fill="none" stroke="#000000" points="239,-442.5 239,-472.5 493,-472.5 493,-442.5 239,-442.5"/>
<text text-anchor="start" x="246" y="-453.9" font-family="Arial" font-size="14.00" fill="#000000">expires_at </text>
<text text-anchor="start" x="314.4614" y="-453.9" font-family="Arial" font-size="14.00" fill="#666666">[timestamp with time zone]</text>
<polygon fill="none" stroke="#000000" stroke-width="3" points="237.5,-441.5 237.5,-569.5 494.5,-569.5 494.5,-441.5 237.5,-441.5"/>
</g>
<!-- public.user -->
<g id="node2" class="node">
<title>public.user</title>
<polygon fill="#efefef" stroke="transparent" points="212,-282.5 212,-317.5 519,-317.5 519,-282.5 212,-282.5"/>
<polygon fill="none" stroke="#000000" points="212,-282.5 212,-317.5 519,-317.5 519,-282.5 212,-282.5"/>
<text text-anchor="start" x="258.2091" y="-295.3" font-family="Arial Bold" font-size="18.00" fill="#000000">public.user</text>
<text text-anchor="start" x="345.2229" y="-295.3" font-family="Arial" font-size="14.00" fill="#000000">    </text>
<text text-anchor="start" x="379.4277" y="-295.3" font-family="Arial" font-size="14.00" fill="#666666">[BASE TABLE]</text>
<polygon fill="none" stroke="#000000" points="212,-252.5 212,-282.5 519,-282.5 519,-252.5 212,-252.5"/>
<text text-anchor="start" x="219" y="-263.9" font-family="Arial" font-size="14.00" fill="#000000">id    </text>
<text text-anchor="start" x="264.094" y="-263.9" font-family="Arial" font-size="14.00" fill="#666666">[uuid]</text>
<polygon fill="none" stroke="#000000" points="212,-222.5 212,-252.5 519,-252.5 519,-222.5 212,-222.5"/>
<text text-anchor="start" x="219" y="-233.9" font-family="Arial" font-size="14.00" fill="#000000">username    </text>
<text text-anchor="start" x="315.439" y="-233.9" font-family="Arial" font-size="14.00" fill="#666666">[varchar(25)]</text>
<polygon fill="none" stroke="#000000" points="212,-192.5 212,-222.5 519,-222.5 519,-192.5 212,-192.5"/>
<text text-anchor="start" x="219" y="-203.9" font-family="Arial" font-size="14.00" fill="#000000">profile_image    </text>
<text text-anchor="start" x="337.2146" y="-203.9" font-family="Arial" font-size="14.00" fill="#666666">[text]</text>
<polygon fill="none" stroke="#000000" points="212,-162.5 212,-192.5 519,-192.5 519,-162.5 212,-162.5"/>
<text text-anchor="start" x="219" y="-173.9" font-family="Arial" font-size="14.00" fill="#000000">role    </text>
<text text-anchor="start" x="276.5372" y="-173.9" font-family="Arial" font-size="14.00" fill="#666666">[site_role]</text>
<polygon fill="none" stroke="#000000" points="212,-132.5 212,-162.5 519,-162.5 519,-132.5 212,-132.5"/>
<text text-anchor="start" x="219" y="-143.9" font-family="Arial" font-size="14.00" fill="#000000">created_on    </text>
<text text-anchor="start" x="323.2342" y="-143.9" font-family="Arial" font-size="14.00" fill="#666666">[timestamp without time zone]</text>
<polygon fill="none" stroke="#000000" points="212,-102.5 212,-132.5 519,-132.5 519,-102.5 212,-102.5"/>
<text text-anchor="start" x="218.8605" y="-113.9" font-family="Arial" font-size="14.00" fill="#000000">updated_on    </text>
<text text-anchor="start" x="326.9993" y="-113.9" font-family="Arial" font-size="14.00" fill="#666666">[timestamp without time zone]</text>
<polygon fill="none" stroke="#000000" points="212,-72.5 212,-102.5 519,-102.5 519,-72.5 212,-72.5"/>
<text text-anchor="start" x="219" y="-83.9" font-family="Arial" font-size="14.00" fill="#000000">discord_id    </text>
<text text-anchor="start" x="316.9916" y="-83.9" font-family="Arial" font-size="14.00" fill="#666666">[bigint]</text>
<polygon fill="none" stroke="#000000" points="212,-42.5 212,-72.5 519,-72.5 519,-42.5 212,-42.5"/>
<text text-anchor="start" x="219" y="-53.9" font-family="Arial" font-size="14.00" fill="#000000">github_id    </text>
<text text-anchor="start" x="310.0042" y="-53.9" font-family="Arial" font-size="14.00" fill="#666666">[integer]</text>
</g>
<!-- public.session&#45;&gt;public.user -->
<g id="edge1" class="edge">
<title>public.session:user_id&#45;&gt;public.user:id</title>
<path fill="none" stroke="#000000" d="M229.0744,-485.9846C201.4518,-476.4584 214.9244,-424.3692 239,-397 321.8701,-302.793 436.1299,-455.207 519,-361 546.4468,-329.7984 560.5556,-267.5 519,-267.5"/>
<polygon fill="#000000" stroke="#000000" points="229.1146,-485.9906 238.3208,-491.9485 234.0573,-486.7453 239,-487.5 239,-487.5 239,-487.5 234.0573,-486.7453 239.6792,-483.0515 229.1146,-485.9906 229.1146,-485.9906"/>
<text text-anchor="start" x="7.2855" y="-497.5" font-family="Arial" font-size="10.00" fill="#000000">FOREIGN KEY (user_id) REFERENCES &quot;user&quot;(id)</text>
</g>
</g>
</svg>
