<?xml version="1.0" encoding="UTF-8" standalone="no"?>
<!DOCTYPE svg PUBLIC "-//W3C//DTD SVG 1.1//EN"
 "http://www.w3.org/Graphics/SVG/1.1/DTD/svg11.dtd">
<!-- Generated by graphviz version 12.1.2 (20240928.0832)
 -->
<!-- Title: public.channel_user_ban Pages: 1 -->
<svg width="831pt" height="787pt"
 viewBox="0.00 0.00 830.94 786.80" xmlns="http://www.w3.org/2000/svg" xmlns:xlink="http://www.w3.org/1999/xlink">
<g id="graph0" class="graph" transform="scale(1 1) rotate(0) translate(4 782.8)">
<title>public.channel_user_ban</title>
<polygon fill="white" stroke="none" points="-4,4 -4,-782.8 826.94,-782.8 826.94,4 -4,4"/>
<!-- public.channel_user_ban -->
<g id="node1" class="node">
<title>public.channel_user_ban</title>
<polygon fill="#efefef" stroke="none" points="264.53,-697 264.53,-732.6 582.46,-732.6 582.46,-697 264.53,-697"/>
<polygon fill="none" stroke="black" points="264.53,-697 264.53,-732.6 582.46,-732.6 582.46,-697 264.53,-697"/>
<text text-anchor="start" x="271.53" y="-710.4" font-family="Arial Bold" font-size="18.00">public.channel_user_ban</text>
<text text-anchor="start" x="450.97" y="-710.4" font-family="Arial" font-size="14.00">    </text>
<text text-anchor="start" x="482.09" y="-710.4" font-family="Arial" font-size="14.00" fill="#666666">[BASE TABLE]</text>
<polygon fill="none" stroke="black" points="264.53,-666.2 264.53,-697 582.46,-697 582.46,-666.2 264.53,-666.2"/>
<text text-anchor="start" x="271.53" y="-678.4" font-family="Arial" font-size="14.00">id </text>
<text text-anchor="start" x="286.32" y="-678.4" font-family="Arial" font-size="14.00" fill="#666666">[uuid]</text>
<polygon fill="none" stroke="black" points="264.53,-635.4 264.53,-666.2 582.46,-666.2 582.46,-635.4 264.53,-635.4"/>
<text text-anchor="start" x="271.53" y="-647.6" font-family="Arial" font-size="14.00">channel_id </text>
<text text-anchor="start" x="343.14" y="-647.6" font-family="Arial" font-size="14.00" fill="#666666">[uuid]</text>
<polygon fill="none" stroke="black" points="264.53,-604.6 264.53,-635.4 582.46,-635.4 582.46,-604.6 264.53,-604.6"/>
<text text-anchor="start" x="271.53" y="-616.8" font-family="Arial" font-size="14.00">user_id </text>
<text text-anchor="start" x="321.34" y="-616.8" font-family="Arial" font-size="14.00" fill="#666666">[uuid]</text>
<polygon fill="none" stroke="black" points="264.53,-573.8 264.53,-604.6 582.46,-604.6 582.46,-573.8 264.53,-573.8"/>
<text text-anchor="start" x="271.53" y="-586" font-family="Arial" font-size="14.00">created_on </text>
<text text-anchor="start" x="345.48" y="-586" font-family="Arial" font-size="14.00" fill="#666666">[timestamp without time zone]</text>
<polygon fill="none" stroke="black" points="264.53,-543 264.53,-573.8 582.46,-573.8 582.46,-543 264.53,-543"/>
<text text-anchor="start" x="271.53" y="-555.2" font-family="Arial" font-size="14.00">pardoned </text>
<text text-anchor="start" x="334.59" y="-555.2" font-family="Arial" font-size="14.00" fill="#666666">[boolean]</text>
<polygon fill="none" stroke="black" stroke-width="3" points="263.03,-541.5 263.03,-734.1 583.96,-734.1 583.96,-541.5 263.03,-541.5"/>
</g>
<!-- public.channel -->
<g id="node2" class="node">
<title>public.channel</title>
<polygon fill="#efefef" stroke="none" points="94.97,-382 94.97,-417.6 372.01,-417.6 372.01,-382 94.97,-382"/>
<polygon fill="none" stroke="black" points="94.97,-382 94.97,-417.6 372.01,-417.6 372.01,-382 94.97,-382"/>
<text text-anchor="start" x="118.52" y="-395.4" font-family="Arial Bold" font-size="18.00">public.channel</text>
<text text-anchor="start" x="223.98" y="-395.4" font-family="Arial" font-size="14.00">    </text>
<text text-anchor="start" x="255.1" y="-395.4" font-family="Arial" font-size="14.00" fill="#666666">[BASE TABLE]</text>
<polygon fill="none" stroke="black" points="94.97,-351.2 94.97,-382 372.01,-382 372.01,-351.2 94.97,-351.2"/>
<text text-anchor="start" x="101.97" y="-363.4" font-family="Arial" font-size="14.00">id </text>
<text text-anchor="start" x="116.76" y="-363.4" font-family="Arial" font-size="14.00" fill="#666666">[uuid]</text>
<polygon fill="none" stroke="black" points="94.97,-320.4 94.97,-351.2 372.01,-351.2 372.01,-320.4 94.97,-320.4"/>
<text text-anchor="start" x="101.97" y="-332.6" font-family="Arial" font-size="14.00">name </text>
<text text-anchor="start" x="140.88" y="-332.6" font-family="Arial" font-size="14.00" fill="#666666">[text]</text>
<polygon fill="none" stroke="black" points="94.97,-289.6 94.97,-320.4 372.01,-320.4 372.01,-289.6 94.97,-289.6"/>
<text text-anchor="start" x="101.97" y="-301.8" font-family="Arial" font-size="14.00">description </text>
<text text-anchor="start" x="173.57" y="-301.8" font-family="Arial" font-size="14.00" fill="#666666">[text]</text>
<polygon fill="none" stroke="black" points="94.97,-258.8 94.97,-289.6 372.01,-289.6 372.01,-258.8 94.97,-258.8"/>
<text text-anchor="start" x="101.97" y="-271" font-family="Arial" font-size="14.00">guidelines </text>
<text text-anchor="start" x="168.91" y="-271" font-family="Arial" font-size="14.00" fill="#666666">[text]</text>
<polygon fill="none" stroke="black" points="94.97,-228 94.97,-258.8 372.01,-258.8 372.01,-228 94.97,-228"/>
<text text-anchor="start" x="101.97" y="-240.2" font-family="Arial" font-size="14.00">created_by </text>
<text text-anchor="start" x="175.13" y="-240.2" font-family="Arial" font-size="14.00" fill="#666666">[uuid]</text>
<polygon fill="none" stroke="black" points="94.97,-197.2 94.97,-228 372.01,-228 372.01,-197.2 94.97,-197.2"/>
<text text-anchor="start" x="101.97" y="-209.4" font-family="Arial" font-size="14.00">banner_image </text>
<text text-anchor="start" x="195.37" y="-209.4" font-family="Arial" font-size="14.00" fill="#666666">[text]</text>
<polygon fill="none" stroke="black" points="94.97,-166.4 94.97,-197.2 372.01,-197.2 372.01,-166.4 94.97,-166.4"/>
<text text-anchor="start" x="101.97" y="-178.6" font-family="Arial" font-size="14.00">icon </text>
<text text-anchor="start" x="131.55" y="-178.6" font-family="Arial" font-size="14.00" fill="#666666">[text]</text>
<polygon fill="none" stroke="black" points="94.97,-135.6 94.97,-166.4 372.01,-166.4 372.01,-135.6 94.97,-135.6"/>
<text text-anchor="start" x="101.97" y="-147.8" font-family="Arial" font-size="14.00">created_on </text>
<text text-anchor="start" x="175.92" y="-147.8" font-family="Arial" font-size="14.00" fill="#666666">[timestamp without time zone]</text>
<polygon fill="none" stroke="black" points="94.97,-104.8 94.97,-135.6 372.01,-135.6 372.01,-104.8 94.97,-104.8"/>
<text text-anchor="start" x="101.97" y="-117" font-family="Arial" font-size="14.00">updated_on </text>
<text text-anchor="start" x="179.83" y="-117" font-family="Arial" font-size="14.00" fill="#666666">[timestamp without time zone]</text>
<polygon fill="none" stroke="black" points="94.97,-74 94.97,-104.8 372.01,-104.8 372.01,-74 94.97,-74"/>
<text text-anchor="start" x="101.97" y="-86.2" font-family="Arial" font-size="14.00">subscribers </text>
<text text-anchor="start" x="177.44" y="-86.2" font-family="Arial" font-size="14.00" fill="#666666">[integer]</text>
<polygon fill="none" stroke="black" points="94.97,-43.2 94.97,-74 372.01,-74 372.01,-43.2 94.97,-43.2"/>
<text text-anchor="start" x="101.97" y="-55.4" font-family="Arial" font-size="14.00">posts </text>
<text text-anchor="start" x="139.33" y="-55.4" font-family="Arial" font-size="14.00" fill="#666666">[integer]</text>
</g>
<!-- public.channel_user_ban&#45;&gt;public.channel -->
<g id="edge1" class="edge">
<title>public.channel_user_ban:channel_id&#45;&gt;public.channel:id</title>
<path fill="none" stroke="black" d="M253.16,-649.94C198.32,-640.15 226.57,-549.19 264.53,-496.8 294.09,-456.01 342.37,-501.53 372.01,-460.8 396.65,-426.95 414.88,-366.6 373.01,-366.6"/>
<polygon fill="black" stroke="black" points="253.23,-649.94 262.83,-655.26 258.55,-650.39 262.86,-650.74 262.86,-650.74 262.86,-650.74 258.55,-650.39 263.57,-646.29 253.23,-649.94"/>
<text text-anchor="start" x="7" y="-660.8" font-family="Arial" font-size="10.00">FOREIGN KEY (channel_id) REFERENCES channel(id)</text>
</g>
<!-- public.user -->
<g id="node3" class="node">
<title>public.user</title>
<polygon fill="#efefef" stroke="none" points="475.97,-366.6 475.97,-402.2 753.01,-402.2 753.01,-366.6 475.97,-366.6"/>
<polygon fill="none" stroke="black" points="475.97,-366.6 475.97,-402.2 753.01,-402.2 753.01,-366.6 475.97,-366.6"/>
<text text-anchor="start" x="512.51" y="-380" font-family="Arial Bold" font-size="18.00">public.user</text>
<text text-anchor="start" x="591.99" y="-380" font-family="Arial" font-size="14.00">    </text>
<text text-anchor="start" x="623.11" y="-380" font-family="Arial" font-size="14.00" fill="#666666">[BASE TABLE]</text>
<polygon fill="none" stroke="black" points="475.97,-335.8 475.97,-366.6 753.01,-366.6 753.01,-335.8 475.97,-335.8"/>
<text text-anchor="start" x="482.97" y="-348" font-family="Arial" font-size="14.00">id </text>
<text text-anchor="start" x="497.76" y="-348" font-family="Arial" font-size="14.00" fill="#666666">[uuid]</text>
<polygon fill="none" stroke="black" points="475.97,-305 475.97,-335.8 753.01,-335.8 753.01,-305 475.97,-305"/>
<text text-anchor="start" x="482.97" y="-317.2" font-family="Arial" font-size="14.00">username </text>
<text text-anchor="start" x="549.12" y="-317.2" font-family="Arial" font-size="14.00" fill="#666666">[varchar(25)]</text>
<polygon fill="none" stroke="black" points="475.97,-274.2 475.97,-305 753.01,-305 753.01,-274.2 475.97,-274.2"/>
<text text-anchor="start" x="482.97" y="-286.4" font-family="Arial" font-size="14.00">profile_image </text>
<text text-anchor="start" x="570.91" y="-286.4" font-family="Arial" font-size="14.00" fill="#666666">[text]</text>
<polygon fill="none" stroke="black" points="475.97,-243.4 475.97,-274.2 753.01,-274.2 753.01,-243.4 475.97,-243.4"/>
<text text-anchor="start" x="482.97" y="-255.6" font-family="Arial" font-size="14.00">role </text>
<text text-anchor="start" x="510.21" y="-255.6" font-family="Arial" font-size="14.00" fill="#666666">[site_role]</text>
<polygon fill="none" stroke="black" points="475.97,-212.6 475.97,-243.4 753.01,-243.4 753.01,-212.6 475.97,-212.6"/>
<text text-anchor="start" x="482.97" y="-224.8" font-family="Arial" font-size="14.00">created_on </text>
<text text-anchor="start" x="556.92" y="-224.8" font-family="Arial" font-size="14.00" fill="#666666">[timestamp without time zone]</text>
<polygon fill="none" stroke="black" points="475.97,-181.8 475.97,-212.6 753.01,-212.6 753.01,-181.8 475.97,-181.8"/>
<text text-anchor="start" x="482.97" y="-194" font-family="Arial" font-size="14.00">updated_on </text>
<text text-anchor="start" x="560.83" y="-194" font-family="Arial" font-size="14.00" fill="#666666">[timestamp without time zone]</text>
<polygon fill="none" stroke="black" points="475.97,-151 475.97,-181.8 753.01,-181.8 753.01,-151 475.97,-151"/>
<text text-anchor="start" x="482.97" y="-163.2" font-family="Arial" font-size="14.00">discord_id </text>
<text text-anchor="start" x="550.68" y="-163.2" font-family="Arial" font-size="14.00" fill="#666666">[bigint]</text>
<polygon fill="none" stroke="black" points="475.97,-120.2 475.97,-151 753.01,-151 753.01,-120.2 475.97,-120.2"/>
<text text-anchor="start" x="482.97" y="-132.4" font-family="Arial" font-size="14.00">github_id </text>
<text text-anchor="start" x="543.69" y="-132.4" font-family="Arial" font-size="14.00" fill="#666666">[integer]</text>
<polygon fill="none" stroke="black" points="475.97,-89.4 475.97,-120.2 753.01,-120.2 753.01,-89.4 475.97,-89.4"/>
<text text-anchor="start" x="482.97" y="-101.6" font-family="Arial" font-size="14.00">followers </text>
<text text-anchor="start" x="542.11" y="-101.6" font-family="Arial" font-size="14.00" fill="#666666">[integer]</text>
<polygon fill="none" stroke="black" points="475.97,-58.6 475.97,-89.4 753.01,-89.4 753.01,-58.6 475.97,-58.6"/>
<text text-anchor="start" x="482.97" y="-70.8" font-family="Arial" font-size="14.00">following </text>
<text text-anchor="start" x="541.34" y="-70.8" font-family="Arial" font-size="14.00" fill="#666666">[integer]</text>
</g>
<!-- public.channel_user_ban&#45;&gt;public.user -->
<g id="edge2" class="edge">
<title>public.channel_user_ban:user_id&#45;&gt;public.user:id</title>
<path fill="none" stroke="black" d="M593.83,-618.9C634.48,-609.33 609.7,-539.81 582.46,-496.8 554.34,-452.4 504.15,-489.76 475.97,-445.4 453.53,-410.06 433.11,-351.2 474.97,-351.2"/>
<polygon fill="black" stroke="black" points="593.73,-618.91 583.31,-615.49 588.43,-619.47 584.12,-619.93 584.12,-619.93 584.12,-619.93 588.43,-619.47 584.27,-624.44 593.73,-618.91"/>
<text text-anchor="start" x="590.46" y="-630" font-family="Arial" font-size="10.00">FOREIGN KEY (user_id) REFERENCES &quot;user&quot;(id)</text>
</g>
</g>
</svg>
