<?xml version="1.0" encoding="UTF-8" standalone="no"?>
<!DOCTYPE svg PUBLIC "-//W3C//DTD SVG 1.1//EN"
 "http://www.w3.org/Graphics/SVG/1.1/DTD/svg11.dtd">
<!-- Generated by graphviz version 2.40.1 (20161225.0304)
 -->
<!-- Title: public.comment Pages: 1 -->
<svg width="841pt" height="1169pt"
 viewBox="0.00 0.00 840.50 1169.00" xmlns="http://www.w3.org/2000/svg" xmlns:xlink="http://www.w3.org/1999/xlink">
<g id="graph0" class="graph" transform="scale(1 1) rotate(0) translate(4 1165)">
<title>public.comment</title>
<polygon fill="#ffffff" stroke="transparent" points="-4,4 -4,-1165 836.5,-1165 836.5,4 -4,4"/>
<!-- public.comment -->
<g id="node1" class="node">
<title>public.comment</title>
<polygon fill="#efefef" stroke="transparent" points="264.5,-832.5 264.5,-867.5 540.5,-867.5 540.5,-832.5 264.5,-832.5"/>
<polygon fill="none" stroke="#000000" points="264.5,-832.5 264.5,-867.5 540.5,-867.5 540.5,-832.5 264.5,-832.5"/>
<text text-anchor="start" x="275.7088" y="-845.3" font-family="Arial Bold" font-size="18.00" fill="#000000">public.comment</text>
<text text-anchor="start" x="401.7232" y="-845.3" font-family="Arial" font-size="14.00" fill="#000000">    </text>
<text text-anchor="start" x="435.928" y="-845.3" font-family="Arial" font-size="14.00" fill="#666666">[BASE TABLE]</text>
<polygon fill="none" stroke="#000000" points="264.5,-802.5 264.5,-832.5 540.5,-832.5 540.5,-802.5 264.5,-802.5"/>
<text text-anchor="start" x="271.5" y="-813.9" font-family="Arial" font-size="14.00" fill="#000000">id </text>
<text text-anchor="start" x="286.2798" y="-813.9" font-family="Arial" font-size="14.00" fill="#666666">[uuid]</text>
<polygon fill="none" stroke="#000000" points="264.5,-772.5 264.5,-802.5 540.5,-802.5 540.5,-772.5 264.5,-772.5"/>
<text text-anchor="start" x="271.5" y="-783.9" font-family="Arial" font-size="14.00" fill="#000000">content </text>
<text text-anchor="start" x="321.3022" y="-783.9" font-family="Arial" font-size="14.00" fill="#666666">[text]</text>
<polygon fill="none" stroke="#000000" points="264.5,-742.5 264.5,-772.5 540.5,-772.5 540.5,-742.5 264.5,-742.5"/>
<text text-anchor="start" x="271.5" y="-753.9" font-family="Arial" font-size="14.00" fill="#000000">creator_id </text>
<text text-anchor="start" x="337.622" y="-753.9" font-family="Arial" font-size="14.00" fill="#666666">[uuid]</text>
<polygon fill="none" stroke="#000000" points="264.5,-712.5 264.5,-742.5 540.5,-742.5 540.5,-712.5 264.5,-712.5"/>
<text text-anchor="start" x="271.5" y="-723.9" font-family="Arial" font-size="14.00" fill="#000000">post_id </text>
<text text-anchor="start" x="320.5182" y="-723.9" font-family="Arial" font-size="14.00" fill="#666666">[uuid]</text>
<polygon fill="none" stroke="#000000" points="264.5,-682.5 264.5,-712.5 540.5,-712.5 540.5,-682.5 264.5,-682.5"/>
<text text-anchor="start" x="271.5" y="-693.9" font-family="Arial" font-size="14.00" fill="#000000">reply_to </text>
<text text-anchor="start" x="325.1788" y="-693.9" font-family="Arial" font-size="14.00" fill="#666666">[uuid]</text>
<polygon fill="none" stroke="#000000" points="264.5,-652.5 264.5,-682.5 540.5,-682.5 540.5,-652.5 264.5,-652.5"/>
<text text-anchor="start" x="271.5" y="-663.9" font-family="Arial" font-size="14.00" fill="#000000">created_on </text>
<text text-anchor="start" x="345.42" y="-663.9" font-family="Arial" font-size="14.00" fill="#666666">[timestamp without time zone]</text>
<polygon fill="none" stroke="#000000" points="264.5,-622.5 264.5,-652.5 540.5,-652.5 540.5,-622.5 264.5,-622.5"/>
<text text-anchor="start" x="271.0176" y="-633.9" font-family="Arial" font-size="14.00" fill="#000000">updated_on </text>
<text text-anchor="start" x="348.8422" y="-633.9" font-family="Arial" font-size="14.00" fill="#666666">[timestamp without time zone]</text>
<polygon fill="none" stroke="#000000" points="264.5,-592.5 264.5,-622.5 540.5,-622.5 540.5,-592.5 264.5,-592.5"/>
<text text-anchor="start" x="271.5" y="-603.9" font-family="Arial" font-size="14.00" fill="#000000">upvotes </text>
<text text-anchor="start" x="324.4116" y="-603.9" font-family="Arial" font-size="14.00" fill="#666666">[integer]</text>
<polygon fill="none" stroke="#000000" points="264.5,-562.5 264.5,-592.5 540.5,-592.5 540.5,-562.5 264.5,-562.5"/>
<text text-anchor="start" x="271.5" y="-573.9" font-family="Arial" font-size="14.00" fill="#000000">downvotes </text>
<text text-anchor="start" x="342.3008" y="-573.9" font-family="Arial" font-size="14.00" fill="#666666">[integer]</text>
<polygon fill="none" stroke="#000000" stroke-width="3" points="263,-561.5 263,-869.5 542,-869.5 542,-561.5 263,-561.5"/>
</g>
<!-- public.comment&#45;&gt;public.comment -->
<g id="edge1" class="edge">
<title>public.comment:reply_to&#45;&gt;public.comment:id</title>
<path fill="none" stroke="#000000" d="M404.1268,-722.8755C411.4627,-853.1999 410.9204,-1084 402.5,-1084 393.8691,-1084 393.5151,-951.8768 401.438,-832.708"/>
<polygon fill="#000000" stroke="#000000" points="404.1045,-722.4976 408.0056,-712.2491 403.809,-717.5064 403.5135,-712.5151 403.5135,-712.5151 403.5135,-712.5151 403.809,-717.5064 399.0214,-712.7811 404.1045,-722.4976 404.1045,-722.4976"/>
<text text-anchor="start" x="410.125" y="-722.5151" font-family="Arial" font-size="10.00" fill="#000000">FOREIGN KEY (reply_to) REFERENCES comment(id)</text>
</g>
<!-- public.user -->
<g id="node3" class="node">
<title>public.user</title>
<polygon fill="#efefef" stroke="transparent" points="43.5,-372.5 43.5,-407.5 350.5,-407.5 350.5,-372.5 43.5,-372.5"/>
<polygon fill="none" stroke="#000000" points="43.5,-372.5 43.5,-407.5 350.5,-407.5 350.5,-372.5 43.5,-372.5"/>
<text text-anchor="start" x="89.7091" y="-385.3" font-family="Arial Bold" font-size="18.00" fill="#000000">public.user</text>
<text text-anchor="start" x="176.7229" y="-385.3" font-family="Arial" font-size="14.00" fill="#000000">    </text>
<text text-anchor="start" x="210.9277" y="-385.3" font-family="Arial" font-size="14.00" fill="#666666">[BASE TABLE]</text>
<polygon fill="none" stroke="#000000" points="43.5,-342.5 43.5,-372.5 350.5,-372.5 350.5,-342.5 43.5,-342.5"/>
<text text-anchor="start" x="50.5" y="-353.9" font-family="Arial" font-size="14.00" fill="#000000">id    </text>
<text text-anchor="start" x="95.594" y="-353.9" font-family="Arial" font-size="14.00" fill="#666666">[uuid]</text>
<polygon fill="none" stroke="#000000" points="43.5,-312.5 43.5,-342.5 350.5,-342.5 350.5,-312.5 43.5,-312.5"/>
<text text-anchor="start" x="50.5" y="-323.9" font-family="Arial" font-size="14.00" fill="#000000">username    </text>
<text text-anchor="start" x="146.939" y="-323.9" font-family="Arial" font-size="14.00" fill="#666666">[varchar(25)]</text>
<polygon fill="none" stroke="#000000" points="43.5,-282.5 43.5,-312.5 350.5,-312.5 350.5,-282.5 43.5,-282.5"/>
<text text-anchor="start" x="50.5" y="-293.9" font-family="Arial" font-size="14.00" fill="#000000">profile_image    </text>
<text text-anchor="start" x="168.7146" y="-293.9" font-family="Arial" font-size="14.00" fill="#666666">[text]</text>
<polygon fill="none" stroke="#000000" points="43.5,-252.5 43.5,-282.5 350.5,-282.5 350.5,-252.5 43.5,-252.5"/>
<text text-anchor="start" x="50.5" y="-263.9" font-family="Arial" font-size="14.00" fill="#000000">role    </text>
<text text-anchor="start" x="108.0372" y="-263.9" font-family="Arial" font-size="14.00" fill="#666666">[site_role]</text>
<polygon fill="none" stroke="#000000" points="43.5,-222.5 43.5,-252.5 350.5,-252.5 350.5,-222.5 43.5,-222.5"/>
<text text-anchor="start" x="50.5" y="-233.9" font-family="Arial" font-size="14.00" fill="#000000">created_on    </text>
<text text-anchor="start" x="154.7342" y="-233.9" font-family="Arial" font-size="14.00" fill="#666666">[timestamp without time zone]</text>
<polygon fill="none" stroke="#000000" points="43.5,-192.5 43.5,-222.5 350.5,-222.5 350.5,-192.5 43.5,-192.5"/>
<text text-anchor="start" x="50.3605" y="-203.9" font-family="Arial" font-size="14.00" fill="#000000">updated_on    </text>
<text text-anchor="start" x="158.4993" y="-203.9" font-family="Arial" font-size="14.00" fill="#666666">[timestamp without time zone]</text>
<polygon fill="none" stroke="#000000" points="43.5,-162.5 43.5,-192.5 350.5,-192.5 350.5,-162.5 43.5,-162.5"/>
<text text-anchor="start" x="50.5" y="-173.9" font-family="Arial" font-size="14.00" fill="#000000">discord_id    </text>
<text text-anchor="start" x="148.4916" y="-173.9" font-family="Arial" font-size="14.00" fill="#666666">[bigint]</text>
<polygon fill="none" stroke="#000000" points="43.5,-132.5 43.5,-162.5 350.5,-162.5 350.5,-132.5 43.5,-132.5"/>
<text text-anchor="start" x="50.5" y="-143.9" font-family="Arial" font-size="14.00" fill="#000000">github_id    </text>
<text text-anchor="start" x="141.5042" y="-143.9" font-family="Arial" font-size="14.00" fill="#666666">[integer]</text>
<polygon fill="none" stroke="#000000" points="43.5,-102.5 43.5,-132.5 350.5,-132.5 350.5,-102.5 43.5,-102.5"/>
<text text-anchor="start" x="50.5" y="-113.9" font-family="Arial" font-size="14.00" fill="#000000">followers    </text>
<text text-anchor="start" x="139.9236" y="-113.9" font-family="Arial" font-size="14.00" fill="#666666">[integer]</text>
<polygon fill="none" stroke="#000000" points="43.5,-72.5 43.5,-102.5 350.5,-102.5 350.5,-72.5 43.5,-72.5"/>
<text text-anchor="start" x="50.5" y="-83.9" font-family="Arial" font-size="14.00" fill="#000000">following    </text>
<text text-anchor="start" x="139.1522" y="-83.9" font-family="Arial" font-size="14.00" fill="#666666">[integer]</text>
</g>
<!-- public.comment&#45;&gt;public.user -->
<g id="edge3" class="edge">
<title>public.comment:creator_id&#45;&gt;public.user:id</title>
<path fill="none" stroke="#000000" d="M254.397,-757.0287C161.5564,-747.9493 218.7973,-609.6843 264.5,-517 285.8082,-473.7872 329.1918,-494.2128 350.5,-451 368.8782,-413.7293 392.0556,-357.5 350.5,-357.5"/>
<polygon fill="#000000" stroke="#000000" points="254.5109,-757.0339 264.2903,-761.9951 259.5054,-757.267 264.5,-757.5 264.5,-757.5 264.5,-757.5 259.5054,-757.267 264.7097,-753.0049 254.5109,-757.0339 254.5109,-757.0339"/>
<text text-anchor="start" x="20.952" y="-767.5" font-family="Arial" font-size="10.00" fill="#000000">FOREIGN KEY (creator_id) REFERENCES &quot;user&quot;(id)</text>
</g>
<!-- public.post -->
<g id="node4" class="node">
<title>public.post</title>
<polygon fill="#efefef" stroke="transparent" points="454.5,-402.5 454.5,-437.5 761.5,-437.5 761.5,-402.5 454.5,-402.5"/>
<polygon fill="none" stroke="#000000" points="454.5,-402.5 454.5,-437.5 761.5,-437.5 761.5,-402.5 454.5,-402.5"/>
<text text-anchor="start" x="501.2041" y="-415.3" font-family="Arial Bold" font-size="18.00" fill="#000000">public.post</text>
<text text-anchor="start" x="587.2279" y="-415.3" font-family="Arial" font-size="14.00" fill="#000000">    </text>
<text text-anchor="start" x="621.4327" y="-415.3" font-family="Arial" font-size="14.00" fill="#666666">[BASE TABLE]</text>
<polygon fill="none" stroke="#000000" points="454.5,-372.5 454.5,-402.5 761.5,-402.5 761.5,-372.5 454.5,-372.5"/>
<text text-anchor="start" x="461.5" y="-383.9" font-family="Arial" font-size="14.00" fill="#000000">id    </text>
<text text-anchor="start" x="506.594" y="-383.9" font-family="Arial" font-size="14.00" fill="#666666">[uuid]</text>
<polygon fill="none" stroke="#000000" points="454.5,-342.5 454.5,-372.5 761.5,-372.5 761.5,-342.5 454.5,-342.5"/>
<text text-anchor="start" x="461.5" y="-353.9" font-family="Arial" font-size="14.00" fill="#000000">name    </text>
<text text-anchor="start" x="530.7132" y="-353.9" font-family="Arial" font-size="14.00" fill="#666666">[text]</text>
<polygon fill="none" stroke="#000000" points="454.5,-312.5 454.5,-342.5 761.5,-342.5 761.5,-312.5 454.5,-312.5"/>
<text text-anchor="start" x="461.5" y="-323.9" font-family="Arial" font-size="14.00" fill="#000000">description    </text>
<text text-anchor="start" x="563.3822" y="-323.9" font-family="Arial" font-size="14.00" fill="#666666">[text]</text>
<polygon fill="none" stroke="#000000" points="454.5,-282.5 454.5,-312.5 761.5,-312.5 761.5,-282.5 454.5,-282.5"/>
<text text-anchor="start" x="461.5" y="-293.9" font-family="Arial" font-size="14.00" fill="#000000">alt_text    </text>
<text text-anchor="start" x="540.831" y="-293.9" font-family="Arial" font-size="14.00" fill="#666666">[text]</text>
<polygon fill="none" stroke="#000000" points="454.5,-252.5 454.5,-282.5 761.5,-282.5 761.5,-252.5 454.5,-252.5"/>
<text text-anchor="start" x="461.5" y="-263.9" font-family="Arial" font-size="14.00" fill="#000000">created_by    </text>
<text text-anchor="start" x="564.9516" y="-263.9" font-family="Arial" font-size="14.00" fill="#666666">[uuid]</text>
<polygon fill="none" stroke="#000000" points="454.5,-222.5 454.5,-252.5 761.5,-252.5 761.5,-222.5 454.5,-222.5"/>
<text text-anchor="start" x="461.5" y="-233.9" font-family="Arial" font-size="14.00" fill="#000000">channel_id    </text>
<text text-anchor="start" x="563.3962" y="-233.9" font-family="Arial" font-size="14.00" fill="#666666">[uuid]</text>
<polygon fill="none" stroke="#000000" points="454.5,-192.5 454.5,-222.5 761.5,-222.5 761.5,-192.5 454.5,-192.5"/>
<text text-anchor="start" x="461.5" y="-203.9" font-family="Arial" font-size="14.00" fill="#000000">video_id    </text>
<text text-anchor="start" x="547.831" y="-203.9" font-family="Arial" font-size="14.00" fill="#666666">[text]</text>
<polygon fill="none" stroke="#000000" points="454.5,-162.5 454.5,-192.5 761.5,-192.5 761.5,-162.5 454.5,-162.5"/>
<text text-anchor="start" x="461.5" y="-173.9" font-family="Arial" font-size="14.00" fill="#000000">created_on    </text>
<text text-anchor="start" x="565.7342" y="-173.9" font-family="Arial" font-size="14.00" fill="#666666">[timestamp without time zone]</text>
<polygon fill="none" stroke="#000000" points="454.5,-132.5 454.5,-162.5 761.5,-162.5 761.5,-132.5 454.5,-132.5"/>
<text text-anchor="start" x="461.3605" y="-143.9" font-family="Arial" font-size="14.00" fill="#000000">updated_on    </text>
<text text-anchor="start" x="569.4993" y="-143.9" font-family="Arial" font-size="14.00" fill="#666666">[timestamp without time zone]</text>
<polygon fill="none" stroke="#000000" points="454.5,-102.5 454.5,-132.5 761.5,-132.5 761.5,-102.5 454.5,-102.5"/>
<text text-anchor="start" x="461.5" y="-113.9" font-family="Arial" font-size="14.00" fill="#000000">upvotes    </text>
<text text-anchor="start" x="544.7258" y="-113.9" font-family="Arial" font-size="14.00" fill="#666666">[integer]</text>
<polygon fill="none" stroke="#000000" points="454.5,-72.5 454.5,-102.5 761.5,-102.5 761.5,-72.5 454.5,-72.5"/>
<text text-anchor="start" x="461.5" y="-83.9" font-family="Arial" font-size="14.00" fill="#000000">downvotes    </text>
<text text-anchor="start" x="562.615" y="-83.9" font-family="Arial" font-size="14.00" fill="#666666">[integer]</text>
<polygon fill="none" stroke="#000000" points="454.5,-42.5 454.5,-72.5 761.5,-72.5 761.5,-42.5 454.5,-42.5"/>
<text text-anchor="start" x="461.5" y="-53.9" font-family="Arial" font-size="14.00" fill="#000000">comments    </text>
<text text-anchor="start" x="560.2644" y="-53.9" font-family="Arial" font-size="14.00" fill="#666666">[integer]</text>
</g>
<!-- public.comment&#45;&gt;public.post -->
<g id="edge4" class="edge">
<title>public.comment:post_id&#45;&gt;public.post:id</title>
<path fill="none" stroke="#000000" d="M550.8517,-726.9041C630.7804,-717.223 590.3064,-591.8433 540.5,-517 517.5439,-482.5043 477.4561,-515.4957 454.5,-481 431.4777,-446.4047 412.9444,-387.5 454.5,-387.5"/>
<polygon fill="#000000" stroke="#000000" points="550.4835,-726.9252 540.2413,-723.0074 545.4917,-727.2126 540.5,-727.5 540.5,-727.5 540.5,-727.5 545.4917,-727.2126 540.7587,-731.9926 550.4835,-726.9252 550.4835,-726.9252"/>
<text text-anchor="start" x="547.8845" y="-737.5" font-family="Arial" font-size="10.00" fill="#000000">FOREIGN KEY (post_id) REFERENCES post(id)</text>
</g>
<!-- public.comment_vote -->
<g id="node2" class="node">
<title>public.comment_vote</title>
<polygon fill="#efefef" stroke="transparent" points="246.5,-1082.5 246.5,-1117.5 557.5,-1117.5 557.5,-1082.5 246.5,-1082.5"/>
<polygon fill="none" stroke="#000000" points="246.5,-1082.5 246.5,-1117.5 557.5,-1117.5 557.5,-1082.5 246.5,-1082.5"/>
<text text-anchor="start" x="253.1984" y="-1095.3" font-family="Arial Bold" font-size="18.00" fill="#000000">public.comment_vote</text>
<text text-anchor="start" x="423.2336" y="-1095.3" font-family="Arial" font-size="14.00" fill="#000000">    </text>
<text text-anchor="start" x="457.4384" y="-1095.3" font-family="Arial" font-size="14.00" fill="#666666">[BASE TABLE]</text>
<polygon fill="none" stroke="#000000" points="246.5,-1052.5 246.5,-1082.5 557.5,-1082.5 557.5,-1052.5 246.5,-1052.5"/>
<text text-anchor="start" x="253.5" y="-1063.9" font-family="Arial" font-size="14.00" fill="#000000">comment_id    </text>
<text text-anchor="start" x="363.9362" y="-1063.9" font-family="Arial" font-size="14.00" fill="#666666">[uuid]</text>
<polygon fill="none" stroke="#000000" points="246.5,-1022.5 246.5,-1052.5 557.5,-1052.5 557.5,-1022.5 246.5,-1022.5"/>
<text text-anchor="start" x="253.5" y="-1033.9" font-family="Arial" font-size="14.00" fill="#000000">user_id    </text>
<text text-anchor="start" x="333.6024" y="-1033.9" font-family="Arial" font-size="14.00" fill="#666666">[uuid]</text>
<polygon fill="none" stroke="#000000" points="246.5,-992.5 246.5,-1022.5 557.5,-1022.5 557.5,-992.5 246.5,-992.5"/>
<text text-anchor="start" x="253.5" y="-1003.9" font-family="Arial" font-size="14.00" fill="#000000">vote    </text>
<text text-anchor="start" x="314.1606" y="-1003.9" font-family="Arial" font-size="14.00" fill="#666666">[vote]</text>
</g>
<!-- public.comment_vote&#45;&gt;public.comment -->
<g id="edge2" class="edge">
<title>public.comment_vote:comment_id&#45;&gt;public.comment:id</title>
<path fill="none" stroke="#000000" d="M567.4981,-1066.3783C607.1604,-1056.6711 589.669,-986.3634 557.5,-950 470.5673,-851.7324 351.4327,-1012.2676 264.5,-914 236.0823,-881.877 221.6111,-817.5 264.5,-817.5"/>
<polygon fill="#000000" stroke="#000000" points="567.4377,-1066.385 556.9983,-1063.0281 562.4688,-1066.9425 557.5,-1067.5 557.5,-1067.5 557.5,-1067.5 562.4688,-1066.9425 558.0017,-1071.9719 567.4377,-1066.385 567.4377,-1066.385"/>
<text text-anchor="start" x="564.6675" y="-1077.5" font-family="Arial" font-size="10.00" fill="#000000">FOREIGN KEY (comment_id) REFERENCES comment(id)</text>
</g>
</g>
</svg>
