<?xml version="1.0" encoding="UTF-8" standalone="no"?>
<!DOCTYPE svg PUBLIC "-//W3C//DTD SVG 1.1//EN"
 "http://www.w3.org/Graphics/SVG/1.1/DTD/svg11.dtd">
<!-- Generated by graphviz version 2.40.1 (20161225.0304)
 -->
<!-- Title: public.user Pages: 1 -->
<svg width="5650pt" height="742pt"
 viewBox="0.00 0.00 5650.00 742.00" xmlns="http://www.w3.org/2000/svg" xmlns:xlink="http://www.w3.org/1999/xlink">
<g id="graph0" class="graph" transform="scale(1 1) rotate(0) translate(4 738)">
<title>public.user</title>
<polygon fill="#ffffff" stroke="transparent" points="-4,4 -4,-738 5646,-738 5646,4 -4,4"/>
<!-- public.user -->
<g id="node1" class="node">
<title>public.user</title>
<polygon fill="#efefef" stroke="transparent" points="2471.5,-225.5 2471.5,-260.5 2747.5,-260.5 2747.5,-225.5 2471.5,-225.5"/>
<polygon fill="none" stroke="#000000" points="2471.5,-225.5 2471.5,-260.5 2747.5,-260.5 2747.5,-225.5 2471.5,-225.5"/>
<text text-anchor="start" x="2502.2091" y="-238.3" font-family="Arial Bold" font-size="18.00" fill="#000000">public.user</text>
<text text-anchor="start" x="2589.2229" y="-238.3" font-family="Arial" font-size="14.00" fill="#000000">    </text>
<text text-anchor="start" x="2623.4277" y="-238.3" font-family="Arial" font-size="14.00" fill="#666666">[BASE TABLE]</text>
<polygon fill="none" stroke="#000000" points="2471.5,-195.5 2471.5,-225.5 2747.5,-225.5 2747.5,-195.5 2471.5,-195.5"/>
<text text-anchor="start" x="2478.5" y="-206.9" font-family="Arial" font-size="14.00" fill="#000000">id </text>
<text text-anchor="start" x="2493.2798" y="-206.9" font-family="Arial" font-size="14.00" fill="#666666">[uuid]</text>
<polygon fill="none" stroke="#000000" points="2471.5,-165.5 2471.5,-195.5 2747.5,-195.5 2747.5,-165.5 2471.5,-165.5"/>
<text text-anchor="start" x="2478.5" y="-176.9" font-family="Arial" font-size="14.00" fill="#000000">username </text>
<text text-anchor="start" x="2544.6248" y="-176.9" font-family="Arial" font-size="14.00" fill="#666666">[varchar(25)]</text>
<polygon fill="none" stroke="#000000" points="2471.5,-135.5 2471.5,-165.5 2747.5,-165.5 2747.5,-135.5 2471.5,-135.5"/>
<text text-anchor="start" x="2478.5" y="-146.9" font-family="Arial" font-size="14.00" fill="#000000">profile_image </text>
<text text-anchor="start" x="2566.4004" y="-146.9" font-family="Arial" font-size="14.00" fill="#666666">[text]</text>
<polygon fill="none" stroke="#000000" points="2471.5,-105.5 2471.5,-135.5 2747.5,-135.5 2747.5,-105.5 2471.5,-105.5"/>
<text text-anchor="start" x="2478.5" y="-116.9" font-family="Arial" font-size="14.00" fill="#000000">role </text>
<text text-anchor="start" x="2505.723" y="-116.9" font-family="Arial" font-size="14.00" fill="#666666">[site_role]</text>
<polygon fill="none" stroke="#000000" points="2471.5,-75.5 2471.5,-105.5 2747.5,-105.5 2747.5,-75.5 2471.5,-75.5"/>
<text text-anchor="start" x="2478.5" y="-86.9" font-family="Arial" font-size="14.00" fill="#000000">created_on </text>
<text text-anchor="start" x="2552.42" y="-86.9" font-family="Arial" font-size="14.00" fill="#666666">[timestamp without time zone]</text>
<polygon fill="none" stroke="#000000" points="2471.5,-45.5 2471.5,-75.5 2747.5,-75.5 2747.5,-45.5 2471.5,-45.5"/>
<text text-anchor="start" x="2478.0176" y="-56.9" font-family="Arial" font-size="14.00" fill="#000000">updated_on </text>
<text text-anchor="start" x="2555.8422" y="-56.9" font-family="Arial" font-size="14.00" fill="#666666">[timestamp without time zone]</text>
<polygon fill="none" stroke="#000000" stroke-width="3" points="2470,-44.5 2470,-262.5 2749,-262.5 2749,-44.5 2470,-44.5"/>
</g>
<!-- public.channel_user_ban -->
<g id="node2" class="node">
<title>public.channel_user_ban</title>
<polygon fill="#efefef" stroke="transparent" points="43.5,-595.5 43.5,-630.5 384.5,-630.5 384.5,-595.5 43.5,-595.5"/>
<polygon fill="none" stroke="#000000" points="43.5,-595.5 43.5,-630.5 384.5,-630.5 384.5,-595.5 43.5,-595.5"/>
<text text-anchor="start" x="50.181" y="-608.3" font-family="Arial Bold" font-size="18.00" fill="#000000">public.channel_user_ban</text>
<text text-anchor="start" x="250.251" y="-608.3" font-family="Arial" font-size="14.00" fill="#000000">    </text>
<text text-anchor="start" x="284.4558" y="-608.3" font-family="Arial" font-size="14.00" fill="#666666">[BASE TABLE]</text>
<polygon fill="none" stroke="#000000" points="43.5,-565.5 43.5,-595.5 384.5,-595.5 384.5,-565.5 43.5,-565.5"/>
<text text-anchor="start" x="50.5" y="-576.9" font-family="Arial" font-size="14.00" fill="#000000">id    </text>
<text text-anchor="start" x="95.594" y="-576.9" font-family="Arial" font-size="14.00" fill="#666666">[uuid]</text>
<polygon fill="none" stroke="#000000" points="43.5,-535.5 43.5,-565.5 384.5,-565.5 384.5,-535.5 43.5,-535.5"/>
<text text-anchor="start" x="50.5" y="-546.9" font-family="Arial" font-size="14.00" fill="#000000">channel_id    </text>
<text text-anchor="start" x="152.3962" y="-546.9" font-family="Arial" font-size="14.00" fill="#666666">[uuid]</text>
<polygon fill="none" stroke="#000000" points="43.5,-505.5 43.5,-535.5 384.5,-535.5 384.5,-505.5 43.5,-505.5"/>
<text text-anchor="start" x="50.5" y="-516.9" font-family="Arial" font-size="14.00" fill="#000000">user_id    </text>
<text text-anchor="start" x="130.6024" y="-516.9" font-family="Arial" font-size="14.00" fill="#666666">[uuid]</text>
<polygon fill="none" stroke="#000000" points="43.5,-475.5 43.5,-505.5 384.5,-505.5 384.5,-475.5 43.5,-475.5"/>
<text text-anchor="start" x="50.5" y="-486.9" font-family="Arial" font-size="14.00" fill="#000000">created_on    </text>
<text text-anchor="start" x="154.7342" y="-486.9" font-family="Arial" font-size="14.00" fill="#666666">[timestamp without time zone]</text>
<polygon fill="none" stroke="#000000" points="43.5,-445.5 43.5,-475.5 384.5,-475.5 384.5,-445.5 43.5,-445.5"/>
<text text-anchor="start" x="50.5" y="-456.9" font-family="Arial" font-size="14.00" fill="#000000">pardoned    </text>
<text text-anchor="start" x="143.8436" y="-456.9" font-family="Arial" font-size="14.00" fill="#666666">[boolean]</text>
</g>
<!-- public.channel_user_ban&#45;&gt;public.user -->
<g id="edge1" class="edge">
<title>public.channel_user_ban:user_id&#45;&gt;public.user:id</title>
<path fill="none" stroke="#000000" d="M394.5398,-519.7548C458.5467,-509.3211 375.2258,-392.0872 436.5,-343 524.9207,-272.1655 2358.2051,-210.5 2471.5,-210.5"/>
<polygon fill="#000000" stroke="#000000" points="394.4726,-519.7597 384.1669,-516.0123 389.4863,-520.1298 384.5,-520.5 384.5,-520.5 384.5,-520.5 389.4863,-520.1298 384.8331,-524.9877 394.4726,-519.7597 394.4726,-519.7597"/>
<text text-anchor="start" x="272.2855" y="-504.5" font-family="Arial" font-size="10.00" fill="#000000">FOREIGN KEY (user_id) REFERENCES &quot;user&quot;(id)</text>
</g>
<!-- public.user_block -->
<g id="node3" class="node">
<title>public.user_block</title>
<polygon fill="#efefef" stroke="transparent" points="488.5,-550.5 488.5,-585.5 768.5,-585.5 768.5,-550.5 488.5,-550.5"/>
<polygon fill="none" stroke="#000000" points="488.5,-550.5 488.5,-585.5 768.5,-585.5 768.5,-550.5 488.5,-550.5"/>
<text text-anchor="start" x="495.2027" y="-563.3" font-family="Arial Bold" font-size="18.00" fill="#000000">public.user_block</text>
<text text-anchor="start" x="634.2293" y="-563.3" font-family="Arial" font-size="14.00" fill="#000000">    </text>
<text text-anchor="start" x="668.4341" y="-563.3" font-family="Arial" font-size="14.00" fill="#666666">[BASE TABLE]</text>
<polygon fill="none" stroke="#000000" points="488.5,-520.5 488.5,-550.5 768.5,-550.5 768.5,-520.5 488.5,-520.5"/>
<text text-anchor="start" x="495.5" y="-531.9" font-family="Arial" font-size="14.00" fill="#000000">user_id    </text>
<text text-anchor="start" x="575.6024" y="-531.9" font-family="Arial" font-size="14.00" fill="#666666">[uuid]</text>
<polygon fill="none" stroke="#000000" points="488.5,-490.5 488.5,-520.5 768.5,-520.5 768.5,-490.5 488.5,-490.5"/>
<text text-anchor="start" x="495.5" y="-501.9" font-family="Arial" font-size="14.00" fill="#000000">blocked_user_id    </text>
<text text-anchor="start" x="631.622" y="-501.9" font-family="Arial" font-size="14.00" fill="#666666">[uuid]</text>
</g>
<!-- public.user_block&#45;&gt;public.user -->
<g id="edge2" class="edge">
<title>public.user_block:blocked_user_id&#45;&gt;public.user:id</title>
<path fill="none" stroke="#000000" d="M778.5053,-504.6961C836.5412,-494.3956 763.9914,-387.8233 820.5,-343 964.6828,-228.6325 2287.4657,-210.5 2471.5,-210.5"/>
<polygon fill="#000000" stroke="#000000" points="778.4679,-504.6991 768.1396,-501.0145 773.4839,-505.0995 768.5,-505.5 768.5,-505.5 768.5,-505.5 773.4839,-505.0995 768.8604,-509.9855 778.4679,-504.6991 778.4679,-504.6991"/>
<text text-anchor="start" x="636.2785" y="-489.5" font-family="Arial" font-size="10.00" fill="#000000">FOREIGN KEY (blocked_user_id) REFERENCES &quot;user&quot;(id)</text>
</g>
<!-- public.user_block&#45;&gt;public.user -->
<g id="edge3" class="edge">
<title>public.user_block:user_id&#45;&gt;public.user:id</title>
<path fill="none" stroke="#000000" d="M778.8818,-534.7646C848.4375,-523.9718 755.2781,-397.2175 820.5,-343 962.0221,-225.356 2287.4657,-210.5 2471.5,-210.5"/>
<polygon fill="#000000" stroke="#000000" points="778.475,-534.7933 768.182,-531.0112 773.4875,-535.1467 768.5,-535.5 768.5,-535.5 768.5,-535.5 773.4875,-535.1467 768.818,-539.9888 778.475,-534.7933 778.475,-534.7933"/>
<text text-anchor="start" x="656.2855" y="-519.5" font-family="Arial" font-size="10.00" fill="#000000">FOREIGN KEY (user_id) REFERENCES &quot;user&quot;(id)</text>
</g>
<!-- public.channel -->
<g id="node4" class="node">
<title>public.channel</title>
<polygon fill="#efefef" stroke="transparent" points="873.5,-625.5 873.5,-660.5 1180.5,-660.5 1180.5,-625.5 873.5,-625.5"/>
<polygon fill="none" stroke="#000000" points="873.5,-625.5 873.5,-660.5 1180.5,-660.5 1180.5,-625.5 873.5,-625.5"/>
<text text-anchor="start" x="905.6988" y="-638.3" font-family="Arial Bold" font-size="18.00" fill="#000000">public.channel</text>
<text text-anchor="start" x="1020.7332" y="-638.3" font-family="Arial" font-size="14.00" fill="#000000">    </text>
<text text-anchor="start" x="1054.938" y="-638.3" font-family="Arial" font-size="14.00" fill="#666666">[BASE TABLE]</text>
<polygon fill="none" stroke="#000000" points="873.5,-595.5 873.5,-625.5 1180.5,-625.5 1180.5,-595.5 873.5,-595.5"/>
<text text-anchor="start" x="880.5" y="-606.9" font-family="Arial" font-size="14.00" fill="#000000">id    </text>
<text text-anchor="start" x="925.594" y="-606.9" font-family="Arial" font-size="14.00" fill="#666666">[uuid]</text>
<polygon fill="none" stroke="#000000" points="873.5,-565.5 873.5,-595.5 1180.5,-595.5 1180.5,-565.5 873.5,-565.5"/>
<text text-anchor="start" x="880.5" y="-576.9" font-family="Arial" font-size="14.00" fill="#000000">name    </text>
<text text-anchor="start" x="949.7132" y="-576.9" font-family="Arial" font-size="14.00" fill="#666666">[text]</text>
<polygon fill="none" stroke="#000000" points="873.5,-535.5 873.5,-565.5 1180.5,-565.5 1180.5,-535.5 873.5,-535.5"/>
<text text-anchor="start" x="880.5" y="-546.9" font-family="Arial" font-size="14.00" fill="#000000">description    </text>
<text text-anchor="start" x="982.3822" y="-546.9" font-family="Arial" font-size="14.00" fill="#666666">[text]</text>
<polygon fill="none" stroke="#000000" points="873.5,-505.5 873.5,-535.5 1180.5,-535.5 1180.5,-505.5 873.5,-505.5"/>
<text text-anchor="start" x="880.5" y="-516.9" font-family="Arial" font-size="14.00" fill="#000000">guidelines    </text>
<text text-anchor="start" x="977.7202" y="-516.9" font-family="Arial" font-size="14.00" fill="#666666">[text]</text>
<polygon fill="none" stroke="#000000" points="873.5,-475.5 873.5,-505.5 1180.5,-505.5 1180.5,-475.5 873.5,-475.5"/>
<text text-anchor="start" x="880.5" y="-486.9" font-family="Arial" font-size="14.00" fill="#000000">created_by    </text>
<text text-anchor="start" x="983.9516" y="-486.9" font-family="Arial" font-size="14.00" fill="#666666">[uuid]</text>
<polygon fill="none" stroke="#000000" points="873.5,-445.5 873.5,-475.5 1180.5,-475.5 1180.5,-445.5 873.5,-445.5"/>
<text text-anchor="start" x="880.5" y="-456.9" font-family="Arial" font-size="14.00" fill="#000000">created_on    </text>
<text text-anchor="start" x="984.7342" y="-456.9" font-family="Arial" font-size="14.00" fill="#666666">[timestamp without time zone]</text>
<polygon fill="none" stroke="#000000" points="873.5,-415.5 873.5,-445.5 1180.5,-445.5 1180.5,-415.5 873.5,-415.5"/>
<text text-anchor="start" x="880.3605" y="-426.9" font-family="Arial" font-size="14.00" fill="#000000">updated_on    </text>
<text text-anchor="start" x="988.4993" y="-426.9" font-family="Arial" font-size="14.00" fill="#666666">[timestamp without time zone]</text>
</g>
<!-- public.channel&#45;&gt;public.user -->
<g id="edge4" class="edge">
<title>public.channel:created_by&#45;&gt;public.user:id</title>
<path fill="none" stroke="#000000" d="M1190.6499,-489.5912C1242.2983,-479.2741 1180.1933,-383.83 1231.5,-343 1339.9205,-256.7187 2332.9379,-210.5 2471.5,-210.5"/>
<polygon fill="#000000" stroke="#000000" points="1190.4602,-489.6081 1180.0986,-486.0179 1185.4801,-490.054 1180.5,-490.5 1180.5,-490.5 1180.5,-490.5 1185.4801,-490.054 1180.9014,-494.9821 1190.4602,-489.6081 1190.4602,-489.6081"/>
<text text-anchor="start" x="1187.4465" y="-500.5" font-family="Arial" font-size="10.00" fill="#000000">FOREIGN KEY (created_by) REFERENCES &quot;user&quot;(id)</text>
</g>
<!-- public.comment -->
<g id="node5" class="node">
<title>public.comment</title>
<polygon fill="#efefef" stroke="transparent" points="1284.5,-625.5 1284.5,-660.5 1591.5,-660.5 1591.5,-625.5 1284.5,-625.5"/>
<polygon fill="none" stroke="#000000" points="1284.5,-625.5 1284.5,-660.5 1591.5,-660.5 1591.5,-625.5 1284.5,-625.5"/>
<text text-anchor="start" x="1311.2088" y="-638.3" font-family="Arial Bold" font-size="18.00" fill="#000000">public.comment</text>
<text text-anchor="start" x="1437.2232" y="-638.3" font-family="Arial" font-size="14.00" fill="#000000">    </text>
<text text-anchor="start" x="1471.428" y="-638.3" font-family="Arial" font-size="14.00" fill="#666666">[BASE TABLE]</text>
<polygon fill="none" stroke="#000000" points="1284.5,-595.5 1284.5,-625.5 1591.5,-625.5 1591.5,-595.5 1284.5,-595.5"/>
<text text-anchor="start" x="1291.5" y="-606.9" font-family="Arial" font-size="14.00" fill="#000000">id    </text>
<text text-anchor="start" x="1336.594" y="-606.9" font-family="Arial" font-size="14.00" fill="#666666">[uuid]</text>
<polygon fill="none" stroke="#000000" points="1284.5,-565.5 1284.5,-595.5 1591.5,-595.5 1591.5,-565.5 1284.5,-565.5"/>
<text text-anchor="start" x="1291.5" y="-576.9" font-family="Arial" font-size="14.00" fill="#000000">content    </text>
<text text-anchor="start" x="1371.6164" y="-576.9" font-family="Arial" font-size="14.00" fill="#666666">[text]</text>
<polygon fill="none" stroke="#000000" points="1284.5,-535.5 1284.5,-565.5 1591.5,-565.5 1591.5,-535.5 1284.5,-535.5"/>
<text text-anchor="start" x="1291.5" y="-546.9" font-family="Arial" font-size="14.00" fill="#000000">creator_id    </text>
<text text-anchor="start" x="1387.9362" y="-546.9" font-family="Arial" font-size="14.00" fill="#666666">[uuid]</text>
<polygon fill="none" stroke="#000000" points="1284.5,-505.5 1284.5,-535.5 1591.5,-535.5 1591.5,-505.5 1284.5,-505.5"/>
<text text-anchor="start" x="1291.5" y="-516.9" font-family="Arial" font-size="14.00" fill="#000000">post_id    </text>
<text text-anchor="start" x="1370.8324" y="-516.9" font-family="Arial" font-size="14.00" fill="#666666">[uuid]</text>
<polygon fill="none" stroke="#000000" points="1284.5,-475.5 1284.5,-505.5 1591.5,-505.5 1591.5,-475.5 1284.5,-475.5"/>
<text text-anchor="start" x="1291.5" y="-486.9" font-family="Arial" font-size="14.00" fill="#000000">reply_to    </text>
<text text-anchor="start" x="1375.493" y="-486.9" font-family="Arial" font-size="14.00" fill="#666666">[uuid]</text>
<polygon fill="none" stroke="#000000" points="1284.5,-445.5 1284.5,-475.5 1591.5,-475.5 1591.5,-445.5 1284.5,-445.5"/>
<text text-anchor="start" x="1291.5" y="-456.9" font-family="Arial" font-size="14.00" fill="#000000">created_on    </text>
<text text-anchor="start" x="1395.7342" y="-456.9" font-family="Arial" font-size="14.00" fill="#666666">[timestamp without time zone]</text>
<polygon fill="none" stroke="#000000" points="1284.5,-415.5 1284.5,-445.5 1591.5,-445.5 1591.5,-415.5 1284.5,-415.5"/>
<text text-anchor="start" x="1291.3605" y="-426.9" font-family="Arial" font-size="14.00" fill="#000000">updated_on    </text>
<text text-anchor="start" x="1399.4993" y="-426.9" font-family="Arial" font-size="14.00" fill="#666666">[timestamp without time zone]</text>
</g>
<!-- public.comment&#45;&gt;public.user -->
<g id="edge5" class="edge">
<title>public.comment:creator_id&#45;&gt;public.user:id</title>
<path fill="none" stroke="#000000" d="M1601.6965,-549.8578C1677.8542,-539.4348 1575.3647,-404.8122 1642.5,-343 1779.747,-216.6352 2284.9395,-210.5 2471.5,-210.5"/>
<polygon fill="#000000" stroke="#000000" points="1601.4802,-549.8714 1591.2171,-546.0089 1596.4901,-550.1857 1591.5,-550.5 1591.5,-550.5 1591.5,-550.5 1596.4901,-550.1857 1591.7829,-554.9911 1601.4802,-549.8714 1601.4802,-549.8714"/>
<text text-anchor="start" x="1473.452" y="-534.5" font-family="Arial" font-size="10.00" fill="#000000">FOREIGN KEY (creator_id) REFERENCES &quot;user&quot;(id)</text>
</g>
<!-- public.invite -->
<g id="node6" class="node">
<title>public.invite</title>
<polygon fill="#efefef" stroke="transparent" points="1695.5,-580.5 1695.5,-615.5 1998.5,-615.5 1998.5,-580.5 1695.5,-580.5"/>
<polygon fill="none" stroke="#000000" points="1695.5,-580.5 1695.5,-615.5 1998.5,-615.5 1998.5,-580.5 1695.5,-580.5"/>
<text text-anchor="start" x="1736.2099" y="-593.3" font-family="Arial Bold" font-size="18.00" fill="#000000">public.invite</text>
<text text-anchor="start" x="1830.2221" y="-593.3" font-family="Arial" font-size="14.00" fill="#000000">    </text>
<text text-anchor="start" x="1864.4269" y="-593.3" font-family="Arial" font-size="14.00" fill="#666666">[BASE TABLE]</text>
<polygon fill="none" stroke="#000000" points="1695.5,-550.5 1695.5,-580.5 1998.5,-580.5 1998.5,-550.5 1695.5,-550.5"/>
<text text-anchor="start" x="1702.5" y="-561.9" font-family="Arial" font-size="14.00" fill="#000000">channel_id    </text>
<text text-anchor="start" x="1804.3962" y="-561.9" font-family="Arial" font-size="14.00" fill="#666666">[uuid]</text>
<polygon fill="none" stroke="#000000" points="1695.5,-520.5 1695.5,-550.5 1998.5,-550.5 1998.5,-520.5 1695.5,-520.5"/>
<text text-anchor="start" x="1702.5" y="-531.9" font-family="Arial" font-size="14.00" fill="#000000">user_id    </text>
<text text-anchor="start" x="1782.6024" y="-531.9" font-family="Arial" font-size="14.00" fill="#666666">[uuid]</text>
<polygon fill="none" stroke="#000000" points="1695.5,-490.5 1695.5,-520.5 1998.5,-520.5 1998.5,-490.5 1695.5,-490.5"/>
<text text-anchor="start" x="1702.3128" y="-501.9" font-family="Arial" font-size="14.00" fill="#000000">created_on    </text>
<text text-anchor="start" x="1806.547" y="-501.9" font-family="Arial" font-size="14.00" fill="#666666">[timestamp without time zone]</text>
<polygon fill="none" stroke="#000000" points="1695.5,-460.5 1695.5,-490.5 1998.5,-490.5 1998.5,-460.5 1695.5,-460.5"/>
<text text-anchor="start" x="1702.5" y="-471.9" font-family="Arial" font-size="14.00" fill="#000000">role_id    </text>
<text text-anchor="start" x="1778.709" y="-471.9" font-family="Arial" font-size="14.00" fill="#666666">[uuid]</text>
</g>
<!-- public.invite&#45;&gt;public.user -->
<g id="edge6" class="edge">
<title>public.invite:user_id&#45;&gt;public.user:id</title>
<path fill="none" stroke="#000000" d="M2008.4868,-534.8645C2079.3522,-525.0627 1991.6519,-404.3166 2050.5,-343 2118.4138,-272.2375 2373.4204,-210.5 2471.5,-210.5"/>
<polygon fill="#000000" stroke="#000000" points="2008.4798,-534.8649 1998.2142,-531.0091 2003.4899,-535.1824 1998.5,-535.5 1998.5,-535.5 1998.5,-535.5 2003.4899,-535.1824 1998.7858,-539.9909 2008.4798,-534.8649 2008.4798,-534.8649"/>
<text text-anchor="start" x="1886.2855" y="-519.5" font-family="Arial" font-size="10.00" fill="#000000">FOREIGN KEY (user_id) REFERENCES &quot;user&quot;(id)</text>
</g>
<!-- public.playlist -->
<g id="node7" class="node">
<title>public.playlist</title>
<polygon fill="#efefef" stroke="transparent" points="2102.5,-595.5 2102.5,-630.5 2350.5,-630.5 2350.5,-595.5 2102.5,-595.5"/>
<polygon fill="none" stroke="#000000" points="2102.5,-595.5 2102.5,-630.5 2350.5,-630.5 2350.5,-595.5 2102.5,-595.5"/>
<text text-anchor="start" x="2109.2128" y="-608.3" font-family="Arial Bold" font-size="18.00" fill="#000000">public.playlist</text>
<text text-anchor="start" x="2216.2192" y="-608.3" font-family="Arial" font-size="14.00" fill="#000000">    </text>
<text text-anchor="start" x="2250.424" y="-608.3" font-family="Arial" font-size="14.00" fill="#666666">[BASE TABLE]</text>
<polygon fill="none" stroke="#000000" points="2102.5,-565.5 2102.5,-595.5 2350.5,-595.5 2350.5,-565.5 2102.5,-565.5"/>
<text text-anchor="start" x="2109.5" y="-576.9" font-family="Arial" font-size="14.00" fill="#000000">id    </text>
<text text-anchor="start" x="2154.594" y="-576.9" font-family="Arial" font-size="14.00" fill="#666666">[uuid]</text>
<polygon fill="none" stroke="#000000" points="2102.5,-535.5 2102.5,-565.5 2350.5,-565.5 2350.5,-535.5 2102.5,-535.5"/>
<text text-anchor="start" x="2109.5" y="-546.9" font-family="Arial" font-size="14.00" fill="#000000">user_id    </text>
<text text-anchor="start" x="2189.6024" y="-546.9" font-family="Arial" font-size="14.00" fill="#666666">[uuid]</text>
<polygon fill="none" stroke="#000000" points="2102.5,-505.5 2102.5,-535.5 2350.5,-535.5 2350.5,-505.5 2102.5,-505.5"/>
<text text-anchor="start" x="2109.5" y="-516.9" font-family="Arial" font-size="14.00" fill="#000000">name    </text>
<text text-anchor="start" x="2178.7132" y="-516.9" font-family="Arial" font-size="14.00" fill="#666666">[varchar(32)]</text>
<polygon fill="none" stroke="#000000" points="2102.5,-475.5 2102.5,-505.5 2350.5,-505.5 2350.5,-475.5 2102.5,-475.5"/>
<text text-anchor="start" x="2109.5" y="-486.9" font-family="Arial" font-size="14.00" fill="#000000">description    </text>
<text text-anchor="start" x="2211.3822" y="-486.9" font-family="Arial" font-size="14.00" fill="#666666">[text]</text>
<polygon fill="none" stroke="#000000" points="2102.5,-445.5 2102.5,-475.5 2350.5,-475.5 2350.5,-445.5 2102.5,-445.5"/>
<text text-anchor="start" x="2109.5" y="-456.9" font-family="Arial" font-size="14.00" fill="#000000">public    </text>
<text text-anchor="start" x="2180.2658" y="-456.9" font-family="Arial" font-size="14.00" fill="#666666">[boolean]</text>
</g>
<!-- public.playlist&#45;&gt;public.user -->
<g id="edge7" class="edge">
<title>public.playlist:user_id&#45;&gt;public.user:id</title>
<path fill="none" stroke="#000000" d="M2360.8715,-549.9659C2439.7413,-541.2785 2370.0744,-428.4123 2402.5,-343 2426.0651,-280.9272 2405.1046,-210.5 2471.5,-210.5"/>
<polygon fill="#000000" stroke="#000000" points="2360.4868,-549.9856 2350.2685,-546.006 2355.4934,-550.2428 2350.5,-550.5 2350.5,-550.5 2350.5,-550.5 2355.4934,-550.2428 2350.7315,-554.994 2360.4868,-549.9856 2360.4868,-549.9856"/>
<text text-anchor="start" x="2357.7855" y="-560.5" font-family="Arial" font-size="10.00" fill="#000000">FOREIGN KEY (user_id) REFERENCES &quot;user&quot;(id)</text>
</g>
<!-- public.post -->
<g id="node8" class="node">
<title>public.post</title>
<polygon fill="#efefef" stroke="transparent" points="2455.5,-655.5 2455.5,-690.5 2762.5,-690.5 2762.5,-655.5 2455.5,-655.5"/>
<polygon fill="none" stroke="#000000" points="2455.5,-655.5 2455.5,-690.5 2762.5,-690.5 2762.5,-655.5 2455.5,-655.5"/>
<text text-anchor="start" x="2502.2041" y="-668.3" font-family="Arial Bold" font-size="18.00" fill="#000000">public.post</text>
<text text-anchor="start" x="2588.2279" y="-668.3" font-family="Arial" font-size="14.00" fill="#000000">    </text>
<text text-anchor="start" x="2622.4327" y="-668.3" font-family="Arial" font-size="14.00" fill="#666666">[BASE TABLE]</text>
<polygon fill="none" stroke="#000000" points="2455.5,-625.5 2455.5,-655.5 2762.5,-655.5 2762.5,-625.5 2455.5,-625.5"/>
<text text-anchor="start" x="2462.5" y="-636.9" font-family="Arial" font-size="14.00" fill="#000000">id    </text>
<text text-anchor="start" x="2507.594" y="-636.9" font-family="Arial" font-size="14.00" fill="#666666">[uuid]</text>
<polygon fill="none" stroke="#000000" points="2455.5,-595.5 2455.5,-625.5 2762.5,-625.5 2762.5,-595.5 2455.5,-595.5"/>
<text text-anchor="start" x="2462.5" y="-606.9" font-family="Arial" font-size="14.00" fill="#000000">name    </text>
<text text-anchor="start" x="2531.7132" y="-606.9" font-family="Arial" font-size="14.00" fill="#666666">[text]</text>
<polygon fill="none" stroke="#000000" points="2455.5,-565.5 2455.5,-595.5 2762.5,-595.5 2762.5,-565.5 2455.5,-565.5"/>
<text text-anchor="start" x="2462.5" y="-576.9" font-family="Arial" font-size="14.00" fill="#000000">description    </text>
<text text-anchor="start" x="2564.3822" y="-576.9" font-family="Arial" font-size="14.00" fill="#666666">[text]</text>
<polygon fill="none" stroke="#000000" points="2455.5,-535.5 2455.5,-565.5 2762.5,-565.5 2762.5,-535.5 2455.5,-535.5"/>
<text text-anchor="start" x="2462.5" y="-546.9" font-family="Arial" font-size="14.00" fill="#000000">alt_text    </text>
<text text-anchor="start" x="2541.831" y="-546.9" font-family="Arial" font-size="14.00" fill="#666666">[text]</text>
<polygon fill="none" stroke="#000000" points="2455.5,-505.5 2455.5,-535.5 2762.5,-535.5 2762.5,-505.5 2455.5,-505.5"/>
<text text-anchor="start" x="2462.5" y="-516.9" font-family="Arial" font-size="14.00" fill="#000000">created_by    </text>
<text text-anchor="start" x="2565.9516" y="-516.9" font-family="Arial" font-size="14.00" fill="#666666">[uuid]</text>
<polygon fill="none" stroke="#000000" points="2455.5,-475.5 2455.5,-505.5 2762.5,-505.5 2762.5,-475.5 2455.5,-475.5"/>
<text text-anchor="start" x="2462.5" y="-486.9" font-family="Arial" font-size="14.00" fill="#000000">channel_id    </text>
<text text-anchor="start" x="2564.3962" y="-486.9" font-family="Arial" font-size="14.00" fill="#666666">[uuid]</text>
<polygon fill="none" stroke="#000000" points="2455.5,-445.5 2455.5,-475.5 2762.5,-475.5 2762.5,-445.5 2455.5,-445.5"/>
<text text-anchor="start" x="2462.5" y="-456.9" font-family="Arial" font-size="14.00" fill="#000000">video_id    </text>
<text text-anchor="start" x="2548.831" y="-456.9" font-family="Arial" font-size="14.00" fill="#666666">[text]</text>
<polygon fill="none" stroke="#000000" points="2455.5,-415.5 2455.5,-445.5 2762.5,-445.5 2762.5,-415.5 2455.5,-415.5"/>
<text text-anchor="start" x="2462.5" y="-426.9" font-family="Arial" font-size="14.00" fill="#000000">created_on    </text>
<text text-anchor="start" x="2566.7342" y="-426.9" font-family="Arial" font-size="14.00" fill="#666666">[timestamp without time zone]</text>
<polygon fill="none" stroke="#000000" points="2455.5,-385.5 2455.5,-415.5 2762.5,-415.5 2762.5,-385.5 2455.5,-385.5"/>
<text text-anchor="start" x="2462.3605" y="-396.9" font-family="Arial" font-size="14.00" fill="#000000">updated_on    </text>
<text text-anchor="start" x="2570.4993" y="-396.9" font-family="Arial" font-size="14.00" fill="#666666">[timestamp without time zone]</text>
</g>
<!-- public.post&#45;&gt;public.user -->
<g id="edge8" class="edge">
<title>public.post:created_by&#45;&gt;public.user:id</title>
<path fill="none" stroke="#000000" d="M2772.4999,-519.7994C2838.9436,-509.9829 2812.3994,-399.4529 2762.5,-343 2676.1924,-245.3572 2557.8076,-404.6428 2471.5,-307 2443.0956,-274.8652 2428.6111,-210.5 2471.5,-210.5"/>
<polygon fill="#000000" stroke="#000000" points="2772.4755,-519.801 2762.1854,-516.011 2767.4878,-520.1505 2762.5,-520.5 2762.5,-520.5 2762.5,-520.5 2767.4878,-520.1505 2762.8146,-524.989 2772.4755,-519.801 2772.4755,-519.801"/>
<text text-anchor="start" x="2641.4465" y="-504.5" font-family="Arial" font-size="10.00" fill="#000000">FOREIGN KEY (created_by) REFERENCES &quot;user&quot;(id)</text>
</g>
<!-- public.channel_user_reports -->
<g id="node9" class="node">
<title>public.channel_user_reports</title>
<polygon fill="#efefef" stroke="transparent" points="2866.5,-610.5 2866.5,-645.5 3233.5,-645.5 3233.5,-610.5 2866.5,-610.5"/>
<polygon fill="none" stroke="#000000" points="2866.5,-610.5 2866.5,-645.5 3233.5,-645.5 3233.5,-610.5 2866.5,-610.5"/>
<text text-anchor="start" x="2873.1877" y="-623.3" font-family="Arial Bold" font-size="18.00" fill="#000000">public.channel_user_reports</text>
<text text-anchor="start" x="3099.2443" y="-623.3" font-family="Arial" font-size="14.00" fill="#000000">    </text>
<text text-anchor="start" x="3133.4491" y="-623.3" font-family="Arial" font-size="14.00" fill="#666666">[BASE TABLE]</text>
<polygon fill="none" stroke="#000000" points="2866.5,-580.5 2866.5,-610.5 3233.5,-610.5 3233.5,-580.5 2866.5,-580.5"/>
<text text-anchor="start" x="2873.5" y="-591.9" font-family="Arial" font-size="14.00" fill="#000000">id    </text>
<text text-anchor="start" x="2918.594" y="-591.9" font-family="Arial" font-size="14.00" fill="#666666">[uuid]</text>
<polygon fill="none" stroke="#000000" points="2866.5,-550.5 2866.5,-580.5 3233.5,-580.5 3233.5,-550.5 2866.5,-550.5"/>
<text text-anchor="start" x="2873.5" y="-561.9" font-family="Arial" font-size="14.00" fill="#000000">user_id    </text>
<text text-anchor="start" x="2953.6024" y="-561.9" font-family="Arial" font-size="14.00" fill="#666666">[uuid]</text>
<polygon fill="none" stroke="#000000" points="2866.5,-520.5 2866.5,-550.5 3233.5,-550.5 3233.5,-520.5 2866.5,-520.5"/>
<text text-anchor="start" x="2873.5" y="-531.9" font-family="Arial" font-size="14.00" fill="#000000">channel_id    </text>
<text text-anchor="start" x="2975.3962" y="-531.9" font-family="Arial" font-size="14.00" fill="#666666">[uuid]</text>
<polygon fill="none" stroke="#000000" points="2866.5,-490.5 2866.5,-520.5 3233.5,-520.5 3233.5,-490.5 2866.5,-490.5"/>
<text text-anchor="start" x="2873.5" y="-501.9" font-family="Arial" font-size="14.00" fill="#000000">description    </text>
<text text-anchor="start" x="2975.3822" y="-501.9" font-family="Arial" font-size="14.00" fill="#666666">[text]</text>
<polygon fill="none" stroke="#000000" points="2866.5,-460.5 2866.5,-490.5 3233.5,-490.5 3233.5,-460.5 2866.5,-460.5"/>
<text text-anchor="start" x="2873.5" y="-471.9" font-family="Arial" font-size="14.00" fill="#000000">resolution    </text>
<text text-anchor="start" x="2968.3822" y="-471.9" font-family="Arial" font-size="14.00" fill="#666666">[text]</text>
<polygon fill="none" stroke="#000000" points="2866.5,-430.5 2866.5,-460.5 3233.5,-460.5 3233.5,-430.5 2866.5,-430.5"/>
<text text-anchor="start" x="2873.5" y="-441.9" font-family="Arial" font-size="14.00" fill="#000000">status    </text>
<text text-anchor="start" x="2945.0512" y="-441.9" font-family="Arial" font-size="14.00" fill="#666666">[report_status]</text>
</g>
<!-- public.channel_user_reports&#45;&gt;public.user -->
<g id="edge9" class="edge">
<title>public.channel_user_reports:user_id&#45;&gt;public.user:id</title>
<path fill="none" stroke="#000000" d="M2856.7468,-563.0126C2817.8265,-541.5495 2830.6372,-387.3627 2814.5,-343 2791.942,-280.9859 2813.4895,-210.5 2747.5,-210.5"/>
<polygon fill="#000000" stroke="#000000" points="2856.8101,-563.0287 2865.3879,-569.8604 2861.6551,-564.2644 2866.5,-565.5 2866.5,-565.5 2866.5,-565.5 2861.6551,-564.2644 2867.6121,-561.1396 2856.8101,-563.0287 2856.8101,-563.0287"/>
<text text-anchor="start" x="2634.7855" y="-575.5" font-family="Arial" font-size="10.00" fill="#000000">FOREIGN KEY (user_id) REFERENCES &quot;user&quot;(id)</text>
</g>
<!-- public.user_report -->
<g id="node10" class="node">
<title>public.user_report</title>
<polygon fill="#efefef" stroke="transparent" points="3337.5,-595.5 3337.5,-630.5 3622.5,-630.5 3622.5,-595.5 3337.5,-595.5"/>
<polygon fill="none" stroke="#000000" points="3337.5,-595.5 3337.5,-630.5 3622.5,-630.5 3622.5,-595.5 3337.5,-595.5"/>
<text text-anchor="start" x="3344.2034" y="-608.3" font-family="Arial Bold" font-size="18.00" fill="#000000">public.user_report</text>
<text text-anchor="start" x="3488.2286" y="-608.3" font-family="Arial" font-size="14.00" fill="#000000">    </text>
<text text-anchor="start" x="3522.4334" y="-608.3" font-family="Arial" font-size="14.00" fill="#666666">[BASE TABLE]</text>
<polygon fill="none" stroke="#000000" points="3337.5,-565.5 3337.5,-595.5 3622.5,-595.5 3622.5,-565.5 3337.5,-565.5"/>
<text text-anchor="start" x="3344.5" y="-576.9" font-family="Arial" font-size="14.00" fill="#000000">id    </text>
<text text-anchor="start" x="3389.594" y="-576.9" font-family="Arial" font-size="14.00" fill="#666666">[uuid]</text>
<polygon fill="none" stroke="#000000" points="3337.5,-535.5 3337.5,-565.5 3622.5,-565.5 3622.5,-535.5 3337.5,-535.5"/>
<text text-anchor="start" x="3344.5" y="-546.9" font-family="Arial" font-size="14.00" fill="#000000">user_id    </text>
<text text-anchor="start" x="3424.6024" y="-546.9" font-family="Arial" font-size="14.00" fill="#666666">[uuid]</text>
<polygon fill="none" stroke="#000000" points="3337.5,-505.5 3337.5,-535.5 3622.5,-535.5 3622.5,-505.5 3337.5,-505.5"/>
<text text-anchor="start" x="3344.5" y="-516.9" font-family="Arial" font-size="14.00" fill="#000000">description    </text>
<text text-anchor="start" x="3446.3822" y="-516.9" font-family="Arial" font-size="14.00" fill="#666666">[text]</text>
<polygon fill="none" stroke="#000000" points="3337.5,-475.5 3337.5,-505.5 3622.5,-505.5 3622.5,-475.5 3337.5,-475.5"/>
<text text-anchor="start" x="3344.5" y="-486.9" font-family="Arial" font-size="14.00" fill="#000000">resolution    </text>
<text text-anchor="start" x="3439.3822" y="-486.9" font-family="Arial" font-size="14.00" fill="#666666">[text]</text>
<polygon fill="none" stroke="#000000" points="3337.5,-445.5 3337.5,-475.5 3622.5,-475.5 3622.5,-445.5 3337.5,-445.5"/>
<text text-anchor="start" x="3344.5" y="-456.9" font-family="Arial" font-size="14.00" fill="#000000">status    </text>
<text text-anchor="start" x="3416.0512" y="-456.9" font-family="Arial" font-size="14.00" fill="#666666">[report_status]</text>
</g>
<!-- public.user_report&#45;&gt;public.user -->
<g id="edge10" class="edge">
<title>public.user_report:user_id&#45;&gt;public.user:id</title>
<path fill="none" stroke="#000000" d="M3327.2764,-549.87C3250.7827,-539.6424 3350.2327,-407.4698 3285.5,-343 3198.2584,-256.1127 2870.628,-210.5 2747.5,-210.5"/>
<polygon fill="#000000" stroke="#000000" points="3327.5189,-549.8848 3337.2232,-554.9915 3332.5095,-550.1924 3337.5,-550.5 3337.5,-550.5 3337.5,-550.5 3332.5095,-550.1924 3337.7768,-546.0085 3327.5189,-549.8848 3327.5189,-549.8848"/>
<text text-anchor="start" x="3105.7855" y="-560.5" font-family="Arial" font-size="10.00" fill="#000000">FOREIGN KEY (user_id) REFERENCES &quot;user&quot;(id)</text>
</g>
<!-- public.user_role -->
<g id="node11" class="node">
<title>public.user_role</title>
<polygon fill="#efefef" stroke="transparent" points="3726.5,-565.5 3726.5,-600.5 4033.5,-600.5 4033.5,-565.5 3726.5,-565.5"/>
<polygon fill="none" stroke="#000000" points="3726.5,-565.5 3726.5,-600.5 4033.5,-600.5 4033.5,-565.5 3726.5,-565.5"/>
<text text-anchor="start" x="3752.7066" y="-578.3" font-family="Arial Bold" font-size="18.00" fill="#000000">public.user_role</text>
<text text-anchor="start" x="3879.7254" y="-578.3" font-family="Arial" font-size="14.00" fill="#000000">    </text>
<text text-anchor="start" x="3913.9302" y="-578.3" font-family="Arial" font-size="14.00" fill="#666666">[BASE TABLE]</text>
<polygon fill="none" stroke="#000000" points="3726.5,-535.5 3726.5,-565.5 4033.5,-565.5 4033.5,-535.5 3726.5,-535.5"/>
<text text-anchor="start" x="3733.5" y="-546.9" font-family="Arial" font-size="14.00" fill="#000000">user_id    </text>
<text text-anchor="start" x="3813.6024" y="-546.9" font-family="Arial" font-size="14.00" fill="#666666">[uuid]</text>
<polygon fill="none" stroke="#000000" points="3726.5,-505.5 3726.5,-535.5 4033.5,-535.5 4033.5,-505.5 3726.5,-505.5"/>
<text text-anchor="start" x="3733.5" y="-516.9" font-family="Arial" font-size="14.00" fill="#000000">role_id    </text>
<text text-anchor="start" x="3809.709" y="-516.9" font-family="Arial" font-size="14.00" fill="#666666">[uuid]</text>
<polygon fill="none" stroke="#000000" points="3726.5,-475.5 3726.5,-505.5 4033.5,-505.5 4033.5,-475.5 3726.5,-475.5"/>
<text text-anchor="start" x="3733.3605" y="-486.9" font-family="Arial" font-size="14.00" fill="#000000">updated_on    </text>
<text text-anchor="start" x="3841.4993" y="-486.9" font-family="Arial" font-size="14.00" fill="#666666">[timestamp without time zone]</text>
</g>
<!-- public.user_role&#45;&gt;public.user -->
<g id="edge11" class="edge">
<title>public.user_role:user_id&#45;&gt;public.user:id</title>
<path fill="none" stroke="#000000" d="M3716.2907,-549.8549C3640.0269,-539.3847 3742.3588,-404.1708 3674.5,-343 3597.2181,-273.3348 2851.5468,-210.5 2747.5,-210.5"/>
<polygon fill="#000000" stroke="#000000" points="3716.5199,-549.8693 3726.2162,-554.991 3721.51,-550.1846 3726.5,-550.5 3726.5,-550.5 3726.5,-550.5 3721.51,-550.1846 3726.7838,-546.009 3716.5199,-549.8693 3716.5199,-549.8693"/>
<text text-anchor="start" x="3494.7855" y="-560.5" font-family="Arial" font-size="10.00" fill="#000000">FOREIGN KEY (user_id) REFERENCES &quot;user&quot;(id)</text>
</g>
<!-- public.session -->
<g id="node12" class="node">
<title>public.session</title>
<polygon fill="#efefef" stroke="transparent" points="4137.5,-565.5 4137.5,-600.5 4415.5,-600.5 4415.5,-565.5 4137.5,-565.5"/>
<polygon fill="none" stroke="#000000" points="4137.5,-565.5 4137.5,-600.5 4415.5,-600.5 4415.5,-565.5 4137.5,-565.5"/>
<text text-anchor="start" x="4156.205" y="-578.3" font-family="Arial Bold" font-size="18.00" fill="#000000">public.session</text>
<text text-anchor="start" x="4269.227" y="-578.3" font-family="Arial" font-size="14.00" fill="#000000">    </text>
<text text-anchor="start" x="4303.4318" y="-578.3" font-family="Arial" font-size="14.00" fill="#666666">[BASE TABLE]</text>
<polygon fill="none" stroke="#000000" points="4137.5,-535.5 4137.5,-565.5 4415.5,-565.5 4415.5,-535.5 4137.5,-535.5"/>
<text text-anchor="start" x="4144.5" y="-546.9" font-family="Arial" font-size="14.00" fill="#000000">id    </text>
<text text-anchor="start" x="4189.594" y="-546.9" font-family="Arial" font-size="14.00" fill="#666666">[text]</text>
<polygon fill="none" stroke="#000000" points="4137.5,-505.5 4137.5,-535.5 4415.5,-535.5 4415.5,-505.5 4137.5,-505.5"/>
<text text-anchor="start" x="4144.5" y="-516.9" font-family="Arial" font-size="14.00" fill="#000000">user_id    </text>
<text text-anchor="start" x="4224.6024" y="-516.9" font-family="Arial" font-size="14.00" fill="#666666">[uuid]</text>
<polygon fill="none" stroke="#000000" points="4137.5,-475.5 4137.5,-505.5 4415.5,-505.5 4415.5,-475.5 4137.5,-475.5"/>
<text text-anchor="start" x="4144.27" y="-486.9" font-family="Arial" font-size="14.00" fill="#000000">expires_at    </text>
<text text-anchor="start" x="4243.0456" y="-486.9" font-family="Arial" font-size="14.00" fill="#666666">[timestamp with time zone]</text>
</g>
<!-- public.session&#45;&gt;public.user -->
<g id="edge12" class="edge">
<title>public.session:user_id&#45;&gt;public.user:id</title>
<path fill="none" stroke="#000000" d="M4127.4551,-519.761C4063.3783,-509.4132 4145.9388,-393.1123 4085.5,-343 3970.4958,-247.6451 2896.8938,-210.5 2747.5,-210.5"/>
<polygon fill="#000000" stroke="#000000" points="4127.527,-519.7662 4137.1698,-524.9879 4132.5135,-520.1331 4137.5,-520.5 4137.5,-520.5 4137.5,-520.5 4132.5135,-520.1331 4137.8302,-516.0121 4127.527,-519.7662 4127.527,-519.7662"/>
<text text-anchor="start" x="4085.0355" y="-504.5" font-family="Arial" font-size="10.00" fill="#000000">FOREIGN KEY (user_id) REFERENCES &quot;user&quot;(id)</text>
</g>
<!-- public.subscription -->
<g id="node13" class="node">
<title>public.subscription</title>
<polygon fill="#efefef" stroke="transparent" points="4520.5,-565.5 4520.5,-600.5 4809.5,-600.5 4809.5,-565.5 4520.5,-565.5"/>
<polygon fill="none" stroke="#000000" points="4520.5,-565.5 4520.5,-600.5 4809.5,-600.5 4809.5,-565.5 4520.5,-565.5"/>
<text text-anchor="start" x="4527.2045" y="-578.3" font-family="Arial Bold" font-size="18.00" fill="#000000">public.subscription</text>
<text text-anchor="start" x="4675.2275" y="-578.3" font-family="Arial" font-size="14.00" fill="#000000">    </text>
<text text-anchor="start" x="4709.4323" y="-578.3" font-family="Arial" font-size="14.00" fill="#666666">[BASE TABLE]</text>
<polygon fill="none" stroke="#000000" points="4520.5,-535.5 4520.5,-565.5 4809.5,-565.5 4809.5,-535.5 4520.5,-535.5"/>
<text text-anchor="start" x="4527.5" y="-546.9" font-family="Arial" font-size="14.00" fill="#000000">id    </text>
<text text-anchor="start" x="4572.594" y="-546.9" font-family="Arial" font-size="14.00" fill="#666666">[uuid]</text>
<polygon fill="none" stroke="#000000" points="4520.5,-505.5 4520.5,-535.5 4809.5,-535.5 4809.5,-505.5 4520.5,-505.5"/>
<text text-anchor="start" x="4527.5" y="-516.9" font-family="Arial" font-size="14.00" fill="#000000">channel_id    </text>
<text text-anchor="start" x="4629.3962" y="-516.9" font-family="Arial" font-size="14.00" fill="#666666">[uuid]</text>
<polygon fill="none" stroke="#000000" points="4520.5,-475.5 4520.5,-505.5 4809.5,-505.5 4809.5,-475.5 4520.5,-475.5"/>
<text text-anchor="start" x="4527.5" y="-486.9" font-family="Arial" font-size="14.00" fill="#000000">user_id    </text>
<text text-anchor="start" x="4607.6024" y="-486.9" font-family="Arial" font-size="14.00" fill="#666666">[uuid]</text>
</g>
<!-- public.subscription&#45;&gt;public.user -->
<g id="edge13" class="edge">
<title>public.subscription:user_id&#45;&gt;public.user:id</title>
<path fill="none" stroke="#000000" d="M4510.299,-489.583C4458.3408,-479.1749 4519.8675,-382.9227 4467.5,-343 4315.0669,-226.7918 2939.1773,-210.5 2747.5,-210.5"/>
<polygon fill="#000000" stroke="#000000" points="4510.5402,-489.6046 4520.0971,-494.9819 4515.5201,-490.0523 4520.5,-490.5 4520.5,-490.5 4520.5,-490.5 4515.5201,-490.0523 4520.9029,-486.0181 4510.5402,-489.6046 4510.5402,-489.6046"/>
<text text-anchor="start" x="4348.5355" y="-474.5" font-family="Arial" font-size="10.00" fill="#000000">FOREIGN KEY (user_id) REFERENCES &quot;user&quot;(id)</text>
</g>
<!-- public.comment_vote -->
<g id="node14" class="node">
<title>public.comment_vote</title>
<polygon fill="#efefef" stroke="transparent" points="4913.5,-565.5 4913.5,-600.5 5224.5,-600.5 5224.5,-565.5 4913.5,-565.5"/>
<polygon fill="none" stroke="#000000" points="4913.5,-565.5 4913.5,-600.5 5224.5,-600.5 5224.5,-565.5 4913.5,-565.5"/>
<text text-anchor="start" x="4920.1984" y="-578.3" font-family="Arial Bold" font-size="18.00" fill="#000000">public.comment_vote</text>
<text text-anchor="start" x="5090.2336" y="-578.3" font-family="Arial" font-size="14.00" fill="#000000">    </text>
<text text-anchor="start" x="5124.4384" y="-578.3" font-family="Arial" font-size="14.00" fill="#666666">[BASE TABLE]</text>
<polygon fill="none" stroke="#000000" points="4913.5,-535.5 4913.5,-565.5 5224.5,-565.5 5224.5,-535.5 4913.5,-535.5"/>
<text text-anchor="start" x="4920.5" y="-546.9" font-family="Arial" font-size="14.00" fill="#000000">comment_id    </text>
<text text-anchor="start" x="5030.9362" y="-546.9" font-family="Arial" font-size="14.00" fill="#666666">[uuid]</text>
<polygon fill="none" stroke="#000000" points="4913.5,-505.5 4913.5,-535.5 5224.5,-535.5 5224.5,-505.5 4913.5,-505.5"/>
<text text-anchor="start" x="4920.5" y="-516.9" font-family="Arial" font-size="14.00" fill="#000000">user_id    </text>
<text text-anchor="start" x="5000.6024" y="-516.9" font-family="Arial" font-size="14.00" fill="#666666">[uuid]</text>
<polygon fill="none" stroke="#000000" points="4913.5,-475.5 4913.5,-505.5 5224.5,-505.5 5224.5,-475.5 4913.5,-475.5"/>
<text text-anchor="start" x="4920.5" y="-486.9" font-family="Arial" font-size="14.00" fill="#000000">vote    </text>
<text text-anchor="start" x="4981.1606" y="-486.9" font-family="Arial" font-size="14.00" fill="#666666">[vote]</text>
</g>
<!-- public.comment_vote&#45;&gt;public.user -->
<g id="edge14" class="edge">
<title>public.comment_vote:user_id&#45;&gt;public.user:id</title>
<path fill="none" stroke="#000000" d="M4903.4606,-519.7543C4839.4587,-509.3144 4922.8337,-392.013 4861.5,-343 4769.5719,-269.5384 2865.1749,-210.5 2747.5,-210.5"/>
<polygon fill="#000000" stroke="#000000" points="4903.5275,-519.7592 4913.1666,-524.9876 4908.5137,-520.1296 4913.5,-520.5 4913.5,-520.5 4913.5,-520.5 4908.5137,-520.1296 4913.8334,-516.0124 4903.5275,-519.7592 4903.5275,-519.7592"/>
<text text-anchor="start" x="4681.7855" y="-530.5" font-family="Arial" font-size="10.00" fill="#000000">FOREIGN KEY (user_id) REFERENCES &quot;user&quot;(id)</text>
</g>
<!-- public.post_vote -->
<g id="node15" class="node">
<title>public.post_vote</title>
<polygon fill="#efefef" stroke="transparent" points="5328.5,-565.5 5328.5,-600.5 5599.5,-600.5 5599.5,-565.5 5328.5,-565.5"/>
<polygon fill="none" stroke="#000000" points="5328.5,-565.5 5328.5,-600.5 5599.5,-600.5 5599.5,-565.5 5328.5,-565.5"/>
<text text-anchor="start" x="5335.1937" y="-578.3" font-family="Arial Bold" font-size="18.00" fill="#000000">public.post_vote</text>
<text text-anchor="start" x="5465.2383" y="-578.3" font-family="Arial" font-size="14.00" fill="#000000">    </text>
<text text-anchor="start" x="5499.4431" y="-578.3" font-family="Arial" font-size="14.00" fill="#666666">[BASE TABLE]</text>
<polygon fill="none" stroke="#000000" points="5328.5,-535.5 5328.5,-565.5 5599.5,-565.5 5599.5,-535.5 5328.5,-535.5"/>
<text text-anchor="start" x="5335.5" y="-546.9" font-family="Arial" font-size="14.00" fill="#000000">post_id    </text>
<text text-anchor="start" x="5414.8324" y="-546.9" font-family="Arial" font-size="14.00" fill="#666666">[uuid]</text>
<polygon fill="none" stroke="#000000" points="5328.5,-505.5 5328.5,-535.5 5599.5,-535.5 5599.5,-505.5 5328.5,-505.5"/>
<text text-anchor="start" x="5335.5" y="-516.9" font-family="Arial" font-size="14.00" fill="#000000">user_id    </text>
<text text-anchor="start" x="5415.6024" y="-516.9" font-family="Arial" font-size="14.00" fill="#666666">[uuid]</text>
<polygon fill="none" stroke="#000000" points="5328.5,-475.5 5328.5,-505.5 5599.5,-505.5 5599.5,-475.5 5328.5,-475.5"/>
<text text-anchor="start" x="5335.5" y="-486.9" font-family="Arial" font-size="14.00" fill="#000000">vote    </text>
<text text-anchor="start" x="5396.1606" y="-486.9" font-family="Arial" font-size="14.00" fill="#666666">[vote]</text>
</g>
<!-- public.post_vote&#45;&gt;public.user -->
<g id="edge15" class="edge">
<title>public.post_vote:user_id&#45;&gt;public.user:id</title>
<path fill="none" stroke="#000000" d="M5318.4621,-519.7524C5254.4812,-509.2861 5338.0841,-391.698 5276.5,-343 5166.1416,-255.7335 2888.1927,-210.5 2747.5,-210.5"/>
<polygon fill="#000000" stroke="#000000" points="5318.5276,-519.7572 5328.1657,-524.9876 5323.5138,-520.1286 5328.5,-520.5 5328.5,-520.5 5328.5,-520.5 5323.5138,-520.1286 5328.8343,-516.0124 5318.5276,-519.7572 5318.5276,-519.7572"/>
<text text-anchor="start" x="5276.0355" y="-504.5" font-family="Arial" font-size="10.00" fill="#000000">FOREIGN KEY (user_id) REFERENCES &quot;user&quot;(id)</text>
</g>
</g>
</svg>
