<?xml version="1.0" encoding="UTF-8" standalone="no"?>
<!DOCTYPE svg PUBLIC "-//W3C//DTD SVG 1.1//EN"
 "http://www.w3.org/Graphics/SVG/1.1/DTD/svg11.dtd">
<!-- Generated by graphviz version 2.40.1 (20161225.0304)
 -->
<!-- Title: public.comment_vote Pages: 1 -->
<svg width="841pt" height="592pt"
 viewBox="0.00 0.00 840.50 592.00" xmlns="http://www.w3.org/2000/svg" xmlns:xlink="http://www.w3.org/1999/xlink">
<g id="graph0" class="graph" transform="scale(1 1) rotate(0) translate(4 588)">
<title>public.comment_vote</title>
<polygon fill="#ffffff" stroke="transparent" points="-4,4 -4,-588 836.5,-588 836.5,4 -4,4"/>
<!-- public.comment_vote -->
<g id="node1" class="node">
<title>public.comment_vote</title>
<polygon fill="#efefef" stroke="transparent" points="275,-502.5 275,-537.5 586,-537.5 586,-502.5 275,-502.5"/>
<polygon fill="none" stroke="#000000" points="275,-502.5 275,-537.5 586,-537.5 586,-502.5 275,-502.5"/>
<text text-anchor="start" x="281.6984" y="-515.3" font-family="Arial Bold" font-size="18.00" fill="#000000">public.comment_vote</text>
<text text-anchor="start" x="451.7336" y="-515.3" font-family="Arial" font-size="14.00" fill="#000000">    </text>
<text text-anchor="start" x="485.9384" y="-515.3" font-family="Arial" font-size="14.00" fill="#666666">[BASE TABLE]</text>
<polygon fill="none" stroke="#000000" points="275,-472.5 275,-502.5 586,-502.5 586,-472.5 275,-472.5"/>
<text text-anchor="start" x="282" y="-483.9" font-family="Arial" font-size="14.00" fill="#000000">comment_id </text>
<text text-anchor="start" x="362.122" y="-483.9" font-family="Arial" font-size="14.00" fill="#666666">[uuid]</text>
<polygon fill="none" stroke="#000000" points="275,-442.5 275,-472.5 586,-472.5 586,-442.5 275,-442.5"/>
<text text-anchor="start" x="282" y="-453.9" font-family="Arial" font-size="14.00" fill="#000000">user_id </text>
<text text-anchor="start" x="331.7882" y="-453.9" font-family="Arial" font-size="14.00" fill="#666666">[uuid]</text>
<polygon fill="none" stroke="#000000" points="275,-412.5 275,-442.5 586,-442.5 586,-412.5 275,-412.5"/>
<text text-anchor="start" x="282" y="-423.9" font-family="Arial" font-size="14.00" fill="#000000">vote </text>
<text text-anchor="start" x="312.3464" y="-423.9" font-family="Arial" font-size="14.00" fill="#666666">[vote]</text>
<polygon fill="none" stroke="#000000" stroke-width="3" points="273,-411.5 273,-539.5 587,-539.5 587,-411.5 273,-411.5"/>
</g>
<!-- public.comment -->
<g id="node2" class="node">
<title>public.comment</title>
<polygon fill="#efefef" stroke="transparent" points="72,-252.5 72,-287.5 379,-287.5 379,-252.5 72,-252.5"/>
<polygon fill="none" stroke="#000000" points="72,-252.5 72,-287.5 379,-287.5 379,-252.5 72,-252.5"/>
<text text-anchor="start" x="98.7088" y="-265.3" font-family="Arial Bold" font-size="18.00" fill="#000000">public.comment</text>
<text text-anchor="start" x="224.7232" y="-265.3" font-family="Arial" font-size="14.00" fill="#000000">    </text>
<text text-anchor="start" x="258.928" y="-265.3" font-family="Arial" font-size="14.00" fill="#666666">[BASE TABLE]</text>
<polygon fill="none" stroke="#000000" points="72,-222.5 72,-252.5 379,-252.5 379,-222.5 72,-222.5"/>
<text text-anchor="start" x="79" y="-233.9" font-family="Arial" font-size="14.00" fill="#000000">id    </text>
<text text-anchor="start" x="124.094" y="-233.9" font-family="Arial" font-size="14.00" fill="#666666">[uuid]</text>
<polygon fill="none" stroke="#000000" points="72,-192.5 72,-222.5 379,-222.5 379,-192.5 72,-192.5"/>
<text text-anchor="start" x="79" y="-203.9" font-family="Arial" font-size="14.00" fill="#000000">content    </text>
<text text-anchor="start" x="159.1164" y="-203.9" font-family="Arial" font-size="14.00" fill="#666666">[text]</text>
<polygon fill="none" stroke="#000000" points="72,-162.5 72,-192.5 379,-192.5 379,-162.5 72,-162.5"/>
<text text-anchor="start" x="79" y="-173.9" font-family="Arial" font-size="14.00" fill="#000000">creator_id    </text>
<text text-anchor="start" x="175.4362" y="-173.9" font-family="Arial" font-size="14.00" fill="#666666">[uuid]</text>
<polygon fill="none" stroke="#000000" points="72,-132.5 72,-162.5 379,-162.5 379,-132.5 72,-132.5"/>
<text text-anchor="start" x="79" y="-143.9" font-family="Arial" font-size="14.00" fill="#000000">post_id    </text>
<text text-anchor="start" x="158.3324" y="-143.9" font-family="Arial" font-size="14.00" fill="#666666">[uuid]</text>
<polygon fill="none" stroke="#000000" points="72,-102.5 72,-132.5 379,-132.5 379,-102.5 72,-102.5"/>
<text text-anchor="start" x="79" y="-113.9" font-family="Arial" font-size="14.00" fill="#000000">reply_to    </text>
<text text-anchor="start" x="162.993" y="-113.9" font-family="Arial" font-size="14.00" fill="#666666">[uuid]</text>
<polygon fill="none" stroke="#000000" points="72,-72.5 72,-102.5 379,-102.5 379,-72.5 72,-72.5"/>
<text text-anchor="start" x="79" y="-83.9" font-family="Arial" font-size="14.00" fill="#000000">created_on    </text>
<text text-anchor="start" x="183.2342" y="-83.9" font-family="Arial" font-size="14.00" fill="#666666">[timestamp without time zone]</text>
<polygon fill="none" stroke="#000000" points="72,-42.5 72,-72.5 379,-72.5 379,-42.5 72,-42.5"/>
<text text-anchor="start" x="78.8605" y="-53.9" font-family="Arial" font-size="14.00" fill="#000000">updated_on    </text>
<text text-anchor="start" x="186.9993" y="-53.9" font-family="Arial" font-size="14.00" fill="#666666">[timestamp without time zone]</text>
</g>
<!-- public.comment_vote&#45;&gt;public.comment -->
<g id="edge1" class="edge">
<title>public.comment_vote:comment_id&#45;&gt;public.comment:id</title>
<path fill="none" stroke="#000000" d="M264.8076,-486.3981C224.6497,-476.8539 246.1199,-407.5583 275,-367 303.3715,-327.1559 350.6285,-370.8441 379,-331 403.1038,-297.1493 420.5556,-237.5 379,-237.5"/>
<polygon fill="#000000" stroke="#000000" points="265.0579,-486.4251 274.5163,-491.9739 270.029,-486.9625 275,-487.5 275,-487.5 275,-487.5 270.029,-486.9625 275.4837,-483.0261 265.0579,-486.4251 265.0579,-486.4251"/>
<text text-anchor="start" x="7.1675" y="-497.5" font-family="Arial" font-size="10.00" fill="#000000">FOREIGN KEY (comment_id) REFERENCES comment(id)</text>
</g>
<!-- public.user -->
<g id="node3" class="node">
<title>public.user</title>
<polygon fill="#efefef" stroke="transparent" points="483,-237.5 483,-272.5 790,-272.5 790,-237.5 483,-237.5"/>
<polygon fill="none" stroke="#000000" points="483,-237.5 483,-272.5 790,-272.5 790,-237.5 483,-237.5"/>
<text text-anchor="start" x="529.2091" y="-250.3" font-family="Arial Bold" font-size="18.00" fill="#000000">public.user</text>
<text text-anchor="start" x="616.2229" y="-250.3" font-family="Arial" font-size="14.00" fill="#000000">    </text>
<text text-anchor="start" x="650.4277" y="-250.3" font-family="Arial" font-size="14.00" fill="#666666">[BASE TABLE]</text>
<polygon fill="none" stroke="#000000" points="483,-207.5 483,-237.5 790,-237.5 790,-207.5 483,-207.5"/>
<text text-anchor="start" x="490" y="-218.9" font-family="Arial" font-size="14.00" fill="#000000">id    </text>
<text text-anchor="start" x="535.094" y="-218.9" font-family="Arial" font-size="14.00" fill="#666666">[uuid]</text>
<polygon fill="none" stroke="#000000" points="483,-177.5 483,-207.5 790,-207.5 790,-177.5 483,-177.5"/>
<text text-anchor="start" x="490" y="-188.9" font-family="Arial" font-size="14.00" fill="#000000">username    </text>
<text text-anchor="start" x="586.439" y="-188.9" font-family="Arial" font-size="14.00" fill="#666666">[varchar(25)]</text>
<polygon fill="none" stroke="#000000" points="483,-147.5 483,-177.5 790,-177.5 790,-147.5 483,-147.5"/>
<text text-anchor="start" x="490" y="-158.9" font-family="Arial" font-size="14.00" fill="#000000">profile_image    </text>
<text text-anchor="start" x="608.2146" y="-158.9" font-family="Arial" font-size="14.00" fill="#666666">[text]</text>
<polygon fill="none" stroke="#000000" points="483,-117.5 483,-147.5 790,-147.5 790,-117.5 483,-117.5"/>
<text text-anchor="start" x="490" y="-128.9" font-family="Arial" font-size="14.00" fill="#000000">role    </text>
<text text-anchor="start" x="547.5372" y="-128.9" font-family="Arial" font-size="14.00" fill="#666666">[site_role]</text>
<polygon fill="none" stroke="#000000" points="483,-87.5 483,-117.5 790,-117.5 790,-87.5 483,-87.5"/>
<text text-anchor="start" x="490" y="-98.9" font-family="Arial" font-size="14.00" fill="#000000">created_on    </text>
<text text-anchor="start" x="594.2342" y="-98.9" font-family="Arial" font-size="14.00" fill="#666666">[timestamp without time zone]</text>
<polygon fill="none" stroke="#000000" points="483,-57.5 483,-87.5 790,-87.5 790,-57.5 483,-57.5"/>
<text text-anchor="start" x="489.8605" y="-68.9" font-family="Arial" font-size="14.00" fill="#000000">updated_on    </text>
<text text-anchor="start" x="597.9993" y="-68.9" font-family="Arial" font-size="14.00" fill="#666666">[timestamp without time zone]</text>
</g>
<!-- public.comment_vote&#45;&gt;public.user -->
<g id="edge2" class="edge">
<title>public.comment_vote:user_id&#45;&gt;public.user:id</title>
<path fill="none" stroke="#000000" d="M596.1423,-455.9616C622.4884,-446.7101 605.1411,-397.8366 586,-367 559.0601,-323.5993 509.9399,-359.4007 483,-316 461.0842,-280.6933 441.4444,-222.5 483,-222.5"/>
<polygon fill="#000000" stroke="#000000" points="595.8869,-456.0002 585.3251,-453.0509 590.9435,-456.7501 586,-457.5 586,-457.5 586,-457.5 590.9435,-456.7501 586.6749,-461.9491 595.8869,-456.0002 595.8869,-456.0002"/>
<text text-anchor="start" x="593.2855" y="-467.5" font-family="Arial" font-size="10.00" fill="#000000">FOREIGN KEY (user_id) REFERENCES &quot;user&quot;(id)</text>
</g>
</g>
</svg>
