<?xml version="1.0" encoding="UTF-8" standalone="no"?>
<!DOCTYPE svg PUBLIC "-//W3C//DTD SVG 1.1//EN"
 "http://www.w3.org/Graphics/SVG/1.1/DTD/svg11.dtd">
<!-- Generated by graphviz version 2.40.1 (20161225.0304)
 -->
<!-- Title: public.post Pages: 1 -->
<svg width="2389pt" height="1259pt"
 viewBox="0.00 0.00 2389.00 1259.00" xmlns="http://www.w3.org/2000/svg" xmlns:xlink="http://www.w3.org/1999/xlink">
<g id="graph0" class="graph" transform="scale(1 1) rotate(0) translate(4 1255)">
<title>public.post</title>
<polygon fill="#ffffff" stroke="transparent" points="-4,4 -4,-1255 2385,-1255 2385,4 -4,4"/>
<!-- public.post -->
<g id="node1" class="node">
<title>public.post</title>
<polygon fill="#efefef" stroke="transparent" points="1104.5,-802.5 1104.5,-837.5 1380.5,-837.5 1380.5,-802.5 1104.5,-802.5"/>
<polygon fill="none" stroke="#000000" points="1104.5,-802.5 1104.5,-837.5 1380.5,-837.5 1380.5,-802.5 1104.5,-802.5"/>
<text text-anchor="start" x="1135.7041" y="-815.3" font-family="Arial Bold" font-size="18.00" fill="#000000">public.post</text>
<text text-anchor="start" x="1221.7279" y="-815.3" font-family="Arial" font-size="14.00" fill="#000000">    </text>
<text text-anchor="start" x="1255.9327" y="-815.3" font-family="Arial" font-size="14.00" fill="#666666">[BASE TABLE]</text>
<polygon fill="none" stroke="#000000" points="1104.5,-772.5 1104.5,-802.5 1380.5,-802.5 1380.5,-772.5 1104.5,-772.5"/>
<text text-anchor="start" x="1111.5" y="-783.9" font-family="Arial" font-size="14.00" fill="#000000">id </text>
<text text-anchor="start" x="1126.2798" y="-783.9" font-family="Arial" font-size="14.00" fill="#666666">[uuid]</text>
<polygon fill="none" stroke="#000000" points="1104.5,-742.5 1104.5,-772.5 1380.5,-772.5 1380.5,-742.5 1104.5,-742.5"/>
<text text-anchor="start" x="1111.5" y="-753.9" font-family="Arial" font-size="14.00" fill="#000000">name </text>
<text text-anchor="start" x="1150.399" y="-753.9" font-family="Arial" font-size="14.00" fill="#666666">[text]</text>
<polygon fill="none" stroke="#000000" points="1104.5,-712.5 1104.5,-742.5 1380.5,-742.5 1380.5,-712.5 1104.5,-712.5"/>
<text text-anchor="start" x="1111.5" y="-723.9" font-family="Arial" font-size="14.00" fill="#000000">description </text>
<text text-anchor="start" x="1183.068" y="-723.9" font-family="Arial" font-size="14.00" fill="#666666">[text]</text>
<polygon fill="none" stroke="#000000" points="1104.5,-682.5 1104.5,-712.5 1380.5,-712.5 1380.5,-682.5 1104.5,-682.5"/>
<text text-anchor="start" x="1111.5" y="-693.9" font-family="Arial" font-size="14.00" fill="#000000">alt_text </text>
<text text-anchor="start" x="1160.5168" y="-693.9" font-family="Arial" font-size="14.00" fill="#666666">[text]</text>
<polygon fill="none" stroke="#000000" points="1104.5,-652.5 1104.5,-682.5 1380.5,-682.5 1380.5,-652.5 1104.5,-652.5"/>
<text text-anchor="start" x="1111.5" y="-663.9" font-family="Arial" font-size="14.00" fill="#000000">created_by </text>
<text text-anchor="start" x="1184.6374" y="-663.9" font-family="Arial" font-size="14.00" fill="#666666">[uuid]</text>
<polygon fill="none" stroke="#000000" points="1104.5,-622.5 1104.5,-652.5 1380.5,-652.5 1380.5,-622.5 1104.5,-622.5"/>
<text text-anchor="start" x="1111.5" y="-633.9" font-family="Arial" font-size="14.00" fill="#000000">channel_id </text>
<text text-anchor="start" x="1183.082" y="-633.9" font-family="Arial" font-size="14.00" fill="#666666">[uuid]</text>
<polygon fill="none" stroke="#000000" points="1104.5,-592.5 1104.5,-622.5 1380.5,-622.5 1380.5,-592.5 1104.5,-592.5"/>
<text text-anchor="start" x="1111.5" y="-603.9" font-family="Arial" font-size="14.00" fill="#000000">video_id </text>
<text text-anchor="start" x="1167.5168" y="-603.9" font-family="Arial" font-size="14.00" fill="#666666">[text]</text>
<polygon fill="none" stroke="#000000" points="1104.5,-562.5 1104.5,-592.5 1380.5,-592.5 1380.5,-562.5 1104.5,-562.5"/>
<text text-anchor="start" x="1111.5" y="-573.9" font-family="Arial" font-size="14.00" fill="#000000">created_on </text>
<text text-anchor="start" x="1185.42" y="-573.9" font-family="Arial" font-size="14.00" fill="#666666">[timestamp without time zone]</text>
<polygon fill="none" stroke="#000000" points="1104.5,-532.5 1104.5,-562.5 1380.5,-562.5 1380.5,-532.5 1104.5,-532.5"/>
<text text-anchor="start" x="1111.0176" y="-543.9" font-family="Arial" font-size="14.00" fill="#000000">updated_on </text>
<text text-anchor="start" x="1188.8422" y="-543.9" font-family="Arial" font-size="14.00" fill="#666666">[timestamp without time zone]</text>
<polygon fill="none" stroke="#000000" points="1104.5,-502.5 1104.5,-532.5 1380.5,-532.5 1380.5,-502.5 1104.5,-502.5"/>
<text text-anchor="start" x="1111.5" y="-513.9" font-family="Arial" font-size="14.00" fill="#000000">upvotes </text>
<text text-anchor="start" x="1164.4116" y="-513.9" font-family="Arial" font-size="14.00" fill="#666666">[integer]</text>
<polygon fill="none" stroke="#000000" points="1104.5,-472.5 1104.5,-502.5 1380.5,-502.5 1380.5,-472.5 1104.5,-472.5"/>
<text text-anchor="start" x="1111.5" y="-483.9" font-family="Arial" font-size="14.00" fill="#000000">downvotes </text>
<text text-anchor="start" x="1182.3008" y="-483.9" font-family="Arial" font-size="14.00" fill="#666666">[integer]</text>
<polygon fill="none" stroke="#000000" stroke-width="3" points="1103,-471.5 1103,-839.5 1382,-839.5 1382,-471.5 1103,-471.5"/>
</g>
<!-- public.user -->
<g id="node8" class="node">
<title>public.user</title>
<polygon fill="#efefef" stroke="transparent" points="883.5,-297.5 883.5,-332.5 1190.5,-332.5 1190.5,-297.5 883.5,-297.5"/>
<polygon fill="none" stroke="#000000" points="883.5,-297.5 883.5,-332.5 1190.5,-332.5 1190.5,-297.5 883.5,-297.5"/>
<text text-anchor="start" x="929.7091" y="-310.3" font-family="Arial Bold" font-size="18.00" fill="#000000">public.user</text>
<text text-anchor="start" x="1016.7229" y="-310.3" font-family="Arial" font-size="14.00" fill="#000000">    </text>
<text text-anchor="start" x="1050.9277" y="-310.3" font-family="Arial" font-size="14.00" fill="#666666">[BASE TABLE]</text>
<polygon fill="none" stroke="#000000" points="883.5,-267.5 883.5,-297.5 1190.5,-297.5 1190.5,-267.5 883.5,-267.5"/>
<text text-anchor="start" x="890.5" y="-278.9" font-family="Arial" font-size="14.00" fill="#000000">id    </text>
<text text-anchor="start" x="935.594" y="-278.9" font-family="Arial" font-size="14.00" fill="#666666">[uuid]</text>
<polygon fill="none" stroke="#000000" points="883.5,-237.5 883.5,-267.5 1190.5,-267.5 1190.5,-237.5 883.5,-237.5"/>
<text text-anchor="start" x="890.5" y="-248.9" font-family="Arial" font-size="14.00" fill="#000000">username    </text>
<text text-anchor="start" x="986.939" y="-248.9" font-family="Arial" font-size="14.00" fill="#666666">[varchar(25)]</text>
<polygon fill="none" stroke="#000000" points="883.5,-207.5 883.5,-237.5 1190.5,-237.5 1190.5,-207.5 883.5,-207.5"/>
<text text-anchor="start" x="890.5" y="-218.9" font-family="Arial" font-size="14.00" fill="#000000">profile_image    </text>
<text text-anchor="start" x="1008.7146" y="-218.9" font-family="Arial" font-size="14.00" fill="#666666">[text]</text>
<polygon fill="none" stroke="#000000" points="883.5,-177.5 883.5,-207.5 1190.5,-207.5 1190.5,-177.5 883.5,-177.5"/>
<text text-anchor="start" x="890.5" y="-188.9" font-family="Arial" font-size="14.00" fill="#000000">role    </text>
<text text-anchor="start" x="948.0372" y="-188.9" font-family="Arial" font-size="14.00" fill="#666666">[site_role]</text>
<polygon fill="none" stroke="#000000" points="883.5,-147.5 883.5,-177.5 1190.5,-177.5 1190.5,-147.5 883.5,-147.5"/>
<text text-anchor="start" x="890.5" y="-158.9" font-family="Arial" font-size="14.00" fill="#000000">created_on    </text>
<text text-anchor="start" x="994.7342" y="-158.9" font-family="Arial" font-size="14.00" fill="#666666">[timestamp without time zone]</text>
<polygon fill="none" stroke="#000000" points="883.5,-117.5 883.5,-147.5 1190.5,-147.5 1190.5,-117.5 883.5,-117.5"/>
<text text-anchor="start" x="890.3605" y="-128.9" font-family="Arial" font-size="14.00" fill="#000000">updated_on    </text>
<text text-anchor="start" x="998.4993" y="-128.9" font-family="Arial" font-size="14.00" fill="#666666">[timestamp without time zone]</text>
<polygon fill="none" stroke="#000000" points="883.5,-87.5 883.5,-117.5 1190.5,-117.5 1190.5,-87.5 883.5,-87.5"/>
<text text-anchor="start" x="890.5" y="-98.9" font-family="Arial" font-size="14.00" fill="#000000">discord_id    </text>
<text text-anchor="start" x="988.4916" y="-98.9" font-family="Arial" font-size="14.00" fill="#666666">[bigint]</text>
<polygon fill="none" stroke="#000000" points="883.5,-57.5 883.5,-87.5 1190.5,-87.5 1190.5,-57.5 883.5,-57.5"/>
<text text-anchor="start" x="890.5" y="-68.9" font-family="Arial" font-size="14.00" fill="#000000">github_id    </text>
<text text-anchor="start" x="981.5042" y="-68.9" font-family="Arial" font-size="14.00" fill="#666666">[integer]</text>
</g>
<!-- public.post&#45;&gt;public.user -->
<g id="edge7" class="edge">
<title>public.post:created_by&#45;&gt;public.user:id</title>
<path fill="none" stroke="#000000" d="M1094.379,-667.0192C1001.1949,-657.7574 1053.3534,-516.795 1104.5,-427 1126.4939,-388.3867 1168.5061,-414.6133 1190.5,-376 1211.0673,-339.8912 1232.0556,-282.5 1190.5,-282.5"/>
<polygon fill="#000000" stroke="#000000" points="1094.5113,-667.0254 1104.2864,-671.9949 1099.5056,-667.2627 1104.5,-667.5 1104.5,-667.5 1104.5,-667.5 1099.5056,-667.2627 1104.7136,-663.0051 1094.5113,-667.0254 1094.5113,-667.0254"/>
<text text-anchor="start" x="855.4465" y="-677.5" font-family="Arial" font-size="10.00" fill="#000000">FOREIGN KEY (created_by) REFERENCES &quot;user&quot;(id)</text>
</g>
<!-- public.channel -->
<g id="node9" class="node">
<title>public.channel</title>
<polygon fill="#efefef" stroke="transparent" points="1294.5,-312.5 1294.5,-347.5 1601.5,-347.5 1601.5,-312.5 1294.5,-312.5"/>
<polygon fill="none" stroke="#000000" points="1294.5,-312.5 1294.5,-347.5 1601.5,-347.5 1601.5,-312.5 1294.5,-312.5"/>
<text text-anchor="start" x="1326.6988" y="-325.3" font-family="Arial Bold" font-size="18.00" fill="#000000">public.channel</text>
<text text-anchor="start" x="1441.7332" y="-325.3" font-family="Arial" font-size="14.00" fill="#000000">    </text>
<text text-anchor="start" x="1475.938" y="-325.3" font-family="Arial" font-size="14.00" fill="#666666">[BASE TABLE]</text>
<polygon fill="none" stroke="#000000" points="1294.5,-282.5 1294.5,-312.5 1601.5,-312.5 1601.5,-282.5 1294.5,-282.5"/>
<text text-anchor="start" x="1301.5" y="-293.9" font-family="Arial" font-size="14.00" fill="#000000">id    </text>
<text text-anchor="start" x="1346.594" y="-293.9" font-family="Arial" font-size="14.00" fill="#666666">[uuid]</text>
<polygon fill="none" stroke="#000000" points="1294.5,-252.5 1294.5,-282.5 1601.5,-282.5 1601.5,-252.5 1294.5,-252.5"/>
<text text-anchor="start" x="1301.5" y="-263.9" font-family="Arial" font-size="14.00" fill="#000000">name    </text>
<text text-anchor="start" x="1370.7132" y="-263.9" font-family="Arial" font-size="14.00" fill="#666666">[text]</text>
<polygon fill="none" stroke="#000000" points="1294.5,-222.5 1294.5,-252.5 1601.5,-252.5 1601.5,-222.5 1294.5,-222.5"/>
<text text-anchor="start" x="1301.5" y="-233.9" font-family="Arial" font-size="14.00" fill="#000000">description    </text>
<text text-anchor="start" x="1403.3822" y="-233.9" font-family="Arial" font-size="14.00" fill="#666666">[text]</text>
<polygon fill="none" stroke="#000000" points="1294.5,-192.5 1294.5,-222.5 1601.5,-222.5 1601.5,-192.5 1294.5,-192.5"/>
<text text-anchor="start" x="1301.5" y="-203.9" font-family="Arial" font-size="14.00" fill="#000000">guidelines    </text>
<text text-anchor="start" x="1398.7202" y="-203.9" font-family="Arial" font-size="14.00" fill="#666666">[text]</text>
<polygon fill="none" stroke="#000000" points="1294.5,-162.5 1294.5,-192.5 1601.5,-192.5 1601.5,-162.5 1294.5,-162.5"/>
<text text-anchor="start" x="1301.5" y="-173.9" font-family="Arial" font-size="14.00" fill="#000000">created_by    </text>
<text text-anchor="start" x="1404.9516" y="-173.9" font-family="Arial" font-size="14.00" fill="#666666">[uuid]</text>
<polygon fill="none" stroke="#000000" points="1294.5,-132.5 1294.5,-162.5 1601.5,-162.5 1601.5,-132.5 1294.5,-132.5"/>
<text text-anchor="start" x="1301.5" y="-143.9" font-family="Arial" font-size="14.00" fill="#000000">banner_image    </text>
<text text-anchor="start" x="1425.176" y="-143.9" font-family="Arial" font-size="14.00" fill="#666666">[text]</text>
<polygon fill="none" stroke="#000000" points="1294.5,-102.5 1294.5,-132.5 1601.5,-132.5 1601.5,-102.5 1294.5,-102.5"/>
<text text-anchor="start" x="1301.5" y="-113.9" font-family="Arial" font-size="14.00" fill="#000000">icon    </text>
<text text-anchor="start" x="1361.3766" y="-113.9" font-family="Arial" font-size="14.00" fill="#666666">[text]</text>
<polygon fill="none" stroke="#000000" points="1294.5,-72.5 1294.5,-102.5 1601.5,-102.5 1601.5,-72.5 1294.5,-72.5"/>
<text text-anchor="start" x="1301.5" y="-83.9" font-family="Arial" font-size="14.00" fill="#000000">created_on    </text>
<text text-anchor="start" x="1405.7342" y="-83.9" font-family="Arial" font-size="14.00" fill="#666666">[timestamp without time zone]</text>
<polygon fill="none" stroke="#000000" points="1294.5,-42.5 1294.5,-72.5 1601.5,-72.5 1601.5,-42.5 1294.5,-42.5"/>
<text text-anchor="start" x="1301.3605" y="-53.9" font-family="Arial" font-size="14.00" fill="#000000">updated_on    </text>
<text text-anchor="start" x="1409.4993" y="-53.9" font-family="Arial" font-size="14.00" fill="#666666">[timestamp without time zone]</text>
</g>
<!-- public.post&#45;&gt;public.channel -->
<g id="edge8" class="edge">
<title>public.post:channel_id&#45;&gt;public.channel:id</title>
<path fill="none" stroke="#000000" d="M1390.8517,-636.9041C1470.7804,-627.223 1430.3064,-501.8433 1380.5,-427 1357.5439,-392.5043 1317.4561,-425.4957 1294.5,-391 1271.4777,-356.4047 1252.9444,-297.5 1294.5,-297.5"/>
<polygon fill="#000000" stroke="#000000" points="1390.4835,-636.9252 1380.2413,-633.0074 1385.4917,-637.2126 1380.5,-637.5 1380.5,-637.5 1380.5,-637.5 1385.4917,-637.2126 1380.7587,-641.9926 1390.4835,-636.9252 1390.4835,-636.9252"/>
<text text-anchor="start" x="1387.7675" y="-647.5" font-family="Arial" font-size="10.00" fill="#000000">FOREIGN KEY (channel_id) REFERENCES channel(id)</text>
</g>
<!-- public.comment -->
<g id="node2" class="node">
<title>public.comment</title>
<polygon fill="#efefef" stroke="transparent" points="43.5,-1172.5 43.5,-1207.5 350.5,-1207.5 350.5,-1172.5 43.5,-1172.5"/>
<polygon fill="none" stroke="#000000" points="43.5,-1172.5 43.5,-1207.5 350.5,-1207.5 350.5,-1172.5 43.5,-1172.5"/>
<text text-anchor="start" x="70.2088" y="-1185.3" font-family="Arial Bold" font-size="18.00" fill="#000000">public.comment</text>
<text text-anchor="start" x="196.2232" y="-1185.3" font-family="Arial" font-size="14.00" fill="#000000">    </text>
<text text-anchor="start" x="230.428" y="-1185.3" font-family="Arial" font-size="14.00" fill="#666666">[BASE TABLE]</text>
<polygon fill="none" stroke="#000000" points="43.5,-1142.5 43.5,-1172.5 350.5,-1172.5 350.5,-1142.5 43.5,-1142.5"/>
<text text-anchor="start" x="50.5" y="-1153.9" font-family="Arial" font-size="14.00" fill="#000000">id    </text>
<text text-anchor="start" x="95.594" y="-1153.9" font-family="Arial" font-size="14.00" fill="#666666">[uuid]</text>
<polygon fill="none" stroke="#000000" points="43.5,-1112.5 43.5,-1142.5 350.5,-1142.5 350.5,-1112.5 43.5,-1112.5"/>
<text text-anchor="start" x="50.5" y="-1123.9" font-family="Arial" font-size="14.00" fill="#000000">content    </text>
<text text-anchor="start" x="130.6164" y="-1123.9" font-family="Arial" font-size="14.00" fill="#666666">[text]</text>
<polygon fill="none" stroke="#000000" points="43.5,-1082.5 43.5,-1112.5 350.5,-1112.5 350.5,-1082.5 43.5,-1082.5"/>
<text text-anchor="start" x="50.5" y="-1093.9" font-family="Arial" font-size="14.00" fill="#000000">creator_id    </text>
<text text-anchor="start" x="146.9362" y="-1093.9" font-family="Arial" font-size="14.00" fill="#666666">[uuid]</text>
<polygon fill="none" stroke="#000000" points="43.5,-1052.5 43.5,-1082.5 350.5,-1082.5 350.5,-1052.5 43.5,-1052.5"/>
<text text-anchor="start" x="50.5" y="-1063.9" font-family="Arial" font-size="14.00" fill="#000000">post_id    </text>
<text text-anchor="start" x="129.8324" y="-1063.9" font-family="Arial" font-size="14.00" fill="#666666">[uuid]</text>
<polygon fill="none" stroke="#000000" points="43.5,-1022.5 43.5,-1052.5 350.5,-1052.5 350.5,-1022.5 43.5,-1022.5"/>
<text text-anchor="start" x="50.5" y="-1033.9" font-family="Arial" font-size="14.00" fill="#000000">reply_to    </text>
<text text-anchor="start" x="134.493" y="-1033.9" font-family="Arial" font-size="14.00" fill="#666666">[uuid]</text>
<polygon fill="none" stroke="#000000" points="43.5,-992.5 43.5,-1022.5 350.5,-1022.5 350.5,-992.5 43.5,-992.5"/>
<text text-anchor="start" x="50.5" y="-1003.9" font-family="Arial" font-size="14.00" fill="#000000">created_on    </text>
<text text-anchor="start" x="154.7342" y="-1003.9" font-family="Arial" font-size="14.00" fill="#666666">[timestamp without time zone]</text>
<polygon fill="none" stroke="#000000" points="43.5,-962.5 43.5,-992.5 350.5,-992.5 350.5,-962.5 43.5,-962.5"/>
<text text-anchor="start" x="50.3605" y="-973.9" font-family="Arial" font-size="14.00" fill="#000000">updated_on    </text>
<text text-anchor="start" x="158.4993" y="-973.9" font-family="Arial" font-size="14.00" fill="#666666">[timestamp without time zone]</text>
</g>
<!-- public.comment&#45;&gt;public.post -->
<g id="edge1" class="edge">
<title>public.comment:post_id&#45;&gt;public.post:id</title>
<path fill="none" stroke="#000000" d="M360.6929,-1066.6088C412.6933,-1056.4886 352.6349,-962.7916 402.5,-920 522.9755,-816.6142 945.7456,-787.5 1104.5,-787.5"/>
<polygon fill="#000000" stroke="#000000" points="360.462,-1066.6289 350.108,-1063.0171 355.481,-1067.0644 350.5,-1067.5 350.5,-1067.5 350.5,-1067.5 355.481,-1067.0644 350.892,-1071.9829 360.462,-1066.6289 360.462,-1066.6289"/>
<text text-anchor="start" x="242.3845" y="-1051.5" font-family="Arial" font-size="10.00" fill="#000000">FOREIGN KEY (post_id) REFERENCES post(id)</text>
</g>
<!-- public.playlist_post -->
<g id="node3" class="node">
<title>public.playlist_post</title>
<polygon fill="#efefef" stroke="transparent" points="454.5,-1127.5 454.5,-1162.5 746.5,-1162.5 746.5,-1127.5 454.5,-1127.5"/>
<polygon fill="none" stroke="#000000" points="454.5,-1127.5 454.5,-1162.5 746.5,-1162.5 746.5,-1127.5 454.5,-1127.5"/>
<text text-anchor="start" x="461.2024" y="-1140.3" font-family="Arial Bold" font-size="18.00" fill="#000000">public.playlist_post</text>
<text text-anchor="start" x="612.2296" y="-1140.3" font-family="Arial" font-size="14.00" fill="#000000">    </text>
<text text-anchor="start" x="646.4344" y="-1140.3" font-family="Arial" font-size="14.00" fill="#666666">[BASE TABLE]</text>
<polygon fill="none" stroke="#000000" points="454.5,-1097.5 454.5,-1127.5 746.5,-1127.5 746.5,-1097.5 454.5,-1097.5"/>
<text text-anchor="start" x="461.5" y="-1108.9" font-family="Arial" font-size="14.00" fill="#000000">id    </text>
<text text-anchor="start" x="506.594" y="-1108.9" font-family="Arial" font-size="14.00" fill="#666666">[uuid]</text>
<polygon fill="none" stroke="#000000" points="454.5,-1067.5 454.5,-1097.5 746.5,-1097.5 746.5,-1067.5 454.5,-1067.5"/>
<text text-anchor="start" x="461.5" y="-1078.9" font-family="Arial" font-size="14.00" fill="#000000">playlist_id    </text>
<text text-anchor="start" x="557.1522" y="-1078.9" font-family="Arial" font-size="14.00" fill="#666666">[uuid]</text>
<polygon fill="none" stroke="#000000" points="454.5,-1037.5 454.5,-1067.5 746.5,-1067.5 746.5,-1037.5 454.5,-1037.5"/>
<text text-anchor="start" x="461.5" y="-1048.9" font-family="Arial" font-size="14.00" fill="#000000">post_id    </text>
<text text-anchor="start" x="540.8324" y="-1048.9" font-family="Arial" font-size="14.00" fill="#666666">[uuid]</text>
<polygon fill="none" stroke="#000000" points="454.5,-1007.5 454.5,-1037.5 746.5,-1037.5 746.5,-1007.5 454.5,-1007.5"/>
<text text-anchor="start" x="461.5" y="-1018.9" font-family="Arial" font-size="14.00" fill="#000000">sort_index    </text>
<text text-anchor="start" x="560.2756" y="-1018.9" font-family="Arial" font-size="14.00" fill="#666666">[smallint]</text>
</g>
<!-- public.playlist_post&#45;&gt;public.post -->
<g id="edge2" class="edge">
<title>public.playlist_post:post_id&#45;&gt;public.post:id</title>
<path fill="none" stroke="#000000" d="M756.7362,-1051.5717C803.4392,-1042.1171 757.2101,-962.746 798.5,-920 901.4636,-813.4055 956.2978,-787.5 1104.5,-787.5"/>
<polygon fill="#000000" stroke="#000000" points="756.4591,-1051.5968 746.0935,-1048.0184 751.4796,-1052.0484 746.5,-1052.5 746.5,-1052.5 746.5,-1052.5 751.4796,-1052.0484 746.9065,-1056.9816 756.4591,-1051.5968 756.4591,-1051.5968"/>
<text text-anchor="start" x="638.3845" y="-1036.5" font-family="Arial" font-size="10.00" fill="#000000">FOREIGN KEY (post_id) REFERENCES post(id)</text>
</g>
<!-- public.channel_post_report -->
<g id="node4" class="node">
<title>public.channel_post_report</title>
<polygon fill="#efefef" stroke="transparent" points="851.5,-1142.5 851.5,-1177.5 1208.5,-1177.5 1208.5,-1142.5 851.5,-1142.5"/>
<polygon fill="none" stroke="#000000" points="851.5,-1142.5 851.5,-1177.5 1208.5,-1177.5 1208.5,-1142.5 851.5,-1142.5"/>
<text text-anchor="start" x="858.1827" y="-1155.3" font-family="Arial Bold" font-size="18.00" fill="#000000">public.channel_post_report</text>
<text text-anchor="start" x="1074.2493" y="-1155.3" font-family="Arial" font-size="14.00" fill="#000000">    </text>
<text text-anchor="start" x="1108.4541" y="-1155.3" font-family="Arial" font-size="14.00" fill="#666666">[BASE TABLE]</text>
<polygon fill="none" stroke="#000000" points="851.5,-1112.5 851.5,-1142.5 1208.5,-1142.5 1208.5,-1112.5 851.5,-1112.5"/>
<text text-anchor="start" x="858.5" y="-1123.9" font-family="Arial" font-size="14.00" fill="#000000">id    </text>
<text text-anchor="start" x="903.594" y="-1123.9" font-family="Arial" font-size="14.00" fill="#666666">[uuid]</text>
<polygon fill="none" stroke="#000000" points="851.5,-1082.5 851.5,-1112.5 1208.5,-1112.5 1208.5,-1082.5 851.5,-1082.5"/>
<text text-anchor="start" x="858.5" y="-1093.9" font-family="Arial" font-size="14.00" fill="#000000">post_id    </text>
<text text-anchor="start" x="937.8324" y="-1093.9" font-family="Arial" font-size="14.00" fill="#666666">[uuid]</text>
<polygon fill="none" stroke="#000000" points="851.5,-1052.5 851.5,-1082.5 1208.5,-1082.5 1208.5,-1052.5 851.5,-1052.5"/>
<text text-anchor="start" x="858.5" y="-1063.9" font-family="Arial" font-size="14.00" fill="#000000">description    </text>
<text text-anchor="start" x="960.3822" y="-1063.9" font-family="Arial" font-size="14.00" fill="#666666">[text]</text>
<polygon fill="none" stroke="#000000" points="851.5,-1022.5 851.5,-1052.5 1208.5,-1052.5 1208.5,-1022.5 851.5,-1022.5"/>
<text text-anchor="start" x="858.5" y="-1033.9" font-family="Arial" font-size="14.00" fill="#000000">resolution    </text>
<text text-anchor="start" x="953.3822" y="-1033.9" font-family="Arial" font-size="14.00" fill="#666666">[text]</text>
<polygon fill="none" stroke="#000000" points="851.5,-992.5 851.5,-1022.5 1208.5,-1022.5 1208.5,-992.5 851.5,-992.5"/>
<text text-anchor="start" x="858.5" y="-1003.9" font-family="Arial" font-size="14.00" fill="#000000">status    </text>
<text text-anchor="start" x="930.0512" y="-1003.9" font-family="Arial" font-size="14.00" fill="#666666">[report_status]</text>
</g>
<!-- public.channel_post_report&#45;&gt;public.post -->
<g id="edge3" class="edge">
<title>public.channel_post_report:post_id&#45;&gt;public.post:id</title>
<path fill="none" stroke="#000000" d="M1218.6999,-1096.6556C1270.2146,-1087.4033 1238.2929,-1004.1929 1208.5,-950 1182.1267,-902.0272 1130.8733,-931.9728 1104.5,-884 1083.8381,-846.4162 1061.6111,-787.5 1104.5,-787.5"/>
<polygon fill="#000000" stroke="#000000" points="1218.4659,-1096.6749 1208.1287,-1093.0153 1213.483,-1097.0874 1208.5,-1097.5 1208.5,-1097.5 1208.5,-1097.5 1213.483,-1097.0874 1208.8713,-1101.9847 1218.4659,-1096.6749 1218.4659,-1096.6749"/>
<text text-anchor="start" x="1215.8845" y="-1107.5" font-family="Arial" font-size="10.00" fill="#000000">FOREIGN KEY (post_id) REFERENCES post(id)</text>
</g>
<!-- public.post_report -->
<g id="node5" class="node">
<title>public.post_report</title>
<polygon fill="#efefef" stroke="transparent" points="1312.5,-1142.5 1312.5,-1177.5 1596.5,-1177.5 1596.5,-1142.5 1312.5,-1142.5"/>
<polygon fill="none" stroke="#000000" points="1312.5,-1142.5 1312.5,-1177.5 1596.5,-1177.5 1596.5,-1142.5 1312.5,-1142.5"/>
<text text-anchor="start" x="1319.1984" y="-1155.3" font-family="Arial Bold" font-size="18.00" fill="#000000">public.post_report</text>
<text text-anchor="start" x="1462.2336" y="-1155.3" font-family="Arial" font-size="14.00" fill="#000000">    </text>
<text text-anchor="start" x="1496.4384" y="-1155.3" font-family="Arial" font-size="14.00" fill="#666666">[BASE TABLE]</text>
<polygon fill="none" stroke="#000000" points="1312.5,-1112.5 1312.5,-1142.5 1596.5,-1142.5 1596.5,-1112.5 1312.5,-1112.5"/>
<text text-anchor="start" x="1319.5" y="-1123.9" font-family="Arial" font-size="14.00" fill="#000000">id    </text>
<text text-anchor="start" x="1364.594" y="-1123.9" font-family="Arial" font-size="14.00" fill="#666666">[uuid]</text>
<polygon fill="none" stroke="#000000" points="1312.5,-1082.5 1312.5,-1112.5 1596.5,-1112.5 1596.5,-1082.5 1312.5,-1082.5"/>
<text text-anchor="start" x="1319.5" y="-1093.9" font-family="Arial" font-size="14.00" fill="#000000">post_id    </text>
<text text-anchor="start" x="1398.8324" y="-1093.9" font-family="Arial" font-size="14.00" fill="#666666">[uuid]</text>
<polygon fill="none" stroke="#000000" points="1312.5,-1052.5 1312.5,-1082.5 1596.5,-1082.5 1596.5,-1052.5 1312.5,-1052.5"/>
<text text-anchor="start" x="1319.5" y="-1063.9" font-family="Arial" font-size="14.00" fill="#000000">description    </text>
<text text-anchor="start" x="1421.3822" y="-1063.9" font-family="Arial" font-size="14.00" fill="#666666">[text]</text>
<polygon fill="none" stroke="#000000" points="1312.5,-1022.5 1312.5,-1052.5 1596.5,-1052.5 1596.5,-1022.5 1312.5,-1022.5"/>
<text text-anchor="start" x="1319.5" y="-1033.9" font-family="Arial" font-size="14.00" fill="#000000">resolution    </text>
<text text-anchor="start" x="1414.3822" y="-1033.9" font-family="Arial" font-size="14.00" fill="#666666">[text]</text>
<polygon fill="none" stroke="#000000" points="1312.5,-992.5 1312.5,-1022.5 1596.5,-1022.5 1596.5,-992.5 1312.5,-992.5"/>
<text text-anchor="start" x="1319.5" y="-1003.9" font-family="Arial" font-size="14.00" fill="#000000">status    </text>
<text text-anchor="start" x="1391.0512" y="-1003.9" font-family="Arial" font-size="14.00" fill="#666666">[report_status]</text>
</g>
<!-- public.post_report&#45;&gt;public.post -->
<g id="edge4" class="edge">
<title>public.post_report:post_id&#45;&gt;public.post:id</title>
<path fill="none" stroke="#000000" d="M1302.3549,-1096.6822C1251.4312,-1087.7164 1288.4082,-1006.9568 1312.5,-950 1328.9073,-911.2105 1364.0927,-922.7895 1380.5,-884 1397.2081,-844.4994 1423.3889,-787.5 1380.5,-787.5"/>
<polygon fill="#000000" stroke="#000000" points="1302.5323,-1096.6964 1312.1384,-1101.9854 1307.5162,-1097.0982 1312.5,-1097.5 1312.5,-1097.5 1312.5,-1097.5 1307.5162,-1097.0982 1312.8616,-1093.0146 1302.5323,-1096.6964 1302.5323,-1096.6964"/>
<text text-anchor="start" x="1262.1345" y="-1081.5" font-family="Arial" font-size="10.00" fill="#000000">FOREIGN KEY (post_id) REFERENCES post(id)</text>
</g>
<!-- public.post_tag -->
<g id="node6" class="node">
<title>public.post_tag</title>
<polygon fill="#efefef" stroke="transparent" points="1700.5,-1112.5 1700.5,-1147.5 1962.5,-1147.5 1962.5,-1112.5 1700.5,-1112.5"/>
<polygon fill="none" stroke="#000000" points="1700.5,-1112.5 1700.5,-1147.5 1962.5,-1147.5 1962.5,-1112.5 1700.5,-1112.5"/>
<text text-anchor="start" x="1707.1937" y="-1125.3" font-family="Arial Bold" font-size="18.00" fill="#000000">public.post_tag</text>
<text text-anchor="start" x="1828.2383" y="-1125.3" font-family="Arial" font-size="14.00" fill="#000000">    </text>
<text text-anchor="start" x="1862.4431" y="-1125.3" font-family="Arial" font-size="14.00" fill="#666666">[BASE TABLE]</text>
<polygon fill="none" stroke="#000000" points="1700.5,-1082.5 1700.5,-1112.5 1962.5,-1112.5 1962.5,-1082.5 1700.5,-1082.5"/>
<text text-anchor="start" x="1707.5" y="-1093.9" font-family="Arial" font-size="14.00" fill="#000000">id    </text>
<text text-anchor="start" x="1752.594" y="-1093.9" font-family="Arial" font-size="14.00" fill="#666666">[uuid]</text>
<polygon fill="none" stroke="#000000" points="1700.5,-1052.5 1700.5,-1082.5 1962.5,-1082.5 1962.5,-1052.5 1700.5,-1052.5"/>
<text text-anchor="start" x="1707.5" y="-1063.9" font-family="Arial" font-size="14.00" fill="#000000">post_id    </text>
<text text-anchor="start" x="1786.8324" y="-1063.9" font-family="Arial" font-size="14.00" fill="#666666">[uuid]</text>
<polygon fill="none" stroke="#000000" points="1700.5,-1022.5 1700.5,-1052.5 1962.5,-1052.5 1962.5,-1022.5 1700.5,-1022.5"/>
<text text-anchor="start" x="1707.5" y="-1033.9" font-family="Arial" font-size="14.00" fill="#000000">tag_id    </text>
<text text-anchor="start" x="1779.8324" y="-1033.9" font-family="Arial" font-size="14.00" fill="#666666">[uuid]</text>
</g>
<!-- public.post_tag&#45;&gt;public.post -->
<g id="edge5" class="edge">
<title>public.post_tag:post_id&#45;&gt;public.post:id</title>
<path fill="none" stroke="#000000" d="M1690.2507,-1066.666C1637.6201,-1057.1863 1692.0879,-969.1705 1648.5,-920 1560.3583,-820.5696 1513.3735,-787.5 1380.5,-787.5"/>
<polygon fill="#000000" stroke="#000000" points="1690.5329,-1066.6889 1700.135,-1071.9852 1695.5165,-1067.0944 1700.5,-1067.5 1700.5,-1067.5 1700.5,-1067.5 1695.5165,-1067.0944 1700.865,-1063.0148 1690.5329,-1066.6889 1690.5329,-1066.6889"/>
<text text-anchor="start" x="1534.6345" y="-1051.5" font-family="Arial" font-size="10.00" fill="#000000">FOREIGN KEY (post_id) REFERENCES post(id)</text>
</g>
<!-- public.post_vote -->
<g id="node7" class="node">
<title>public.post_vote</title>
<polygon fill="#efefef" stroke="transparent" points="2067.5,-1112.5 2067.5,-1147.5 2338.5,-1147.5 2338.5,-1112.5 2067.5,-1112.5"/>
<polygon fill="none" stroke="#000000" points="2067.5,-1112.5 2067.5,-1147.5 2338.5,-1147.5 2338.5,-1112.5 2067.5,-1112.5"/>
<text text-anchor="start" x="2074.1937" y="-1125.3" font-family="Arial Bold" font-size="18.00" fill="#000000">public.post_vote</text>
<text text-anchor="start" x="2204.2383" y="-1125.3" font-family="Arial" font-size="14.00" fill="#000000">    </text>
<text text-anchor="start" x="2238.4431" y="-1125.3" font-family="Arial" font-size="14.00" fill="#666666">[BASE TABLE]</text>
<polygon fill="none" stroke="#000000" points="2067.5,-1082.5 2067.5,-1112.5 2338.5,-1112.5 2338.5,-1082.5 2067.5,-1082.5"/>
<text text-anchor="start" x="2074.5" y="-1093.9" font-family="Arial" font-size="14.00" fill="#000000">post_id    </text>
<text text-anchor="start" x="2153.8324" y="-1093.9" font-family="Arial" font-size="14.00" fill="#666666">[uuid]</text>
<polygon fill="none" stroke="#000000" points="2067.5,-1052.5 2067.5,-1082.5 2338.5,-1082.5 2338.5,-1052.5 2067.5,-1052.5"/>
<text text-anchor="start" x="2074.5" y="-1063.9" font-family="Arial" font-size="14.00" fill="#000000">user_id    </text>
<text text-anchor="start" x="2154.6024" y="-1063.9" font-family="Arial" font-size="14.00" fill="#666666">[uuid]</text>
<polygon fill="none" stroke="#000000" points="2067.5,-1022.5 2067.5,-1052.5 2338.5,-1052.5 2338.5,-1022.5 2067.5,-1022.5"/>
<text text-anchor="start" x="2074.5" y="-1033.9" font-family="Arial" font-size="14.00" fill="#000000">vote    </text>
<text text-anchor="start" x="2135.1606" y="-1033.9" font-family="Arial" font-size="14.00" fill="#666666">[vote]</text>
</g>
<!-- public.post_vote&#45;&gt;public.post -->
<g id="edge6" class="edge">
<title>public.post_vote:post_id&#45;&gt;public.post:id</title>
<path fill="none" stroke="#000000" d="M2057.4183,-1096.7798C1992.9465,-1086.6918 2072.3905,-973.2137 2014.5,-920 1908.5338,-822.5946 1524.4328,-787.5 1380.5,-787.5"/>
<polygon fill="#000000" stroke="#000000" points="2057.5254,-1096.7873 2067.1793,-1101.9886 2062.5127,-1097.1437 2067.5,-1097.5 2067.5,-1097.5 2067.5,-1097.5 2062.5127,-1097.1437 2067.8207,-1093.0114 2057.5254,-1096.7873 2057.5254,-1096.7873"/>
<text text-anchor="start" x="1843.8845" y="-1107.5" font-family="Arial" font-size="10.00" fill="#000000">FOREIGN KEY (post_id) REFERENCES post(id)</text>
</g>
</g>
</svg>
