<?xml version="1.0" encoding="UTF-8" standalone="no"?>
<!DOCTYPE svg PUBLIC "-//W3C//DTD SVG 1.1//EN"
 "http://www.w3.org/Graphics/SVG/1.1/DTD/svg11.dtd">
<!-- Generated by graphviz version 2.40.1 (20161225.0304)
 -->
<!-- Title: public.user_block Pages: 1 -->
<svg width="583pt" height="532pt"
 viewBox="0.00 0.00 582.50 532.00" xmlns="http://www.w3.org/2000/svg" xmlns:xlink="http://www.w3.org/1999/xlink">
<g id="graph0" class="graph" transform="scale(1 1) rotate(0) translate(4 528)">
<title>public.user_block</title>
<polygon fill="#ffffff" stroke="transparent" points="-4,4 -4,-528 578.5,-528 578.5,4 -4,4"/>
<!-- public.user_block -->
<g id="node1" class="node">
<title>public.user_block</title>
<polygon fill="#efefef" stroke="transparent" points="239,-442.5 239,-477.5 519,-477.5 519,-442.5 239,-442.5"/>
<polygon fill="none" stroke="#000000" points="239,-442.5 239,-477.5 519,-477.5 519,-442.5 239,-442.5"/>
<text text-anchor="start" x="245.7027" y="-455.3" font-family="Arial Bold" font-size="18.00" fill="#000000">public.user_block</text>
<text text-anchor="start" x="384.7293" y="-455.3" font-family="Arial" font-size="14.00" fill="#000000">    </text>
<text text-anchor="start" x="418.9341" y="-455.3" font-family="Arial" font-size="14.00" fill="#666666">[BASE TABLE]</text>
<polygon fill="none" stroke="#000000" points="239,-412.5 239,-442.5 519,-442.5 519,-412.5 239,-412.5"/>
<text text-anchor="start" x="246" y="-423.9" font-family="Arial" font-size="14.00" fill="#000000">user_id </text>
<text text-anchor="start" x="295.7882" y="-423.9" font-family="Arial" font-size="14.00" fill="#666666">[uuid]</text>
<polygon fill="none" stroke="#000000" points="239,-382.5 239,-412.5 519,-412.5 519,-382.5 239,-382.5"/>
<text text-anchor="start" x="246" y="-393.9" font-family="Arial" font-size="14.00" fill="#000000">blocked_user_id </text>
<text text-anchor="start" x="351.8078" y="-393.9" font-family="Arial" font-size="14.00" fill="#666666">[uuid]</text>
<polygon fill="none" stroke="#000000" stroke-width="3" points="237.5,-381.5 237.5,-479.5 520.5,-479.5 520.5,-381.5 237.5,-381.5"/>
</g>
<!-- public.user -->
<g id="node2" class="node">
<title>public.user</title>
<polygon fill="#efefef" stroke="transparent" points="225,-222.5 225,-257.5 532,-257.5 532,-222.5 225,-222.5"/>
<polygon fill="none" stroke="#000000" points="225,-222.5 225,-257.5 532,-257.5 532,-222.5 225,-222.5"/>
<text text-anchor="start" x="271.2091" y="-235.3" font-family="Arial Bold" font-size="18.00" fill="#000000">public.user</text>
<text text-anchor="start" x="358.2229" y="-235.3" font-family="Arial" font-size="14.00" fill="#000000">    </text>
<text text-anchor="start" x="392.4277" y="-235.3" font-family="Arial" font-size="14.00" fill="#666666">[BASE TABLE]</text>
<polygon fill="none" stroke="#000000" points="225,-192.5 225,-222.5 532,-222.5 532,-192.5 225,-192.5"/>
<text text-anchor="start" x="232" y="-203.9" font-family="Arial" font-size="14.00" fill="#000000">id    </text>
<text text-anchor="start" x="277.094" y="-203.9" font-family="Arial" font-size="14.00" fill="#666666">[uuid]</text>
<polygon fill="none" stroke="#000000" points="225,-162.5 225,-192.5 532,-192.5 532,-162.5 225,-162.5"/>
<text text-anchor="start" x="232" y="-173.9" font-family="Arial" font-size="14.00" fill="#000000">username    </text>
<text text-anchor="start" x="328.439" y="-173.9" font-family="Arial" font-size="14.00" fill="#666666">[varchar(25)]</text>
<polygon fill="none" stroke="#000000" points="225,-132.5 225,-162.5 532,-162.5 532,-132.5 225,-132.5"/>
<text text-anchor="start" x="232" y="-143.9" font-family="Arial" font-size="14.00" fill="#000000">profile_image    </text>
<text text-anchor="start" x="350.2146" y="-143.9" font-family="Arial" font-size="14.00" fill="#666666">[text]</text>
<polygon fill="none" stroke="#000000" points="225,-102.5 225,-132.5 532,-132.5 532,-102.5 225,-102.5"/>
<text text-anchor="start" x="232" y="-113.9" font-family="Arial" font-size="14.00" fill="#000000">role    </text>
<text text-anchor="start" x="289.5372" y="-113.9" font-family="Arial" font-size="14.00" fill="#666666">[site_role]</text>
<polygon fill="none" stroke="#000000" points="225,-72.5 225,-102.5 532,-102.5 532,-72.5 225,-72.5"/>
<text text-anchor="start" x="232" y="-83.9" font-family="Arial" font-size="14.00" fill="#000000">created_on    </text>
<text text-anchor="start" x="336.2342" y="-83.9" font-family="Arial" font-size="14.00" fill="#666666">[timestamp without time zone]</text>
<polygon fill="none" stroke="#000000" points="225,-42.5 225,-72.5 532,-72.5 532,-42.5 225,-42.5"/>
<text text-anchor="start" x="231.8605" y="-53.9" font-family="Arial" font-size="14.00" fill="#000000">updated_on    </text>
<text text-anchor="start" x="339.9993" y="-53.9" font-family="Arial" font-size="14.00" fill="#666666">[timestamp without time zone]</text>
</g>
<!-- public.user_block&#45;&gt;public.user -->
<g id="edge1" class="edge">
<title>public.user_block:user_id&#45;&gt;public.user:id</title>
<path fill="none" stroke="#000000" d="M229.0723,-425.9828C201.4374,-416.4457 214.8477,-364.3015 239,-337 325.9327,-238.7324 445.0673,-399.2676 532,-301 559.5343,-269.8756 573.5556,-207.5 532,-207.5"/>
<polygon fill="#000000" stroke="#000000" points="229.1148,-425.9892 238.3201,-431.9484 234.0574,-426.7446 239,-427.5 239,-427.5 239,-427.5 234.0574,-426.7446 239.6799,-423.0516 229.1148,-425.9892 229.1148,-425.9892"/>
<text text-anchor="start" x="7.2855" y="-437.5" font-family="Arial" font-size="10.00" fill="#000000">FOREIGN KEY (user_id) REFERENCES &quot;user&quot;(id)</text>
</g>
<!-- public.user_block&#45;&gt;public.user -->
<g id="edge2" class="edge">
<title>public.user_block:blocked_user_id&#45;&gt;public.user:id</title>
<path fill="none" stroke="#000000" d="M379.7889,-372.1747C389.893,-311.1657 494.2798,-363.8307 532,-301 553.3892,-265.3718 573.5556,-207.5 532,-207.5"/>
<polygon fill="#000000" stroke="#000000" points="379.7619,-372.5291 374.5131,-382.1571 379.381,-377.5145 379,-382.5 379,-382.5 379,-382.5 379.381,-377.5145 383.4869,-382.8429 379.7619,-372.5291 379.7619,-372.5291"/>
<text text-anchor="start" x="107.2785" y="-392.5" font-family="Arial" font-size="10.00" fill="#000000">FOREIGN KEY (blocked_user_id) REFERENCES &quot;user&quot;(id)</text>
</g>
</g>
</svg>
